<svg xmlns="http://www.w3.org/2000/svg" width="600" height="600" viewBox="0 0 600 600" version="1.1"><path d="M 330.500 283.687 C 311.766 300.461, 267.760 344.873, 258.847 356 C 250.528 366.386, 248.061 370.666, 245.590 379 C 242.009 391.076, 241.850 395.915, 242.957 459 C 244.061 521.906, 244.955 539.853, 247.638 552.950 C 249.599 562.528, 252.006 567.137, 258.359 573.486 C 267.752 582.872, 277.785 586, 298.500 586 C 323.083 586, 332.037 581.937, 338.467 567.864 C 340.902 562.534, 341.093 560.899, 341.961 537.864 C 342.466 524.464, 343.148 484.936, 343.477 450.024 C 343.806 415.113, 344.290 385.413, 344.553 384.024 C 344.940 381.977, 344.871 381.868, 344.183 383.446 C 343.344 385.375, 343.331 385.375, 342.789 383.446 C 342.488 382.376, 340.412 375.200, 338.175 367.500 C 332.078 346.516, 330.643 337.668, 330.630 321 C 330.622 310.699, 331.108 304.526, 332.311 299.681 C 334.129 292.356, 339.547 279.849, 343.009 274.988 C 344.179 273.345, 344.768 272.011, 344.318 272.024 C 343.868 272.036, 337.650 277.285, 330.500 283.687" stroke="none" fill="#003270" fill-rule="evenodd"/><path d="M 381.687 253.030 C 358.440 255.668, 347.973 263.211, 337.867 284.608 C 332.045 296.933, 330.617 304.117, 330.630 321 C 330.643 337.518, 332.064 346.400, 337.993 367 C 343.867 387.413, 343.448 386.828, 345.506 377.500 C 349.598 358.945, 357.277 351.398, 376.172 347.358 C 382.658 345.972, 393.150 345.878, 467.500 346.539 C 513.700 346.949, 553.075 347.201, 555 347.098 C 560.267 346.815, 568.329 342.707, 573.967 337.434 C 584.156 327.903, 588.812 313.298, 587.652 294.500 C 586.314 272.807, 579.505 258.461, 568.955 255.107 C 566.677 254.383, 550.949 253.818, 524.955 253.528 C 415.727 252.306, 388.886 252.213, 381.687 253.030" stroke="none" fill="#00ff00" fill-rule="evenodd"/><path d="M 243.661 72.915 C 243.297 105.043, 243.024 151.843, 243.053 176.915 L 243.106 222.500 272.922 252.892 L 302.737 283.285 329.868 251.635 L 357 219.985 357 175.157 C 357 150.502, 357.298 104.654, 357.663 73.274 L 358.325 16.218 346.913 15.601 C 340.636 15.262, 314.985 14.876, 289.911 14.742 L 244.321 14.500 243.661 72.915 M 24.578 242.755 C 24.260 243.073, 24 268.610, 24 299.504 L 24 355.675 63.750 356.336 C 85.613 356.700, 132.297 356.998, 167.494 356.999 L 231.488 357 261.648 326.852 L 291.809 296.704 260.654 270.003 L 229.500 243.302 127.328 242.739 C 71.134 242.430, 24.897 242.437, 24.578 242.755" stroke="none" fill="#da0300" fill-rule="evenodd"/><path d="M 80.633 1.546 C 71.075 3.454, 64.796 5.634, 55.500 10.271 C 44.552 15.732, 39.812 19.100, 30.643 27.932 C 14.918 43.078, 5.477 60.351, 1.520 81.210 C 0.190 88.218, 0 115.608, 0 300 C 0 526.963, -0.206 517.368, 4.995 532.486 C 7.359 539.357, 13.135 550.857, 17.307 557 C 21.786 563.595, 34.593 576.564, 41.556 581.556 C 49.566 587.299, 64.572 594.446, 74.500 597.245 L 82.500 599.500 295.500 599.805 C 454.106 600.032, 510.415 599.812, 516 598.943 C 530.875 596.630, 546.059 590.400, 558.500 581.504 C 565.426 576.552, 578.219 563.586, 582.735 556.940 C 590.308 545.798, 597.129 529.046, 598.596 517.988 C 598.963 515.220, 599.654 512.714, 600.132 512.419 C 600.618 512.118, 601 418.245, 601 298.882 C 601 177.665, 600.624 86.115, 600.126 86.422 C 599.646 86.719, 598.955 84.716, 598.590 81.970 C 597.129 70.953, 590.296 54.184, 582.735 43.060 C 578.215 36.409, 565.429 23.452, 558.444 18.444 C 550.434 12.701, 535.428 5.554, 525.500 2.755 L 517.500 0.500 302.500 0.337 C 123.866 0.202, 86.338 0.406, 80.633 1.546 M 243.661 72.915 C 243.297 105.043, 243.024 151.843, 243.053 176.915 L 243.106 222.500 272.922 252.892 L 302.737 283.285 329.868 251.635 L 357 219.985 357 175.157 C 357 150.502, 357.298 104.654, 357.663 73.274 L 358.325 16.218 346.913 15.601 C 340.636 15.262, 314.985 14.876, 289.911 14.742 L 244.321 14.500 243.661 72.915 M 0.491 300 C 0.491 417.425, 0.607 465.462, 0.750 406.750 C 0.892 348.037, 0.892 251.962, 0.750 193.250 C 0.607 134.537, 0.491 182.575, 0.491 300 M 24.578 242.755 C 24.260 243.073, 24 268.610, 24 299.504 L 24 355.675 63.750 356.336 C 85.613 356.700, 132.297 356.998, 167.494 356.999 L 231.488 357 261.648 326.852 L 291.809 296.704 260.654 270.003 L 229.500 243.302 127.328 242.739 C 71.134 242.430, 24.897 242.437, 24.578 242.755 M 381.687 253.030 C 365.078 254.915, 357.491 258.092, 349.500 266.508 C 347.300 268.825, 339.875 275.609, 333 281.584 C 315.845 296.493, 268.099 344.397, 258.828 356 C 250.523 366.394, 248.057 370.678, 245.590 379 C 242.009 391.076, 241.850 395.915, 242.957 459 C 244.061 521.906, 244.955 539.853, 247.638 552.950 C 249.599 562.528, 252.006 567.137, 258.359 573.486 C 267.752 582.872, 277.785 586, 298.500 586 C 323.083 586, 332.037 581.937, 338.467 567.864 C 340.902 562.534, 341.093 560.899, 341.961 537.864 C 342.466 524.464, 343.148 485.004, 343.476 450.175 C 344.118 381.916, 344.633 374.604, 349.472 365.056 C 354.319 355.490, 362.024 350.383, 376.172 347.358 C 382.658 345.972, 393.150 345.878, 467.500 346.539 C 513.700 346.949, 553.075 347.201, 555 347.098 C 560.267 346.815, 568.329 342.707, 573.967 337.434 C 584.156 327.903, 588.812 313.298, 587.652 294.500 C 586.314 272.807, 579.505 258.461, 568.955 255.107 C 566.677 254.383, 550.949 253.818, 524.955 253.528 C 415.727 252.306, 388.886 252.213, 381.687 253.030" stroke="none" fill="#efeded" fill-rule="evenodd"/></svg>