<svg width="600" height="400" viewBox="0 0 600 400" fill="none" xmlns="http://www.w3.org/2000/svg">
<rect width="600" height="400" fill="url(#paint0_linear_167_83)"/>
<rect x="160" y="25" width="280" height="350" rx="5" fill="white"/>
<path d="M160 55H440V370C440 372.761 437.761 375 435 375H165C162.239 375 160 372.761 160 370V55Z" fill="white"/>
<path d="M160 55H440H160ZM441.5 370C441.5 373.59 438.59 376.5 435 376.5H165C161.41 376.5 158.5 373.59 158.5 370H161.5C161.5 371.933 163.067 373.5 165 373.5H435C436.933 373.5 438.5 371.933 438.5 370H441.5ZM165 376.5C161.41 376.5 158.5 373.59 158.5 370V55H161.5V370C161.5 371.933 163.067 373.5 165 373.5V376.5ZM441.5 55V370C441.5 373.59 438.59 376.5 435 376.5V373.5C436.933 373.5 438.5 371.933 438.5 370V55H441.5Z" fill="black"/>
<g filter="url(#filter0_d_167_83)">
<rect x="240" y="334" width="120" height="30" rx="10" fill="white"/>
<rect x="239.5" y="333.5" width="121" height="31" rx="10.5" stroke="black"/>
</g>
<path d="M265.903 354V343.091H269.792C270.64 343.091 271.343 343.245 271.901 343.554C272.458 343.863 272.876 344.286 273.153 344.822C273.43 345.355 273.568 345.955 273.568 346.623C273.568 347.294 273.428 347.897 273.147 348.434C272.87 348.966 272.451 349.389 271.89 349.701C271.333 350.01 270.631 350.165 269.786 350.165H267.112V348.769H269.637C270.173 348.769 270.608 348.677 270.942 348.492C271.276 348.304 271.521 348.048 271.677 347.725C271.833 347.402 271.912 347.034 271.912 346.623C271.912 346.211 271.833 345.845 271.677 345.525C271.521 345.206 271.274 344.955 270.937 344.774C270.603 344.593 270.163 344.502 269.616 344.502H267.549V354H265.903ZM278.794 354.165C277.988 354.165 277.293 353.993 276.711 353.648C276.132 353.3 275.685 352.812 275.369 352.184C275.056 351.551 274.9 350.811 274.9 349.962C274.9 349.124 275.056 348.386 275.369 347.746C275.685 347.107 276.125 346.608 276.69 346.25C277.258 345.891 277.922 345.712 278.682 345.712C279.144 345.712 279.591 345.788 280.024 345.941C280.457 346.093 280.846 346.333 281.191 346.66C281.535 346.987 281.807 347.411 282.006 347.933C282.205 348.451 282.304 349.082 282.304 349.824V350.388H275.8V349.195H280.743C280.743 348.776 280.658 348.405 280.488 348.082C280.317 347.755 280.077 347.498 279.769 347.31C279.463 347.121 279.104 347.027 278.693 347.027C278.245 347.027 277.854 347.137 277.521 347.358C277.19 347.574 276.935 347.858 276.754 348.21C276.576 348.558 276.487 348.936 276.487 349.344V350.277C276.487 350.824 276.583 351.289 276.775 351.672C276.97 352.056 277.242 352.349 277.59 352.551C277.938 352.75 278.345 352.849 278.81 352.849C279.112 352.849 279.387 352.807 279.635 352.722C279.884 352.633 280.099 352.501 280.28 352.327C280.461 352.153 280.599 351.939 280.695 351.683L282.203 351.955C282.082 352.398 281.865 352.787 281.553 353.121C281.244 353.451 280.855 353.709 280.386 353.893C279.921 354.075 279.39 354.165 278.794 354.165ZM290.202 347.816L288.759 348.071C288.698 347.887 288.602 347.711 288.471 347.544C288.343 347.377 288.169 347.24 287.949 347.134C287.729 347.027 287.454 346.974 287.123 346.974C286.672 346.974 286.296 347.075 285.994 347.278C285.692 347.477 285.541 347.734 285.541 348.05C285.541 348.324 285.643 348.544 285.845 348.711C286.047 348.877 286.374 349.014 286.825 349.121L288.125 349.419C288.878 349.593 289.439 349.861 289.808 350.223C290.177 350.586 290.362 351.056 290.362 351.635C290.362 352.125 290.22 352.562 289.936 352.945C289.655 353.325 289.263 353.624 288.759 353.84C288.258 354.057 287.677 354.165 287.017 354.165C286.101 354.165 285.353 353.97 284.774 353.579C284.195 353.185 283.84 352.626 283.709 351.901L285.248 351.667C285.344 352.068 285.541 352.372 285.84 352.578C286.138 352.78 286.527 352.881 287.006 352.881C287.528 352.881 287.945 352.773 288.258 352.556C288.57 352.336 288.727 352.068 288.727 351.752C288.727 351.496 288.631 351.282 288.439 351.108C288.251 350.934 287.961 350.802 287.571 350.713L286.186 350.41C285.422 350.236 284.858 349.959 284.492 349.579C284.13 349.199 283.949 348.718 283.949 348.135C283.949 347.652 284.084 347.23 284.353 346.868C284.623 346.505 284.996 346.223 285.472 346.021C285.948 345.815 286.493 345.712 287.107 345.712C287.992 345.712 288.688 345.903 289.195 346.287C289.703 346.667 290.039 347.176 290.202 347.816ZM297.637 357.068V352.727H297.541C297.445 352.901 297.307 353.1 297.126 353.324C296.948 353.547 296.703 353.743 296.39 353.909C296.078 354.076 295.673 354.16 295.176 354.16C294.515 354.16 293.926 353.991 293.408 353.654C292.893 353.313 292.488 352.828 292.193 352.2C291.902 351.567 291.756 350.809 291.756 349.925C291.756 349.041 291.904 348.284 292.198 347.656C292.497 347.027 292.905 346.546 293.424 346.212C293.942 345.879 294.53 345.712 295.187 345.712C295.694 345.712 296.103 345.797 296.412 345.967C296.724 346.134 296.966 346.33 297.136 346.553C297.31 346.777 297.445 346.974 297.541 347.145H297.674V345.818H299.23V357.068H297.637ZM295.528 352.801C295.986 352.801 296.373 352.681 296.689 352.439C297.008 352.194 297.25 351.855 297.413 351.422C297.58 350.989 297.664 350.484 297.664 349.909C297.664 349.341 297.582 348.844 297.419 348.418C297.255 347.991 297.015 347.659 296.699 347.422C296.383 347.184 295.993 347.065 295.528 347.065C295.048 347.065 294.649 347.189 294.329 347.438C294.009 347.686 293.768 348.025 293.605 348.455C293.445 348.885 293.365 349.369 293.365 349.909C293.365 350.456 293.447 350.948 293.61 351.385C293.773 351.821 294.015 352.168 294.334 352.423C294.658 352.675 295.055 352.801 295.528 352.801ZM306.554 350.607V345.818H308.152V354H306.586V352.583H306.501C306.312 353.02 306.011 353.384 305.595 353.675C305.183 353.963 304.67 354.107 304.056 354.107C303.53 354.107 303.065 353.991 302.66 353.76C302.259 353.526 301.943 353.18 301.712 352.722C301.485 352.263 301.371 351.697 301.371 351.022V345.818H302.964V350.831C302.964 351.388 303.118 351.832 303.427 352.162C303.736 352.493 304.137 352.658 304.631 352.658C304.929 352.658 305.226 352.583 305.52 352.434C305.819 352.285 306.066 352.059 306.261 351.757C306.46 351.456 306.557 351.072 306.554 350.607ZM310.292 354V345.818H311.885V354H310.292ZM311.096 344.556C310.819 344.556 310.581 344.463 310.382 344.279C310.187 344.091 310.089 343.867 310.089 343.608C310.089 343.345 310.187 343.121 310.382 342.936C310.581 342.748 310.819 342.654 311.096 342.654C311.373 342.654 311.609 342.748 311.805 342.936C312.004 343.121 312.103 343.345 312.103 343.608C312.103 343.867 312.004 344.091 311.805 344.279C311.609 344.463 311.373 344.556 311.096 344.556ZM320.158 347.816L318.715 348.071C318.654 347.887 318.558 347.711 318.427 347.544C318.299 347.377 318.125 347.24 317.905 347.134C317.685 347.027 317.41 346.974 317.079 346.974C316.628 346.974 316.252 347.075 315.95 347.278C315.648 347.477 315.497 347.734 315.497 348.05C315.497 348.324 315.599 348.544 315.801 348.711C316.003 348.877 316.33 349.014 316.781 349.121L318.081 349.419C318.834 349.593 319.395 349.861 319.764 350.223C320.133 350.586 320.318 351.056 320.318 351.635C320.318 352.125 320.176 352.562 319.892 352.945C319.611 353.325 319.219 353.624 318.715 353.84C318.214 354.057 317.633 354.165 316.973 354.165C316.057 354.165 315.309 353.97 314.73 353.579C314.152 353.185 313.796 352.626 313.665 351.901L315.204 351.667C315.3 352.068 315.497 352.372 315.796 352.578C316.094 352.78 316.483 352.881 316.962 352.881C317.484 352.881 317.902 352.773 318.214 352.556C318.527 352.336 318.683 352.068 318.683 351.752C318.683 351.496 318.587 351.282 318.395 351.108C318.207 350.934 317.917 350.802 317.527 350.713L316.142 350.41C315.378 350.236 314.814 349.959 314.448 349.579C314.086 349.199 313.905 348.718 313.905 348.135C313.905 347.652 314.04 347.23 314.31 346.868C314.579 346.505 314.952 346.223 315.428 346.021C315.904 345.815 316.449 345.712 317.063 345.712C317.948 345.712 318.644 345.903 319.152 346.287C319.659 346.667 319.995 347.176 320.158 347.816ZM324.45 354.181C323.932 354.181 323.463 354.085 323.044 353.893C322.625 353.698 322.293 353.416 322.048 353.047C321.806 352.677 321.686 352.224 321.686 351.688C321.686 351.227 321.774 350.847 321.952 350.548C322.13 350.25 322.369 350.014 322.671 349.84C322.973 349.666 323.31 349.534 323.683 349.446C324.056 349.357 324.436 349.289 324.823 349.243C325.313 349.186 325.711 349.14 326.016 349.105C326.322 349.066 326.544 349.004 326.682 348.918C326.821 348.833 326.89 348.695 326.89 348.503V348.466C326.89 348 326.758 347.64 326.496 347.384C326.236 347.129 325.849 347.001 325.334 347.001C324.798 347.001 324.376 347.12 324.067 347.358C323.761 347.592 323.55 347.853 323.433 348.141L321.936 347.8C322.114 347.303 322.373 346.901 322.714 346.596C323.058 346.287 323.454 346.063 323.902 345.925C324.349 345.783 324.82 345.712 325.313 345.712C325.64 345.712 325.986 345.751 326.352 345.829C326.721 345.903 327.066 346.042 327.385 346.244C327.708 346.447 327.973 346.736 328.179 347.113C328.385 347.485 328.488 347.97 328.488 348.567V354H326.932V352.881H326.869C326.766 353.087 326.611 353.29 326.405 353.489C326.199 353.687 325.935 353.853 325.611 353.984C325.288 354.115 324.901 354.181 324.45 354.181ZM324.796 352.903C325.237 352.903 325.613 352.816 325.926 352.642C326.242 352.468 326.481 352.24 326.645 351.96C326.812 351.676 326.895 351.372 326.895 351.049V349.994C326.838 350.051 326.728 350.104 326.565 350.154C326.405 350.2 326.222 350.241 326.016 350.277C325.81 350.309 325.61 350.339 325.414 350.367C325.219 350.392 325.056 350.413 324.924 350.431C324.615 350.47 324.333 350.536 324.077 350.628C323.825 350.721 323.623 350.854 323.47 351.028C323.321 351.198 323.246 351.425 323.246 351.71C323.246 352.104 323.392 352.402 323.683 352.604C323.974 352.803 324.345 352.903 324.796 352.903ZM330.609 354V345.818H332.149V347.118H332.234C332.383 346.678 332.646 346.331 333.022 346.079C333.402 345.824 333.832 345.696 334.311 345.696C334.411 345.696 334.528 345.699 334.663 345.706C334.801 345.713 334.91 345.722 334.988 345.733V347.256C334.924 347.239 334.81 347.219 334.647 347.198C334.484 347.173 334.32 347.161 334.157 347.161C333.78 347.161 333.445 347.24 333.15 347.4C332.859 347.556 332.628 347.775 332.458 348.055C332.287 348.332 332.202 348.648 332.202 349.004V354H330.609Z" fill="black"/>
<line x1="180" y1="108.5" x2="420" y2="108.5" stroke="black"/>
<line x1="289.25" y1="92" x2="289.25" y2="107" stroke="#757474" stroke-width="0.5"/>
<path d="M180.874 102.763V101.676L185.668 94.0909H186.456V95.7741H185.923L182.301 101.506V101.591H188.757V102.763H180.874ZM186.009 105V102.433V101.926V94.0909H187.266V105H186.009ZM194.162 105.149C193.537 105.149 192.975 105.025 192.474 104.776C191.973 104.528 191.572 104.187 191.27 103.754C190.968 103.32 190.803 102.827 190.775 102.273H192.053C192.103 102.766 192.326 103.175 192.724 103.498C193.125 103.817 193.605 103.977 194.162 103.977C194.61 103.977 195.008 103.873 195.356 103.663C195.707 103.453 195.982 103.166 196.181 102.8C196.384 102.431 196.485 102.013 196.485 101.548C196.485 101.072 196.38 100.648 196.171 100.275C195.965 99.8988 195.68 99.6023 195.318 99.3857C194.956 99.169 194.542 99.0589 194.077 99.0554C193.743 99.0518 193.401 99.1033 193.049 99.2099C192.698 99.3129 192.408 99.446 192.181 99.6094L190.945 99.4602L191.606 94.0909H197.273V95.2628H192.714L192.33 98.4801H192.394C192.618 98.3026 192.898 98.1552 193.236 98.038C193.573 97.9208 193.924 97.8622 194.29 97.8622C194.958 97.8622 195.553 98.022 196.075 98.3416C196.6 98.6577 197.012 99.0909 197.31 99.6413C197.612 100.192 197.763 100.82 197.763 101.527C197.763 102.223 197.607 102.844 197.294 103.391C196.986 103.935 196.559 104.364 196.016 104.68C195.473 104.993 194.855 105.149 194.162 105.149ZM203.714 94.0909V105H202.393V95.4759H202.33L199.666 97.2443V95.902L202.393 94.0909H203.714ZM210.687 94.0909V105H209.366V95.4759H209.302L206.639 97.2443V95.902L209.366 94.0909H210.687ZM217.298 93.9418C217.745 93.9453 218.192 94.0305 218.64 94.1974C219.087 94.3643 219.496 94.6413 219.865 95.0284C220.234 95.4119 220.531 95.9357 220.755 96.5998C220.978 97.2638 221.09 98.0966 221.09 99.098C221.09 100.067 220.998 100.929 220.813 101.681C220.632 102.431 220.369 103.063 220.025 103.578C219.684 104.093 219.268 104.483 218.778 104.75C218.292 105.016 217.741 105.149 217.127 105.149C216.516 105.149 215.971 105.028 215.492 104.787C215.016 104.542 214.625 104.203 214.32 103.77C214.018 103.333 213.825 102.827 213.739 102.251H215.039C215.156 102.752 215.389 103.166 215.737 103.493C216.088 103.816 216.552 103.977 217.127 103.977C217.969 103.977 218.633 103.61 219.119 102.875C219.609 102.14 219.854 101.101 219.854 99.7585H219.769C219.57 100.057 219.334 100.314 219.061 100.531C218.787 100.748 218.484 100.914 218.15 101.032C217.816 101.149 217.461 101.207 217.085 101.207C216.46 101.207 215.886 101.053 215.364 100.744C214.846 100.431 214.43 100.004 214.118 99.4602C213.809 98.9134 213.654 98.2884 213.654 97.5852C213.654 96.9176 213.803 96.3068 214.102 95.7528C214.403 95.1953 214.826 94.7514 215.369 94.4212C215.916 94.0909 216.559 93.9311 217.298 93.9418ZM217.298 95.1136C216.85 95.1136 216.447 95.2255 216.088 95.4492C215.733 95.6694 215.451 95.9677 215.241 96.3441C215.036 96.717 214.933 97.1307 214.933 97.5852C214.933 98.0398 215.032 98.4535 215.231 98.8263C215.433 99.1957 215.708 99.4904 216.056 99.7106C216.408 99.9272 216.808 100.036 217.255 100.036C217.592 100.036 217.907 99.9698 218.198 99.8384C218.489 99.7035 218.743 99.5206 218.96 99.2898C219.18 99.0554 219.352 98.7908 219.476 98.4961C219.6 98.1978 219.663 97.8871 219.663 97.5639C219.663 97.1378 219.56 96.7383 219.354 96.3654C219.151 95.9925 218.871 95.6907 218.512 95.4599C218.157 95.229 217.752 95.1136 217.298 95.1136ZM226.807 105.149C226.36 105.142 225.912 105.057 225.465 104.893C225.017 104.73 224.609 104.455 224.24 104.068C223.87 103.677 223.574 103.15 223.35 102.486C223.126 101.818 223.014 100.98 223.014 99.9716C223.014 99.0057 223.105 98.1499 223.286 97.4041C223.467 96.6548 223.73 96.0245 224.074 95.5131C224.419 94.9982 224.834 94.6076 225.321 94.3413C225.811 94.0749 226.363 93.9418 226.978 93.9418C227.588 93.9418 228.132 94.0643 228.608 94.3093C229.087 94.5508 229.478 94.8881 229.779 95.3214C230.081 95.7546 230.277 96.2536 230.365 96.8182H229.066C228.945 96.3281 228.71 95.9215 228.362 95.5984C228.014 95.2752 227.553 95.1136 226.978 95.1136C226.132 95.1136 225.467 95.4812 224.98 96.2163C224.497 96.9513 224.254 97.983 224.25 99.3111H224.335C224.534 99.0092 224.771 98.7518 225.044 98.5387C225.321 98.3221 225.626 98.1552 225.96 98.038C226.294 97.9208 226.647 97.8622 227.02 97.8622C227.645 97.8622 228.217 98.0185 228.735 98.331C229.254 98.6399 229.669 99.0678 229.982 99.6147C230.294 100.158 230.451 100.781 230.451 101.484C230.451 102.159 230.3 102.777 229.998 103.338C229.696 103.896 229.272 104.339 228.725 104.67C228.181 104.996 227.542 105.156 226.807 105.149ZM226.807 103.977C227.255 103.977 227.656 103.865 228.011 103.642C228.37 103.418 228.652 103.118 228.858 102.741C229.067 102.365 229.172 101.946 229.172 101.484C229.172 101.033 229.071 100.623 228.869 100.254C228.67 99.881 228.394 99.5845 228.043 99.3643C227.695 99.1442 227.297 99.0341 226.85 99.0341C226.512 99.0341 226.198 99.1016 225.907 99.2365C225.616 99.3679 225.36 99.549 225.14 99.7798C224.923 100.011 224.753 100.275 224.628 100.574C224.504 100.868 224.442 101.179 224.442 101.506C224.442 101.939 224.543 102.344 224.746 102.72C224.952 103.097 225.232 103.4 225.587 103.631C225.946 103.862 226.353 103.977 226.807 103.977ZM236.018 93.9418C236.466 93.9453 236.913 94.0305 237.361 94.1974C237.808 94.3643 238.216 94.6413 238.586 95.0284C238.955 95.4119 239.252 95.9357 239.475 96.5998C239.699 97.2638 239.811 98.0966 239.811 99.098C239.811 100.067 239.719 100.929 239.534 101.681C239.353 102.431 239.09 103.063 238.746 103.578C238.405 104.093 237.989 104.483 237.499 104.75C237.013 105.016 236.462 105.149 235.848 105.149C235.237 105.149 234.692 105.028 234.213 104.787C233.737 104.542 233.346 104.203 233.041 103.77C232.739 103.333 232.545 102.827 232.46 102.251H233.76C233.877 102.752 234.11 103.166 234.458 103.493C234.809 103.816 235.273 103.977 235.848 103.977C236.689 103.977 237.354 103.61 237.84 102.875C238.33 102.14 238.575 101.101 238.575 99.7585H238.49C238.291 100.057 238.055 100.314 237.781 100.531C237.508 100.748 237.204 100.914 236.871 101.032C236.537 101.149 236.182 101.207 235.805 101.207C235.18 101.207 234.607 101.053 234.085 100.744C233.566 100.431 233.151 100.004 232.838 99.4602C232.529 98.9134 232.375 98.2884 232.375 97.5852C232.375 96.9176 232.524 96.3068 232.822 95.7528C233.124 95.1953 233.547 94.7514 234.09 94.4212C234.637 94.0909 235.28 93.9311 236.018 93.9418ZM236.018 95.1136C235.571 95.1136 235.168 95.2255 234.809 95.4492C234.454 95.6694 234.172 95.9677 233.962 96.3441C233.756 96.717 233.653 97.1307 233.653 97.5852C233.653 98.0398 233.753 98.4535 233.952 98.8263C234.154 99.1957 234.429 99.4904 234.777 99.7106C235.129 99.9272 235.528 100.036 235.976 100.036C236.313 100.036 236.627 99.9698 236.919 99.8384C237.21 99.7035 237.464 99.5206 237.68 99.2898C237.9 99.0554 238.073 98.7908 238.197 98.4961C238.321 98.1978 238.383 97.8871 238.383 97.5639C238.383 97.1378 238.28 96.7383 238.074 96.3654C237.872 95.9925 237.591 95.6907 237.233 95.4599C236.878 95.229 236.473 95.1136 236.018 95.1136ZM241.65 102.763V101.676L246.444 94.0909H247.232V95.7741H246.7L243.078 101.506V101.591H249.533V102.763H241.65ZM246.785 105V102.433V101.926V94.0909H248.042V105H246.785ZM255.088 105.149C254.285 105.149 253.602 104.931 253.037 104.494C252.472 104.054 252.041 103.416 251.743 102.582C251.444 101.744 251.295 100.732 251.295 99.5455C251.295 98.3665 251.444 97.3597 251.743 96.5252C252.045 95.6871 252.478 95.0479 253.042 94.6076C253.611 94.1637 254.292 93.9418 255.088 93.9418C255.883 93.9418 256.563 94.1637 257.128 94.6076C257.696 95.0479 258.129 95.6871 258.428 96.5252C258.73 97.3597 258.881 98.3665 258.881 99.5455C258.881 100.732 258.731 101.744 258.433 102.582C258.135 103.416 257.703 104.054 257.139 104.494C256.574 104.931 255.89 105.149 255.088 105.149ZM255.088 103.977C255.883 103.977 256.501 103.594 256.942 102.827C257.382 102.06 257.602 100.966 257.602 99.5455C257.602 98.6009 257.501 97.7965 257.298 97.1325C257.1 96.4684 256.812 95.9624 256.436 95.6143C256.063 95.2663 255.613 95.0923 255.088 95.0923C254.3 95.0923 253.683 95.4812 253.24 96.2589C252.796 97.033 252.574 98.1286 252.574 99.5455C252.574 100.49 252.673 101.293 252.872 101.953C253.071 102.614 253.357 103.116 253.73 103.461C254.106 103.805 254.559 103.977 255.088 103.977ZM264.527 105.149C264.079 105.142 263.632 105.057 263.184 104.893C262.737 104.73 262.329 104.455 261.959 104.068C261.59 103.677 261.294 103.15 261.07 102.486C260.846 101.818 260.734 100.98 260.734 99.9716C260.734 99.0057 260.825 98.1499 261.006 97.4041C261.187 96.6548 261.45 96.0245 261.794 95.5131C262.139 94.9982 262.554 94.6076 263.041 94.3413C263.531 94.0749 264.083 93.9418 264.697 93.9418C265.308 93.9418 265.851 94.0643 266.327 94.3093C266.807 94.5508 267.197 94.8881 267.499 95.3214C267.801 95.7546 267.996 96.2536 268.085 96.8182H266.785C266.665 96.3281 266.43 95.9215 266.082 95.5984C265.734 95.2752 265.273 95.1136 264.697 95.1136C263.852 95.1136 263.186 95.4812 262.7 96.2163C262.217 96.9513 261.974 97.983 261.97 99.3111H262.055C262.254 99.0092 262.49 98.7518 262.764 98.5387C263.041 98.3221 263.346 98.1552 263.68 98.038C264.014 97.9208 264.367 97.8622 264.74 97.8622C265.365 97.8622 265.937 98.0185 266.455 98.331C266.974 98.6399 267.389 99.0678 267.702 99.6147C268.014 100.158 268.17 100.781 268.17 101.484C268.17 102.159 268.019 102.777 267.718 103.338C267.416 103.896 266.991 104.339 266.444 104.67C265.901 104.996 265.262 105.156 264.527 105.149ZM264.527 103.977C264.974 103.977 265.376 103.865 265.731 103.642C266.089 103.418 266.372 103.118 266.578 102.741C266.787 102.365 266.892 101.946 266.892 101.484C266.892 101.033 266.791 100.623 266.588 100.254C266.389 99.881 266.114 99.5845 265.763 99.3643C265.415 99.1442 265.017 99.0341 264.569 99.0341C264.232 99.0341 263.918 99.1016 263.627 99.2365C263.335 99.3679 263.08 99.549 262.86 99.7798C262.643 100.011 262.472 100.275 262.348 100.574C262.224 100.868 262.162 101.179 262.162 101.506C262.162 101.939 262.263 102.344 262.465 102.72C262.671 103.097 262.952 103.4 263.307 103.631C263.666 103.862 264.072 103.977 264.527 103.977ZM270.606 105L275.485 95.348V95.2628H269.86V94.0909H276.849V95.3267L271.991 105H270.606ZM282.109 105.149C281.377 105.149 280.731 105.02 280.17 104.76C279.612 104.498 279.177 104.137 278.865 103.679C278.552 103.217 278.398 102.692 278.402 102.102C278.398 101.641 278.489 101.214 278.673 100.824C278.858 100.43 279.11 100.101 279.43 99.8384C279.753 99.5721 280.113 99.4034 280.511 99.3324V99.2685C279.989 99.1335 279.573 98.8406 279.264 98.3896C278.956 97.935 278.803 97.4183 278.806 96.8395C278.803 96.2855 278.943 95.7901 279.227 95.3533C279.511 94.9165 279.902 94.5721 280.399 94.32C280.9 94.0678 281.47 93.9418 282.109 93.9418C282.741 93.9418 283.306 94.0678 283.803 94.32C284.3 94.5721 284.691 94.9165 284.975 95.3533C285.262 95.7901 285.408 96.2855 285.411 96.8395C285.408 97.4183 285.25 97.935 284.937 98.3896C284.628 98.8406 284.218 99.1335 283.707 99.2685V99.3324C284.101 99.4034 284.456 99.5721 284.772 99.8384C285.088 100.101 285.34 100.43 285.529 100.824C285.717 101.214 285.813 101.641 285.816 102.102C285.813 102.692 285.653 103.217 285.337 103.679C285.024 104.137 284.589 104.498 284.032 104.76C283.478 105.02 282.837 105.149 282.109 105.149ZM282.109 103.977C282.603 103.977 283.029 103.897 283.387 103.738C283.746 103.578 284.023 103.352 284.218 103.061C284.414 102.77 284.513 102.429 284.517 102.038C284.513 101.626 284.407 101.262 284.197 100.946C283.987 100.63 283.702 100.382 283.339 100.201C282.981 100.02 282.571 99.929 282.109 99.929C281.644 99.929 281.228 100.02 280.862 100.201C280.5 100.382 280.214 100.63 280.005 100.946C279.799 101.262 279.698 101.626 279.701 102.038C279.698 102.429 279.792 102.77 279.984 103.061C280.179 103.352 280.458 103.578 280.82 103.738C281.182 103.897 281.612 103.977 282.109 103.977ZM282.109 98.7997C282.5 98.7997 282.846 98.7216 283.148 98.5653C283.453 98.4091 283.693 98.1907 283.867 97.9102C284.041 97.6296 284.13 97.3011 284.133 96.9247C284.13 96.5554 284.043 96.234 283.872 95.9606C283.702 95.6836 283.465 95.4705 283.164 95.3214C282.862 95.1687 282.51 95.0923 282.109 95.0923C281.701 95.0923 281.344 95.1687 281.038 95.3214C280.733 95.4705 280.497 95.6836 280.33 95.9606C280.163 96.234 280.081 96.5554 280.085 96.9247C280.081 97.3011 280.165 97.6296 280.335 97.9102C280.509 98.1907 280.749 98.4091 281.054 98.5653C281.36 98.7216 281.711 98.7997 282.109 98.7997Z" fill="black"/>
<path d="M183.255 73.0909V84H180.948V73.0909H183.255ZM189.019 84H185.152V73.0909H189.051C190.149 73.0909 191.093 73.3093 191.885 73.7461C192.677 74.1793 193.286 74.8026 193.712 75.6158C194.142 76.429 194.357 77.402 194.357 78.5348C194.357 79.6712 194.142 80.6477 193.712 81.4645C193.286 82.2812 192.674 82.908 191.875 83.3448C191.079 83.7816 190.127 84 189.019 84ZM187.459 82.0238H188.924C189.605 82.0238 190.179 81.9031 190.644 81.6616C191.113 81.4165 191.464 81.0384 191.699 80.527C191.937 80.0121 192.056 79.348 192.056 78.5348C192.056 77.7287 191.937 77.07 191.699 76.5586C191.464 76.0472 191.115 75.6708 190.649 75.4293C190.184 75.1879 189.611 75.0671 188.929 75.0671H187.459V82.0238ZM199.537 84V73.0909H203.841C204.665 73.0909 205.368 73.2383 205.95 73.533C206.536 73.8242 206.982 74.2379 207.287 74.7741C207.596 75.3068 207.751 75.9336 207.751 76.6545C207.751 77.3789 207.595 78.0021 207.282 78.5241C206.97 79.0426 206.517 79.4403 205.924 79.7173C205.334 79.9943 204.62 80.1328 203.782 80.1328H200.901V78.2791H203.41C203.85 78.2791 204.216 78.2187 204.507 78.098C204.798 77.9773 205.015 77.7962 205.157 77.5547C205.302 77.3132 205.375 77.0131 205.375 76.6545C205.375 76.2923 205.302 75.9869 205.157 75.7383C205.015 75.4897 204.796 75.3015 204.502 75.1737C204.21 75.0423 203.843 74.9766 203.399 74.9766H201.843V84H199.537ZM205.428 79.0355L208.14 84H205.593L202.941 79.0355H205.428ZM212.935 84.1598C212.093 84.1598 211.369 83.9893 210.762 83.6484C210.158 83.304 209.693 82.8175 209.366 82.1889C209.039 81.5568 208.876 80.8093 208.876 79.9464C208.876 79.1048 209.039 78.3661 209.366 77.7305C209.693 77.0948 210.153 76.5994 210.746 76.2443C211.342 75.8892 212.042 75.7116 212.844 75.7116C213.384 75.7116 213.887 75.7987 214.352 75.9727C214.821 76.1431 215.229 76.4006 215.577 76.745C215.929 77.0895 216.202 77.5227 216.397 78.0447C216.593 78.5632 216.69 79.1705 216.69 79.8665V80.4897H209.782V79.0835H214.554C214.554 78.7567 214.483 78.4673 214.341 78.2152C214.199 77.9631 214.002 77.766 213.75 77.6239C213.501 77.4783 213.212 77.4055 212.882 77.4055C212.537 77.4055 212.232 77.4854 211.966 77.6452C211.703 77.8015 211.497 78.0128 211.348 78.2791C211.199 78.5419 211.122 78.8349 211.119 79.158V80.495C211.119 80.8999 211.193 81.2496 211.342 81.5444C211.495 81.8391 211.71 82.0664 211.987 82.2262C212.264 82.386 212.592 82.4659 212.972 82.4659C213.224 82.4659 213.455 82.4304 213.665 82.3594C213.874 82.2884 214.054 82.1818 214.203 82.0398C214.352 81.8977 214.466 81.7237 214.544 81.5178L216.642 81.6562C216.536 82.1605 216.317 82.6009 215.987 82.9773C215.661 83.3501 215.238 83.6413 214.719 83.8509C214.205 84.0568 213.61 84.1598 212.935 84.1598ZM221.868 84.1598C221.03 84.1598 220.309 83.9822 219.705 83.6271C219.105 83.2685 218.643 82.7713 218.32 82.1357C218.001 81.5 217.841 80.7685 217.841 79.9411C217.841 79.103 218.002 78.3679 218.326 77.7358C218.652 77.1001 219.116 76.6048 219.716 76.2496C220.316 75.891 221.03 75.7116 221.857 75.7116C222.571 75.7116 223.196 75.8413 223.732 76.1005C224.268 76.3597 224.693 76.7237 225.005 77.1925C225.318 77.6612 225.49 78.2116 225.522 78.8438H223.381C223.32 78.4354 223.161 78.1069 222.901 77.8583C222.646 77.6062 222.31 77.4801 221.895 77.4801C221.543 77.4801 221.236 77.576 220.973 77.7678C220.714 77.956 220.511 78.2312 220.366 78.5934C220.22 78.9556 220.147 79.3942 220.147 79.9091C220.147 80.4311 220.218 80.875 220.36 81.2408C220.506 81.6065 220.71 81.8853 220.973 82.0771C221.236 82.2688 221.543 82.3647 221.895 82.3647C222.154 82.3647 222.386 82.3114 222.592 82.2049C222.802 82.0984 222.974 81.9439 223.109 81.7415C223.248 81.5355 223.338 81.2887 223.381 81.0011H225.522C225.487 81.6261 225.316 82.1765 225.011 82.6523C224.709 83.1246 224.292 83.494 223.759 83.7603C223.226 84.0266 222.596 84.1598 221.868 84.1598ZM230.704 84.1598C229.862 84.1598 229.138 83.9893 228.53 83.6484C227.927 83.304 227.461 82.8175 227.135 82.1889C226.808 81.5568 226.645 80.8093 226.645 79.9464C226.645 79.1048 226.808 78.3661 227.135 77.7305C227.461 77.0948 227.921 76.5994 228.514 76.2443C229.111 75.8892 229.81 75.7116 230.613 75.7116C231.153 75.7116 231.655 75.7987 232.12 75.9727C232.589 76.1431 232.998 76.4006 233.346 76.745C233.697 77.0895 233.971 77.5227 234.166 78.0447C234.361 78.5632 234.459 79.1705 234.459 79.8665V80.4897H227.55V79.0835H232.323C232.323 78.7567 232.252 78.4673 232.11 78.2152C231.968 77.9631 231.771 77.766 231.519 77.6239C231.27 77.4783 230.981 77.4055 230.65 77.4055C230.306 77.4055 230 77.4854 229.734 77.6452C229.471 77.8015 229.265 78.0128 229.116 78.2791C228.967 78.5419 228.891 78.8349 228.887 79.158V80.495C228.887 80.8999 228.962 81.2496 229.111 81.5444C229.264 81.8391 229.478 82.0664 229.755 82.2262C230.032 82.386 230.361 82.4659 230.741 82.4659C230.993 82.4659 231.224 82.4304 231.433 82.3594C231.643 82.2884 231.822 82.1818 231.971 82.0398C232.12 81.8977 232.234 81.7237 232.312 81.5178L234.411 81.6562C234.304 82.1605 234.086 82.6009 233.756 82.9773C233.429 83.3501 233.006 83.6413 232.488 83.8509C231.973 84.0568 231.378 84.1598 230.704 84.1598ZM235.94 84V75.8182H238.209V84H235.94ZM237.08 74.7635C236.742 74.7635 236.453 74.6516 236.211 74.4279C235.973 74.2006 235.854 73.929 235.854 73.6129C235.854 73.3004 235.973 73.0323 236.211 72.8086C236.453 72.5813 236.742 72.4677 237.08 72.4677C237.417 72.4677 237.705 72.5813 237.943 72.8086C238.184 73.0323 238.305 73.3004 238.305 73.6129C238.305 73.929 238.184 74.2006 237.943 74.4279C237.705 74.6516 237.417 74.7635 237.08 74.7635ZM244.379 75.8182V77.5227H239.451V75.8182H244.379ZM240.57 73.858H242.839V81.4858C242.839 81.6953 242.871 81.8587 242.935 81.9759C242.999 82.0895 243.088 82.1694 243.201 82.2156C243.319 82.2617 243.453 82.2848 243.606 82.2848C243.713 82.2848 243.819 82.2759 243.926 82.2582C244.032 82.2369 244.114 82.2209 244.171 82.2102L244.528 83.8988C244.414 83.9343 244.254 83.9751 244.048 84.0213C243.842 84.071 243.592 84.1012 243.297 84.1119C242.75 84.1332 242.271 84.0604 241.859 83.8935C241.451 83.7266 241.133 83.4673 240.906 83.1158C240.678 82.7642 240.566 82.3203 240.57 81.7841V73.858ZM248.19 84.1545C247.668 84.1545 247.203 84.0639 246.794 83.8828C246.386 83.6982 246.063 83.4265 245.825 83.0678C245.59 82.7056 245.473 82.2546 245.473 81.7148C245.473 81.2603 245.557 80.8786 245.724 80.5696C245.89 80.2607 246.118 80.0121 246.405 79.8239C246.693 79.6357 247.02 79.4936 247.385 79.3977C247.755 79.3018 248.142 79.2344 248.547 79.1953C249.023 79.1456 249.406 79.0994 249.697 79.0568C249.988 79.0107 250.2 78.9432 250.331 78.8544C250.463 78.7656 250.528 78.6342 250.528 78.4602V78.4283C250.528 78.0909 250.422 77.8299 250.209 77.6452C249.999 77.4606 249.701 77.3683 249.314 77.3683C248.905 77.3683 248.58 77.4588 248.339 77.6399C248.097 77.8175 247.938 78.0412 247.86 78.3111L245.761 78.1406C245.867 77.6435 246.077 77.2138 246.389 76.8516C246.702 76.4858 247.105 76.2053 247.599 76.0099C248.096 75.8111 248.671 75.7116 249.324 75.7116C249.779 75.7116 250.214 75.7649 250.629 75.8714C251.048 75.978 251.42 76.1431 251.743 76.3668C252.069 76.5906 252.327 76.8782 252.515 77.2298C252.703 77.5778 252.797 77.995 252.797 78.4815V84H250.645V82.8654H250.581C250.45 83.1211 250.274 83.3466 250.054 83.5419C249.834 83.7337 249.569 83.8846 249.26 83.9947C248.952 84.1012 248.595 84.1545 248.19 84.1545ZM248.84 82.5884C249.173 82.5884 249.468 82.5227 249.724 82.3913C249.98 82.2564 250.18 82.0753 250.326 81.848C250.471 81.6207 250.544 81.3633 250.544 81.0756V80.2074C250.473 80.2536 250.376 80.2962 250.251 80.3352C250.131 80.3707 249.994 80.4045 249.841 80.4364C249.688 80.4648 249.536 80.4915 249.383 80.5163C249.23 80.5376 249.092 80.5572 248.968 80.5749C248.701 80.614 248.469 80.6761 248.27 80.7614C248.071 80.8466 247.916 80.962 247.806 81.1076C247.696 81.2496 247.641 81.4272 247.641 81.6403C247.641 81.9492 247.753 82.1854 247.977 82.3487C248.204 82.5085 248.492 82.5884 248.84 82.5884Z" fill="black"/>
<path d="M160 30C160 27.2386 162.239 25 165 25H435C437.761 25 440 27.2386 440 30V55H160V30Z" fill="white" stroke="black" stroke-width="3" stroke-linejoin="bevel"/>
<path d="M242.15 34.0909L244.787 42.3793H244.888L247.53 34.0909H250.087L246.326 45H243.354L239.588 34.0909H242.15ZM254.163 45.1598C253.321 45.1598 252.597 44.9893 251.99 44.6484C251.386 44.304 250.921 43.8175 250.594 43.1889C250.267 42.5568 250.104 41.8093 250.104 40.9464C250.104 40.1048 250.267 39.3661 250.594 38.7305C250.921 38.0948 251.381 37.5994 251.974 37.2443C252.57 36.8892 253.27 36.7116 254.072 36.7116C254.612 36.7116 255.115 36.7987 255.58 36.9727C256.049 37.1431 256.457 37.4006 256.805 37.745C257.157 38.0895 257.43 38.5227 257.625 39.0447C257.821 39.5632 257.918 40.1705 257.918 40.8665V41.4897H251.01V40.0835H255.782C255.782 39.7567 255.711 39.4673 255.569 39.2152C255.427 38.9631 255.23 38.766 254.978 38.6239C254.729 38.4783 254.44 38.4055 254.11 38.4055C253.765 38.4055 253.46 38.4854 253.194 38.6452C252.931 38.8015 252.725 39.0128 252.576 39.2791C252.427 39.5419 252.35 39.8349 252.347 40.158V41.495C252.347 41.8999 252.421 42.2496 252.57 42.5444C252.723 42.8391 252.938 43.0664 253.215 43.2262C253.492 43.386 253.82 43.4659 254.2 43.4659C254.452 43.4659 254.683 43.4304 254.893 43.3594C255.102 43.2884 255.282 43.1818 255.431 43.0398C255.58 42.8977 255.694 42.7237 255.772 42.5178L257.87 42.6562C257.764 43.1605 257.545 43.6009 257.215 43.9773C256.889 44.3501 256.466 44.6413 255.947 44.8509C255.433 45.0568 254.838 45.1598 254.163 45.1598ZM259.399 45V36.8182H261.599V38.2457H261.684C261.833 37.7379 262.084 37.3544 262.435 37.0952C262.787 36.8324 263.192 36.701 263.65 36.701C263.764 36.701 263.886 36.7081 264.017 36.7223C264.149 36.7365 264.264 36.756 264.364 36.7809V38.7944C264.257 38.7624 264.11 38.734 263.922 38.7092C263.733 38.6843 263.561 38.6719 263.405 38.6719C263.071 38.6719 262.773 38.7447 262.51 38.8903C262.251 39.0323 262.045 39.2312 261.892 39.4869C261.743 39.7425 261.668 40.0373 261.668 40.3711V45H259.399ZM265.537 45V36.8182H267.806V45H265.537ZM266.677 35.7635C266.339 35.7635 266.05 35.6516 265.809 35.4279C265.571 35.2006 265.452 34.929 265.452 34.6129C265.452 34.3004 265.571 34.0323 265.809 33.8086C266.05 33.5813 266.339 33.4677 266.677 33.4677C267.014 33.4677 267.302 33.5813 267.54 33.8086C267.781 34.0323 267.902 34.3004 267.902 34.6129C267.902 34.929 267.781 35.2006 267.54 35.4279C267.302 35.6516 267.014 35.7635 266.677 35.7635ZM274.024 36.8182V38.5227H268.974V36.8182H274.024ZM270.13 45V36.2269C270.13 35.6339 270.245 35.142 270.476 34.7514C270.71 34.3608 271.03 34.0678 271.435 33.8725C271.84 33.6772 272.3 33.5795 272.814 33.5795C273.163 33.5795 273.48 33.6062 273.768 33.6594C274.059 33.7127 274.276 33.7607 274.418 33.8033L274.013 35.5078C273.924 35.4794 273.814 35.4528 273.683 35.4279C273.555 35.4031 273.424 35.3906 273.289 35.3906C272.955 35.3906 272.722 35.4688 272.591 35.625C272.459 35.7777 272.394 35.9925 272.394 36.2695V45H270.13ZM275.41 45V36.8182H277.679V45H275.41ZM276.55 35.7635C276.212 35.7635 275.923 35.6516 275.682 35.4279C275.444 35.2006 275.325 34.929 275.325 34.6129C275.325 34.3004 275.444 34.0323 275.682 33.8086C275.923 33.5813 276.212 33.4677 276.55 33.4677C276.887 33.4677 277.175 33.5813 277.413 33.8086C277.654 34.0323 277.775 34.3004 277.775 34.6129C277.775 34.929 277.654 35.2006 277.413 35.4279C277.175 35.6516 276.887 35.7635 276.55 35.7635ZM283.194 45.1598C282.356 45.1598 281.635 44.9822 281.031 44.6271C280.431 44.2685 279.969 43.7713 279.646 43.1357C279.326 42.5 279.167 41.7685 279.167 40.9411C279.167 40.103 279.328 39.3679 279.651 38.7358C279.978 38.1001 280.441 37.6048 281.042 37.2496C281.642 36.891 282.356 36.7116 283.183 36.7116C283.897 36.7116 284.522 36.8413 285.058 37.1005C285.594 37.3597 286.019 37.7237 286.331 38.1925C286.644 38.6612 286.816 39.2116 286.848 39.8438H284.706C284.646 39.4354 284.486 39.1069 284.227 38.8583C283.971 38.6062 283.636 38.4801 283.22 38.4801C282.869 38.4801 282.561 38.576 282.299 38.7678C282.039 38.956 281.837 39.2312 281.691 39.5934C281.546 39.9556 281.473 40.3942 281.473 40.9091C281.473 41.4311 281.544 41.875 281.686 42.2408C281.832 42.6065 282.036 42.8853 282.299 43.0771C282.561 43.2688 282.869 43.3647 283.22 43.3647C283.479 43.3647 283.712 43.3114 283.918 43.2049C284.128 43.0984 284.3 42.9439 284.435 42.7415C284.573 42.5355 284.664 42.2887 284.706 42.0011H286.848C286.812 42.6261 286.642 43.1765 286.336 43.6523C286.034 44.1246 285.617 44.494 285.085 44.7603C284.552 45.0266 283.922 45.1598 283.194 45.1598ZM290.634 45.1545C290.112 45.1545 289.646 45.0639 289.238 44.8828C288.83 44.6982 288.507 44.4265 288.269 44.0678C288.034 43.7056 287.917 43.2546 287.917 42.7148C287.917 42.2603 288 41.8786 288.167 41.5696C288.334 41.2607 288.562 41.0121 288.849 40.8239C289.137 40.6357 289.464 40.4936 289.829 40.3977C290.199 40.3018 290.586 40.2344 290.991 40.1953C291.466 40.1456 291.85 40.0994 292.141 40.0568C292.432 40.0107 292.644 39.9432 292.775 39.8544C292.906 39.7656 292.972 39.6342 292.972 39.4602V39.4283C292.972 39.0909 292.866 38.8299 292.652 38.6452C292.443 38.4606 292.145 38.3683 291.758 38.3683C291.349 38.3683 291.024 38.4588 290.783 38.6399C290.541 38.8175 290.382 39.0412 290.303 39.3111L288.205 39.1406C288.311 38.6435 288.521 38.2138 288.833 37.8516C289.146 37.4858 289.549 37.2053 290.042 37.0099C290.54 36.8111 291.115 36.7116 291.768 36.7116C292.223 36.7116 292.658 36.7649 293.073 36.8714C293.492 36.978 293.863 37.1431 294.187 37.3668C294.513 37.5906 294.771 37.8782 294.959 38.2298C295.147 38.5778 295.241 38.995 295.241 39.4815V45H293.089V43.8654H293.025C292.894 44.1211 292.718 44.3466 292.498 44.5419C292.278 44.7337 292.013 44.8846 291.704 44.9947C291.395 45.1012 291.038 45.1545 290.634 45.1545ZM291.284 43.5884C291.617 43.5884 291.912 43.5227 292.168 43.3913C292.423 43.2564 292.624 43.0753 292.77 42.848C292.915 42.6207 292.988 42.3633 292.988 42.0756V41.2074C292.917 41.2536 292.819 41.2962 292.695 41.3352C292.574 41.3707 292.438 41.4045 292.285 41.4364C292.132 41.4648 291.98 41.4915 291.827 41.5163C291.674 41.5376 291.536 41.5572 291.411 41.5749C291.145 41.614 290.912 41.6761 290.714 41.7614C290.515 41.8466 290.36 41.962 290.25 42.1076C290.14 42.2496 290.085 42.4272 290.085 42.6403C290.085 42.9492 290.197 43.1854 290.421 43.3487C290.648 43.5085 290.936 43.5884 291.284 43.5884ZM297.002 45V36.8182H299.202V38.2457H299.287C299.436 37.7379 299.686 37.3544 300.038 37.0952C300.39 36.8324 300.794 36.701 301.252 36.701C301.366 36.701 301.489 36.7081 301.62 36.7223C301.751 36.7365 301.867 36.756 301.966 36.7809V38.7944C301.86 38.7624 301.712 38.734 301.524 38.7092C301.336 38.6843 301.164 38.6719 301.007 38.6719C300.674 38.6719 300.375 38.7447 300.113 38.8903C299.853 39.0323 299.647 39.2312 299.495 39.4869C299.345 39.7425 299.271 40.0373 299.271 40.3711V45H297.002ZM306.654 45V34.0909H310.958C311.782 34.0909 312.485 34.2383 313.067 34.533C313.653 34.8242 314.099 35.2379 314.404 35.7741C314.713 36.3068 314.867 36.9336 314.867 37.6545C314.867 38.3789 314.711 39.0021 314.399 39.5241C314.086 40.0426 313.633 40.4403 313.04 40.7173C312.451 40.9943 311.737 41.1328 310.899 41.1328H308.017V39.2791H310.526C310.967 39.2791 311.332 39.2187 311.624 39.098C311.915 38.9773 312.131 38.7962 312.273 38.5547C312.419 38.3132 312.492 38.0131 312.492 37.6545C312.492 37.2923 312.419 36.9869 312.273 36.7383C312.131 36.4897 311.913 36.3015 311.618 36.1737C311.327 36.0423 310.959 35.9766 310.516 35.9766H308.96V45H306.654ZM312.545 40.0355L315.256 45H312.71L310.057 40.0355H312.545ZM320.052 45.1598C319.21 45.1598 318.486 44.9893 317.878 44.6484C317.275 44.304 316.81 43.8175 316.483 43.1889C316.156 42.5568 315.993 41.8093 315.993 40.9464C315.993 40.1048 316.156 39.3661 316.483 38.7305C316.81 38.0948 317.269 37.5994 317.862 37.2443C318.459 36.8892 319.159 36.7116 319.961 36.7116C320.501 36.7116 321.003 36.7987 321.469 36.9727C321.937 37.1431 322.346 37.4006 322.694 37.745C323.045 38.0895 323.319 38.5227 323.514 39.0447C323.709 39.5632 323.807 40.1705 323.807 40.8665V41.4897H316.898V40.0835H321.671C321.671 39.7567 321.6 39.4673 321.458 39.2152C321.316 38.9631 321.119 38.766 320.867 38.6239C320.618 38.4783 320.329 38.4055 319.998 38.4055C319.654 38.4055 319.349 38.4854 319.082 38.6452C318.819 38.8015 318.614 39.0128 318.464 39.2791C318.315 39.5419 318.239 39.8349 318.235 40.158V41.495C318.235 41.8999 318.31 42.2496 318.459 42.5444C318.612 42.8391 318.827 43.0664 319.104 43.2262C319.381 43.386 319.709 43.4659 320.089 43.4659C320.341 43.4659 320.572 43.4304 320.781 43.3594C320.991 43.2884 321.17 43.1818 321.319 43.0398C321.469 42.8977 321.582 42.7237 321.66 42.5178L323.759 42.6562C323.653 43.1605 323.434 43.6009 323.104 43.9773C322.777 44.3501 322.355 44.6413 321.836 44.8509C321.321 45.0568 320.726 45.1598 320.052 45.1598ZM328.985 45.1598C328.147 45.1598 327.426 44.9822 326.822 44.6271C326.222 44.2685 325.76 43.7713 325.437 43.1357C325.117 42.5 324.958 41.7685 324.958 40.9411C324.958 40.103 325.119 39.3679 325.442 38.7358C325.769 38.1001 326.232 37.6048 326.833 37.2496C327.433 36.891 328.147 36.7116 328.974 36.7116C329.688 36.7116 330.313 36.8413 330.849 37.1005C331.385 37.3597 331.81 37.7237 332.122 38.1925C332.435 38.6612 332.607 39.2116 332.639 39.8438H330.497C330.437 39.4354 330.277 39.1069 330.018 38.8583C329.762 38.6062 329.427 38.4801 329.011 38.4801C328.66 38.4801 328.352 38.576 328.09 38.7678C327.83 38.956 327.628 39.2312 327.482 39.5934C327.337 39.9556 327.264 40.3942 327.264 40.9091C327.264 41.4311 327.335 41.875 327.477 42.2408C327.623 42.6065 327.827 42.8853 328.09 43.0771C328.352 43.2688 328.66 43.3647 329.011 43.3647C329.27 43.3647 329.503 43.3114 329.709 43.2049C329.919 43.0984 330.091 42.9439 330.226 42.7415C330.364 42.5355 330.455 42.2887 330.497 42.0011H332.639C332.603 42.6261 332.433 43.1765 332.127 43.6523C331.826 44.1246 331.408 44.494 330.876 44.7603C330.343 45.0266 329.713 45.1598 328.985 45.1598ZM337.82 45.1598C336.979 45.1598 336.254 44.9893 335.647 44.6484C335.043 44.304 334.578 43.8175 334.251 43.1889C333.925 42.5568 333.761 41.8093 333.761 40.9464C333.761 40.1048 333.925 39.3661 334.251 38.7305C334.578 38.0948 335.038 37.5994 335.631 37.2443C336.228 36.8892 336.927 36.7116 337.73 36.7116C338.269 36.7116 338.772 36.7987 339.237 36.9727C339.706 37.1431 340.114 37.4006 340.462 37.745C340.814 38.0895 341.087 38.5227 341.283 39.0447C341.478 39.5632 341.576 40.1705 341.576 40.8665V41.4897H334.667V40.0835H339.44C339.44 39.7567 339.369 39.4673 339.227 39.2152C339.084 38.9631 338.887 38.766 338.635 38.6239C338.387 38.4783 338.097 38.4055 337.767 38.4055C337.423 38.4055 337.117 38.4854 336.851 38.6452C336.588 38.8015 336.382 39.0128 336.233 39.2791C336.084 39.5419 336.007 39.8349 336.004 40.158V41.495C336.004 41.8999 336.078 42.2496 336.228 42.5444C336.38 42.8391 336.595 43.0664 336.872 43.2262C337.149 43.386 337.478 43.4659 337.858 43.4659C338.11 43.4659 338.341 43.4304 338.55 43.3594C338.76 43.2884 338.939 43.1818 339.088 43.0398C339.237 42.8977 339.351 42.7237 339.429 42.5178L341.528 42.6562C341.421 43.1605 341.203 43.6009 340.872 43.9773C340.546 44.3501 340.123 44.6413 339.605 44.8509C339.09 45.0568 338.495 45.1598 337.82 45.1598ZM343.056 45V36.8182H345.326V45H343.056ZM344.196 35.7635C343.859 35.7635 343.57 35.6516 343.328 35.4279C343.09 35.2006 342.971 34.929 342.971 34.6129C342.971 34.3004 343.09 34.0323 343.328 33.8086C343.57 33.5813 343.859 33.4677 344.196 33.4677C344.534 33.4677 344.821 33.5813 345.059 33.8086C345.301 34.0323 345.421 34.3004 345.421 34.6129C345.421 34.929 345.301 35.2006 345.059 35.4279C344.821 35.6516 344.534 35.7635 344.196 35.7635ZM351.495 36.8182V38.5227H346.568V36.8182H351.495ZM347.687 34.858H349.956V42.4858C349.956 42.6953 349.988 42.8587 350.052 42.9759C350.116 43.0895 350.204 43.1694 350.318 43.2156C350.435 43.2617 350.57 43.2848 350.723 43.2848C350.829 43.2848 350.936 43.2759 351.042 43.2582C351.149 43.2369 351.231 43.2209 351.288 43.2102L351.644 44.8988C351.531 44.9343 351.371 44.9751 351.165 45.0213C350.959 45.071 350.709 45.1012 350.414 45.1119C349.867 45.1332 349.388 45.0604 348.976 44.8935C348.567 44.7266 348.25 44.4673 348.022 44.1158C347.795 43.7642 347.683 43.3203 347.687 42.7841V34.858ZM355.307 45.1545C354.784 45.1545 354.319 45.0639 353.911 44.8828C353.503 44.6982 353.179 44.4265 352.941 44.0678C352.707 43.7056 352.59 43.2546 352.59 42.7148C352.59 42.2603 352.673 41.8786 352.84 41.5696C353.007 41.2607 353.234 41.0121 353.522 40.8239C353.81 40.6357 354.136 40.4936 354.502 40.3977C354.871 40.3018 355.259 40.2344 355.663 40.1953C356.139 40.1456 356.523 40.0994 356.814 40.0568C357.105 40.0107 357.316 39.9432 357.448 39.8544C357.579 39.7656 357.645 39.6342 357.645 39.4602V39.4283C357.645 39.0909 357.538 38.8299 357.325 38.6452C357.116 38.4606 356.818 38.3683 356.43 38.3683C356.022 38.3683 355.697 38.4588 355.456 38.6399C355.214 38.8175 355.054 39.0412 354.976 39.3111L352.878 39.1406C352.984 38.6435 353.194 38.2138 353.506 37.8516C353.819 37.4858 354.222 37.2053 354.715 37.0099C355.212 36.8111 355.788 36.7116 356.441 36.7116C356.896 36.7116 357.331 36.7649 357.746 36.8714C358.165 36.978 358.536 37.1431 358.859 37.3668C359.186 37.5906 359.444 37.8782 359.632 38.2298C359.82 38.5778 359.914 38.995 359.914 39.4815V45H357.762V43.8654H357.698C357.567 44.1211 357.391 44.3466 357.171 44.5419C356.951 44.7337 356.686 44.8846 356.377 44.9947C356.068 45.1012 355.711 45.1545 355.307 45.1545ZM355.956 43.5884C356.29 43.5884 356.585 43.5227 356.841 43.3913C357.096 43.2564 357.297 43.0753 357.443 42.848C357.588 42.6207 357.661 42.3633 357.661 42.0756V41.2074C357.59 41.2536 357.492 41.2962 357.368 41.3352C357.247 41.3707 357.11 41.4045 356.958 41.4364C356.805 41.4648 356.652 41.4915 356.5 41.5163C356.347 41.5376 356.208 41.5572 356.084 41.5749C355.818 41.614 355.585 41.6761 355.386 41.7614C355.188 41.8466 355.033 41.962 354.923 42.1076C354.813 42.2496 354.758 42.4272 354.758 42.6403C354.758 42.9492 354.87 43.1854 355.093 43.3487C355.321 43.5085 355.608 43.5884 355.956 43.5884Z" fill="black"/>
<defs>
<filter id="filter0_d_167_83" x="235" y="333" width="130" height="40" filterUnits="userSpaceOnUse" color-interpolation-filters="sRGB">
<feFlood flood-opacity="0" result="BackgroundImageFix"/>
<feColorMatrix in="SourceAlpha" type="matrix" values="0 0 0 0 0 0 0 0 0 0 0 0 0 0 0 0 0 0 127 0" result="hardAlpha"/>
<feOffset dy="4"/>
<feGaussianBlur stdDeviation="2"/>
<feComposite in2="hardAlpha" operator="out"/>
<feColorMatrix type="matrix" values="0 0 0 0 0 0 0 0 0 0 0 0 0 0 0 0 0 0 0.25 0"/>
<feBlend mode="normal" in2="BackgroundImageFix" result="effect1_dropShadow_167_83"/>
<feBlend mode="normal" in="SourceGraphic" in2="effect1_dropShadow_167_83" result="shape"/>
</filter>
<linearGradient id="paint0_linear_167_83" x1="300" y1="0" x2="300" y2="400" gradientUnits="userSpaceOnUse">
<stop stop-color="#00356E"/>
<stop offset="1" stop-color="#00356E"/>
</linearGradient>
</defs>
</svg>
