<svg width="600" height="400" viewBox="0 0 600 400" fill="none" xmlns="http://www.w3.org/2000/svg">
<rect width="600" height="400" fill="url(#paint0_linear_167_50)"/>
<rect x="25" y="25" width="550" height="350" rx="5" fill="white"/>
<path d="M26 55H574V370C574 372.761 571.761 375 569 375H31C28.2386 375 26 372.761 26 370V55Z" fill="white"/>
<path d="M26 55H574H26ZM575.5 370C575.5 373.59 572.59 376.5 569 376.5H31C27.4101 376.5 24.5 373.59 24.5 370H27.5C27.5 371.933 29.067 373.5 31 373.5H569C570.933 373.5 572.5 371.933 572.5 370H575.5ZM31 376.5C27.4101 376.5 24.5 373.59 24.5 370V55H27.5V370C27.5 371.933 29.067 373.5 31 373.5V376.5ZM575.5 55V370C575.5 373.59 572.59 376.5 569 376.5V373.5C570.933 373.5 572.5 371.933 572.5 370V55H575.5Z" fill="black"/>
<rect x="60" y="65" width="480" height="300" rx="5" fill="white"/>
<g filter="url(#filter0_d_167_50)">
<rect x="232" y="321" width="150" height="40" rx="10" fill="white"/>
<rect x="231.5" y="320.5" width="151" height="41" rx="10.5" stroke="#826868"/>
</g>
<path d="M272.777 340.185H270.561C270.475 339.711 270.317 339.295 270.085 338.935C269.853 338.575 269.569 338.269 269.233 338.018C268.896 337.768 268.52 337.578 268.103 337.45C267.691 337.322 267.253 337.259 266.789 337.259C265.951 337.259 265.201 337.469 264.538 337.891C263.88 338.312 263.359 338.93 262.975 339.744C262.597 340.559 262.407 341.553 262.407 342.727C262.407 343.911 262.597 344.91 262.975 345.724C263.359 346.539 263.882 347.154 264.545 347.571C265.208 347.988 265.954 348.196 266.782 348.196C267.242 348.196 267.677 348.134 268.089 348.011C268.506 347.884 268.882 347.696 269.218 347.45C269.555 347.204 269.839 346.903 270.071 346.548C270.307 346.188 270.471 345.777 270.561 345.312L272.777 345.32C272.658 346.035 272.429 346.693 272.088 347.294C271.752 347.891 271.318 348.407 270.788 348.842C270.262 349.273 269.661 349.607 268.984 349.844C268.307 350.08 267.568 350.199 266.768 350.199C265.509 350.199 264.386 349.901 263.402 349.304C262.417 348.703 261.64 347.843 261.072 346.726C260.509 345.608 260.227 344.276 260.227 342.727C260.227 341.174 260.511 339.841 261.079 338.729C261.647 337.611 262.424 336.754 263.409 336.158C264.394 335.556 265.513 335.256 266.768 335.256C267.54 335.256 268.26 335.367 268.927 335.589C269.6 335.807 270.203 336.129 270.738 336.555C271.273 336.977 271.716 337.493 272.066 338.104C272.417 338.71 272.654 339.403 272.777 340.185ZM278.407 350.241C277.716 350.241 277.091 350.114 276.532 349.858C275.973 349.598 275.531 349.221 275.204 348.729C274.882 348.236 274.721 347.633 274.721 346.918C274.721 346.302 274.839 345.795 275.076 345.398C275.313 345 275.632 344.685 276.035 344.453C276.437 344.221 276.887 344.046 277.384 343.928C277.881 343.809 278.388 343.719 278.904 343.658C279.558 343.582 280.088 343.52 280.495 343.473C280.902 343.421 281.198 343.338 281.383 343.224C281.567 343.111 281.66 342.926 281.66 342.67V342.621C281.66 342 281.485 341.52 281.134 341.179C280.789 340.838 280.272 340.668 279.586 340.668C278.871 340.668 278.308 340.826 277.896 341.143C277.488 341.456 277.207 341.804 277.05 342.188L275.055 341.733C275.291 341.07 275.637 340.535 276.092 340.128C276.551 339.716 277.079 339.418 277.675 339.233C278.272 339.044 278.899 338.949 279.558 338.949C279.993 338.949 280.455 339.001 280.942 339.105C281.435 339.205 281.894 339.389 282.32 339.659C282.751 339.929 283.104 340.315 283.379 340.817C283.653 341.314 283.79 341.96 283.79 342.756V350H281.717V348.509H281.631C281.494 348.783 281.288 349.053 281.013 349.318C280.739 349.583 280.386 349.804 279.955 349.979C279.524 350.154 279.008 350.241 278.407 350.241ZM278.869 348.537C279.456 348.537 279.958 348.421 280.374 348.189C280.796 347.957 281.115 347.654 281.333 347.28C281.556 346.901 281.667 346.496 281.667 346.065V344.659C281.591 344.735 281.444 344.806 281.227 344.872C281.013 344.934 280.77 344.988 280.495 345.036C280.22 345.078 279.953 345.118 279.692 345.156C279.432 345.189 279.214 345.218 279.039 345.241C278.627 345.294 278.251 345.381 277.91 345.504C277.574 345.627 277.304 345.805 277.1 346.037C276.901 346.264 276.802 346.567 276.802 346.946C276.802 347.472 276.996 347.869 277.384 348.139C277.772 348.404 278.267 348.537 278.869 348.537ZM290.703 350.213C289.822 350.213 289.036 349.988 288.345 349.538C287.658 349.084 287.118 348.437 286.725 347.599C286.337 346.757 286.143 345.746 286.143 344.567C286.143 343.388 286.34 342.379 286.733 341.541C287.13 340.703 287.675 340.062 288.366 339.616C289.057 339.171 289.841 338.949 290.717 338.949C291.394 338.949 291.939 339.062 292.35 339.29C292.767 339.512 293.089 339.773 293.316 340.071C293.548 340.369 293.728 340.632 293.856 340.859H293.984V335.455H296.108V350H294.034V348.303H293.856C293.728 348.535 293.544 348.8 293.302 349.098C293.065 349.396 292.739 349.657 292.322 349.879C291.905 350.102 291.366 350.213 290.703 350.213ZM291.172 348.402C291.782 348.402 292.298 348.241 292.72 347.919C293.146 347.592 293.468 347.14 293.686 346.562C293.908 345.985 294.02 345.312 294.02 344.545C294.02 343.788 293.911 343.125 293.693 342.557C293.475 341.989 293.155 341.546 292.734 341.229C292.313 340.911 291.792 340.753 291.172 340.753C290.532 340.753 290 340.919 289.574 341.25C289.147 341.581 288.825 342.034 288.608 342.607C288.395 343.179 288.288 343.826 288.288 344.545C288.288 345.275 288.397 345.93 288.615 346.513C288.833 347.095 289.154 347.557 289.581 347.898C290.011 348.234 290.542 348.402 291.172 348.402ZM302.313 350.241C301.622 350.241 300.997 350.114 300.438 349.858C299.879 349.598 299.437 349.221 299.11 348.729C298.788 348.236 298.627 347.633 298.627 346.918C298.627 346.302 298.746 345.795 298.982 345.398C299.219 345 299.539 344.685 299.941 344.453C300.344 344.221 300.793 344.046 301.29 343.928C301.788 343.809 302.294 343.719 302.81 343.658C303.464 343.582 303.994 343.52 304.401 343.473C304.808 343.421 305.104 343.338 305.289 343.224C305.474 343.111 305.566 342.926 305.566 342.67V342.621C305.566 342 305.391 341.52 305.04 341.179C304.695 340.838 304.179 340.668 303.492 340.668C302.777 340.668 302.214 340.826 301.802 341.143C301.395 341.456 301.113 341.804 300.957 342.188L298.961 341.733C299.198 341.07 299.543 340.535 299.998 340.128C300.457 339.716 300.985 339.418 301.582 339.233C302.178 339.044 302.806 338.949 303.464 338.949C303.899 338.949 304.361 339.001 304.849 339.105C305.341 339.205 305.8 339.389 306.227 339.659C306.657 339.929 307.01 340.315 307.285 340.817C307.559 341.314 307.697 341.96 307.697 342.756V350H305.623V348.509H305.538C305.4 348.783 305.194 349.053 304.92 349.318C304.645 349.583 304.292 349.804 303.862 349.979C303.431 350.154 302.915 350.241 302.313 350.241ZM302.775 348.537C303.362 348.537 303.864 348.421 304.281 348.189C304.702 347.957 305.022 347.654 305.239 347.28C305.462 346.901 305.573 346.496 305.573 346.065V344.659C305.497 344.735 305.351 344.806 305.133 344.872C304.92 344.934 304.676 344.988 304.401 345.036C304.127 345.078 303.859 345.118 303.599 345.156C303.338 345.189 303.121 345.218 302.945 345.241C302.533 345.294 302.157 345.381 301.816 345.504C301.48 345.627 301.21 345.805 301.006 346.037C300.808 346.264 300.708 346.567 300.708 346.946C300.708 347.472 300.902 347.869 301.29 348.139C301.679 348.404 302.174 348.537 302.775 348.537ZM318.7 341.754L316.775 342.095C316.695 341.849 316.567 341.615 316.392 341.392C316.221 341.17 315.989 340.987 315.696 340.845C315.402 340.703 315.035 340.632 314.595 340.632C313.993 340.632 313.492 340.767 313.089 341.037C312.687 341.302 312.485 341.645 312.485 342.067C312.485 342.431 312.62 342.725 312.89 342.947C313.16 343.17 313.596 343.352 314.197 343.494L315.93 343.892C316.934 344.124 317.682 344.482 318.174 344.964C318.667 345.447 318.913 346.075 318.913 346.847C318.913 347.5 318.724 348.082 318.345 348.594C317.971 349.1 317.448 349.498 316.775 349.787C316.108 350.076 315.333 350.22 314.453 350.22C313.231 350.22 312.234 349.96 311.463 349.439C310.691 348.913 310.217 348.168 310.042 347.202L312.095 346.889C312.223 347.424 312.485 347.829 312.883 348.104C313.281 348.374 313.799 348.509 314.439 348.509C315.135 348.509 315.691 348.364 316.108 348.075C316.524 347.782 316.733 347.424 316.733 347.003C316.733 346.662 316.605 346.375 316.349 346.143C316.098 345.911 315.712 345.736 315.191 345.618L313.345 345.213C312.327 344.981 311.574 344.612 311.086 344.105C310.603 343.598 310.362 342.957 310.362 342.18C310.362 341.536 310.542 340.973 310.902 340.49C311.261 340.007 311.759 339.631 312.393 339.361C313.028 339.086 313.754 338.949 314.574 338.949C315.752 338.949 316.681 339.205 317.358 339.716C318.035 340.223 318.482 340.902 318.7 341.754ZM326.34 339.091V340.795H320.381V339.091H326.34ZM321.979 336.477H324.103V346.797C324.103 347.209 324.165 347.519 324.288 347.727C324.411 347.931 324.569 348.071 324.763 348.146C324.962 348.217 325.178 348.253 325.41 348.253C325.58 348.253 325.729 348.241 325.857 348.217C325.985 348.194 326.085 348.175 326.156 348.161L326.539 349.915C326.416 349.962 326.241 350.009 326.013 350.057C325.786 350.109 325.502 350.137 325.161 350.142C324.603 350.152 324.082 350.052 323.599 349.844C323.116 349.635 322.725 349.313 322.427 348.878C322.129 348.442 321.979 347.895 321.979 347.237V336.477ZM328.689 350V339.091H330.742V340.824H330.855C331.054 340.237 331.405 339.775 331.907 339.439C332.413 339.098 332.986 338.928 333.625 338.928C333.758 338.928 333.914 338.932 334.094 338.942C334.279 338.951 334.423 338.963 334.527 338.977V341.009C334.442 340.985 334.291 340.959 334.073 340.93C333.855 340.897 333.637 340.881 333.419 340.881C332.917 340.881 332.47 340.987 332.077 341.2C331.689 341.409 331.381 341.7 331.154 342.074C330.926 342.443 330.813 342.865 330.813 343.338V350H328.689ZM339.442 350.241C338.751 350.241 338.126 350.114 337.567 349.858C337.008 349.598 336.566 349.221 336.239 348.729C335.917 348.236 335.756 347.633 335.756 346.918C335.756 346.302 335.874 345.795 336.111 345.398C336.348 345 336.667 344.685 337.07 344.453C337.472 344.221 337.922 344.046 338.419 343.928C338.917 343.809 339.423 343.719 339.939 343.658C340.593 343.582 341.123 343.52 341.53 343.473C341.937 343.421 342.233 343.338 342.418 343.224C342.603 343.111 342.695 342.926 342.695 342.67V342.621C342.695 342 342.52 341.52 342.169 341.179C341.824 340.838 341.308 340.668 340.621 340.668C339.906 340.668 339.343 340.826 338.931 341.143C338.524 341.456 338.242 341.804 338.086 342.188L336.09 341.733C336.327 341.07 336.672 340.535 337.127 340.128C337.586 339.716 338.114 339.418 338.711 339.233C339.307 339.044 339.935 338.949 340.593 338.949C341.028 338.949 341.49 339.001 341.978 339.105C342.47 339.205 342.929 339.389 343.355 339.659C343.786 339.929 344.139 340.315 344.414 340.817C344.688 341.314 344.826 341.96 344.826 342.756V350H342.752V348.509H342.667C342.529 348.783 342.323 349.053 342.049 349.318C341.774 349.583 341.421 349.804 340.99 349.979C340.56 350.154 340.043 350.241 339.442 350.241ZM339.904 348.537C340.491 348.537 340.993 348.421 341.409 348.189C341.831 347.957 342.15 347.654 342.368 347.28C342.591 346.901 342.702 346.496 342.702 346.065V344.659C342.626 344.735 342.48 344.806 342.262 344.872C342.049 344.934 341.805 344.988 341.53 345.036C341.256 345.078 340.988 345.118 340.728 345.156C340.467 345.189 340.249 345.218 340.074 345.241C339.662 345.294 339.286 345.381 338.945 345.504C338.609 345.627 338.339 345.805 338.135 346.037C337.936 346.264 337.837 346.567 337.837 346.946C337.837 347.472 338.031 347.869 338.419 348.139C338.808 348.404 339.302 348.537 339.904 348.537ZM347.654 350V339.091H349.707V340.824H349.82C350.019 340.237 350.37 339.775 350.871 339.439C351.378 339.098 351.951 338.928 352.59 338.928C352.723 338.928 352.879 338.932 353.059 338.942C353.244 338.951 353.388 338.963 353.492 338.977V341.009C353.407 340.985 353.255 340.959 353.038 340.93C352.82 340.897 352.602 340.881 352.384 340.881C351.882 340.881 351.435 340.987 351.042 341.2C350.654 341.409 350.346 341.7 350.119 342.074C349.891 342.443 349.778 342.865 349.778 343.338V350H347.654Z" fill="black"/>
<rect x="315" y="260" width="220" height="55" fill="white"/>
<path d="M332.866 270.228C332.824 269.799 332.641 269.465 332.317 269.227C331.994 268.989 331.556 268.87 331.002 268.87C330.625 268.87 330.308 268.923 330.048 269.03C329.789 269.133 329.59 269.277 329.452 269.461C329.317 269.646 329.249 269.855 329.249 270.09C329.242 270.285 329.283 270.456 329.372 270.601C329.464 270.747 329.59 270.873 329.75 270.979C329.91 271.082 330.094 271.173 330.304 271.251C330.513 271.326 330.737 271.39 330.975 271.443L331.955 271.677C332.431 271.784 332.868 271.926 333.266 272.103C333.663 272.281 334.008 272.499 334.299 272.759C334.59 273.018 334.816 273.323 334.975 273.675C335.139 274.026 335.222 274.429 335.226 274.884C335.222 275.551 335.052 276.13 334.714 276.62C334.381 277.107 333.898 277.485 333.266 277.755C332.637 278.021 331.879 278.154 330.991 278.154C330.11 278.154 329.343 278.02 328.69 277.75C328.04 277.48 327.532 277.08 327.167 276.551C326.804 276.018 326.614 275.36 326.597 274.575H328.828C328.853 274.941 328.958 275.246 329.143 275.491C329.331 275.733 329.581 275.915 329.894 276.04C330.21 276.161 330.567 276.221 330.964 276.221C331.355 276.221 331.694 276.164 331.982 276.05C332.273 275.937 332.499 275.779 332.658 275.576C332.818 275.374 332.898 275.141 332.898 274.879C332.898 274.634 332.825 274.428 332.68 274.261C332.538 274.094 332.328 273.952 332.051 273.835C331.778 273.717 331.442 273.611 331.044 273.515L329.857 273.217C328.937 272.993 328.211 272.643 327.678 272.167C327.145 271.691 326.881 271.05 326.884 270.244C326.881 269.584 327.056 269.007 327.412 268.513C327.77 268.02 328.262 267.634 328.887 267.357C329.512 267.08 330.222 266.942 331.018 266.942C331.827 266.942 332.534 267.08 333.138 267.357C333.745 267.634 334.217 268.02 334.555 268.513C334.892 269.007 335.066 269.578 335.077 270.228H332.866ZM340.463 278.16C339.622 278.16 338.897 277.989 338.29 277.648C337.686 277.304 337.221 276.817 336.894 276.189C336.568 275.557 336.404 274.809 336.404 273.946C336.404 273.105 336.568 272.366 336.894 271.73C337.221 271.095 337.681 270.599 338.274 270.244C338.871 269.889 339.57 269.712 340.373 269.712C340.913 269.712 341.415 269.799 341.88 269.973C342.349 270.143 342.757 270.401 343.105 270.745C343.457 271.089 343.73 271.523 343.926 272.045C344.121 272.563 344.219 273.17 344.219 273.866V274.49H337.31V273.083H342.083C342.083 272.757 342.012 272.467 341.87 272.215C341.728 271.963 341.53 271.766 341.278 271.624C341.03 271.478 340.74 271.406 340.41 271.406C340.066 271.406 339.76 271.485 339.494 271.645C339.231 271.801 339.025 272.013 338.876 272.279C338.727 272.542 338.65 272.835 338.647 273.158V274.495C338.647 274.9 338.722 275.25 338.871 275.544C339.023 275.839 339.238 276.066 339.515 276.226C339.792 276.386 340.121 276.466 340.501 276.466C340.753 276.466 340.984 276.43 341.193 276.359C341.403 276.288 341.582 276.182 341.731 276.04C341.88 275.898 341.994 275.724 342.072 275.518L344.171 275.656C344.064 276.161 343.846 276.601 343.516 276.977C343.189 277.35 342.766 277.641 342.248 277.851C341.733 278.057 341.138 278.16 340.463 278.16ZM347.969 273.27V278H345.699V269.818H347.862V271.262H347.958C348.139 270.786 348.443 270.409 348.869 270.132C349.295 269.852 349.812 269.712 350.419 269.712C350.987 269.712 351.483 269.836 351.905 270.085C352.328 270.333 352.656 270.688 352.891 271.15C353.125 271.608 353.242 272.155 353.242 272.79V278H350.973V273.195C350.976 272.695 350.849 272.304 350.589 272.023C350.33 271.739 349.973 271.597 349.519 271.597C349.213 271.597 348.943 271.663 348.709 271.794C348.478 271.926 348.297 272.118 348.166 272.37C348.038 272.618 347.972 272.918 347.969 273.27ZM357.3 273.27V278H355.031V267.091H357.236V271.262H357.332C357.516 270.779 357.815 270.401 358.227 270.127C358.638 269.85 359.155 269.712 359.777 269.712C360.345 269.712 360.84 269.836 361.263 270.085C361.689 270.33 362.019 270.683 362.254 271.145C362.491 271.603 362.609 272.151 362.605 272.79V278H360.336V273.195C360.339 272.691 360.212 272.299 359.952 272.018C359.697 271.738 359.338 271.597 358.876 271.597C358.567 271.597 358.294 271.663 358.056 271.794C357.822 271.926 357.637 272.118 357.502 272.37C357.371 272.618 357.303 272.918 357.3 273.27ZM366.724 278.154C366.202 278.154 365.737 278.064 365.328 277.883C364.92 277.698 364.597 277.426 364.359 277.068C364.125 276.706 364.007 276.255 364.007 275.715C364.007 275.26 364.091 274.879 364.258 274.57C364.425 274.261 364.652 274.012 364.94 273.824C365.227 273.636 365.554 273.494 365.92 273.398C366.289 273.302 366.676 273.234 367.081 273.195C367.557 273.146 367.94 273.099 368.231 273.057C368.523 273.011 368.734 272.943 368.865 272.854C368.997 272.766 369.062 272.634 369.062 272.46V272.428C369.062 272.091 368.956 271.83 368.743 271.645C368.533 271.461 368.235 271.368 367.848 271.368C367.44 271.368 367.115 271.459 366.873 271.64C366.632 271.817 366.472 272.041 366.394 272.311L364.295 272.141C364.402 271.643 364.611 271.214 364.924 270.852C365.236 270.486 365.639 270.205 366.133 270.01C366.63 269.811 367.205 269.712 367.859 269.712C368.313 269.712 368.748 269.765 369.164 269.871C369.583 269.978 369.954 270.143 370.277 270.367C370.604 270.591 370.861 270.878 371.049 271.23C371.237 271.578 371.332 271.995 371.332 272.482V278H369.18V276.865H369.116C368.984 277.121 368.809 277.347 368.588 277.542C368.368 277.734 368.104 277.885 367.795 277.995C367.486 278.101 367.129 278.154 366.724 278.154ZM367.374 276.588C367.708 276.588 368.002 276.523 368.258 276.391C368.514 276.256 368.714 276.075 368.86 275.848C369.006 275.621 369.078 275.363 369.078 275.076V274.207C369.007 274.254 368.91 274.296 368.785 274.335C368.665 274.371 368.528 274.404 368.375 274.436C368.223 274.465 368.07 274.491 367.917 274.516C367.764 274.538 367.626 274.557 367.502 274.575C367.235 274.614 367.003 274.676 366.804 274.761C366.605 274.847 366.451 274.962 366.34 275.108C366.23 275.25 366.175 275.427 366.175 275.64C366.175 275.949 366.287 276.185 366.511 276.349C366.738 276.509 367.026 276.588 367.374 276.588Z" fill="black"/>
<line x1="326" y1="307.5" x2="521" y2="307.5" stroke="black"/>
<rect x="84" y="260" width="220" height="55" fill="white"/>
<line x1="95" y1="307.5" x2="290" y2="307.5" stroke="black"/>
<path d="M95.9482 278V267.091H103.299V268.993H98.2546V271.592H102.921V273.494H98.2546V276.098H103.32V278H95.9482ZM105.09 278V269.818H107.253V271.262H107.349C107.519 270.782 107.803 270.404 108.201 270.127C108.599 269.85 109.074 269.712 109.628 269.712C110.19 269.712 110.667 269.852 111.061 270.132C111.456 270.409 111.718 270.786 111.85 271.262H111.935C112.102 270.793 112.404 270.418 112.84 270.138C113.281 269.854 113.801 269.712 114.401 269.712C115.165 269.712 115.784 269.955 116.26 270.441C116.74 270.924 116.979 271.61 116.979 272.498V278H114.715V272.945C114.715 272.49 114.595 272.15 114.353 271.922C114.112 271.695 113.81 271.581 113.448 271.581C113.036 271.581 112.714 271.713 112.484 271.975C112.253 272.235 112.137 272.577 112.137 273.004V278H109.937V272.897C109.937 272.496 109.822 272.176 109.591 271.938C109.364 271.7 109.064 271.581 108.691 271.581C108.439 271.581 108.212 271.645 108.009 271.773C107.81 271.897 107.652 272.073 107.535 272.3C107.418 272.524 107.359 272.787 107.359 273.089V278H105.09ZM121.105 278.154C120.583 278.154 120.118 278.064 119.709 277.883C119.301 277.698 118.978 277.426 118.74 277.068C118.505 276.706 118.388 276.255 118.388 275.715C118.388 275.26 118.472 274.879 118.639 274.57C118.805 274.261 119.033 274.012 119.32 273.824C119.608 273.636 119.935 273.494 120.301 273.398C120.67 273.302 121.057 273.234 121.462 273.195C121.938 273.146 122.321 273.099 122.612 273.057C122.903 273.011 123.115 272.943 123.246 272.854C123.378 272.766 123.443 272.634 123.443 272.46V272.428C123.443 272.091 123.337 271.83 123.124 271.645C122.914 271.461 122.616 271.368 122.229 271.368C121.82 271.368 121.495 271.459 121.254 271.64C121.013 271.817 120.853 272.041 120.775 272.311L118.676 272.141C118.782 271.643 118.992 271.214 119.304 270.852C119.617 270.486 120.02 270.205 120.514 270.01C121.011 269.811 121.586 269.712 122.239 269.712C122.694 269.712 123.129 269.765 123.544 269.871C123.964 269.978 124.335 270.143 124.658 270.367C124.984 270.591 125.242 270.878 125.43 271.23C125.618 271.578 125.712 271.995 125.712 272.482V278H123.56V276.865H123.497C123.365 277.121 123.189 277.347 122.969 277.542C122.749 277.734 122.484 277.885 122.176 277.995C121.867 278.101 121.51 278.154 121.105 278.154ZM121.755 276.588C122.089 276.588 122.383 276.523 122.639 276.391C122.895 276.256 123.095 276.075 123.241 275.848C123.386 275.621 123.459 275.363 123.459 275.076V274.207C123.388 274.254 123.291 274.296 123.166 274.335C123.046 274.371 122.909 274.404 122.756 274.436C122.603 274.465 122.451 274.491 122.298 274.516C122.145 274.538 122.007 274.557 121.883 274.575C121.616 274.614 121.384 274.676 121.185 274.761C120.986 274.847 120.831 274.962 120.721 275.108C120.611 275.25 120.556 275.427 120.556 275.64C120.556 275.949 120.668 276.185 120.892 276.349C121.119 276.509 121.407 276.588 121.755 276.588ZM127.473 278V269.818H129.742V278H127.473ZM128.613 268.763C128.275 268.763 127.986 268.652 127.745 268.428C127.507 268.201 127.388 267.929 127.388 267.613C127.388 267.3 127.507 267.032 127.745 266.809C127.986 266.581 128.275 266.468 128.613 266.468C128.95 266.468 129.238 266.581 129.476 266.809C129.717 267.032 129.838 267.3 129.838 267.613C129.838 267.929 129.717 268.201 129.476 268.428C129.238 268.652 128.95 268.763 128.613 268.763ZM133.829 267.091V278H131.56V267.091H133.829Z" fill="black"/>
<rect x="315" y="194" width="220" height="55" fill="white"/>
<path d="M327.222 242.522H522.778" stroke="black"/>
<path d="M337.796 204.497H335.463C335.42 204.195 335.333 203.927 335.202 203.693C335.07 203.455 334.902 203.252 334.696 203.085C334.49 202.919 334.252 202.791 333.982 202.702C333.715 202.613 333.426 202.569 333.114 202.569C332.549 202.569 332.057 202.709 331.638 202.99C331.219 203.267 330.894 203.671 330.663 204.204C330.432 204.733 330.317 205.376 330.317 206.132C330.317 206.91 330.432 207.563 330.663 208.093C330.898 208.622 331.224 209.021 331.643 209.291C332.062 209.561 332.547 209.696 333.098 209.696C333.406 209.696 333.692 209.655 333.955 209.573C334.221 209.492 334.458 209.373 334.664 209.217C334.87 209.057 335.04 208.863 335.175 208.636C335.313 208.409 335.409 208.149 335.463 207.858L337.796 207.869C337.735 208.37 337.584 208.853 337.343 209.318C337.105 209.779 336.784 210.193 336.379 210.559C335.977 210.921 335.498 211.209 334.941 211.422C334.387 211.631 333.76 211.736 333.06 211.736C332.087 211.736 331.217 211.516 330.45 211.076C329.687 210.635 329.083 209.998 328.639 209.163C328.199 208.329 327.979 207.318 327.979 206.132C327.979 204.943 328.202 203.931 328.65 203.096C329.097 202.262 329.704 201.626 330.471 201.189C331.239 200.749 332.101 200.529 333.06 200.529C333.692 200.529 334.278 200.617 334.818 200.795C335.361 200.973 335.843 201.232 336.262 201.573C336.681 201.91 337.022 202.324 337.284 202.814C337.551 203.304 337.721 203.865 337.796 204.497ZM339.45 211.587V200.678H343.754C344.577 200.678 345.281 200.825 345.863 201.12C346.449 201.411 346.895 201.825 347.2 202.361C347.509 202.894 347.663 203.521 347.663 204.241C347.663 204.966 347.507 205.589 347.195 206.111C346.882 206.63 346.429 207.027 345.836 207.304C345.247 207.581 344.533 207.72 343.695 207.72H340.813V205.866H343.322C343.762 205.866 344.128 205.806 344.419 205.685C344.711 205.564 344.927 205.383 345.069 205.142C345.215 204.9 345.288 204.6 345.288 204.241C345.288 203.879 345.215 203.574 345.069 203.325C344.927 203.077 344.709 202.888 344.414 202.761C344.123 202.629 343.755 202.563 343.311 202.563H341.756V211.587H339.45ZM345.341 206.622L348.052 211.587H345.506L342.853 206.622H345.341ZM349.293 211.587V200.678H356.516V202.579H351.6V205.179H356.037V207.081H351.6V211.587H349.293Z" fill="black"/>
<rect x="84" y="194" width="220" height="55" fill="white"/>
<path d="M96 243H291" stroke="black"/>
<path d="M106.796 204.497H104.463C104.42 204.195 104.333 203.927 104.202 203.693C104.07 203.455 103.902 203.252 103.696 203.085C103.49 202.919 103.252 202.791 102.982 202.702C102.715 202.613 102.426 202.569 102.114 202.569C101.549 202.569 101.057 202.709 100.638 202.99C100.219 203.267 99.894 203.671 99.6632 204.204C99.4324 204.733 99.317 205.376 99.317 206.132C99.317 206.91 99.4324 207.563 99.6632 208.093C99.8976 208.622 100.224 209.021 100.643 209.291C101.062 209.561 101.547 209.696 102.098 209.696C102.406 209.696 102.692 209.655 102.955 209.573C103.221 209.492 103.458 209.373 103.664 209.217C103.87 209.057 104.04 208.863 104.175 208.636C104.313 208.409 104.409 208.149 104.463 207.858L106.796 207.869C106.735 208.37 106.584 208.853 106.343 209.318C106.105 209.779 105.784 210.193 105.379 210.559C104.977 210.921 104.498 211.209 103.941 211.422C103.387 211.631 102.76 211.736 102.06 211.736C101.087 211.736 100.217 211.516 99.4502 211.076C98.6867 210.635 98.083 209.998 97.6391 209.163C97.1987 208.329 96.9786 207.318 96.9786 206.132C96.9786 204.943 97.2023 203.931 97.6497 203.096C98.0972 202.262 98.7044 201.626 99.4715 201.189C100.239 200.749 101.101 200.529 102.06 200.529C102.692 200.529 103.278 200.617 103.818 200.795C104.361 200.973 104.843 201.232 105.262 201.573C105.681 201.91 106.022 202.324 106.284 202.814C106.551 203.304 106.721 203.865 106.796 204.497ZM108.45 211.587V200.678H112.754C113.581 200.678 114.286 200.836 114.868 201.152C115.451 201.464 115.895 201.899 116.2 202.457C116.509 203.011 116.663 203.65 116.663 204.375C116.663 205.099 116.507 205.738 116.195 206.292C115.882 206.846 115.429 207.278 114.836 207.587C114.247 207.896 113.533 208.05 112.695 208.05H109.952V206.202H112.322C112.766 206.202 113.132 206.125 113.419 205.973C113.711 205.816 113.927 205.601 114.069 205.328C114.215 205.051 114.288 204.733 114.288 204.375C114.288 204.012 114.215 203.696 114.069 203.426C113.927 203.153 113.711 202.942 113.419 202.793C113.128 202.64 112.759 202.563 112.311 202.563H110.756V211.587H108.45ZM118.162 211.587V200.678H125.385V202.579H120.468V205.179H124.905V207.081H120.468V211.587H118.162Z" fill="black"/>
<rect x="84" y="133" width="451" height="55" fill="white"/>
<line x1="95" y1="180.5" x2="525" y2="180.5" stroke="black"/>
<path d="M105.446 143.497H103.112C103.07 143.195 102.983 142.927 102.851 142.693C102.72 142.455 102.551 142.252 102.345 142.085C102.139 141.919 101.902 141.791 101.632 141.702C101.365 141.613 101.076 141.569 100.763 141.569C100.199 141.569 99.7069 141.709 99.2879 141.99C98.8689 142.267 98.5439 142.671 98.3131 143.204C98.0823 143.733 97.9669 144.376 97.9669 145.132C97.9669 145.91 98.0823 146.563 98.3131 147.093C98.5475 147.622 98.8742 148.021 99.2932 148.291C99.7123 148.561 100.197 148.696 100.747 148.696C101.056 148.696 101.342 148.655 101.605 148.573C101.871 148.492 102.108 148.373 102.313 148.217C102.519 148.057 102.69 147.863 102.825 147.636C102.963 147.409 103.059 147.149 103.112 146.858L105.446 146.869C105.385 147.37 105.234 147.853 104.993 148.318C104.755 148.779 104.434 149.193 104.029 149.559C103.627 149.921 103.148 150.209 102.59 150.422C102.036 150.631 101.41 150.736 100.71 150.736C99.7371 150.736 98.8671 150.516 98.1001 150.076C97.3366 149.635 96.7329 148.998 96.289 148.163C95.8486 147.329 95.6285 146.318 95.6285 145.132C95.6285 143.943 95.8522 142.931 96.2996 142.096C96.7471 141.262 97.3543 140.626 98.1214 140.189C98.8884 139.749 99.7513 139.529 100.71 139.529C101.342 139.529 101.928 139.617 102.468 139.795C103.011 139.973 103.492 140.232 103.911 140.573C104.331 140.91 104.671 141.324 104.934 141.814C105.201 142.304 105.371 142.865 105.446 143.497ZM116.224 139.678V150.587H114.232L109.486 143.721H109.406V150.587H107.1V139.678H109.124L113.832 146.539H113.928V139.678H116.224ZM118.13 150.587V139.678H122.434C123.261 139.678 123.966 139.836 124.548 140.152C125.131 140.464 125.575 140.899 125.88 141.457C126.189 142.011 126.344 142.65 126.344 143.375C126.344 144.099 126.187 144.738 125.875 145.292C125.562 145.846 125.11 146.278 124.517 146.587C123.927 146.896 123.213 147.05 122.375 147.05H119.632V145.202H122.002C122.446 145.202 122.812 145.125 123.1 144.973C123.391 144.816 123.607 144.601 123.749 144.328C123.895 144.051 123.968 143.733 123.968 143.375C123.968 143.012 123.895 142.696 123.749 142.426C123.607 142.153 123.391 141.942 123.1 141.793C122.808 141.64 122.439 141.563 121.992 141.563H120.436V150.587H118.13ZM130.759 139.678H133.039V147.284C133.039 147.987 132.881 148.598 132.565 149.117C132.253 149.635 131.818 150.035 131.26 150.315C130.703 150.596 130.055 150.736 129.316 150.736C128.659 150.736 128.062 150.621 127.526 150.39C126.993 150.155 126.571 149.8 126.258 149.324C125.946 148.845 125.791 148.243 125.795 147.519H128.091C128.098 147.806 128.156 148.053 128.267 148.259C128.38 148.462 128.535 148.618 128.73 148.728C128.929 148.834 129.163 148.888 129.433 148.888C129.717 148.888 129.957 148.827 130.152 148.707C130.351 148.582 130.502 148.401 130.605 148.163C130.708 147.925 130.759 147.632 130.759 147.284V139.678Z" fill="black"/>
<rect x="84" y="72" width="451" height="55" fill="white"/>
<line x1="95" y1="119.5" x2="525" y2="119.5" stroke="black"/>
<path d="M106.073 78.0909V89H104.081L99.3345 82.1339H99.2546V89H96.9482V78.0909H98.9723L103.681 84.9517H103.777V78.0909H106.073ZM111.633 89.1598C110.805 89.1598 110.09 88.984 109.486 88.6325C108.886 88.2773 108.422 87.7837 108.096 87.1516C107.769 86.516 107.606 85.7791 107.606 84.9411C107.606 84.0959 107.769 83.3572 108.096 82.7251C108.422 82.0895 108.886 81.5959 109.486 81.2443C110.09 80.8892 110.805 80.7116 111.633 80.7116C112.46 80.7116 113.174 80.8892 113.774 81.2443C114.378 81.5959 114.843 82.0895 115.169 82.7251C115.496 83.3572 115.66 84.0959 115.66 84.9411C115.66 85.7791 115.496 86.516 115.169 87.1516C114.843 87.7837 114.378 88.2773 113.774 88.6325C113.174 88.984 112.46 89.1598 111.633 89.1598ZM111.643 87.402C112.02 87.402 112.334 87.2955 112.586 87.0824C112.838 86.8658 113.028 86.571 113.156 86.1982C113.287 85.8253 113.353 85.4009 113.353 84.9251C113.353 84.4492 113.287 84.0249 113.156 83.652C113.028 83.2791 112.838 82.9844 112.586 82.7678C112.334 82.5511 112.02 82.4428 111.643 82.4428C111.263 82.4428 110.944 82.5511 110.684 82.7678C110.429 82.9844 110.235 83.2791 110.104 83.652C109.976 84.0249 109.912 84.4492 109.912 84.9251C109.912 85.4009 109.976 85.8253 110.104 86.1982C110.235 86.571 110.429 86.8658 110.684 87.0824C110.944 87.2955 111.263 87.402 111.643 87.402ZM117.135 89V80.8182H119.298V82.2617H119.394C119.564 81.7823 119.848 81.4041 120.246 81.1271C120.644 80.8501 121.119 80.7116 121.673 80.7116C122.234 80.7116 122.712 80.8519 123.106 81.1325C123.5 81.4094 123.763 81.7859 123.895 82.2617H123.98C124.147 81.793 124.449 81.4183 124.885 81.1378C125.326 80.8537 125.846 80.7116 126.446 80.7116C127.21 80.7116 127.829 80.9549 128.305 81.4414C128.785 81.9244 129.024 82.6097 129.024 83.4975V89H126.76V83.945C126.76 83.4904 126.64 83.1495 126.398 82.9222C126.157 82.695 125.855 82.5813 125.493 82.5813C125.081 82.5813 124.759 82.7127 124.528 82.9755C124.298 83.2347 124.182 83.5774 124.182 84.0036V89H121.982V83.897C121.982 83.4957 121.867 83.1761 121.636 82.9382C121.409 82.7003 121.109 82.5813 120.736 82.5813C120.484 82.5813 120.256 82.6452 120.054 82.7731C119.855 82.8974 119.697 83.0732 119.58 83.3004C119.463 83.5241 119.404 83.7869 119.404 84.0888V89H117.135ZM134.545 89.1598C133.704 89.1598 132.979 88.9893 132.372 88.6484C131.768 88.304 131.303 87.8175 130.976 87.1889C130.65 86.5568 130.486 85.8093 130.486 84.9464C130.486 84.1048 130.65 83.3661 130.976 82.7305C131.303 82.0948 131.763 81.5994 132.356 81.2443C132.953 80.8892 133.652 80.7116 134.455 80.7116C134.995 80.7116 135.497 80.7987 135.962 80.9727C136.431 81.1431 136.839 81.4006 137.187 81.745C137.539 82.0895 137.812 82.5227 138.008 83.0447C138.203 83.5632 138.301 84.1705 138.301 84.8665V85.4897H131.392V84.0835H136.165C136.165 83.7567 136.094 83.4673 135.952 83.2152C135.81 82.9631 135.612 82.766 135.36 82.6239C135.112 82.4783 134.822 82.4055 134.492 82.4055C134.148 82.4055 133.842 82.4854 133.576 82.6452C133.313 82.8015 133.107 83.0128 132.958 83.2791C132.809 83.5419 132.733 83.8349 132.729 84.158V85.495C132.729 85.8999 132.804 86.2496 132.953 86.5444C133.105 86.8391 133.32 87.0664 133.597 87.2262C133.874 87.386 134.203 87.4659 134.583 87.4659C134.835 87.4659 135.066 87.4304 135.275 87.3594C135.485 87.2884 135.664 87.1818 135.813 87.0398C135.962 86.8977 136.076 86.7237 136.154 86.5178L138.253 86.6562C138.146 87.1605 137.928 87.6009 137.598 87.9773C137.271 88.3501 136.848 88.6413 136.33 88.8509C135.815 89.0568 135.22 89.1598 134.545 89.1598Z" fill="black"/>
<path d="M26 30C26 27.2386 28.2386 25 31 25H569C571.761 25 574 27.2386 574 30V55H26V30Z" fill="white" stroke="black" stroke-width="2" stroke-linejoin="bevel"/>
<path d="M391.67 25H569.67C572.431 25 574.67 27.2386 574.67 30V55H391.67V25Z" fill="white"/>
<path d="M391.67 25H574.67H391.67ZM574.67 56.5H391.17L392.17 53.5H574.67V56.5ZM391.17 56.5V25H392.17V53.5L391.17 56.5ZM574.67 25V55V25Z" fill="black"/>
<path d="M411.733 36.9744C411.659 36.7151 411.554 36.4861 411.419 36.2872C411.284 36.0848 411.119 35.9144 410.924 35.7759C410.732 35.6338 410.512 35.5255 410.263 35.4509C410.018 35.3764 409.746 35.3391 409.448 35.3391C408.891 35.3391 408.4 35.4776 407.978 35.7545C407.559 36.0315 407.232 36.4346 406.998 36.9637C406.763 37.4893 406.646 38.132 406.646 38.892C406.646 39.6519 406.762 40.2982 406.992 40.8309C407.223 41.3636 407.55 41.7702 407.973 42.0507C408.395 42.3277 408.894 42.4662 409.469 42.4662C409.991 42.4662 410.437 42.3739 410.806 42.1892C411.179 42.001 411.463 41.7364 411.659 41.3955C411.858 41.0546 411.957 40.6516 411.957 40.1864L412.426 40.2556H409.613V38.5191H414.178V39.8934C414.178 40.8522 413.976 41.6761 413.571 42.365C413.166 43.0504 412.609 43.5795 411.898 43.9523C411.188 44.3217 410.375 44.5063 409.459 44.5063C408.436 44.5063 407.538 44.2808 406.763 43.8298C405.989 43.3753 405.386 42.7308 404.952 41.8962C404.523 41.0582 404.308 40.0639 404.308 38.9133C404.308 38.0291 404.436 37.2407 404.691 36.5482C404.951 35.8522 405.313 35.2627 405.778 34.7798C406.243 34.2968 406.785 33.9293 407.403 33.6771C408.021 33.425 408.69 33.2989 409.411 33.2989C410.029 33.2989 410.604 33.3895 411.137 33.5706C411.669 33.7482 412.142 34.0003 412.554 34.327C412.969 34.6537 413.308 35.0425 413.571 35.4935C413.834 35.941 414.002 36.4346 414.077 36.9744H411.733ZM419.597 44.517C418.755 44.517 418.031 44.3465 417.423 44.0056C416.82 43.6612 416.355 43.1746 416.028 42.5461C415.701 41.914 415.538 41.1665 415.538 40.3036C415.538 39.4619 415.701 38.7233 416.028 38.0876C416.355 37.452 416.814 36.9566 417.407 36.6015C418.004 36.2464 418.704 36.0688 419.506 36.0688C420.046 36.0688 420.548 36.1558 421.014 36.3298C421.482 36.5003 421.891 36.7577 422.239 37.1022C422.59 37.4467 422.864 37.8799 423.059 38.4019C423.254 38.9204 423.352 39.5276 423.352 40.2237V40.8469H416.443V39.4406H421.216C421.216 39.1139 421.145 38.8245 421.003 38.5724C420.861 38.3202 420.664 38.1232 420.412 37.9811C420.163 37.8355 419.874 37.7627 419.544 37.7627C419.199 37.7627 418.894 37.8426 418.627 38.0024C418.365 38.1587 418.159 38.37 418.009 38.6363C417.86 38.8991 417.784 39.192 417.78 39.5152V40.8522C417.78 41.257 417.855 41.6068 418.004 41.9016C418.157 42.1963 418.372 42.4236 418.649 42.5834C418.926 42.7432 419.254 42.8231 419.634 42.8231C419.886 42.8231 420.117 42.7876 420.327 42.7166C420.536 42.6455 420.715 42.539 420.865 42.397C421.014 42.2549 421.127 42.0809 421.205 41.8749L423.304 42.0134C423.198 42.5177 422.979 42.958 422.649 43.3345C422.322 43.7073 421.9 43.9985 421.381 44.208C420.866 44.414 420.271 44.517 419.597 44.517ZM424.833 44.3572V36.1754H427.033V37.6029H427.118C427.267 37.0951 427.518 36.7116 427.869 36.4523C428.221 36.1896 428.626 36.0582 429.084 36.0582C429.197 36.0582 429.32 36.0653 429.451 36.0795C429.583 36.0937 429.698 36.1132 429.797 36.1381V38.1516C429.691 38.1196 429.544 38.0912 429.355 38.0663C429.167 38.0415 428.995 38.0291 428.839 38.0291C428.505 38.0291 428.207 38.1019 427.944 38.2474C427.684 38.3895 427.479 38.5884 427.326 38.844C427.177 39.0997 427.102 39.3945 427.102 39.7283V44.3572H424.833ZM434.318 44.517C433.477 44.517 432.752 44.3465 432.145 44.0056C431.541 43.6612 431.076 43.1746 430.75 42.5461C430.423 41.914 430.26 41.1665 430.26 40.3036C430.26 39.4619 430.423 38.7233 430.75 38.0876C431.076 37.452 431.536 36.9566 432.129 36.6015C432.726 36.2464 433.425 36.0688 434.228 36.0688C434.768 36.0688 435.27 36.1558 435.735 36.3298C436.204 36.5003 436.612 36.7577 436.96 37.1022C437.312 37.4467 437.585 37.8799 437.781 38.4019C437.976 38.9204 438.074 39.5276 438.074 40.2237V40.8469H431.165V39.4406H435.938C435.938 39.1139 435.867 38.8245 435.725 38.5724C435.583 38.3202 435.386 38.1232 435.133 37.9811C434.885 37.8355 434.595 37.7627 434.265 37.7627C433.921 37.7627 433.615 37.8426 433.349 38.0024C433.086 38.1587 432.88 38.37 432.731 38.6363C432.582 38.8991 432.506 39.192 432.502 39.5152V40.8522C432.502 41.257 432.577 41.6068 432.726 41.9016C432.878 42.1963 433.093 42.4236 433.37 42.5834C433.647 42.7432 433.976 42.8231 434.356 42.8231C434.608 42.8231 434.839 42.7876 435.048 42.7166C435.258 42.6455 435.437 42.539 435.586 42.397C435.735 42.2549 435.849 42.0809 435.927 41.8749L438.026 42.0134C437.919 42.5177 437.701 42.958 437.371 43.3345C437.044 43.7073 436.621 43.9985 436.103 44.208C435.588 44.414 434.993 44.517 434.318 44.517ZM441.824 39.6271V44.3572H439.555V36.1754H441.717V37.6189H441.813C441.994 37.143 442.298 36.7666 442.724 36.4896C443.15 36.2091 443.667 36.0688 444.274 36.0688C444.842 36.0688 445.338 36.1931 445.76 36.4417C446.183 36.6903 446.511 37.0454 446.746 37.507C446.98 37.9651 447.097 38.512 447.097 39.1477V44.3572H444.828V39.5525C444.832 39.0518 444.704 38.6612 444.445 38.3806C444.185 38.0965 443.828 37.9545 443.374 37.9545C443.068 37.9545 442.799 38.0202 442.564 38.1516C442.333 38.283 442.152 38.4747 442.021 38.7269C441.893 38.9754 441.827 39.2755 441.824 39.6271ZM452.582 44.517C451.744 44.517 451.023 44.3394 450.42 43.9843C449.82 43.6256 449.358 43.1285 449.035 42.4928C448.715 41.8572 448.555 41.1256 448.555 40.2982C448.555 39.4602 448.717 38.7251 449.04 38.093C449.367 37.4573 449.83 36.9619 450.43 36.6068C451.031 36.2482 451.744 36.0688 452.572 36.0688C453.286 36.0688 453.911 36.1984 454.447 36.4577C454.983 36.7169 455.407 37.0809 455.72 37.5496C456.032 38.0184 456.205 38.5688 456.237 39.2009H454.095C454.035 38.7925 453.875 38.4641 453.616 38.2155C453.36 37.9634 453.025 37.8373 452.609 37.8373C452.257 37.8373 451.95 37.9332 451.688 38.1249C451.428 38.3131 451.226 38.5884 451.08 38.9506C450.935 39.3128 450.862 39.7514 450.862 40.2663C450.862 40.7883 450.933 41.2322 451.075 41.5979C451.221 41.9637 451.425 42.2425 451.688 42.4342C451.95 42.626 452.257 42.7219 452.609 42.7219C452.868 42.7219 453.101 42.6686 453.307 42.5621C453.516 42.4555 453.689 42.3011 453.824 42.0987C453.962 41.8927 454.053 41.6459 454.095 41.3582H456.237C456.201 41.9832 456.031 42.5337 455.725 43.0095C455.423 43.4818 455.006 43.8511 454.473 44.1175C453.941 44.3838 453.31 44.517 452.582 44.517ZM457.689 44.3572V36.1754H459.959V44.3572H457.689ZM458.829 35.1207C458.492 35.1207 458.203 35.0088 457.961 34.7851C457.723 34.5578 457.604 34.2862 457.604 33.9701C457.604 33.6576 457.723 33.3895 457.961 33.1658C458.203 32.9385 458.492 32.8249 458.829 32.8249C459.167 32.8249 459.454 32.9385 459.692 33.1658C459.934 33.3895 460.054 33.6576 460.054 33.9701C460.054 34.2862 459.934 34.5578 459.692 34.7851C459.454 35.0088 459.167 35.1207 458.829 35.1207ZM464.109 44.5117C463.587 44.5117 463.122 44.4211 462.714 44.24C462.305 44.0553 461.982 43.7837 461.744 43.425C461.51 43.0628 461.393 42.6118 461.393 42.072C461.393 41.6175 461.476 41.2357 461.643 40.9268C461.81 40.6178 462.037 40.3693 462.325 40.181C462.613 39.9928 462.939 39.8508 463.305 39.7549C463.674 39.659 464.061 39.5916 464.466 39.5525C464.942 39.5028 465.326 39.4566 465.617 39.414C465.908 39.3678 466.119 39.3004 466.251 39.2116C466.382 39.1228 466.448 38.9914 466.448 38.8174V38.7854C466.448 38.4481 466.341 38.1871 466.128 38.0024C465.919 37.8178 465.62 37.7254 465.233 37.7254C464.825 37.7254 464.5 37.816 464.259 37.9971C464.017 38.1746 463.857 38.3984 463.779 38.6683L461.68 38.4978C461.787 38.0006 461.996 37.571 462.309 37.2087C462.621 36.843 463.025 36.5624 463.518 36.3671C464.015 36.1683 464.591 36.0688 465.244 36.0688C465.699 36.0688 466.134 36.1221 466.549 36.2286C466.968 36.3352 467.339 36.5003 467.662 36.724C467.989 36.9477 468.246 37.2354 468.435 37.5869C468.623 37.9349 468.717 38.3522 468.717 38.8387V44.3572H466.565V43.2226H466.501C466.37 43.4783 466.194 43.7038 465.974 43.8991C465.754 44.0908 465.489 44.2418 465.18 44.3519C464.871 44.4584 464.514 44.5117 464.109 44.5117ZM464.759 42.9456C465.093 42.9456 465.388 42.8799 465.643 42.7485C465.899 42.6136 466.1 42.4325 466.245 42.2052C466.391 41.9779 466.464 41.7205 466.464 41.4328V40.5646C466.393 40.6107 466.295 40.6533 466.171 40.6924C466.05 40.7279 465.913 40.7617 465.761 40.7936C465.608 40.822 465.455 40.8487 465.303 40.8735C465.15 40.8948 465.011 40.9144 464.887 40.9321C464.621 40.9712 464.388 41.0333 464.189 41.1185C463.99 41.2038 463.836 41.3192 463.726 41.4648C463.616 41.6068 463.561 41.7844 463.561 41.9974C463.561 42.3064 463.673 42.5425 463.896 42.7059C464.124 42.8657 464.411 42.9456 464.759 42.9456ZM470.477 44.3572V36.1754H472.677V37.6029H472.763C472.912 37.0951 473.162 36.7116 473.514 36.4523C473.865 36.1896 474.27 36.0582 474.728 36.0582C474.842 36.0582 474.964 36.0653 475.096 36.0795C475.227 36.0937 475.343 36.1132 475.442 36.1381V38.1516C475.335 38.1196 475.188 38.0912 475 38.0663C474.812 38.0415 474.639 38.0291 474.483 38.0291C474.149 38.0291 473.851 38.1019 473.588 38.2474C473.329 38.3895 473.123 38.5884 472.97 38.844C472.821 39.0997 472.747 39.3945 472.747 39.7283V44.3572H470.477ZM484.487 36.1754V37.8799H479.437V36.1754H484.487ZM480.593 44.3572V35.5841C480.593 34.9911 480.708 34.4992 480.939 34.1086C481.173 33.718 481.493 33.425 481.898 33.2297C482.303 33.0344 482.763 32.9367 483.278 32.9367C483.626 32.9367 483.943 32.9634 484.231 33.0166C484.522 33.0699 484.739 33.1178 484.881 33.1604L484.476 34.865C484.387 34.8366 484.277 34.8099 484.146 34.7851C484.018 34.7602 483.887 34.7478 483.752 34.7478C483.418 34.7478 483.185 34.8259 483.054 34.9822C482.922 35.1349 482.857 35.3497 482.857 35.6267V44.3572H480.593ZM491.12 40.8735V36.1754H493.389V44.3572H491.21V42.871H491.125C490.94 43.3504 490.633 43.7357 490.204 44.0269C489.777 44.3181 489.257 44.4637 488.643 44.4637C488.096 44.4637 487.615 44.3394 487.199 44.0908C486.784 43.8423 486.459 43.4889 486.225 43.0308C485.994 42.5727 485.877 42.0241 485.873 41.3849V36.1754H488.142V40.98C488.146 41.463 488.275 41.8447 488.531 42.1253C488.787 42.4058 489.129 42.5461 489.559 42.5461C489.832 42.5461 490.088 42.484 490.326 42.3597C490.564 42.2318 490.756 42.0436 490.901 41.795C491.051 41.5465 491.123 41.2393 491.12 40.8735ZM497.473 39.6271V44.3572H495.204V36.1754H497.367V37.6189H497.463C497.644 37.143 497.947 36.7666 498.373 36.4896C498.8 36.2091 499.316 36.0688 499.923 36.0688C500.492 36.0688 500.987 36.1931 501.41 36.4417C501.832 36.6903 502.161 37.0454 502.395 37.507C502.629 37.9651 502.747 38.512 502.747 39.1477V44.3572H500.477V39.5525C500.481 39.0518 500.353 38.6612 500.094 38.3806C499.835 38.0965 499.478 37.9545 499.023 37.9545C498.718 37.9545 498.448 38.0202 498.214 38.1516C497.983 38.283 497.802 38.4747 497.67 38.7269C497.542 38.9754 497.477 39.2755 497.473 39.6271ZM508.232 44.517C507.394 44.517 506.673 44.3394 506.069 43.9843C505.469 43.6256 505.007 43.1285 504.684 42.4928C504.365 41.8572 504.205 41.1256 504.205 40.2982C504.205 39.4602 504.366 38.7251 504.69 38.093C505.016 37.4573 505.48 36.9619 506.08 36.6068C506.68 36.2482 507.394 36.0688 508.221 36.0688C508.935 36.0688 509.56 36.1984 510.096 36.4577C510.632 36.7169 511.057 37.0809 511.369 37.5496C511.682 38.0184 511.854 38.5688 511.886 39.2009H509.745C509.684 38.7925 509.524 38.4641 509.265 38.2155C509.01 37.9634 508.674 37.8373 508.258 37.8373C507.907 37.8373 507.6 37.9332 507.337 38.1249C507.078 38.3131 506.875 38.5884 506.73 38.9506C506.584 39.3128 506.511 39.7514 506.511 40.2663C506.511 40.7883 506.582 41.2322 506.724 41.5979C506.87 41.9637 507.074 42.2425 507.337 42.4342C507.6 42.626 507.907 42.7219 508.258 42.7219C508.518 42.7219 508.75 42.6686 508.956 42.5621C509.166 42.4555 509.338 42.3011 509.473 42.0987C509.611 41.8927 509.702 41.6459 509.745 41.3582H511.886C511.85 41.9832 511.68 42.5337 511.375 43.0095C511.073 43.4818 510.655 43.8511 510.123 44.1175C509.59 44.3838 508.96 44.517 508.232 44.517ZM513.339 44.3572V36.1754H515.608V44.3572H513.339ZM514.479 35.1207C514.141 35.1207 513.852 35.0088 513.61 34.7851C513.373 34.5578 513.254 34.2862 513.254 33.9701C513.254 33.6576 513.373 33.3895 513.61 33.1658C513.852 32.9385 514.141 32.8249 514.479 32.8249C514.816 32.8249 515.104 32.9385 515.342 33.1658C515.583 33.3895 515.704 33.6576 515.704 33.9701C515.704 34.2862 515.583 34.5578 515.342 34.7851C515.104 35.0088 514.816 35.1207 514.479 35.1207ZM521.122 44.517C520.295 44.517 519.579 44.3412 518.976 43.9896C518.376 43.6345 517.912 43.1409 517.585 42.5088C517.259 41.8732 517.095 41.1363 517.095 40.2982C517.095 39.4531 517.259 38.7144 517.585 38.0823C517.912 37.4467 518.376 36.9531 518.976 36.6015C519.579 36.2464 520.295 36.0688 521.122 36.0688C521.95 36.0688 522.664 36.2464 523.264 36.6015C523.867 36.9531 524.333 37.4467 524.659 38.0823C524.986 38.7144 525.149 39.4531 525.149 40.2982C525.149 41.1363 524.986 41.8732 524.659 42.5088C524.333 43.1409 523.867 43.6345 523.264 43.9896C522.664 44.3412 521.95 44.517 521.122 44.517ZM521.133 42.7592C521.51 42.7592 521.824 42.6526 522.076 42.4396C522.328 42.2229 522.518 41.9282 522.646 41.5553C522.777 41.1825 522.843 40.7581 522.843 40.2822C522.843 39.8064 522.777 39.382 522.646 39.0092C522.518 38.6363 522.328 38.3416 522.076 38.1249C521.824 37.9083 521.51 37.8 521.133 37.8C520.753 37.8 520.434 37.9083 520.174 38.1249C519.919 38.3416 519.725 38.6363 519.594 39.0092C519.466 39.382 519.402 39.8064 519.402 40.2822C519.402 40.7581 519.466 41.1825 519.594 41.5553C519.725 41.9282 519.919 42.2229 520.174 42.4396C520.434 42.6526 520.753 42.7592 521.133 42.7592ZM528.894 39.6271V44.3572H526.625V36.1754H528.788V37.6189H528.883C529.065 37.143 529.368 36.7666 529.794 36.4896C530.22 36.2091 530.737 36.0688 531.344 36.0688C531.913 36.0688 532.408 36.1931 532.831 36.4417C533.253 36.6903 533.582 37.0454 533.816 37.507C534.05 37.9651 534.168 38.512 534.168 39.1477V44.3572H531.898V39.5525C531.902 39.0518 531.774 38.6612 531.515 38.3806C531.256 38.0965 530.899 37.9545 530.444 37.9545C530.139 37.9545 529.869 38.0202 529.635 38.1516C529.404 38.283 529.223 38.4747 529.091 38.7269C528.963 38.9754 528.898 39.2755 528.894 39.6271ZM538.289 44.5117C537.767 44.5117 537.302 44.4211 536.893 44.24C536.485 44.0553 536.162 43.7837 535.924 43.425C535.69 43.0628 535.572 42.6118 535.572 42.072C535.572 41.6175 535.656 41.2357 535.823 40.9268C535.99 40.6178 536.217 40.3693 536.505 40.181C536.792 39.9928 537.119 39.8508 537.485 39.7549C537.854 39.659 538.241 39.5916 538.646 39.5525C539.122 39.5028 539.505 39.4566 539.797 39.414C540.088 39.3678 540.299 39.3004 540.43 39.2116C540.562 39.1228 540.627 38.9914 540.627 38.8174V38.7854C540.627 38.4481 540.521 38.1871 540.308 38.0024C540.098 37.8178 539.8 37.7254 539.413 37.7254C539.005 37.7254 538.68 37.816 538.438 37.9971C538.197 38.1746 538.037 38.3984 537.959 38.6683L535.86 38.4978C535.967 38.0006 536.176 37.571 536.489 37.2087C536.801 36.843 537.204 36.5624 537.698 36.3671C538.195 36.1683 538.77 36.0688 539.424 36.0688C539.878 36.0688 540.313 36.1221 540.729 36.2286C541.148 36.3352 541.519 36.5003 541.842 36.724C542.169 36.9477 542.426 37.2354 542.614 37.5869C542.803 37.9349 542.897 38.3522 542.897 38.8387V44.3572H540.745V43.2226H540.681C540.549 43.4783 540.374 43.7038 540.153 43.8991C539.933 44.0908 539.669 44.2418 539.36 44.3519C539.051 44.4584 538.694 44.5117 538.289 44.5117ZM538.939 42.9456C539.273 42.9456 539.567 42.8799 539.823 42.7485C540.079 42.6136 540.279 42.4325 540.425 42.2052C540.571 41.9779 540.643 41.7205 540.643 41.4328V40.5646C540.572 40.6107 540.475 40.6533 540.351 40.6924C540.23 40.7279 540.093 40.7617 539.94 40.7936C539.788 40.822 539.635 40.8487 539.482 40.8735C539.33 40.8948 539.191 40.9144 539.067 40.9321C538.8 40.9712 538.568 41.0333 538.369 41.1185C538.17 41.2038 538.016 41.3192 537.906 41.4648C537.795 41.6068 537.74 41.7844 537.74 41.9974C537.74 42.3064 537.852 42.5425 538.076 42.7059C538.303 42.8657 538.591 42.9456 538.939 42.9456ZM538.694 35.1207L539.823 32.697H541.922L540.297 35.1207H538.694ZM544.657 44.3572V36.1754H546.857V37.6029H546.942C547.091 37.0951 547.342 36.7116 547.693 36.4523C548.045 36.1896 548.45 36.0582 548.908 36.0582C549.021 36.0582 549.144 36.0653 549.275 36.0795C549.407 36.0937 549.522 36.1132 549.622 36.1381V38.1516C549.515 38.1196 549.368 38.0912 549.18 38.0663C548.991 38.0415 548.819 38.0291 548.663 38.0291C548.329 38.0291 548.031 38.1019 547.768 38.2474C547.509 38.3895 547.303 38.5884 547.15 38.844C547.001 39.0997 546.926 39.3945 546.926 39.7283V44.3572H544.657ZM550.795 44.3572V36.1754H553.064V44.3572H550.795ZM551.935 35.1207C551.597 35.1207 551.308 35.0088 551.066 34.7851C550.829 34.5578 550.71 34.2862 550.71 33.9701C550.71 33.6576 550.829 33.3895 551.066 33.1658C551.308 32.9385 551.597 32.8249 551.935 32.8249C552.272 32.8249 552.56 32.9385 552.798 33.1658C553.039 33.3895 553.16 33.6576 553.16 33.9701C553.16 34.2862 553.039 34.5578 552.798 34.7851C552.56 35.0088 552.272 35.1207 551.935 35.1207ZM558.578 44.517C557.751 44.517 557.036 44.3412 556.432 43.9896C555.832 43.6345 555.368 43.1409 555.042 42.5088C554.715 41.8732 554.551 41.1363 554.551 40.2982C554.551 39.4531 554.715 38.7144 555.042 38.0823C555.368 37.4467 555.832 36.9531 556.432 36.6015C557.036 36.2464 557.751 36.0688 558.578 36.0688C559.406 36.0688 560.12 36.2464 560.72 36.6015C561.324 36.9531 561.789 37.4467 562.115 38.0823C562.442 38.7144 562.605 39.4531 562.605 40.2982C562.605 41.1363 562.442 41.8732 562.115 42.5088C561.789 43.1409 561.324 43.6345 560.72 43.9896C560.12 44.3412 559.406 44.517 558.578 44.517ZM558.589 42.7592C558.966 42.7592 559.28 42.6526 559.532 42.4396C559.784 42.2229 559.974 41.9282 560.102 41.5553C560.233 41.1825 560.299 40.7581 560.299 40.2822C560.299 39.8064 560.233 39.382 560.102 39.0092C559.974 38.6363 559.784 38.3416 559.532 38.1249C559.28 37.9083 558.966 37.8 558.589 37.8C558.209 37.8 557.89 37.9083 557.63 38.1249C557.375 38.3416 557.181 38.6363 557.05 39.0092C556.922 39.382 556.858 39.8064 556.858 40.2822C556.858 40.7581 556.922 41.1825 557.05 41.5553C557.181 41.9282 557.375 42.2229 557.63 42.4396C557.89 42.6526 558.209 42.7592 558.589 42.7592Z" fill="black" fill-opacity="0.5"/>
<path d="M26 30C26 27.2386 28.2386 25 31 25H211.5V55H26V30Z" fill="white"/>
<path d="M26 25H211.5H26ZM211.5 56.5H26V53.5H211.5V56.5ZM26 55V25V55ZM211.5 25V55V25Z" fill="black"/>
<path d="M59.6248 33.4176L62.2615 41.7059H62.3627L65.0047 33.4176H67.5615L63.8009 44.3267H60.8286L57.0626 33.4176H59.6248ZM71.6378 44.4865C70.7962 44.4865 70.0718 44.316 69.4645 43.9751C68.8608 43.6306 68.3956 43.1441 68.0689 42.5156C67.7422 41.8835 67.5789 41.136 67.5789 40.273C67.5789 39.4314 67.7422 38.6928 68.0689 38.0571C68.3956 37.4215 68.8555 36.9261 69.4485 36.571C70.0451 36.2159 70.7447 36.0383 71.5472 36.0383C72.087 36.0383 72.5895 36.1253 73.0547 36.2993C73.5235 36.4698 73.9318 36.7272 74.2798 37.0717C74.6314 37.4161 74.9048 37.8494 75.1002 38.3714C75.2955 38.8899 75.3931 39.4971 75.3931 40.1931V40.8164H68.4844V39.4101H73.2571C73.2571 39.0834 73.1861 38.794 73.0441 38.5419C72.902 38.2897 72.7049 38.0926 72.4528 37.9506C72.2042 37.805 71.9148 37.7322 71.5845 37.7322C71.2401 37.7322 70.9347 37.8121 70.6683 37.9719C70.4056 38.1282 70.1996 38.3394 70.0504 38.6058C69.9013 38.8686 69.8249 39.1615 69.8214 39.4847V40.8217C69.8214 41.2265 69.896 41.5763 70.0451 41.871C70.1978 42.1658 70.4127 42.3931 70.6897 42.5529C70.9666 42.7127 71.2951 42.7926 71.6751 42.7926C71.9272 42.7926 72.158 42.7571 72.3676 42.686C72.5771 42.615 72.7564 42.5085 72.9056 42.3664C73.0547 42.2244 73.1683 42.0504 73.2465 41.8444L75.3452 41.9829C75.2387 42.4872 75.0203 42.9275 74.69 43.3039C74.3633 43.6768 73.9407 43.968 73.4222 44.1775C72.9073 44.3835 72.3125 44.4865 71.6378 44.4865ZM76.874 44.3267V36.1448H79.0739V37.5724H79.1591C79.3083 37.0646 79.5586 36.6811 79.9102 36.4218C80.2617 36.159 80.6666 36.0277 81.1247 36.0277C81.2383 36.0277 81.3608 36.0348 81.4922 36.049C81.6236 36.0632 81.739 36.0827 81.8384 36.1076V38.121C81.7319 38.0891 81.5845 38.0607 81.3963 38.0358C81.2081 38.011 81.0359 37.9985 80.8796 37.9985C80.5458 37.9985 80.2475 38.0713 79.9847 38.2169C79.7255 38.359 79.5196 38.5578 79.3669 38.8135C79.2177 39.0692 79.1431 39.3639 79.1431 39.6978V44.3267H76.874ZM90.8832 36.1448V37.8494H85.8335V36.1448H90.8832ZM86.9894 44.3267V35.5536C86.9894 34.9605 87.1048 34.4687 87.3356 34.0781C87.57 33.6875 87.8896 33.3945 88.2944 33.1992C88.6992 33.0039 89.1591 32.9062 89.674 32.9062C90.022 32.9062 90.3399 32.9328 90.6275 32.9861C90.9187 33.0394 91.1353 33.0873 91.2774 33.1299L90.8725 34.8345C90.7838 34.8061 90.6737 34.7794 90.5423 34.7546C90.4144 34.7297 90.283 34.7173 90.1481 34.7173C89.8143 34.7173 89.5817 34.7954 89.4503 34.9517C89.3189 35.1044 89.2532 35.3192 89.2532 35.5962V44.3267H86.9894ZM97.5163 40.843V36.1448H99.7854V44.3267H97.6068V42.8405H97.5216C97.3369 43.3199 97.0298 43.7052 96.6001 43.9964C96.1739 44.2876 95.6537 44.4332 95.0393 44.4332C94.4925 44.4332 94.0113 44.3089 93.5958 44.0603C93.1803 43.8117 92.8554 43.4584 92.621 43.0003C92.3902 42.5422 92.273 41.9936 92.2695 41.3544V36.1448H94.5386V40.9495C94.5422 41.4325 94.6718 41.8142 94.9275 42.0948C95.1832 42.3753 95.5259 42.5156 95.9555 42.5156C96.229 42.5156 96.4847 42.4534 96.7226 42.3291C96.9605 42.2013 97.1523 42.0131 97.2979 41.7645C97.447 41.5159 97.5198 41.2088 97.5163 40.843ZM103.87 39.5965V44.3267H101.601V36.1448H103.763V37.5884H103.859C104.04 37.1125 104.344 36.7361 104.77 36.4591C105.196 36.1786 105.713 36.0383 106.32 36.0383C106.888 36.0383 107.384 36.1626 107.806 36.4112C108.229 36.6598 108.557 37.0149 108.792 37.4765C109.026 37.9346 109.143 38.4815 109.143 39.1171V44.3267H106.874V39.522C106.878 39.0213 106.75 38.6306 106.49 38.3501C106.231 38.066 105.874 37.924 105.42 37.924C105.114 37.924 104.844 37.9897 104.61 38.121C104.379 38.2524 104.198 38.4442 104.067 38.6963C103.939 38.9449 103.873 39.245 103.87 39.5965ZM114.628 44.4865C113.79 44.4865 113.069 44.3089 112.466 43.9538C111.866 43.5951 111.404 43.098 111.081 42.4623C110.761 41.8267 110.601 41.0951 110.601 40.2677C110.601 39.4296 110.763 38.6946 111.086 38.0625C111.413 37.4268 111.876 36.9314 112.476 36.5763C113.076 36.2176 113.79 36.0383 114.618 36.0383C115.331 36.0383 115.956 36.1679 116.493 36.4272C117.029 36.6864 117.453 37.0504 117.766 37.5191C118.078 37.9879 118.25 38.5383 118.282 39.1704H116.141C116.081 38.762 115.921 38.4335 115.662 38.185C115.406 37.9328 115.07 37.8068 114.655 37.8068C114.303 37.8068 113.996 37.9027 113.733 38.0944C113.474 38.2826 113.272 38.5578 113.126 38.9201C112.981 39.2823 112.908 39.7208 112.908 40.2358C112.908 40.7578 112.979 41.2017 113.121 41.5674C113.266 41.9332 113.471 42.212 113.733 42.4037C113.996 42.5955 114.303 42.6914 114.655 42.6914C114.914 42.6914 115.147 42.6381 115.353 42.5316C115.562 42.425 115.734 42.2706 115.869 42.0681C116.008 41.8622 116.098 41.6154 116.141 41.3277H118.282C118.247 41.9527 118.076 42.5032 117.771 42.979C117.469 43.4513 117.052 43.8206 116.519 44.087C115.987 44.3533 115.356 44.4865 114.628 44.4865ZM119.735 44.3267V36.1448H122.004V44.3267H119.735ZM120.875 35.0902C120.538 35.0902 120.248 34.9783 120.007 34.7546C119.769 34.5273 119.65 34.2556 119.65 33.9396C119.65 33.6271 119.769 33.359 120.007 33.1353C120.248 32.908 120.538 32.7943 120.875 32.7943C121.213 32.7943 121.5 32.908 121.738 33.1353C121.98 33.359 122.1 33.6271 122.1 33.9396C122.1 34.2556 121.98 34.5273 121.738 34.7546C121.5 34.9783 121.213 35.0902 120.875 35.0902ZM127.519 44.4865C126.692 44.4865 125.976 44.3107 125.372 43.9591C124.772 43.604 124.309 43.1104 123.982 42.4783C123.655 41.8426 123.492 41.1058 123.492 40.2677C123.492 39.4225 123.655 38.6839 123.982 38.0518C124.309 37.4161 124.772 36.9225 125.372 36.571C125.976 36.2159 126.692 36.0383 127.519 36.0383C128.346 36.0383 129.06 36.2159 129.66 36.571C130.264 36.9225 130.729 37.4161 131.056 38.0518C131.383 38.6839 131.546 39.4225 131.546 40.2677C131.546 41.1058 131.383 41.8426 131.056 42.4783C130.729 43.1104 130.264 43.604 129.66 43.9591C129.06 44.3107 128.346 44.4865 127.519 44.4865ZM127.53 42.7286C127.906 42.7286 128.22 42.6221 128.472 42.409C128.725 42.1924 128.915 41.8977 129.042 41.5248C129.174 41.1519 129.239 40.7276 129.239 40.2517C129.239 39.7759 129.174 39.3515 129.042 38.9786C128.915 38.6058 128.725 38.311 128.472 38.0944C128.22 37.8778 127.906 37.7695 127.53 37.7695C127.15 37.7695 126.83 37.8778 126.571 38.0944C126.315 38.311 126.122 38.6058 125.99 38.9786C125.862 39.3515 125.798 39.7759 125.798 40.2517C125.798 40.7276 125.862 41.1519 125.99 41.5248C126.122 41.8977 126.315 42.1924 126.571 42.409C126.83 42.6221 127.15 42.7286 127.53 42.7286ZM135.291 39.5965V44.3267H133.021V36.1448H135.184V37.5884H135.28C135.461 37.1125 135.765 36.7361 136.191 36.4591C136.617 36.1786 137.134 36.0383 137.741 36.0383C138.309 36.0383 138.804 36.1626 139.227 36.4112C139.65 36.6598 139.978 37.0149 140.212 37.4765C140.447 37.9346 140.564 38.4815 140.564 39.1171V44.3267H138.295V39.522C138.298 39.0213 138.171 38.6306 137.911 38.3501C137.652 38.066 137.295 37.924 136.841 37.924C136.535 37.924 136.265 37.9897 136.031 38.121C135.8 38.2524 135.619 38.4442 135.488 38.6963C135.36 38.9449 135.294 39.245 135.291 39.5965ZM144.686 44.4811C144.164 44.4811 143.698 44.3906 143.29 44.2095C142.882 44.0248 142.558 43.7532 142.321 43.3945C142.086 43.0323 141.969 42.5813 141.969 42.0415C141.969 41.587 142.052 41.2052 142.219 40.8963C142.386 40.5873 142.613 40.3387 142.901 40.1505C143.189 39.9623 143.515 39.8203 143.881 39.7244C144.251 39.6285 144.638 39.561 145.042 39.522C145.518 39.4723 145.902 39.4261 146.193 39.3835C146.484 39.3373 146.696 39.2698 146.827 39.1811C146.958 39.0923 147.024 38.9609 147.024 38.7869V38.7549C147.024 38.4176 146.917 38.1566 146.704 37.9719C146.495 37.7872 146.197 37.6949 145.81 37.6949C145.401 37.6949 145.076 37.7855 144.835 37.9666C144.593 38.1441 144.433 38.3679 144.355 38.6377L142.257 38.4673C142.363 37.9701 142.573 37.5404 142.885 37.1782C143.198 36.8125 143.601 36.5319 144.094 36.3366C144.591 36.1377 145.167 36.0383 145.82 36.0383C146.275 36.0383 146.71 36.0916 147.125 36.1981C147.544 36.3046 147.915 36.4698 148.238 36.6935C148.565 36.9172 148.823 37.2049 149.011 37.5564C149.199 37.9044 149.293 38.3217 149.293 38.8082V44.3267H147.141V43.1921H147.077C146.946 43.4478 146.77 43.6733 146.55 43.8686C146.33 44.0603 146.065 44.2112 145.756 44.3213C145.447 44.4279 145.09 44.4811 144.686 44.4811ZM145.335 42.9151C145.669 42.9151 145.964 42.8494 146.22 42.718C146.475 42.5831 146.676 42.4019 146.822 42.1747C146.967 41.9474 147.04 41.6899 147.04 41.4023V40.534C146.969 40.5802 146.871 40.6228 146.747 40.6619C146.626 40.6974 146.49 40.7311 146.337 40.7631C146.184 40.7915 146.031 40.8181 145.879 40.843C145.726 40.8643 145.588 40.8838 145.463 40.9016C145.197 40.9407 144.964 41.0028 144.765 41.088C144.567 41.1733 144.412 41.2887 144.302 41.4343C144.192 41.5763 144.137 41.7539 144.137 41.9669C144.137 42.2759 144.249 42.512 144.472 42.6754C144.7 42.8352 144.987 42.9151 145.335 42.9151ZM145.09 35.0902L146.22 32.6665H148.318L146.694 35.0902H145.09ZM151.054 44.3267V36.1448H153.254V37.5724H153.339C153.488 37.0646 153.738 36.6811 154.09 36.4218C154.441 36.159 154.846 36.0277 155.304 36.0277C155.418 36.0277 155.541 36.0348 155.672 36.049C155.803 36.0632 155.919 36.0827 156.018 36.1076V38.121C155.912 38.0891 155.764 38.0607 155.576 38.0358C155.388 38.011 155.216 37.9985 155.059 37.9985C154.726 37.9985 154.427 38.0713 154.164 38.2169C153.905 38.359 153.699 38.5578 153.547 38.8135C153.397 39.0692 153.323 39.3639 153.323 39.6978V44.3267H151.054ZM157.191 44.3267V36.1448H159.461V44.3267H157.191ZM158.331 35.0902C157.994 35.0902 157.704 34.9783 157.463 34.7546C157.225 34.5273 157.106 34.2556 157.106 33.9396C157.106 33.6271 157.225 33.359 157.463 33.1353C157.704 32.908 157.994 32.7943 158.331 32.7943C158.669 32.7943 158.956 32.908 159.194 33.1353C159.436 33.359 159.556 33.6271 159.556 33.9396C159.556 34.2556 159.436 34.5273 159.194 34.7546C158.956 34.9783 158.669 35.0902 158.331 35.0902ZM164.975 44.4865C164.148 44.4865 163.432 44.3107 162.828 43.9591C162.228 43.604 161.765 43.1104 161.438 42.4783C161.111 41.8426 160.948 41.1058 160.948 40.2677C160.948 39.4225 161.111 38.6839 161.438 38.0518C161.765 37.4161 162.228 36.9225 162.828 36.571C163.432 36.2159 164.148 36.0383 164.975 36.0383C165.802 36.0383 166.516 36.2159 167.116 36.571C167.72 36.9225 168.185 37.4161 168.512 38.0518C168.839 38.6839 169.002 39.4225 169.002 40.2677C169.002 41.1058 168.839 41.8426 168.512 42.4783C168.185 43.1104 167.72 43.604 167.116 43.9591C166.516 44.3107 165.802 44.4865 164.975 44.4865ZM164.986 42.7286C165.362 42.7286 165.676 42.6221 165.928 42.409C166.181 42.1924 166.371 41.8977 166.498 41.5248C166.63 41.1519 166.696 40.7276 166.696 40.2517C166.696 39.7759 166.63 39.3515 166.498 38.9786C166.371 38.6058 166.181 38.311 165.928 38.0944C165.676 37.8778 165.362 37.7695 164.986 37.7695C164.606 37.7695 164.286 37.8778 164.027 38.0944C163.771 38.311 163.578 38.6058 163.446 38.9786C163.318 39.3515 163.254 39.7759 163.254 40.2517C163.254 40.7276 163.318 41.1519 163.446 41.5248C163.578 41.8977 163.771 42.1924 164.027 42.409C164.286 42.6221 164.606 42.7286 164.986 42.7286ZM177.285 38.4779L175.208 38.6058C175.172 38.4282 175.096 38.2684 174.979 38.1264C174.861 37.9808 174.707 37.8654 174.515 37.7801C174.327 37.6914 174.101 37.647 173.839 37.647C173.487 37.647 173.191 37.7215 172.949 37.8707C172.708 38.0163 172.587 38.2116 172.587 38.4566C172.587 38.6519 172.665 38.8171 172.821 38.952C172.977 39.087 173.246 39.1953 173.626 39.2769L175.106 39.5752C175.902 39.7386 176.495 40.0014 176.885 40.3636C177.276 40.7258 177.471 41.2017 177.471 41.7911C177.471 42.3274 177.313 42.7979 176.997 43.2027C176.685 43.6076 176.255 43.9236 175.708 44.1509C175.165 44.3746 174.538 44.4865 173.828 44.4865C172.745 44.4865 171.882 44.261 171.239 43.81C170.6 43.3554 170.225 42.7375 170.115 41.9563L172.347 41.8391C172.415 42.1693 172.578 42.4215 172.837 42.5955C173.096 42.7659 173.428 42.8512 173.833 42.8512C174.231 42.8512 174.551 42.7748 174.792 42.6221C175.037 42.4659 175.161 42.2652 175.165 42.0202C175.161 41.8142 175.074 41.6456 174.904 41.5142C174.734 41.3792 174.471 41.2762 174.116 41.2052L172.699 40.9229C171.9 40.7631 171.305 40.4861 170.914 40.0919C170.527 39.6978 170.334 39.1953 170.334 38.5845C170.334 38.0589 170.476 37.6061 170.76 37.2262C171.047 36.8462 171.45 36.5532 171.969 36.3473C172.491 36.1413 173.102 36.0383 173.801 36.0383C174.835 36.0383 175.648 36.2567 176.241 36.6935C176.838 37.1303 177.186 37.7251 177.285 38.4779Z" fill="black" fill-opacity="0.5"/>
<path d="M210 25H392.7V55H210V25Z" fill="white"/>
<path d="M210 25V23.5L208.5 25H210ZM392.7 25H394.2L392.7 23.5V25ZM210 26.5H392.7V23.5H210V26.5ZM391.2 25V55H394.2V25H391.2ZM211.5 55V25H208.5V55H211.5Z" fill="black"/>
<path d="M230.598 37.2673H228.264C228.222 36.9655 228.135 36.6974 228.003 36.463C227.872 36.2251 227.703 36.0227 227.497 35.8558C227.291 35.6889 227.054 35.561 226.784 35.4722C226.517 35.3835 226.228 35.3391 225.915 35.3391C225.351 35.3391 224.859 35.4793 224.44 35.7599C224.021 36.0369 223.696 36.4417 223.465 36.9744C223.234 37.5035 223.119 38.1462 223.119 38.9026C223.119 39.6803 223.234 40.3337 223.465 40.8629C223.699 41.392 224.026 41.7915 224.445 42.0614C224.864 42.3313 225.349 42.4662 225.899 42.4662C226.208 42.4662 226.494 42.4254 226.757 42.3437C227.023 42.262 227.26 42.143 227.465 41.9868C227.671 41.827 227.842 41.6335 227.977 41.4062C228.115 41.1789 228.211 40.9197 228.264 40.6285L230.598 40.6391C230.537 41.1398 230.386 41.6228 230.145 42.088C229.907 42.5496 229.585 42.9634 229.181 43.3291C228.779 43.6913 228.3 43.979 227.742 44.192C227.188 44.4016 226.562 44.5063 225.862 44.5063C224.889 44.5063 224.019 44.2862 223.252 43.8458C222.489 43.4055 221.885 42.768 221.441 41.9335C221.001 41.099 220.78 40.0887 220.78 38.9026C220.78 37.713 221.004 36.7009 221.452 35.8664C221.899 35.0319 222.506 34.3962 223.273 33.9595C224.04 33.5191 224.903 33.2989 225.862 33.2989C226.494 33.2989 227.08 33.3877 227.62 33.5653C228.163 33.7428 228.644 34.0021 229.063 34.343C229.483 34.6803 229.823 35.094 230.086 35.5841C230.353 36.0742 230.523 36.6352 230.598 37.2673ZM234.542 44.5117C234.02 44.5117 233.555 44.4211 233.146 44.24C232.738 44.0553 232.415 43.7837 232.177 43.425C231.943 43.0628 231.825 42.6118 231.825 42.072C231.825 41.6175 231.909 41.2357 232.076 40.9268C232.243 40.6178 232.47 40.3693 232.758 40.181C233.045 39.9928 233.372 39.8508 233.738 39.7549C234.107 39.659 234.494 39.5916 234.899 39.5525C235.375 39.5028 235.758 39.4566 236.049 39.414C236.341 39.3678 236.552 39.3004 236.683 39.2116C236.815 39.1228 236.88 38.9914 236.88 38.8174V38.7854C236.88 38.4481 236.774 38.1871 236.561 38.0024C236.351 37.8178 236.053 37.7254 235.666 37.7254C235.258 37.7254 234.933 37.816 234.691 37.9971C234.45 38.1746 234.29 38.3984 234.212 38.6683L232.113 38.4978C232.22 38.0006 232.429 37.571 232.742 37.2087C233.054 36.843 233.457 36.5624 233.951 36.3671C234.448 36.1683 235.023 36.0688 235.677 36.0688C236.131 36.0688 236.566 36.1221 236.982 36.2286C237.401 36.3352 237.772 36.5003 238.095 36.724C238.422 36.9477 238.679 37.2354 238.867 37.5869C239.055 37.9349 239.15 38.3522 239.15 38.8387V44.3572H236.998V43.2226H236.934C236.802 43.4783 236.627 43.7038 236.406 43.8991C236.186 44.0908 235.922 44.2418 235.613 44.3519C235.304 44.4584 234.947 44.5117 234.542 44.5117ZM235.192 42.9456C235.526 42.9456 235.82 42.8799 236.076 42.7485C236.332 42.6136 236.532 42.4325 236.678 42.2052C236.824 41.9779 236.896 41.7205 236.896 41.4328V40.5646C236.825 40.6107 236.728 40.6533 236.603 40.6924C236.483 40.7279 236.346 40.7617 236.193 40.7936C236.041 40.822 235.888 40.8487 235.735 40.8735C235.582 40.8948 235.444 40.9144 235.32 40.9321C235.053 40.9712 234.821 41.0333 234.622 41.1185C234.423 41.2038 234.269 41.3192 234.158 41.4648C234.048 41.6068 233.993 41.7844 233.993 41.9974C233.993 42.3064 234.105 42.5425 234.329 42.7059C234.556 42.8657 234.844 42.9456 235.192 42.9456ZM243.925 44.4903C243.304 44.4903 242.741 44.3305 242.236 44.0109C241.736 43.6878 241.338 43.2137 241.043 42.5887C240.752 41.9602 240.606 41.1896 240.606 40.2769C240.606 39.3394 240.757 38.5599 241.059 37.9385C241.361 37.3135 241.762 36.8465 242.263 36.5376C242.767 36.2251 243.32 36.0688 243.92 36.0688C244.378 36.0688 244.76 36.147 245.065 36.3032C245.374 36.4559 245.622 36.6477 245.811 36.8785C246.002 37.1058 246.148 37.3295 246.247 37.5496H246.317V33.4481H248.581V44.3572H246.343V43.0468H246.247C246.141 43.2741 245.99 43.4996 245.795 43.7233C245.603 43.9435 245.353 44.1264 245.044 44.272C244.738 44.4175 244.365 44.4903 243.925 44.4903ZM244.644 42.6846C245.01 42.6846 245.319 42.5852 245.571 42.3863C245.827 42.1839 246.022 41.9016 246.157 41.5394C246.295 41.1771 246.365 40.7528 246.365 40.2663C246.365 39.7798 246.297 39.3572 246.162 38.9985C246.027 38.6398 245.832 38.3629 245.576 38.1675C245.321 37.9722 245.01 37.8746 244.644 37.8746C244.271 37.8746 243.957 37.9758 243.701 38.1782C243.446 38.3806 243.252 38.6612 243.121 39.0198C242.989 39.3785 242.924 39.794 242.924 40.2663C242.924 40.7421 242.989 41.1629 243.121 41.5287C243.256 41.8909 243.449 42.175 243.701 42.381C243.957 42.5834 244.271 42.6846 244.644 42.6846ZM252.779 44.5117C252.257 44.5117 251.792 44.4211 251.384 44.24C250.975 44.0553 250.652 43.7837 250.414 43.425C250.18 43.0628 250.063 42.6118 250.063 42.072C250.063 41.6175 250.146 41.2357 250.313 40.9268C250.48 40.6178 250.707 40.3693 250.995 40.181C251.282 39.9928 251.609 39.8508 251.975 39.7549C252.344 39.659 252.731 39.5916 253.136 39.5525C253.612 39.5028 253.996 39.4566 254.287 39.414C254.578 39.3678 254.789 39.3004 254.921 39.2116C255.052 39.1228 255.118 38.9914 255.118 38.8174V38.7854C255.118 38.4481 255.011 38.1871 254.798 38.0024C254.589 37.8178 254.29 37.7254 253.903 37.7254C253.495 37.7254 253.17 37.816 252.928 37.9971C252.687 38.1746 252.527 38.3984 252.449 38.6683L250.35 38.4978C250.457 38.0006 250.666 37.571 250.979 37.2087C251.291 36.843 251.694 36.5624 252.188 36.3671C252.685 36.1683 253.26 36.0688 253.914 36.0688C254.368 36.0688 254.803 36.1221 255.219 36.2286C255.638 36.3352 256.009 36.5003 256.332 36.724C256.659 36.9477 256.916 37.2354 257.105 37.5869C257.293 37.9349 257.387 38.3522 257.387 38.8387V44.3572H255.235V43.2226H255.171C255.04 43.4783 254.864 43.7038 254.644 43.8991C254.423 44.0908 254.159 44.2418 253.85 44.3519C253.541 44.4584 253.184 44.5117 252.779 44.5117ZM253.429 42.9456C253.763 42.9456 254.058 42.8799 254.313 42.7485C254.569 42.6136 254.77 42.4325 254.915 42.2052C255.061 41.9779 255.134 41.7205 255.134 41.4328V40.5646C255.063 40.6107 254.965 40.6533 254.841 40.6924C254.72 40.7279 254.583 40.7617 254.431 40.7936C254.278 40.822 254.125 40.8487 253.972 40.8735C253.82 40.8948 253.681 40.9144 253.557 40.9321C253.291 40.9712 253.058 41.0333 252.859 41.1185C252.66 41.2038 252.506 41.3192 252.396 41.4648C252.286 41.6068 252.231 41.7844 252.231 41.9974C252.231 42.3064 252.343 42.5425 252.566 42.7059C252.794 42.8657 253.081 42.9456 253.429 42.9456ZM265.955 38.5085L263.877 38.6363C263.842 38.4587 263.766 38.2989 263.648 38.1569C263.531 38.0113 263.377 37.8959 263.185 37.8107C262.997 37.7219 262.771 37.6775 262.509 37.6775C262.157 37.6775 261.86 37.7521 261.619 37.9012C261.377 38.0468 261.257 38.2421 261.257 38.4871C261.257 38.6825 261.335 38.8476 261.491 38.9825C261.647 39.1175 261.915 39.2258 262.295 39.3075L263.776 39.6058C264.572 39.7691 265.165 40.0319 265.555 40.3941C265.946 40.7563 266.141 41.2322 266.141 41.8217C266.141 42.3579 265.983 42.8284 265.667 43.2332C265.355 43.6381 264.925 43.9541 264.378 44.1814C263.835 44.4051 263.208 44.517 262.498 44.517C261.415 44.517 260.552 44.2915 259.909 43.8405C259.27 43.3859 258.895 42.768 258.785 41.9868L261.017 41.8696C261.085 42.1999 261.248 42.452 261.507 42.626C261.766 42.7965 262.098 42.8817 262.503 42.8817C262.901 42.8817 263.221 42.8053 263.462 42.6526C263.707 42.4964 263.831 42.2957 263.835 42.0507C263.831 41.8447 263.744 41.6761 263.574 41.5447C263.403 41.4097 263.141 41.3068 262.786 41.2357L261.369 40.9534C260.57 40.7936 259.975 40.5166 259.584 40.1224C259.197 39.7283 259.004 39.2258 259.004 38.615C259.004 38.0894 259.146 37.6367 259.43 37.2567C259.717 36.8767 260.12 36.5837 260.639 36.3778C261.161 36.1718 261.772 36.0688 262.471 36.0688C263.505 36.0688 264.318 36.2872 264.911 36.724C265.507 37.1608 265.855 37.7556 265.955 38.5085ZM271.922 36.1754V37.8799H266.995V36.1754H271.922ZM268.114 34.2151H270.383V41.843C270.383 42.0525 270.415 42.2158 270.479 42.333C270.543 42.4467 270.631 42.5266 270.745 42.5727C270.862 42.6189 270.997 42.642 271.15 42.642C271.256 42.642 271.363 42.6331 271.469 42.6153C271.576 42.594 271.658 42.5781 271.714 42.5674L272.071 44.256C271.958 44.2915 271.798 44.3323 271.592 44.3785C271.386 44.4282 271.136 44.4584 270.841 44.469C270.294 44.4903 269.815 44.4175 269.403 44.2506C268.994 44.0837 268.676 43.8245 268.449 43.4729C268.222 43.1214 268.11 42.6775 268.114 42.1413V34.2151ZM273.4 44.3572V36.1754H275.6V37.6029H275.685C275.835 37.0951 276.085 36.7116 276.437 36.4523C276.788 36.1896 277.193 36.0582 277.651 36.0582C277.765 36.0582 277.887 36.0653 278.019 36.0795C278.15 36.0937 278.265 36.1132 278.365 36.1381V38.1516C278.258 38.1196 278.111 38.0912 277.923 38.0663C277.734 38.0415 277.562 38.0291 277.406 38.0291C277.072 38.0291 276.774 38.1019 276.511 38.2474C276.252 38.3895 276.046 38.5884 275.893 38.844C275.744 39.0997 275.669 39.3945 275.669 39.7283V44.3572H273.4ZM281.637 44.5117C281.115 44.5117 280.65 44.4211 280.241 44.24C279.833 44.0553 279.51 43.7837 279.272 43.425C279.037 43.0628 278.92 42.6118 278.92 42.072C278.92 41.6175 279.004 41.2357 279.17 40.9268C279.337 40.6178 279.565 40.3693 279.852 40.181C280.14 39.9928 280.467 39.8508 280.832 39.7549C281.202 39.659 281.589 39.5916 281.994 39.5525C282.469 39.5028 282.853 39.4566 283.144 39.414C283.435 39.3678 283.647 39.3004 283.778 39.2116C283.909 39.1228 283.975 38.9914 283.975 38.8174V38.7854C283.975 38.4481 283.869 38.1871 283.656 38.0024C283.446 37.8178 283.148 37.7254 282.761 37.7254C282.352 37.7254 282.027 37.816 281.786 37.9971C281.544 38.1746 281.385 38.3984 281.306 38.6683L279.208 38.4978C279.314 38.0006 279.524 37.571 279.836 37.2087C280.149 36.843 280.552 36.5624 281.045 36.3671C281.543 36.1683 282.118 36.0688 282.771 36.0688C283.226 36.0688 283.661 36.1221 284.076 36.2286C284.495 36.3352 284.866 36.5003 285.19 36.724C285.516 36.9477 285.774 37.2354 285.962 37.5869C286.15 37.9349 286.244 38.3522 286.244 38.8387V44.3572H284.092V43.2226H284.028C283.897 43.4783 283.721 43.7038 283.501 43.8991C283.281 44.0908 283.016 44.2418 282.707 44.3519C282.398 44.4584 282.042 44.5117 281.637 44.5117ZM282.287 42.9456C282.62 42.9456 282.915 42.8799 283.171 42.7485C283.426 42.6136 283.627 42.4325 283.773 42.2052C283.918 41.9779 283.991 41.7205 283.991 41.4328V40.5646C283.92 40.6107 283.822 40.6533 283.698 40.6924C283.577 40.7279 283.441 40.7617 283.288 40.7936C283.135 40.822 282.983 40.8487 282.83 40.8735C282.677 40.8948 282.539 40.9144 282.414 40.9321C282.148 40.9712 281.915 41.0333 281.717 41.1185C281.518 41.2038 281.363 41.3192 281.253 41.4648C281.143 41.6068 281.088 41.7844 281.088 41.9974C281.088 42.3064 281.2 42.5425 281.424 42.7059C281.651 42.8657 281.939 42.9456 282.287 42.9456ZM288.005 44.3572V36.1754H290.205V37.6029H290.29C290.439 37.0951 290.689 36.7116 291.041 36.4523C291.393 36.1896 291.797 36.0582 292.256 36.0582C292.369 36.0582 292.492 36.0653 292.623 36.0795C292.754 36.0937 292.87 36.1132 292.969 36.1381V38.1516C292.863 38.1196 292.715 38.0912 292.527 38.0663C292.339 38.0415 292.167 38.0291 292.01 38.0291C291.677 38.0291 291.378 38.1019 291.116 38.2474C290.856 38.3895 290.65 38.5884 290.498 38.844C290.349 39.0997 290.274 39.3945 290.274 39.7283V44.3572H288.005ZM302.014 36.1754V37.8799H296.964V36.1754H302.014ZM298.12 44.3572V35.5841C298.12 34.9911 298.236 34.4992 298.466 34.1086C298.701 33.718 299.02 33.425 299.425 33.2297C299.83 33.0344 300.29 32.9367 300.805 32.9367C301.153 32.9367 301.471 32.9634 301.758 33.0166C302.05 33.0699 302.266 33.1178 302.408 33.1604L302.003 34.865C301.915 34.8366 301.805 34.8099 301.673 34.7851C301.545 34.7602 301.414 34.7478 301.279 34.7478C300.945 34.7478 300.713 34.8259 300.581 34.9822C300.45 35.1349 300.384 35.3497 300.384 35.6267V44.3572H298.12ZM308.647 40.8735V36.1754H310.916V44.3572H308.738V42.871H308.652C308.468 43.3504 308.161 43.7357 307.731 44.0269C307.305 44.3181 306.785 44.4637 306.17 44.4637C305.623 44.4637 305.142 44.3394 304.727 44.0908C304.311 43.8423 303.986 43.4889 303.752 43.0308C303.521 42.5727 303.404 42.0241 303.4 41.3849V36.1754H305.669V40.98C305.673 41.463 305.803 41.8447 306.058 42.1253C306.314 42.4058 306.657 42.5461 307.086 42.5461C307.36 42.5461 307.616 42.484 307.853 42.3597C308.091 42.2318 308.283 42.0436 308.429 41.795C308.578 41.5465 308.651 41.2393 308.647 40.8735ZM315.001 39.6271V44.3572H312.731V36.1754H314.894V37.6189H314.99C315.171 37.143 315.475 36.7666 315.901 36.4896C316.327 36.2091 316.844 36.0688 317.451 36.0688C318.019 36.0688 318.514 36.1931 318.937 36.4417C319.36 36.6903 319.688 37.0454 319.922 37.507C320.157 37.9651 320.274 38.512 320.274 39.1477V44.3572H318.005V39.5525C318.008 39.0518 317.881 38.6612 317.621 38.3806C317.362 38.0965 317.005 37.9545 316.551 37.9545C316.245 37.9545 315.975 38.0202 315.741 38.1516C315.51 38.283 315.329 38.4747 315.198 38.7269C315.07 38.9754 315.004 39.2755 315.001 39.6271ZM325.759 44.517C324.921 44.517 324.2 44.3394 323.597 43.9843C322.996 43.6256 322.535 43.1285 322.212 42.4928C321.892 41.8572 321.732 41.1256 321.732 40.2982C321.732 39.4602 321.894 38.7251 322.217 38.093C322.544 37.4573 323.007 36.9619 323.607 36.6068C324.207 36.2482 324.921 36.0688 325.748 36.0688C326.462 36.0688 327.087 36.1984 327.623 36.4577C328.16 36.7169 328.584 37.0809 328.897 37.5496C329.209 38.0184 329.381 38.5688 329.413 39.2009H327.272C327.212 38.7925 327.052 38.4641 326.793 38.2155C326.537 37.9634 326.201 37.8373 325.786 37.8373C325.434 37.8373 325.127 37.9332 324.864 38.1249C324.605 38.3131 324.403 38.5884 324.257 38.9506C324.111 39.3128 324.039 39.7514 324.039 40.2663C324.039 40.7883 324.11 41.2322 324.252 41.5979C324.397 41.9637 324.601 42.2425 324.864 42.4342C325.127 42.626 325.434 42.7219 325.786 42.7219C326.045 42.7219 326.278 42.6686 326.484 42.5621C326.693 42.4555 326.865 42.3011 327 42.0987C327.139 41.8927 327.229 41.6459 327.272 41.3582H329.413C329.378 41.9832 329.207 42.5337 328.902 43.0095C328.6 43.4818 328.183 43.8511 327.65 44.1175C327.117 44.3838 326.487 44.517 325.759 44.517ZM330.866 44.3572V36.1754H333.135V44.3572H330.866ZM332.006 35.1207C331.669 35.1207 331.379 35.0088 331.138 34.7851C330.9 34.5578 330.781 34.2862 330.781 33.9701C330.781 33.6576 330.9 33.3895 331.138 33.1658C331.379 32.9385 331.669 32.8249 332.006 32.8249C332.343 32.8249 332.631 32.9385 332.869 33.1658C333.11 33.3895 333.231 33.6576 333.231 33.9701C333.231 34.2862 333.11 34.5578 332.869 34.7851C332.631 35.0088 332.343 35.1207 332.006 35.1207ZM338.65 44.517C337.822 44.517 337.107 44.3412 336.503 43.9896C335.903 43.6345 335.44 43.1409 335.113 42.5088C334.786 41.8732 334.623 41.1363 334.623 40.2982C334.623 39.4531 334.786 38.7144 335.113 38.0823C335.44 37.4467 335.903 36.9531 336.503 36.6015C337.107 36.2464 337.822 36.0688 338.65 36.0688C339.477 36.0688 340.191 36.2464 340.791 36.6015C341.395 36.9531 341.86 37.4467 342.187 38.0823C342.513 38.7144 342.677 39.4531 342.677 40.2982C342.677 41.1363 342.513 41.8732 342.187 42.5088C341.86 43.1409 341.395 43.6345 340.791 43.9896C340.191 44.3412 339.477 44.517 338.65 44.517ZM338.66 42.7592C339.037 42.7592 339.351 42.6526 339.603 42.4396C339.855 42.2229 340.045 41.9282 340.173 41.5553C340.305 41.1825 340.37 40.7581 340.37 40.2822C340.37 39.8064 340.305 39.382 340.173 39.0092C340.045 38.6363 339.855 38.3416 339.603 38.1249C339.351 37.9083 339.037 37.8 338.66 37.8C338.28 37.8 337.961 37.9083 337.702 38.1249C337.446 38.3416 337.252 38.6363 337.121 39.0092C336.993 39.382 336.929 39.8064 336.929 40.2822C336.929 40.7581 336.993 41.1825 337.121 41.5553C337.252 41.9282 337.446 42.2229 337.702 42.4396C337.961 42.6526 338.28 42.7592 338.66 42.7592ZM346.421 39.6271V44.3572H344.152V36.1754H346.315V37.6189H346.411C346.592 37.143 346.896 36.7666 347.322 36.4896C347.748 36.2091 348.264 36.0688 348.872 36.0688C349.44 36.0688 349.935 36.1931 350.358 36.4417C350.78 36.6903 351.109 37.0454 351.343 37.507C351.578 37.9651 351.695 38.512 351.695 39.1477V44.3572H349.426V39.5525C349.429 39.0518 349.301 38.6612 349.042 38.3806C348.783 38.0965 348.426 37.9545 347.972 37.9545C347.666 37.9545 347.396 38.0202 347.162 38.1516C346.931 38.283 346.75 38.4747 346.619 38.7269C346.491 38.9754 346.425 39.2755 346.421 39.6271ZM355.816 44.5117C355.294 44.5117 354.829 44.4211 354.421 44.24C354.012 44.0553 353.689 43.7837 353.451 43.425C353.217 43.0628 353.1 42.6118 353.1 42.072C353.1 41.6175 353.183 41.2357 353.35 40.9268C353.517 40.6178 353.744 40.3693 354.032 40.181C354.32 39.9928 354.646 39.8508 355.012 39.7549C355.381 39.659 355.768 39.5916 356.173 39.5525C356.649 39.5028 357.033 39.4566 357.324 39.414C357.615 39.3678 357.826 39.3004 357.958 39.2116C358.089 39.1228 358.155 38.9914 358.155 38.8174V38.7854C358.155 38.4481 358.048 38.1871 357.835 38.0024C357.626 37.8178 357.327 37.7254 356.94 37.7254C356.532 37.7254 356.207 37.816 355.966 37.9971C355.724 38.1746 355.564 38.3984 355.486 38.6683L353.387 38.4978C353.494 38.0006 353.703 37.571 354.016 37.2087C354.328 36.843 354.732 36.5624 355.225 36.3671C355.722 36.1683 356.298 36.0688 356.951 36.0688C357.406 36.0688 357.841 36.1221 358.256 36.2286C358.675 36.3352 359.046 36.5003 359.369 36.724C359.696 36.9477 359.953 37.2354 360.142 37.5869C360.33 37.9349 360.424 38.3522 360.424 38.8387V44.3572H358.272V43.2226H358.208C358.077 43.4783 357.901 43.7038 357.681 43.8991C357.461 44.0908 357.196 44.2418 356.887 44.3519C356.578 44.4584 356.221 44.5117 355.816 44.5117ZM356.466 42.9456C356.8 42.9456 357.095 42.8799 357.351 42.7485C357.606 42.6136 357.807 42.4325 357.952 42.2052C358.098 41.9779 358.171 41.7205 358.171 41.4328V40.5646C358.1 40.6107 358.002 40.6533 357.878 40.6924C357.757 40.7279 357.62 40.7617 357.468 40.7936C357.315 40.822 357.162 40.8487 357.01 40.8735C356.857 40.8948 356.718 40.9144 356.594 40.9321C356.328 40.9712 356.095 41.0333 355.896 41.1185C355.697 41.2038 355.543 41.3192 355.433 41.4648C355.323 41.6068 355.268 41.7844 355.268 41.9974C355.268 42.3064 355.38 42.5425 355.603 42.7059C355.831 42.8657 356.118 42.9456 356.466 42.9456ZM356.221 35.1207L357.351 32.697H359.449L357.825 35.1207H356.221ZM362.184 44.3572V36.1754H364.384V37.6029H364.47C364.619 37.0951 364.869 36.7116 365.221 36.4523C365.572 36.1896 365.977 36.0582 366.435 36.0582C366.549 36.0582 366.671 36.0653 366.803 36.0795C366.934 36.0937 367.05 36.1132 367.149 36.1381V38.1516C367.042 38.1196 366.895 38.0912 366.707 38.0663C366.519 38.0415 366.346 38.0291 366.19 38.0291C365.856 38.0291 365.558 38.1019 365.295 38.2474C365.036 38.3895 364.83 38.5884 364.677 38.844C364.528 39.0997 364.454 39.3945 364.454 39.7283V44.3572H362.184ZM368.322 44.3572V36.1754H370.591V44.3572H368.322ZM369.462 35.1207C369.125 35.1207 368.835 35.0088 368.594 34.7851C368.356 34.5578 368.237 34.2862 368.237 33.9701C368.237 33.6576 368.356 33.3895 368.594 33.1658C368.835 32.9385 369.125 32.8249 369.462 32.8249C369.799 32.8249 370.087 32.9385 370.325 33.1658C370.566 33.3895 370.687 33.6576 370.687 33.9701C370.687 34.2862 370.566 34.5578 370.325 34.7851C370.087 35.0088 369.799 35.1207 369.462 35.1207ZM376.106 44.517C375.278 44.517 374.563 44.3412 373.959 43.9896C373.359 43.6345 372.896 43.1409 372.569 42.5088C372.242 41.8732 372.079 41.1363 372.079 40.2982C372.079 39.4531 372.242 38.7144 372.569 38.0823C372.896 37.4467 373.359 36.9531 373.959 36.6015C374.563 36.2464 375.278 36.0688 376.106 36.0688C376.933 36.0688 377.647 36.2464 378.247 36.6015C378.851 36.9531 379.316 37.4467 379.643 38.0823C379.969 38.7144 380.133 39.4531 380.133 40.2982C380.133 41.1363 379.969 41.8732 379.643 42.5088C379.316 43.1409 378.851 43.6345 378.247 43.9896C377.647 44.3412 376.933 44.517 376.106 44.517ZM376.116 42.7592C376.493 42.7592 376.807 42.6526 377.059 42.4396C377.311 42.2229 377.501 41.9282 377.629 41.5553C377.761 41.1825 377.826 40.7581 377.826 40.2822C377.826 39.8064 377.761 39.382 377.629 39.0092C377.501 38.6363 377.311 38.3416 377.059 38.1249C376.807 37.9083 376.493 37.8 376.116 37.8C375.737 37.8 375.417 37.9083 375.158 38.1249C374.902 38.3416 374.708 38.6363 374.577 39.0092C374.449 39.382 374.385 39.8064 374.385 40.2822C374.385 40.7581 374.449 41.1825 374.577 41.5553C374.708 41.9282 374.902 42.2229 375.158 42.4396C375.417 42.6526 375.737 42.7592 376.116 42.7592Z" fill="black"/>
<defs>
<filter id="filter0_d_167_50" x="227" y="320" width="160" height="50" filterUnits="userSpaceOnUse" color-interpolation-filters="sRGB">
<feFlood flood-opacity="0" result="BackgroundImageFix"/>
<feColorMatrix in="SourceAlpha" type="matrix" values="0 0 0 0 0 0 0 0 0 0 0 0 0 0 0 0 0 0 127 0" result="hardAlpha"/>
<feOffset dy="4"/>
<feGaussianBlur stdDeviation="2"/>
<feComposite in2="hardAlpha" operator="out"/>
<feColorMatrix type="matrix" values="0 0 0 0 0 0 0 0 0 0 0 0 0 0 0 0 0 0 0.25 0"/>
<feBlend mode="normal" in2="BackgroundImageFix" result="effect1_dropShadow_167_50"/>
<feBlend mode="normal" in="SourceGraphic" in2="effect1_dropShadow_167_50" result="shape"/>
</filter>
<linearGradient id="paint0_linear_167_50" x1="300" y1="0" x2="300" y2="400" gradientUnits="userSpaceOnUse">
<stop stop-color="#00356E"/>
<stop offset="1" stop-color="#00356E"/>
</linearGradient>
</defs>
</svg>
