<svg width="600" height="400" viewBox="0 0 600 400" fill="none" xmlns="http://www.w3.org/2000/svg">
<rect width="600" height="400" fill="url(#paint0_linear_167_85)"/>
<rect x="25" y="25" width="550" height="350" rx="5" fill="white"/>
<path d="M25 30C25 27.2386 27.2386 25 30 25H570C572.761 25 575 27.2386 575 30V54.8295H25V30Z" fill="white" stroke="black" stroke-linejoin="bevel"/>
<path d="M392 25H569.7C572.461 25 574.7 27.2386 574.7 30V55H392V25Z" fill="white" stroke="black" stroke-linejoin="bevel"/>
<path d="M407.522 36.9744C407.447 36.7151 407.342 36.4861 407.208 36.2872C407.073 36.0848 406.907 35.9144 406.712 35.7759C406.52 35.6338 406.3 35.5255 406.052 35.4509C405.807 35.3764 405.535 35.3391 405.237 35.3391C404.679 35.3391 404.189 35.4776 403.766 35.7545C403.347 36.0315 403.021 36.4346 402.786 36.9637C402.552 37.4893 402.435 38.132 402.435 38.892C402.435 39.6519 402.55 40.2982 402.781 40.8309C403.012 41.3636 403.339 41.7702 403.761 42.0507C404.184 42.3277 404.683 42.4662 405.258 42.4662C405.78 42.4662 406.226 42.3739 406.595 42.1892C406.968 42.001 407.252 41.7364 407.447 41.3955C407.646 41.0546 407.746 40.6516 407.746 40.1864L408.214 40.2556H405.402V38.5191H409.967V39.8934C409.967 40.8522 409.764 41.6761 409.36 42.365C408.955 43.0504 408.397 43.5795 407.687 43.9523C406.977 44.3217 406.163 44.5063 405.247 44.5063C404.225 44.5063 403.326 44.2808 402.552 43.8298C401.778 43.3753 401.174 42.7308 400.741 41.8962C400.311 41.0582 400.096 40.0639 400.096 38.9133C400.096 38.0291 400.224 37.2407 400.48 36.5482C400.739 35.8522 401.101 35.2627 401.567 34.7798C402.032 34.2968 402.573 33.9293 403.191 33.6771C403.809 33.425 404.478 33.2989 405.199 33.2989C405.817 33.2989 406.393 33.3895 406.925 33.5706C407.458 33.7482 407.93 34.0003 408.342 34.327C408.758 34.6537 409.097 35.0425 409.36 35.4935C409.622 35.941 409.791 36.4346 409.866 36.9744H407.522ZM415.385 44.517C414.544 44.517 413.819 44.3465 413.212 44.0056C412.608 43.6612 412.143 43.1746 411.816 42.5461C411.49 41.914 411.326 41.1665 411.326 40.3036C411.326 39.4619 411.49 38.7233 411.816 38.0876C412.143 37.452 412.603 36.9566 413.196 36.6015C413.793 36.2464 414.492 36.0688 415.295 36.0688C415.835 36.0688 416.337 36.1558 416.802 36.3298C417.271 36.5003 417.679 36.7577 418.027 37.1022C418.379 37.4467 418.652 37.8799 418.848 38.4019C419.043 38.9204 419.141 39.5276 419.141 40.2237V40.8469H412.232V39.4406H417.005C417.005 39.1139 416.934 38.8245 416.792 38.5724C416.65 38.3202 416.452 38.1232 416.2 37.9811C415.952 37.8355 415.662 37.7627 415.332 37.7627C414.988 37.7627 414.682 37.8426 414.416 38.0024C414.153 38.1587 413.947 38.37 413.798 38.6363C413.649 38.8991 413.572 39.192 413.569 39.5152V40.8522C413.569 41.257 413.644 41.6068 413.793 41.9016C413.945 42.1963 414.16 42.4236 414.437 42.5834C414.714 42.7432 415.043 42.8231 415.423 42.8231C415.675 42.8231 415.906 42.7876 416.115 42.7166C416.325 42.6455 416.504 42.539 416.653 42.397C416.802 42.2549 416.916 42.0809 416.994 41.8749L419.093 42.0134C418.986 42.5177 418.768 42.958 418.438 43.3345C418.111 43.7073 417.688 43.9985 417.17 44.208C416.655 44.414 416.06 44.517 415.385 44.517ZM420.621 44.3572V36.1754H422.821V37.6029H422.907C423.056 37.0951 423.306 36.7116 423.658 36.4523C424.009 36.1896 424.414 36.0582 424.872 36.0582C424.986 36.0582 425.108 36.0653 425.24 36.0795C425.371 36.0937 425.487 36.1132 425.586 36.1381V38.1516C425.479 38.1196 425.332 38.0912 425.144 38.0663C424.956 38.0415 424.783 38.0291 424.627 38.0291C424.293 38.0291 423.995 38.1019 423.732 38.2474C423.473 38.3895 423.267 38.5884 423.114 38.844C422.965 39.0997 422.891 39.3945 422.891 39.7283V44.3572H420.621ZM430.107 44.517C429.265 44.517 428.541 44.3465 427.934 44.0056C427.33 43.6612 426.865 43.1746 426.538 42.5461C426.211 41.914 426.048 41.1665 426.048 40.3036C426.048 39.4619 426.211 38.7233 426.538 38.0876C426.865 37.452 427.325 36.9566 427.918 36.6015C428.514 36.2464 429.214 36.0688 430.016 36.0688C430.556 36.0688 431.059 36.1558 431.524 36.3298C431.993 36.5003 432.401 36.7577 432.749 37.1022C433.101 37.4467 433.374 37.8799 433.569 38.4019C433.765 38.9204 433.862 39.5276 433.862 40.2237V40.8469H426.954V39.4406H431.726C431.726 39.1139 431.655 38.8245 431.513 38.5724C431.371 38.3202 431.174 38.1232 430.922 37.9811C430.673 37.8355 430.384 37.7627 430.054 37.7627C429.709 37.7627 429.404 37.8426 429.138 38.0024C428.875 38.1587 428.669 38.37 428.52 38.6363C428.371 38.8991 428.294 39.192 428.291 39.5152V40.8522C428.291 41.257 428.365 41.6068 428.514 41.9016C428.667 42.1963 428.882 42.4236 429.159 42.5834C429.436 42.7432 429.764 42.8231 430.144 42.8231C430.396 42.8231 430.627 42.7876 430.837 42.7166C431.046 42.6455 431.226 42.539 431.375 42.397C431.524 42.2549 431.638 42.0809 431.716 41.8749L433.814 42.0134C433.708 42.5177 433.489 42.958 433.159 43.3345C432.833 43.7073 432.41 43.9985 431.891 44.208C431.377 44.414 430.782 44.517 430.107 44.517ZM437.612 39.6271V44.3572H435.343V36.1754H437.506V37.6189H437.602C437.783 37.143 438.086 36.7666 438.513 36.4896C438.939 36.2091 439.455 36.0688 440.063 36.0688C440.631 36.0688 441.126 36.1931 441.549 36.4417C441.971 36.6903 442.3 37.0454 442.534 37.507C442.769 37.9651 442.886 38.512 442.886 39.1477V44.3572H440.617V39.5525C440.62 39.0518 440.492 38.6612 440.233 38.3806C439.974 38.0965 439.617 37.9545 439.162 37.9545C438.857 37.9545 438.587 38.0202 438.353 38.1516C438.122 38.283 437.941 38.4747 437.809 38.7269C437.682 38.9754 437.616 39.2755 437.612 39.6271ZM448.371 44.517C447.533 44.517 446.812 44.3394 446.208 43.9843C445.608 43.6256 445.147 43.1285 444.823 42.4928C444.504 41.8572 444.344 41.1256 444.344 40.2982C444.344 39.4602 444.506 38.7251 444.829 38.093C445.155 37.4573 445.619 36.9619 446.219 36.6068C446.819 36.2482 447.533 36.0688 448.36 36.0688C449.074 36.0688 449.699 36.1984 450.235 36.4577C450.772 36.7169 451.196 37.0809 451.508 37.5496C451.821 38.0184 451.993 38.5688 452.025 39.2009H449.884C449.823 38.7925 449.664 38.4641 449.404 38.2155C449.149 37.9634 448.813 37.8373 448.398 37.8373C448.046 37.8373 447.739 37.9332 447.476 38.1249C447.217 38.3131 447.014 38.5884 446.869 38.9506C446.723 39.3128 446.65 39.7514 446.65 40.2663C446.65 40.7883 446.721 41.2322 446.864 41.5979C447.009 41.9637 447.213 42.2425 447.476 42.4342C447.739 42.626 448.046 42.7219 448.398 42.7219C448.657 42.7219 448.889 42.6686 449.095 42.5621C449.305 42.4555 449.477 42.3011 449.612 42.0987C449.751 41.8927 449.841 41.6459 449.884 41.3582H452.025C451.99 41.9832 451.819 42.5337 451.514 43.0095C451.212 43.4818 450.795 43.8511 450.262 44.1175C449.729 44.3838 449.099 44.517 448.371 44.517ZM453.478 44.3572V36.1754H455.747V44.3572H453.478ZM454.618 35.1207C454.28 35.1207 453.991 35.0088 453.75 34.7851C453.512 34.5578 453.393 34.2862 453.393 33.9701C453.393 33.6576 453.512 33.3895 453.75 33.1658C453.991 32.9385 454.28 32.8249 454.618 32.8249C454.955 32.8249 455.243 32.9385 455.481 33.1658C455.722 33.3895 455.843 33.6576 455.843 33.9701C455.843 34.2862 455.722 34.5578 455.481 34.7851C455.243 35.0088 454.955 35.1207 454.618 35.1207ZM459.898 44.5117C459.376 44.5117 458.911 44.4211 458.502 44.24C458.094 44.0553 457.771 43.7837 457.533 43.425C457.299 43.0628 457.181 42.6118 457.181 42.072C457.181 41.6175 457.265 41.2357 457.432 40.9268C457.599 40.6178 457.826 40.3693 458.114 40.181C458.401 39.9928 458.728 39.8508 459.094 39.7549C459.463 39.659 459.85 39.5916 460.255 39.5525C460.731 39.5028 461.114 39.4566 461.405 39.414C461.697 39.3678 461.908 39.3004 462.039 39.2116C462.171 39.1228 462.236 38.9914 462.236 38.8174V38.7854C462.236 38.4481 462.13 38.1871 461.917 38.0024C461.707 37.8178 461.409 37.7254 461.022 37.7254C460.614 37.7254 460.289 37.816 460.047 37.9971C459.806 38.1746 459.646 38.3984 459.568 38.6683L457.469 38.4978C457.576 38.0006 457.785 37.571 458.098 37.2087C458.41 36.843 458.813 36.5624 459.307 36.3671C459.804 36.1683 460.379 36.0688 461.033 36.0688C461.487 36.0688 461.922 36.1221 462.338 36.2286C462.757 36.3352 463.128 36.5003 463.451 36.724C463.778 36.9477 464.035 37.2354 464.223 37.5869C464.411 37.9349 464.506 38.3522 464.506 38.8387V44.3572H462.354V43.2226H462.29C462.158 43.4783 461.982 43.7038 461.762 43.8991C461.542 44.0908 461.278 44.2418 460.969 44.3519C460.66 44.4584 460.303 44.5117 459.898 44.5117ZM460.548 42.9456C460.882 42.9456 461.176 42.8799 461.432 42.7485C461.688 42.6136 461.888 42.4325 462.034 42.2052C462.18 41.9779 462.252 41.7205 462.252 41.4328V40.5646C462.181 40.6107 462.084 40.6533 461.959 40.6924C461.839 40.7279 461.702 40.7617 461.549 40.7936C461.397 40.822 461.244 40.8487 461.091 40.8735C460.938 40.8948 460.8 40.9144 460.676 40.9321C460.409 40.9712 460.177 41.0333 459.978 41.1185C459.779 41.2038 459.625 41.3192 459.514 41.4648C459.404 41.6068 459.349 41.7844 459.349 41.9974C459.349 42.3064 459.461 42.5425 459.685 42.7059C459.912 42.8657 460.2 42.9456 460.548 42.9456ZM466.266 44.3572V36.1754H468.466V37.6029H468.551C468.7 37.0951 468.951 36.7116 469.302 36.4523C469.654 36.1896 470.059 36.0582 470.517 36.0582C470.63 36.0582 470.753 36.0653 470.884 36.0795C471.016 36.0937 471.131 36.1132 471.231 36.1381V38.1516C471.124 38.1196 470.977 38.0912 470.788 38.0663C470.6 38.0415 470.428 38.0291 470.272 38.0291C469.938 38.0291 469.64 38.1019 469.377 38.2474C469.118 38.3895 468.912 38.5884 468.759 38.844C468.61 39.0997 468.535 39.3945 468.535 39.7283V44.3572H466.266ZM480.275 36.1754V37.8799H475.226V36.1754H480.275ZM476.381 44.3572V35.5841C476.381 34.9911 476.497 34.4992 476.728 34.1086C476.962 33.718 477.282 33.425 477.686 33.2297C478.091 33.0344 478.551 32.9367 479.066 32.9367C479.414 32.9367 479.732 32.9634 480.02 33.0166C480.311 33.0699 480.527 33.1178 480.669 33.1604L480.265 34.865C480.176 34.8366 480.066 34.8099 479.934 34.7851C479.807 34.7602 479.675 34.7478 479.54 34.7478C479.206 34.7478 478.974 34.8259 478.842 34.9822C478.711 35.1349 478.645 35.3497 478.645 35.6267V44.3572H476.381ZM486.908 40.8735V36.1754H489.178V44.3572H486.999V42.871H486.914C486.729 43.3504 486.422 43.7357 485.992 44.0269C485.566 44.3181 485.046 44.4637 484.431 44.4637C483.885 44.4637 483.403 44.3394 482.988 44.0908C482.572 43.8423 482.247 43.4889 482.013 43.0308C481.782 42.5727 481.665 42.0241 481.662 41.3849V36.1754H483.931V40.98C483.934 41.463 484.064 41.8447 484.32 42.1253C484.575 42.4058 484.918 42.5461 485.348 42.5461C485.621 42.5461 485.877 42.484 486.115 42.3597C486.353 42.2318 486.544 42.0436 486.69 41.795C486.839 41.5465 486.912 41.2393 486.908 40.8735ZM493.262 39.6271V44.3572H490.993V36.1754H493.155V37.6189H493.251C493.432 37.143 493.736 36.7666 494.162 36.4896C494.588 36.2091 495.105 36.0688 495.712 36.0688C496.28 36.0688 496.776 36.1931 497.198 36.4417C497.621 36.6903 497.949 37.0454 498.184 37.507C498.418 37.9651 498.535 38.512 498.535 39.1477V44.3572H496.266V39.5525C496.27 39.0518 496.142 38.6612 495.883 38.3806C495.623 38.0965 495.266 37.9545 494.812 37.9545C494.506 37.9545 494.237 38.0202 494.002 38.1516C493.771 38.283 493.59 38.4747 493.459 38.7269C493.331 38.9754 493.265 39.2755 493.262 39.6271ZM504.02 44.517C503.182 44.517 502.461 44.3394 501.858 43.9843C501.258 43.6256 500.796 43.1285 500.473 42.4928C500.153 41.8572 499.993 41.1256 499.993 40.2982C499.993 39.4602 500.155 38.7251 500.478 38.093C500.805 37.4573 501.268 36.9619 501.868 36.6068C502.469 36.2482 503.182 36.0688 504.01 36.0688C504.724 36.0688 505.349 36.1984 505.885 36.4577C506.421 36.7169 506.845 37.0809 507.158 37.5496C507.47 38.0184 507.643 38.5688 507.674 39.2009H505.533C505.473 38.7925 505.313 38.4641 505.054 38.2155C504.798 37.9634 504.462 37.8373 504.047 37.8373C503.695 37.8373 503.388 37.9332 503.125 38.1249C502.866 38.3131 502.664 38.5884 502.518 38.9506C502.373 39.3128 502.3 39.7514 502.3 40.2663C502.3 40.7883 502.371 41.2322 502.513 41.5979C502.659 41.9637 502.863 42.2425 503.125 42.4342C503.388 42.626 503.695 42.7219 504.047 42.7219C504.306 42.7219 504.539 42.6686 504.745 42.5621C504.954 42.4555 505.127 42.3011 505.262 42.0987C505.4 41.8927 505.491 41.6459 505.533 41.3582H507.674C507.639 41.9832 507.469 42.5337 507.163 43.0095C506.861 43.4818 506.444 43.8511 505.911 44.1175C505.379 44.3838 504.748 44.517 504.02 44.517ZM509.127 44.3572V36.1754H511.397V44.3572H509.127ZM510.267 35.1207C509.93 35.1207 509.64 35.0088 509.399 34.7851C509.161 34.5578 509.042 34.2862 509.042 33.9701C509.042 33.6576 509.161 33.3895 509.399 33.1658C509.64 32.9385 509.93 32.8249 510.267 32.8249C510.605 32.8249 510.892 32.9385 511.13 33.1658C511.372 33.3895 511.492 33.6576 511.492 33.9701C511.492 34.2862 511.372 34.5578 511.13 34.7851C510.892 35.0088 510.605 35.1207 510.267 35.1207ZM516.911 44.517C516.084 44.517 515.368 44.3412 514.764 43.9896C514.164 43.6345 513.701 43.1409 513.374 42.5088C513.047 41.8732 512.884 41.1363 512.884 40.2982C512.884 39.4531 513.047 38.7144 513.374 38.0823C513.701 37.4467 514.164 36.9531 514.764 36.6015C515.368 36.2464 516.084 36.0688 516.911 36.0688C517.738 36.0688 518.452 36.2464 519.052 36.6015C519.656 36.9531 520.121 37.4467 520.448 38.0823C520.775 38.7144 520.938 39.4531 520.938 40.2982C520.938 41.1363 520.775 41.8732 520.448 42.5088C520.121 43.1409 519.656 43.6345 519.052 43.9896C518.452 44.3412 517.738 44.517 516.911 44.517ZM516.922 42.7592C517.298 42.7592 517.612 42.6526 517.864 42.4396C518.117 42.2229 518.307 41.9282 518.434 41.5553C518.566 41.1825 518.632 40.7581 518.632 40.2822C518.632 39.8064 518.566 39.382 518.434 39.0092C518.307 38.6363 518.117 38.3416 517.864 38.1249C517.612 37.9083 517.298 37.8 516.922 37.8C516.542 37.8 516.222 37.9083 515.963 38.1249C515.707 38.3416 515.514 38.6363 515.382 39.0092C515.254 39.382 515.19 39.8064 515.19 40.2822C515.19 40.7581 515.254 41.1825 515.382 41.5553C515.514 41.9282 515.707 42.2229 515.963 42.4396C516.222 42.6526 516.542 42.7592 516.922 42.7592ZM524.683 39.6271V44.3572H522.413V36.1754H524.576V37.6189H524.672C524.853 37.143 525.157 36.7666 525.583 36.4896C526.009 36.2091 526.526 36.0688 527.133 36.0688C527.701 36.0688 528.197 36.1931 528.619 36.4417C529.042 36.6903 529.37 37.0454 529.605 37.507C529.839 37.9651 529.956 38.512 529.956 39.1477V44.3572H527.687V39.5525C527.69 39.0518 527.563 38.6612 527.303 38.3806C527.044 38.0965 526.687 37.9545 526.233 37.9545C525.927 37.9545 525.657 38.0202 525.423 38.1516C525.192 38.283 525.011 38.4747 524.88 38.7269C524.752 38.9754 524.686 39.2755 524.683 39.6271ZM534.078 44.5117C533.556 44.5117 533.09 44.4211 532.682 44.24C532.274 44.0553 531.951 43.7837 531.713 43.425C531.478 43.0628 531.361 42.6118 531.361 42.072C531.361 41.6175 531.444 41.2357 531.611 40.9268C531.778 40.6178 532.006 40.3693 532.293 40.181C532.581 39.9928 532.908 39.8508 533.273 39.7549C533.643 39.659 534.03 39.5916 534.435 39.5525C534.91 39.5028 535.294 39.4566 535.585 39.414C535.876 39.3678 536.088 39.3004 536.219 39.2116C536.35 39.1228 536.416 38.9914 536.416 38.8174V38.7854C536.416 38.4481 536.31 38.1871 536.096 38.0024C535.887 37.8178 535.589 37.7254 535.202 37.7254C534.793 37.7254 534.468 37.816 534.227 37.9971C533.985 38.1746 533.826 38.3984 533.747 38.6683L531.649 38.4978C531.755 38.0006 531.965 37.571 532.277 37.2087C532.59 36.843 532.993 36.5624 533.486 36.3671C533.984 36.1683 534.559 36.0688 535.212 36.0688C535.667 36.0688 536.102 36.1221 536.517 36.2286C536.936 36.3352 537.307 36.5003 537.631 36.724C537.957 36.9477 538.215 37.2354 538.403 37.5869C538.591 37.9349 538.685 38.3522 538.685 38.8387V44.3572H536.533V43.2226H536.469C536.338 43.4783 536.162 43.7038 535.942 43.8991C535.722 44.0908 535.457 44.2418 535.148 44.3519C534.839 44.4584 534.482 44.5117 534.078 44.5117ZM534.727 42.9456C535.061 42.9456 535.356 42.8799 535.612 42.7485C535.867 42.6136 536.068 42.4325 536.214 42.2052C536.359 41.9779 536.432 41.7205 536.432 41.4328V40.5646C536.361 40.6107 536.263 40.6533 536.139 40.6924C536.018 40.7279 535.882 40.7617 535.729 40.7936C535.576 40.822 535.424 40.8487 535.271 40.8735C535.118 40.8948 534.98 40.9144 534.855 40.9321C534.589 40.9712 534.356 41.0333 534.158 41.1185C533.959 41.2038 533.804 41.3192 533.694 41.4648C533.584 41.6068 533.529 41.7844 533.529 41.9974C533.529 42.3064 533.641 42.5425 533.865 42.7059C534.092 42.8657 534.379 42.9456 534.727 42.9456ZM534.482 35.1207L535.612 32.697H537.71L536.086 35.1207H534.482ZM540.446 44.3572V36.1754H542.646V37.6029H542.731C542.88 37.0951 543.13 36.7116 543.482 36.4523C543.834 36.1896 544.238 36.0582 544.696 36.0582C544.81 36.0582 544.933 36.0653 545.064 36.0795C545.195 36.0937 545.311 36.1132 545.41 36.1381V38.1516C545.304 38.1196 545.156 38.0912 544.968 38.0663C544.78 38.0415 544.608 38.0291 544.451 38.0291C544.118 38.0291 543.819 38.1019 543.557 38.2474C543.297 38.3895 543.091 38.5884 542.939 38.844C542.789 39.0997 542.715 39.3945 542.715 39.7283V44.3572H540.446ZM546.583 44.3572V36.1754H548.853V44.3572H546.583ZM547.723 35.1207C547.386 35.1207 547.097 35.0088 546.855 34.7851C546.617 34.5578 546.498 34.2862 546.498 33.9701C546.498 33.6576 546.617 33.3895 546.855 33.1658C547.097 32.9385 547.386 32.8249 547.723 32.8249C548.061 32.8249 548.348 32.9385 548.586 33.1658C548.828 33.3895 548.948 33.6576 548.948 33.9701C548.948 34.2862 548.828 34.5578 548.586 34.7851C548.348 35.0088 548.061 35.1207 547.723 35.1207ZM554.367 44.517C553.54 44.517 552.824 44.3412 552.22 43.9896C551.62 43.6345 551.157 43.1409 550.83 42.5088C550.503 41.8732 550.34 41.1363 550.34 40.2982C550.34 39.4531 550.503 38.7144 550.83 38.0823C551.157 37.4467 551.62 36.9531 552.22 36.6015C552.824 36.2464 553.54 36.0688 554.367 36.0688C555.194 36.0688 555.908 36.2464 556.508 36.6015C557.112 36.9531 557.577 37.4467 557.904 38.0823C558.231 38.7144 558.394 39.4531 558.394 40.2982C558.394 41.1363 558.231 41.8732 557.904 42.5088C557.577 43.1409 557.112 43.6345 556.508 43.9896C555.908 44.3412 555.194 44.517 554.367 44.517ZM554.378 42.7592C554.754 42.7592 555.068 42.6526 555.321 42.4396C555.573 42.2229 555.763 41.9282 555.89 41.5553C556.022 41.1825 556.088 40.7581 556.088 40.2822C556.088 39.8064 556.022 39.382 555.89 39.0092C555.763 38.6363 555.573 38.3416 555.321 38.1249C555.068 37.9083 554.754 37.8 554.378 37.8C553.998 37.8 553.678 37.9083 553.419 38.1249C553.163 38.3416 552.97 38.6363 552.838 39.0092C552.71 39.382 552.647 39.8064 552.647 40.2822C552.647 40.7581 552.71 41.1825 552.838 41.5553C552.97 41.9282 553.163 42.2229 553.419 42.4396C553.678 42.6526 553.998 42.7592 554.378 42.7592ZM566.677 38.5085L564.6 38.6363C564.564 38.4587 564.488 38.2989 564.371 38.1569C564.253 38.0113 564.099 37.8959 563.907 37.8107C563.719 37.7219 563.493 37.6775 563.231 37.6775C562.879 37.6775 562.583 37.7521 562.341 37.9012C562.1 38.0468 561.979 38.2421 561.979 38.4871C561.979 38.6825 562.057 38.8476 562.213 38.9825C562.37 39.1175 562.638 39.2258 563.018 39.3075L564.498 39.6058C565.294 39.7691 565.887 40.0319 566.278 40.3941C566.668 40.7563 566.864 41.2322 566.864 41.8217C566.864 42.3579 566.705 42.8284 566.389 43.2332C566.077 43.6381 565.647 43.9541 565.1 44.1814C564.557 44.4051 563.93 44.517 563.22 44.517C562.137 44.517 561.274 44.2915 560.631 43.8405C559.992 43.3859 559.617 42.768 559.507 41.9868L561.739 41.8696C561.807 42.1999 561.97 42.452 562.229 42.626C562.489 42.7965 562.821 42.8817 563.225 42.8817C563.623 42.8817 563.943 42.8053 564.184 42.6526C564.429 42.4964 564.553 42.2957 564.557 42.0507C564.553 41.8447 564.466 41.6761 564.296 41.5447C564.126 41.4097 563.863 41.3068 563.508 41.2357L562.091 40.9534C561.292 40.7936 560.697 40.5166 560.306 40.1224C559.919 39.7283 559.726 39.2258 559.726 38.615C559.726 38.0894 559.868 37.6367 560.152 37.2567C560.44 36.8767 560.843 36.5837 561.361 36.3778C561.883 36.1718 562.494 36.0688 563.193 36.0688C564.227 36.0688 565.04 36.2872 565.633 36.724C566.23 37.1608 566.578 37.7556 566.677 38.5085Z" fill="black" fill-opacity="0.5"/>
<path d="M209 25H391.7V55H209V25Z" fill="white" stroke="black" stroke-linejoin="bevel"/>
<path d="M232.598 37.2673H230.264C230.222 36.9655 230.135 36.6974 230.003 36.463C229.872 36.2251 229.703 36.0227 229.497 35.8558C229.291 35.6889 229.054 35.561 228.784 35.4722C228.517 35.3835 228.228 35.3391 227.915 35.3391C227.351 35.3391 226.859 35.4793 226.44 35.7599C226.021 36.0369 225.696 36.4417 225.465 36.9744C225.234 37.5035 225.119 38.1462 225.119 38.9026C225.119 39.6803 225.234 40.3337 225.465 40.8629C225.699 41.392 226.026 41.7915 226.445 42.0614C226.864 42.3313 227.349 42.4662 227.899 42.4662C228.208 42.4662 228.494 42.4254 228.757 42.3437C229.023 42.262 229.26 42.143 229.465 41.9868C229.671 41.827 229.842 41.6335 229.977 41.4062C230.115 41.1789 230.211 40.9197 230.264 40.6285L232.598 40.6391C232.537 41.1398 232.386 41.6228 232.145 42.088C231.907 42.5496 231.585 42.9634 231.181 43.3291C230.779 43.6913 230.3 43.979 229.742 44.192C229.188 44.4016 228.562 44.5063 227.862 44.5063C226.889 44.5063 226.019 44.2862 225.252 43.8458C224.489 43.4055 223.885 42.768 223.441 41.9335C223.001 41.099 222.78 40.0887 222.78 38.9026C222.78 37.713 223.004 36.7009 223.452 35.8664C223.899 35.0319 224.506 34.3962 225.273 33.9595C226.04 33.5191 226.903 33.2989 227.862 33.2989C228.494 33.2989 229.08 33.3877 229.62 33.5653C230.163 33.7428 230.644 34.0021 231.063 34.343C231.483 34.6803 231.823 35.094 232.086 35.5841C232.353 36.0742 232.523 36.6352 232.598 37.2673ZM236.542 44.5117C236.02 44.5117 235.555 44.4211 235.146 44.24C234.738 44.0553 234.415 43.7837 234.177 43.425C233.943 43.0628 233.825 42.6118 233.825 42.072C233.825 41.6175 233.909 41.2357 234.076 40.9268C234.243 40.6178 234.47 40.3693 234.758 40.181C235.045 39.9928 235.372 39.8508 235.738 39.7549C236.107 39.659 236.494 39.5916 236.899 39.5525C237.375 39.5028 237.758 39.4566 238.049 39.414C238.341 39.3678 238.552 39.3004 238.683 39.2116C238.815 39.1228 238.88 38.9914 238.88 38.8174V38.7854C238.88 38.4481 238.774 38.1871 238.561 38.0024C238.351 37.8178 238.053 37.7254 237.666 37.7254C237.258 37.7254 236.933 37.816 236.691 37.9971C236.45 38.1746 236.29 38.3984 236.212 38.6683L234.113 38.4978C234.22 38.0006 234.429 37.571 234.742 37.2087C235.054 36.843 235.457 36.5624 235.951 36.3671C236.448 36.1683 237.023 36.0688 237.677 36.0688C238.131 36.0688 238.566 36.1221 238.982 36.2286C239.401 36.3352 239.772 36.5003 240.095 36.724C240.422 36.9477 240.679 37.2354 240.867 37.5869C241.055 37.9349 241.15 38.3522 241.15 38.8387V44.3572H238.998V43.2226H238.934C238.802 43.4783 238.627 43.7038 238.406 43.8991C238.186 44.0908 237.922 44.2418 237.613 44.3519C237.304 44.4584 236.947 44.5117 236.542 44.5117ZM237.192 42.9456C237.526 42.9456 237.82 42.8799 238.076 42.7485C238.332 42.6136 238.532 42.4325 238.678 42.2052C238.824 41.9779 238.896 41.7205 238.896 41.4328V40.5646C238.825 40.6107 238.728 40.6533 238.603 40.6924C238.483 40.7279 238.346 40.7617 238.193 40.7936C238.041 40.822 237.888 40.8487 237.735 40.8735C237.582 40.8948 237.444 40.9144 237.32 40.9321C237.053 40.9712 236.821 41.0333 236.622 41.1185C236.423 41.2038 236.269 41.3192 236.158 41.4648C236.048 41.6068 235.993 41.7844 235.993 41.9974C235.993 42.3064 236.105 42.5425 236.329 42.7059C236.556 42.8657 236.844 42.9456 237.192 42.9456ZM245.925 44.4903C245.304 44.4903 244.741 44.3305 244.236 44.0109C243.736 43.6878 243.338 43.2137 243.043 42.5887C242.752 41.9602 242.606 41.1896 242.606 40.2769C242.606 39.3394 242.757 38.5599 243.059 37.9385C243.361 37.3135 243.762 36.8465 244.263 36.5376C244.767 36.2251 245.32 36.0688 245.92 36.0688C246.378 36.0688 246.76 36.147 247.065 36.3032C247.374 36.4559 247.622 36.6477 247.811 36.8785C248.002 37.1058 248.148 37.3295 248.247 37.5496H248.317V33.4481H250.581V44.3572H248.343V43.0468H248.247C248.141 43.2741 247.99 43.4996 247.795 43.7233C247.603 43.9435 247.353 44.1264 247.044 44.272C246.738 44.4175 246.365 44.4903 245.925 44.4903ZM246.644 42.6846C247.01 42.6846 247.319 42.5852 247.571 42.3863C247.827 42.1839 248.022 41.9016 248.157 41.5394C248.295 41.1771 248.365 40.7528 248.365 40.2663C248.365 39.7798 248.297 39.3572 248.162 38.9985C248.027 38.6398 247.832 38.3629 247.576 38.1675C247.321 37.9722 247.01 37.8746 246.644 37.8746C246.271 37.8746 245.957 37.9758 245.701 38.1782C245.446 38.3806 245.252 38.6612 245.121 39.0198C244.989 39.3785 244.924 39.794 244.924 40.2663C244.924 40.7421 244.989 41.1629 245.121 41.5287C245.256 41.8909 245.449 42.175 245.701 42.381C245.957 42.5834 246.271 42.6846 246.644 42.6846ZM254.779 44.5117C254.257 44.5117 253.792 44.4211 253.384 44.24C252.975 44.0553 252.652 43.7837 252.414 43.425C252.18 43.0628 252.063 42.6118 252.063 42.072C252.063 41.6175 252.146 41.2357 252.313 40.9268C252.48 40.6178 252.707 40.3693 252.995 40.181C253.282 39.9928 253.609 39.8508 253.975 39.7549C254.344 39.659 254.731 39.5916 255.136 39.5525C255.612 39.5028 255.996 39.4566 256.287 39.414C256.578 39.3678 256.789 39.3004 256.921 39.2116C257.052 39.1228 257.118 38.9914 257.118 38.8174V38.7854C257.118 38.4481 257.011 38.1871 256.798 38.0024C256.589 37.8178 256.29 37.7254 255.903 37.7254C255.495 37.7254 255.17 37.816 254.928 37.9971C254.687 38.1746 254.527 38.3984 254.449 38.6683L252.35 38.4978C252.457 38.0006 252.666 37.571 252.979 37.2087C253.291 36.843 253.694 36.5624 254.188 36.3671C254.685 36.1683 255.26 36.0688 255.914 36.0688C256.368 36.0688 256.803 36.1221 257.219 36.2286C257.638 36.3352 258.009 36.5003 258.332 36.724C258.659 36.9477 258.916 37.2354 259.105 37.5869C259.293 37.9349 259.387 38.3522 259.387 38.8387V44.3572H257.235V43.2226H257.171C257.04 43.4783 256.864 43.7038 256.644 43.8991C256.423 44.0908 256.159 44.2418 255.85 44.3519C255.541 44.4584 255.184 44.5117 254.779 44.5117ZM255.429 42.9456C255.763 42.9456 256.058 42.8799 256.313 42.7485C256.569 42.6136 256.77 42.4325 256.915 42.2052C257.061 41.9779 257.134 41.7205 257.134 41.4328V40.5646C257.063 40.6107 256.965 40.6533 256.841 40.6924C256.72 40.7279 256.583 40.7617 256.431 40.7936C256.278 40.822 256.125 40.8487 255.972 40.8735C255.82 40.8948 255.681 40.9144 255.557 40.9321C255.291 40.9712 255.058 41.0333 254.859 41.1185C254.66 41.2038 254.506 41.3192 254.396 41.4648C254.286 41.6068 254.231 41.7844 254.231 41.9974C254.231 42.3064 254.343 42.5425 254.566 42.7059C254.794 42.8657 255.081 42.9456 255.429 42.9456ZM267.955 38.5085L265.877 38.6363C265.842 38.4587 265.766 38.2989 265.648 38.1569C265.531 38.0113 265.377 37.8959 265.185 37.8107C264.997 37.7219 264.771 37.6775 264.509 37.6775C264.157 37.6775 263.86 37.7521 263.619 37.9012C263.377 38.0468 263.257 38.2421 263.257 38.4871C263.257 38.6825 263.335 38.8476 263.491 38.9825C263.647 39.1175 263.915 39.2258 264.295 39.3075L265.776 39.6058C266.572 39.7691 267.165 40.0319 267.555 40.3941C267.946 40.7563 268.141 41.2322 268.141 41.8217C268.141 42.3579 267.983 42.8284 267.667 43.2332C267.355 43.6381 266.925 43.9541 266.378 44.1814C265.835 44.4051 265.208 44.517 264.498 44.517C263.415 44.517 262.552 44.2915 261.909 43.8405C261.27 43.3859 260.895 42.768 260.785 41.9868L263.017 41.8696C263.085 42.1999 263.248 42.452 263.507 42.626C263.766 42.7965 264.098 42.8817 264.503 42.8817C264.901 42.8817 265.221 42.8053 265.462 42.6526C265.707 42.4964 265.831 42.2957 265.835 42.0507C265.831 41.8447 265.744 41.6761 265.574 41.5447C265.403 41.4097 265.141 41.3068 264.786 41.2357L263.369 40.9534C262.57 40.7936 261.975 40.5166 261.584 40.1224C261.197 39.7283 261.004 39.2258 261.004 38.615C261.004 38.0894 261.146 37.6367 261.43 37.2567C261.717 36.8767 262.12 36.5837 262.639 36.3778C263.161 36.1718 263.772 36.0688 264.471 36.0688C265.505 36.0688 266.318 36.2872 266.911 36.724C267.507 37.1608 267.855 37.7556 267.955 38.5085ZM273.922 36.1754V37.8799H268.995V36.1754H273.922ZM270.114 34.2151H272.383V41.843C272.383 42.0525 272.415 42.2158 272.479 42.333C272.543 42.4467 272.631 42.5266 272.745 42.5727C272.862 42.6189 272.997 42.642 273.15 42.642C273.256 42.642 273.363 42.6331 273.469 42.6153C273.576 42.594 273.658 42.5781 273.714 42.5674L274.071 44.256C273.958 44.2915 273.798 44.3323 273.592 44.3785C273.386 44.4282 273.136 44.4584 272.841 44.469C272.294 44.4903 271.815 44.4175 271.403 44.2506C270.994 44.0837 270.676 43.8245 270.449 43.4729C270.222 43.1214 270.11 42.6775 270.114 42.1413V34.2151ZM275.4 44.3572V36.1754H277.6V37.6029H277.685C277.835 37.0951 278.085 36.7116 278.437 36.4523C278.788 36.1896 279.193 36.0582 279.651 36.0582C279.765 36.0582 279.887 36.0653 280.019 36.0795C280.15 36.0937 280.265 36.1132 280.365 36.1381V38.1516C280.258 38.1196 280.111 38.0912 279.923 38.0663C279.734 38.0415 279.562 38.0291 279.406 38.0291C279.072 38.0291 278.774 38.1019 278.511 38.2474C278.252 38.3895 278.046 38.5884 277.893 38.844C277.744 39.0997 277.669 39.3945 277.669 39.7283V44.3572H275.4ZM283.637 44.5117C283.115 44.5117 282.65 44.4211 282.241 44.24C281.833 44.0553 281.51 43.7837 281.272 43.425C281.037 43.0628 280.92 42.6118 280.92 42.072C280.92 41.6175 281.004 41.2357 281.17 40.9268C281.337 40.6178 281.565 40.3693 281.852 40.181C282.14 39.9928 282.467 39.8508 282.832 39.7549C283.202 39.659 283.589 39.5916 283.994 39.5525C284.469 39.5028 284.853 39.4566 285.144 39.414C285.435 39.3678 285.647 39.3004 285.778 39.2116C285.909 39.1228 285.975 38.9914 285.975 38.8174V38.7854C285.975 38.4481 285.869 38.1871 285.656 38.0024C285.446 37.8178 285.148 37.7254 284.761 37.7254C284.352 37.7254 284.027 37.816 283.786 37.9971C283.544 38.1746 283.385 38.3984 283.306 38.6683L281.208 38.4978C281.314 38.0006 281.524 37.571 281.836 37.2087C282.149 36.843 282.552 36.5624 283.045 36.3671C283.543 36.1683 284.118 36.0688 284.771 36.0688C285.226 36.0688 285.661 36.1221 286.076 36.2286C286.495 36.3352 286.866 36.5003 287.19 36.724C287.516 36.9477 287.774 37.2354 287.962 37.5869C288.15 37.9349 288.244 38.3522 288.244 38.8387V44.3572H286.092V43.2226H286.028C285.897 43.4783 285.721 43.7038 285.501 43.8991C285.281 44.0908 285.016 44.2418 284.707 44.3519C284.398 44.4584 284.042 44.5117 283.637 44.5117ZM284.287 42.9456C284.62 42.9456 284.915 42.8799 285.171 42.7485C285.426 42.6136 285.627 42.4325 285.773 42.2052C285.918 41.9779 285.991 41.7205 285.991 41.4328V40.5646C285.92 40.6107 285.822 40.6533 285.698 40.6924C285.577 40.7279 285.441 40.7617 285.288 40.7936C285.135 40.822 284.983 40.8487 284.83 40.8735C284.677 40.8948 284.539 40.9144 284.414 40.9321C284.148 40.9712 283.915 41.0333 283.717 41.1185C283.518 41.2038 283.363 41.3192 283.253 41.4648C283.143 41.6068 283.088 41.7844 283.088 41.9974C283.088 42.3064 283.2 42.5425 283.424 42.7059C283.651 42.8657 283.939 42.9456 284.287 42.9456ZM290.005 44.3572V36.1754H292.205V37.6029H292.29C292.439 37.0951 292.689 36.7116 293.041 36.4523C293.393 36.1896 293.797 36.0582 294.256 36.0582C294.369 36.0582 294.492 36.0653 294.623 36.0795C294.754 36.0937 294.87 36.1132 294.969 36.1381V38.1516C294.863 38.1196 294.715 38.0912 294.527 38.0663C294.339 38.0415 294.167 38.0291 294.01 38.0291C293.677 38.0291 293.378 38.1019 293.116 38.2474C292.856 38.3895 292.65 38.5884 292.498 38.844C292.349 39.0997 292.274 39.3945 292.274 39.7283V44.3572H290.005ZM304.014 36.1754V37.8799H298.964V36.1754H304.014ZM300.12 44.3572V35.5841C300.12 34.9911 300.236 34.4992 300.466 34.1086C300.701 33.718 301.02 33.425 301.425 33.2297C301.83 33.0344 302.29 32.9367 302.805 32.9367C303.153 32.9367 303.471 32.9634 303.758 33.0166C304.05 33.0699 304.266 33.1178 304.408 33.1604L304.003 34.865C303.915 34.8366 303.805 34.8099 303.673 34.7851C303.545 34.7602 303.414 34.7478 303.279 34.7478C302.945 34.7478 302.713 34.8259 302.581 34.9822C302.45 35.1349 302.384 35.3497 302.384 35.6267V44.3572H300.12ZM310.647 40.8735V36.1754H312.916V44.3572H310.738V42.871H310.652C310.468 43.3504 310.161 43.7357 309.731 44.0269C309.305 44.3181 308.785 44.4637 308.17 44.4637C307.623 44.4637 307.142 44.3394 306.727 44.0908C306.311 43.8423 305.986 43.4889 305.752 43.0308C305.521 42.5727 305.404 42.0241 305.4 41.3849V36.1754H307.669V40.98C307.673 41.463 307.803 41.8447 308.058 42.1253C308.314 42.4058 308.657 42.5461 309.086 42.5461C309.36 42.5461 309.616 42.484 309.853 42.3597C310.091 42.2318 310.283 42.0436 310.429 41.795C310.578 41.5465 310.651 41.2393 310.647 40.8735ZM317.001 39.6271V44.3572H314.731V36.1754H316.894V37.6189H316.99C317.171 37.143 317.475 36.7666 317.901 36.4896C318.327 36.2091 318.844 36.0688 319.451 36.0688C320.019 36.0688 320.514 36.1931 320.937 36.4417C321.36 36.6903 321.688 37.0454 321.922 37.507C322.157 37.9651 322.274 38.512 322.274 39.1477V44.3572H320.005V39.5525C320.008 39.0518 319.881 38.6612 319.621 38.3806C319.362 38.0965 319.005 37.9545 318.551 37.9545C318.245 37.9545 317.975 38.0202 317.741 38.1516C317.51 38.283 317.329 38.4747 317.198 38.7269C317.07 38.9754 317.004 39.2755 317.001 39.6271ZM327.759 44.517C326.921 44.517 326.2 44.3394 325.597 43.9843C324.996 43.6256 324.535 43.1285 324.212 42.4928C323.892 41.8572 323.732 41.1256 323.732 40.2982C323.732 39.4602 323.894 38.7251 324.217 38.093C324.544 37.4573 325.007 36.9619 325.607 36.6068C326.207 36.2482 326.921 36.0688 327.748 36.0688C328.462 36.0688 329.087 36.1984 329.623 36.4577C330.16 36.7169 330.584 37.0809 330.897 37.5496C331.209 38.0184 331.381 38.5688 331.413 39.2009H329.272C329.212 38.7925 329.052 38.4641 328.793 38.2155C328.537 37.9634 328.201 37.8373 327.786 37.8373C327.434 37.8373 327.127 37.9332 326.864 38.1249C326.605 38.3131 326.403 38.5884 326.257 38.9506C326.111 39.3128 326.039 39.7514 326.039 40.2663C326.039 40.7883 326.11 41.2322 326.252 41.5979C326.397 41.9637 326.601 42.2425 326.864 42.4342C327.127 42.626 327.434 42.7219 327.786 42.7219C328.045 42.7219 328.278 42.6686 328.484 42.5621C328.693 42.4555 328.865 42.3011 329 42.0987C329.139 41.8927 329.229 41.6459 329.272 41.3582H331.413C331.378 41.9832 331.207 42.5337 330.902 43.0095C330.6 43.4818 330.183 43.8511 329.65 44.1175C329.117 44.3838 328.487 44.517 327.759 44.517ZM332.866 44.3572V36.1754H335.135V44.3572H332.866ZM334.006 35.1207C333.669 35.1207 333.379 35.0088 333.138 34.7851C332.9 34.5578 332.781 34.2862 332.781 33.9701C332.781 33.6576 332.9 33.3895 333.138 33.1658C333.379 32.9385 333.669 32.8249 334.006 32.8249C334.343 32.8249 334.631 32.9385 334.869 33.1658C335.11 33.3895 335.231 33.6576 335.231 33.9701C335.231 34.2862 335.11 34.5578 334.869 34.7851C334.631 35.0088 334.343 35.1207 334.006 35.1207ZM340.65 44.517C339.822 44.517 339.107 44.3412 338.503 43.9896C337.903 43.6345 337.44 43.1409 337.113 42.5088C336.786 41.8732 336.623 41.1363 336.623 40.2982C336.623 39.4531 336.786 38.7144 337.113 38.0823C337.44 37.4467 337.903 36.9531 338.503 36.6015C339.107 36.2464 339.822 36.0688 340.65 36.0688C341.477 36.0688 342.191 36.2464 342.791 36.6015C343.395 36.9531 343.86 37.4467 344.187 38.0823C344.513 38.7144 344.677 39.4531 344.677 40.2982C344.677 41.1363 344.513 41.8732 344.187 42.5088C343.86 43.1409 343.395 43.6345 342.791 43.9896C342.191 44.3412 341.477 44.517 340.65 44.517ZM340.66 42.7592C341.037 42.7592 341.351 42.6526 341.603 42.4396C341.855 42.2229 342.045 41.9282 342.173 41.5553C342.305 41.1825 342.37 40.7581 342.37 40.2822C342.37 39.8064 342.305 39.382 342.173 39.0092C342.045 38.6363 341.855 38.3416 341.603 38.1249C341.351 37.9083 341.037 37.8 340.66 37.8C340.28 37.8 339.961 37.9083 339.702 38.1249C339.446 38.3416 339.252 38.6363 339.121 39.0092C338.993 39.382 338.929 39.8064 338.929 40.2822C338.929 40.7581 338.993 41.1825 339.121 41.5553C339.252 41.9282 339.446 42.2229 339.702 42.4396C339.961 42.6526 340.28 42.7592 340.66 42.7592ZM348.421 39.6271V44.3572H346.152V36.1754H348.315V37.6189H348.411C348.592 37.143 348.896 36.7666 349.322 36.4896C349.748 36.2091 350.264 36.0688 350.872 36.0688C351.44 36.0688 351.935 36.1931 352.358 36.4417C352.78 36.6903 353.109 37.0454 353.343 37.507C353.578 37.9651 353.695 38.512 353.695 39.1477V44.3572H351.426V39.5525C351.429 39.0518 351.301 38.6612 351.042 38.3806C350.783 38.0965 350.426 37.9545 349.972 37.9545C349.666 37.9545 349.396 38.0202 349.162 38.1516C348.931 38.283 348.75 38.4747 348.619 38.7269C348.491 38.9754 348.425 39.2755 348.421 39.6271ZM357.816 44.5117C357.294 44.5117 356.829 44.4211 356.421 44.24C356.012 44.0553 355.689 43.7837 355.451 43.425C355.217 43.0628 355.1 42.6118 355.1 42.072C355.1 41.6175 355.183 41.2357 355.35 40.9268C355.517 40.6178 355.744 40.3693 356.032 40.181C356.32 39.9928 356.646 39.8508 357.012 39.7549C357.381 39.659 357.768 39.5916 358.173 39.5525C358.649 39.5028 359.033 39.4566 359.324 39.414C359.615 39.3678 359.826 39.3004 359.958 39.2116C360.089 39.1228 360.155 38.9914 360.155 38.8174V38.7854C360.155 38.4481 360.048 38.1871 359.835 38.0024C359.626 37.8178 359.327 37.7254 358.94 37.7254C358.532 37.7254 358.207 37.816 357.966 37.9971C357.724 38.1746 357.564 38.3984 357.486 38.6683L355.387 38.4978C355.494 38.0006 355.703 37.571 356.016 37.2087C356.328 36.843 356.732 36.5624 357.225 36.3671C357.722 36.1683 358.298 36.0688 358.951 36.0688C359.406 36.0688 359.841 36.1221 360.256 36.2286C360.675 36.3352 361.046 36.5003 361.369 36.724C361.696 36.9477 361.953 37.2354 362.142 37.5869C362.33 37.9349 362.424 38.3522 362.424 38.8387V44.3572H360.272V43.2226H360.208C360.077 43.4783 359.901 43.7038 359.681 43.8991C359.461 44.0908 359.196 44.2418 358.887 44.3519C358.578 44.4584 358.221 44.5117 357.816 44.5117ZM358.466 42.9456C358.8 42.9456 359.095 42.8799 359.351 42.7485C359.606 42.6136 359.807 42.4325 359.952 42.2052C360.098 41.9779 360.171 41.7205 360.171 41.4328V40.5646C360.1 40.6107 360.002 40.6533 359.878 40.6924C359.757 40.7279 359.62 40.7617 359.468 40.7936C359.315 40.822 359.162 40.8487 359.01 40.8735C358.857 40.8948 358.718 40.9144 358.594 40.9321C358.328 40.9712 358.095 41.0333 357.896 41.1185C357.697 41.2038 357.543 41.3192 357.433 41.4648C357.323 41.6068 357.268 41.7844 357.268 41.9974C357.268 42.3064 357.38 42.5425 357.603 42.7059C357.831 42.8657 358.118 42.9456 358.466 42.9456ZM358.221 35.1207L359.351 32.697H361.449L359.825 35.1207H358.221ZM364.184 44.3572V36.1754H366.384V37.6029H366.47C366.619 37.0951 366.869 36.7116 367.221 36.4523C367.572 36.1896 367.977 36.0582 368.435 36.0582C368.549 36.0582 368.671 36.0653 368.803 36.0795C368.934 36.0937 369.05 36.1132 369.149 36.1381V38.1516C369.042 38.1196 368.895 38.0912 368.707 38.0663C368.519 38.0415 368.346 38.0291 368.19 38.0291C367.856 38.0291 367.558 38.1019 367.295 38.2474C367.036 38.3895 366.83 38.5884 366.677 38.844C366.528 39.0997 366.454 39.3945 366.454 39.7283V44.3572H364.184ZM370.322 44.3572V36.1754H372.591V44.3572H370.322ZM371.462 35.1207C371.125 35.1207 370.835 35.0088 370.594 34.7851C370.356 34.5578 370.237 34.2862 370.237 33.9701C370.237 33.6576 370.356 33.3895 370.594 33.1658C370.835 32.9385 371.125 32.8249 371.462 32.8249C371.799 32.8249 372.087 32.9385 372.325 33.1658C372.566 33.3895 372.687 33.6576 372.687 33.9701C372.687 34.2862 372.566 34.5578 372.325 34.7851C372.087 35.0088 371.799 35.1207 371.462 35.1207ZM378.106 44.517C377.278 44.517 376.563 44.3412 375.959 43.9896C375.359 43.6345 374.896 43.1409 374.569 42.5088C374.242 41.8732 374.079 41.1363 374.079 40.2982C374.079 39.4531 374.242 38.7144 374.569 38.0823C374.896 37.4467 375.359 36.9531 375.959 36.6015C376.563 36.2464 377.278 36.0688 378.106 36.0688C378.933 36.0688 379.647 36.2464 380.247 36.6015C380.851 36.9531 381.316 37.4467 381.643 38.0823C381.969 38.7144 382.133 39.4531 382.133 40.2982C382.133 41.1363 381.969 41.8732 381.643 42.5088C381.316 43.1409 380.851 43.6345 380.247 43.9896C379.647 44.3412 378.933 44.517 378.106 44.517ZM378.116 42.7592C378.493 42.7592 378.807 42.6526 379.059 42.4396C379.311 42.2229 379.501 41.9282 379.629 41.5553C379.761 41.1825 379.826 40.7581 379.826 40.2822C379.826 39.8064 379.761 39.382 379.629 39.0092C379.501 38.6363 379.311 38.3416 379.059 38.1249C378.807 37.9083 378.493 37.8 378.116 37.8C377.737 37.8 377.417 37.9083 377.158 38.1249C376.902 38.3416 376.708 38.6363 376.577 39.0092C376.449 39.382 376.385 39.8064 376.385 40.2822C376.385 40.7581 376.449 41.1825 376.577 41.5553C376.708 41.9282 376.902 42.2229 377.158 42.4396C377.417 42.6526 377.737 42.7592 378.116 42.7592Z" fill="black" fill-opacity="0.5"/>
<path d="M25 30C25 27.2386 27.2386 25 30 25H208.7V54.8295H25V30Z" fill="white" stroke="black" stroke-linejoin="bevel"/>
<path d="M59.0374 33.4176L61.6741 41.7059H61.7753L64.4173 33.4176H66.9742L63.2135 44.3267H60.2412L56.4752 33.4176H59.0374ZM71.0504 44.4865C70.2088 44.4865 69.4844 44.316 68.8771 43.9751C68.2734 43.6306 67.8082 43.1441 67.4815 42.5156C67.1548 41.8835 66.9915 41.136 66.9915 40.273C66.9915 39.4314 67.1548 38.6928 67.4815 38.0571C67.8082 37.4215 68.2681 36.9261 68.8611 36.571C69.4577 36.2159 70.1573 36.0383 70.9599 36.0383C71.4996 36.0383 72.0021 36.1253 72.4673 36.2993C72.9361 36.4698 73.3445 36.7272 73.6925 37.0717C74.044 37.4161 74.3175 37.8494 74.5128 38.3714C74.7081 38.8899 74.8058 39.4971 74.8058 40.1931V40.8164H67.897V39.4101H72.6697C72.6697 39.0834 72.5987 38.794 72.4567 38.5419C72.3146 38.2897 72.1175 38.0926 71.8654 37.9506C71.6168 37.805 71.3274 37.7322 70.9972 37.7322C70.6527 37.7322 70.3473 37.8121 70.081 37.9719C69.8182 38.1282 69.6122 38.3394 69.4631 38.6058C69.3139 38.8686 69.2376 39.1615 69.234 39.4847V40.8217C69.234 41.2265 69.3086 41.5763 69.4577 41.871C69.6104 42.1658 69.8253 42.3931 70.1023 42.5529C70.3793 42.7127 70.7077 42.7926 71.0877 42.7926C71.3398 42.7926 71.5707 42.7571 71.7802 42.686C71.9897 42.615 72.169 42.5085 72.3182 42.3664C72.4673 42.2244 72.581 42.0504 72.6591 41.8444L74.7578 41.9829C74.6513 42.4872 74.4329 42.9275 74.1026 43.3039C73.7759 43.6768 73.3533 43.968 72.8349 44.1775C72.32 44.3835 71.7251 44.4865 71.0504 44.4865ZM76.2866 44.3267V36.1448H78.4865V37.5724H78.5717C78.7209 37.0646 78.9712 36.6811 79.3228 36.4218C79.6744 36.159 80.0792 36.0277 80.5373 36.0277C80.6509 36.0277 80.7734 36.0348 80.9048 36.049C81.0362 36.0632 81.1516 36.0827 81.2511 36.1076V38.121C81.1445 38.0891 80.9972 38.0607 80.8089 38.0358C80.6207 38.011 80.4485 37.9985 80.2923 37.9985C79.9584 37.9985 79.6602 38.0713 79.3974 38.2169C79.1381 38.359 78.9322 38.5578 78.7795 38.8135C78.6303 39.0692 78.5558 39.3639 78.5558 39.6978V44.3267H76.2866ZM90.2958 36.1448V37.8494H85.2461V36.1448H90.2958ZM86.402 44.3267V35.5536C86.402 34.9605 86.5174 34.4687 86.7482 34.0781C86.9826 33.6875 87.3022 33.3945 87.707 33.1992C88.1119 33.0039 88.5717 32.9062 89.0866 32.9062C89.4347 32.9062 89.7525 32.9328 90.0401 32.9861C90.3313 33.0394 90.5479 33.0873 90.69 33.1299L90.2852 34.8345C90.1964 34.8061 90.0863 34.7794 89.9549 34.7546C89.8271 34.7297 89.6957 34.7173 89.5607 34.7173C89.2269 34.7173 88.9943 34.7954 88.8629 34.9517C88.7315 35.1044 88.6658 35.3192 88.6658 35.5962V44.3267H86.402ZM96.9289 40.843V36.1448H99.1981V44.3267H97.0194V42.8405H96.9342C96.7496 43.3199 96.4424 43.7052 96.0127 43.9964C95.5866 44.2876 95.0663 44.4332 94.452 44.4332C93.9051 44.4332 93.4239 44.3089 93.0084 44.0603C92.5929 43.8117 92.268 43.4584 92.0336 43.0003C91.8028 42.5422 91.6856 41.9936 91.6821 41.3544V36.1448H93.9513V40.9495C93.9548 41.4325 94.0844 41.8142 94.3401 42.0948C94.5958 42.3753 94.9385 42.5156 95.3682 42.5156C95.6416 42.5156 95.8973 42.4534 96.1352 42.3291C96.3731 42.2013 96.5649 42.0131 96.7105 41.7645C96.8596 41.5159 96.9324 41.2088 96.9289 40.843ZM103.282 39.5965V44.3267H101.013V36.1448H103.176V37.5884H103.272C103.453 37.1125 103.756 36.7361 104.183 36.4591C104.609 36.1786 105.125 36.0383 105.733 36.0383C106.301 36.0383 106.796 36.1626 107.219 36.4112C107.641 36.6598 107.97 37.0149 108.204 37.4765C108.439 37.9346 108.556 38.4815 108.556 39.1171V44.3267H106.287V39.522C106.29 39.0213 106.162 38.6306 105.903 38.3501C105.644 38.066 105.287 37.924 104.832 37.924C104.527 37.924 104.257 37.9897 104.023 38.121C103.792 38.2524 103.611 38.4442 103.479 38.6963C103.352 38.9449 103.286 39.245 103.282 39.5965ZM114.041 44.4865C113.203 44.4865 112.482 44.3089 111.878 43.9538C111.278 43.5951 110.816 43.098 110.493 42.4623C110.174 41.8267 110.014 41.0951 110.014 40.2677C110.014 39.4296 110.176 38.6946 110.499 38.0625C110.825 37.4268 111.289 36.9314 111.889 36.5763C112.489 36.2176 113.203 36.0383 114.03 36.0383C114.744 36.0383 115.369 36.1679 115.905 36.4272C116.441 36.6864 116.866 37.0504 117.178 37.5191C117.491 37.9879 117.663 38.5383 117.695 39.1704H115.554C115.493 38.762 115.334 38.4335 115.074 38.185C114.819 37.9328 114.483 37.8068 114.068 37.8068C113.716 37.8068 113.409 37.9027 113.146 38.0944C112.887 38.2826 112.684 38.5578 112.539 38.9201C112.393 39.2823 112.32 39.7208 112.32 40.2358C112.32 40.7578 112.391 41.2017 112.533 41.5674C112.679 41.9332 112.883 42.212 113.146 42.4037C113.409 42.5955 113.716 42.6914 114.068 42.6914C114.327 42.6914 114.559 42.6381 114.765 42.5316C114.975 42.425 115.147 42.2706 115.282 42.0681C115.421 41.8622 115.511 41.6154 115.554 41.3277H117.695C117.66 41.9527 117.489 42.5032 117.184 42.979C116.882 43.4513 116.465 43.8206 115.932 44.087C115.399 44.3533 114.769 44.4865 114.041 44.4865ZM119.148 44.3267V36.1448H121.417V44.3267H119.148ZM120.288 35.0902C119.95 35.0902 119.661 34.9783 119.42 34.7546C119.182 34.5273 119.063 34.2556 119.063 33.9396C119.063 33.6271 119.182 33.359 119.42 33.1353C119.661 32.908 119.95 32.7943 120.288 32.7943C120.625 32.7943 120.913 32.908 121.151 33.1353C121.392 33.359 121.513 33.6271 121.513 33.9396C121.513 34.2556 121.392 34.5273 121.151 34.7546C120.913 34.9783 120.625 35.0902 120.288 35.0902ZM126.932 44.4865C126.104 44.4865 125.389 44.3107 124.785 43.9591C124.185 43.604 123.721 43.1104 123.395 42.4783C123.068 41.8426 122.905 41.1058 122.905 40.2677C122.905 39.4225 123.068 38.6839 123.395 38.0518C123.721 37.4161 124.185 36.9225 124.785 36.571C125.389 36.2159 126.104 36.0383 126.932 36.0383C127.759 36.0383 128.473 36.2159 129.073 36.571C129.677 36.9225 130.142 37.4161 130.468 38.0518C130.795 38.6839 130.959 39.4225 130.959 40.2677C130.959 41.1058 130.795 41.8426 130.468 42.4783C130.142 43.1104 129.677 43.604 129.073 43.9591C128.473 44.3107 127.759 44.4865 126.932 44.4865ZM126.942 42.7286C127.319 42.7286 127.633 42.6221 127.885 42.409C128.137 42.1924 128.327 41.8977 128.455 41.5248C128.586 41.1519 128.652 40.7276 128.652 40.2517C128.652 39.7759 128.586 39.3515 128.455 38.9786C128.327 38.6058 128.137 38.311 127.885 38.0944C127.633 37.8778 127.319 37.7695 126.942 37.7695C126.562 37.7695 126.243 37.8778 125.983 38.0944C125.728 38.311 125.534 38.6058 125.403 38.9786C125.275 39.3515 125.211 39.7759 125.211 40.2517C125.211 40.7276 125.275 41.1519 125.403 41.5248C125.534 41.8977 125.728 42.1924 125.983 42.409C126.243 42.6221 126.562 42.7286 126.942 42.7286ZM134.703 39.5965V44.3267H132.434V36.1448H134.597V37.5884H134.693C134.874 37.1125 135.177 36.7361 135.603 36.4591C136.03 36.1786 136.546 36.0383 137.153 36.0383C137.722 36.0383 138.217 36.1626 138.64 36.4112C139.062 36.6598 139.391 37.0149 139.625 37.4765C139.859 37.9346 139.977 38.4815 139.977 39.1171V44.3267H137.707V39.522C137.711 39.0213 137.583 38.6306 137.324 38.3501C137.065 38.066 136.708 37.924 136.253 37.924C135.948 37.924 135.678 37.9897 135.444 38.121C135.213 38.2524 135.032 38.4442 134.9 38.6963C134.772 38.9449 134.707 39.245 134.703 39.5965ZM144.098 44.4811C143.576 44.4811 143.111 44.3906 142.703 44.2095C142.294 44.0248 141.971 43.7532 141.733 43.3945C141.499 43.0323 141.382 42.5813 141.382 42.0415C141.382 41.587 141.465 41.2052 141.632 40.8963C141.799 40.5873 142.026 40.3387 142.314 40.1505C142.601 39.9623 142.928 39.8203 143.294 39.7244C143.663 39.6285 144.05 39.561 144.455 39.522C144.931 39.4723 145.314 39.4261 145.606 39.3835C145.897 39.3373 146.108 39.2698 146.24 39.1811C146.371 39.0923 146.437 38.9609 146.437 38.7869V38.7549C146.437 38.4176 146.33 38.1566 146.117 37.9719C145.907 37.7872 145.609 37.6949 145.222 37.6949C144.814 37.6949 144.489 37.7855 144.247 37.9666C144.006 38.1441 143.846 38.3679 143.768 38.6377L141.669 38.4673C141.776 37.9701 141.985 37.5404 142.298 37.1782C142.61 36.8125 143.013 36.5319 143.507 36.3366C144.004 36.1377 144.579 36.0383 145.233 36.0383C145.687 36.0383 146.122 36.0916 146.538 36.1981C146.957 36.3046 147.328 36.4698 147.651 36.6935C147.978 36.9172 148.235 37.2049 148.423 37.5564C148.612 37.9044 148.706 38.3217 148.706 38.8082V44.3267H146.554V43.1921H146.49C146.358 43.4478 146.183 43.6733 145.963 43.8686C145.742 44.0603 145.478 44.2112 145.169 44.3213C144.86 44.4279 144.503 44.4811 144.098 44.4811ZM144.748 42.9151C145.082 42.9151 145.377 42.8494 145.632 42.718C145.888 42.5831 146.089 42.4019 146.234 42.1747C146.38 41.9474 146.453 41.6899 146.453 41.4023V40.534C146.382 40.5802 146.284 40.6228 146.16 40.6619C146.039 40.6974 145.902 40.7311 145.749 40.7631C145.597 40.7915 145.444 40.8181 145.291 40.843C145.139 40.8643 145 40.8838 144.876 40.9016C144.61 40.9407 144.377 41.0028 144.178 41.088C143.979 41.1733 143.825 41.2887 143.715 41.4343C143.605 41.5763 143.55 41.7539 143.55 41.9669C143.55 42.2759 143.661 42.512 143.885 42.6754C144.112 42.8352 144.4 42.9151 144.748 42.9151ZM144.503 35.0902L145.632 32.6665H147.731L146.106 35.0902H144.503ZM150.466 44.3267V36.1448H152.666V37.5724H152.751C152.901 37.0646 153.151 36.6811 153.502 36.4218C153.854 36.159 154.259 36.0277 154.717 36.0277C154.831 36.0277 154.953 36.0348 155.085 36.049C155.216 36.0632 155.331 36.0827 155.431 36.1076V38.121C155.324 38.0891 155.177 38.0607 154.989 38.0358C154.8 38.011 154.628 37.9985 154.472 37.9985C154.138 37.9985 153.84 38.0713 153.577 38.2169C153.318 38.359 153.112 38.5578 152.959 38.8135C152.81 39.0692 152.735 39.3639 152.735 39.6978V44.3267H150.466ZM156.604 44.3267V36.1448H158.873V44.3267H156.604ZM157.744 35.0902C157.407 35.0902 157.117 34.9783 156.876 34.7546C156.638 34.5273 156.519 34.2556 156.519 33.9396C156.519 33.6271 156.638 33.359 156.876 33.1353C157.117 32.908 157.407 32.7943 157.744 32.7943C158.081 32.7943 158.369 32.908 158.607 33.1353C158.848 33.359 158.969 33.6271 158.969 33.9396C158.969 34.2556 158.848 34.5273 158.607 34.7546C158.369 34.9783 158.081 35.0902 157.744 35.0902ZM164.388 44.4865C163.56 44.4865 162.845 44.3107 162.241 43.9591C161.641 43.604 161.177 43.1104 160.851 42.4783C160.524 41.8426 160.361 41.1058 160.361 40.2677C160.361 39.4225 160.524 38.6839 160.851 38.0518C161.177 37.4161 161.641 36.9225 162.241 36.571C162.845 36.2159 163.56 36.0383 164.388 36.0383C165.215 36.0383 165.929 36.2159 166.529 36.571C167.133 36.9225 167.598 37.4161 167.925 38.0518C168.251 38.6839 168.415 39.4225 168.415 40.2677C168.415 41.1058 168.251 41.8426 167.925 42.4783C167.598 43.1104 167.133 43.604 166.529 43.9591C165.929 44.3107 165.215 44.4865 164.388 44.4865ZM164.398 42.7286C164.775 42.7286 165.089 42.6221 165.341 42.409C165.593 42.1924 165.783 41.8977 165.911 41.5248C166.042 41.1519 166.108 40.7276 166.108 40.2517C166.108 39.7759 166.042 39.3515 165.911 38.9786C165.783 38.6058 165.593 38.311 165.341 38.0944C165.089 37.8778 164.775 37.7695 164.398 37.7695C164.018 37.7695 163.699 37.8778 163.439 38.0944C163.184 38.311 162.99 38.6058 162.859 38.9786C162.731 39.3515 162.667 39.7759 162.667 40.2517C162.667 40.7276 162.731 41.1519 162.859 41.5248C162.99 41.8977 163.184 42.1924 163.439 42.409C163.699 42.6221 164.018 42.7286 164.398 42.7286ZM176.698 38.4779L174.62 38.6058C174.585 38.4282 174.508 38.2684 174.391 38.1264C174.274 37.9808 174.12 37.8654 173.928 37.7801C173.74 37.6914 173.514 37.647 173.251 37.647C172.9 37.647 172.603 37.7215 172.362 37.8707C172.12 38.0163 171.999 38.2116 171.999 38.4566C171.999 38.6519 172.078 38.8171 172.234 38.952C172.39 39.087 172.658 39.1953 173.038 39.2769L174.519 39.5752C175.314 39.7386 175.907 40.0014 176.298 40.3636C176.689 40.7258 176.884 41.2017 176.884 41.7911C176.884 42.3274 176.726 42.7979 176.41 43.2027C176.097 43.6076 175.668 43.9236 175.121 44.1509C174.578 44.3746 173.951 44.4865 173.241 44.4865C172.157 44.4865 171.295 44.261 170.652 43.81C170.013 43.3554 169.638 42.7375 169.528 41.9563L171.76 41.8391C171.827 42.1693 171.991 42.4215 172.25 42.5955C172.509 42.7659 172.841 42.8512 173.246 42.8512C173.644 42.8512 173.963 42.7748 174.205 42.6221C174.45 42.4659 174.574 42.2652 174.578 42.0202C174.574 41.8142 174.487 41.6456 174.317 41.5142C174.146 41.3792 173.883 41.2762 173.528 41.2052L172.111 40.9229C171.312 40.7631 170.718 40.4861 170.327 40.0919C169.94 39.6978 169.746 39.1953 169.746 38.5845C169.746 38.0589 169.888 37.6061 170.172 37.2262C170.46 36.8462 170.863 36.5532 171.382 36.3473C171.904 36.1413 172.514 36.0383 173.214 36.0383C174.247 36.0383 175.061 36.2567 175.654 36.6935C176.25 37.1303 176.598 37.7251 176.698 38.4779Z" fill="black" fill-opacity="0.5"/>
<defs>
<linearGradient id="paint0_linear_167_85" x1="300" y1="0" x2="300" y2="400" gradientUnits="userSpaceOnUse">
<stop stop-color="#00356E"/>
<stop offset="1" stop-color="#00356E"/>
</linearGradient>
</defs>
</svg>
