<svg width="600" height="400" viewBox="0 0 600 400" fill="none" xmlns="http://www.w3.org/2000/svg">
<rect width="600" height="400" fill="url(#paint0_linear_167_78)"/>
<rect x="25" y="25" width="550" height="350" rx="5" fill="white"/>
<path d="M25 30C25 27.2386 27.2386 25 30 25H570C572.761 25 575 27.2386 575 30V54.8295H25V30Z" fill="white" stroke="black" stroke-linejoin="bevel"/>
<path d="M392 25H569.7C572.461 25 574.7 27.2386 574.7 30V55H392V25Z" fill="white" stroke="black" stroke-linejoin="bevel"/>
<path d="M417.475 36.9744C417.401 36.7151 417.296 36.4861 417.161 36.2872C417.026 36.0848 416.861 35.9144 416.666 35.7759C416.474 35.6338 416.254 35.5255 416.005 35.4509C415.76 35.3764 415.489 35.3391 415.19 35.3391C414.633 35.3391 414.143 35.4776 413.72 35.7545C413.301 36.0315 412.974 36.4346 412.74 36.9637C412.506 37.4893 412.388 38.132 412.388 38.892C412.388 39.6519 412.504 40.2982 412.735 40.8309C412.965 41.3636 413.292 41.7702 413.715 42.0507C414.137 42.3277 414.636 42.4662 415.212 42.4662C415.734 42.4662 416.179 42.3739 416.549 42.1892C416.921 42.001 417.206 41.7364 417.401 41.3955C417.6 41.0546 417.699 40.6516 417.699 40.1864L418.168 40.2556H415.355V38.5191H419.92V39.8934C419.92 40.8522 419.718 41.6761 419.313 42.365C418.908 43.0504 418.351 43.5795 417.641 43.9523C416.93 44.3217 416.117 44.5063 415.201 44.5063C414.178 44.5063 413.28 44.2808 412.506 43.8298C411.731 43.3753 411.128 42.7308 410.695 41.8962C410.265 41.0582 410.05 40.0639 410.05 38.9133C410.05 38.0291 410.178 37.2407 410.434 36.5482C410.693 35.8522 411.055 35.2627 411.52 34.7798C411.985 34.2968 412.527 33.9293 413.145 33.6771C413.763 33.425 414.432 33.2989 415.153 33.2989C415.771 33.2989 416.346 33.3895 416.879 33.5706C417.411 33.7482 417.884 34.0003 418.296 34.327C418.711 34.6537 419.05 35.0425 419.313 35.4935C419.576 35.941 419.745 36.4346 419.819 36.9744H417.475ZM425.339 44.517C424.497 44.517 423.773 44.3465 423.166 44.0056C422.562 43.6612 422.097 43.1746 421.77 42.5461C421.443 41.914 421.28 41.1665 421.28 40.3036C421.28 39.4619 421.443 38.7233 421.77 38.0876C422.097 37.452 422.557 36.9566 423.15 36.6015C423.746 36.2464 424.446 36.0688 425.248 36.0688C425.788 36.0688 426.291 36.1558 426.756 36.3298C427.225 36.5003 427.633 36.7577 427.981 37.1022C428.333 37.4467 428.606 37.8799 428.801 38.4019C428.997 38.9204 429.094 39.5276 429.094 40.2237V40.8469H422.186V39.4406H426.958C426.958 39.1139 426.887 38.8245 426.745 38.5724C426.603 38.3202 426.406 38.1232 426.154 37.9811C425.905 37.8355 425.616 37.7627 425.286 37.7627C424.941 37.7627 424.636 37.8426 424.369 38.0024C424.107 38.1587 423.901 38.37 423.752 38.6363C423.602 38.8991 423.526 39.192 423.523 39.5152V40.8522C423.523 41.257 423.597 41.6068 423.746 41.9016C423.899 42.1963 424.114 42.4236 424.391 42.5834C424.668 42.7432 424.996 42.8231 425.376 42.8231C425.628 42.8231 425.859 42.7876 426.069 42.7166C426.278 42.6455 426.458 42.539 426.607 42.397C426.756 42.2549 426.869 42.0809 426.948 41.8749L429.046 42.0134C428.94 42.5177 428.721 42.958 428.391 43.3345C428.064 43.7073 427.642 43.9985 427.123 44.208C426.608 44.414 426.014 44.517 425.339 44.517ZM430.575 44.3572V36.1754H432.775V37.6029H432.86C433.009 37.0951 433.26 36.7116 433.611 36.4523C433.963 36.1896 434.368 36.0582 434.826 36.0582C434.939 36.0582 435.062 36.0653 435.193 36.0795C435.325 36.0937 435.44 36.1132 435.54 36.1381V38.1516C435.433 38.1196 435.286 38.0912 435.097 38.0663C434.909 38.0415 434.737 38.0291 434.581 38.0291C434.247 38.0291 433.949 38.1019 433.686 38.2474C433.427 38.3895 433.221 38.5884 433.068 38.844C432.919 39.0997 432.844 39.3945 432.844 39.7283V44.3572H430.575ZM440.061 44.517C439.219 44.517 438.495 44.3465 437.887 44.0056C437.284 43.6612 436.818 43.1746 436.492 42.5461C436.165 41.914 436.002 41.1665 436.002 40.3036C436.002 39.4619 436.165 38.7233 436.492 38.0876C436.818 37.452 437.278 36.9566 437.871 36.6015C438.468 36.2464 439.168 36.0688 439.97 36.0688C440.51 36.0688 441.012 36.1558 441.478 36.3298C441.946 36.5003 442.355 36.7577 442.703 37.1022C443.054 37.4467 443.328 37.8799 443.523 38.4019C443.718 38.9204 443.816 39.5276 443.816 40.2237V40.8469H436.907V39.4406H441.68C441.68 39.1139 441.609 38.8245 441.467 38.5724C441.325 38.3202 441.128 38.1232 440.876 37.9811C440.627 37.8355 440.338 37.7627 440.007 37.7627C439.663 37.7627 439.358 37.8426 439.091 38.0024C438.828 38.1587 438.622 38.37 438.473 38.6363C438.324 38.8991 438.248 39.192 438.244 39.5152V40.8522C438.244 41.257 438.319 41.6068 438.468 41.9016C438.621 42.1963 438.835 42.4236 439.112 42.5834C439.389 42.7432 439.718 42.8231 440.098 42.8231C440.35 42.8231 440.581 42.7876 440.79 42.7166C441 42.6455 441.179 42.539 441.328 42.397C441.478 42.2549 441.591 42.0809 441.669 41.8749L443.768 42.0134C443.661 42.5177 443.443 42.958 443.113 43.3345C442.786 43.7073 442.364 43.9985 441.845 44.208C441.33 44.414 440.735 44.517 440.061 44.517ZM447.566 39.6271V44.3572H445.297V36.1754H447.459V37.6189H447.555C447.736 37.143 448.04 36.7666 448.466 36.4896C448.892 36.2091 449.409 36.0688 450.016 36.0688C450.584 36.0688 451.08 36.1931 451.502 36.4417C451.925 36.6903 452.253 37.0454 452.488 37.507C452.722 37.9651 452.839 38.512 452.839 39.1477V44.3572H450.57V39.5525C450.574 39.0518 450.446 38.6612 450.187 38.3806C449.927 38.0965 449.571 37.9545 449.116 37.9545C448.811 37.9545 448.541 38.0202 448.306 38.1516C448.076 38.283 447.894 38.4747 447.763 38.7269C447.635 38.9754 447.57 39.2755 447.566 39.6271ZM458.325 44.517C457.487 44.517 456.766 44.3394 456.162 43.9843C455.562 43.6256 455.1 43.1285 454.777 42.4928C454.457 41.8572 454.298 41.1256 454.298 40.2982C454.298 39.4602 454.459 38.7251 454.782 38.093C455.109 37.4573 455.572 36.9619 456.173 36.6068C456.773 36.2482 457.487 36.0688 458.314 36.0688C459.028 36.0688 459.653 36.1984 460.189 36.4577C460.725 36.7169 461.15 37.0809 461.462 37.5496C461.775 38.0184 461.947 38.5688 461.979 39.2009H459.837C459.777 38.7925 459.617 38.4641 459.358 38.2155C459.102 37.9634 458.767 37.8373 458.351 37.8373C458 37.8373 457.692 37.9332 457.43 38.1249C457.17 38.3131 456.968 38.5884 456.822 38.9506C456.677 39.3128 456.604 39.7514 456.604 40.2663C456.604 40.7883 456.675 41.2322 456.817 41.5979C456.963 41.9637 457.167 42.2425 457.43 42.4342C457.692 42.626 458 42.7219 458.351 42.7219C458.61 42.7219 458.843 42.6686 459.049 42.5621C459.259 42.4555 459.431 42.3011 459.566 42.0987C459.704 41.8927 459.795 41.6459 459.837 41.3582H461.979C461.943 41.9832 461.773 42.5337 461.467 43.0095C461.165 43.4818 460.748 43.8511 460.216 44.1175C459.683 44.3838 459.053 44.517 458.325 44.517ZM463.432 44.3572V36.1754H465.701V44.3572H463.432ZM464.571 35.1207C464.234 35.1207 463.945 35.0088 463.703 34.7851C463.465 34.5578 463.346 34.2862 463.346 33.9701C463.346 33.6576 463.465 33.3895 463.703 33.1658C463.945 32.9385 464.234 32.8249 464.571 32.8249C464.909 32.8249 465.196 32.9385 465.434 33.1658C465.676 33.3895 465.797 33.6576 465.797 33.9701C465.797 34.2862 465.676 34.5578 465.434 34.7851C465.196 35.0088 464.909 35.1207 464.571 35.1207ZM469.852 44.5117C469.33 44.5117 468.864 44.4211 468.456 44.24C468.048 44.0553 467.724 43.7837 467.487 43.425C467.252 43.0628 467.135 42.6118 467.135 42.072C467.135 41.6175 467.218 41.2357 467.385 40.9268C467.552 40.6178 467.779 40.3693 468.067 40.181C468.355 39.9928 468.681 39.8508 469.047 39.7549C469.417 39.659 469.804 39.5916 470.208 39.5525C470.684 39.5028 471.068 39.4566 471.359 39.414C471.65 39.3678 471.862 39.3004 471.993 39.2116C472.124 39.1228 472.19 38.9914 472.19 38.8174V38.7854C472.19 38.4481 472.083 38.1871 471.87 38.0024C471.661 37.8178 471.363 37.7254 470.976 37.7254C470.567 37.7254 470.242 37.816 470.001 37.9971C469.759 38.1746 469.599 38.3984 469.521 38.6683L467.423 38.4978C467.529 38.0006 467.739 37.571 468.051 37.2087C468.364 36.843 468.767 36.5624 469.26 36.3671C469.757 36.1683 470.333 36.0688 470.986 36.0688C471.441 36.0688 471.876 36.1221 472.291 36.2286C472.71 36.3352 473.081 36.5003 473.404 36.724C473.731 36.9477 473.989 37.2354 474.177 37.5869C474.365 37.9349 474.459 38.3522 474.459 38.8387V44.3572H472.307V43.2226H472.243C472.112 43.4783 471.936 43.7038 471.716 43.8991C471.496 44.0908 471.231 44.2418 470.922 44.3519C470.613 44.4584 470.256 44.5117 469.852 44.5117ZM470.501 42.9456C470.835 42.9456 471.13 42.8799 471.386 42.7485C471.641 42.6136 471.842 42.4325 471.988 42.2052C472.133 41.9779 472.206 41.7205 472.206 41.4328V40.5646C472.135 40.6107 472.037 40.6533 471.913 40.6924C471.792 40.7279 471.656 40.7617 471.503 40.7936C471.35 40.822 471.197 40.8487 471.045 40.8735C470.892 40.8948 470.754 40.9144 470.629 40.9321C470.363 40.9712 470.13 41.0333 469.931 41.1185C469.733 41.2038 469.578 41.3192 469.468 41.4648C469.358 41.6068 469.303 41.7844 469.303 41.9974C469.303 42.3064 469.415 42.5425 469.638 42.7059C469.866 42.8657 470.153 42.9456 470.501 42.9456ZM476.22 44.3572V36.1754H478.42V37.6029H478.505C478.654 37.0951 478.904 36.7116 479.256 36.4523C479.607 36.1896 480.012 36.0582 480.47 36.0582C480.584 36.0582 480.707 36.0653 480.838 36.0795C480.969 36.0937 481.085 36.1132 481.184 36.1381V38.1516C481.078 38.1196 480.93 38.0912 480.742 38.0663C480.554 38.0415 480.382 38.0291 480.225 38.0291C479.892 38.0291 479.593 38.1019 479.33 38.2474C479.071 38.3895 478.865 38.5884 478.713 38.844C478.563 39.0997 478.489 39.3945 478.489 39.7283V44.3572H476.22ZM485.829 47.4254V36.1754H488.066V37.5496H488.167C488.267 37.3295 488.411 37.1058 488.599 36.8785C488.791 36.6477 489.039 36.4559 489.345 36.3032C489.654 36.147 490.037 36.0688 490.495 36.0688C491.092 36.0688 491.642 36.2251 492.146 36.5376C492.651 36.8465 493.054 37.3135 493.356 37.9385C493.657 38.5599 493.808 39.3394 493.808 40.2769C493.808 41.1896 493.661 41.9602 493.366 42.5887C493.075 43.2137 492.677 43.6878 492.173 44.0109C491.672 44.3305 491.111 44.4903 490.49 44.4903C490.05 44.4903 489.675 44.4175 489.366 44.272C489.061 44.1264 488.81 43.9435 488.615 43.7233C488.42 43.4996 488.27 43.2741 488.167 43.0468H488.098V47.4254H485.829ZM488.05 40.2663C488.05 40.7528 488.118 41.1771 488.253 41.5394C488.388 41.9016 488.583 42.1839 488.839 42.3863C489.094 42.5852 489.405 42.6846 489.771 42.6846C490.14 42.6846 490.453 42.5834 490.708 42.381C490.964 42.175 491.157 41.8909 491.289 41.5287C491.424 41.1629 491.491 40.7421 491.491 40.2663C491.491 39.794 491.426 39.3785 491.294 39.0198C491.163 38.6612 490.969 38.3806 490.714 38.1782C490.458 37.9758 490.144 37.8746 489.771 37.8746C489.401 37.8746 489.089 37.9722 488.833 38.1675C488.581 38.3629 488.388 38.6398 488.253 38.9985C488.118 39.3572 488.05 39.7798 488.05 40.2663ZM497.654 44.5117C497.132 44.5117 496.667 44.4211 496.259 44.24C495.85 44.0553 495.527 43.7837 495.289 43.425C495.055 43.0628 494.938 42.6118 494.938 42.072C494.938 41.6175 495.021 41.2357 495.188 40.9268C495.355 40.6178 495.582 40.3693 495.87 40.181C496.157 39.9928 496.484 39.8508 496.85 39.7549C497.219 39.659 497.606 39.5916 498.011 39.5525C498.487 39.5028 498.871 39.4566 499.162 39.414C499.453 39.3678 499.664 39.3004 499.796 39.2116C499.927 39.1228 499.993 38.9914 499.993 38.8174V38.7854C499.993 38.4481 499.886 38.1871 499.673 38.0024C499.464 37.8178 499.165 37.7254 498.778 37.7254C498.37 37.7254 498.045 37.816 497.803 37.9971C497.562 38.1746 497.402 38.3984 497.324 38.6683L495.225 38.4978C495.332 38.0006 495.541 37.571 495.854 37.2087C496.166 36.843 496.569 36.5624 497.063 36.3671C497.56 36.1683 498.135 36.0688 498.789 36.0688C499.243 36.0688 499.678 36.1221 500.094 36.2286C500.513 36.3352 500.884 36.5003 501.207 36.724C501.534 36.9477 501.791 37.2354 501.98 37.5869C502.168 37.9349 502.262 38.3522 502.262 38.8387V44.3572H500.11V43.2226H500.046C499.915 43.4783 499.739 43.7038 499.519 43.8991C499.298 44.0908 499.034 44.2418 498.725 44.3519C498.416 44.4584 498.059 44.5117 497.654 44.5117ZM498.304 42.9456C498.638 42.9456 498.933 42.8799 499.188 42.7485C499.444 42.6136 499.645 42.4325 499.79 42.2052C499.936 41.9779 500.009 41.7205 500.009 41.4328V40.5646C499.938 40.6107 499.84 40.6533 499.716 40.6924C499.595 40.7279 499.458 40.7617 499.306 40.7936C499.153 40.822 499 40.8487 498.847 40.8735C498.695 40.8948 498.556 40.9144 498.432 40.9321C498.166 40.9712 497.933 41.0333 497.734 41.1185C497.535 41.2038 497.381 41.3192 497.271 41.4648C497.161 41.6068 497.106 41.7844 497.106 41.9974C497.106 42.3064 497.218 42.5425 497.441 42.7059C497.669 42.8657 497.956 42.9456 498.304 42.9456ZM507.719 44.517C506.881 44.517 506.16 44.3394 505.556 43.9843C504.956 43.6256 504.495 43.1285 504.172 42.4928C503.852 41.8572 503.692 41.1256 503.692 40.2982C503.692 39.4602 503.854 38.7251 504.177 38.093C504.504 37.4573 504.967 36.9619 505.567 36.6068C506.167 36.2482 506.881 36.0688 507.708 36.0688C508.422 36.0688 509.047 36.1984 509.583 36.4577C510.12 36.7169 510.544 37.0809 510.857 37.5496C511.169 38.0184 511.341 38.5688 511.373 39.2009H509.232C509.172 38.7925 509.012 38.4641 508.752 38.2155C508.497 37.9634 508.161 37.8373 507.746 37.8373C507.394 37.8373 507.087 37.9332 506.824 38.1249C506.565 38.3131 506.363 38.5884 506.217 38.9506C506.071 39.3128 505.999 39.7514 505.999 40.2663C505.999 40.7883 506.07 41.2322 506.212 41.5979C506.357 41.9637 506.561 42.2425 506.824 42.4342C507.087 42.626 507.394 42.7219 507.746 42.7219C508.005 42.7219 508.238 42.6686 508.444 42.5621C508.653 42.4555 508.825 42.3011 508.96 42.0987C509.099 41.8927 509.189 41.6459 509.232 41.3582H511.373C511.338 41.9832 511.167 42.5337 510.862 43.0095C510.56 43.4818 510.143 43.8511 509.61 44.1175C509.077 44.3838 508.447 44.517 507.719 44.517ZM512.826 44.3572V36.1754H515.095V44.3572H512.826ZM513.966 35.1207C513.629 35.1207 513.339 35.0088 513.098 34.7851C512.86 34.5578 512.741 34.2862 512.741 33.9701C512.741 33.6576 512.86 33.3895 513.098 33.1658C513.339 32.9385 513.629 32.8249 513.966 32.8249C514.303 32.8249 514.591 32.9385 514.829 33.1658C515.07 33.3895 515.191 33.6576 515.191 33.9701C515.191 34.2862 515.07 34.5578 514.829 34.7851C514.591 35.0088 514.303 35.1207 513.966 35.1207ZM520.642 44.517C519.8 44.517 519.076 44.3465 518.468 44.0056C517.865 43.6612 517.4 43.1746 517.073 42.5461C516.746 41.914 516.583 41.1665 516.583 40.3036C516.583 39.4619 516.746 38.7233 517.073 38.0876C517.4 37.452 517.859 36.9566 518.452 36.6015C519.049 36.2464 519.749 36.0688 520.551 36.0688C521.091 36.0688 521.593 36.1558 522.059 36.3298C522.527 36.5003 522.936 36.7577 523.284 37.1022C523.635 37.4467 523.909 37.8799 524.104 38.4019C524.299 38.9204 524.397 39.5276 524.397 40.2237V40.8469H517.488V39.4406H522.261C522.261 39.1139 522.19 38.8245 522.048 38.5724C521.906 38.3202 521.709 38.1232 521.457 37.9811C521.208 37.8355 520.919 37.7627 520.588 37.7627C520.244 37.7627 519.939 37.8426 519.672 38.0024C519.409 38.1587 519.203 38.37 519.054 38.6363C518.905 38.8991 518.829 39.192 518.825 39.5152V40.8522C518.825 41.257 518.9 41.6068 519.049 41.9016C519.202 42.1963 519.417 42.4236 519.694 42.5834C519.971 42.7432 520.299 42.8231 520.679 42.8231C520.931 42.8231 521.162 42.7876 521.371 42.7166C521.581 42.6455 521.76 42.539 521.909 42.397C522.059 42.2549 522.172 42.0809 522.25 41.8749L524.349 42.0134C524.243 42.5177 524.024 42.958 523.694 43.3345C523.367 43.7073 522.945 43.9985 522.426 44.208C521.911 44.414 521.316 44.517 520.642 44.517ZM528.147 39.6271V44.3572H525.878V36.1754H528.04V37.6189H528.136C528.317 37.143 528.621 36.7666 529.047 36.4896C529.473 36.2091 529.99 36.0688 530.597 36.0688C531.165 36.0688 531.661 36.1931 532.083 36.4417C532.506 36.6903 532.835 37.0454 533.069 37.507C533.303 37.9651 533.42 38.512 533.42 39.1477V44.3572H531.151V39.5525C531.155 39.0518 531.027 38.6612 530.768 38.3806C530.509 38.0965 530.152 37.9545 529.697 37.9545C529.392 37.9545 529.122 38.0202 528.887 38.1516C528.657 38.283 528.476 38.4747 528.344 38.7269C528.216 38.9754 528.151 39.2755 528.147 39.6271ZM539.561 36.1754V37.8799H534.634V36.1754H539.561ZM535.752 34.2151H538.021V41.843C538.021 42.0525 538.053 42.2158 538.117 42.333C538.181 42.4467 538.27 42.5266 538.384 42.5727C538.501 42.6189 538.636 42.642 538.788 42.642C538.895 42.642 539.002 42.6331 539.108 42.6153C539.215 42.594 539.296 42.5781 539.353 42.5674L539.71 44.256C539.596 44.2915 539.437 44.3323 539.231 44.3785C539.025 44.4282 538.774 44.4584 538.479 44.469C537.933 44.4903 537.453 44.4175 537.041 44.2506C536.633 44.0837 536.315 43.8245 536.088 43.4729C535.861 43.1214 535.749 42.6775 535.752 42.1413V34.2151ZM544.68 44.517C543.838 44.517 543.114 44.3465 542.506 44.0056C541.903 43.6612 541.438 43.1746 541.111 42.5461C540.784 41.914 540.621 41.1665 540.621 40.3036C540.621 39.4619 540.784 38.7233 541.111 38.0876C541.438 37.452 541.897 36.9566 542.491 36.6015C543.087 36.2464 543.787 36.0688 544.589 36.0688C545.129 36.0688 545.631 36.1558 546.097 36.3298C546.565 36.5003 546.974 36.7577 547.322 37.1022C547.673 37.4467 547.947 37.8799 548.142 38.4019C548.337 38.9204 548.435 39.5276 548.435 40.2237V40.8469H541.526V39.4406H546.299C546.299 39.1139 546.228 38.8245 546.086 38.5724C545.944 38.3202 545.747 38.1232 545.495 37.9811C545.246 37.8355 544.957 37.7627 544.627 37.7627C544.282 37.7627 543.977 37.8426 543.71 38.0024C543.448 38.1587 543.242 38.37 543.092 38.6363C542.943 38.8991 542.867 39.192 542.863 39.5152V40.8522C542.863 41.257 542.938 41.6068 543.087 41.9016C543.24 42.1963 543.455 42.4236 543.732 42.5834C544.009 42.7432 544.337 42.8231 544.717 42.8231C544.969 42.8231 545.2 42.7876 545.41 42.7166C545.619 42.6455 545.798 42.539 545.948 42.397C546.097 42.2549 546.21 42.0809 546.288 41.8749L548.387 42.0134C548.281 42.5177 548.062 42.958 547.732 43.3345C547.405 43.7073 546.983 43.9985 546.464 44.208C545.949 44.414 545.354 44.517 544.68 44.517ZM556.723 38.5085L554.646 38.6363C554.611 38.4587 554.534 38.2989 554.417 38.1569C554.3 38.0113 554.145 37.8959 553.954 37.8107C553.765 37.7219 553.54 37.6775 553.277 37.6775C552.926 37.6775 552.629 37.7521 552.388 37.9012C552.146 38.0468 552.025 38.2421 552.025 38.4871C552.025 38.6825 552.103 38.8476 552.26 38.9825C552.416 39.1175 552.684 39.2258 553.064 39.3075L554.545 39.6058C555.34 39.7691 555.933 40.0319 556.324 40.3941C556.715 40.7563 556.91 41.2322 556.91 41.8217C556.91 42.3579 556.752 42.8284 556.436 43.2332C556.123 43.6381 555.694 43.9541 555.147 44.1814C554.603 44.4051 553.977 44.517 553.266 44.517C552.183 44.517 551.32 44.2915 550.678 43.8405C550.038 43.3859 549.664 42.768 549.554 41.9868L551.786 41.8696C551.853 42.1999 552.016 42.452 552.276 42.626C552.535 42.7965 552.867 42.8817 553.272 42.8817C553.669 42.8817 553.989 42.8053 554.231 42.6526C554.476 42.4964 554.6 42.2957 554.603 42.0507C554.6 41.8447 554.513 41.6761 554.342 41.5447C554.172 41.4097 553.909 41.3068 553.554 41.2357L552.137 40.9534C551.338 40.7936 550.743 40.5166 550.353 40.1224C549.966 39.7283 549.772 39.2258 549.772 38.615C549.772 38.0894 549.914 37.6367 550.198 37.2567C550.486 36.8767 550.889 36.5837 551.407 36.3778C551.929 36.1718 552.54 36.0688 553.24 36.0688C554.273 36.0688 555.086 36.2872 555.679 36.724C556.276 37.1608 556.624 37.7556 556.723 38.5085Z" fill="black" fill-opacity="0.5"/>
<path d="M209 25H391.7V55H209V25Z" fill="white" stroke="black" stroke-linejoin="bevel"/>
<path d="M254.518 44.3572V33.4481H261.868V35.3497H256.824V37.9492H261.49V39.8508H256.824V42.4555H261.89V44.3572H254.518ZM263.66 44.3572V36.1754H265.822V37.6189H265.918C266.089 37.1395 266.373 36.7613 266.77 36.4843C267.168 36.2073 267.644 36.0688 268.198 36.0688C268.759 36.0688 269.237 36.2091 269.631 36.4896C270.025 36.7666 270.288 37.143 270.419 37.6189H270.504C270.671 37.1501 270.973 36.7755 271.41 36.495C271.85 36.2109 272.371 36.0688 272.971 36.0688C273.734 36.0688 274.354 36.3121 274.83 36.7986C275.309 37.2815 275.549 37.9669 275.549 38.8547V44.3572H273.285V39.3021C273.285 38.8476 273.164 38.5067 272.923 38.2794C272.681 38.0521 272.379 37.9385 272.017 37.9385C271.605 37.9385 271.284 38.0699 271.053 38.3327C270.822 38.5919 270.707 38.9346 270.707 39.3607V44.3572H268.507V39.2542C268.507 38.8529 268.391 38.5333 268.161 38.2954C267.933 38.0575 267.633 37.9385 267.26 37.9385C267.008 37.9385 266.781 38.0024 266.579 38.1303C266.38 38.2545 266.222 38.4303 266.105 38.6576C265.987 38.8813 265.929 39.1441 265.929 39.446V44.3572H263.66ZM277.341 44.3572V36.1754H279.61V44.3572H277.341ZM278.481 35.1207C278.144 35.1207 277.854 35.0088 277.613 34.7851C277.375 34.5578 277.256 34.2862 277.256 33.9701C277.256 33.6576 277.375 33.3895 277.613 33.1658C277.854 32.9385 278.144 32.8249 278.481 32.8249C278.818 32.8249 279.106 32.9385 279.344 33.1658C279.586 33.3895 279.706 33.6576 279.706 33.9701C279.706 34.2862 279.586 34.5578 279.344 34.7851C279.106 35.0088 278.818 35.1207 278.481 35.1207ZM285.78 36.1754V37.8799H280.853V36.1754H285.78ZM281.971 34.2151H284.241V41.843C284.241 42.0525 284.273 42.2158 284.337 42.333C284.4 42.4467 284.489 42.5266 284.603 42.5727C284.72 42.6189 284.855 42.642 285.008 42.642C285.114 42.642 285.221 42.6331 285.327 42.6153C285.434 42.594 285.515 42.5781 285.572 42.5674L285.929 44.256C285.816 44.2915 285.656 44.3323 285.45 44.3785C285.244 44.4282 284.993 44.4584 284.699 44.469C284.152 44.4903 283.672 44.4175 283.261 44.2506C282.852 44.0837 282.534 43.8245 282.307 43.4729C282.08 43.1214 281.968 42.6775 281.971 42.1413V34.2151ZM287.258 44.3572V36.1754H289.527V44.3572H287.258ZM288.398 35.1207C288.061 35.1207 287.771 35.0088 287.53 34.7851C287.292 34.5578 287.173 34.2862 287.173 33.9701C287.173 33.6576 287.292 33.3895 287.53 33.1658C287.771 32.9385 288.061 32.8249 288.398 32.8249C288.735 32.8249 289.023 32.9385 289.261 33.1658C289.503 33.3895 289.623 33.6576 289.623 33.9701C289.623 34.2862 289.503 34.5578 289.261 34.7851C289.023 35.0088 288.735 35.1207 288.398 35.1207ZM291.345 44.3572V36.1754H293.545V37.6029H293.63C293.779 37.0951 294.03 36.7116 294.381 36.4523C294.733 36.1896 295.138 36.0582 295.596 36.0582C295.709 36.0582 295.832 36.0653 295.963 36.0795C296.095 36.0937 296.21 36.1132 296.31 36.1381V38.1516C296.203 38.1196 296.056 38.0912 295.868 38.0663C295.679 38.0415 295.507 38.0291 295.351 38.0291C295.017 38.0291 294.719 38.1019 294.456 38.2474C294.197 38.3895 293.991 38.5884 293.838 38.844C293.689 39.0997 293.614 39.3945 293.614 39.7283V44.3572H291.345ZM300.955 44.3572V36.1754H303.154V37.6029H303.24C303.389 37.0951 303.639 36.7116 303.991 36.4523C304.342 36.1896 304.747 36.0582 305.205 36.0582C305.319 36.0582 305.441 36.0653 305.573 36.0795C305.704 36.0937 305.82 36.1132 305.919 36.1381V38.1516C305.812 38.1196 305.665 38.0912 305.477 38.0663C305.289 38.0415 305.116 38.0291 304.96 38.0291C304.626 38.0291 304.328 38.1019 304.065 38.2474C303.806 38.3895 303.6 38.5884 303.447 38.844C303.298 39.0997 303.224 39.3945 303.224 39.7283V44.3572H300.955ZM310.44 44.517C309.598 44.517 308.874 44.3465 308.267 44.0056C307.663 43.6612 307.198 43.1746 306.871 42.5461C306.544 41.914 306.381 41.1665 306.381 40.3036C306.381 39.4619 306.544 38.7233 306.871 38.0876C307.198 37.452 307.658 36.9566 308.251 36.6015C308.847 36.2464 309.547 36.0688 310.349 36.0688C310.889 36.0688 311.392 36.1558 311.857 36.3298C312.326 36.5003 312.734 36.7577 313.082 37.1022C313.434 37.4467 313.707 37.8799 313.902 38.4019C314.098 38.9204 314.195 39.5276 314.195 40.2237V40.8469H307.287V39.4406H312.059C312.059 39.1139 311.988 38.8245 311.846 38.5724C311.704 38.3202 311.507 38.1232 311.255 37.9811C311.006 37.8355 310.717 37.7627 310.387 37.7627C310.042 37.7627 309.737 37.8426 309.471 38.0024C309.208 38.1587 309.002 38.37 308.853 38.6363C308.704 38.8991 308.627 39.192 308.624 39.5152V40.8522C308.624 41.257 308.698 41.6068 308.847 41.9016C309 42.1963 309.215 42.4236 309.492 42.5834C309.769 42.7432 310.097 42.8231 310.477 42.8231C310.729 42.8231 310.96 42.7876 311.17 42.7166C311.379 42.6455 311.559 42.539 311.708 42.397C311.857 42.2549 311.971 42.0809 312.049 41.8749L314.147 42.0134C314.041 42.5177 313.822 42.958 313.492 43.3345C313.166 43.7073 312.743 43.9985 312.224 44.208C311.71 44.414 311.115 44.517 310.44 44.517ZM319.373 44.517C318.535 44.517 317.814 44.3394 317.21 43.9843C316.61 43.6256 316.148 43.1285 315.825 42.4928C315.506 41.8572 315.346 41.1256 315.346 40.2982C315.346 39.4602 315.508 38.7251 315.831 38.093C316.157 37.4573 316.621 36.9619 317.221 36.6068C317.821 36.2482 318.535 36.0688 319.362 36.0688C320.076 36.0688 320.701 36.1984 321.237 36.4577C321.773 36.7169 322.198 37.0809 322.51 37.5496C322.823 38.0184 322.995 38.5688 323.027 39.2009H320.886C320.825 38.7925 320.666 38.4641 320.406 38.2155C320.151 37.9634 319.815 37.8373 319.4 37.8373C319.048 37.8373 318.741 37.9332 318.478 38.1249C318.219 38.3131 318.016 38.5884 317.871 38.9506C317.725 39.3128 317.652 39.7514 317.652 40.2663C317.652 40.7883 317.723 41.2322 317.865 41.5979C318.011 41.9637 318.215 42.2425 318.478 42.4342C318.741 42.626 319.048 42.7219 319.4 42.7219C319.659 42.7219 319.891 42.6686 320.097 42.5621C320.307 42.4555 320.479 42.3011 320.614 42.0987C320.753 41.8927 320.843 41.6459 320.886 41.3582H323.027C322.992 41.9832 322.821 42.5337 322.516 43.0095C322.214 43.4818 321.797 43.8511 321.264 44.1175C320.731 44.3838 320.101 44.517 319.373 44.517ZM328.209 44.517C327.367 44.517 326.643 44.3465 326.035 44.0056C325.432 43.6612 324.966 43.1746 324.64 42.5461C324.313 41.914 324.15 41.1665 324.15 40.3036C324.15 39.4619 324.313 38.7233 324.64 38.0876C324.966 37.452 325.426 36.9566 326.019 36.6015C326.616 36.2464 327.315 36.0688 328.118 36.0688C328.658 36.0688 329.16 36.1558 329.625 36.3298C330.094 36.5003 330.503 36.7577 330.851 37.1022C331.202 37.4467 331.476 37.8799 331.671 38.4019C331.866 38.9204 331.964 39.5276 331.964 40.2237V40.8469H325.055V39.4406H329.828C329.828 39.1139 329.757 38.8245 329.615 38.5724C329.473 38.3202 329.276 38.1232 329.024 37.9811C328.775 37.8355 328.486 37.7627 328.155 37.7627C327.811 37.7627 327.505 37.8426 327.239 38.0024C326.976 38.1587 326.77 38.37 326.621 38.6363C326.472 38.8991 326.396 39.192 326.392 39.5152V40.8522C326.392 41.257 326.467 41.6068 326.616 41.9016C326.769 42.1963 326.983 42.4236 327.26 42.5834C327.537 42.7432 327.866 42.8231 328.246 42.8231C328.498 42.8231 328.729 42.7876 328.938 42.7166C329.148 42.6455 329.327 42.539 329.476 42.397C329.625 42.2549 329.739 42.0809 329.817 41.8749L331.916 42.0134C331.809 42.5177 331.591 42.958 331.261 43.3345C330.934 43.7073 330.512 43.9985 329.993 44.208C329.478 44.414 328.883 44.517 328.209 44.517ZM333.445 44.3572V36.1754H335.714V44.3572H333.445ZM334.585 35.1207C334.247 35.1207 333.958 35.0088 333.716 34.7851C333.478 34.5578 333.36 34.2862 333.36 33.9701C333.36 33.6576 333.478 33.3895 333.716 33.1658C333.958 32.9385 334.247 32.8249 334.585 32.8249C334.922 32.8249 335.21 32.9385 335.448 33.1658C335.689 33.3895 335.81 33.6576 335.81 33.9701C335.81 34.2862 335.689 34.5578 335.448 34.7851C335.21 35.0088 334.922 35.1207 334.585 35.1207ZM341.884 36.1754V37.8799H336.956V36.1754H341.884ZM338.075 34.2151H340.344V41.843C340.344 42.0525 340.376 42.2158 340.44 42.333C340.504 42.4467 340.593 42.5266 340.706 42.5727C340.824 42.6189 340.959 42.642 341.111 42.642C341.218 42.642 341.324 42.6331 341.431 42.6153C341.537 42.594 341.619 42.5781 341.676 42.5674L342.033 44.256C341.919 44.2915 341.759 44.3323 341.553 44.3785C341.347 44.4282 341.097 44.4584 340.802 44.469C340.255 44.4903 339.776 44.4175 339.364 44.2506C338.956 44.0837 338.638 43.8245 338.411 43.4729C338.183 43.1214 338.071 42.6775 338.075 42.1413V34.2151ZM345.695 44.5117C345.173 44.5117 344.708 44.4211 344.299 44.24C343.891 44.0553 343.568 43.7837 343.33 43.425C343.095 43.0628 342.978 42.6118 342.978 42.072C342.978 41.6175 343.062 41.2357 343.229 40.9268C343.395 40.6178 343.623 40.3693 343.91 40.181C344.198 39.9928 344.525 39.8508 344.89 39.7549C345.26 39.659 345.647 39.5916 346.052 39.5525C346.528 39.5028 346.911 39.4566 347.202 39.414C347.493 39.3678 347.705 39.3004 347.836 39.2116C347.968 39.1228 348.033 38.9914 348.033 38.8174V38.7854C348.033 38.4481 347.927 38.1871 347.714 38.0024C347.504 37.8178 347.206 37.7254 346.819 37.7254C346.41 37.7254 346.085 37.816 345.844 37.9971C345.602 38.1746 345.443 38.3984 345.365 38.6683L343.266 38.4978C343.372 38.0006 343.582 37.571 343.894 37.2087C344.207 36.843 344.61 36.5624 345.104 36.3671C345.601 36.1683 346.176 36.0688 346.829 36.0688C347.284 36.0688 347.719 36.1221 348.134 36.2286C348.553 36.3352 348.925 36.5003 349.248 36.724C349.574 36.9477 349.832 37.2354 350.02 37.5869C350.208 37.9349 350.302 38.3522 350.302 38.8387V44.3572H348.15V43.2226H348.087C347.955 43.4783 347.779 43.7038 347.559 43.8991C347.339 44.0908 347.074 44.2418 346.765 44.3519C346.457 44.4584 346.1 44.5117 345.695 44.5117ZM346.345 42.9456C346.678 42.9456 346.973 42.8799 347.229 42.7485C347.485 42.6136 347.685 42.4325 347.831 42.2052C347.976 41.9779 348.049 41.7205 348.049 41.4328V40.5646C347.978 40.6107 347.881 40.6533 347.756 40.6924C347.636 40.7279 347.499 40.7617 347.346 40.7936C347.193 40.822 347.041 40.8487 346.888 40.8735C346.735 40.8948 346.597 40.9144 346.473 40.9321C346.206 40.9712 345.974 41.0333 345.775 41.1185C345.576 41.2038 345.421 41.3192 345.311 41.4648C345.201 41.6068 345.146 41.7844 345.146 41.9974C345.146 42.3064 345.258 42.5425 345.482 42.7059C345.709 42.8657 345.997 42.9456 346.345 42.9456Z" fill="black" fill-opacity="0.5"/>
<path d="M25 30C25 27.2386 27.2386 25 30 25H208.7V54.8295H25V30Z" fill="white" stroke="black" stroke-linejoin="bevel"/>
<path d="M68.991 33.4176L71.6277 41.7059H71.7289L74.371 33.4176H76.9278L73.1671 44.3267H70.1948L66.4288 33.4176H68.991ZM81.004 44.4865C80.1624 44.4865 79.438 44.316 78.8307 43.9751C78.227 43.6306 77.7618 43.1441 77.4351 42.5156C77.1084 41.8835 76.9451 41.136 76.9451 40.273C76.9451 39.4314 77.1084 38.6928 77.4351 38.0571C77.7618 37.4215 78.2217 36.9261 78.8148 36.571C79.4114 36.2159 80.1109 36.0383 80.9135 36.0383C81.4533 36.0383 81.9557 36.1253 82.4209 36.2993C82.8897 36.4698 83.2981 36.7272 83.6461 37.0717C83.9976 37.4161 84.2711 37.8494 84.4664 38.3714C84.6617 38.8899 84.7594 39.4971 84.7594 40.1931V40.8164H77.8506V39.4101H82.6234C82.6234 39.0834 82.5523 38.794 82.4103 38.5419C82.2682 38.2897 82.0712 38.0926 81.819 37.9506C81.5704 37.805 81.281 37.7322 80.9508 37.7322C80.6063 37.7322 80.3009 37.8121 80.0346 37.9719C79.7718 38.1282 79.5658 38.3394 79.4167 38.6058C79.2675 38.8686 79.1912 39.1615 79.1876 39.4847V40.8217C79.1876 41.2265 79.2622 41.5763 79.4114 41.871C79.5641 42.1658 79.7789 42.3931 80.0559 42.5529C80.3329 42.7127 80.6614 42.7926 81.0413 42.7926C81.2935 42.7926 81.5243 42.7571 81.7338 42.686C81.9433 42.615 82.1226 42.5085 82.2718 42.3664C82.4209 42.2244 82.5346 42.0504 82.6127 41.8444L84.7114 41.9829C84.6049 42.4872 84.3865 42.9275 84.0562 43.3039C83.7295 43.6768 83.3069 43.968 82.7885 44.1775C82.2736 44.3835 81.6788 44.4865 81.004 44.4865ZM86.2402 44.3267V36.1448H88.4401V37.5724H88.5253C88.6745 37.0646 88.9248 36.6811 89.2764 36.4218C89.628 36.159 90.0328 36.0277 90.4909 36.0277C90.6045 36.0277 90.727 36.0348 90.8584 36.049C90.9898 36.0632 91.1052 36.0827 91.2047 36.1076V38.121C91.0981 38.0891 90.9508 38.0607 90.7626 38.0358C90.5743 38.011 90.4021 37.9985 90.2459 37.9985C89.9121 37.9985 89.6138 38.0713 89.351 38.2169C89.0918 38.359 88.8858 38.5578 88.7331 38.8135C88.5839 39.0692 88.5094 39.3639 88.5094 39.6978V44.3267H86.2402ZM95.8496 47.3948V36.1448H98.0868V37.5191H98.188C98.2874 37.299 98.4312 37.0752 98.6194 36.848C98.8112 36.6171 99.0598 36.4254 99.3652 36.2727C99.6741 36.1164 100.058 36.0383 100.516 36.0383C101.112 36.0383 101.663 36.1946 102.167 36.5071C102.671 36.816 103.074 37.283 103.376 37.908C103.678 38.5294 103.829 39.3089 103.829 40.2464C103.829 41.159 103.682 41.9296 103.387 42.5582C103.096 43.1832 102.698 43.6573 102.194 43.9804C101.693 44.3 101.132 44.4598 100.51 44.4598C100.07 44.4598 99.6954 44.387 99.3865 44.2414C99.0811 44.0958 98.8307 43.913 98.6354 43.6928C98.4401 43.4691 98.291 43.2436 98.188 43.0163H98.1187V47.3948H95.8496ZM98.0708 40.2358C98.0708 40.7223 98.1383 41.1466 98.2732 41.5088C98.4082 41.871 98.6035 42.1534 98.8592 42.3558C99.1148 42.5546 99.4256 42.6541 99.7913 42.6541C100.161 42.6541 100.473 42.5529 100.729 42.3505C100.985 42.1445 101.178 41.8604 101.309 41.4982C101.444 41.1324 101.512 40.7116 101.512 40.2358C101.512 39.7634 101.446 39.348 101.315 38.9893C101.183 38.6306 100.99 38.3501 100.734 38.1477C100.478 37.9453 100.164 37.8441 99.7913 37.8441C99.422 37.8441 99.1095 37.9417 98.8538 38.137C98.6017 38.3323 98.4082 38.6093 98.2732 38.968C98.1383 39.3267 98.0708 39.7492 98.0708 40.2358ZM107.675 44.4811C107.153 44.4811 106.688 44.3906 106.279 44.2095C105.871 44.0248 105.548 43.7532 105.31 43.3945C105.075 43.0323 104.958 42.5813 104.958 42.0415C104.958 41.587 105.042 41.2052 105.209 40.8963C105.375 40.5873 105.603 40.3387 105.89 40.1505C106.178 39.9623 106.505 39.8203 106.871 39.7244C107.24 39.6285 107.627 39.561 108.032 39.522C108.508 39.4723 108.891 39.4261 109.182 39.3835C109.473 39.3373 109.685 39.2698 109.816 39.1811C109.948 39.0923 110.013 38.9609 110.013 38.7869V38.7549C110.013 38.4176 109.907 38.1566 109.694 37.9719C109.484 37.7872 109.186 37.6949 108.799 37.6949C108.39 37.6949 108.065 37.7855 107.824 37.9666C107.583 38.1441 107.423 38.3679 107.345 38.6377L105.246 38.4673C105.352 37.9701 105.562 37.5404 105.874 37.1782C106.187 36.8125 106.59 36.5319 107.084 36.3366C107.581 36.1377 108.156 36.0383 108.809 36.0383C109.264 36.0383 109.699 36.0916 110.114 36.1981C110.534 36.3046 110.905 36.4698 111.228 36.6935C111.554 36.9172 111.812 37.2049 112 37.5564C112.188 37.9044 112.282 38.3217 112.282 38.8082V44.3267H110.13V43.1921H110.067C109.935 43.4478 109.759 43.6733 109.539 43.8686C109.319 44.0603 109.054 44.2112 108.746 44.3213C108.437 44.4279 108.08 44.4811 107.675 44.4811ZM108.325 42.9151C108.659 42.9151 108.953 42.8494 109.209 42.718C109.465 42.5831 109.665 42.4019 109.811 42.1747C109.956 41.9474 110.029 41.6899 110.029 41.4023V40.534C109.958 40.5802 109.861 40.6228 109.736 40.6619C109.616 40.6974 109.479 40.7311 109.326 40.7631C109.173 40.7915 109.021 40.8181 108.868 40.843C108.715 40.8643 108.577 40.8838 108.453 40.9016C108.186 40.9407 107.954 41.0028 107.755 41.088C107.556 41.1733 107.401 41.2887 107.291 41.4343C107.181 41.5763 107.126 41.7539 107.126 41.9669C107.126 42.2759 107.238 42.512 107.462 42.6754C107.689 42.8352 107.977 42.9151 108.325 42.9151ZM117.74 44.4865C116.902 44.4865 116.181 44.3089 115.577 43.9538C114.977 43.5951 114.515 43.098 114.192 42.4623C113.872 41.8267 113.713 41.0951 113.713 40.2677C113.713 39.4296 113.874 38.6946 114.197 38.0625C114.524 37.4268 114.988 36.9314 115.588 36.5763C116.188 36.2176 116.902 36.0383 117.729 36.0383C118.443 36.0383 119.068 36.1679 119.604 36.4272C120.14 36.6864 120.565 37.0504 120.877 37.5191C121.19 37.9879 121.362 38.5383 121.394 39.1704H119.252C119.192 38.762 119.032 38.4335 118.773 38.185C118.517 37.9328 118.182 37.8068 117.766 37.8068C117.415 37.8068 117.108 37.9027 116.845 38.0944C116.586 38.2826 116.383 38.5578 116.238 38.9201C116.092 39.2823 116.019 39.7208 116.019 40.2358C116.019 40.7578 116.09 41.2017 116.232 41.5674C116.378 41.9332 116.582 42.212 116.845 42.4037C117.108 42.5955 117.415 42.6914 117.766 42.6914C118.026 42.6914 118.258 42.6381 118.464 42.5316C118.674 42.425 118.846 42.2706 118.981 42.0681C119.119 41.8622 119.21 41.6154 119.252 41.3277H121.394C121.358 41.9527 121.188 42.5032 120.882 42.979C120.581 43.4513 120.163 43.8206 119.631 44.087C119.098 44.3533 118.468 44.4865 117.74 44.4865ZM122.847 44.3267V36.1448H125.116V44.3267H122.847ZM123.987 35.0902C123.649 35.0902 123.36 34.9783 123.118 34.7546C122.88 34.5273 122.761 34.2556 122.761 33.9396C122.761 33.6271 122.88 33.359 123.118 33.1353C123.36 32.908 123.649 32.7943 123.987 32.7943C124.324 32.7943 124.612 32.908 124.849 33.1353C125.091 33.359 125.212 33.6271 125.212 33.9396C125.212 34.2556 125.091 34.5273 124.849 34.7546C124.612 34.9783 124.324 35.0902 123.987 35.0902ZM130.662 44.4865C129.821 44.4865 129.096 44.316 128.489 43.9751C127.885 43.6306 127.42 43.1441 127.093 42.5156C126.767 41.8835 126.603 41.136 126.603 40.273C126.603 39.4314 126.767 38.6928 127.093 38.0571C127.42 37.4215 127.88 36.9261 128.473 36.571C129.07 36.2159 129.769 36.0383 130.572 36.0383C131.111 36.0383 131.614 36.1253 132.079 36.2993C132.548 36.4698 132.956 36.7272 133.304 37.0717C133.656 37.4161 133.929 37.8494 134.125 38.3714C134.32 38.8899 134.418 39.4971 134.418 40.1931V40.8164H127.509V39.4101H132.282C132.282 39.0834 132.211 38.794 132.068 38.5419C131.926 38.2897 131.729 38.0926 131.477 37.9506C131.229 37.805 130.939 37.7322 130.609 37.7322C130.265 37.7322 129.959 37.8121 129.693 37.9719C129.43 38.1282 129.224 38.3394 129.075 38.6058C128.926 38.8686 128.849 39.1615 128.846 39.4847V40.8217C128.846 41.2265 128.92 41.5763 129.07 41.871C129.222 42.1658 129.437 42.3931 129.714 42.5529C129.991 42.7127 130.32 42.7926 130.7 42.7926C130.952 42.7926 131.182 42.7571 131.392 42.686C131.602 42.615 131.781 42.5085 131.93 42.3664C132.079 42.2244 132.193 42.0504 132.271 41.8444L134.37 41.9829C134.263 42.4872 134.045 42.9275 133.714 43.3039C133.388 43.6768 132.965 43.968 132.447 44.1775C131.932 44.3835 131.337 44.4865 130.662 44.4865ZM138.168 39.5965V44.3267H135.898V36.1448H138.061V37.5884H138.157C138.338 37.1125 138.642 36.7361 139.068 36.4591C139.494 36.1786 140.011 36.0383 140.618 36.0383C141.186 36.0383 141.681 36.1626 142.104 36.4112C142.527 36.6598 142.855 37.0149 143.089 37.4765C143.324 37.9346 143.441 38.4815 143.441 39.1171V44.3267H141.172V39.522C141.175 39.0213 141.048 38.6306 140.788 38.3501C140.529 38.066 140.172 37.924 139.718 37.924C139.412 37.924 139.142 37.9897 138.908 38.121C138.677 38.2524 138.496 38.4442 138.365 38.6963C138.237 38.9449 138.171 39.245 138.168 39.5965ZM149.581 36.1448V37.8494H144.654V36.1448H149.581ZM145.773 34.1846H148.042V41.8125C148.042 42.022 148.074 42.1853 148.138 42.3025C148.202 42.4161 148.291 42.496 148.404 42.5422C148.521 42.5884 148.656 42.6115 148.809 42.6115C148.916 42.6115 149.022 42.6026 149.129 42.5848C149.235 42.5635 149.317 42.5475 149.374 42.5369L149.731 44.2255C149.617 44.261 149.457 44.3018 149.251 44.348C149.045 44.3977 148.795 44.4279 148.5 44.4385C147.953 44.4598 147.474 44.387 147.062 44.2201C146.653 44.0532 146.336 43.794 146.108 43.4424C145.881 43.0909 145.769 42.647 145.773 42.1108V34.1846ZM154.7 44.4865C153.859 44.4865 153.134 44.316 152.527 43.9751C151.923 43.6306 151.458 43.1441 151.131 42.5156C150.805 41.8835 150.641 41.136 150.641 40.273C150.641 39.4314 150.805 38.6928 151.131 38.0571C151.458 37.4215 151.918 36.9261 152.511 36.571C153.108 36.2159 153.807 36.0383 154.61 36.0383C155.15 36.0383 155.652 36.1253 156.117 36.2993C156.586 36.4698 156.994 36.7272 157.342 37.0717C157.694 37.4161 157.967 37.8494 158.163 38.3714C158.358 38.8899 158.456 39.4971 158.456 40.1931V40.8164H151.547V39.4101H156.32C156.32 39.0834 156.249 38.794 156.107 38.5419C155.965 38.2897 155.767 38.0926 155.515 37.9506C155.267 37.805 154.977 37.7322 154.647 37.7322C154.303 37.7322 153.997 37.8121 153.731 37.9719C153.468 38.1282 153.262 38.3394 153.113 38.6058C152.964 38.8686 152.887 39.1615 152.884 39.4847V40.8217C152.884 41.2265 152.958 41.5763 153.108 41.871C153.26 42.1658 153.475 42.3931 153.752 42.5529C154.029 42.7127 154.358 42.7926 154.738 42.7926C154.99 42.7926 155.221 42.7571 155.43 42.686C155.64 42.615 155.819 42.5085 155.968 42.3664C156.117 42.2244 156.231 42.0504 156.309 41.8444L158.408 41.9829C158.301 42.4872 158.083 42.9275 157.753 43.3039C157.426 43.6768 157.003 43.968 156.485 44.1775C155.97 44.3835 155.375 44.4865 154.7 44.4865ZM166.744 38.4779L164.667 38.6058C164.631 38.4282 164.555 38.2684 164.438 38.1264C164.32 37.9808 164.166 37.8654 163.974 37.7801C163.786 37.6914 163.56 37.647 163.298 37.647C162.946 37.647 162.65 37.7215 162.408 37.8707C162.167 38.0163 162.046 38.2116 162.046 38.4566C162.046 38.6519 162.124 38.8171 162.28 38.952C162.436 39.087 162.705 39.1953 163.085 39.2769L164.565 39.5752C165.361 39.7386 165.954 40.0014 166.345 40.3636C166.735 40.7258 166.93 41.2017 166.93 41.7911C166.93 42.3274 166.772 42.7979 166.456 43.2027C166.144 43.6076 165.714 43.9236 165.167 44.1509C164.624 44.3746 163.997 44.4865 163.287 44.4865C162.204 44.4865 161.341 44.261 160.698 43.81C160.059 43.3554 159.684 42.7375 159.574 41.9563L161.806 41.8391C161.874 42.1693 162.037 42.4215 162.296 42.5955C162.555 42.7659 162.887 42.8512 163.292 42.8512C163.69 42.8512 164.01 42.7748 164.251 42.6221C164.496 42.4659 164.62 42.2652 164.624 42.0202C164.62 41.8142 164.533 41.6456 164.363 41.5142C164.193 41.3792 163.93 41.2762 163.575 41.2052L162.158 40.9229C161.359 40.7631 160.764 40.4861 160.373 40.0919C159.986 39.6978 159.793 39.1953 159.793 38.5845C159.793 38.0589 159.935 37.6061 160.219 37.2262C160.506 36.8462 160.909 36.5532 161.428 36.3473C161.95 36.1413 162.561 36.0383 163.26 36.0383C164.294 36.0383 165.107 36.2567 165.7 36.6935C166.297 37.1303 166.645 37.7251 166.744 38.4779Z" fill="black" fill-opacity="0.5"/>
<defs>
<linearGradient id="paint0_linear_167_78" x1="300" y1="0" x2="300" y2="400" gradientUnits="userSpaceOnUse">
<stop stop-color="#00356E"/>
<stop offset="1" stop-color="#00356E"/>
</linearGradient>
</defs>
</svg>
