<svg width="600" height="400" viewBox="0 0 600 400" fill="none" xmlns="http://www.w3.org/2000/svg">
<rect width="600" height="400" fill="url(#paint0_linear_167_80)"/>
<rect x="175" y="25" width="250" height="350" rx="5" fill="white"/>
<rect x="210" y="315" width="180" height="46" rx="10" fill="white"/>
<path d="M274.78 330.455L279.098 342.699H279.268L283.587 330.455H285.433L280.092 345H278.274L272.933 330.455H274.78ZM290.888 345.227C289.903 345.227 289.039 344.993 288.295 344.524C287.557 344.055 286.979 343.4 286.562 342.557C286.151 341.714 285.945 340.729 285.945 339.602C285.945 338.466 286.151 337.474 286.562 336.626C286.979 335.779 287.557 335.121 288.295 334.652C289.039 334.183 289.903 333.949 290.888 333.949C291.873 333.949 292.734 334.183 293.473 334.652C294.216 335.121 294.794 335.779 295.206 336.626C295.623 337.474 295.831 338.466 295.831 339.602C295.831 340.729 295.623 341.714 295.206 342.557C294.794 343.4 294.216 344.055 293.473 344.524C292.734 344.993 291.873 345.227 290.888 345.227ZM290.888 343.722C291.636 343.722 292.251 343.53 292.734 343.146C293.217 342.763 293.575 342.259 293.807 341.634C294.039 341.009 294.155 340.331 294.155 339.602C294.155 338.873 294.039 338.194 293.807 337.564C293.575 336.934 293.217 336.425 292.734 336.037C292.251 335.649 291.636 335.455 290.888 335.455C290.14 335.455 289.524 335.649 289.041 336.037C288.558 336.425 288.201 336.934 287.969 337.564C287.737 338.194 287.621 338.873 287.621 339.602C287.621 340.331 287.737 341.009 287.969 341.634C288.201 342.259 288.558 342.763 289.041 343.146C289.524 343.53 290.14 343.722 290.888 343.722ZM300.066 330.455V345H298.39V330.455H300.066ZM307.88 334.091V335.511H302.227V334.091H307.88ZM303.874 331.477H305.55V341.875C305.55 342.348 305.619 342.704 305.756 342.94C305.898 343.172 306.078 343.329 306.296 343.409C306.519 343.485 306.753 343.523 306.999 343.523C307.184 343.523 307.335 343.513 307.454 343.494C307.572 343.471 307.667 343.452 307.738 343.438L308.079 344.943C307.965 344.986 307.807 345.028 307.603 345.071C307.399 345.118 307.141 345.142 306.829 345.142C306.355 345.142 305.891 345.04 305.437 344.837C304.987 344.633 304.613 344.323 304.315 343.906C304.021 343.49 303.874 342.964 303.874 342.33V331.477ZM313.612 345.256C312.92 345.256 312.293 345.125 311.729 344.865C311.166 344.6 310.719 344.219 310.387 343.722C310.056 343.22 309.89 342.614 309.89 341.903C309.89 341.278 310.013 340.772 310.259 340.384C310.505 339.991 310.835 339.683 311.246 339.46C311.658 339.238 312.113 339.072 312.61 338.963C313.112 338.849 313.616 338.759 314.123 338.693C314.786 338.608 315.323 338.544 315.735 338.501C316.152 338.454 316.455 338.376 316.644 338.267C316.838 338.158 316.935 337.969 316.935 337.699V337.642C316.935 336.941 316.744 336.397 316.36 336.009C315.981 335.62 315.406 335.426 314.634 335.426C313.834 335.426 313.207 335.601 312.752 335.952C312.298 336.302 311.978 336.676 311.793 337.074L310.202 336.506C310.487 335.843 310.865 335.327 311.339 334.957C311.817 334.583 312.338 334.323 312.901 334.176C313.469 334.025 314.028 333.949 314.577 333.949C314.928 333.949 315.33 333.991 315.785 334.077C316.244 334.157 316.687 334.325 317.113 334.581C317.544 334.837 317.901 335.223 318.185 335.739C318.469 336.255 318.612 336.946 318.612 337.812V345H316.935V343.523H316.85C316.737 343.759 316.547 344.013 316.282 344.283C316.017 344.553 315.664 344.782 315.224 344.972C314.783 345.161 314.246 345.256 313.612 345.256ZM313.867 343.75C314.53 343.75 315.089 343.62 315.543 343.359C316.003 343.099 316.348 342.763 316.58 342.351C316.817 341.939 316.935 341.506 316.935 341.051V339.517C316.864 339.602 316.708 339.68 316.467 339.751C316.23 339.818 315.955 339.877 315.643 339.929C315.335 339.976 315.034 340.019 314.741 340.057C314.452 340.09 314.218 340.118 314.038 340.142C313.602 340.199 313.195 340.291 312.816 340.419C312.442 340.542 312.139 340.729 311.907 340.98C311.68 341.226 311.566 341.562 311.566 341.989C311.566 342.571 311.781 343.011 312.212 343.31C312.648 343.603 313.2 343.75 313.867 343.75ZM321.671 345V334.091H323.29V335.739H323.404C323.603 335.199 323.962 334.761 324.483 334.425C325.004 334.089 325.591 333.92 326.245 333.92C326.368 333.92 326.522 333.923 326.706 333.928C326.891 333.932 327.031 333.939 327.125 333.949V335.653C327.069 335.639 326.938 335.618 326.735 335.589C326.536 335.556 326.325 335.54 326.103 335.54C325.572 335.54 325.099 335.651 324.682 335.874C324.27 336.091 323.944 336.394 323.702 336.783C323.465 337.166 323.347 337.604 323.347 338.097V345H321.671Z" fill="black"/>
<g filter="url(#filter0_d_167_80)">
<rect x="209.5" y="256.5" width="181" height="47" rx="10.5" fill="white" stroke="black"/>
<path d="M227.872 276V264.364H235.168V265.875H229.628V269.42H234.787V270.926H229.628V274.489H235.236V276H227.872ZM239.075 270.818V276H237.376V267.273H239.007V268.693H239.115C239.316 268.231 239.63 267.86 240.058 267.58C240.49 267.299 241.034 267.159 241.689 267.159C242.284 267.159 242.804 267.284 243.251 267.534C243.698 267.78 244.045 268.148 244.291 268.636C244.537 269.125 244.661 269.729 244.661 270.449V276H242.962V270.653C242.962 270.021 242.797 269.527 242.467 269.17C242.138 268.811 241.685 268.631 241.109 268.631C240.715 268.631 240.365 268.716 240.058 268.886C239.755 269.057 239.515 269.307 239.337 269.636C239.162 269.962 239.075 270.356 239.075 270.818ZM254.092 267.273L250.928 276H249.109L245.939 267.273H247.763L249.973 273.989H250.064L252.268 267.273H254.092ZM255.689 276V267.273H257.388V276H255.689ZM256.547 265.926C256.251 265.926 255.998 265.828 255.786 265.631C255.577 265.43 255.473 265.191 255.473 264.915C255.473 264.634 255.577 264.396 255.786 264.199C255.998 263.998 256.251 263.898 256.547 263.898C256.842 263.898 257.094 263.998 257.303 264.199C257.515 264.396 257.621 264.634 257.621 264.915C257.621 265.191 257.515 265.43 257.303 265.631C257.094 265.828 256.842 265.926 256.547 265.926ZM262.213 276.193C261.66 276.193 261.16 276.091 260.713 275.886C260.266 275.678 259.912 275.377 259.651 274.983C259.393 274.589 259.264 274.106 259.264 273.534C259.264 273.042 259.359 272.636 259.548 272.318C259.738 272 259.993 271.748 260.315 271.562C260.637 271.377 260.997 271.237 261.395 271.142C261.793 271.047 262.198 270.975 262.611 270.926C263.134 270.866 263.558 270.816 263.884 270.778C264.209 270.737 264.446 270.67 264.594 270.58C264.741 270.489 264.815 270.341 264.815 270.136V270.097C264.815 269.6 264.675 269.216 264.395 268.943C264.118 268.67 263.705 268.534 263.156 268.534C262.584 268.534 262.134 268.661 261.804 268.915C261.478 269.165 261.253 269.443 261.128 269.75L259.531 269.386C259.721 268.856 259.997 268.428 260.361 268.102C260.728 267.773 261.151 267.534 261.628 267.386C262.105 267.235 262.607 267.159 263.134 267.159C263.482 267.159 263.851 267.201 264.241 267.284C264.635 267.364 265.003 267.511 265.344 267.727C265.688 267.943 265.971 268.252 266.19 268.653C266.41 269.051 266.52 269.568 266.52 270.205V276H264.861V274.807H264.793C264.683 275.027 264.518 275.242 264.298 275.455C264.079 275.667 263.796 275.843 263.452 275.983C263.107 276.123 262.694 276.193 262.213 276.193ZM262.582 274.83C263.052 274.83 263.454 274.737 263.787 274.551C264.124 274.366 264.38 274.123 264.554 273.824C264.732 273.521 264.821 273.197 264.821 272.852V271.727C264.76 271.788 264.643 271.845 264.469 271.898C264.298 271.947 264.103 271.991 263.884 272.028C263.664 272.062 263.45 272.095 263.241 272.125C263.033 272.152 262.859 272.174 262.719 272.193C262.389 272.235 262.088 272.305 261.815 272.403C261.546 272.502 261.33 272.644 261.168 272.83C261.009 273.011 260.929 273.254 260.929 273.557C260.929 273.977 261.084 274.295 261.395 274.511C261.705 274.723 262.101 274.83 262.582 274.83ZM268.783 276V267.273H270.425V268.659H270.516C270.675 268.189 270.955 267.82 271.357 267.551C271.762 267.278 272.22 267.142 272.732 267.142C272.838 267.142 272.963 267.146 273.107 267.153C273.254 267.161 273.37 267.17 273.453 267.182V268.807C273.385 268.788 273.264 268.767 273.089 268.744C272.915 268.718 272.741 268.705 272.567 268.705C272.165 268.705 271.807 268.79 271.493 268.96C271.182 269.127 270.936 269.36 270.754 269.659C270.572 269.955 270.482 270.292 270.482 270.67V276H268.783ZM282.834 276.176C281.989 276.176 281.262 275.985 280.652 275.602C280.046 275.216 279.58 274.684 279.254 274.006C278.929 273.328 278.766 272.551 278.766 271.676C278.766 270.79 278.932 270.008 279.266 269.33C279.599 268.648 280.069 268.116 280.675 267.733C281.281 267.35 281.995 267.159 282.817 267.159C283.48 267.159 284.071 267.282 284.589 267.528C285.108 267.771 285.527 268.112 285.845 268.551C286.167 268.991 286.358 269.504 286.419 270.091H284.766C284.675 269.682 284.466 269.33 284.141 269.034C283.819 268.739 283.387 268.591 282.845 268.591C282.372 268.591 281.957 268.716 281.601 268.966C281.249 269.212 280.974 269.564 280.777 270.023C280.58 270.477 280.482 271.015 280.482 271.636C280.482 272.273 280.578 272.822 280.771 273.284C280.964 273.746 281.237 274.104 281.589 274.358C281.946 274.612 282.364 274.739 282.845 274.739C283.167 274.739 283.459 274.68 283.72 274.562C283.985 274.441 284.207 274.269 284.385 274.045C284.567 273.822 284.694 273.553 284.766 273.239H286.419C286.358 273.803 286.175 274.307 285.868 274.75C285.561 275.193 285.15 275.542 284.635 275.795C284.124 276.049 283.523 276.176 282.834 276.176ZM291.912 276.176C291.094 276.176 290.38 275.989 289.77 275.614C289.16 275.239 288.687 274.714 288.349 274.04C288.012 273.366 287.844 272.578 287.844 271.676C287.844 270.771 288.012 269.979 288.349 269.301C288.687 268.623 289.16 268.097 289.77 267.722C290.38 267.347 291.094 267.159 291.912 267.159C292.73 267.159 293.444 267.347 294.054 267.722C294.664 268.097 295.137 268.623 295.474 269.301C295.812 269.979 295.98 270.771 295.98 271.676C295.98 272.578 295.812 273.366 295.474 274.04C295.137 274.714 294.664 275.239 294.054 275.614C293.444 275.989 292.73 276.176 291.912 276.176ZM291.918 274.75C292.448 274.75 292.887 274.61 293.236 274.33C293.584 274.049 293.842 273.676 294.009 273.21C294.179 272.744 294.264 272.231 294.264 271.67C294.264 271.114 294.179 270.602 294.009 270.136C293.842 269.667 293.584 269.29 293.236 269.006C292.887 268.722 292.448 268.58 291.918 268.58C291.384 268.58 290.94 268.722 290.588 269.006C290.24 269.29 289.98 269.667 289.81 270.136C289.643 270.602 289.56 271.114 289.56 271.67C289.56 272.231 289.643 272.744 289.81 273.21C289.98 273.676 290.24 274.049 290.588 274.33C290.94 274.61 291.384 274.75 291.918 274.75ZM299.575 270.818V276H297.876V267.273H299.507V268.693H299.615C299.816 268.231 300.13 267.86 300.558 267.58C300.99 267.299 301.534 267.159 302.189 267.159C302.784 267.159 303.304 267.284 303.751 267.534C304.198 267.78 304.545 268.148 304.791 268.636C305.037 269.125 305.161 269.729 305.161 270.449V276H303.462V270.653C303.462 270.021 303.297 269.527 302.967 269.17C302.638 268.811 302.185 268.631 301.609 268.631C301.215 268.631 300.865 268.716 300.558 268.886C300.255 269.057 300.015 269.307 299.837 269.636C299.662 269.962 299.575 270.356 299.575 270.818ZM311.592 267.273V268.636H306.661V267.273H311.592ZM308.013 276V266.261C308.013 265.716 308.132 265.263 308.371 264.903C308.609 264.54 308.926 264.269 309.32 264.091C309.714 263.909 310.142 263.818 310.604 263.818C310.945 263.818 311.236 263.847 311.479 263.903C311.721 263.956 311.901 264.006 312.018 264.051L311.621 265.426C311.541 265.403 311.439 265.377 311.314 265.347C311.189 265.312 311.037 265.295 310.859 265.295C310.446 265.295 310.151 265.398 309.973 265.602C309.799 265.807 309.712 266.102 309.712 266.489V276H308.013ZM313.345 276V267.273H315.044V276H313.345ZM314.203 265.926C313.908 265.926 313.654 265.828 313.442 265.631C313.233 265.43 313.129 265.191 313.129 264.915C313.129 264.634 313.233 264.396 313.442 264.199C313.654 263.998 313.908 263.898 314.203 263.898C314.499 263.898 314.75 263.998 314.959 264.199C315.171 264.396 315.277 264.634 315.277 264.915C315.277 265.191 315.171 265.43 314.959 265.631C314.75 265.828 314.499 265.926 314.203 265.926ZM317.33 276V267.273H318.972V268.659H319.062C319.222 268.189 319.502 267.82 319.903 267.551C320.309 267.278 320.767 267.142 321.278 267.142C321.384 267.142 321.509 267.146 321.653 267.153C321.801 267.161 321.917 267.17 322 267.182V268.807C321.932 268.788 321.811 268.767 321.636 268.744C321.462 268.718 321.288 268.705 321.114 268.705C320.712 268.705 320.354 268.79 320.04 268.96C319.729 269.127 319.483 269.36 319.301 269.659C319.119 269.955 319.028 270.292 319.028 270.67V276H317.33ZM323.47 276V267.273H325.101V268.693H325.209C325.391 268.212 325.688 267.837 326.101 267.568C326.514 267.295 327.008 267.159 327.584 267.159C328.167 267.159 328.656 267.295 329.05 267.568C329.447 267.841 329.741 268.216 329.93 268.693H330.021C330.23 268.227 330.561 267.856 331.016 267.58C331.47 267.299 332.012 267.159 332.641 267.159C333.432 267.159 334.078 267.407 334.578 267.903C335.082 268.4 335.334 269.148 335.334 270.148V276H333.635V270.307C333.635 269.716 333.474 269.288 333.152 269.023C332.83 268.758 332.446 268.625 331.999 268.625C331.446 268.625 331.016 268.795 330.709 269.136C330.402 269.473 330.249 269.907 330.249 270.438V276H328.555V270.199C328.555 269.725 328.408 269.345 328.112 269.057C327.817 268.769 327.432 268.625 326.959 268.625C326.637 268.625 326.339 268.71 326.067 268.881C325.798 269.047 325.58 269.28 325.413 269.58C325.25 269.879 325.169 270.225 325.169 270.619V276H323.47ZM340.151 276.193C339.598 276.193 339.098 276.091 338.651 275.886C338.204 275.678 337.849 275.377 337.588 274.983C337.33 274.589 337.202 274.106 337.202 273.534C337.202 273.042 337.296 272.636 337.486 272.318C337.675 272 337.931 271.748 338.253 271.562C338.575 271.377 338.935 271.237 339.332 271.142C339.73 271.047 340.135 270.975 340.548 270.926C341.071 270.866 341.495 270.816 341.821 270.778C342.147 270.737 342.384 270.67 342.531 270.58C342.679 270.489 342.753 270.341 342.753 270.136V270.097C342.753 269.6 342.613 269.216 342.332 268.943C342.056 268.67 341.643 268.534 341.094 268.534C340.522 268.534 340.071 268.661 339.741 268.915C339.416 269.165 339.19 269.443 339.065 269.75L337.469 269.386C337.658 268.856 337.935 268.428 338.298 268.102C338.666 267.773 339.088 267.534 339.565 267.386C340.043 267.235 340.545 267.159 341.071 267.159C341.42 267.159 341.789 267.201 342.179 267.284C342.573 267.364 342.94 267.511 343.281 267.727C343.626 267.943 343.908 268.252 344.128 268.653C344.348 269.051 344.457 269.568 344.457 270.205V276H342.798V274.807H342.73C342.62 275.027 342.455 275.242 342.236 275.455C342.016 275.667 341.734 275.843 341.389 275.983C341.045 276.123 340.632 276.193 340.151 276.193ZM340.52 274.83C340.99 274.83 341.391 274.737 341.724 274.551C342.062 274.366 342.317 274.123 342.491 273.824C342.67 273.521 342.759 273.197 342.759 272.852V271.727C342.698 271.788 342.58 271.845 342.406 271.898C342.236 271.947 342.041 271.991 341.821 272.028C341.601 272.062 341.387 272.095 341.179 272.125C340.971 272.152 340.796 272.174 340.656 272.193C340.327 272.235 340.026 272.305 339.753 272.403C339.484 272.502 339.268 272.644 339.105 272.83C338.946 273.011 338.866 273.254 338.866 273.557C338.866 273.977 339.022 274.295 339.332 274.511C339.643 274.723 340.039 274.83 340.52 274.83ZM350.396 276.176C349.552 276.176 348.824 275.985 348.214 275.602C347.608 275.216 347.143 274.684 346.817 274.006C346.491 273.328 346.328 272.551 346.328 271.676C346.328 270.79 346.495 270.008 346.828 269.33C347.161 268.648 347.631 268.116 348.237 267.733C348.843 267.35 349.557 267.159 350.379 267.159C351.042 267.159 351.633 267.282 352.152 267.528C352.671 267.771 353.089 268.112 353.408 268.551C353.73 268.991 353.921 269.504 353.982 270.091H352.328C352.237 269.682 352.029 269.33 351.703 269.034C351.381 268.739 350.949 268.591 350.408 268.591C349.934 268.591 349.519 268.716 349.163 268.966C348.811 269.212 348.536 269.564 348.339 270.023C348.143 270.477 348.044 271.015 348.044 271.636C348.044 272.273 348.141 272.822 348.334 273.284C348.527 273.746 348.8 274.104 349.152 274.358C349.508 274.612 349.927 274.739 350.408 274.739C350.73 274.739 351.021 274.68 351.283 274.562C351.548 274.441 351.769 274.269 351.947 274.045C352.129 273.822 352.256 273.553 352.328 273.239H353.982C353.921 273.803 353.737 274.307 353.43 274.75C353.124 275.193 352.713 275.542 352.197 275.795C351.686 276.049 351.086 276.176 350.396 276.176ZM349.783 275.955H350.896L350.805 276.42C351.135 276.473 351.423 276.606 351.669 276.818C351.915 277.03 352.038 277.35 352.038 277.778C352.042 278.29 351.821 278.705 351.374 279.023C350.93 279.341 350.288 279.5 349.447 279.5L349.413 278.551C349.807 278.551 350.125 278.494 350.368 278.381C350.614 278.267 350.739 278.083 350.743 277.83C350.747 277.576 350.652 277.398 350.459 277.295C350.269 277.193 349.966 277.121 349.55 277.08L349.783 275.955ZM358.338 276.193C357.785 276.193 357.285 276.091 356.838 275.886C356.391 275.678 356.037 275.377 355.776 274.983C355.518 274.589 355.389 274.106 355.389 273.534C355.389 273.042 355.484 272.636 355.673 272.318C355.863 272 356.118 271.748 356.44 271.562C356.762 271.377 357.122 271.237 357.52 271.142C357.918 271.047 358.323 270.975 358.736 270.926C359.259 270.866 359.683 270.816 360.009 270.778C360.334 270.737 360.571 270.67 360.719 270.58C360.866 270.489 360.94 270.341 360.94 270.136V270.097C360.94 269.6 360.8 269.216 360.52 268.943C360.243 268.67 359.83 268.534 359.281 268.534C358.709 268.534 358.259 268.661 357.929 268.915C357.603 269.165 357.378 269.443 357.253 269.75L355.656 269.386C355.846 268.856 356.122 268.428 356.486 268.102C356.853 267.773 357.276 267.534 357.753 267.386C358.23 267.235 358.732 267.159 359.259 267.159C359.607 267.159 359.976 267.201 360.366 267.284C360.76 267.364 361.128 267.511 361.469 267.727C361.813 267.943 362.096 268.252 362.315 268.653C362.535 269.051 362.645 269.568 362.645 270.205V276H360.986V274.807H360.918C360.808 275.027 360.643 275.242 360.423 275.455C360.204 275.667 359.921 275.843 359.577 275.983C359.232 276.123 358.819 276.193 358.338 276.193ZM358.707 274.83C359.177 274.83 359.579 274.737 359.912 274.551C360.249 274.366 360.505 274.123 360.679 273.824C360.857 273.521 360.946 273.197 360.946 272.852V271.727C360.885 271.788 360.768 271.845 360.594 271.898C360.423 271.947 360.228 271.991 360.009 272.028C359.789 272.062 359.575 272.095 359.366 272.125C359.158 272.152 358.984 272.174 358.844 272.193C358.514 272.235 358.213 272.305 357.94 272.403C357.671 272.502 357.455 272.644 357.293 272.83C357.134 273.011 357.054 273.254 357.054 273.557C357.054 273.977 357.209 274.295 357.52 274.511C357.83 274.723 358.226 274.83 358.707 274.83ZM357.639 266.216L356.497 266.182C356.497 265.553 356.666 265.051 357.003 264.676C357.344 264.301 357.764 264.114 358.264 264.114C358.495 264.114 358.698 264.153 358.872 264.233C359.046 264.309 359.209 264.398 359.361 264.5C359.516 264.598 359.67 264.687 359.821 264.767C359.976 264.843 360.149 264.881 360.338 264.881C360.558 264.881 360.736 264.797 360.872 264.631C361.012 264.464 361.082 264.258 361.082 264.011L362.202 264.085C362.202 264.718 362.031 265.216 361.69 265.58C361.349 265.939 360.931 266.121 360.435 266.125C360.166 266.125 359.942 266.087 359.764 266.011C359.59 265.932 359.435 265.843 359.298 265.744C359.162 265.642 359.022 265.551 358.878 265.472C358.734 265.392 358.562 265.352 358.361 265.352C358.149 265.352 357.974 265.436 357.838 265.602C357.705 265.765 357.639 265.97 357.639 266.216ZM368.584 276.176C367.766 276.176 367.052 275.989 366.442 275.614C365.832 275.239 365.358 274.714 365.021 274.04C364.684 273.366 364.516 272.578 364.516 271.676C364.516 270.771 364.684 269.979 365.021 269.301C365.358 268.623 365.832 268.097 366.442 267.722C367.052 267.347 367.766 267.159 368.584 267.159C369.402 267.159 370.116 267.347 370.726 267.722C371.336 268.097 371.809 268.623 372.146 269.301C372.483 269.979 372.652 270.771 372.652 271.676C372.652 272.578 372.483 273.366 372.146 274.04C371.809 274.714 371.336 275.239 370.726 275.614C370.116 275.989 369.402 276.176 368.584 276.176ZM368.589 274.75C369.12 274.75 369.559 274.61 369.908 274.33C370.256 274.049 370.514 273.676 370.68 273.21C370.851 272.744 370.936 272.231 370.936 271.67C370.936 271.114 370.851 270.602 370.68 270.136C370.514 269.667 370.256 269.29 369.908 269.006C369.559 268.722 369.12 268.58 368.589 268.58C368.055 268.58 367.612 268.722 367.26 269.006C366.911 269.29 366.652 269.667 366.482 270.136C366.315 270.602 366.232 271.114 366.232 271.67C366.232 272.231 366.315 272.744 366.482 273.21C366.652 273.676 366.911 274.049 367.26 274.33C367.612 274.61 368.055 274.75 368.589 274.75ZM262.275 298.273V286.273H263.934V287.688H264.076C264.174 287.506 264.317 287.295 264.502 287.057C264.688 286.818 264.945 286.61 265.275 286.432C265.604 286.25 266.04 286.159 266.582 286.159C267.286 286.159 267.915 286.337 268.468 286.693C269.021 287.049 269.455 287.562 269.769 288.233C270.087 288.903 270.246 289.71 270.246 290.653C270.246 291.597 270.089 292.405 269.775 293.08C269.46 293.75 269.029 294.267 268.479 294.631C267.93 294.991 267.303 295.17 266.599 295.17C266.068 295.17 265.635 295.081 265.298 294.903C264.964 294.725 264.703 294.517 264.513 294.278C264.324 294.04 264.178 293.828 264.076 293.642H263.974V298.273H262.275ZM263.94 290.636C263.94 291.25 264.029 291.788 264.207 292.25C264.385 292.712 264.642 293.074 264.979 293.335C265.317 293.593 265.729 293.722 266.218 293.722C266.726 293.722 267.15 293.587 267.491 293.318C267.832 293.045 268.089 292.676 268.263 292.21C268.442 291.744 268.531 291.22 268.531 290.636C268.531 290.061 268.443 289.544 268.269 289.085C268.099 288.627 267.841 288.265 267.496 288C267.156 287.735 266.729 287.602 266.218 287.602C265.726 287.602 265.309 287.729 264.968 287.983C264.631 288.237 264.375 288.591 264.201 289.045C264.027 289.5 263.94 290.03 263.94 290.636ZM275.911 295.176C275.051 295.176 274.311 294.992 273.69 294.625C273.072 294.254 272.595 293.733 272.258 293.062C271.924 292.388 271.758 291.598 271.758 290.693C271.758 289.799 271.924 289.011 272.258 288.33C272.595 287.648 273.065 287.116 273.667 286.733C274.273 286.35 274.981 286.159 275.792 286.159C276.284 286.159 276.762 286.241 277.224 286.403C277.686 286.566 278.101 286.822 278.468 287.17C278.835 287.519 279.125 287.972 279.337 288.528C279.549 289.081 279.656 289.754 279.656 290.545V291.148H272.718V289.875H277.991C277.991 289.428 277.9 289.032 277.718 288.688C277.536 288.339 277.281 288.064 276.951 287.864C276.625 287.663 276.243 287.562 275.803 287.562C275.326 287.562 274.909 287.68 274.553 287.915C274.201 288.146 273.928 288.449 273.735 288.824C273.546 289.195 273.451 289.598 273.451 290.034V291.028C273.451 291.612 273.553 292.108 273.758 292.517C273.966 292.926 274.256 293.239 274.627 293.455C274.998 293.667 275.432 293.773 275.928 293.773C276.25 293.773 276.544 293.727 276.809 293.636C277.074 293.542 277.303 293.402 277.496 293.216C277.69 293.03 277.837 292.801 277.94 292.528L279.548 292.818C279.419 293.292 279.188 293.706 278.854 294.062C278.525 294.415 278.11 294.689 277.61 294.886C277.114 295.08 276.548 295.176 275.911 295.176ZM283.239 283.364V295H281.54V283.364H283.239ZM289.201 295.176C288.383 295.176 287.669 294.989 287.059 294.614C286.449 294.239 285.976 293.714 285.638 293.04C285.301 292.366 285.133 291.578 285.133 290.676C285.133 289.771 285.301 288.979 285.638 288.301C285.976 287.623 286.449 287.097 287.059 286.722C287.669 286.347 288.383 286.159 289.201 286.159C290.019 286.159 290.733 286.347 291.343 286.722C291.953 287.097 292.426 287.623 292.763 288.301C293.101 288.979 293.269 289.771 293.269 290.676C293.269 291.578 293.101 292.366 292.763 293.04C292.426 293.714 291.953 294.239 291.343 294.614C290.733 294.989 290.019 295.176 289.201 295.176ZM289.207 293.75C289.737 293.75 290.176 293.61 290.525 293.33C290.873 293.049 291.131 292.676 291.298 292.21C291.468 291.744 291.553 291.231 291.553 290.67C291.553 290.114 291.468 289.602 291.298 289.136C291.131 288.667 290.873 288.29 290.525 288.006C290.176 287.722 289.737 287.58 289.207 287.58C288.673 287.58 288.229 287.722 287.877 288.006C287.529 288.29 287.269 288.667 287.099 289.136C286.932 289.602 286.849 290.114 286.849 290.67C286.849 291.231 286.932 291.744 287.099 292.21C287.269 292.676 287.529 293.049 287.877 293.33C288.229 293.61 288.673 293.75 289.207 293.75ZM303.161 295.176C302.301 295.176 301.561 294.992 300.94 294.625C300.322 294.254 299.845 293.733 299.508 293.062C299.174 292.388 299.008 291.598 299.008 290.693C299.008 289.799 299.174 289.011 299.508 288.33C299.845 287.648 300.315 287.116 300.917 286.733C301.523 286.35 302.231 286.159 303.042 286.159C303.534 286.159 304.012 286.241 304.474 286.403C304.936 286.566 305.351 286.822 305.718 287.17C306.085 287.519 306.375 287.972 306.587 288.528C306.799 289.081 306.906 289.754 306.906 290.545V291.148H299.968V289.875H305.241C305.241 289.428 305.15 289.032 304.968 288.688C304.786 288.339 304.531 288.064 304.201 287.864C303.875 287.663 303.493 287.562 303.053 287.562C302.576 287.562 302.159 287.68 301.803 287.915C301.451 288.146 301.178 288.449 300.985 288.824C300.796 289.195 300.701 289.598 300.701 290.034V291.028C300.701 291.612 300.803 292.108 301.008 292.517C301.216 292.926 301.506 293.239 301.877 293.455C302.248 293.667 302.682 293.773 303.178 293.773C303.5 293.773 303.794 293.727 304.059 293.636C304.324 293.542 304.553 293.402 304.746 293.216C304.94 293.03 305.087 292.801 305.19 292.528L306.798 292.818C306.669 293.292 306.438 293.706 306.104 294.062C305.775 294.415 305.36 294.689 304.86 294.886C304.364 295.08 303.798 295.176 303.161 295.176ZM308.79 295V286.273H310.421V287.693H310.529C310.711 287.212 311.008 286.837 311.421 286.568C311.834 286.295 312.328 286.159 312.904 286.159C313.487 286.159 313.976 286.295 314.37 286.568C314.768 286.841 315.061 287.216 315.251 287.693H315.342C315.55 287.227 315.881 286.856 316.336 286.58C316.79 286.299 317.332 286.159 317.961 286.159C318.753 286.159 319.398 286.407 319.898 286.903C320.402 287.4 320.654 288.148 320.654 289.148V295H318.955V289.307C318.955 288.716 318.794 288.288 318.472 288.023C318.15 287.758 317.766 287.625 317.319 287.625C316.766 287.625 316.336 287.795 316.029 288.136C315.722 288.473 315.569 288.907 315.569 289.438V295H313.876V289.199C313.876 288.725 313.728 288.345 313.433 288.057C313.137 287.769 312.753 287.625 312.279 287.625C311.957 287.625 311.66 287.71 311.387 287.881C311.118 288.047 310.9 288.28 310.734 288.58C310.571 288.879 310.489 289.225 310.489 289.619V295H308.79ZM325.471 295.193C324.918 295.193 324.418 295.091 323.971 294.886C323.524 294.678 323.17 294.377 322.908 293.983C322.651 293.589 322.522 293.106 322.522 292.534C322.522 292.042 322.617 291.636 322.806 291.318C322.996 291 323.251 290.748 323.573 290.562C323.895 290.377 324.255 290.237 324.653 290.142C325.05 290.047 325.456 289.975 325.869 289.926C326.391 289.866 326.816 289.816 327.141 289.778C327.467 289.737 327.704 289.67 327.852 289.58C327.999 289.489 328.073 289.341 328.073 289.136V289.097C328.073 288.6 327.933 288.216 327.653 287.943C327.376 287.67 326.963 287.534 326.414 287.534C325.842 287.534 325.391 287.661 325.062 287.915C324.736 288.165 324.511 288.443 324.386 288.75L322.789 288.386C322.978 287.856 323.255 287.428 323.619 287.102C323.986 286.773 324.408 286.534 324.886 286.386C325.363 286.235 325.865 286.159 326.391 286.159C326.74 286.159 327.109 286.201 327.499 286.284C327.893 286.364 328.261 286.511 328.602 286.727C328.946 286.943 329.228 287.252 329.448 287.653C329.668 288.051 329.778 288.568 329.778 289.205V295H328.119V293.807H328.05C327.941 294.027 327.776 294.242 327.556 294.455C327.336 294.667 327.054 294.843 326.71 294.983C326.365 295.123 325.952 295.193 325.471 295.193ZM325.84 293.83C326.31 293.83 326.711 293.737 327.045 293.551C327.382 293.366 327.638 293.123 327.812 292.824C327.99 292.521 328.079 292.197 328.079 291.852V290.727C328.018 290.788 327.901 290.845 327.727 290.898C327.556 290.947 327.361 290.991 327.141 291.028C326.922 291.062 326.708 291.095 326.499 291.125C326.291 291.152 326.117 291.174 325.977 291.193C325.647 291.235 325.346 291.305 325.073 291.403C324.804 291.502 324.588 291.644 324.425 291.83C324.266 292.011 324.187 292.254 324.187 292.557C324.187 292.977 324.342 293.295 324.653 293.511C324.963 293.723 325.359 293.83 325.84 293.83ZM332.04 295V286.273H333.739V295H332.04ZM332.898 284.926C332.603 284.926 332.349 284.828 332.137 284.631C331.929 284.43 331.825 284.191 331.825 283.915C331.825 283.634 331.929 283.396 332.137 283.199C332.349 282.998 332.603 282.898 332.898 282.898C333.194 282.898 333.446 282.998 333.654 283.199C333.866 283.396 333.972 283.634 333.972 283.915C333.972 284.191 333.866 284.43 333.654 284.631C333.446 284.828 333.194 284.926 332.898 284.926ZM337.724 283.364V295H336.025V283.364H337.724Z" fill="black"/>
</g>
<rect x="190" y="190" width="220" height="55" fill="white"/>
<line x1="202.222" y1="238.522" x2="397.778" y2="238.522" stroke="black"/>
<path d="M212.295 196.678V207.587H210.303L205.557 200.721H205.477V207.587H203.17V196.678H205.194L209.903 203.539H209.999V196.678H212.295ZM217.855 207.747C217.027 207.747 216.312 207.571 215.708 207.219C215.108 206.864 214.644 206.371 214.318 205.739C213.991 205.103 213.828 204.366 213.828 203.528C213.828 202.683 213.991 201.944 214.318 201.312C214.644 200.676 215.108 200.183 215.708 199.831C216.312 199.476 217.027 199.299 217.855 199.299C218.682 199.299 219.396 199.476 219.996 199.831C220.6 200.183 221.065 200.676 221.392 201.312C221.718 201.944 221.882 202.683 221.882 203.528C221.882 204.366 221.718 205.103 221.392 205.739C221.065 206.371 220.6 206.864 219.996 207.219C219.396 207.571 218.682 207.747 217.855 207.747ZM217.865 205.989C218.242 205.989 218.556 205.882 218.808 205.669C219.06 205.453 219.25 205.158 219.378 204.785C219.51 204.412 219.575 203.988 219.575 203.512C219.575 203.036 219.51 202.612 219.378 202.239C219.25 201.866 219.06 201.571 218.808 201.355C218.556 201.138 218.242 201.03 217.865 201.03C217.485 201.03 217.166 201.138 216.907 201.355C216.651 201.571 216.457 201.866 216.326 202.239C216.198 202.612 216.134 203.036 216.134 203.512C216.134 203.988 216.198 204.412 216.326 204.785C216.457 205.158 216.651 205.453 216.907 205.669C217.166 205.882 217.485 205.989 217.865 205.989ZM230.721 199.405L227.861 207.587H225.304L222.444 199.405H224.841L226.54 205.259H226.625L228.319 199.405H230.721ZM233.996 207.741C233.474 207.741 233.009 207.651 232.6 207.47C232.192 207.285 231.869 207.013 231.631 206.655C231.397 206.293 231.279 205.842 231.279 205.302C231.279 204.847 231.363 204.465 231.53 204.157C231.697 203.848 231.924 203.599 232.212 203.411C232.499 203.223 232.826 203.081 233.192 202.985C233.561 202.889 233.948 202.821 234.353 202.782C234.829 202.733 235.212 202.686 235.503 202.644C235.795 202.598 236.006 202.53 236.137 202.441C236.269 202.353 236.334 202.221 236.334 202.047V202.015C236.334 201.678 236.228 201.417 236.015 201.232C235.805 201.047 235.507 200.955 235.12 200.955C234.712 200.955 234.387 201.046 234.145 201.227C233.904 201.404 233.744 201.628 233.666 201.898L231.567 201.728C231.674 201.23 231.883 200.801 232.196 200.438C232.508 200.073 232.911 199.792 233.405 199.597C233.902 199.398 234.477 199.299 235.131 199.299C235.585 199.299 236.02 199.352 236.436 199.458C236.855 199.565 237.226 199.73 237.549 199.954C237.876 200.177 238.133 200.465 238.321 200.817C238.509 201.165 238.604 201.582 238.604 202.068V207.587H236.452V206.452H236.388C236.256 206.708 236.08 206.934 235.86 207.129C235.64 207.321 235.376 207.472 235.067 207.582C234.758 207.688 234.401 207.741 233.996 207.741ZM234.646 206.175C234.98 206.175 235.274 206.11 235.53 205.978C235.786 205.843 235.986 205.662 236.132 205.435C236.278 205.208 236.35 204.95 236.35 204.663V203.794C236.279 203.84 236.182 203.883 236.057 203.922C235.937 203.958 235.8 203.991 235.647 204.023C235.495 204.052 235.342 204.078 235.189 204.103C235.036 204.125 234.898 204.144 234.774 204.162C234.507 204.201 234.275 204.263 234.076 204.348C233.877 204.434 233.723 204.549 233.612 204.695C233.502 204.837 233.447 205.014 233.447 205.227C233.447 205.536 233.559 205.772 233.783 205.936C234.01 206.095 234.298 206.175 234.646 206.175ZM249.796 199.815C249.754 199.386 249.571 199.052 249.248 198.814C248.924 198.576 248.486 198.457 247.932 198.457C247.556 198.457 247.238 198.51 246.978 198.617C246.719 198.72 246.52 198.864 246.382 199.048C246.247 199.233 246.179 199.442 246.179 199.677C246.172 199.872 246.213 200.043 246.302 200.188C246.394 200.334 246.52 200.46 246.68 200.566C246.84 200.669 247.025 200.76 247.234 200.838C247.444 200.913 247.667 200.976 247.905 201.03L248.885 201.264C249.361 201.371 249.798 201.513 250.196 201.69C250.594 201.868 250.938 202.086 251.229 202.345C251.52 202.605 251.746 202.91 251.906 203.262C252.069 203.613 252.152 204.016 252.156 204.471C252.152 205.138 251.982 205.717 251.645 206.207C251.311 206.694 250.828 207.072 250.196 207.342C249.567 207.608 248.809 207.741 247.921 207.741C247.041 207.741 246.274 207.606 245.62 207.337C244.97 207.067 244.462 206.667 244.097 206.138C243.735 205.605 243.545 204.947 243.527 204.162H245.759C245.784 204.528 245.888 204.833 246.073 205.078C246.261 205.32 246.511 205.502 246.824 205.627C247.14 205.747 247.497 205.808 247.895 205.808C248.285 205.808 248.624 205.751 248.912 205.637C249.203 205.524 249.429 205.366 249.589 205.163C249.748 204.961 249.828 204.728 249.828 204.465C249.828 204.22 249.755 204.014 249.61 203.848C249.468 203.681 249.258 203.539 248.981 203.421C248.708 203.304 248.372 203.198 247.975 203.102L246.787 202.804C245.867 202.58 245.141 202.23 244.608 201.754C244.075 201.278 243.811 200.637 243.814 199.831C243.811 199.171 243.987 198.594 244.342 198.1C244.7 197.606 245.192 197.221 245.817 196.944C246.442 196.667 247.152 196.529 247.948 196.529C248.758 196.529 249.464 196.667 250.068 196.944C250.675 197.221 251.148 197.606 251.485 198.1C251.822 198.594 251.996 199.165 252.007 199.815H249.796ZM257.394 207.747C256.552 207.747 255.827 207.576 255.22 207.235C254.617 206.891 254.151 206.404 253.825 205.776C253.498 205.144 253.335 204.396 253.335 203.533C253.335 202.692 253.498 201.953 253.825 201.317C254.151 200.682 254.611 200.186 255.204 199.831C255.801 199.476 256.5 199.299 257.303 199.299C257.843 199.299 258.345 199.386 258.81 199.56C259.279 199.73 259.688 199.987 260.036 200.332C260.387 200.676 260.661 201.11 260.856 201.632C261.051 202.15 261.149 202.757 261.149 203.453V204.077H254.24V202.67H259.013C259.013 202.344 258.942 202.054 258.8 201.802C258.658 201.55 258.461 201.353 258.208 201.211C257.96 201.065 257.67 200.992 257.34 200.992C256.996 200.992 256.69 201.072 256.424 201.232C256.161 201.388 255.955 201.6 255.806 201.866C255.657 202.129 255.581 202.422 255.577 202.745V204.082C255.577 204.487 255.652 204.837 255.801 205.131C255.954 205.426 256.168 205.653 256.445 205.813C256.722 205.973 257.051 206.053 257.431 206.053C257.683 206.053 257.914 206.017 258.123 205.946C258.333 205.875 258.512 205.769 258.661 205.627C258.81 205.485 258.924 205.311 259.002 205.105L261.101 205.243C260.994 205.747 260.776 206.188 260.446 206.564C260.119 206.937 259.696 207.228 259.178 207.438C258.663 207.644 258.068 207.747 257.394 207.747ZM264.899 202.857V207.587H262.63V199.405H264.792V200.849H264.888C265.069 200.373 265.373 199.996 265.799 199.719C266.225 199.439 266.742 199.299 267.349 199.299C267.917 199.299 268.413 199.423 268.835 199.671C269.258 199.92 269.586 200.275 269.821 200.737C270.055 201.195 270.172 201.742 270.172 202.377V207.587H267.903V202.782C267.907 202.282 267.779 201.891 267.52 201.61C267.26 201.326 266.903 201.184 266.449 201.184C266.144 201.184 265.874 201.25 265.639 201.381C265.408 201.513 265.227 201.704 265.096 201.957C264.968 202.205 264.902 202.505 264.899 202.857ZM274.23 202.857V207.587H271.961V196.678H274.166V200.849H274.262C274.447 200.366 274.745 199.987 275.157 199.714C275.569 199.437 276.085 199.299 276.707 199.299C277.275 199.299 277.77 199.423 278.193 199.671C278.619 199.916 278.949 200.27 279.184 200.731C279.422 201.19 279.539 201.738 279.535 202.377V207.587H277.266V202.782C277.27 202.278 277.142 201.886 276.883 201.605C276.627 201.324 276.268 201.184 275.807 201.184C275.498 201.184 275.224 201.25 274.986 201.381C274.752 201.513 274.567 201.704 274.432 201.957C274.301 202.205 274.233 202.505 274.23 202.857ZM283.654 207.741C283.132 207.741 282.667 207.651 282.259 207.47C281.85 207.285 281.527 207.013 281.289 206.655C281.055 206.293 280.938 205.842 280.938 205.302C280.938 204.847 281.021 204.465 281.188 204.157C281.355 203.848 281.582 203.599 281.87 203.411C282.157 203.223 282.484 203.081 282.85 202.985C283.219 202.889 283.606 202.821 284.011 202.782C284.487 202.733 284.87 202.686 285.162 202.644C285.453 202.598 285.664 202.53 285.795 202.441C285.927 202.353 285.993 202.221 285.993 202.047V202.015C285.993 201.678 285.886 201.417 285.673 201.232C285.463 201.047 285.165 200.955 284.778 200.955C284.37 200.955 284.045 201.046 283.803 201.227C283.562 201.404 283.402 201.628 283.324 201.898L281.225 201.728C281.332 201.23 281.541 200.801 281.854 200.438C282.166 200.073 282.569 199.792 283.063 199.597C283.56 199.398 284.135 199.299 284.789 199.299C285.243 199.299 285.678 199.352 286.094 199.458C286.513 199.565 286.884 199.73 287.207 199.954C287.534 200.177 287.791 200.465 287.979 200.817C288.168 201.165 288.262 201.582 288.262 202.068V207.587H286.11V206.452H286.046C285.914 206.708 285.739 206.934 285.519 207.129C285.298 207.321 285.034 207.472 284.725 207.582C284.416 207.688 284.059 207.741 283.654 207.741ZM284.304 206.175C284.638 206.175 284.933 206.11 285.188 205.978C285.444 205.843 285.645 205.662 285.79 205.435C285.936 205.208 286.009 204.95 286.009 204.663V203.794C285.938 203.84 285.84 203.883 285.716 203.922C285.595 203.958 285.458 203.991 285.305 204.023C285.153 204.052 285 204.078 284.847 204.103C284.695 204.125 284.556 204.144 284.432 204.162C284.166 204.201 283.933 204.263 283.734 204.348C283.535 204.434 283.381 204.549 283.271 204.695C283.161 204.837 283.106 205.014 283.106 205.227C283.106 205.536 283.217 205.772 283.441 205.936C283.668 206.095 283.956 206.175 284.304 206.175Z" fill="black"/>
<rect x="190" y="124" width="220" height="55" fill="white"/>
<line x1="202.222" y1="172.522" x2="397.778" y2="172.522" stroke="black"/>
<path d="M212.796 134.497H210.463C210.42 134.195 210.333 133.927 210.202 133.693C210.07 133.455 209.902 133.252 209.696 133.085C209.49 132.919 209.252 132.791 208.982 132.702C208.715 132.613 208.426 132.569 208.114 132.569C207.549 132.569 207.057 132.709 206.638 132.99C206.219 133.267 205.894 133.671 205.663 134.204C205.432 134.733 205.317 135.376 205.317 136.132C205.317 136.91 205.432 137.563 205.663 138.093C205.898 138.622 206.224 139.021 206.643 139.291C207.062 139.561 207.547 139.696 208.098 139.696C208.406 139.696 208.692 139.655 208.955 139.573C209.221 139.492 209.458 139.373 209.664 139.217C209.87 139.057 210.04 138.863 210.175 138.636C210.313 138.409 210.409 138.149 210.463 137.858L212.796 137.869C212.735 138.37 212.584 138.853 212.343 139.318C212.105 139.779 211.784 140.193 211.379 140.559C210.977 140.921 210.498 141.209 209.941 141.422C209.387 141.631 208.76 141.736 208.06 141.736C207.087 141.736 206.217 141.516 205.45 141.076C204.687 140.635 204.083 139.998 203.639 139.163C203.199 138.329 202.979 137.318 202.979 136.132C202.979 134.943 203.202 133.931 203.65 133.096C204.097 132.262 204.704 131.626 205.471 131.189C206.239 130.749 207.101 130.529 208.06 130.529C208.692 130.529 209.278 130.617 209.818 130.795C210.361 130.973 210.843 131.232 211.262 131.573C211.681 131.91 212.022 132.324 212.284 132.814C212.551 133.304 212.721 133.865 212.796 134.497ZM214.45 141.587V130.678H218.754C219.581 130.678 220.286 130.836 220.868 131.152C221.451 131.464 221.895 131.899 222.2 132.457C222.509 133.011 222.663 133.65 222.663 134.375C222.663 135.099 222.507 135.738 222.195 136.292C221.882 136.846 221.429 137.278 220.836 137.587C220.247 137.896 219.533 138.05 218.695 138.05H215.952V136.202H218.322C218.766 136.202 219.132 136.125 219.419 135.973C219.711 135.816 219.927 135.601 220.069 135.328C220.215 135.051 220.288 134.733 220.288 134.375C220.288 134.012 220.215 133.696 220.069 133.426C219.927 133.153 219.711 132.942 219.419 132.793C219.128 132.64 218.759 132.563 218.311 132.563H216.756V141.587H214.45ZM224.162 141.587V130.678H231.385V132.579H226.468V135.179H230.905V137.081H226.468V141.587H224.162Z" fill="black"/>
<path d="M206.677 72V54.5455H213.564C214.882 54.5455 216.007 54.7812 216.939 55.2528C217.876 55.7187 218.589 56.3807 219.078 57.2386C219.572 58.0909 219.819 59.0937 219.819 60.2472C219.819 61.4062 219.569 62.4034 219.069 63.2386C218.569 64.0682 217.845 64.7045 216.896 65.1477C215.953 65.5909 214.811 65.8125 213.47 65.8125H208.859V62.8466H212.873C213.578 62.8466 214.163 62.75 214.629 62.5568C215.095 62.3636 215.441 62.0739 215.669 61.6875C215.902 61.3011 216.018 60.821 216.018 60.2472C216.018 59.6676 215.902 59.179 215.669 58.7812C215.441 58.3835 215.092 58.0824 214.62 57.8778C214.154 57.6676 213.566 57.5625 212.856 57.5625H210.368V72H206.677ZM216.103 64.0568L220.441 72H216.368L212.123 64.0568H216.103ZM228.114 72.2557C226.767 72.2557 225.608 71.983 224.637 71.4375C223.671 70.8864 222.926 70.108 222.404 69.1023C221.881 68.0909 221.62 66.8949 221.62 65.5142C221.62 64.1676 221.881 62.9858 222.404 61.9688C222.926 60.9517 223.662 60.1591 224.611 59.5909C225.566 59.0227 226.685 58.7386 227.969 58.7386C228.833 58.7386 229.637 58.8778 230.381 59.1562C231.131 59.429 231.784 59.8409 232.341 60.392C232.904 60.9432 233.341 61.6364 233.654 62.4716C233.966 63.3011 234.123 64.2727 234.123 65.3864V66.3835H223.069V64.1335H230.705C230.705 63.6108 230.591 63.1477 230.364 62.7443C230.137 62.3409 229.821 62.0256 229.418 61.7983C229.02 61.5653 228.557 61.4489 228.029 61.4489C227.478 61.4489 226.989 61.5767 226.563 61.8324C226.142 62.0824 225.813 62.4205 225.574 62.8466C225.336 63.267 225.213 63.7358 225.208 64.2528V66.392C225.208 67.0398 225.327 67.5994 225.566 68.071C225.81 68.5426 226.154 68.9062 226.597 69.1619C227.04 69.4176 227.566 69.5455 228.174 69.5455C228.577 69.5455 228.946 69.4886 229.282 69.375C229.617 69.2614 229.904 69.0909 230.142 68.8636C230.381 68.6364 230.563 68.358 230.688 68.0284L234.046 68.25C233.875 69.0568 233.526 69.7614 232.998 70.3636C232.475 70.9602 231.799 71.4261 230.969 71.7614C230.145 72.0909 229.194 72.2557 228.114 72.2557ZM242.407 72.2557C241.066 72.2557 239.912 71.9716 238.946 71.4034C237.986 70.8295 237.248 70.0341 236.73 69.017C236.219 68 235.963 66.8295 235.963 65.5057C235.963 64.1648 236.222 62.9886 236.739 61.9773C237.262 60.9602 238.003 60.1676 238.963 59.5994C239.924 59.0256 241.066 58.7386 242.39 58.7386C243.532 58.7386 244.532 58.946 245.39 59.3608C246.248 59.7756 246.926 60.358 247.426 61.108C247.926 61.858 248.202 62.7386 248.253 63.75H244.827C244.73 63.0966 244.475 62.571 244.06 62.1733C243.651 61.7699 243.114 61.5682 242.449 61.5682C241.887 61.5682 241.395 61.7216 240.975 62.0284C240.56 62.3295 240.236 62.7699 240.003 63.3494C239.77 63.929 239.654 64.6307 239.654 65.4545C239.654 66.2898 239.767 67 239.995 67.5852C240.228 68.1705 240.554 68.6165 240.975 68.9233C241.395 69.2301 241.887 69.3835 242.449 69.3835C242.864 69.3835 243.236 69.2983 243.566 69.1278C243.901 68.9574 244.176 68.7102 244.392 68.3864C244.614 68.0568 244.759 67.6619 244.827 67.2017H248.253C248.196 68.2017 247.924 69.0824 247.435 69.8438C246.952 70.5994 246.284 71.1903 245.432 71.6165C244.58 72.0426 243.571 72.2557 242.407 72.2557ZM258.973 66.4261V58.9091H262.603V72H259.118V69.6222H258.981C258.686 70.3892 258.194 71.0057 257.507 71.4716C256.825 71.9375 255.993 72.1705 255.01 72.1705C254.135 72.1705 253.365 71.9716 252.7 71.5739C252.035 71.1761 251.515 70.6108 251.14 69.8778C250.771 69.1449 250.583 68.267 250.578 67.2443V58.9091H254.208V66.5966C254.214 67.3693 254.422 67.9801 254.831 68.429C255.24 68.8778 255.788 69.1023 256.475 69.1023C256.913 69.1023 257.322 69.0028 257.703 68.804C258.083 68.5994 258.39 68.2983 258.623 67.9006C258.862 67.5028 258.978 67.0114 258.973 66.4261ZM265.507 76.9091V58.9091H269.087V61.108H269.249C269.408 60.7557 269.638 60.3977 269.939 60.0341C270.246 59.6648 270.644 59.358 271.132 59.1136C271.627 58.8636 272.24 58.7386 272.973 58.7386C273.928 58.7386 274.809 58.9886 275.615 59.4886C276.422 59.983 277.067 60.7301 277.55 61.7301C278.033 62.7244 278.275 63.9716 278.275 65.4716C278.275 66.9318 278.039 68.1648 277.567 69.1705C277.101 70.1705 276.465 70.929 275.658 71.446C274.857 71.9574 273.959 72.2131 272.965 72.2131C272.26 72.2131 271.661 72.0966 271.167 71.8636C270.678 71.6307 270.277 71.3381 269.965 70.9858C269.652 70.6278 269.414 70.267 269.249 69.9034H269.138V76.9091H265.507ZM269.061 65.4545C269.061 66.233 269.169 66.9119 269.385 67.4915C269.601 68.071 269.914 68.5227 270.323 68.8466C270.732 69.1648 271.229 69.3239 271.814 69.3239C272.405 69.3239 272.905 69.1619 273.314 68.8381C273.723 68.5085 274.033 68.054 274.243 67.4744C274.459 66.8892 274.567 66.2159 274.567 65.4545C274.567 64.6989 274.462 64.0341 274.252 63.4602C274.042 62.8864 273.732 62.4375 273.323 62.1136C272.914 61.7898 272.411 61.6278 271.814 61.6278C271.223 61.6278 270.723 61.7841 270.314 62.0966C269.911 62.4091 269.601 62.8523 269.385 63.4261C269.169 64 269.061 64.6761 269.061 65.4545ZM286.661 72.2557C285.314 72.2557 284.155 71.983 283.184 71.4375C282.218 70.8864 281.473 70.108 280.951 69.1023C280.428 68.0909 280.167 66.8949 280.167 65.5142C280.167 64.1676 280.428 62.9858 280.951 61.9688C281.473 60.9517 282.209 60.1591 283.158 59.5909C284.113 59.0227 285.232 58.7386 286.516 58.7386C287.38 58.7386 288.184 58.8778 288.928 59.1562C289.678 59.429 290.331 59.8409 290.888 60.392C291.451 60.9432 291.888 61.6364 292.201 62.4716C292.513 63.3011 292.669 64.2727 292.669 65.3864V66.3835H281.615V64.1335H289.252C289.252 63.6108 289.138 63.1477 288.911 62.7443C288.684 62.3409 288.368 62.0256 287.965 61.7983C287.567 61.5653 287.104 61.4489 286.576 61.4489C286.025 61.4489 285.536 61.5767 285.11 61.8324C284.689 62.0824 284.36 62.4205 284.121 62.8466C283.882 63.267 283.76 63.7358 283.755 64.2528V66.392C283.755 67.0398 283.874 67.5994 284.113 68.071C284.357 68.5426 284.701 68.9062 285.144 69.1619C285.587 69.4176 286.113 69.5455 286.721 69.5455C287.124 69.5455 287.493 69.4886 287.828 69.375C288.164 69.2614 288.451 69.0909 288.689 68.8636C288.928 68.6364 289.11 68.358 289.235 68.0284L292.593 68.25C292.422 69.0568 292.073 69.7614 291.544 70.3636C291.022 70.9602 290.346 71.4261 289.516 71.7614C288.692 72.0909 287.74 72.2557 286.661 72.2557ZM295.039 72V58.9091H298.559V61.1932H298.695C298.934 60.3807 299.334 59.767 299.897 59.3523C300.459 58.9318 301.107 58.7216 301.84 58.7216C302.022 58.7216 302.218 58.733 302.428 58.7557C302.638 58.7784 302.823 58.8097 302.982 58.8494V62.071C302.811 62.0199 302.576 61.9744 302.275 61.9347C301.973 61.8949 301.698 61.875 301.448 61.875C300.914 61.875 300.436 61.9915 300.016 62.2244C299.601 62.4517 299.272 62.7699 299.027 63.179C298.789 63.5881 298.669 64.0597 298.669 64.5938V72H295.039ZM308.217 72.2472C307.382 72.2472 306.637 72.1023 305.984 71.8125C305.331 71.517 304.814 71.0824 304.433 70.5085C304.058 69.929 303.87 69.2074 303.87 68.3438C303.87 67.6165 304.004 67.0057 304.271 66.5114C304.538 66.017 304.902 65.6193 305.362 65.3182C305.822 65.017 306.345 64.7898 306.93 64.6364C307.521 64.483 308.14 64.375 308.788 64.3125C309.549 64.233 310.163 64.1591 310.629 64.0909C311.095 64.017 311.433 63.9091 311.643 63.767C311.853 63.625 311.958 63.4148 311.958 63.1364V63.0852C311.958 62.5455 311.788 62.1278 311.447 61.8324C311.112 61.5369 310.635 61.3892 310.015 61.3892C309.362 61.3892 308.842 61.5341 308.456 61.8239C308.069 62.108 307.814 62.4659 307.689 62.8977L304.331 62.625C304.501 61.8295 304.836 61.142 305.336 60.5625C305.836 59.9773 306.481 59.5284 307.271 59.2159C308.066 58.8977 308.987 58.7386 310.032 58.7386C310.76 58.7386 311.456 58.8239 312.12 58.9943C312.791 59.1648 313.385 59.429 313.902 59.7869C314.424 60.1449 314.836 60.6051 315.137 61.1676C315.439 61.7244 315.589 62.392 315.589 63.1705V72H312.146V70.1847H312.044C311.833 70.5938 311.552 70.9545 311.2 71.267C310.848 71.5739 310.424 71.8153 309.93 71.9915C309.436 72.1619 308.865 72.2472 308.217 72.2472ZM309.257 69.7415C309.791 69.7415 310.262 69.6364 310.672 69.4261C311.081 69.2102 311.402 68.9205 311.635 68.5568C311.868 68.1932 311.984 67.7812 311.984 67.321V65.9318C311.87 66.0057 311.714 66.0739 311.515 66.1364C311.322 66.1932 311.103 66.2472 310.859 66.2983C310.615 66.3437 310.37 66.3864 310.126 66.4261C309.882 66.4602 309.66 66.4915 309.461 66.5199C309.035 66.5824 308.663 66.6818 308.345 66.8182C308.027 66.9545 307.779 67.1392 307.603 67.3722C307.427 67.5994 307.339 67.8835 307.339 68.2244C307.339 68.7188 307.518 69.0966 307.876 69.358C308.24 69.6136 308.7 69.7415 309.257 69.7415ZM324.321 72.2557C322.98 72.2557 321.826 71.9716 320.86 71.4034C319.9 70.8295 319.162 70.0341 318.645 69.017C318.133 68 317.877 66.8295 317.877 65.5057C317.877 64.1648 318.136 62.9886 318.653 61.9773C319.176 60.9602 319.917 60.1676 320.877 59.5994C321.838 59.0256 322.98 58.7386 324.304 58.7386C325.446 58.7386 326.446 58.946 327.304 59.3608C328.162 59.7756 328.841 60.358 329.341 61.108C329.841 61.858 330.116 62.7386 330.167 63.75H326.741C326.645 63.0966 326.389 62.571 325.974 62.1733C325.565 61.7699 325.028 61.5682 324.363 61.5682C323.801 61.5682 323.309 61.7216 322.889 62.0284C322.474 62.3295 322.15 62.7699 321.917 63.3494C321.684 63.929 321.568 64.6307 321.568 65.4545C321.568 66.2898 321.681 67 321.909 67.5852C322.142 68.1705 322.468 68.6165 322.889 68.9233C323.309 69.2301 323.801 69.3835 324.363 69.3835C324.778 69.3835 325.15 69.2983 325.48 69.1278C325.815 68.9574 326.091 68.7102 326.306 68.3864C326.528 68.0568 326.673 67.6619 326.741 67.2017H330.167C330.11 68.2017 329.838 69.0824 329.349 69.8438C328.866 70.5994 328.199 71.1903 327.346 71.6165C326.494 72.0426 325.485 72.2557 324.321 72.2557ZM323.468 71.9318H325.139L325.002 72.6733C325.588 72.7642 326.065 72.983 326.434 73.3295C326.809 73.6761 327 74.1477 327.005 74.7443C327.011 75.5909 326.619 76.2642 325.829 76.7642C325.039 77.2699 323.931 77.5227 322.505 77.5227L322.471 75.9034C323.187 75.9034 323.747 75.8153 324.15 75.6392C324.559 75.4688 324.772 75.2017 324.789 74.8381C324.801 74.4915 324.667 74.2273 324.389 74.0455C324.11 73.8636 323.676 73.7358 323.085 73.6619L323.468 71.9318ZM336.225 72.2472C335.39 72.2472 334.645 72.1023 333.992 71.8125C333.338 71.517 332.821 71.0824 332.441 70.5085C332.066 69.929 331.878 69.2074 331.878 68.3438C331.878 67.6165 332.012 67.0057 332.279 66.5114C332.546 66.017 332.909 65.6193 333.37 65.3182C333.83 65.017 334.353 64.7898 334.938 64.6364C335.529 64.483 336.148 64.375 336.796 64.3125C337.557 64.233 338.171 64.1591 338.637 64.0909C339.103 64.017 339.441 63.9091 339.651 63.767C339.861 63.625 339.966 63.4148 339.966 63.1364V63.0852C339.966 62.5455 339.796 62.1278 339.455 61.8324C339.12 61.5369 338.642 61.3892 338.023 61.3892C337.37 61.3892 336.85 61.5341 336.463 61.8239C336.077 62.108 335.821 62.4659 335.696 62.8977L332.338 62.625C332.509 61.8295 332.844 61.142 333.344 60.5625C333.844 59.9773 334.489 59.5284 335.279 59.2159C336.074 58.8977 336.995 58.7386 338.04 58.7386C338.767 58.7386 339.463 58.8239 340.128 58.9943C340.799 59.1648 341.392 59.429 341.909 59.7869C342.432 60.1449 342.844 60.6051 343.145 61.1676C343.446 61.7244 343.597 62.392 343.597 63.1705V72H340.154V70.1847H340.051C339.841 70.5938 339.56 70.9545 339.208 71.267C338.855 71.5739 338.432 71.8153 337.938 71.9915C337.444 72.1619 336.873 72.2472 336.225 72.2472ZM337.265 69.7415C337.799 69.7415 338.27 69.6364 338.679 69.4261C339.088 69.2102 339.409 68.9205 339.642 68.5568C339.875 68.1932 339.992 67.7812 339.992 67.321V65.9318C339.878 66.0057 339.722 66.0739 339.523 66.1364C339.33 66.1932 339.111 66.2472 338.867 66.2983C338.623 66.3437 338.378 66.3864 338.134 66.4261C337.89 66.4602 337.668 66.4915 337.469 66.5199C337.043 66.5824 336.671 66.6818 336.353 66.8182C336.034 66.9545 335.787 67.1392 335.611 67.3722C335.435 67.5994 335.347 67.8835 335.347 68.2244C335.347 68.7188 335.526 69.0966 335.884 69.358C336.248 69.6136 336.708 69.7415 337.265 69.7415ZM335.739 57.2983L333.719 57.2727C333.719 56.1875 333.986 55.3551 334.52 54.7756C335.06 54.196 335.716 53.9034 336.489 53.8977C336.887 53.8977 337.228 53.9631 337.512 54.0938C337.801 54.2188 338.06 54.3665 338.287 54.5369C338.52 54.7074 338.742 54.858 338.952 54.9886C339.162 55.1136 339.39 55.1761 339.634 55.1761C339.963 55.1705 340.213 55.0483 340.384 54.8097C340.56 54.5653 340.648 54.2472 340.648 53.8551L342.634 53.9148C342.623 54.9886 342.35 55.8182 341.816 56.4034C341.282 56.983 340.631 57.2756 339.864 57.2812C339.438 57.2812 339.08 57.2188 338.79 57.0938C338.506 56.9631 338.256 56.8153 338.04 56.6506C337.824 56.4801 337.614 56.3295 337.409 56.1989C337.205 56.0682 336.975 56.0028 336.719 56.0028C336.424 56.0028 336.185 56.1193 336.003 56.3523C335.827 56.5852 335.739 56.9006 335.739 57.2983ZM352.328 72.2557C351.005 72.2557 349.86 71.9744 348.894 71.4119C347.934 70.8437 347.192 70.054 346.669 69.0426C346.147 68.0256 345.885 66.8466 345.885 65.5057C345.885 64.1534 346.147 62.9716 346.669 61.9602C347.192 60.9432 347.934 60.1534 348.894 59.5909C349.86 59.0227 351.005 58.7386 352.328 58.7386C353.652 58.7386 354.794 59.0227 355.755 59.5909C356.721 60.1534 357.465 60.9432 357.988 61.9602C358.51 62.9716 358.772 64.1534 358.772 65.5057C358.772 66.8466 358.51 68.0256 357.988 69.0426C357.465 70.054 356.721 70.8437 355.755 71.4119C354.794 71.9744 353.652 72.2557 352.328 72.2557ZM352.346 69.4432C352.948 69.4432 353.451 69.2727 353.854 68.9318C354.257 68.5852 354.561 68.1136 354.766 67.517C354.976 66.9205 355.081 66.2415 355.081 65.4801C355.081 64.7188 354.976 64.0398 354.766 63.4432C354.561 62.8466 354.257 62.375 353.854 62.0284C353.451 61.6818 352.948 61.5085 352.346 61.5085C351.738 61.5085 351.226 61.6818 350.811 62.0284C350.402 62.375 350.093 62.8466 349.882 63.4432C349.678 64.0398 349.576 64.7188 349.576 65.4801C349.576 66.2415 349.678 66.9205 349.882 67.517C350.093 68.1136 350.402 68.5852 350.811 68.9318C351.226 69.2727 351.738 69.4432 352.346 69.4432ZM371.511 72.2131C370.517 72.2131 369.616 71.9574 368.809 71.446C368.008 70.929 367.372 70.1705 366.9 69.1705C366.434 68.1648 366.201 66.9318 366.201 65.4716C366.201 63.9716 366.443 62.7244 366.926 61.7301C367.409 60.7301 368.051 59.983 368.852 59.4886C369.659 58.9886 370.542 58.7386 371.502 58.7386C372.235 58.7386 372.846 58.8636 373.335 59.1136C373.829 59.358 374.227 59.6648 374.528 60.0341C374.835 60.3977 375.068 60.7557 375.227 61.108H375.338V54.5455H378.96V72H375.38V69.9034H375.227C375.056 70.267 374.815 70.6278 374.502 70.9858C374.196 71.3381 373.795 71.6307 373.301 71.8636C372.812 72.0966 372.216 72.2131 371.511 72.2131ZM372.662 69.3239C373.247 69.3239 373.741 69.1648 374.145 68.8466C374.554 68.5227 374.866 68.071 375.082 67.4915C375.304 66.9119 375.414 66.233 375.414 65.4545C375.414 64.6761 375.306 64 375.091 63.4261C374.875 62.8523 374.562 62.4091 374.153 62.0966C373.744 61.7841 373.247 61.6278 372.662 61.6278C372.065 61.6278 371.562 61.7898 371.153 62.1136C370.744 62.4375 370.434 62.8864 370.224 63.4602C370.014 64.0341 369.909 64.6989 369.909 65.4545C369.909 66.2159 370.014 66.8892 370.224 67.4744C370.44 68.054 370.75 68.5085 371.153 68.8381C371.562 69.1619 372.065 69.3239 372.662 69.3239ZM387.911 72.2557C386.564 72.2557 385.405 71.983 384.434 71.4375C383.468 70.8864 382.723 70.108 382.201 69.1023C381.678 68.0909 381.417 66.8949 381.417 65.5142C381.417 64.1676 381.678 62.9858 382.201 61.9688C382.723 60.9517 383.459 60.1591 384.408 59.5909C385.363 59.0227 386.482 58.7386 387.766 58.7386C388.63 58.7386 389.434 58.8778 390.178 59.1562C390.928 59.429 391.581 59.8409 392.138 60.392C392.701 60.9432 393.138 61.6364 393.451 62.4716C393.763 63.3011 393.919 64.2727 393.919 65.3864V66.3835H382.865V64.1335H390.502C390.502 63.6108 390.388 63.1477 390.161 62.7443C389.934 62.3409 389.618 62.0256 389.215 61.7983C388.817 61.5653 388.354 61.4489 387.826 61.4489C387.275 61.4489 386.786 61.5767 386.36 61.8324C385.939 62.0824 385.61 62.4205 385.371 62.8466C385.132 63.267 385.01 63.7358 385.005 64.2528V66.392C385.005 67.0398 385.124 67.5994 385.363 68.071C385.607 68.5426 385.951 68.9062 386.394 69.1619C386.837 69.4176 387.363 69.5455 387.971 69.5455C388.374 69.5455 388.743 69.4886 389.078 69.375C389.414 69.2614 389.701 69.0909 389.939 68.8636C390.178 68.6364 390.36 68.358 390.485 68.0284L393.843 68.25C393.672 69.0568 393.323 69.7614 392.794 70.3636C392.272 70.9602 391.596 71.4261 390.766 71.7614C389.942 72.0909 388.99 72.2557 387.911 72.2557ZM276.517 91.642L273.193 91.8466C273.136 91.5625 273.014 91.3068 272.826 91.0795C272.639 90.8466 272.392 90.6619 272.085 90.5256C271.784 90.3835 271.423 90.3125 271.002 90.3125C270.44 90.3125 269.966 90.4318 269.579 90.6705C269.193 90.9034 269 91.2159 269 91.608C269 91.9205 269.125 92.1847 269.375 92.4006C269.625 92.6165 270.054 92.7898 270.662 92.9205L273.031 93.3977C274.304 93.6591 275.252 94.0795 275.877 94.6591C276.502 95.2386 276.815 96 276.815 96.9432C276.815 97.8011 276.562 98.554 276.056 99.2017C275.556 99.8494 274.869 100.355 273.994 100.719C273.125 101.077 272.122 101.256 270.985 101.256C269.252 101.256 267.872 100.895 266.843 100.173C265.821 99.446 265.221 98.4574 265.045 97.2074L268.616 97.0199C268.724 97.5483 268.985 97.9517 269.4 98.2301C269.815 98.5028 270.346 98.6392 270.994 98.6392C271.63 98.6392 272.142 98.517 272.528 98.2727C272.92 98.0227 273.119 97.7017 273.125 97.3097C273.119 96.9801 272.98 96.7102 272.707 96.5C272.434 96.2841 272.014 96.1193 271.446 96.0057L269.179 95.554C267.9 95.2983 266.949 94.8551 266.324 94.2244C265.704 93.5937 265.395 92.7898 265.395 91.8125C265.395 90.9716 265.622 90.2472 266.076 89.6392C266.537 89.0312 267.181 88.5625 268.011 88.233C268.846 87.9034 269.824 87.7386 270.943 87.7386C272.596 87.7386 273.897 88.0881 274.846 88.7869C275.801 89.4858 276.358 90.4375 276.517 91.642ZM285.067 101.256C283.721 101.256 282.561 100.983 281.59 100.438C280.624 99.8864 279.88 99.108 279.357 98.1023C278.834 97.0909 278.573 95.8949 278.573 94.5142C278.573 93.1676 278.834 91.9858 279.357 90.9688C279.88 89.9517 280.615 89.1591 281.564 88.5909C282.519 88.0227 283.638 87.7386 284.922 87.7386C285.786 87.7386 286.59 87.8778 287.334 88.1562C288.084 88.429 288.738 88.8409 289.294 89.392C289.857 89.9432 290.294 90.6364 290.607 91.4716C290.919 92.3011 291.076 93.2727 291.076 94.3864V95.3835H280.022V93.1335H287.658C287.658 92.6108 287.544 92.1477 287.317 91.7443C287.09 91.3409 286.775 91.0256 286.371 90.7983C285.973 90.5653 285.51 90.4489 284.982 90.4489C284.431 90.4489 283.942 90.5767 283.516 90.8324C283.096 91.0824 282.766 91.4205 282.527 91.8466C282.289 92.267 282.167 92.7358 282.161 93.2528V95.392C282.161 96.0398 282.28 96.5994 282.519 97.071C282.763 97.5426 283.107 97.9062 283.55 98.1619C283.993 98.4176 284.519 98.5455 285.127 98.5455C285.53 98.5455 285.9 98.4886 286.235 98.375C286.57 98.2614 286.857 98.0909 287.096 97.8636C287.334 97.6364 287.516 97.358 287.641 97.0284L290.999 97.25C290.828 98.0568 290.479 98.7614 289.951 99.3636C289.428 99.9602 288.752 100.426 287.922 100.761C287.098 101.091 286.147 101.256 285.067 101.256ZM297.076 93.4318V101H293.445V87.9091H296.905V90.2188H297.059C297.348 89.4574 297.834 88.8551 298.516 88.4119C299.198 87.9631 300.025 87.7386 300.996 87.7386C301.905 87.7386 302.698 87.9375 303.374 88.3352C304.05 88.733 304.576 89.3011 304.951 90.0398C305.326 90.7727 305.513 91.6477 305.513 92.6648V101H301.882V93.3125C301.888 92.5114 301.684 91.8864 301.269 91.4375C300.854 90.983 300.283 90.7557 299.556 90.7557C299.067 90.7557 298.635 90.8608 298.26 91.071C297.891 91.2812 297.601 91.5881 297.391 91.9915C297.186 92.3892 297.081 92.8693 297.076 93.4318ZM312.005 93.4318V101H308.375V83.5455H311.903V90.2188H312.056C312.352 89.446 312.829 88.8409 313.488 88.4034C314.147 87.9602 314.974 87.7386 315.968 87.7386C316.877 87.7386 317.67 87.9375 318.346 88.3352C319.028 88.7273 319.556 89.2926 319.931 90.0312C320.312 90.7642 320.5 91.642 320.494 92.6648V101H316.863V93.3125C316.869 92.5057 316.664 91.8778 316.25 91.429C315.841 90.9801 315.267 90.7557 314.528 90.7557C314.034 90.7557 313.596 90.8608 313.216 91.071C312.841 91.2812 312.545 91.5881 312.329 91.9915C312.119 92.3892 312.011 92.8693 312.005 93.4318ZM327.084 101.247C326.249 101.247 325.505 101.102 324.851 100.812C324.198 100.517 323.681 100.082 323.3 99.5085C322.925 98.929 322.738 98.2074 322.738 97.3438C322.738 96.6165 322.871 96.0057 323.138 95.5114C323.405 95.017 323.769 94.6193 324.229 94.3182C324.689 94.017 325.212 93.7898 325.797 93.6364C326.388 93.483 327.007 93.375 327.655 93.3125C328.417 93.233 329.03 93.1591 329.496 93.0909C329.962 93.017 330.3 92.9091 330.51 92.767C330.721 92.625 330.826 92.4148 330.826 92.1364V92.0852C330.826 91.5455 330.655 91.1278 330.314 90.8324C329.979 90.5369 329.502 90.3892 328.882 90.3892C328.229 90.3892 327.709 90.5341 327.323 90.8239C326.936 91.108 326.681 91.4659 326.556 91.8977L323.198 91.625C323.368 90.8295 323.703 90.142 324.203 89.5625C324.703 88.9773 325.348 88.5284 326.138 88.2159C326.934 87.8977 327.854 87.7386 328.9 87.7386C329.627 87.7386 330.323 87.8239 330.988 87.9943C331.658 88.1648 332.252 88.429 332.769 88.7869C333.292 89.1449 333.703 89.6051 334.005 90.1676C334.306 90.7244 334.456 91.392 334.456 92.1705V101H331.013V99.1847H330.911C330.701 99.5938 330.419 99.9545 330.067 100.267C329.715 100.574 329.292 100.815 328.797 100.991C328.303 101.162 327.732 101.247 327.084 101.247ZM328.124 98.7415C328.658 98.7415 329.13 98.6364 329.539 98.4261C329.948 98.2102 330.269 97.9205 330.502 97.5568C330.735 97.1932 330.851 96.7812 330.851 96.321V94.9318C330.738 95.0057 330.581 95.0739 330.382 95.1364C330.189 95.1932 329.971 95.2472 329.726 95.2983C329.482 95.3437 329.238 95.3864 328.993 95.4261C328.749 95.4602 328.527 95.4915 328.328 95.5199C327.902 95.5824 327.53 95.6818 327.212 95.8182C326.894 95.9545 326.647 96.1392 326.471 96.3722C326.294 96.5994 326.206 96.8835 326.206 97.2244C326.206 97.7188 326.385 98.0966 326.743 98.358C327.107 98.6136 327.567 98.7415 328.124 98.7415Z" fill="black"/>
<defs>
<filter id="filter0_d_167_80" x="205" y="256" width="190" height="56" filterUnits="userSpaceOnUse" color-interpolation-filters="sRGB">
<feFlood flood-opacity="0" result="BackgroundImageFix"/>
<feColorMatrix in="SourceAlpha" type="matrix" values="0 0 0 0 0 0 0 0 0 0 0 0 0 0 0 0 0 0 127 0" result="hardAlpha"/>
<feOffset dy="4"/>
<feGaussianBlur stdDeviation="2"/>
<feComposite in2="hardAlpha" operator="out"/>
<feColorMatrix type="matrix" values="0 0 0 0 0 0 0 0 0 0 0 0 0 0 0 0 0 0 0.25 0"/>
<feBlend mode="normal" in2="BackgroundImageFix" result="effect1_dropShadow_167_80"/>
<feBlend mode="normal" in="SourceGraphic" in2="effect1_dropShadow_167_80" result="shape"/>
</filter>
<linearGradient id="paint0_linear_167_80" x1="300" y1="0" x2="300" y2="400" gradientUnits="userSpaceOnUse">
<stop stop-color="#00356E"/>
<stop offset="1" stop-color="#00356E"/>
</linearGradient>
</defs>
</svg>
