<svg width="600" height="400" viewBox="0 0 600 400" fill="none" xmlns="http://www.w3.org/2000/svg">
<rect width="600" height="400" fill="url(#paint0_linear_167_81)"/>
<rect x="25" y="25" width="550" height="350" rx="5" fill="white"/>
<path d="M25 30C25 27.2386 27.2386 25 30 25H570C572.761 25 575 27.2386 575 30V54.8295H25V30Z" fill="white" stroke="black" stroke-linejoin="bevel"/>
<path d="M392 25H569.7C572.461 25 574.7 27.2386 574.7 30V55H392V25Z" fill="white" stroke="black" stroke-linejoin="bevel"/>
<path d="M411.733 36.9744C411.659 36.7151 411.554 36.4861 411.419 36.2872C411.284 36.0848 411.119 35.9144 410.924 35.7759C410.732 35.6338 410.512 35.5255 410.263 35.4509C410.018 35.3764 409.746 35.3391 409.448 35.3391C408.891 35.3391 408.4 35.4776 407.978 35.7545C407.559 36.0315 407.232 36.4346 406.998 36.9637C406.763 37.4893 406.646 38.132 406.646 38.892C406.646 39.6519 406.762 40.2982 406.992 40.8309C407.223 41.3636 407.55 41.7702 407.973 42.0507C408.395 42.3277 408.894 42.4662 409.469 42.4662C409.991 42.4662 410.437 42.3739 410.806 42.1892C411.179 42.001 411.463 41.7364 411.659 41.3955C411.858 41.0546 411.957 40.6516 411.957 40.1864L412.426 40.2556H409.613V38.5191H414.178V39.8934C414.178 40.8522 413.976 41.6761 413.571 42.365C413.166 43.0504 412.609 43.5795 411.898 43.9523C411.188 44.3217 410.375 44.5063 409.459 44.5063C408.436 44.5063 407.538 44.2808 406.763 43.8298C405.989 43.3753 405.386 42.7308 404.952 41.8962C404.523 41.0582 404.308 40.0639 404.308 38.9133C404.308 38.0291 404.436 37.2407 404.691 36.5482C404.951 35.8522 405.313 35.2627 405.778 34.7798C406.243 34.2968 406.785 33.9293 407.403 33.6771C408.021 33.425 408.69 33.2989 409.411 33.2989C410.029 33.2989 410.604 33.3895 411.137 33.5706C411.669 33.7482 412.142 34.0003 412.554 34.327C412.969 34.6537 413.308 35.0425 413.571 35.4935C413.834 35.941 414.002 36.4346 414.077 36.9744H411.733ZM419.597 44.517C418.755 44.517 418.031 44.3465 417.423 44.0056C416.82 43.6612 416.355 43.1746 416.028 42.5461C415.701 41.914 415.538 41.1665 415.538 40.3036C415.538 39.4619 415.701 38.7233 416.028 38.0876C416.355 37.452 416.814 36.9566 417.407 36.6015C418.004 36.2464 418.704 36.0688 419.506 36.0688C420.046 36.0688 420.548 36.1558 421.014 36.3298C421.482 36.5003 421.891 36.7577 422.239 37.1022C422.59 37.4467 422.864 37.8799 423.059 38.4019C423.254 38.9204 423.352 39.5276 423.352 40.2237V40.8469H416.443V39.4406H421.216C421.216 39.1139 421.145 38.8245 421.003 38.5724C420.861 38.3202 420.664 38.1232 420.412 37.9811C420.163 37.8355 419.874 37.7627 419.544 37.7627C419.199 37.7627 418.894 37.8426 418.627 38.0024C418.365 38.1587 418.159 38.37 418.009 38.6363C417.86 38.8991 417.784 39.192 417.78 39.5152V40.8522C417.78 41.257 417.855 41.6068 418.004 41.9016C418.157 42.1963 418.372 42.4236 418.649 42.5834C418.926 42.7432 419.254 42.8231 419.634 42.8231C419.886 42.8231 420.117 42.7876 420.327 42.7166C420.536 42.6455 420.715 42.539 420.865 42.397C421.014 42.2549 421.127 42.0809 421.205 41.8749L423.304 42.0134C423.198 42.5177 422.979 42.958 422.649 43.3345C422.322 43.7073 421.9 43.9985 421.381 44.208C420.866 44.414 420.271 44.517 419.597 44.517ZM424.833 44.3572V36.1754H427.033V37.6029H427.118C427.267 37.0951 427.518 36.7116 427.869 36.4523C428.221 36.1896 428.626 36.0582 429.084 36.0582C429.197 36.0582 429.32 36.0653 429.451 36.0795C429.583 36.0937 429.698 36.1132 429.797 36.1381V38.1516C429.691 38.1196 429.544 38.0912 429.355 38.0663C429.167 38.0415 428.995 38.0291 428.839 38.0291C428.505 38.0291 428.207 38.1019 427.944 38.2474C427.684 38.3895 427.479 38.5884 427.326 38.844C427.177 39.0997 427.102 39.3945 427.102 39.7283V44.3572H424.833ZM434.318 44.517C433.477 44.517 432.752 44.3465 432.145 44.0056C431.541 43.6612 431.076 43.1746 430.75 42.5461C430.423 41.914 430.26 41.1665 430.26 40.3036C430.26 39.4619 430.423 38.7233 430.75 38.0876C431.076 37.452 431.536 36.9566 432.129 36.6015C432.726 36.2464 433.425 36.0688 434.228 36.0688C434.768 36.0688 435.27 36.1558 435.735 36.3298C436.204 36.5003 436.612 36.7577 436.96 37.1022C437.312 37.4467 437.585 37.8799 437.781 38.4019C437.976 38.9204 438.074 39.5276 438.074 40.2237V40.8469H431.165V39.4406H435.938C435.938 39.1139 435.867 38.8245 435.725 38.5724C435.583 38.3202 435.386 38.1232 435.133 37.9811C434.885 37.8355 434.595 37.7627 434.265 37.7627C433.921 37.7627 433.615 37.8426 433.349 38.0024C433.086 38.1587 432.88 38.37 432.731 38.6363C432.582 38.8991 432.506 39.192 432.502 39.5152V40.8522C432.502 41.257 432.577 41.6068 432.726 41.9016C432.878 42.1963 433.093 42.4236 433.37 42.5834C433.647 42.7432 433.976 42.8231 434.356 42.8231C434.608 42.8231 434.839 42.7876 435.048 42.7166C435.258 42.6455 435.437 42.539 435.586 42.397C435.735 42.2549 435.849 42.0809 435.927 41.8749L438.026 42.0134C437.919 42.5177 437.701 42.958 437.371 43.3345C437.044 43.7073 436.621 43.9985 436.103 44.208C435.588 44.414 434.993 44.517 434.318 44.517ZM441.824 39.6271V44.3572H439.555V36.1754H441.717V37.6189H441.813C441.994 37.143 442.298 36.7666 442.724 36.4896C443.15 36.2091 443.667 36.0688 444.274 36.0688C444.842 36.0688 445.338 36.1931 445.76 36.4417C446.183 36.6903 446.511 37.0454 446.746 37.507C446.98 37.9651 447.097 38.512 447.097 39.1477V44.3572H444.828V39.5525C444.832 39.0518 444.704 38.6612 444.445 38.3806C444.185 38.0965 443.828 37.9545 443.374 37.9545C443.068 37.9545 442.799 38.0202 442.564 38.1516C442.333 38.283 442.152 38.4747 442.021 38.7269C441.893 38.9754 441.827 39.2755 441.824 39.6271ZM452.582 44.517C451.744 44.517 451.023 44.3394 450.42 43.9843C449.82 43.6256 449.358 43.1285 449.035 42.4928C448.715 41.8572 448.555 41.1256 448.555 40.2982C448.555 39.4602 448.717 38.7251 449.04 38.093C449.367 37.4573 449.83 36.9619 450.43 36.6068C451.031 36.2482 451.744 36.0688 452.572 36.0688C453.286 36.0688 453.911 36.1984 454.447 36.4577C454.983 36.7169 455.407 37.0809 455.72 37.5496C456.032 38.0184 456.205 38.5688 456.237 39.2009H454.095C454.035 38.7925 453.875 38.4641 453.616 38.2155C453.36 37.9634 453.025 37.8373 452.609 37.8373C452.257 37.8373 451.95 37.9332 451.688 38.1249C451.428 38.3131 451.226 38.5884 451.08 38.9506C450.935 39.3128 450.862 39.7514 450.862 40.2663C450.862 40.7883 450.933 41.2322 451.075 41.5979C451.221 41.9637 451.425 42.2425 451.688 42.4342C451.95 42.626 452.257 42.7219 452.609 42.7219C452.868 42.7219 453.101 42.6686 453.307 42.5621C453.516 42.4555 453.689 42.3011 453.824 42.0987C453.962 41.8927 454.053 41.6459 454.095 41.3582H456.237C456.201 41.9832 456.031 42.5337 455.725 43.0095C455.423 43.4818 455.006 43.8511 454.473 44.1175C453.941 44.3838 453.31 44.517 452.582 44.517ZM457.689 44.3572V36.1754H459.959V44.3572H457.689ZM458.829 35.1207C458.492 35.1207 458.203 35.0088 457.961 34.7851C457.723 34.5578 457.604 34.2862 457.604 33.9701C457.604 33.6576 457.723 33.3895 457.961 33.1658C458.203 32.9385 458.492 32.8249 458.829 32.8249C459.167 32.8249 459.454 32.9385 459.692 33.1658C459.934 33.3895 460.054 33.6576 460.054 33.9701C460.054 34.2862 459.934 34.5578 459.692 34.7851C459.454 35.0088 459.167 35.1207 458.829 35.1207ZM464.109 44.5117C463.587 44.5117 463.122 44.4211 462.714 44.24C462.305 44.0553 461.982 43.7837 461.744 43.425C461.51 43.0628 461.393 42.6118 461.393 42.072C461.393 41.6175 461.476 41.2357 461.643 40.9268C461.81 40.6178 462.037 40.3693 462.325 40.181C462.613 39.9928 462.939 39.8508 463.305 39.7549C463.674 39.659 464.061 39.5916 464.466 39.5525C464.942 39.5028 465.326 39.4566 465.617 39.414C465.908 39.3678 466.119 39.3004 466.251 39.2116C466.382 39.1228 466.448 38.9914 466.448 38.8174V38.7854C466.448 38.4481 466.341 38.1871 466.128 38.0024C465.919 37.8178 465.62 37.7254 465.233 37.7254C464.825 37.7254 464.5 37.816 464.259 37.9971C464.017 38.1746 463.857 38.3984 463.779 38.6683L461.68 38.4978C461.787 38.0006 461.996 37.571 462.309 37.2087C462.621 36.843 463.025 36.5624 463.518 36.3671C464.015 36.1683 464.591 36.0688 465.244 36.0688C465.699 36.0688 466.134 36.1221 466.549 36.2286C466.968 36.3352 467.339 36.5003 467.662 36.724C467.989 36.9477 468.246 37.2354 468.435 37.5869C468.623 37.9349 468.717 38.3522 468.717 38.8387V44.3572H466.565V43.2226H466.501C466.37 43.4783 466.194 43.7038 465.974 43.8991C465.754 44.0908 465.489 44.2418 465.18 44.3519C464.871 44.4584 464.514 44.5117 464.109 44.5117ZM464.759 42.9456C465.093 42.9456 465.388 42.8799 465.643 42.7485C465.899 42.6136 466.1 42.4325 466.245 42.2052C466.391 41.9779 466.464 41.7205 466.464 41.4328V40.5646C466.393 40.6107 466.295 40.6533 466.171 40.6924C466.05 40.7279 465.913 40.7617 465.761 40.7936C465.608 40.822 465.455 40.8487 465.303 40.8735C465.15 40.8948 465.011 40.9144 464.887 40.9321C464.621 40.9712 464.388 41.0333 464.189 41.1185C463.99 41.2038 463.836 41.3192 463.726 41.4648C463.616 41.6068 463.561 41.7844 463.561 41.9974C463.561 42.3064 463.673 42.5425 463.896 42.7059C464.124 42.8657 464.411 42.9456 464.759 42.9456ZM470.477 44.3572V36.1754H472.677V37.6029H472.763C472.912 37.0951 473.162 36.7116 473.514 36.4523C473.865 36.1896 474.27 36.0582 474.728 36.0582C474.842 36.0582 474.964 36.0653 475.096 36.0795C475.227 36.0937 475.343 36.1132 475.442 36.1381V38.1516C475.335 38.1196 475.188 38.0912 475 38.0663C474.812 38.0415 474.639 38.0291 474.483 38.0291C474.149 38.0291 473.851 38.1019 473.588 38.2474C473.329 38.3895 473.123 38.5884 472.97 38.844C472.821 39.0997 472.747 39.3945 472.747 39.7283V44.3572H470.477ZM484.487 36.1754V37.8799H479.437V36.1754H484.487ZM480.593 44.3572V35.5841C480.593 34.9911 480.708 34.4992 480.939 34.1086C481.173 33.718 481.493 33.425 481.898 33.2297C482.303 33.0344 482.763 32.9367 483.278 32.9367C483.626 32.9367 483.943 32.9634 484.231 33.0166C484.522 33.0699 484.739 33.1178 484.881 33.1604L484.476 34.865C484.387 34.8366 484.277 34.8099 484.146 34.7851C484.018 34.7602 483.887 34.7478 483.752 34.7478C483.418 34.7478 483.185 34.8259 483.054 34.9822C482.922 35.1349 482.857 35.3497 482.857 35.6267V44.3572H480.593ZM491.12 40.8735V36.1754H493.389V44.3572H491.21V42.871H491.125C490.94 43.3504 490.633 43.7357 490.204 44.0269C489.777 44.3181 489.257 44.4637 488.643 44.4637C488.096 44.4637 487.615 44.3394 487.199 44.0908C486.784 43.8423 486.459 43.4889 486.225 43.0308C485.994 42.5727 485.877 42.0241 485.873 41.3849V36.1754H488.142V40.98C488.146 41.463 488.275 41.8447 488.531 42.1253C488.787 42.4058 489.129 42.5461 489.559 42.5461C489.832 42.5461 490.088 42.484 490.326 42.3597C490.564 42.2318 490.756 42.0436 490.901 41.795C491.051 41.5465 491.123 41.2393 491.12 40.8735ZM497.473 39.6271V44.3572H495.204V36.1754H497.367V37.6189H497.463C497.644 37.143 497.947 36.7666 498.373 36.4896C498.8 36.2091 499.316 36.0688 499.923 36.0688C500.492 36.0688 500.987 36.1931 501.41 36.4417C501.832 36.6903 502.161 37.0454 502.395 37.507C502.629 37.9651 502.747 38.512 502.747 39.1477V44.3572H500.477V39.5525C500.481 39.0518 500.353 38.6612 500.094 38.3806C499.835 38.0965 499.478 37.9545 499.023 37.9545C498.718 37.9545 498.448 38.0202 498.214 38.1516C497.983 38.283 497.802 38.4747 497.67 38.7269C497.542 38.9754 497.477 39.2755 497.473 39.6271ZM508.232 44.517C507.394 44.517 506.673 44.3394 506.069 43.9843C505.469 43.6256 505.007 43.1285 504.684 42.4928C504.365 41.8572 504.205 41.1256 504.205 40.2982C504.205 39.4602 504.366 38.7251 504.69 38.093C505.016 37.4573 505.48 36.9619 506.08 36.6068C506.68 36.2482 507.394 36.0688 508.221 36.0688C508.935 36.0688 509.56 36.1984 510.096 36.4577C510.632 36.7169 511.057 37.0809 511.369 37.5496C511.682 38.0184 511.854 38.5688 511.886 39.2009H509.745C509.684 38.7925 509.524 38.4641 509.265 38.2155C509.01 37.9634 508.674 37.8373 508.258 37.8373C507.907 37.8373 507.6 37.9332 507.337 38.1249C507.078 38.3131 506.875 38.5884 506.73 38.9506C506.584 39.3128 506.511 39.7514 506.511 40.2663C506.511 40.7883 506.582 41.2322 506.724 41.5979C506.87 41.9637 507.074 42.2425 507.337 42.4342C507.6 42.626 507.907 42.7219 508.258 42.7219C508.518 42.7219 508.75 42.6686 508.956 42.5621C509.166 42.4555 509.338 42.3011 509.473 42.0987C509.611 41.8927 509.702 41.6459 509.745 41.3582H511.886C511.85 41.9832 511.68 42.5337 511.375 43.0095C511.073 43.4818 510.655 43.8511 510.123 44.1175C509.59 44.3838 508.96 44.517 508.232 44.517ZM513.339 44.3572V36.1754H515.608V44.3572H513.339ZM514.479 35.1207C514.141 35.1207 513.852 35.0088 513.61 34.7851C513.373 34.5578 513.254 34.2862 513.254 33.9701C513.254 33.6576 513.373 33.3895 513.61 33.1658C513.852 32.9385 514.141 32.8249 514.479 32.8249C514.816 32.8249 515.104 32.9385 515.342 33.1658C515.583 33.3895 515.704 33.6576 515.704 33.9701C515.704 34.2862 515.583 34.5578 515.342 34.7851C515.104 35.0088 514.816 35.1207 514.479 35.1207ZM521.122 44.517C520.295 44.517 519.579 44.3412 518.976 43.9896C518.376 43.6345 517.912 43.1409 517.585 42.5088C517.259 41.8732 517.095 41.1363 517.095 40.2982C517.095 39.4531 517.259 38.7144 517.585 38.0823C517.912 37.4467 518.376 36.9531 518.976 36.6015C519.579 36.2464 520.295 36.0688 521.122 36.0688C521.95 36.0688 522.664 36.2464 523.264 36.6015C523.867 36.9531 524.333 37.4467 524.659 38.0823C524.986 38.7144 525.149 39.4531 525.149 40.2982C525.149 41.1363 524.986 41.8732 524.659 42.5088C524.333 43.1409 523.867 43.6345 523.264 43.9896C522.664 44.3412 521.95 44.517 521.122 44.517ZM521.133 42.7592C521.51 42.7592 521.824 42.6526 522.076 42.4396C522.328 42.2229 522.518 41.9282 522.646 41.5553C522.777 41.1825 522.843 40.7581 522.843 40.2822C522.843 39.8064 522.777 39.382 522.646 39.0092C522.518 38.6363 522.328 38.3416 522.076 38.1249C521.824 37.9083 521.51 37.8 521.133 37.8C520.753 37.8 520.434 37.9083 520.174 38.1249C519.919 38.3416 519.725 38.6363 519.594 39.0092C519.466 39.382 519.402 39.8064 519.402 40.2822C519.402 40.7581 519.466 41.1825 519.594 41.5553C519.725 41.9282 519.919 42.2229 520.174 42.4396C520.434 42.6526 520.753 42.7592 521.133 42.7592ZM528.894 39.6271V44.3572H526.625V36.1754H528.788V37.6189H528.883C529.065 37.143 529.368 36.7666 529.794 36.4896C530.22 36.2091 530.737 36.0688 531.344 36.0688C531.913 36.0688 532.408 36.1931 532.831 36.4417C533.253 36.6903 533.582 37.0454 533.816 37.507C534.05 37.9651 534.168 38.512 534.168 39.1477V44.3572H531.898V39.5525C531.902 39.0518 531.774 38.6612 531.515 38.3806C531.256 38.0965 530.899 37.9545 530.444 37.9545C530.139 37.9545 529.869 38.0202 529.635 38.1516C529.404 38.283 529.223 38.4747 529.091 38.7269C528.963 38.9754 528.898 39.2755 528.894 39.6271ZM538.289 44.5117C537.767 44.5117 537.302 44.4211 536.893 44.24C536.485 44.0553 536.162 43.7837 535.924 43.425C535.69 43.0628 535.572 42.6118 535.572 42.072C535.572 41.6175 535.656 41.2357 535.823 40.9268C535.99 40.6178 536.217 40.3693 536.505 40.181C536.792 39.9928 537.119 39.8508 537.485 39.7549C537.854 39.659 538.241 39.5916 538.646 39.5525C539.122 39.5028 539.505 39.4566 539.797 39.414C540.088 39.3678 540.299 39.3004 540.43 39.2116C540.562 39.1228 540.627 38.9914 540.627 38.8174V38.7854C540.627 38.4481 540.521 38.1871 540.308 38.0024C540.098 37.8178 539.8 37.7254 539.413 37.7254C539.005 37.7254 538.68 37.816 538.438 37.9971C538.197 38.1746 538.037 38.3984 537.959 38.6683L535.86 38.4978C535.967 38.0006 536.176 37.571 536.489 37.2087C536.801 36.843 537.204 36.5624 537.698 36.3671C538.195 36.1683 538.77 36.0688 539.424 36.0688C539.878 36.0688 540.313 36.1221 540.729 36.2286C541.148 36.3352 541.519 36.5003 541.842 36.724C542.169 36.9477 542.426 37.2354 542.614 37.5869C542.803 37.9349 542.897 38.3522 542.897 38.8387V44.3572H540.745V43.2226H540.681C540.549 43.4783 540.374 43.7038 540.153 43.8991C539.933 44.0908 539.669 44.2418 539.36 44.3519C539.051 44.4584 538.694 44.5117 538.289 44.5117ZM538.939 42.9456C539.273 42.9456 539.567 42.8799 539.823 42.7485C540.079 42.6136 540.279 42.4325 540.425 42.2052C540.571 41.9779 540.643 41.7205 540.643 41.4328V40.5646C540.572 40.6107 540.475 40.6533 540.351 40.6924C540.23 40.7279 540.093 40.7617 539.94 40.7936C539.788 40.822 539.635 40.8487 539.482 40.8735C539.33 40.8948 539.191 40.9144 539.067 40.9321C538.8 40.9712 538.568 41.0333 538.369 41.1185C538.17 41.2038 538.016 41.3192 537.906 41.4648C537.795 41.6068 537.74 41.7844 537.74 41.9974C537.74 42.3064 537.852 42.5425 538.076 42.7059C538.303 42.8657 538.591 42.9456 538.939 42.9456ZM538.694 35.1207L539.823 32.697H541.922L540.297 35.1207H538.694ZM544.657 44.3572V36.1754H546.857V37.6029H546.942C547.091 37.0951 547.342 36.7116 547.693 36.4523C548.045 36.1896 548.45 36.0582 548.908 36.0582C549.021 36.0582 549.144 36.0653 549.275 36.0795C549.407 36.0937 549.522 36.1132 549.622 36.1381V38.1516C549.515 38.1196 549.368 38.0912 549.18 38.0663C548.991 38.0415 548.819 38.0291 548.663 38.0291C548.329 38.0291 548.031 38.1019 547.768 38.2474C547.509 38.3895 547.303 38.5884 547.15 38.844C547.001 39.0997 546.926 39.3945 546.926 39.7283V44.3572H544.657ZM550.795 44.3572V36.1754H553.064V44.3572H550.795ZM551.935 35.1207C551.597 35.1207 551.308 35.0088 551.066 34.7851C550.829 34.5578 550.71 34.2862 550.71 33.9701C550.71 33.6576 550.829 33.3895 551.066 33.1658C551.308 32.9385 551.597 32.8249 551.935 32.8249C552.272 32.8249 552.56 32.9385 552.798 33.1658C553.039 33.3895 553.16 33.6576 553.16 33.9701C553.16 34.2862 553.039 34.5578 552.798 34.7851C552.56 35.0088 552.272 35.1207 551.935 35.1207ZM558.578 44.517C557.751 44.517 557.036 44.3412 556.432 43.9896C555.832 43.6345 555.368 43.1409 555.042 42.5088C554.715 41.8732 554.551 41.1363 554.551 40.2982C554.551 39.4531 554.715 38.7144 555.042 38.0823C555.368 37.4467 555.832 36.9531 556.432 36.6015C557.036 36.2464 557.751 36.0688 558.578 36.0688C559.406 36.0688 560.12 36.2464 560.72 36.6015C561.324 36.9531 561.789 37.4467 562.115 38.0823C562.442 38.7144 562.605 39.4531 562.605 40.2982C562.605 41.1363 562.442 41.8732 562.115 42.5088C561.789 43.1409 561.324 43.6345 560.72 43.9896C560.12 44.3412 559.406 44.517 558.578 44.517ZM558.589 42.7592C558.966 42.7592 559.28 42.6526 559.532 42.4396C559.784 42.2229 559.974 41.9282 560.102 41.5553C560.233 41.1825 560.299 40.7581 560.299 40.2822C560.299 39.8064 560.233 39.382 560.102 39.0092C559.974 38.6363 559.784 38.3416 559.532 38.1249C559.28 37.9083 558.966 37.8 558.589 37.8C558.209 37.8 557.89 37.9083 557.63 38.1249C557.375 38.3416 557.181 38.6363 557.05 39.0092C556.922 39.382 556.858 39.8064 556.858 40.2822C556.858 40.7581 556.922 41.1825 557.05 41.5553C557.181 41.9282 557.375 42.2229 557.63 42.4396C557.89 42.6526 558.209 42.7592 558.589 42.7592Z" fill="black" fill-opacity="0.5"/>
<path d="M209 25H391.7V55H209V25Z" fill="white" stroke="black" stroke-linejoin="bevel"/>
<path d="M230.598 37.2673H228.264C228.222 36.9655 228.135 36.6974 228.003 36.463C227.872 36.2251 227.703 36.0227 227.497 35.8558C227.291 35.6889 227.054 35.561 226.784 35.4722C226.517 35.3835 226.228 35.3391 225.915 35.3391C225.351 35.3391 224.859 35.4793 224.44 35.7599C224.021 36.0369 223.696 36.4417 223.465 36.9744C223.234 37.5035 223.119 38.1462 223.119 38.9026C223.119 39.6803 223.234 40.3337 223.465 40.8629C223.699 41.392 224.026 41.7915 224.445 42.0614C224.864 42.3313 225.349 42.4662 225.899 42.4662C226.208 42.4662 226.494 42.4254 226.757 42.3437C227.023 42.262 227.26 42.143 227.465 41.9868C227.671 41.827 227.842 41.6335 227.977 41.4062C228.115 41.1789 228.211 40.9197 228.264 40.6285L230.598 40.6391C230.537 41.1398 230.386 41.6228 230.145 42.088C229.907 42.5496 229.585 42.9634 229.181 43.3291C228.779 43.6913 228.3 43.979 227.742 44.192C227.188 44.4016 226.562 44.5063 225.862 44.5063C224.889 44.5063 224.019 44.2862 223.252 43.8458C222.489 43.4055 221.885 42.768 221.441 41.9335C221.001 41.099 220.78 40.0887 220.78 38.9026C220.78 37.713 221.004 36.7009 221.452 35.8664C221.899 35.0319 222.506 34.3962 223.273 33.9595C224.04 33.5191 224.903 33.2989 225.862 33.2989C226.494 33.2989 227.08 33.3877 227.62 33.5653C228.163 33.7428 228.644 34.0021 229.063 34.343C229.483 34.6803 229.823 35.094 230.086 35.5841C230.353 36.0742 230.523 36.6352 230.598 37.2673ZM234.542 44.5117C234.02 44.5117 233.555 44.4211 233.146 44.24C232.738 44.0553 232.415 43.7837 232.177 43.425C231.943 43.0628 231.825 42.6118 231.825 42.072C231.825 41.6175 231.909 41.2357 232.076 40.9268C232.243 40.6178 232.47 40.3693 232.758 40.181C233.045 39.9928 233.372 39.8508 233.738 39.7549C234.107 39.659 234.494 39.5916 234.899 39.5525C235.375 39.5028 235.758 39.4566 236.049 39.414C236.341 39.3678 236.552 39.3004 236.683 39.2116C236.815 39.1228 236.88 38.9914 236.88 38.8174V38.7854C236.88 38.4481 236.774 38.1871 236.561 38.0024C236.351 37.8178 236.053 37.7254 235.666 37.7254C235.258 37.7254 234.933 37.816 234.691 37.9971C234.45 38.1746 234.29 38.3984 234.212 38.6683L232.113 38.4978C232.22 38.0006 232.429 37.571 232.742 37.2087C233.054 36.843 233.457 36.5624 233.951 36.3671C234.448 36.1683 235.023 36.0688 235.677 36.0688C236.131 36.0688 236.566 36.1221 236.982 36.2286C237.401 36.3352 237.772 36.5003 238.095 36.724C238.422 36.9477 238.679 37.2354 238.867 37.5869C239.055 37.9349 239.15 38.3522 239.15 38.8387V44.3572H236.998V43.2226H236.934C236.802 43.4783 236.627 43.7038 236.406 43.8991C236.186 44.0908 235.922 44.2418 235.613 44.3519C235.304 44.4584 234.947 44.5117 234.542 44.5117ZM235.192 42.9456C235.526 42.9456 235.82 42.8799 236.076 42.7485C236.332 42.6136 236.532 42.4325 236.678 42.2052C236.824 41.9779 236.896 41.7205 236.896 41.4328V40.5646C236.825 40.6107 236.728 40.6533 236.603 40.6924C236.483 40.7279 236.346 40.7617 236.193 40.7936C236.041 40.822 235.888 40.8487 235.735 40.8735C235.582 40.8948 235.444 40.9144 235.32 40.9321C235.053 40.9712 234.821 41.0333 234.622 41.1185C234.423 41.2038 234.269 41.3192 234.158 41.4648C234.048 41.6068 233.993 41.7844 233.993 41.9974C233.993 42.3064 234.105 42.5425 234.329 42.7059C234.556 42.8657 234.844 42.9456 235.192 42.9456ZM243.925 44.4903C243.304 44.4903 242.741 44.3305 242.236 44.0109C241.736 43.6878 241.338 43.2137 241.043 42.5887C240.752 41.9602 240.606 41.1896 240.606 40.2769C240.606 39.3394 240.757 38.5599 241.059 37.9385C241.361 37.3135 241.762 36.8465 242.263 36.5376C242.767 36.2251 243.32 36.0688 243.92 36.0688C244.378 36.0688 244.76 36.147 245.065 36.3032C245.374 36.4559 245.622 36.6477 245.811 36.8785C246.002 37.1058 246.148 37.3295 246.247 37.5496H246.317V33.4481H248.581V44.3572H246.343V43.0468H246.247C246.141 43.2741 245.99 43.4996 245.795 43.7233C245.603 43.9435 245.353 44.1264 245.044 44.272C244.738 44.4175 244.365 44.4903 243.925 44.4903ZM244.644 42.6846C245.01 42.6846 245.319 42.5852 245.571 42.3863C245.827 42.1839 246.022 41.9016 246.157 41.5394C246.295 41.1771 246.365 40.7528 246.365 40.2663C246.365 39.7798 246.297 39.3572 246.162 38.9985C246.027 38.6398 245.832 38.3629 245.576 38.1675C245.321 37.9722 245.01 37.8746 244.644 37.8746C244.271 37.8746 243.957 37.9758 243.701 38.1782C243.446 38.3806 243.252 38.6612 243.121 39.0198C242.989 39.3785 242.924 39.794 242.924 40.2663C242.924 40.7421 242.989 41.1629 243.121 41.5287C243.256 41.8909 243.449 42.175 243.701 42.381C243.957 42.5834 244.271 42.6846 244.644 42.6846ZM252.779 44.5117C252.257 44.5117 251.792 44.4211 251.384 44.24C250.975 44.0553 250.652 43.7837 250.414 43.425C250.18 43.0628 250.063 42.6118 250.063 42.072C250.063 41.6175 250.146 41.2357 250.313 40.9268C250.48 40.6178 250.707 40.3693 250.995 40.181C251.282 39.9928 251.609 39.8508 251.975 39.7549C252.344 39.659 252.731 39.5916 253.136 39.5525C253.612 39.5028 253.996 39.4566 254.287 39.414C254.578 39.3678 254.789 39.3004 254.921 39.2116C255.052 39.1228 255.118 38.9914 255.118 38.8174V38.7854C255.118 38.4481 255.011 38.1871 254.798 38.0024C254.589 37.8178 254.29 37.7254 253.903 37.7254C253.495 37.7254 253.17 37.816 252.928 37.9971C252.687 38.1746 252.527 38.3984 252.449 38.6683L250.35 38.4978C250.457 38.0006 250.666 37.571 250.979 37.2087C251.291 36.843 251.694 36.5624 252.188 36.3671C252.685 36.1683 253.26 36.0688 253.914 36.0688C254.368 36.0688 254.803 36.1221 255.219 36.2286C255.638 36.3352 256.009 36.5003 256.332 36.724C256.659 36.9477 256.916 37.2354 257.105 37.5869C257.293 37.9349 257.387 38.3522 257.387 38.8387V44.3572H255.235V43.2226H255.171C255.04 43.4783 254.864 43.7038 254.644 43.8991C254.423 44.0908 254.159 44.2418 253.85 44.3519C253.541 44.4584 253.184 44.5117 252.779 44.5117ZM253.429 42.9456C253.763 42.9456 254.058 42.8799 254.313 42.7485C254.569 42.6136 254.77 42.4325 254.915 42.2052C255.061 41.9779 255.134 41.7205 255.134 41.4328V40.5646C255.063 40.6107 254.965 40.6533 254.841 40.6924C254.72 40.7279 254.583 40.7617 254.431 40.7936C254.278 40.822 254.125 40.8487 253.972 40.8735C253.82 40.8948 253.681 40.9144 253.557 40.9321C253.291 40.9712 253.058 41.0333 252.859 41.1185C252.66 41.2038 252.506 41.3192 252.396 41.4648C252.286 41.6068 252.231 41.7844 252.231 41.9974C252.231 42.3064 252.343 42.5425 252.566 42.7059C252.794 42.8657 253.081 42.9456 253.429 42.9456ZM265.955 38.5085L263.877 38.6363C263.842 38.4587 263.766 38.2989 263.648 38.1569C263.531 38.0113 263.377 37.8959 263.185 37.8107C262.997 37.7219 262.771 37.6775 262.509 37.6775C262.157 37.6775 261.86 37.7521 261.619 37.9012C261.377 38.0468 261.257 38.2421 261.257 38.4871C261.257 38.6825 261.335 38.8476 261.491 38.9825C261.647 39.1175 261.915 39.2258 262.295 39.3075L263.776 39.6058C264.572 39.7691 265.165 40.0319 265.555 40.3941C265.946 40.7563 266.141 41.2322 266.141 41.8217C266.141 42.3579 265.983 42.8284 265.667 43.2332C265.355 43.6381 264.925 43.9541 264.378 44.1814C263.835 44.4051 263.208 44.517 262.498 44.517C261.415 44.517 260.552 44.2915 259.909 43.8405C259.27 43.3859 258.895 42.768 258.785 41.9868L261.017 41.8696C261.085 42.1999 261.248 42.452 261.507 42.626C261.766 42.7965 262.098 42.8817 262.503 42.8817C262.901 42.8817 263.221 42.8053 263.462 42.6526C263.707 42.4964 263.831 42.2957 263.835 42.0507C263.831 41.8447 263.744 41.6761 263.574 41.5447C263.403 41.4097 263.141 41.3068 262.786 41.2357L261.369 40.9534C260.57 40.7936 259.975 40.5166 259.584 40.1224C259.197 39.7283 259.004 39.2258 259.004 38.615C259.004 38.0894 259.146 37.6367 259.43 37.2567C259.717 36.8767 260.12 36.5837 260.639 36.3778C261.161 36.1718 261.772 36.0688 262.471 36.0688C263.505 36.0688 264.318 36.2872 264.911 36.724C265.507 37.1608 265.855 37.7556 265.955 38.5085ZM271.922 36.1754V37.8799H266.995V36.1754H271.922ZM268.114 34.2151H270.383V41.843C270.383 42.0525 270.415 42.2158 270.479 42.333C270.543 42.4467 270.631 42.5266 270.745 42.5727C270.862 42.6189 270.997 42.642 271.15 42.642C271.256 42.642 271.363 42.6331 271.469 42.6153C271.576 42.594 271.658 42.5781 271.714 42.5674L272.071 44.256C271.958 44.2915 271.798 44.3323 271.592 44.3785C271.386 44.4282 271.136 44.4584 270.841 44.469C270.294 44.4903 269.815 44.4175 269.403 44.2506C268.994 44.0837 268.676 43.8245 268.449 43.4729C268.222 43.1214 268.11 42.6775 268.114 42.1413V34.2151ZM273.4 44.3572V36.1754H275.6V37.6029H275.685C275.835 37.0951 276.085 36.7116 276.437 36.4523C276.788 36.1896 277.193 36.0582 277.651 36.0582C277.765 36.0582 277.887 36.0653 278.019 36.0795C278.15 36.0937 278.265 36.1132 278.365 36.1381V38.1516C278.258 38.1196 278.111 38.0912 277.923 38.0663C277.734 38.0415 277.562 38.0291 277.406 38.0291C277.072 38.0291 276.774 38.1019 276.511 38.2474C276.252 38.3895 276.046 38.5884 275.893 38.844C275.744 39.0997 275.669 39.3945 275.669 39.7283V44.3572H273.4ZM281.637 44.5117C281.115 44.5117 280.65 44.4211 280.241 44.24C279.833 44.0553 279.51 43.7837 279.272 43.425C279.037 43.0628 278.92 42.6118 278.92 42.072C278.92 41.6175 279.004 41.2357 279.17 40.9268C279.337 40.6178 279.565 40.3693 279.852 40.181C280.14 39.9928 280.467 39.8508 280.832 39.7549C281.202 39.659 281.589 39.5916 281.994 39.5525C282.469 39.5028 282.853 39.4566 283.144 39.414C283.435 39.3678 283.647 39.3004 283.778 39.2116C283.909 39.1228 283.975 38.9914 283.975 38.8174V38.7854C283.975 38.4481 283.869 38.1871 283.656 38.0024C283.446 37.8178 283.148 37.7254 282.761 37.7254C282.352 37.7254 282.027 37.816 281.786 37.9971C281.544 38.1746 281.385 38.3984 281.306 38.6683L279.208 38.4978C279.314 38.0006 279.524 37.571 279.836 37.2087C280.149 36.843 280.552 36.5624 281.045 36.3671C281.543 36.1683 282.118 36.0688 282.771 36.0688C283.226 36.0688 283.661 36.1221 284.076 36.2286C284.495 36.3352 284.866 36.5003 285.19 36.724C285.516 36.9477 285.774 37.2354 285.962 37.5869C286.15 37.9349 286.244 38.3522 286.244 38.8387V44.3572H284.092V43.2226H284.028C283.897 43.4783 283.721 43.7038 283.501 43.8991C283.281 44.0908 283.016 44.2418 282.707 44.3519C282.398 44.4584 282.042 44.5117 281.637 44.5117ZM282.287 42.9456C282.62 42.9456 282.915 42.8799 283.171 42.7485C283.426 42.6136 283.627 42.4325 283.773 42.2052C283.918 41.9779 283.991 41.7205 283.991 41.4328V40.5646C283.92 40.6107 283.822 40.6533 283.698 40.6924C283.577 40.7279 283.441 40.7617 283.288 40.7936C283.135 40.822 282.983 40.8487 282.83 40.8735C282.677 40.8948 282.539 40.9144 282.414 40.9321C282.148 40.9712 281.915 41.0333 281.717 41.1185C281.518 41.2038 281.363 41.3192 281.253 41.4648C281.143 41.6068 281.088 41.7844 281.088 41.9974C281.088 42.3064 281.2 42.5425 281.424 42.7059C281.651 42.8657 281.939 42.9456 282.287 42.9456ZM288.005 44.3572V36.1754H290.205V37.6029H290.29C290.439 37.0951 290.689 36.7116 291.041 36.4523C291.393 36.1896 291.797 36.0582 292.256 36.0582C292.369 36.0582 292.492 36.0653 292.623 36.0795C292.754 36.0937 292.87 36.1132 292.969 36.1381V38.1516C292.863 38.1196 292.715 38.0912 292.527 38.0663C292.339 38.0415 292.167 38.0291 292.01 38.0291C291.677 38.0291 291.378 38.1019 291.116 38.2474C290.856 38.3895 290.65 38.5884 290.498 38.844C290.349 39.0997 290.274 39.3945 290.274 39.7283V44.3572H288.005ZM302.014 36.1754V37.8799H296.964V36.1754H302.014ZM298.12 44.3572V35.5841C298.12 34.9911 298.236 34.4992 298.466 34.1086C298.701 33.718 299.02 33.425 299.425 33.2297C299.83 33.0344 300.29 32.9367 300.805 32.9367C301.153 32.9367 301.471 32.9634 301.758 33.0166C302.05 33.0699 302.266 33.1178 302.408 33.1604L302.003 34.865C301.915 34.8366 301.805 34.8099 301.673 34.7851C301.545 34.7602 301.414 34.7478 301.279 34.7478C300.945 34.7478 300.713 34.8259 300.581 34.9822C300.45 35.1349 300.384 35.3497 300.384 35.6267V44.3572H298.12ZM308.647 40.8735V36.1754H310.916V44.3572H308.738V42.871H308.652C308.468 43.3504 308.161 43.7357 307.731 44.0269C307.305 44.3181 306.785 44.4637 306.17 44.4637C305.623 44.4637 305.142 44.3394 304.727 44.0908C304.311 43.8423 303.986 43.4889 303.752 43.0308C303.521 42.5727 303.404 42.0241 303.4 41.3849V36.1754H305.669V40.98C305.673 41.463 305.803 41.8447 306.058 42.1253C306.314 42.4058 306.657 42.5461 307.086 42.5461C307.36 42.5461 307.616 42.484 307.853 42.3597C308.091 42.2318 308.283 42.0436 308.429 41.795C308.578 41.5465 308.651 41.2393 308.647 40.8735ZM315.001 39.6271V44.3572H312.731V36.1754H314.894V37.6189H314.99C315.171 37.143 315.475 36.7666 315.901 36.4896C316.327 36.2091 316.844 36.0688 317.451 36.0688C318.019 36.0688 318.514 36.1931 318.937 36.4417C319.36 36.6903 319.688 37.0454 319.922 37.507C320.157 37.9651 320.274 38.512 320.274 39.1477V44.3572H318.005V39.5525C318.008 39.0518 317.881 38.6612 317.621 38.3806C317.362 38.0965 317.005 37.9545 316.551 37.9545C316.245 37.9545 315.975 38.0202 315.741 38.1516C315.51 38.283 315.329 38.4747 315.198 38.7269C315.07 38.9754 315.004 39.2755 315.001 39.6271ZM325.759 44.517C324.921 44.517 324.2 44.3394 323.597 43.9843C322.996 43.6256 322.535 43.1285 322.212 42.4928C321.892 41.8572 321.732 41.1256 321.732 40.2982C321.732 39.4602 321.894 38.7251 322.217 38.093C322.544 37.4573 323.007 36.9619 323.607 36.6068C324.207 36.2482 324.921 36.0688 325.748 36.0688C326.462 36.0688 327.087 36.1984 327.623 36.4577C328.16 36.7169 328.584 37.0809 328.897 37.5496C329.209 38.0184 329.381 38.5688 329.413 39.2009H327.272C327.212 38.7925 327.052 38.4641 326.793 38.2155C326.537 37.9634 326.201 37.8373 325.786 37.8373C325.434 37.8373 325.127 37.9332 324.864 38.1249C324.605 38.3131 324.403 38.5884 324.257 38.9506C324.111 39.3128 324.039 39.7514 324.039 40.2663C324.039 40.7883 324.11 41.2322 324.252 41.5979C324.397 41.9637 324.601 42.2425 324.864 42.4342C325.127 42.626 325.434 42.7219 325.786 42.7219C326.045 42.7219 326.278 42.6686 326.484 42.5621C326.693 42.4555 326.865 42.3011 327 42.0987C327.139 41.8927 327.229 41.6459 327.272 41.3582H329.413C329.378 41.9832 329.207 42.5337 328.902 43.0095C328.6 43.4818 328.183 43.8511 327.65 44.1175C327.117 44.3838 326.487 44.517 325.759 44.517ZM330.866 44.3572V36.1754H333.135V44.3572H330.866ZM332.006 35.1207C331.669 35.1207 331.379 35.0088 331.138 34.7851C330.9 34.5578 330.781 34.2862 330.781 33.9701C330.781 33.6576 330.9 33.3895 331.138 33.1658C331.379 32.9385 331.669 32.8249 332.006 32.8249C332.343 32.8249 332.631 32.9385 332.869 33.1658C333.11 33.3895 333.231 33.6576 333.231 33.9701C333.231 34.2862 333.11 34.5578 332.869 34.7851C332.631 35.0088 332.343 35.1207 332.006 35.1207ZM338.65 44.517C337.822 44.517 337.107 44.3412 336.503 43.9896C335.903 43.6345 335.44 43.1409 335.113 42.5088C334.786 41.8732 334.623 41.1363 334.623 40.2982C334.623 39.4531 334.786 38.7144 335.113 38.0823C335.44 37.4467 335.903 36.9531 336.503 36.6015C337.107 36.2464 337.822 36.0688 338.65 36.0688C339.477 36.0688 340.191 36.2464 340.791 36.6015C341.395 36.9531 341.86 37.4467 342.187 38.0823C342.513 38.7144 342.677 39.4531 342.677 40.2982C342.677 41.1363 342.513 41.8732 342.187 42.5088C341.86 43.1409 341.395 43.6345 340.791 43.9896C340.191 44.3412 339.477 44.517 338.65 44.517ZM338.66 42.7592C339.037 42.7592 339.351 42.6526 339.603 42.4396C339.855 42.2229 340.045 41.9282 340.173 41.5553C340.305 41.1825 340.37 40.7581 340.37 40.2822C340.37 39.8064 340.305 39.382 340.173 39.0092C340.045 38.6363 339.855 38.3416 339.603 38.1249C339.351 37.9083 339.037 37.8 338.66 37.8C338.28 37.8 337.961 37.9083 337.702 38.1249C337.446 38.3416 337.252 38.6363 337.121 39.0092C336.993 39.382 336.929 39.8064 336.929 40.2822C336.929 40.7581 336.993 41.1825 337.121 41.5553C337.252 41.9282 337.446 42.2229 337.702 42.4396C337.961 42.6526 338.28 42.7592 338.66 42.7592ZM346.421 39.6271V44.3572H344.152V36.1754H346.315V37.6189H346.411C346.592 37.143 346.896 36.7666 347.322 36.4896C347.748 36.2091 348.264 36.0688 348.872 36.0688C349.44 36.0688 349.935 36.1931 350.358 36.4417C350.78 36.6903 351.109 37.0454 351.343 37.507C351.578 37.9651 351.695 38.512 351.695 39.1477V44.3572H349.426V39.5525C349.429 39.0518 349.301 38.6612 349.042 38.3806C348.783 38.0965 348.426 37.9545 347.972 37.9545C347.666 37.9545 347.396 38.0202 347.162 38.1516C346.931 38.283 346.75 38.4747 346.619 38.7269C346.491 38.9754 346.425 39.2755 346.421 39.6271ZM355.816 44.5117C355.294 44.5117 354.829 44.4211 354.421 44.24C354.012 44.0553 353.689 43.7837 353.451 43.425C353.217 43.0628 353.1 42.6118 353.1 42.072C353.1 41.6175 353.183 41.2357 353.35 40.9268C353.517 40.6178 353.744 40.3693 354.032 40.181C354.32 39.9928 354.646 39.8508 355.012 39.7549C355.381 39.659 355.768 39.5916 356.173 39.5525C356.649 39.5028 357.033 39.4566 357.324 39.414C357.615 39.3678 357.826 39.3004 357.958 39.2116C358.089 39.1228 358.155 38.9914 358.155 38.8174V38.7854C358.155 38.4481 358.048 38.1871 357.835 38.0024C357.626 37.8178 357.327 37.7254 356.94 37.7254C356.532 37.7254 356.207 37.816 355.966 37.9971C355.724 38.1746 355.564 38.3984 355.486 38.6683L353.387 38.4978C353.494 38.0006 353.703 37.571 354.016 37.2087C354.328 36.843 354.732 36.5624 355.225 36.3671C355.722 36.1683 356.298 36.0688 356.951 36.0688C357.406 36.0688 357.841 36.1221 358.256 36.2286C358.675 36.3352 359.046 36.5003 359.369 36.724C359.696 36.9477 359.953 37.2354 360.142 37.5869C360.33 37.9349 360.424 38.3522 360.424 38.8387V44.3572H358.272V43.2226H358.208C358.077 43.4783 357.901 43.7038 357.681 43.8991C357.461 44.0908 357.196 44.2418 356.887 44.3519C356.578 44.4584 356.221 44.5117 355.816 44.5117ZM356.466 42.9456C356.8 42.9456 357.095 42.8799 357.351 42.7485C357.606 42.6136 357.807 42.4325 357.952 42.2052C358.098 41.9779 358.171 41.7205 358.171 41.4328V40.5646C358.1 40.6107 358.002 40.6533 357.878 40.6924C357.757 40.7279 357.62 40.7617 357.468 40.7936C357.315 40.822 357.162 40.8487 357.01 40.8735C356.857 40.8948 356.718 40.9144 356.594 40.9321C356.328 40.9712 356.095 41.0333 355.896 41.1185C355.697 41.2038 355.543 41.3192 355.433 41.4648C355.323 41.6068 355.268 41.7844 355.268 41.9974C355.268 42.3064 355.38 42.5425 355.603 42.7059C355.831 42.8657 356.118 42.9456 356.466 42.9456ZM356.221 35.1207L357.351 32.697H359.449L357.825 35.1207H356.221ZM362.184 44.3572V36.1754H364.384V37.6029H364.47C364.619 37.0951 364.869 36.7116 365.221 36.4523C365.572 36.1896 365.977 36.0582 366.435 36.0582C366.549 36.0582 366.671 36.0653 366.803 36.0795C366.934 36.0937 367.05 36.1132 367.149 36.1381V38.1516C367.042 38.1196 366.895 38.0912 366.707 38.0663C366.519 38.0415 366.346 38.0291 366.19 38.0291C365.856 38.0291 365.558 38.1019 365.295 38.2474C365.036 38.3895 364.83 38.5884 364.677 38.844C364.528 39.0997 364.454 39.3945 364.454 39.7283V44.3572H362.184ZM368.322 44.3572V36.1754H370.591V44.3572H368.322ZM369.462 35.1207C369.125 35.1207 368.835 35.0088 368.594 34.7851C368.356 34.5578 368.237 34.2862 368.237 33.9701C368.237 33.6576 368.356 33.3895 368.594 33.1658C368.835 32.9385 369.125 32.8249 369.462 32.8249C369.799 32.8249 370.087 32.9385 370.325 33.1658C370.566 33.3895 370.687 33.6576 370.687 33.9701C370.687 34.2862 370.566 34.5578 370.325 34.7851C370.087 35.0088 369.799 35.1207 369.462 35.1207ZM376.106 44.517C375.278 44.517 374.563 44.3412 373.959 43.9896C373.359 43.6345 372.896 43.1409 372.569 42.5088C372.242 41.8732 372.079 41.1363 372.079 40.2982C372.079 39.4531 372.242 38.7144 372.569 38.0823C372.896 37.4467 373.359 36.9531 373.959 36.6015C374.563 36.2464 375.278 36.0688 376.106 36.0688C376.933 36.0688 377.647 36.2464 378.247 36.6015C378.851 36.9531 379.316 37.4467 379.643 38.0823C379.969 38.7144 380.133 39.4531 380.133 40.2982C380.133 41.1363 379.969 41.8732 379.643 42.5088C379.316 43.1409 378.851 43.6345 378.247 43.9896C377.647 44.3412 376.933 44.517 376.106 44.517ZM376.116 42.7592C376.493 42.7592 376.807 42.6526 377.059 42.4396C377.311 42.2229 377.501 41.9282 377.629 41.5553C377.761 41.1825 377.826 40.7581 377.826 40.2822C377.826 39.8064 377.761 39.382 377.629 39.0092C377.501 38.6363 377.311 38.3416 377.059 38.1249C376.807 37.9083 376.493 37.8 376.116 37.8C375.737 37.8 375.417 37.9083 375.158 38.1249C374.902 38.3416 374.708 38.6363 374.577 39.0092C374.449 39.382 374.385 39.8064 374.385 40.2822C374.385 40.7581 374.449 41.1825 374.577 41.5553C374.708 41.9282 374.902 42.2229 375.158 42.4396C375.417 42.6526 375.737 42.7592 376.116 42.7592Z" fill="black" fill-opacity="0.5"/>
<path d="M25 30C25 27.2386 27.2386 25 30 25H208.7V54.8295H25V30Z" fill="white" stroke="black" stroke-linejoin="bevel"/>
<path d="M59.5393 33.0909L62.176 41.3793H62.2773L64.9193 33.0909H67.4761L63.7155 44H60.7432L56.9772 33.0909H59.5393ZM71.5524 44.1598C70.7108 44.1598 69.9863 43.9893 69.3791 43.6484C68.7754 43.304 68.3102 42.8175 67.9835 42.1889C67.6568 41.5568 67.4934 40.8093 67.4934 39.9464C67.4934 39.1048 67.6568 38.3661 67.9835 37.7305C68.3102 37.0948 68.7701 36.5994 69.3631 36.2443C69.9597 35.8892 70.6593 35.7116 71.4618 35.7116C72.0016 35.7116 72.5041 35.7987 72.9693 35.9727C73.438 36.1431 73.8464 36.4006 74.1944 36.745C74.546 37.0895 74.8194 37.5227 75.0147 38.0447C75.21 38.5632 75.3077 39.1705 75.3077 39.8665V40.4897H68.399V39.0835H73.1717C73.1717 38.7567 73.1007 38.4673 72.9586 38.2152C72.8166 37.9631 72.6195 37.766 72.3674 37.6239C72.1188 37.4783 71.8294 37.4055 71.4991 37.4055C71.1547 37.4055 70.8493 37.4854 70.5829 37.6452C70.3201 37.8015 70.1142 38.0128 69.965 38.2791C69.8159 38.5419 69.7395 38.8349 69.736 39.158V40.495C69.736 40.8999 69.8105 41.2496 69.9597 41.5444C70.1124 41.8391 70.3272 42.0664 70.6042 42.2262C70.8812 42.386 71.2097 42.4659 71.5897 42.4659C71.8418 42.4659 72.0726 42.4304 72.2821 42.3594C72.4917 42.2884 72.671 42.1818 72.8201 42.0398C72.9693 41.8977 73.0829 41.7237 73.161 41.5178L75.2598 41.6562C75.1532 42.1605 74.9348 42.6009 74.6046 42.9773C74.2779 43.3501 73.8553 43.6413 73.3368 43.8509C72.8219 44.0568 72.2271 44.1598 71.5524 44.1598ZM76.7885 44V35.8182H78.9885V37.2457H79.0737C79.2228 36.7379 79.4732 36.3544 79.8247 36.0952C80.1763 35.8324 80.5811 35.701 81.0392 35.701C81.1529 35.701 81.2754 35.7081 81.4068 35.7223C81.5382 35.7365 81.6536 35.756 81.753 35.7809V37.7944C81.6465 37.7624 81.4991 37.734 81.3109 37.7092C81.1227 37.6843 80.9505 37.6719 80.7942 37.6719C80.4604 37.6719 80.1621 37.7447 79.8993 37.8903C79.6401 38.0323 79.4341 38.2312 79.2814 38.4869C79.1323 38.7425 79.0577 39.0373 79.0577 39.3711V44H76.7885ZM90.7978 35.8182V37.5227H85.748V35.8182H90.7978ZM86.9039 44V35.2269C86.9039 34.6339 87.0194 34.142 87.2502 33.7514C87.4846 33.3608 87.8042 33.0678 88.209 32.8725C88.6138 32.6772 89.0737 32.5795 89.5886 32.5795C89.9366 32.5795 90.2544 32.6062 90.5421 32.6594C90.8333 32.7127 91.0499 32.7607 91.1919 32.8033L90.7871 34.5078C90.6983 34.4794 90.5882 34.4528 90.4569 34.4279C90.329 34.4031 90.1976 34.3906 90.0627 34.3906C89.7289 34.3906 89.4963 34.4688 89.3649 34.625C89.2335 34.7777 89.1678 34.9925 89.1678 35.2695V44H86.9039ZM97.4308 40.5163V35.8182H99.7V44H97.5214V42.5138H97.4362C97.2515 42.9933 96.9443 43.3786 96.5146 43.6697C96.0885 43.9609 95.5683 44.1065 94.9539 44.1065C94.407 44.1065 93.9259 43.9822 93.5104 43.7337C93.0949 43.4851 92.77 43.1317 92.5356 42.6737C92.3048 42.2156 92.1876 41.6669 92.184 41.0277V35.8182H94.4532V40.6229C94.4568 41.1058 94.5864 41.4876 94.8421 41.7681C95.0977 42.0487 95.4404 42.1889 95.8701 42.1889C96.1436 42.1889 96.3992 42.1268 96.6372 42.0025C96.8751 41.8746 97.0668 41.6864 97.2124 41.4379C97.3616 41.1893 97.4344 40.8821 97.4308 40.5163ZM103.784 39.2699V44H101.515V35.8182H103.678V37.2617H103.774C103.955 36.7859 104.258 36.4094 104.684 36.1325C105.111 35.8519 105.627 35.7116 106.235 35.7116C106.803 35.7116 107.298 35.8359 107.721 36.0845C108.143 36.3331 108.472 36.6882 108.706 37.1499C108.941 37.608 109.058 38.1548 109.058 38.7905V44H106.789V39.1953C106.792 38.6946 106.664 38.304 106.405 38.0234C106.146 37.7393 105.789 37.5973 105.334 37.5973C105.029 37.5973 104.759 37.663 104.525 37.7944C104.294 37.9258 104.113 38.1175 103.981 38.3697C103.854 38.6183 103.788 38.9183 103.784 39.2699ZM114.543 44.1598C113.705 44.1598 112.984 43.9822 112.38 43.6271C111.78 43.2685 111.318 42.7713 110.995 42.1357C110.676 41.5 110.516 40.7685 110.516 39.9411C110.516 39.103 110.677 38.3679 111.001 37.7358C111.327 37.1001 111.791 36.6048 112.391 36.2496C112.991 35.891 113.705 35.7116 114.532 35.7116C115.246 35.7116 115.871 35.8413 116.407 36.1005C116.943 36.3597 117.368 36.7237 117.68 37.1925C117.993 37.6612 118.165 38.2116 118.197 38.8438H116.056C115.995 38.4354 115.835 38.1069 115.576 37.8583C115.321 37.6062 114.985 37.4801 114.57 37.4801C114.218 37.4801 113.911 37.576 113.648 37.7678C113.389 37.956 113.186 38.2312 113.041 38.5934C112.895 38.9556 112.822 39.3942 112.822 39.9091C112.822 40.4311 112.893 40.875 113.035 41.2408C113.181 41.6065 113.385 41.8853 113.648 42.0771C113.911 42.2688 114.218 42.3647 114.57 42.3647C114.829 42.3647 115.061 42.3114 115.267 42.2049C115.477 42.0984 115.649 41.9439 115.784 41.7415C115.922 41.5355 116.013 41.2887 116.056 41.0011H118.197C118.161 41.6261 117.991 42.1765 117.686 42.6523C117.384 43.1246 116.967 43.494 116.434 43.7603C115.901 44.0266 115.271 44.1598 114.543 44.1598ZM119.65 44V35.8182H121.919V44H119.65ZM120.79 34.7635C120.452 34.7635 120.163 34.6516 119.922 34.4279C119.684 34.2006 119.565 33.929 119.565 33.6129C119.565 33.3004 119.684 33.0323 119.922 32.8086C120.163 32.5813 120.452 32.4677 120.79 32.4677C121.127 32.4677 121.415 32.5813 121.653 32.8086C121.894 33.0323 122.015 33.3004 122.015 33.6129C122.015 33.929 121.894 34.2006 121.653 34.4279C121.415 34.6516 121.127 34.7635 120.79 34.7635ZM127.434 44.1598C126.606 44.1598 125.891 43.984 125.287 43.6325C124.687 43.2773 124.223 42.7837 123.897 42.1516C123.57 41.516 123.407 40.7791 123.407 39.9411C123.407 39.0959 123.57 38.3572 123.897 37.7251C124.223 37.0895 124.687 36.5959 125.287 36.2443C125.891 35.8892 126.606 35.7116 127.434 35.7116C128.261 35.7116 128.975 35.8892 129.575 36.2443C130.179 36.5959 130.644 37.0895 130.97 37.7251C131.297 38.3572 131.46 39.0959 131.46 39.9411C131.46 40.7791 131.297 41.516 130.97 42.1516C130.644 42.7837 130.179 43.2773 129.575 43.6325C128.975 43.984 128.261 44.1598 127.434 44.1598ZM127.444 42.402C127.821 42.402 128.135 42.2955 128.387 42.0824C128.639 41.8658 128.829 41.571 128.957 41.1982C129.088 40.8253 129.154 40.4009 129.154 39.9251C129.154 39.4492 129.088 39.0249 128.957 38.652C128.829 38.2791 128.639 37.9844 128.387 37.7678C128.135 37.5511 127.821 37.4428 127.444 37.4428C127.064 37.4428 126.745 37.5511 126.485 37.7678C126.23 37.9844 126.036 38.2791 125.905 38.652C125.777 39.0249 125.713 39.4492 125.713 39.9251C125.713 40.4009 125.777 40.8253 125.905 41.1982C126.036 41.571 126.23 41.8658 126.485 42.0824C126.745 42.2955 127.064 42.402 127.444 42.402ZM135.205 39.2699V44H132.936V35.8182H135.099V37.2617H135.195C135.376 36.7859 135.679 36.4094 136.105 36.1325C136.532 35.8519 137.048 35.7116 137.655 35.7116C138.224 35.7116 138.719 35.8359 139.142 36.0845C139.564 36.3331 139.893 36.6882 140.127 37.1499C140.361 37.608 140.479 38.1548 140.479 38.7905V44H138.209V39.1953C138.213 38.6946 138.085 38.304 137.826 38.0234C137.567 37.7393 137.21 37.5973 136.755 37.5973C136.45 37.5973 136.18 37.663 135.946 37.7944C135.715 37.9258 135.534 38.1175 135.402 38.3697C135.274 38.6183 135.209 38.9183 135.205 39.2699ZM144.6 44.1545C144.078 44.1545 143.613 44.0639 143.205 43.8828C142.796 43.6982 142.473 43.4265 142.235 43.0678C142.001 42.7056 141.884 42.2546 141.884 41.7148C141.884 41.2603 141.967 40.8786 142.134 40.5696C142.301 40.2607 142.528 40.0121 142.816 39.8239C143.103 39.6357 143.43 39.4936 143.796 39.3977C144.165 39.3018 144.552 39.2344 144.957 39.1953C145.433 39.1456 145.816 39.0994 146.108 39.0568C146.399 39.0107 146.61 38.9432 146.741 38.8544C146.873 38.7656 146.939 38.6342 146.939 38.4602V38.4283C146.939 38.0909 146.832 37.8299 146.619 37.6452C146.409 37.4606 146.111 37.3683 145.724 37.3683C145.316 37.3683 144.991 37.4588 144.749 37.6399C144.508 37.8175 144.348 38.0412 144.27 38.3111L142.171 38.1406C142.278 37.6435 142.487 37.2138 142.8 36.8516C143.112 36.4858 143.515 36.2053 144.009 36.0099C144.506 35.8111 145.081 35.7116 145.735 35.7116C146.189 35.7116 146.624 35.7649 147.04 35.8714C147.459 35.978 147.83 36.1431 148.153 36.3668C148.48 36.5906 148.737 36.8782 148.925 37.2298C149.114 37.5778 149.208 37.995 149.208 38.4815V44H147.056V42.8654H146.992C146.86 43.1211 146.685 43.3466 146.464 43.5419C146.244 43.7337 145.98 43.8846 145.671 43.9947C145.362 44.1012 145.005 44.1545 144.6 44.1545ZM145.25 42.5884C145.584 42.5884 145.879 42.5227 146.134 42.3913C146.39 42.2564 146.591 42.0753 146.736 41.848C146.882 41.6207 146.955 41.3633 146.955 41.0756V40.2074C146.884 40.2536 146.786 40.2962 146.662 40.3352C146.541 40.3707 146.404 40.4045 146.251 40.4364C146.099 40.4648 145.946 40.4915 145.793 40.5163C145.641 40.5376 145.502 40.5572 145.378 40.5749C145.112 40.614 144.879 40.6761 144.68 40.7614C144.481 40.8466 144.327 40.962 144.217 41.1076C144.107 41.2496 144.051 41.4272 144.051 41.6403C144.051 41.9492 144.163 42.1854 144.387 42.3487C144.614 42.5085 144.902 42.5884 145.25 42.5884ZM145.005 34.7635L146.134 32.3398H148.233L146.608 34.7635H145.005ZM150.968 44V35.8182H153.168V37.2457H153.253C153.403 36.7379 153.653 36.3544 154.004 36.0952C154.356 35.8324 154.761 35.701 155.219 35.701C155.333 35.701 155.455 35.7081 155.586 35.7223C155.718 35.7365 155.833 35.756 155.933 35.7809V37.7944C155.826 37.7624 155.679 37.734 155.491 37.7092C155.302 37.6843 155.13 37.6719 154.974 37.6719C154.64 37.6719 154.342 37.7447 154.079 37.8903C153.82 38.0323 153.614 38.2312 153.461 38.4869C153.312 38.7425 153.237 39.0373 153.237 39.3711V44H150.968ZM157.106 44V35.8182H159.375V44H157.106ZM158.246 34.7635C157.908 34.7635 157.619 34.6516 157.378 34.4279C157.14 34.2006 157.021 33.929 157.021 33.6129C157.021 33.3004 157.14 33.0323 157.378 32.8086C157.619 32.5813 157.908 32.4677 158.246 32.4677C158.583 32.4677 158.871 32.5813 159.109 32.8086C159.35 33.0323 159.471 33.3004 159.471 33.6129C159.471 33.929 159.35 34.2006 159.109 34.4279C158.871 34.6516 158.583 34.7635 158.246 34.7635ZM164.89 44.1598C164.062 44.1598 163.347 43.984 162.743 43.6325C162.143 43.2773 161.679 42.7837 161.353 42.1516C161.026 41.516 160.863 40.7791 160.863 39.9411C160.863 39.0959 161.026 38.3572 161.353 37.7251C161.679 37.0895 162.143 36.5959 162.743 36.2443C163.347 35.8892 164.062 35.7116 164.89 35.7116C165.717 35.7116 166.431 35.8892 167.031 36.2443C167.635 36.5959 168.1 37.0895 168.426 37.7251C168.753 38.3572 168.917 39.0959 168.917 39.9411C168.917 40.7791 168.753 41.516 168.426 42.1516C168.1 42.7837 167.635 43.2773 167.031 43.6325C166.431 43.984 165.717 44.1598 164.89 44.1598ZM164.9 42.402C165.277 42.402 165.591 42.2955 165.843 42.0824C166.095 41.8658 166.285 41.571 166.413 41.1982C166.544 40.8253 166.61 40.4009 166.61 39.9251C166.61 39.4492 166.544 39.0249 166.413 38.652C166.285 38.2791 166.095 37.9844 165.843 37.7678C165.591 37.5511 165.277 37.4428 164.9 37.4428C164.52 37.4428 164.201 37.5511 163.941 37.7678C163.686 37.9844 163.492 38.2791 163.361 38.652C163.233 39.0249 163.169 39.4492 163.169 39.9251C163.169 40.4009 163.233 40.8253 163.361 41.1982C163.492 41.571 163.686 41.8658 163.941 42.0824C164.201 42.2955 164.52 42.402 164.9 42.402ZM177.2 38.1513L175.122 38.2791C175.087 38.1016 175.01 37.9418 174.893 37.7997C174.776 37.6541 174.621 37.5387 174.43 37.4535C174.241 37.3647 174.016 37.3203 173.753 37.3203C173.402 37.3203 173.105 37.3949 172.864 37.544C172.622 37.6896 172.501 37.8849 172.501 38.13C172.501 38.3253 172.58 38.4904 172.736 38.6254C172.892 38.7603 173.16 38.8686 173.54 38.9503L175.021 39.2486C175.816 39.4119 176.409 39.6747 176.8 40.0369C177.191 40.3991 177.386 40.875 177.386 41.4645C177.386 42.0007 177.228 42.4712 176.912 42.8761C176.599 43.2809 176.17 43.5969 175.623 43.8242C175.08 44.0479 174.453 44.1598 173.743 44.1598C172.659 44.1598 171.797 43.9343 171.154 43.4833C170.515 43.0288 170.14 42.4109 170.03 41.6296L172.262 41.5124C172.329 41.8427 172.493 42.0948 172.752 42.2688C173.011 42.4393 173.343 42.5245 173.748 42.5245C174.146 42.5245 174.465 42.4482 174.707 42.2955C174.952 42.1392 175.076 41.9386 175.08 41.6935C175.076 41.4876 174.989 41.3189 174.819 41.1875C174.648 41.0526 174.385 40.9496 174.03 40.8786L172.613 40.5962C171.814 40.4364 171.219 40.1594 170.829 39.7653C170.442 39.3711 170.248 38.8686 170.248 38.2578C170.248 37.7322 170.39 37.2795 170.674 36.8995C170.962 36.5195 171.365 36.2266 171.884 36.0206C172.406 35.8146 173.016 35.7116 173.716 35.7116C174.749 35.7116 175.563 35.93 176.156 36.3668C176.752 36.8036 177.1 37.3984 177.2 38.1513Z" fill="black" fill-opacity="0.5"/>
<defs>
<linearGradient id="paint0_linear_167_81" x1="300" y1="0" x2="300" y2="400" gradientUnits="userSpaceOnUse">
<stop stop-color="#00356E"/>
<stop offset="1" stop-color="#00356E"/>
</linearGradient>
</defs>
</svg>
