<svg width="600" height="400" viewBox="0 0 600 400" fill="none" xmlns="http://www.w3.org/2000/svg">
<rect width="600" height="400" fill="url(#paint0_linear_167_73)"/>
<rect x="175" y="25" width="250" height="350" rx="5" fill="white"/>
<rect x="210" y="315" width="180" height="46" rx="10" fill="white"/>
<path d="M274.78 330.455L279.098 342.699H279.268L283.587 330.455H285.433L280.092 345H278.274L272.933 330.455H274.78ZM290.888 345.227C289.903 345.227 289.039 344.993 288.295 344.524C287.557 344.055 286.979 343.4 286.562 342.557C286.151 341.714 285.945 340.729 285.945 339.602C285.945 338.466 286.151 337.474 286.562 336.626C286.979 335.779 287.557 335.121 288.295 334.652C289.039 334.183 289.903 333.949 290.888 333.949C291.873 333.949 292.734 334.183 293.473 334.652C294.216 335.121 294.794 335.779 295.206 336.626C295.623 337.474 295.831 338.466 295.831 339.602C295.831 340.729 295.623 341.714 295.206 342.557C294.794 343.4 294.216 344.055 293.473 344.524C292.734 344.993 291.873 345.227 290.888 345.227ZM290.888 343.722C291.636 343.722 292.251 343.53 292.734 343.146C293.217 342.763 293.575 342.259 293.807 341.634C294.039 341.009 294.155 340.331 294.155 339.602C294.155 338.873 294.039 338.194 293.807 337.564C293.575 336.934 293.217 336.425 292.734 336.037C292.251 335.649 291.636 335.455 290.888 335.455C290.14 335.455 289.524 335.649 289.041 336.037C288.558 336.425 288.201 336.934 287.969 337.564C287.737 338.194 287.621 338.873 287.621 339.602C287.621 340.331 287.737 341.009 287.969 341.634C288.201 342.259 288.558 342.763 289.041 343.146C289.524 343.53 290.14 343.722 290.888 343.722ZM300.066 330.455V345H298.39V330.455H300.066ZM307.88 334.091V335.511H302.227V334.091H307.88ZM303.874 331.477H305.55V341.875C305.55 342.348 305.619 342.704 305.756 342.94C305.898 343.172 306.078 343.329 306.296 343.409C306.519 343.485 306.753 343.523 306.999 343.523C307.184 343.523 307.335 343.513 307.454 343.494C307.572 343.471 307.667 343.452 307.738 343.438L308.079 344.943C307.965 344.986 307.807 345.028 307.603 345.071C307.399 345.118 307.141 345.142 306.829 345.142C306.355 345.142 305.891 345.04 305.437 344.837C304.987 344.633 304.613 344.323 304.315 343.906C304.021 343.49 303.874 342.964 303.874 342.33V331.477ZM313.612 345.256C312.92 345.256 312.293 345.125 311.729 344.865C311.166 344.6 310.719 344.219 310.387 343.722C310.056 343.22 309.89 342.614 309.89 341.903C309.89 341.278 310.013 340.772 310.259 340.384C310.505 339.991 310.835 339.683 311.246 339.46C311.658 339.238 312.113 339.072 312.61 338.963C313.112 338.849 313.616 338.759 314.123 338.693C314.786 338.608 315.323 338.544 315.735 338.501C316.152 338.454 316.455 338.376 316.644 338.267C316.838 338.158 316.935 337.969 316.935 337.699V337.642C316.935 336.941 316.744 336.397 316.36 336.009C315.981 335.62 315.406 335.426 314.634 335.426C313.834 335.426 313.207 335.601 312.752 335.952C312.298 336.302 311.978 336.676 311.793 337.074L310.202 336.506C310.487 335.843 310.865 335.327 311.339 334.957C311.817 334.583 312.338 334.323 312.901 334.176C313.469 334.025 314.028 333.949 314.577 333.949C314.928 333.949 315.33 333.991 315.785 334.077C316.244 334.157 316.687 334.325 317.113 334.581C317.544 334.837 317.901 335.223 318.185 335.739C318.469 336.255 318.612 336.946 318.612 337.812V345H316.935V343.523H316.85C316.737 343.759 316.547 344.013 316.282 344.283C316.017 344.553 315.664 344.782 315.224 344.972C314.783 345.161 314.246 345.256 313.612 345.256ZM313.867 343.75C314.53 343.75 315.089 343.62 315.543 343.359C316.003 343.099 316.348 342.763 316.58 342.351C316.817 341.939 316.935 341.506 316.935 341.051V339.517C316.864 339.602 316.708 339.68 316.467 339.751C316.23 339.818 315.955 339.877 315.643 339.929C315.335 339.976 315.034 340.019 314.741 340.057C314.452 340.09 314.218 340.118 314.038 340.142C313.602 340.199 313.195 340.291 312.816 340.419C312.442 340.542 312.139 340.729 311.907 340.98C311.68 341.226 311.566 341.562 311.566 341.989C311.566 342.571 311.781 343.011 312.212 343.31C312.648 343.603 313.2 343.75 313.867 343.75ZM321.671 345V334.091H323.29V335.739H323.404C323.603 335.199 323.962 334.761 324.483 334.425C325.004 334.089 325.591 333.92 326.245 333.92C326.368 333.92 326.522 333.923 326.706 333.928C326.891 333.932 327.031 333.939 327.125 333.949V335.653C327.069 335.639 326.938 335.618 326.735 335.589C326.536 335.556 326.325 335.54 326.103 335.54C325.572 335.54 325.099 335.651 324.682 335.874C324.27 336.091 323.944 336.394 323.702 336.783C323.465 337.166 323.347 337.604 323.347 338.097V345H321.671Z" fill="black"/>
<g filter="url(#filter0_d_167_73)">
<rect x="209.5" y="256.5" width="181" height="47" rx="10.5" fill="white" stroke="black"/>
<path d="M272.555 287V272.455H281.674V274.344H274.75V278.776H281.199V280.658H274.75V285.111H281.76V287H272.555ZM286.559 280.523V287H284.435V276.091H286.474V277.866H286.609C286.86 277.289 287.253 276.825 287.788 276.474C288.327 276.124 289.007 275.949 289.826 275.949C290.569 275.949 291.22 276.105 291.779 276.418C292.338 276.725 292.771 277.185 293.079 277.795C293.387 278.406 293.54 279.161 293.54 280.061V287H291.417V280.317C291.417 279.526 291.211 278.908 290.799 278.463C290.387 278.013 289.821 277.788 289.102 277.788C288.609 277.788 288.171 277.895 287.788 278.108C287.409 278.321 287.108 278.634 286.886 279.045C286.668 279.453 286.559 279.945 286.559 280.523ZM301.481 276.091V277.795H295.522V276.091H301.481ZM297.12 273.477H299.244V283.797C299.244 284.209 299.305 284.519 299.428 284.727C299.551 284.931 299.71 285.071 299.904 285.146C300.103 285.217 300.318 285.253 300.55 285.253C300.721 285.253 300.87 285.241 300.998 285.217C301.126 285.194 301.225 285.175 301.296 285.161L301.68 286.915C301.557 286.962 301.381 287.009 301.154 287.057C300.927 287.109 300.643 287.137 300.302 287.142C299.743 287.152 299.222 287.052 298.739 286.844C298.256 286.635 297.866 286.313 297.567 285.878C297.269 285.442 297.12 284.895 297.12 284.237V273.477ZM303.83 287V276.091H305.882V277.824H305.996C306.195 277.237 306.545 276.775 307.047 276.439C307.554 276.098 308.127 275.928 308.766 275.928C308.899 275.928 309.055 275.932 309.235 275.942C309.419 275.951 309.564 275.963 309.668 275.977V278.009C309.583 277.985 309.431 277.959 309.213 277.93C308.996 277.897 308.778 277.881 308.56 277.881C308.058 277.881 307.611 277.987 307.218 278.2C306.829 278.409 306.522 278.7 306.294 279.074C306.067 279.443 305.953 279.865 305.953 280.338V287H303.83ZM314.583 287.241C313.891 287.241 313.266 287.114 312.708 286.858C312.149 286.598 311.706 286.221 311.38 285.729C311.058 285.236 310.897 284.633 310.897 283.918C310.897 283.302 311.015 282.795 311.252 282.398C311.489 282 311.808 281.685 312.211 281.453C312.613 281.221 313.063 281.046 313.56 280.928C314.057 280.809 314.564 280.719 315.08 280.658C315.733 280.582 316.264 280.52 316.671 280.473C317.078 280.421 317.374 280.338 317.559 280.224C317.743 280.111 317.836 279.926 317.836 279.67V279.621C317.836 279 317.66 278.52 317.31 278.179C316.964 277.838 316.448 277.668 315.762 277.668C315.047 277.668 314.483 277.826 314.071 278.143C313.664 278.456 313.382 278.804 313.226 279.188L311.23 278.733C311.467 278.07 311.813 277.535 312.267 277.128C312.727 276.716 313.255 276.418 313.851 276.233C314.448 276.044 315.075 275.949 315.733 275.949C316.169 275.949 316.631 276.001 317.118 276.105C317.611 276.205 318.07 276.389 318.496 276.659C318.927 276.929 319.28 277.315 319.554 277.817C319.829 278.314 319.966 278.96 319.966 279.756V287H317.892V285.509H317.807C317.67 285.783 317.464 286.053 317.189 286.318C316.915 286.583 316.562 286.804 316.131 286.979C315.7 287.154 315.184 287.241 314.583 287.241ZM315.044 285.537C315.632 285.537 316.133 285.421 316.55 285.189C316.971 284.957 317.291 284.654 317.509 284.28C317.731 283.901 317.843 283.496 317.843 283.065V281.659C317.767 281.735 317.62 281.806 317.402 281.872C317.189 281.934 316.945 281.988 316.671 282.036C316.396 282.078 316.129 282.118 315.868 282.156C315.608 282.189 315.39 282.218 315.215 282.241C314.803 282.294 314.426 282.381 314.086 282.504C313.749 282.627 313.48 282.805 313.276 283.037C313.077 283.264 312.978 283.567 312.978 283.946C312.978 284.472 313.172 284.869 313.56 285.139C313.948 285.404 314.443 285.537 315.044 285.537ZM322.795 287V276.091H324.847V277.824H324.961C325.16 277.237 325.51 276.775 326.012 276.439C326.519 276.098 327.092 275.928 327.731 275.928C327.863 275.928 328.02 275.932 328.2 275.942C328.384 275.951 328.529 275.963 328.633 275.977V278.009C328.548 277.985 328.396 277.959 328.178 277.93C327.96 277.897 327.743 277.881 327.525 277.881C327.023 277.881 326.576 277.987 326.183 278.2C325.794 278.409 325.487 278.7 325.259 279.074C325.032 279.443 324.918 279.865 324.918 280.338V287H322.795Z" fill="black"/>
</g>
<path d="M244.98 238V229.273H250.656V230.598H246.561V232.967H250.362V234.293H246.561V236.675H250.69V238H244.98ZM257.374 233.185L255.968 233.338C255.928 233.196 255.858 233.062 255.759 232.938C255.662 232.812 255.532 232.712 255.367 232.635C255.202 232.558 255.001 232.52 254.762 232.52C254.441 232.52 254.171 232.589 253.952 232.729C253.736 232.868 253.63 233.048 253.633 233.27C253.63 233.46 253.699 233.615 253.841 233.734C253.986 233.854 254.225 233.952 254.557 234.028L255.674 234.267C256.293 234.401 256.753 234.612 257.055 234.902C257.358 235.192 257.512 235.571 257.515 236.04C257.512 236.452 257.391 236.815 257.153 237.131C256.917 237.443 256.589 237.687 256.168 237.864C255.748 238.04 255.265 238.128 254.719 238.128C253.918 238.128 253.273 237.96 252.785 237.625C252.296 237.287 252.005 236.817 251.911 236.214L253.415 236.07C253.483 236.365 253.628 236.588 253.85 236.739C254.072 236.889 254.36 236.964 254.715 236.964C255.081 236.964 255.376 236.889 255.597 236.739C255.822 236.588 255.934 236.402 255.934 236.18C255.934 235.993 255.861 235.838 255.716 235.716C255.574 235.594 255.353 235.5 255.052 235.435L253.935 235.2C253.307 235.07 252.843 234.849 252.542 234.54C252.241 234.227 252.091 233.832 252.094 233.355C252.091 232.952 252.201 232.602 252.422 232.307C252.647 232.009 252.958 231.778 253.356 231.616C253.756 231.452 254.218 231.369 254.741 231.369C255.508 231.369 256.111 231.533 256.552 231.859C256.995 232.186 257.269 232.628 257.374 233.185ZM263.155 240.455V236.969H263.091C263.011 237.128 262.896 237.297 262.746 237.476C262.595 237.652 262.396 237.803 262.149 237.928C261.902 238.053 261.591 238.115 261.216 238.115C260.702 238.115 260.241 237.983 259.835 237.719C259.429 237.455 259.108 237.071 258.872 236.568C258.636 236.065 258.518 235.455 258.518 234.736C258.518 234.009 258.638 233.395 258.876 232.895C259.118 232.392 259.443 232.013 259.852 231.757C260.261 231.499 260.717 231.369 261.22 231.369C261.604 231.369 261.919 231.435 262.166 231.565C262.413 231.693 262.609 231.848 262.754 232.03C262.899 232.209 263.011 232.378 263.091 232.537H263.184V231.455H264.702V240.455H263.155ZM261.646 236.849C261.973 236.849 262.251 236.761 262.481 236.585C262.711 236.406 262.886 236.158 263.006 235.839C263.125 235.521 263.184 235.151 263.184 234.727C263.184 234.304 263.125 233.936 263.006 233.624C262.889 233.311 262.716 233.068 262.486 232.895C262.258 232.722 261.979 232.635 261.646 232.635C261.302 232.635 261.015 232.724 260.785 232.903C260.555 233.082 260.382 233.33 260.265 233.645C260.149 233.96 260.091 234.321 260.091 234.727C260.091 235.136 260.149 235.501 260.265 235.822C260.385 236.141 260.559 236.392 260.79 236.577C261.023 236.759 261.308 236.849 261.646 236.849ZM270.459 235.247V231.455H272.001V238H270.506V236.837H270.437C270.29 237.203 270.047 237.503 269.709 237.736C269.373 237.969 268.96 238.085 268.469 238.085C268.04 238.085 267.66 237.99 267.331 237.8C267.004 237.607 266.748 237.327 266.564 236.96C266.379 236.591 266.287 236.145 266.287 235.622V231.455H267.829V235.384C267.829 235.798 267.943 236.128 268.17 236.372C268.398 236.616 268.696 236.739 269.065 236.739C269.292 236.739 269.513 236.683 269.726 236.572C269.939 236.462 270.113 236.297 270.25 236.078C270.389 235.857 270.459 235.58 270.459 235.247ZM276.485 238.128C275.829 238.128 275.262 237.991 274.785 237.719C274.311 237.443 273.945 237.054 273.69 236.551C273.434 236.045 273.306 235.45 273.306 234.766C273.306 234.092 273.434 233.501 273.69 232.993C273.948 232.482 274.309 232.084 274.772 231.8C275.235 231.513 275.779 231.369 276.404 231.369C276.808 231.369 277.188 231.435 277.546 231.565C277.907 231.693 278.225 231.892 278.501 232.162C278.779 232.432 278.998 232.776 279.157 233.193C279.316 233.608 279.396 234.102 279.396 234.676V235.149H274.031V234.109H277.917C277.914 233.814 277.85 233.551 277.725 233.321C277.6 233.088 277.426 232.905 277.201 232.771C276.98 232.638 276.721 232.571 276.426 232.571C276.11 232.571 275.833 232.648 275.595 232.801C275.356 232.952 275.17 233.151 275.036 233.398C274.906 233.642 274.839 233.911 274.836 234.203V235.111C274.836 235.491 274.906 235.818 275.045 236.091C275.184 236.361 275.379 236.568 275.629 236.713C275.879 236.855 276.171 236.926 276.507 236.926C276.731 236.926 276.934 236.895 277.116 236.832C277.298 236.767 277.455 236.672 277.589 236.547C277.722 236.422 277.823 236.267 277.892 236.082L279.332 236.244C279.241 236.625 279.068 236.957 278.812 237.241C278.559 237.523 278.235 237.741 277.84 237.898C277.445 238.051 276.994 238.128 276.485 238.128ZM283.556 238.128C282.903 238.128 282.341 237.984 281.873 237.697C281.407 237.411 281.047 237.014 280.795 236.509C280.545 236 280.42 235.415 280.42 234.753C280.42 234.088 280.547 233.501 280.803 232.993C281.059 232.482 281.42 232.084 281.885 231.8C282.354 231.513 282.908 231.369 283.547 231.369C284.079 231.369 284.549 231.467 284.958 231.663C285.37 231.857 285.698 232.131 285.942 232.486C286.187 232.838 286.326 233.25 286.36 233.722H284.885C284.826 233.406 284.684 233.143 284.459 232.933C284.238 232.72 283.941 232.614 283.569 232.614C283.253 232.614 282.976 232.699 282.738 232.869C282.499 233.037 282.313 233.278 282.18 233.594C282.049 233.909 281.983 234.287 281.983 234.727C281.983 235.173 282.049 235.557 282.18 235.878C282.31 236.196 282.493 236.442 282.729 236.615C282.968 236.786 283.248 236.871 283.569 236.871C283.796 236.871 283.999 236.828 284.178 236.743C284.36 236.655 284.512 236.528 284.634 236.364C284.756 236.199 284.84 235.999 284.885 235.763H286.36C286.323 236.226 286.187 236.636 285.951 236.994C285.715 237.349 285.394 237.628 284.988 237.83C284.581 238.028 284.104 238.128 283.556 238.128ZM290.524 238.128C289.868 238.128 289.301 237.991 288.824 237.719C288.35 237.443 287.985 237.054 287.729 236.551C287.473 236.045 287.345 235.45 287.345 234.766C287.345 234.092 287.473 233.501 287.729 232.993C287.987 232.482 288.348 232.084 288.811 231.8C289.274 231.513 289.818 231.369 290.443 231.369C290.847 231.369 291.227 231.435 291.585 231.565C291.946 231.693 292.264 231.892 292.54 232.162C292.818 232.432 293.037 232.776 293.196 233.193C293.355 233.608 293.435 234.102 293.435 234.676V235.149H288.07V234.109H291.956C291.953 233.814 291.889 233.551 291.764 233.321C291.639 233.088 291.465 232.905 291.24 232.771C291.019 232.638 290.76 232.571 290.465 232.571C290.149 232.571 289.872 232.648 289.634 232.801C289.395 232.952 289.209 233.151 289.075 233.398C288.945 233.642 288.878 233.911 288.875 234.203V235.111C288.875 235.491 288.945 235.818 289.084 236.091C289.223 236.361 289.418 236.568 289.668 236.713C289.918 236.855 290.21 236.926 290.546 236.926C290.77 236.926 290.973 236.895 291.155 236.832C291.337 236.767 291.494 236.672 291.628 236.547C291.762 236.422 291.862 236.267 291.931 236.082L293.371 236.244C293.28 236.625 293.107 236.957 292.851 237.241C292.598 237.523 292.274 237.741 291.879 237.898C291.485 238.051 291.033 238.128 290.524 238.128ZM298.912 235.247V231.455H300.454V238H298.959V236.837H298.89C298.743 237.203 298.5 237.503 298.162 237.736C297.827 237.969 297.413 238.085 296.922 238.085C296.493 238.085 296.113 237.99 295.784 237.8C295.457 237.607 295.202 237.327 295.017 236.96C294.832 236.591 294.74 236.145 294.74 235.622V231.455H296.282V235.384C296.282 235.798 296.396 236.128 296.623 236.372C296.851 236.616 297.149 236.739 297.518 236.739C297.746 236.739 297.966 236.683 298.179 236.572C298.392 236.462 298.567 236.297 298.703 236.078C298.842 235.857 298.912 235.58 298.912 235.247ZM306.901 238.132C306.486 238.132 306.112 238.058 305.78 237.911C305.45 237.76 305.189 237.538 304.996 237.246C304.806 236.953 304.71 236.592 304.71 236.163C304.71 235.794 304.779 235.489 304.915 235.247C305.051 235.006 305.237 234.812 305.473 234.668C305.709 234.523 305.975 234.413 306.27 234.339C306.568 234.263 306.877 234.207 307.195 234.173C307.578 234.134 307.889 234.098 308.128 234.067C308.367 234.033 308.54 233.982 308.648 233.913C308.759 233.842 308.814 233.733 308.814 233.585V233.56C308.814 233.239 308.719 232.99 308.529 232.814C308.338 232.638 308.064 232.55 307.706 232.55C307.328 232.55 307.029 232.632 306.807 232.797C306.588 232.962 306.441 233.156 306.364 233.381L304.923 233.176C305.037 232.778 305.225 232.446 305.486 232.179C305.747 231.909 306.067 231.707 306.445 231.574C306.823 231.438 307.24 231.369 307.698 231.369C308.013 231.369 308.327 231.406 308.639 231.48C308.952 231.554 309.237 231.676 309.496 231.847C309.754 232.014 309.962 232.243 310.118 232.533C310.277 232.822 310.357 233.185 310.357 233.619V238H308.874V237.101H308.823C308.729 237.283 308.597 237.453 308.426 237.612C308.259 237.768 308.047 237.895 307.791 237.991C307.539 238.085 307.242 238.132 306.901 238.132ZM307.301 236.999C307.611 236.999 307.879 236.937 308.107 236.815C308.334 236.69 308.509 236.526 308.631 236.321C308.756 236.116 308.818 235.893 308.818 235.652V234.881C308.77 234.92 308.688 234.957 308.571 234.991C308.458 235.026 308.33 235.055 308.188 235.081C308.046 235.107 307.905 235.129 307.766 235.149C307.627 235.169 307.506 235.186 307.404 235.2C307.173 235.232 306.968 235.283 306.786 235.354C306.604 235.425 306.46 235.524 306.355 235.652C306.25 235.777 306.198 235.939 306.198 236.138C306.198 236.422 306.301 236.636 306.509 236.781C306.716 236.926 306.98 236.999 307.301 236.999ZM320.058 233.185L318.651 233.338C318.612 233.196 318.542 233.062 318.443 232.938C318.346 232.812 318.215 232.712 318.051 232.635C317.886 232.558 317.684 232.52 317.445 232.52C317.124 232.52 316.855 232.589 316.636 232.729C316.42 232.868 316.313 233.048 316.316 233.27C316.313 233.46 316.383 233.615 316.525 233.734C316.67 233.854 316.909 233.952 317.241 234.028L318.357 234.267C318.977 234.401 319.437 234.612 319.738 234.902C320.042 235.192 320.195 235.571 320.198 236.04C320.195 236.452 320.075 236.815 319.836 237.131C319.6 237.443 319.272 237.687 318.852 237.864C318.431 238.04 317.948 238.128 317.403 238.128C316.602 238.128 315.957 237.96 315.468 237.625C314.98 237.287 314.688 236.817 314.595 236.214L316.099 236.07C316.167 236.365 316.312 236.588 316.534 236.739C316.755 236.889 317.044 236.964 317.399 236.964C317.765 236.964 318.059 236.889 318.281 236.739C318.505 236.588 318.617 236.402 318.617 236.18C318.617 235.993 318.545 235.838 318.4 235.716C318.258 235.594 318.036 235.5 317.735 235.435L316.619 235.2C315.991 235.07 315.526 234.849 315.225 234.54C314.924 234.227 314.775 233.832 314.778 233.355C314.775 232.952 314.884 232.602 315.106 232.307C315.33 232.009 315.642 231.778 316.039 231.616C316.44 231.452 316.901 231.369 317.424 231.369C318.191 231.369 318.795 231.533 319.235 231.859C319.678 232.186 319.953 232.628 320.058 233.185ZM324.368 238.128C323.712 238.128 323.145 237.991 322.668 237.719C322.193 237.443 321.828 237.054 321.573 236.551C321.317 236.045 321.189 235.45 321.189 234.766C321.189 234.092 321.317 233.501 321.573 232.993C321.831 232.482 322.192 232.084 322.655 231.8C323.118 231.513 323.662 231.369 324.287 231.369C324.691 231.369 325.071 231.435 325.429 231.565C325.79 231.693 326.108 231.892 326.384 232.162C326.662 232.432 326.881 232.776 327.04 233.193C327.199 233.608 327.279 234.102 327.279 234.676V235.149H321.914V234.109H325.8C325.797 233.814 325.733 233.551 325.608 233.321C325.483 233.088 325.308 232.905 325.084 232.771C324.862 232.638 324.604 232.571 324.308 232.571C323.993 232.571 323.716 232.648 323.477 232.801C323.239 232.952 323.053 233.151 322.919 233.398C322.789 233.642 322.722 233.911 322.719 234.203V235.111C322.719 235.491 322.789 235.818 322.928 236.091C323.067 236.361 323.262 236.568 323.512 236.713C323.762 236.855 324.054 236.926 324.389 236.926C324.614 236.926 324.817 236.895 324.999 236.832C325.181 236.767 325.338 236.672 325.472 236.547C325.605 236.422 325.706 236.267 325.774 236.082L327.215 236.244C327.124 236.625 326.95 236.957 326.695 237.241C326.442 237.523 326.118 237.741 325.723 237.898C325.328 238.051 324.877 238.128 324.368 238.128ZM330.126 234.165V238H328.584V231.455H330.058V232.567H330.135C330.285 232.2 330.525 231.909 330.855 231.693C331.187 231.477 331.598 231.369 332.086 231.369C332.538 231.369 332.932 231.466 333.267 231.659C333.605 231.852 333.866 232.132 334.051 232.499C334.238 232.865 334.331 233.31 334.328 233.832V238H332.785V234.071C332.785 233.634 332.672 233.291 332.444 233.044C332.22 232.797 331.909 232.673 331.511 232.673C331.241 232.673 331.001 232.733 330.791 232.852C330.584 232.969 330.42 233.138 330.301 233.359C330.184 233.581 330.126 233.849 330.126 234.165ZM337.439 234.165V238H335.896V229.273H337.405V232.567H337.481C337.635 232.197 337.872 231.906 338.193 231.693C338.517 231.477 338.929 231.369 339.429 231.369C339.883 231.369 340.28 231.464 340.618 231.655C340.956 231.845 341.217 232.124 341.402 232.49C341.589 232.857 341.683 233.304 341.683 233.832V238H340.14V234.071C340.14 233.631 340.027 233.288 339.8 233.044C339.575 232.797 339.26 232.673 338.854 232.673C338.581 232.673 338.336 232.733 338.121 232.852C337.907 232.969 337.74 233.138 337.618 233.359C337.498 233.581 337.439 233.849 337.439 234.165ZM345.139 238.132C344.724 238.132 344.351 238.058 344.018 237.911C343.689 237.76 343.427 237.538 343.234 237.246C343.044 236.953 342.949 236.592 342.949 236.163C342.949 235.794 343.017 235.489 343.153 235.247C343.29 235.006 343.476 234.812 343.711 234.668C343.947 234.523 344.213 234.413 344.508 234.339C344.807 234.263 345.115 234.207 345.433 234.173C345.817 234.134 346.128 234.098 346.366 234.067C346.605 234.033 346.778 233.982 346.886 233.913C346.997 233.842 347.052 233.733 347.052 233.585V233.56C347.052 233.239 346.957 232.99 346.767 232.814C346.577 232.638 346.302 232.55 345.944 232.55C345.567 232.55 345.267 232.632 345.045 232.797C344.827 232.962 344.679 233.156 344.602 233.381L343.162 233.176C343.275 232.778 343.463 232.446 343.724 232.179C343.986 231.909 344.305 231.707 344.683 231.574C345.061 231.438 345.479 231.369 345.936 231.369C346.251 231.369 346.565 231.406 346.878 231.48C347.19 231.554 347.476 231.676 347.734 231.847C347.993 232.014 348.2 232.243 348.356 232.533C348.515 232.822 348.595 233.185 348.595 233.619V238H347.112V237.101H347.061C346.967 237.283 346.835 237.453 346.665 237.612C346.497 237.768 346.285 237.895 346.03 237.991C345.777 238.085 345.48 238.132 345.139 238.132ZM345.54 236.999C345.849 236.999 346.118 236.937 346.345 236.815C346.572 236.69 346.747 236.526 346.869 236.321C346.994 236.116 347.057 235.893 347.057 235.652V234.881C347.008 234.92 346.926 234.957 346.809 234.991C346.696 235.026 346.568 235.055 346.426 235.081C346.284 235.107 346.143 235.129 346.004 235.149C345.865 235.169 345.744 235.186 345.642 235.2C345.412 235.232 345.206 235.283 345.024 235.354C344.842 235.425 344.699 235.524 344.594 235.652C344.488 235.777 344.436 235.939 344.436 236.138C344.436 236.422 344.54 236.636 344.747 236.781C344.954 236.926 345.219 236.999 345.54 236.999ZM351.621 235.435V235.324C351.623 234.81 351.672 234.401 351.765 234.097C351.862 233.793 351.998 233.548 352.175 233.364C352.351 233.176 352.565 233.004 352.818 232.848C352.991 232.74 353.146 232.622 353.282 232.494C353.422 232.364 353.531 232.219 353.611 232.06C353.69 231.898 353.73 231.717 353.73 231.518C353.73 231.294 353.677 231.099 353.572 230.935C353.467 230.77 353.325 230.642 353.146 230.551C352.97 230.46 352.773 230.415 352.554 230.415C352.352 230.415 352.16 230.459 351.979 230.547C351.8 230.632 351.65 230.763 351.531 230.939C351.415 231.112 351.349 231.332 351.335 231.599H349.818C349.832 231.06 349.963 230.608 350.21 230.244C350.46 229.881 350.79 229.608 351.199 229.426C351.611 229.244 352.065 229.153 352.562 229.153C353.105 229.153 353.582 229.249 353.994 229.439C354.409 229.629 354.731 229.901 354.961 230.253C355.194 230.602 355.311 231.017 355.311 231.497C355.311 231.821 355.258 232.111 355.153 232.366C355.051 232.622 354.905 232.849 354.714 233.048C354.524 233.247 354.298 233.425 354.037 233.581C353.807 233.723 353.618 233.871 353.47 234.024C353.325 234.178 353.217 234.358 353.146 234.565C353.078 234.77 353.042 235.023 353.04 235.324V235.435H351.621ZM352.362 238.094C352.106 238.094 351.886 238.003 351.702 237.821C351.517 237.639 351.425 237.418 351.425 237.156C351.425 236.901 351.517 236.682 351.702 236.5C351.886 236.318 352.106 236.227 352.362 236.227C352.615 236.227 352.834 236.318 353.018 236.5C353.206 236.682 353.3 236.901 353.3 237.156C353.3 237.33 353.256 237.487 353.167 237.629C353.082 237.771 352.969 237.885 352.827 237.97C352.687 238.053 352.532 238.094 352.362 238.094Z" fill="black" fill-opacity="0.5"/>
<rect x="190" y="171" width="220" height="55" fill="white"/>
<line x1="202.222" y1="219.522" x2="397.778" y2="219.522" stroke="black"/>
<path d="M209.088 180.815C209.046 180.386 208.863 180.052 208.54 179.814C208.216 179.576 207.778 179.457 207.224 179.457C206.848 179.457 206.53 179.51 206.27 179.617C206.011 179.72 205.812 179.864 205.674 180.048C205.539 180.233 205.471 180.442 205.471 180.677C205.464 180.872 205.505 181.043 205.594 181.188C205.686 181.334 205.812 181.46 205.972 181.566C206.132 181.669 206.317 181.76 206.526 181.838C206.736 181.913 206.959 181.976 207.197 182.03L208.177 182.264C208.653 182.371 209.09 182.513 209.488 182.69C209.886 182.868 210.23 183.086 210.521 183.345C210.812 183.605 211.038 183.91 211.198 184.262C211.361 184.613 211.444 185.016 211.448 185.471C211.444 186.138 211.274 186.717 210.937 187.207C210.603 187.694 210.12 188.072 209.488 188.342C208.859 188.608 208.101 188.741 207.213 188.741C206.333 188.741 205.566 188.606 204.912 188.337C204.262 188.067 203.754 187.667 203.389 187.138C203.027 186.605 202.837 185.947 202.819 185.162H205.051C205.076 185.528 205.18 185.833 205.365 186.078C205.553 186.32 205.803 186.502 206.116 186.627C206.432 186.747 206.789 186.808 207.187 186.808C207.577 186.808 207.916 186.751 208.204 186.637C208.495 186.524 208.721 186.366 208.881 186.163C209.04 185.961 209.12 185.728 209.12 185.465C209.12 185.22 209.047 185.014 208.902 184.848C208.76 184.681 208.55 184.539 208.273 184.421C208 184.304 207.664 184.198 207.267 184.102L206.079 183.804C205.159 183.58 204.433 183.23 203.9 182.754C203.367 182.278 203.103 181.637 203.106 180.831C203.103 180.171 203.279 179.594 203.634 179.1C203.992 178.606 204.484 178.221 205.109 177.944C205.734 177.667 206.444 177.529 207.24 177.529C208.05 177.529 208.756 177.667 209.36 177.944C209.967 178.221 210.439 178.606 210.777 179.1C211.114 179.594 211.288 180.165 211.299 180.815H209.088ZM216.686 188.747C215.844 188.747 215.119 188.576 214.512 188.235C213.909 187.891 213.443 187.404 213.117 186.776C212.79 186.144 212.627 185.396 212.627 184.533C212.627 183.692 212.79 182.953 213.117 182.317C213.443 181.682 213.903 181.186 214.496 180.831C215.093 180.476 215.792 180.299 216.595 180.299C217.135 180.299 217.637 180.386 218.102 180.56C218.571 180.73 218.98 180.987 219.328 181.332C219.679 181.676 219.953 182.11 220.148 182.632C220.343 183.15 220.441 183.757 220.441 184.453V185.077H213.532V183.67H218.305C218.305 183.344 218.234 183.054 218.092 182.802C217.95 182.55 217.753 182.353 217.5 182.211C217.252 182.065 216.962 181.992 216.632 181.992C216.288 181.992 215.982 182.072 215.716 182.232C215.453 182.388 215.247 182.6 215.098 182.866C214.949 183.129 214.873 183.422 214.869 183.745V185.082C214.869 185.487 214.944 185.837 215.093 186.131C215.246 186.426 215.46 186.653 215.737 186.813C216.014 186.973 216.343 187.053 216.723 187.053C216.975 187.053 217.206 187.017 217.415 186.946C217.625 186.875 217.804 186.769 217.953 186.627C218.102 186.485 218.216 186.311 218.294 186.105L220.393 186.243C220.286 186.747 220.068 187.188 219.738 187.564C219.411 187.937 218.988 188.228 218.47 188.438C217.955 188.644 217.36 188.747 216.686 188.747ZM224.191 183.857V188.587H221.922V180.405H224.084V181.849H224.18C224.361 181.373 224.665 180.996 225.091 180.719C225.517 180.439 226.034 180.299 226.641 180.299C227.209 180.299 227.705 180.423 228.127 180.671C228.55 180.92 228.878 181.275 229.113 181.737C229.347 182.195 229.464 182.742 229.464 183.377V188.587H227.195V183.782C227.199 183.282 227.071 182.891 226.812 182.61C226.552 182.326 226.195 182.184 225.741 182.184C225.436 182.184 225.166 182.25 224.931 182.381C224.7 182.513 224.519 182.704 224.388 182.957C224.26 183.205 224.194 183.505 224.191 183.857ZM233.522 183.857V188.587H231.253V177.678H233.458V181.849H233.554C233.739 181.366 234.037 180.987 234.449 180.714C234.861 180.437 235.377 180.299 235.999 180.299C236.567 180.299 237.062 180.423 237.485 180.671C237.911 180.916 238.241 181.27 238.476 181.731C238.714 182.19 238.831 182.738 238.827 183.377V188.587H236.558V183.782C236.562 183.278 236.434 182.886 236.175 182.605C235.919 182.324 235.56 182.184 235.099 182.184C234.79 182.184 234.516 182.25 234.278 182.381C234.044 182.513 233.859 182.704 233.724 182.957C233.593 183.205 233.525 183.505 233.522 183.857ZM242.946 188.741C242.424 188.741 241.959 188.651 241.551 188.47C241.142 188.285 240.819 188.013 240.581 187.655C240.347 187.293 240.23 186.842 240.23 186.302C240.23 185.847 240.313 185.465 240.48 185.157C240.647 184.848 240.874 184.599 241.162 184.411C241.449 184.223 241.776 184.081 242.142 183.985C242.511 183.889 242.898 183.821 243.303 183.782C243.779 183.733 244.162 183.686 244.454 183.644C244.745 183.598 244.956 183.53 245.087 183.441C245.219 183.353 245.285 183.221 245.285 183.047V183.015C245.285 182.678 245.178 182.417 244.965 182.232C244.755 182.047 244.457 181.955 244.07 181.955C243.662 181.955 243.337 182.046 243.095 182.227C242.854 182.404 242.694 182.628 242.616 182.898L240.517 182.728C240.624 182.23 240.833 181.801 241.146 181.438C241.458 181.073 241.861 180.792 242.355 180.597C242.852 180.398 243.427 180.299 244.081 180.299C244.535 180.299 244.97 180.352 245.386 180.458C245.805 180.565 246.176 180.73 246.499 180.954C246.826 181.177 247.083 181.465 247.271 181.817C247.46 182.165 247.554 182.582 247.554 183.068V188.587H245.402V187.452H245.338C245.206 187.708 245.031 187.934 244.811 188.129C244.59 188.321 244.326 188.472 244.017 188.582C243.708 188.688 243.351 188.741 242.946 188.741ZM243.596 187.175C243.93 187.175 244.225 187.11 244.48 186.978C244.736 186.843 244.937 186.662 245.082 186.435C245.228 186.208 245.301 185.95 245.301 185.663V184.794C245.23 184.84 245.132 184.883 245.008 184.922C244.887 184.958 244.75 184.991 244.597 185.023C244.445 185.052 244.292 185.078 244.139 185.103C243.987 185.125 243.848 185.144 243.724 185.162C243.458 185.201 243.225 185.263 243.026 185.348C242.827 185.434 242.673 185.549 242.563 185.695C242.453 185.837 242.398 186.014 242.398 186.227C242.398 186.536 242.509 186.772 242.733 186.936C242.96 187.095 243.248 187.175 243.596 187.175Z" fill="black"/>
<rect x="190" y="105" width="220" height="55" fill="white"/>
<line x1="202.222" y1="153.522" x2="397.778" y2="153.522" stroke="black"/>
<path d="M212.796 115.497H210.463C210.42 115.195 210.333 114.927 210.202 114.693C210.07 114.455 209.902 114.253 209.696 114.086C209.49 113.919 209.252 113.791 208.982 113.702C208.715 113.613 208.426 113.569 208.114 113.569C207.549 113.569 207.057 113.709 206.638 113.99C206.219 114.267 205.894 114.672 205.663 115.204C205.432 115.733 205.317 116.376 205.317 117.132C205.317 117.91 205.432 118.564 205.663 119.093C205.898 119.622 206.224 120.021 206.643 120.291C207.062 120.561 207.547 120.696 208.098 120.696C208.406 120.696 208.692 120.655 208.955 120.574C209.221 120.492 209.458 120.373 209.664 120.217C209.87 120.057 210.04 119.863 210.175 119.636C210.313 119.409 210.409 119.15 210.463 118.858L212.796 118.869C212.735 119.37 212.584 119.853 212.343 120.318C212.105 120.78 211.784 121.193 211.379 121.559C210.977 121.921 210.498 122.209 209.941 122.422C209.387 122.631 208.76 122.736 208.06 122.736C207.087 122.736 206.217 122.516 205.45 122.076C204.687 121.635 204.083 120.998 203.639 120.163C203.199 119.329 202.979 118.319 202.979 117.132C202.979 115.943 203.202 114.931 203.65 114.096C204.097 113.262 204.704 112.626 205.471 112.189C206.239 111.749 207.101 111.529 208.06 111.529C208.692 111.529 209.278 111.618 209.818 111.795C210.361 111.973 210.843 112.232 211.262 112.573C211.681 112.91 212.022 113.324 212.284 113.814C212.551 114.304 212.721 114.865 212.796 115.497ZM214.45 122.587V111.678H218.754C219.581 111.678 220.286 111.836 220.868 112.152C221.451 112.465 221.895 112.9 222.2 113.457C222.509 114.011 222.663 114.65 222.663 115.375C222.663 116.099 222.507 116.738 222.195 117.292C221.882 117.846 221.429 118.278 220.836 118.587C220.247 118.896 219.533 119.05 218.695 119.05H215.952V117.202H218.322C218.766 117.202 219.132 117.125 219.419 116.973C219.711 116.816 219.927 116.602 220.069 116.328C220.215 116.051 220.288 115.733 220.288 115.375C220.288 115.012 220.215 114.696 220.069 114.427C219.927 114.153 219.711 113.942 219.419 113.793C219.128 113.64 218.759 113.564 218.311 113.564H216.756V122.587H214.45ZM224.162 122.587V111.678H231.385V113.58H226.468V116.179H230.905V118.081H226.468V122.587H224.162Z" fill="black"/>
<path d="M246.131 57.7273V81H241.21V57.7273H246.131ZM254.929 70.9091V81H250.088V63.5455H254.702V66.625H254.906C255.293 65.6098 255.94 64.8068 256.849 64.2159C257.759 63.6174 258.861 63.3182 260.156 63.3182C261.368 63.3182 262.425 63.5833 263.327 64.1136C264.228 64.6439 264.929 65.4015 265.429 66.3864C265.929 67.3636 266.179 68.5303 266.179 69.8864V81H261.338V70.75C261.346 69.6818 261.073 68.8485 260.52 68.25C259.967 67.6439 259.205 67.3409 258.236 67.3409C257.584 67.3409 257.009 67.4811 256.509 67.7614C256.016 68.0417 255.63 68.4508 255.349 68.9886C255.077 69.5189 254.937 70.1591 254.929 70.9091ZM279.381 63.5455V67.1818H268.608V63.5455H279.381ZM271.074 81V62.2841C271.074 61.0189 271.32 59.9697 271.812 59.1364C272.312 58.303 272.994 57.678 273.858 57.2614C274.722 56.8447 275.703 56.6364 276.801 56.6364C277.544 56.6364 278.222 56.6932 278.835 56.8068C279.456 56.9205 279.919 57.0227 280.222 57.1136L279.358 60.75C279.169 60.6894 278.934 60.6326 278.653 60.5795C278.381 60.5265 278.1 60.5 277.812 60.5C277.1 60.5 276.604 60.6667 276.324 61C276.044 61.3258 275.903 61.7841 275.903 62.375V81H271.074ZM289.599 81.3409C287.834 81.3409 286.308 80.9659 285.02 80.2159C283.74 79.4583 282.751 78.4053 282.054 77.0568C281.357 75.7008 281.009 74.1288 281.009 72.3409C281.009 70.5379 281.357 68.9621 282.054 67.6136C282.751 66.2576 283.74 65.2045 285.02 64.4545C286.308 63.697 287.834 63.3182 289.599 63.3182C291.365 63.3182 292.887 63.697 294.168 64.4545C295.455 65.2045 296.448 66.2576 297.145 67.6136C297.842 68.9621 298.19 70.5379 298.19 72.3409C298.19 74.1288 297.842 75.7008 297.145 77.0568C296.448 78.4053 295.455 79.4583 294.168 80.2159C292.887 80.9659 291.365 81.3409 289.599 81.3409ZM289.622 77.5909C290.425 77.5909 291.096 77.3636 291.634 76.9091C292.171 76.447 292.577 75.8182 292.849 75.0227C293.13 74.2273 293.27 73.322 293.27 72.3068C293.27 71.2917 293.13 70.3864 292.849 69.5909C292.577 68.7955 292.171 68.1667 291.634 67.7045C291.096 67.2424 290.425 67.0114 289.622 67.0114C288.812 67.0114 288.13 67.2424 287.577 67.7045C287.031 68.1667 286.618 68.7955 286.338 69.5909C286.065 70.3864 285.929 71.2917 285.929 72.3068C285.929 73.322 286.065 74.2273 286.338 75.0227C286.618 75.8182 287.031 76.447 287.577 76.9091C288.13 77.3636 288.812 77.5909 289.622 77.5909ZM301.338 81V63.5455H306.031V66.5909H306.213C306.531 65.5076 307.065 64.6894 307.815 64.1364C308.565 63.5758 309.429 63.2955 310.406 63.2955C310.649 63.2955 310.91 63.3106 311.19 63.3409C311.471 63.3712 311.717 63.4129 311.929 63.4659V67.7614C311.702 67.6932 311.387 67.6326 310.986 67.5795C310.584 67.5265 310.217 67.5 309.884 67.5C309.171 67.5 308.535 67.6553 307.974 67.9659C307.421 68.2689 306.982 68.6932 306.656 69.2386C306.338 69.7841 306.179 70.4129 306.179 71.125V81H301.338ZM314.432 81V63.5455H319.045V66.625H319.25C319.614 65.6023 320.22 64.7955 321.068 64.2045C321.917 63.6136 322.932 63.3182 324.114 63.3182C325.311 63.3182 326.33 63.6174 327.17 64.2159C328.011 64.8068 328.572 65.6098 328.852 66.625H329.034C329.39 65.625 330.034 64.8258 330.966 64.2273C331.905 63.6212 333.015 63.3182 334.295 63.3182C335.924 63.3182 337.246 63.8371 338.261 64.875C339.284 65.9053 339.795 67.3674 339.795 69.2614V81H334.966V70.2159C334.966 69.2462 334.708 68.5189 334.193 68.0341C333.678 67.5492 333.034 67.3068 332.261 67.3068C331.383 67.3068 330.697 67.5871 330.205 68.1477C329.712 68.7008 329.466 69.4318 329.466 70.3409V81H324.773V70.1136C324.773 69.2576 324.527 68.5758 324.034 68.0682C323.549 67.5606 322.909 67.3068 322.114 67.3068C321.576 67.3068 321.091 67.4432 320.659 67.7159C320.235 67.9811 319.898 68.3561 319.648 68.8409C319.398 69.3182 319.273 69.8788 319.273 70.5227V81H314.432ZM351.574 81.3409C349.778 81.3409 348.233 80.9773 346.938 80.25C345.65 79.5152 344.657 78.4773 343.96 77.1364C343.263 75.7879 342.915 74.1932 342.915 72.3523C342.915 70.5568 343.263 68.9811 343.96 67.625C344.657 66.2689 345.638 65.2121 346.903 64.4545C348.176 63.697 349.669 63.3182 351.381 63.3182C352.532 63.3182 353.604 63.5038 354.597 63.875C355.597 64.2386 356.468 64.7879 357.21 65.5227C357.96 66.2576 358.544 67.1818 358.96 68.2955C359.377 69.4015 359.585 70.697 359.585 72.1818V73.5114H344.847V70.5114H355.028C355.028 69.8144 354.877 69.197 354.574 68.6591C354.271 68.1212 353.85 67.7008 353.312 67.3977C352.782 67.0871 352.165 66.9318 351.46 66.9318C350.725 66.9318 350.074 67.1023 349.506 67.4432C348.945 67.7765 348.506 68.2273 348.188 68.7955C347.869 69.3561 347.706 69.9811 347.699 70.6705V73.5227C347.699 74.3864 347.858 75.1326 348.176 75.7614C348.502 76.3902 348.96 76.875 349.551 77.2159C350.142 77.5568 350.843 77.7273 351.653 77.7273C352.191 77.7273 352.684 77.6515 353.131 77.5C353.578 77.3485 353.96 77.1212 354.278 76.8182C354.597 76.5152 354.839 76.1439 355.006 75.7045L359.483 76C359.256 77.0758 358.79 78.0152 358.085 78.8182C357.388 79.6136 356.487 80.2348 355.381 80.6818C354.282 81.1212 353.013 81.3409 351.574 81.3409Z" fill="black"/>
<defs>
<filter id="filter0_d_167_73" x="205" y="256" width="190" height="56" filterUnits="userSpaceOnUse" color-interpolation-filters="sRGB">
<feFlood flood-opacity="0" result="BackgroundImageFix"/>
<feColorMatrix in="SourceAlpha" type="matrix" values="0 0 0 0 0 0 0 0 0 0 0 0 0 0 0 0 0 0 127 0" result="hardAlpha"/>
<feOffset dy="4"/>
<feGaussianBlur stdDeviation="2"/>
<feComposite in2="hardAlpha" operator="out"/>
<feColorMatrix type="matrix" values="0 0 0 0 0 0 0 0 0 0 0 0 0 0 0 0 0 0 0.25 0"/>
<feBlend mode="normal" in2="BackgroundImageFix" result="effect1_dropShadow_167_73"/>
<feBlend mode="normal" in="SourceGraphic" in2="effect1_dropShadow_167_73" result="shape"/>
</filter>
<linearGradient id="paint0_linear_167_73" x1="300" y1="0" x2="300" y2="400" gradientUnits="userSpaceOnUse">
<stop stop-color="#00356E"/>
<stop offset="1" stop-color="#00356E"/>
</linearGradient>
</defs>
</svg>
