<svg width="600" height="400" viewBox="0 0 600 400" fill="none" xmlns="http://www.w3.org/2000/svg">
<rect width="600" height="400" fill="url(#paint0_linear_167_62)"/>
<rect x="25" y="25" width="550" height="350" rx="5" fill="white"/>
<path d="M26 55H574V370C574 372.761 571.761 375 569 375H31C28.2386 375 26 372.761 26 370V55Z" fill="white"/>
<path d="M26 55H574H26ZM575.5 370C575.5 373.59 572.59 376.5 569 376.5H31C27.4101 376.5 24.5 373.59 24.5 370H27.5C27.5 371.933 29.067 373.5 31 373.5H569C570.933 373.5 572.5 371.933 572.5 370H575.5ZM31 376.5C27.4101 376.5 24.5 373.59 24.5 370V55H27.5V370C27.5 371.933 29.067 373.5 31 373.5V376.5ZM575.5 55V370C575.5 373.59 572.59 376.5 569 376.5V373.5C570.933 373.5 572.5 371.933 572.5 370V55H575.5Z" fill="black"/>
<rect x="60" y="65" width="480" height="300" rx="5" fill="white"/>
<g filter="url(#filter0_d_167_62)">
<rect x="225" y="325" width="150" height="40" rx="10" fill="white"/>
<rect x="224.5" y="324.5" width="151" height="41" rx="10.5" stroke="black"/>
</g>
<path d="M273.696 354V339.455H282.815V341.344H275.89V345.776H282.339V347.658H275.89V352.111H282.9V354H273.696ZM285.576 354V343.091H287.614V344.866H287.749C287.977 344.265 288.348 343.796 288.864 343.46C289.38 343.119 289.998 342.949 290.718 342.949C291.447 342.949 292.058 343.119 292.55 343.46C293.048 343.801 293.415 344.27 293.651 344.866H293.765C294.025 344.284 294.44 343.82 295.008 343.474C295.576 343.124 296.253 342.949 297.039 342.949C298.029 342.949 298.836 343.259 299.461 343.879C300.091 344.5 300.406 345.435 300.406 346.685V354H298.282V346.884C298.282 346.145 298.081 345.61 297.678 345.278C297.276 344.947 296.795 344.781 296.237 344.781C295.545 344.781 295.008 344.994 294.624 345.42C294.241 345.842 294.049 346.384 294.049 347.047V354H291.933V346.749C291.933 346.157 291.748 345.681 291.379 345.321C291.009 344.961 290.529 344.781 289.937 344.781C289.534 344.781 289.163 344.888 288.822 345.101C288.486 345.309 288.213 345.6 288.005 345.974C287.801 346.348 287.7 346.782 287.7 347.274V354H285.576ZM303.252 354V343.091H305.375V354H303.252ZM304.324 341.408C303.955 341.408 303.638 341.285 303.373 341.038C303.112 340.787 302.982 340.489 302.982 340.143C302.982 339.793 303.112 339.495 303.373 339.249C303.638 338.998 303.955 338.872 304.324 338.872C304.694 338.872 305.008 338.998 305.269 339.249C305.534 339.495 305.667 339.793 305.667 340.143C305.667 340.489 305.534 340.787 305.269 341.038C305.008 341.285 304.694 341.408 304.324 341.408ZM313.325 343.091V344.795H307.366V343.091H313.325ZM308.964 340.477H311.087V350.797C311.087 351.209 311.149 351.519 311.272 351.727C311.395 351.931 311.554 352.071 311.748 352.146C311.947 352.217 312.162 352.253 312.394 352.253C312.565 352.253 312.714 352.241 312.842 352.217C312.969 352.194 313.069 352.175 313.14 352.161L313.523 353.915C313.4 353.962 313.225 354.009 312.998 354.057C312.771 354.109 312.487 354.137 312.146 354.142C311.587 354.152 311.066 354.052 310.583 353.844C310.1 353.635 309.71 353.313 309.411 352.878C309.113 352.442 308.964 351.895 308.964 351.237V340.477ZM315.674 354V343.091H317.797V354H315.674ZM316.746 341.408C316.377 341.408 316.06 341.285 315.794 341.038C315.534 340.787 315.404 340.489 315.404 340.143C315.404 339.793 315.534 339.495 315.794 339.249C316.06 338.998 316.377 338.872 316.746 338.872C317.115 338.872 317.43 338.998 317.691 339.249C317.956 339.495 318.088 339.793 318.088 340.143C318.088 340.489 317.956 340.787 317.691 341.038C317.43 341.285 317.115 341.408 316.746 341.408ZM320.654 354V343.091H322.707V344.824H322.82C323.019 344.237 323.37 343.775 323.871 343.439C324.378 343.098 324.951 342.928 325.59 342.928C325.723 342.928 325.879 342.932 326.059 342.942C326.244 342.951 326.388 342.963 326.492 342.977V345.009C326.407 344.985 326.255 344.959 326.038 344.93C325.82 344.897 325.602 344.881 325.384 344.881C324.882 344.881 324.435 344.987 324.042 345.2C323.654 345.409 323.346 345.7 323.119 346.074C322.891 346.443 322.778 346.865 322.778 347.338V354H320.654Z" fill="black"/>
<rect x="91" y="231" width="427" height="80" fill="white"/>
<line x1="91" y1="301.511" x2="517.929" y2="301.511" stroke="black"/>
<line x1="91.0703" y1="273.646" x2="518" y2="273.646" stroke="black"/>
<path d="M92.0185 247.697V236.787H96.3224C97.1499 236.787 97.8548 236.945 98.4371 237.262C99.0195 237.574 99.4634 238.009 99.7688 238.567C100.078 239.121 100.232 239.76 100.232 240.484C100.232 241.209 100.076 241.848 99.7635 242.402C99.451 242.956 98.9982 243.387 98.4052 243.696C97.8157 244.005 97.1019 244.16 96.2638 244.16H93.5206V242.311H95.891C96.3349 242.311 96.7006 242.235 96.9883 242.082C97.2795 241.926 97.4961 241.711 97.6381 241.438C97.7837 241.161 97.8565 240.843 97.8565 240.484C97.8565 240.122 97.7837 239.806 97.6381 239.536C97.4961 239.263 97.2795 239.051 96.9883 238.902C96.6971 238.749 96.3278 238.673 95.8803 238.673H94.3249V247.697H92.0185ZM101.688 247.697V239.515H103.888V240.942H103.973C104.122 240.434 104.372 240.051 104.724 239.792C105.076 239.529 105.48 239.398 105.938 239.398C106.052 239.398 106.175 239.405 106.306 239.419C106.437 239.433 106.553 239.453 106.652 239.477V241.491C106.546 241.459 106.398 241.431 106.21 241.406C106.022 241.381 105.85 241.368 105.693 241.368C105.36 241.368 105.061 241.441 104.799 241.587C104.539 241.729 104.333 241.928 104.181 242.183C104.032 242.439 103.957 242.734 103.957 243.068V247.697H101.688ZM111.173 247.856C110.332 247.856 109.607 247.686 109 247.345C108.396 247.001 107.931 246.514 107.604 245.885C107.278 245.253 107.114 244.506 107.114 243.643C107.114 242.801 107.278 242.063 107.604 241.427C107.931 240.791 108.391 240.296 108.984 239.941C109.581 239.586 110.28 239.408 111.083 239.408C111.623 239.408 112.125 239.495 112.59 239.669C113.059 239.84 113.467 240.097 113.815 240.442C114.167 240.786 114.44 241.219 114.636 241.741C114.831 242.26 114.929 242.867 114.929 243.563V244.186H108.02V242.78H112.793C112.793 242.453 112.722 242.164 112.58 241.912C112.438 241.66 112.24 241.463 111.988 241.32C111.74 241.175 111.45 241.102 111.12 241.102C110.776 241.102 110.47 241.182 110.204 241.342C109.941 241.498 109.735 241.709 109.586 241.976C109.437 242.238 109.36 242.531 109.357 242.855V244.192C109.357 244.596 109.431 244.946 109.581 245.241C109.733 245.536 109.948 245.763 110.225 245.923C110.502 246.083 110.831 246.162 111.211 246.162C111.463 246.162 111.694 246.127 111.903 246.056C112.113 245.985 112.292 245.878 112.441 245.736C112.59 245.594 112.704 245.42 112.782 245.214L114.881 245.353C114.774 245.857 114.556 246.297 114.225 246.674C113.899 247.047 113.476 247.338 112.958 247.547C112.443 247.753 111.848 247.856 111.173 247.856ZM123.217 241.848L121.14 241.976C121.104 241.798 121.028 241.638 120.911 241.496C120.793 241.351 120.639 241.235 120.447 241.15C120.259 241.061 120.033 241.017 119.771 241.017C119.419 241.017 119.123 241.091 118.881 241.241C118.64 241.386 118.519 241.581 118.519 241.827C118.519 242.022 118.597 242.187 118.753 242.322C118.909 242.457 119.178 242.565 119.558 242.647L121.038 242.945C121.834 243.108 122.427 243.371 122.817 243.733C123.208 244.096 123.403 244.572 123.403 245.161C123.403 245.697 123.245 246.168 122.929 246.573C122.617 246.977 122.187 247.293 121.64 247.521C121.097 247.744 120.47 247.856 119.76 247.856C118.677 247.856 117.814 247.631 117.171 247.18C116.532 246.725 116.157 246.107 116.047 245.326L118.279 245.209C118.347 245.539 118.51 245.791 118.769 245.965C119.028 246.136 119.36 246.221 119.765 246.221C120.163 246.221 120.483 246.145 120.724 245.992C120.969 245.836 121.093 245.635 121.097 245.39C121.093 245.184 121.006 245.015 120.836 244.884C120.665 244.749 120.403 244.646 120.048 244.575L118.631 244.293C117.832 244.133 117.237 243.856 116.846 243.462C116.459 243.068 116.266 242.565 116.266 241.954C116.266 241.429 116.408 240.976 116.692 240.596C116.979 240.216 117.382 239.923 117.901 239.717C118.423 239.511 119.034 239.408 119.733 239.408C120.767 239.408 121.58 239.627 122.173 240.063C122.77 240.5 123.118 241.095 123.217 241.848ZM128.529 247.856C127.691 247.856 126.97 247.679 126.366 247.324C125.766 246.965 125.305 246.468 124.981 245.832C124.662 245.197 124.502 244.465 124.502 243.638C124.502 242.8 124.664 242.064 124.987 241.432C125.313 240.797 125.777 240.301 126.377 239.946C126.977 239.588 127.691 239.408 128.518 239.408C129.232 239.408 129.857 239.538 130.393 239.797C130.93 240.056 131.354 240.42 131.666 240.889C131.979 241.358 132.151 241.908 132.183 242.54H130.042C129.981 242.132 129.822 241.803 129.562 241.555C129.307 241.303 128.971 241.177 128.556 241.177C128.204 241.177 127.897 241.273 127.634 241.464C127.375 241.652 127.172 241.928 127.027 242.29C126.881 242.652 126.809 243.091 126.809 243.606C126.809 244.128 126.88 244.572 127.022 244.937C127.167 245.303 127.371 245.582 127.634 245.774C127.897 245.965 128.204 246.061 128.556 246.061C128.815 246.061 129.047 246.008 129.253 245.901C129.463 245.795 129.635 245.64 129.77 245.438C129.909 245.232 129.999 244.985 130.042 244.698H132.183C132.148 245.323 131.977 245.873 131.672 246.349C131.37 246.821 130.953 247.19 130.42 247.457C129.887 247.723 129.257 247.856 128.529 247.856ZM133.636 247.697V239.515H135.836V240.942H135.921C136.07 240.434 136.321 240.051 136.672 239.792C137.024 239.529 137.429 239.398 137.887 239.398C138 239.398 138.123 239.405 138.254 239.419C138.386 239.433 138.501 239.453 138.6 239.477V241.491C138.494 241.459 138.347 241.431 138.158 241.406C137.97 241.381 137.798 241.368 137.642 241.368C137.308 241.368 137.01 241.441 136.747 241.587C136.488 241.729 136.282 241.928 136.129 242.183C135.98 242.439 135.905 242.734 135.905 243.068V247.697H133.636ZM139.774 247.697V239.515H142.043V247.697H139.774ZM140.914 238.46C140.576 238.46 140.287 238.348 140.045 238.124C139.807 237.897 139.688 237.626 139.688 237.309C139.688 236.997 139.807 236.729 140.045 236.505C140.287 236.278 140.576 236.164 140.914 236.164C141.251 236.164 141.539 236.278 141.777 236.505C142.018 236.729 142.139 236.997 142.139 237.309C142.139 237.626 142.018 237.897 141.777 238.124C141.539 238.348 141.251 238.46 140.914 238.46ZM147.557 247.856C146.719 247.856 145.998 247.679 145.395 247.324C144.795 246.965 144.333 246.468 144.01 245.832C143.69 245.197 143.53 244.465 143.53 243.638C143.53 242.8 143.692 242.064 144.015 241.432C144.342 240.797 144.805 240.301 145.405 239.946C146.006 239.588 146.719 239.408 147.547 239.408C148.26 239.408 148.885 239.538 149.422 239.797C149.958 240.056 150.382 240.42 150.695 240.889C151.007 241.358 151.18 241.908 151.211 242.54H149.07C149.01 242.132 148.85 241.803 148.591 241.555C148.335 241.303 147.999 241.177 147.584 241.177C147.232 241.177 146.925 241.273 146.662 241.464C146.403 241.652 146.201 241.928 146.055 242.29C145.91 242.652 145.837 243.091 145.837 243.606C145.837 244.128 145.908 244.572 146.05 244.937C146.195 245.303 146.4 245.582 146.662 245.774C146.925 245.965 147.232 246.061 147.584 246.061C147.843 246.061 148.076 246.008 148.282 245.901C148.491 245.795 148.664 245.64 148.798 245.438C148.937 245.232 149.028 244.985 149.07 244.698H151.211C151.176 245.323 151.006 245.873 150.7 246.349C150.398 246.821 149.981 247.19 149.448 247.457C148.916 247.723 148.285 247.856 147.557 247.856ZM147.025 247.654H148.069L147.983 248.117C148.349 248.174 148.648 248.311 148.878 248.527C149.113 248.744 149.232 249.039 149.235 249.412C149.239 249.941 148.994 250.362 148.5 250.674C148.007 250.99 147.314 251.148 146.423 251.148L146.401 250.136C146.849 250.136 147.199 250.081 147.451 249.971C147.706 249.865 147.84 249.698 147.85 249.47C147.857 249.254 147.774 249.089 147.6 248.975C147.426 248.861 147.154 248.781 146.785 248.735L147.025 247.654ZM154.997 247.851C154.475 247.851 154.01 247.76 153.602 247.579C153.193 247.395 152.87 247.123 152.632 246.764C152.398 246.402 152.281 245.951 152.281 245.411C152.281 244.957 152.364 244.575 152.531 244.266C152.698 243.957 152.925 243.709 153.213 243.52C153.501 243.332 153.827 243.19 154.193 243.094C154.562 242.998 154.949 242.931 155.354 242.892C155.83 242.842 156.214 242.796 156.505 242.753C156.796 242.707 157.007 242.64 157.139 242.551C157.27 242.462 157.336 242.331 157.336 242.157V242.125C157.336 241.787 157.229 241.526 157.016 241.342C156.807 241.157 156.508 241.065 156.121 241.065C155.713 241.065 155.388 241.155 155.147 241.336C154.905 241.514 154.745 241.738 154.667 242.008L152.568 241.837C152.675 241.34 152.884 240.91 153.197 240.548C153.509 240.182 153.913 239.902 154.406 239.706C154.903 239.508 155.479 239.408 156.132 239.408C156.587 239.408 157.022 239.461 157.437 239.568C157.856 239.675 158.227 239.84 158.55 240.063C158.877 240.287 159.134 240.575 159.323 240.926C159.511 241.274 159.605 241.692 159.605 242.178V247.697H157.453V246.562H157.389C157.258 246.818 157.082 247.043 156.862 247.238C156.642 247.43 156.377 247.581 156.068 247.691C155.759 247.798 155.402 247.851 154.997 247.851ZM155.647 246.285C155.981 246.285 156.276 246.219 156.532 246.088C156.787 245.953 156.988 245.772 157.133 245.545C157.279 245.317 157.352 245.06 157.352 244.772V243.904C157.281 243.95 157.183 243.993 157.059 244.032C156.938 244.067 156.801 244.101 156.649 244.133C156.496 244.161 156.343 244.188 156.191 244.213C156.038 244.234 155.899 244.254 155.775 244.271C155.509 244.311 155.276 244.373 155.077 244.458C154.878 244.543 154.724 244.659 154.614 244.804C154.504 244.946 154.449 245.124 154.449 245.337C154.449 245.646 154.561 245.882 154.784 246.045C155.012 246.205 155.299 246.285 155.647 246.285ZM154.694 238.508L153.431 238.492C153.431 237.814 153.598 237.293 153.932 236.931C154.269 236.569 154.68 236.386 155.163 236.383C155.411 236.383 155.624 236.423 155.802 236.505C155.983 236.583 156.144 236.676 156.286 236.782C156.432 236.889 156.571 236.983 156.702 237.064C156.833 237.143 156.975 237.182 157.128 237.182C157.334 237.178 157.49 237.102 157.597 236.953C157.707 236.8 157.762 236.601 157.762 236.356L159.003 236.393C158.996 237.064 158.826 237.583 158.492 237.949C158.158 238.311 157.751 238.494 157.272 238.497C157.006 238.497 156.782 238.458 156.601 238.38C156.423 238.298 156.267 238.206 156.132 238.103C155.997 237.997 155.866 237.902 155.738 237.821C155.61 237.739 155.466 237.698 155.306 237.698C155.122 237.698 154.973 237.771 154.859 237.917C154.749 238.062 154.694 238.259 154.694 238.508ZM165.062 247.856C164.235 247.856 163.519 247.681 162.916 247.329C162.315 246.974 161.852 246.48 161.525 245.848C161.199 245.213 161.035 244.476 161.035 243.638C161.035 242.792 161.199 242.054 161.525 241.422C161.852 240.786 162.315 240.292 162.916 239.941C163.519 239.586 164.235 239.408 165.062 239.408C165.89 239.408 166.603 239.586 167.204 239.941C167.807 240.292 168.272 240.786 168.599 241.422C168.926 242.054 169.089 242.792 169.089 243.638C169.089 244.476 168.926 245.213 168.599 245.848C168.272 246.48 167.807 246.974 167.204 247.329C166.603 247.681 165.89 247.856 165.062 247.856ZM165.073 246.099C165.449 246.099 165.764 245.992 166.016 245.779C166.268 245.562 166.458 245.268 166.586 244.895C166.717 244.522 166.783 244.097 166.783 243.622C166.783 243.146 166.717 242.721 166.586 242.349C166.458 241.976 166.268 241.681 166.016 241.464C165.764 241.248 165.449 241.139 165.073 241.139C164.693 241.139 164.373 241.248 164.114 241.464C163.858 241.681 163.665 241.976 163.533 242.349C163.406 242.721 163.342 243.146 163.342 243.622C163.342 244.097 163.406 244.522 163.533 244.895C163.665 245.268 163.858 245.562 164.114 245.779C164.373 245.992 164.693 246.099 165.073 246.099Z" fill="black"/>
<rect x="91" y="177" width="427" height="50" fill="white"/>
<line x1="91" y1="220.5" x2="517.929" y2="220.5" stroke="black"/>
<path d="M98.7567 183.091H101.063V190.175C101.063 190.971 100.873 191.667 100.493 192.263C100.117 192.86 99.5895 193.325 98.9112 193.659C98.233 193.989 97.4428 194.154 96.5408 194.154C95.6353 194.154 94.8434 193.989 94.1651 193.659C93.4869 193.325 92.9595 192.86 92.5831 192.263C92.2067 191.667 92.0185 190.971 92.0185 190.175V183.091H94.3249V189.978C94.3249 190.394 94.4155 190.763 94.5966 191.086C94.7813 191.409 95.0405 191.663 95.3743 191.848C95.7081 192.033 96.0969 192.125 96.5408 192.125C96.9883 192.125 97.3771 192.033 97.7074 191.848C98.0412 191.663 98.2987 191.409 98.4798 191.086C98.6644 190.763 98.7567 190.394 98.7567 189.978V183.091ZM109.726 188.151L107.648 188.279C107.613 188.102 107.536 187.942 107.419 187.8C107.302 187.654 107.148 187.539 106.956 187.453C106.768 187.365 106.542 187.32 106.279 187.32C105.928 187.32 105.631 187.395 105.39 187.544C105.148 187.69 105.028 187.885 105.028 188.13C105.028 188.325 105.106 188.49 105.262 188.625C105.418 188.76 105.686 188.869 106.066 188.95L107.547 189.249C108.343 189.412 108.936 189.675 109.326 190.037C109.717 190.399 109.912 190.875 109.912 191.464C109.912 192.001 109.754 192.471 109.438 192.876C109.126 193.281 108.696 193.597 108.149 193.824C107.606 194.048 106.979 194.16 106.269 194.16C105.186 194.16 104.323 193.934 103.68 193.483C103.041 193.029 102.666 192.411 102.556 191.63L104.788 191.512C104.855 191.843 105.019 192.095 105.278 192.269C105.537 192.439 105.869 192.525 106.274 192.525C106.672 192.525 106.991 192.448 107.233 192.295C107.478 192.139 107.602 191.939 107.606 191.694C107.602 191.488 107.515 191.319 107.345 191.188C107.174 191.053 106.911 190.95 106.556 190.879L105.139 190.596C104.34 190.436 103.746 190.159 103.355 189.765C102.968 189.371 102.774 188.869 102.774 188.258C102.774 187.732 102.916 187.279 103.201 186.9C103.488 186.52 103.891 186.227 104.41 186.021C104.932 185.815 105.543 185.712 106.242 185.712C107.275 185.712 108.089 185.93 108.682 186.367C109.278 186.804 109.626 187.398 109.726 188.151ZM115.038 194.16C114.21 194.16 113.495 193.984 112.891 193.632C112.291 193.277 111.828 192.784 111.501 192.152C111.174 191.516 111.011 190.779 111.011 189.941C111.011 189.096 111.174 188.357 111.501 187.725C111.828 187.089 112.291 186.596 112.891 186.244C113.495 185.889 114.21 185.712 115.038 185.712C115.865 185.712 116.579 185.889 117.179 186.244C117.783 186.596 118.248 187.089 118.575 187.725C118.901 188.357 119.065 189.096 119.065 189.941C119.065 190.779 118.901 191.516 118.575 192.152C118.248 192.784 117.783 193.277 117.179 193.632C116.579 193.984 115.865 194.16 115.038 194.16ZM115.048 192.402C115.425 192.402 115.739 192.295 115.991 192.082C116.243 191.866 116.433 191.571 116.561 191.198C116.693 190.825 116.758 190.401 116.758 189.925C116.758 189.449 116.693 189.025 116.561 188.652C116.433 188.279 116.243 187.984 115.991 187.768C115.739 187.551 115.425 187.443 115.048 187.443C114.669 187.443 114.349 187.551 114.09 187.768C113.834 187.984 113.64 188.279 113.509 188.652C113.381 189.025 113.317 189.449 113.317 189.925C113.317 190.401 113.381 190.825 113.509 191.198C113.64 191.571 113.834 191.866 114.09 192.082C114.349 192.295 114.669 192.402 115.048 192.402Z" fill="black"/>
<rect x="322" y="123" width="196" height="50" fill="white"/>
<path d="M322.223 167.111H517.778" stroke="black"/>
<path d="M332.796 133.171H330.463C330.42 132.869 330.333 132.601 330.202 132.367C330.071 132.129 329.902 131.926 329.696 131.759C329.49 131.592 329.252 131.465 328.982 131.376C328.716 131.287 328.426 131.243 328.114 131.243C327.549 131.243 327.058 131.383 326.638 131.663C326.219 131.94 325.895 132.345 325.664 132.878C325.433 133.407 325.317 134.05 325.317 134.806C325.317 135.584 325.433 136.237 325.664 136.766C325.898 137.296 326.225 137.695 326.644 137.965C327.063 138.235 327.548 138.37 328.098 138.37C328.407 138.37 328.693 138.329 328.956 138.247C329.222 138.166 329.458 138.047 329.664 137.89C329.87 137.731 330.04 137.537 330.175 137.31C330.314 137.082 330.41 136.823 330.463 136.532L332.796 136.543C332.736 137.043 332.585 137.526 332.343 137.992C332.105 138.453 331.784 138.867 331.379 139.233C330.978 139.595 330.499 139.883 329.941 140.096C329.387 140.305 328.76 140.41 328.061 140.41C327.088 140.41 326.218 140.19 325.451 139.749C324.687 139.309 324.083 138.672 323.64 137.837C323.199 137.003 322.979 135.992 322.979 134.806C322.979 133.617 323.203 132.604 323.65 131.77C324.098 130.935 324.705 130.3 325.472 129.863C326.239 129.423 327.102 129.203 328.061 129.203C328.693 129.203 329.279 129.291 329.819 129.469C330.362 129.646 330.843 129.906 331.262 130.247C331.681 130.584 332.022 130.998 332.285 131.488C332.551 131.978 332.722 132.539 332.796 133.171ZM334.45 140.261V129.352H338.754C339.578 129.352 340.281 129.499 340.863 129.794C341.449 130.085 341.895 130.499 342.2 131.035C342.509 131.568 342.664 132.194 342.664 132.915C342.664 133.64 342.508 134.263 342.195 134.785C341.883 135.303 341.43 135.701 340.837 135.978C340.247 136.255 339.534 136.394 338.695 136.394H335.814V134.54H338.323C338.763 134.54 339.129 134.479 339.42 134.359C339.711 134.238 339.928 134.057 340.07 133.815C340.215 133.574 340.288 133.274 340.288 132.915C340.288 132.553 340.215 132.248 340.07 131.999C339.928 131.75 339.709 131.562 339.415 131.434C339.123 131.303 338.756 131.237 338.312 131.237H336.757V140.261H334.45ZM340.341 135.296L343.053 140.261H340.507L337.854 135.296H340.341ZM344.294 129.352H347.138L350.143 136.681H350.27L353.275 129.352H356.119V140.261H353.882V133.16H353.791L350.968 140.207H349.445L346.622 133.134H346.531V140.261H344.294V129.352Z" fill="black"/>
<rect x="91" y="123" width="195" height="50" fill="white"/>
<path d="M91 167.545H286" stroke="black"/>
<path d="M101.796 133.171H99.4631C99.4205 132.869 99.3335 132.601 99.2021 132.367C99.0707 132.129 98.902 131.926 98.696 131.759C98.4901 131.592 98.2521 131.465 97.9822 131.376C97.7159 131.287 97.4265 131.243 97.114 131.243C96.5494 131.243 96.0575 131.383 95.6385 131.663C95.2195 131.94 94.8945 132.345 94.6637 132.878C94.4329 133.407 94.3175 134.05 94.3175 134.806C94.3175 135.584 94.4329 136.237 94.6637 136.766C94.8981 137.296 95.2248 137.695 95.6438 137.965C96.0629 138.235 96.5476 138.37 97.098 138.37C97.407 138.37 97.6928 138.329 97.9556 138.247C98.2219 138.166 98.4581 138.047 98.6641 137.89C98.87 137.731 99.0405 137.537 99.1754 137.31C99.3139 137.082 99.4098 136.823 99.4631 136.532L101.796 136.543C101.736 137.043 101.585 137.526 101.343 137.992C101.105 138.453 100.784 138.867 100.379 139.233C99.978 139.595 99.4986 139.883 98.9411 140.096C98.3871 140.305 97.7603 140.41 97.0607 140.41C96.0877 140.41 95.2177 140.19 94.4506 139.749C93.6871 139.309 93.0835 138.672 92.6396 137.837C92.1992 137.003 91.979 135.992 91.979 134.806C91.979 133.617 92.2028 132.604 92.6502 131.77C93.0977 130.935 93.7049 130.3 94.4719 129.863C95.239 129.423 96.1019 129.203 97.0607 129.203C97.6928 129.203 98.2788 129.291 98.8185 129.469C99.3619 129.646 99.843 129.906 100.262 130.247C100.681 130.584 101.022 130.998 101.285 131.488C101.551 131.978 101.722 132.539 101.796 133.171ZM103.45 140.261V129.352H107.754C108.581 129.352 109.286 129.51 109.869 129.826C110.451 130.138 110.895 130.573 111.2 131.131C111.509 131.685 111.664 132.324 111.664 133.048C111.664 133.773 111.508 134.412 111.195 134.966C110.883 135.52 110.43 135.951 109.837 136.26C109.247 136.569 108.534 136.724 107.695 136.724H104.952V134.875H107.323C107.767 134.875 108.132 134.799 108.42 134.646C108.711 134.49 108.928 134.275 109.07 134.002C109.215 133.725 109.288 133.407 109.288 133.048C109.288 132.686 109.215 132.37 109.07 132.1C108.928 131.827 108.711 131.616 108.42 131.466C108.129 131.314 107.759 131.237 107.312 131.237H105.757V140.261H103.45ZM113.162 140.261V129.352H120.385V131.253H115.468V133.853H119.906V135.754H115.468V140.261H113.162Z" fill="black"/>
<rect x="91" y="69" width="426.861" height="50" fill="white"/>
<line x1="91.0703" y1="112.944" x2="518" y2="112.944" stroke="black"/>
<path d="M101.143 74.8687V85.7778H99.1509L94.4048 78.9117H94.3249V85.7778H92.0185V74.8687H94.0426L98.7514 81.7295H98.8473V74.8687H101.143ZM106.703 85.9376C105.875 85.9376 105.16 85.7619 104.556 85.4103C103.956 85.0552 103.493 84.5616 103.166 83.9295C102.839 83.2938 102.676 82.557 102.676 81.7189C102.676 80.8737 102.839 80.1351 103.166 79.503C103.493 78.8673 103.956 78.3737 104.556 78.0221C105.16 77.667 105.875 77.4895 106.703 77.4895C107.53 77.4895 108.244 77.667 108.844 78.0221C109.448 78.3737 109.913 78.8673 110.24 79.503C110.566 80.1351 110.73 80.8737 110.73 81.7189C110.73 82.557 110.566 83.2938 110.24 83.9295C109.913 84.5616 109.448 85.0552 108.844 85.4103C108.244 85.7619 107.53 85.9376 106.703 85.9376ZM106.714 84.1798C107.09 84.1798 107.404 84.0733 107.656 83.8602C107.908 83.6436 108.098 83.3489 108.226 82.976C108.358 82.6031 108.423 82.1788 108.423 81.7029C108.423 81.2271 108.358 80.8027 108.226 80.4298C108.098 80.057 107.908 79.7622 107.656 79.5456C107.404 79.329 107.09 79.2207 106.714 79.2207C106.334 79.2207 106.014 79.329 105.755 79.5456C105.499 79.7622 105.305 80.057 105.174 80.4298C105.046 80.8027 104.982 81.2271 104.982 81.7029C104.982 82.1788 105.046 82.6031 105.174 82.976C105.305 83.3489 105.499 83.6436 105.755 83.8602C106.014 84.0733 106.334 84.1798 106.714 84.1798ZM112.205 85.7778V77.596H114.368V79.0396H114.464C114.634 78.5601 114.918 78.182 115.316 77.905C115.714 77.628 116.19 77.4895 116.744 77.4895C117.305 77.4895 117.782 77.6297 118.177 77.9103C118.571 78.1873 118.834 78.5637 118.965 79.0396H119.05C119.217 78.5708 119.519 78.1962 119.956 77.9156C120.396 77.6315 120.916 77.4895 121.516 77.4895C122.28 77.4895 122.9 77.7327 123.375 78.2192C123.855 78.7022 124.095 79.3876 124.095 80.2753V85.7778H121.831V80.7228C121.831 80.2682 121.71 79.9273 121.468 79.7001C121.227 79.4728 120.925 79.3592 120.563 79.3592C120.151 79.3592 119.83 79.4905 119.599 79.7533C119.368 80.0126 119.253 80.3552 119.253 80.7814V85.7778H117.053V80.6748C117.053 80.2736 116.937 79.954 116.706 79.716C116.479 79.4781 116.179 79.3592 115.806 79.3592C115.554 79.3592 115.327 79.4231 115.124 79.5509C114.926 79.6752 114.767 79.851 114.65 80.0783C114.533 80.302 114.475 80.5648 114.475 80.8666V85.7778H112.205ZM129.616 85.9376C128.774 85.9376 128.05 85.7672 127.442 85.4263C126.839 85.0818 126.373 84.5953 126.047 83.9668C125.72 83.3347 125.557 82.5871 125.557 81.7242C125.557 80.8826 125.72 80.144 126.047 79.5083C126.373 78.8726 126.833 78.3773 127.426 78.0221C128.023 77.667 128.723 77.4895 129.525 77.4895C130.065 77.4895 130.567 77.5765 131.033 77.7505C131.501 77.9209 131.91 78.1784 132.258 78.5229C132.609 78.8673 132.883 79.3006 133.078 79.8226C133.273 80.341 133.371 80.9483 133.371 81.6443V82.2675H126.462V80.8613H131.235C131.235 80.5346 131.164 80.2452 131.022 79.993C130.88 79.7409 130.683 79.5438 130.431 79.4018C130.182 79.2562 129.893 79.1834 129.562 79.1834C129.218 79.1834 128.913 79.2633 128.646 79.4231C128.383 79.5793 128.177 79.7906 128.028 80.057C127.879 80.3197 127.803 80.6127 127.799 80.9359V82.2729C127.799 82.6777 127.874 83.0275 128.023 83.3222C128.176 83.617 128.391 83.8442 128.668 84.004C128.945 84.1638 129.273 84.2437 129.653 84.2437C129.905 84.2437 130.136 84.2082 130.345 84.1372C130.555 84.0662 130.734 83.9597 130.883 83.8176C131.033 83.6756 131.146 83.5016 131.224 83.2956L133.323 83.4341C133.217 83.9383 132.998 84.3787 132.668 84.7551C132.341 85.128 131.919 85.4192 131.4 85.6287C130.885 85.8347 130.29 85.9376 129.616 85.9376ZM147.991 78.688H145.658C145.616 78.3861 145.529 78.118 145.397 77.8837C145.266 77.6457 145.097 77.4433 144.891 77.2764C144.685 77.1095 144.447 76.9817 144.178 76.8929C143.911 76.8041 143.622 76.7597 143.309 76.7597C142.745 76.7597 142.253 76.9 141.834 77.1805C141.415 77.4575 141.09 77.8623 140.859 78.395C140.628 78.9241 140.513 79.5669 140.513 80.3233C140.513 81.101 140.628 81.7544 140.859 82.2835C141.093 82.8126 141.42 83.2121 141.839 83.482C142.258 83.7519 142.743 83.8869 143.293 83.8869C143.602 83.8869 143.888 83.846 144.151 83.7643C144.417 83.6827 144.653 83.5637 144.859 83.4074C145.065 83.2476 145.236 83.0541 145.371 82.8268C145.509 82.5996 145.605 82.3403 145.658 82.0491L147.991 82.0598C147.931 82.5605 147.78 83.0435 147.539 83.5087C147.301 83.9703 146.979 84.384 146.575 84.7498C146.173 85.112 145.694 85.3996 145.136 85.6127C144.582 85.8222 143.956 85.927 143.256 85.927C142.283 85.927 141.413 85.7068 140.646 85.2665C139.882 84.8261 139.279 84.1887 138.835 83.3542C138.395 82.5197 138.174 81.5094 138.174 80.3233C138.174 79.1337 138.398 78.1216 138.846 77.2871C139.293 76.4525 139.9 75.8169 140.667 75.3801C141.434 74.9398 142.297 74.7196 143.256 74.7196C143.888 74.7196 144.474 74.8084 145.014 74.9859C145.557 75.1635 146.038 75.4227 146.457 75.7636C146.876 76.101 147.217 76.5147 147.48 77.0047C147.746 77.4948 147.917 78.0559 147.991 78.688ZM153.3 85.9376C152.472 85.9376 151.757 85.7619 151.153 85.4103C150.553 85.0552 150.089 84.5616 149.763 83.9295C149.436 83.2938 149.273 82.557 149.273 81.7189C149.273 80.8737 149.436 80.1351 149.763 79.503C150.089 78.8673 150.553 78.3737 151.153 78.0221C151.757 77.667 152.472 77.4895 153.3 77.4895C154.127 77.4895 154.841 77.667 155.441 78.0221C156.045 78.3737 156.51 78.8673 156.836 79.503C157.163 80.1351 157.327 80.8737 157.327 81.7189C157.327 82.557 157.163 83.2938 156.836 83.9295C156.51 84.5616 156.045 85.0552 155.441 85.4103C154.841 85.7619 154.127 85.9376 153.3 85.9376ZM153.31 84.1798C153.687 84.1798 154.001 84.0733 154.253 83.8602C154.505 83.6436 154.695 83.3489 154.823 82.976C154.954 82.6031 155.02 82.1788 155.02 81.7029C155.02 81.2271 154.954 80.8027 154.823 80.4298C154.695 80.057 154.505 79.7622 154.253 79.5456C154.001 79.329 153.687 79.2207 153.31 79.2207C152.93 79.2207 152.611 79.329 152.351 79.5456C152.096 79.7622 151.902 80.057 151.771 80.4298C151.643 80.8027 151.579 81.2271 151.579 81.7029C151.579 82.1788 151.643 82.6031 151.771 82.976C151.902 83.3489 152.096 83.6436 152.351 83.8602C152.611 84.0733 152.93 84.1798 153.31 84.1798ZM158.802 85.7778V77.596H160.965V79.0396H161.061C161.231 78.5601 161.515 78.182 161.913 77.905C162.311 77.628 162.786 77.4895 163.34 77.4895C163.901 77.4895 164.379 77.6297 164.773 77.9103C165.167 78.1873 165.43 78.5637 165.562 79.0396H165.647C165.814 78.5708 166.116 78.1962 166.552 77.9156C166.993 77.6315 167.513 77.4895 168.113 77.4895C168.877 77.4895 169.496 77.7327 169.972 78.2192C170.452 78.7022 170.691 79.3876 170.691 80.2753V85.7778H168.427V80.7228C168.427 80.2682 168.307 79.9273 168.065 79.7001C167.824 79.4728 167.522 79.3592 167.16 79.3592C166.748 79.3592 166.426 79.4905 166.195 79.7533C165.965 80.0126 165.849 80.3552 165.849 80.7814V85.7778H163.649V80.6748C163.649 80.2736 163.534 79.954 163.303 79.716C163.076 79.4781 162.776 79.3592 162.403 79.3592C162.151 79.3592 161.923 79.4231 161.721 79.5509C161.522 79.6752 161.364 79.851 161.247 80.0783C161.13 80.302 161.071 80.5648 161.071 80.8666V85.7778H158.802ZM172.484 88.846V77.596H174.721V78.9703H174.822C174.922 78.7501 175.065 78.5264 175.254 78.2991C175.445 78.0683 175.694 77.8766 175.999 77.7239C176.308 77.5676 176.692 77.4895 177.15 77.4895C177.746 77.4895 178.297 77.6457 178.801 77.9582C179.305 78.2672 179.708 78.7342 180.01 79.3592C180.312 79.9806 180.463 80.7601 180.463 81.6976C180.463 82.6102 180.316 83.3808 180.021 84.0094C179.73 84.6344 179.332 85.1084 178.828 85.4316C178.327 85.7512 177.766 85.911 177.145 85.911C176.704 85.911 176.33 85.8382 176.021 85.6926C175.715 85.547 175.465 85.3641 175.27 85.144C175.074 84.9202 174.925 84.6947 174.822 84.4675H174.753V88.846H172.484ZM174.705 81.6869C174.705 82.1734 174.772 82.5978 174.907 82.96C175.042 83.3222 175.238 83.6045 175.493 83.807C175.749 84.0058 176.06 84.1052 176.425 84.1052C176.795 84.1052 177.107 84.004 177.363 83.8016C177.619 83.5957 177.812 83.3116 177.944 82.9494C178.078 82.5836 178.146 82.1628 178.146 81.6869C178.146 81.2146 178.08 80.7991 177.949 80.4405C177.817 80.0818 177.624 79.8013 177.368 79.5989C177.113 79.3964 176.798 79.2952 176.425 79.2952C176.056 79.2952 175.744 79.3929 175.488 79.5882C175.236 79.7835 175.042 80.0605 174.907 80.4192C174.772 80.7778 174.705 81.2004 174.705 81.6869ZM184.245 74.8687V85.7778H181.976V74.8687H184.245ZM189.791 85.9376C188.95 85.9376 188.225 85.7672 187.618 85.4263C187.014 85.0818 186.549 84.5953 186.223 83.9668C185.896 83.3347 185.733 82.5871 185.733 81.7242C185.733 80.8826 185.896 80.144 186.223 79.5083C186.549 78.8726 187.009 78.3773 187.602 78.0221C188.199 77.667 188.898 77.4895 189.701 77.4895C190.241 77.4895 190.743 77.5765 191.208 77.7505C191.677 77.9209 192.085 78.1784 192.434 78.5229C192.785 78.8673 193.059 79.3006 193.254 79.8226C193.449 80.341 193.547 80.9483 193.547 81.6443V82.2675H186.638V80.8613H191.411C191.411 80.5346 191.34 80.2452 191.198 79.993C191.056 79.7409 190.859 79.5438 190.606 79.4018C190.358 79.2562 190.068 79.1834 189.738 79.1834C189.394 79.1834 189.088 79.2633 188.822 79.4231C188.559 79.5793 188.353 79.7906 188.204 80.057C188.055 80.3197 187.979 80.6127 187.975 80.9359V82.2729C187.975 82.6777 188.05 83.0275 188.199 83.3222C188.351 83.617 188.566 83.8442 188.843 84.004C189.12 84.1638 189.449 84.2437 189.829 84.2437C190.081 84.2437 190.312 84.2082 190.521 84.1372C190.731 84.0662 190.91 83.9597 191.059 83.8176C191.208 83.6756 191.322 83.5016 191.4 83.2956L193.499 83.4341C193.392 83.9383 193.174 84.3787 192.844 84.7551C192.517 85.128 192.094 85.4192 191.576 85.6287C191.061 85.8347 190.466 85.9376 189.791 85.9376ZM199.38 77.596V79.3006H194.452V77.596H199.38ZM195.571 75.6358H197.84V83.2636C197.84 83.4731 197.872 83.6365 197.936 83.7537C198 83.8673 198.089 83.9472 198.202 83.9934C198.32 84.0396 198.454 84.0626 198.607 84.0626C198.714 84.0626 198.82 84.0538 198.927 84.036C199.033 84.0147 199.115 83.9987 199.172 83.9881L199.529 85.6766C199.415 85.7121 199.255 85.753 199.049 85.7991C198.843 85.8489 198.593 85.879 198.298 85.8897C197.751 85.911 197.272 85.8382 196.86 85.6713C196.452 85.5044 196.134 85.2452 195.907 84.8936C195.679 84.542 195.567 84.0981 195.571 83.5619V75.6358ZM204.467 85.9376C203.639 85.9376 202.924 85.7619 202.32 85.4103C201.72 85.0552 201.256 84.5616 200.93 83.9295C200.603 83.2938 200.44 82.557 200.44 81.7189C200.44 80.8737 200.603 80.1351 200.93 79.503C201.256 78.8673 201.72 78.3737 202.32 78.0221C202.924 77.667 203.639 77.4895 204.467 77.4895C205.294 77.4895 206.008 77.667 206.608 78.0221C207.212 78.3737 207.677 78.8673 208.003 79.503C208.33 80.1351 208.494 80.8737 208.494 81.7189C208.494 82.557 208.33 83.2938 208.003 83.9295C207.677 84.5616 207.212 85.0552 206.608 85.4103C206.008 85.7619 205.294 85.9376 204.467 85.9376ZM204.477 84.1798C204.854 84.1798 205.168 84.0733 205.42 83.8602C205.672 83.6436 205.862 83.3489 205.99 82.976C206.121 82.6031 206.187 82.1788 206.187 81.7029C206.187 81.2271 206.121 80.8027 205.99 80.4298C205.862 80.057 205.672 79.7622 205.42 79.5456C205.168 79.329 204.854 79.2207 204.477 79.2207C204.097 79.2207 203.778 79.329 203.518 79.5456C203.263 79.7622 203.069 80.057 202.938 80.4298C202.81 80.8027 202.746 81.2271 202.746 81.7029C202.746 82.1788 202.81 82.6031 202.938 82.976C203.069 83.3489 203.263 83.6436 203.518 83.8602C203.778 84.0733 204.097 84.1798 204.477 84.1798ZM216.456 85.911C215.834 85.911 215.271 85.7512 214.767 85.4316C214.266 85.1084 213.869 84.6344 213.574 84.0094C213.283 83.3808 213.137 82.6102 213.137 81.6976C213.137 80.7601 213.288 79.9806 213.59 79.3592C213.892 78.7342 214.293 78.2672 214.794 77.9582C215.298 77.6457 215.85 77.4895 216.45 77.4895C216.908 77.4895 217.29 77.5676 217.596 77.7239C217.904 77.8766 218.153 78.0683 218.341 78.2991C218.533 78.5264 218.679 78.7501 218.778 78.9703H218.847V74.8687H221.111V85.7778H218.874V84.4675H218.778C218.672 84.6947 218.521 84.9202 218.325 85.144C218.134 85.3641 217.883 85.547 217.574 85.6926C217.269 85.8382 216.896 85.911 216.456 85.911ZM217.175 84.1052C217.54 84.1052 217.849 84.0058 218.102 83.807C218.357 83.6045 218.553 83.3222 218.688 82.96C218.826 82.5978 218.895 82.1734 218.895 81.6869C218.895 81.2004 218.828 80.7778 218.693 80.4192C218.558 80.0605 218.363 79.7835 218.107 79.5882C217.851 79.3929 217.54 79.2952 217.175 79.2952C216.802 79.2952 216.488 79.3964 216.232 79.5989C215.976 79.8013 215.783 80.0818 215.651 80.4405C215.52 80.7991 215.454 81.2146 215.454 81.6869C215.454 82.1628 215.52 82.5836 215.651 82.9494C215.786 83.3116 215.98 83.5957 216.232 83.8016C216.488 84.004 216.802 84.1052 217.175 84.1052ZM226.674 85.9376C225.846 85.9376 225.131 85.7619 224.527 85.4103C223.927 85.0552 223.463 84.5616 223.137 83.9295C222.81 83.2938 222.647 82.557 222.647 81.7189C222.647 80.8737 222.81 80.1351 223.137 79.503C223.463 78.8673 223.927 78.3737 224.527 78.0221C225.131 77.667 225.846 77.4895 226.674 77.4895C227.501 77.4895 228.215 77.667 228.815 78.0221C229.419 78.3737 229.884 78.8673 230.21 79.503C230.537 80.1351 230.701 80.8737 230.701 81.7189C230.701 82.557 230.537 83.2938 230.21 83.9295C229.884 84.5616 229.419 85.0552 228.815 85.4103C228.215 85.7619 227.501 85.9376 226.674 85.9376ZM226.684 84.1798C227.061 84.1798 227.375 84.0733 227.627 83.8602C227.879 83.6436 228.069 83.3489 228.197 82.976C228.328 82.6031 228.394 82.1788 228.394 81.7029C228.394 81.2271 228.328 80.8027 228.197 80.4298C228.069 80.057 227.879 79.7622 227.627 79.5456C227.375 79.329 227.061 79.2207 226.684 79.2207C226.304 79.2207 225.985 79.329 225.725 79.5456C225.47 79.7622 225.276 80.057 225.145 80.4298C225.017 80.8027 224.953 81.2271 224.953 81.7029C224.953 82.1788 225.017 82.6031 225.145 82.976C225.276 83.3489 225.47 83.6436 225.725 83.8602C225.985 84.0733 226.304 84.1798 226.684 84.1798ZM235.69 85.7778V74.8687H239.994C240.822 74.8687 241.527 75.0268 242.109 75.3428C242.691 75.6553 243.135 76.0903 243.441 76.6479C243.75 77.2018 243.904 77.841 243.904 78.5655C243.904 79.2899 243.748 79.9291 243.435 80.4831C243.123 81.0371 242.67 81.4685 242.077 81.7775C241.488 82.0864 240.774 82.2409 239.936 82.2409H237.192V80.3925H239.563C240.007 80.3925 240.373 80.3162 240.66 80.1635C240.951 80.0072 241.168 79.7924 241.31 79.519C241.456 79.242 241.528 78.9241 241.528 78.5655C241.528 78.2033 241.456 77.8872 241.31 77.6173C241.168 77.3439 240.951 77.1326 240.66 76.9834C240.369 76.8307 240 76.7544 239.552 76.7544H237.997V85.7778H235.69ZM247.473 85.9323C246.951 85.9323 246.486 85.8418 246.077 85.6606C245.669 85.476 245.346 85.2043 245.108 84.8457C244.874 84.4834 244.756 84.0324 244.756 83.4927C244.756 83.0381 244.84 82.6564 245.007 82.3474C245.174 82.0385 245.401 81.7899 245.689 81.6017C245.976 81.4135 246.303 81.2714 246.669 81.1756C247.038 81.0797 247.425 81.0122 247.83 80.9731C248.306 80.9234 248.689 80.8773 248.98 80.8347C249.272 80.7885 249.483 80.721 249.614 80.6322C249.746 80.5435 249.811 80.4121 249.811 80.2381V80.2061C249.811 79.8687 249.705 79.6077 249.492 79.4231C249.282 79.2384 248.984 79.1461 248.597 79.1461C248.189 79.1461 247.864 79.2366 247.622 79.4177C247.381 79.5953 247.221 79.819 247.143 80.0889L245.044 79.9185C245.151 79.4213 245.36 78.9916 245.673 78.6294C245.985 78.2636 246.388 77.9831 246.882 77.7878C247.379 77.5889 247.954 77.4895 248.608 77.4895C249.062 77.4895 249.497 77.5427 249.913 77.6493C250.332 77.7558 250.703 77.9209 251.026 78.1447C251.353 78.3684 251.61 78.656 251.798 79.0076C251.987 79.3556 252.081 79.7729 252.081 80.2594V85.7778H249.929V84.6432H249.865C249.733 84.8989 249.558 85.1244 249.337 85.3197C249.117 85.5115 248.853 85.6624 248.544 85.7725C248.235 85.879 247.878 85.9323 247.473 85.9323ZM248.123 84.3663C248.457 84.3663 248.751 84.3006 249.007 84.1692C249.263 84.0342 249.463 83.8531 249.609 83.6258C249.755 83.3986 249.827 83.1411 249.827 82.8535V81.9852C249.756 82.0314 249.659 82.074 249.534 82.1131C249.414 82.1486 249.277 82.1823 249.124 82.2143C248.972 82.2427 248.819 82.2693 248.666 82.2942C248.513 82.3155 248.375 82.335 248.251 82.3528C247.984 82.3918 247.752 82.454 247.553 82.5392C247.354 82.6244 247.2 82.7398 247.089 82.8854C246.979 83.0275 246.924 83.205 246.924 83.4181C246.924 83.7271 247.036 83.9632 247.26 84.1266C247.487 84.2864 247.775 84.3663 248.123 84.3663ZM257.538 85.9376C256.7 85.9376 255.979 85.7601 255.375 85.405C254.775 85.0463 254.313 84.5491 253.99 83.9135C253.671 83.2778 253.511 82.5463 253.511 81.7189C253.511 80.8808 253.672 80.1457 253.996 79.5136C254.322 78.878 254.786 78.3826 255.386 78.0275C255.986 77.6688 256.7 77.4895 257.527 77.4895C258.241 77.4895 258.866 77.6191 259.402 77.8783C259.938 78.1376 260.363 78.5016 260.675 78.9703C260.988 79.4391 261.16 79.9895 261.192 80.6216H259.051C258.99 80.2132 258.83 79.8847 258.571 79.6361C258.316 79.384 257.98 79.2579 257.564 79.2579C257.213 79.2579 256.906 79.3538 256.643 79.5456C256.384 79.7338 256.181 80.009 256.036 80.3712C255.89 80.7334 255.817 81.172 255.817 81.6869C255.817 82.2089 255.888 82.6528 256.03 83.0186C256.176 83.3844 256.38 83.6631 256.643 83.8549C256.906 84.0467 257.213 84.1425 257.564 84.1425C257.824 84.1425 258.056 84.0893 258.262 83.9827C258.472 83.8762 258.644 83.7217 258.779 83.5193C258.917 83.3133 259.008 83.0665 259.051 82.7789H261.192C261.156 83.4039 260.986 83.9543 260.681 84.4302C260.379 84.9025 259.961 85.2718 259.429 85.5381C258.896 85.8045 258.266 85.9376 257.538 85.9376ZM262.645 85.7778V77.596H264.914V85.7778H262.645ZM263.785 76.5413C263.447 76.5413 263.158 76.4295 262.916 76.2057C262.679 75.9785 262.56 75.7068 262.56 75.3908C262.56 75.0783 262.679 74.8101 262.916 74.5864C263.158 74.3592 263.447 74.2455 263.785 74.2455C264.122 74.2455 264.41 74.3592 264.648 74.5864C264.889 74.8101 265.01 75.0783 265.01 75.3908C265.01 75.7068 264.889 75.9785 264.648 76.2057C264.41 76.4295 264.122 76.5413 263.785 76.5413ZM270.46 85.9376C269.619 85.9376 268.894 85.7672 268.287 85.4263C267.683 85.0818 267.218 84.5953 266.892 83.9668C266.565 83.3347 266.401 82.5871 266.401 81.7242C266.401 80.8826 266.565 80.144 266.892 79.5083C267.218 78.8726 267.678 78.3773 268.271 78.0221C268.868 77.667 269.567 77.4895 270.37 77.4895C270.91 77.4895 271.412 77.5765 271.877 77.7505C272.346 77.9209 272.754 78.1784 273.102 78.5229C273.454 78.8673 273.727 79.3006 273.923 79.8226C274.118 80.341 274.216 80.9483 274.216 81.6443V82.2675H267.307V80.8613H272.08C272.08 80.5346 272.009 80.2452 271.867 79.993C271.725 79.7409 271.528 79.5438 271.275 79.4018C271.027 79.2562 270.737 79.1834 270.407 79.1834C270.063 79.1834 269.757 79.2633 269.491 79.4231C269.228 79.5793 269.022 79.7906 268.873 80.057C268.724 80.3197 268.648 80.6127 268.644 80.9359V82.2729C268.644 82.6777 268.719 83.0275 268.868 83.3222C269.02 83.617 269.235 83.8442 269.512 84.004C269.789 84.1638 270.118 84.2437 270.498 84.2437C270.75 84.2437 270.981 84.2082 271.19 84.1372C271.4 84.0662 271.579 83.9597 271.728 83.8176C271.877 83.6756 271.991 83.5016 272.069 83.2956L274.168 83.4341C274.061 83.9383 273.843 84.3787 273.513 84.7551C273.186 85.128 272.763 85.4192 272.245 85.6287C271.73 85.8347 271.135 85.9376 270.46 85.9376ZM277.966 81.0477V85.7778H275.697V77.596H277.859V79.0396H277.955C278.136 78.5637 278.44 78.1873 278.866 77.9103C279.292 77.6297 279.809 77.4895 280.416 77.4895C280.984 77.4895 281.48 77.6138 281.902 77.8623C282.325 78.1109 282.653 78.466 282.888 78.9277C283.122 79.3858 283.239 79.9327 283.239 80.5683V85.7778H280.97V80.9731C280.974 80.4724 280.846 80.0818 280.586 79.8013C280.327 79.5172 279.97 79.3751 279.516 79.3751C279.21 79.3751 278.941 79.4408 278.706 79.5722C278.475 79.7036 278.294 79.8954 278.163 80.1475C278.035 80.3961 277.969 80.6962 277.966 81.0477ZM289.38 77.596V79.3006H284.452V77.596H289.38ZM285.571 75.6358H287.84V83.2636C287.84 83.4731 287.872 83.6365 287.936 83.7537C288 83.8673 288.089 83.9472 288.202 83.9934C288.32 84.0396 288.454 84.0626 288.607 84.0626C288.714 84.0626 288.82 84.0538 288.927 84.036C289.033 84.0147 289.115 83.9987 289.172 83.9881L289.529 85.6766C289.415 85.7121 289.255 85.753 289.049 85.7991C288.843 85.8489 288.593 85.879 288.298 85.8897C287.751 85.911 287.272 85.8382 286.86 85.6713C286.452 85.5044 286.134 85.2452 285.907 84.8936C285.679 84.542 285.567 84.0981 285.571 83.5619V75.6358ZM294.498 85.9376C293.657 85.9376 292.932 85.7672 292.325 85.4263C291.722 85.0818 291.256 84.5953 290.93 83.9668C290.603 83.3347 290.44 82.5871 290.44 81.7242C290.44 80.8826 290.603 80.144 290.93 79.5083C291.256 78.8726 291.716 78.3773 292.309 78.0221C292.906 77.667 293.605 77.4895 294.408 77.4895C294.948 77.4895 295.45 77.5765 295.915 77.7505C296.384 77.9209 296.793 78.1784 297.141 78.5229C297.492 78.8673 297.766 79.3006 297.961 79.8226C298.156 80.341 298.254 80.9483 298.254 81.6443V82.2675H291.345V80.8613H296.118C296.118 80.5346 296.047 80.2452 295.905 79.993C295.763 79.7409 295.566 79.5438 295.313 79.4018C295.065 79.2562 294.775 79.1834 294.445 79.1834C294.101 79.1834 293.795 79.2633 293.529 79.4231C293.266 79.5793 293.06 79.7906 292.911 80.057C292.762 80.3197 292.686 80.6127 292.682 80.9359V82.2729C292.682 82.6777 292.757 83.0275 292.906 83.3222C293.059 83.617 293.273 83.8442 293.55 84.004C293.827 84.1638 294.156 84.2437 294.536 84.2437C294.788 84.2437 295.019 84.2082 295.228 84.1372C295.438 84.0662 295.617 83.9597 295.766 83.8176C295.915 83.6756 296.029 83.5016 296.107 83.2956L298.206 83.4341C298.099 83.9383 297.881 84.3787 297.551 84.7551C297.224 85.128 296.801 85.4192 296.283 85.6287C295.768 85.8347 295.173 85.9376 294.498 85.9376Z" fill="black"/>
<path d="M26 30C26 27.2386 28.2386 25 31 25H569C571.761 25 574 27.2386 574 30V55H26V30Z" fill="white" stroke="black" stroke-width="2" stroke-linejoin="bevel"/>
<path d="M391.67 25H569.67C572.431 25 574.67 27.2386 574.67 30V55H391.67V25Z" fill="white"/>
<path d="M391.67 25H574.67H391.67ZM574.67 56.5H391.17L392.17 53.5H574.67V56.5ZM391.17 56.5V25H392.17V53.5L391.17 56.5ZM574.67 25V55V25Z" fill="black"/>
<path d="M417.475 36.9744C417.401 36.7151 417.296 36.4861 417.161 36.2872C417.026 36.0848 416.861 35.9144 416.666 35.7759C416.474 35.6338 416.254 35.5255 416.005 35.4509C415.76 35.3764 415.489 35.3391 415.19 35.3391C414.633 35.3391 414.143 35.4776 413.72 35.7545C413.301 36.0315 412.974 36.4346 412.74 36.9637C412.506 37.4893 412.388 38.132 412.388 38.892C412.388 39.6519 412.504 40.2982 412.735 40.8309C412.965 41.3636 413.292 41.7702 413.715 42.0507C414.137 42.3277 414.636 42.4662 415.212 42.4662C415.734 42.4662 416.179 42.3739 416.549 42.1892C416.921 42.001 417.206 41.7364 417.401 41.3955C417.6 41.0546 417.699 40.6516 417.699 40.1864L418.168 40.2556H415.355V38.5191H419.92V39.8934C419.92 40.8522 419.718 41.6761 419.313 42.365C418.908 43.0504 418.351 43.5795 417.641 43.9523C416.93 44.3217 416.117 44.5063 415.201 44.5063C414.178 44.5063 413.28 44.2808 412.506 43.8298C411.731 43.3753 411.128 42.7308 410.695 41.8962C410.265 41.0582 410.05 40.0639 410.05 38.9133C410.05 38.0291 410.178 37.2407 410.434 36.5482C410.693 35.8522 411.055 35.2627 411.52 34.7798C411.985 34.2968 412.527 33.9293 413.145 33.6771C413.763 33.425 414.432 33.2989 415.153 33.2989C415.771 33.2989 416.346 33.3895 416.879 33.5706C417.411 33.7482 417.884 34.0003 418.296 34.327C418.711 34.6537 419.05 35.0425 419.313 35.4935C419.576 35.941 419.745 36.4346 419.819 36.9744H417.475ZM425.339 44.517C424.497 44.517 423.773 44.3465 423.166 44.0056C422.562 43.6612 422.097 43.1746 421.77 42.5461C421.443 41.914 421.28 41.1665 421.28 40.3036C421.28 39.4619 421.443 38.7233 421.77 38.0876C422.097 37.452 422.557 36.9566 423.15 36.6015C423.746 36.2464 424.446 36.0688 425.248 36.0688C425.788 36.0688 426.291 36.1558 426.756 36.3298C427.225 36.5003 427.633 36.7577 427.981 37.1022C428.333 37.4467 428.606 37.8799 428.801 38.4019C428.997 38.9204 429.094 39.5276 429.094 40.2237V40.8469H422.186V39.4406H426.958C426.958 39.1139 426.887 38.8245 426.745 38.5724C426.603 38.3202 426.406 38.1232 426.154 37.9811C425.905 37.8355 425.616 37.7627 425.286 37.7627C424.941 37.7627 424.636 37.8426 424.369 38.0024C424.107 38.1587 423.901 38.37 423.752 38.6363C423.602 38.8991 423.526 39.192 423.523 39.5152V40.8522C423.523 41.257 423.597 41.6068 423.746 41.9016C423.899 42.1963 424.114 42.4236 424.391 42.5834C424.668 42.7432 424.996 42.8231 425.376 42.8231C425.628 42.8231 425.859 42.7876 426.069 42.7166C426.278 42.6455 426.458 42.539 426.607 42.397C426.756 42.2549 426.869 42.0809 426.948 41.8749L429.046 42.0134C428.94 42.5177 428.721 42.958 428.391 43.3345C428.064 43.7073 427.642 43.9985 427.123 44.208C426.608 44.414 426.014 44.517 425.339 44.517ZM430.575 44.3572V36.1754H432.775V37.6029H432.86C433.009 37.0951 433.26 36.7116 433.611 36.4523C433.963 36.1896 434.368 36.0582 434.826 36.0582C434.939 36.0582 435.062 36.0653 435.193 36.0795C435.325 36.0937 435.44 36.1132 435.54 36.1381V38.1516C435.433 38.1196 435.286 38.0912 435.097 38.0663C434.909 38.0415 434.737 38.0291 434.581 38.0291C434.247 38.0291 433.949 38.1019 433.686 38.2474C433.427 38.3895 433.221 38.5884 433.068 38.844C432.919 39.0997 432.844 39.3945 432.844 39.7283V44.3572H430.575ZM440.061 44.517C439.219 44.517 438.495 44.3465 437.887 44.0056C437.284 43.6612 436.818 43.1746 436.492 42.5461C436.165 41.914 436.002 41.1665 436.002 40.3036C436.002 39.4619 436.165 38.7233 436.492 38.0876C436.818 37.452 437.278 36.9566 437.871 36.6015C438.468 36.2464 439.168 36.0688 439.97 36.0688C440.51 36.0688 441.012 36.1558 441.478 36.3298C441.946 36.5003 442.355 36.7577 442.703 37.1022C443.054 37.4467 443.328 37.8799 443.523 38.4019C443.718 38.9204 443.816 39.5276 443.816 40.2237V40.8469H436.907V39.4406H441.68C441.68 39.1139 441.609 38.8245 441.467 38.5724C441.325 38.3202 441.128 38.1232 440.876 37.9811C440.627 37.8355 440.338 37.7627 440.007 37.7627C439.663 37.7627 439.358 37.8426 439.091 38.0024C438.828 38.1587 438.622 38.37 438.473 38.6363C438.324 38.8991 438.248 39.192 438.244 39.5152V40.8522C438.244 41.257 438.319 41.6068 438.468 41.9016C438.621 42.1963 438.835 42.4236 439.112 42.5834C439.389 42.7432 439.718 42.8231 440.098 42.8231C440.35 42.8231 440.581 42.7876 440.79 42.7166C441 42.6455 441.179 42.539 441.328 42.397C441.478 42.2549 441.591 42.0809 441.669 41.8749L443.768 42.0134C443.661 42.5177 443.443 42.958 443.113 43.3345C442.786 43.7073 442.364 43.9985 441.845 44.208C441.33 44.414 440.735 44.517 440.061 44.517ZM447.566 39.6271V44.3572H445.297V36.1754H447.459V37.6189H447.555C447.736 37.143 448.04 36.7666 448.466 36.4896C448.892 36.2091 449.409 36.0688 450.016 36.0688C450.584 36.0688 451.08 36.1931 451.502 36.4417C451.925 36.6903 452.253 37.0454 452.488 37.507C452.722 37.9651 452.839 38.512 452.839 39.1477V44.3572H450.57V39.5525C450.574 39.0518 450.446 38.6612 450.187 38.3806C449.927 38.0965 449.571 37.9545 449.116 37.9545C448.811 37.9545 448.541 38.0202 448.306 38.1516C448.076 38.283 447.894 38.4747 447.763 38.7269C447.635 38.9754 447.57 39.2755 447.566 39.6271ZM458.325 44.517C457.487 44.517 456.766 44.3394 456.162 43.9843C455.562 43.6256 455.1 43.1285 454.777 42.4928C454.457 41.8572 454.298 41.1256 454.298 40.2982C454.298 39.4602 454.459 38.7251 454.782 38.093C455.109 37.4573 455.572 36.9619 456.173 36.6068C456.773 36.2482 457.487 36.0688 458.314 36.0688C459.028 36.0688 459.653 36.1984 460.189 36.4577C460.725 36.7169 461.15 37.0809 461.462 37.5496C461.775 38.0184 461.947 38.5688 461.979 39.2009H459.837C459.777 38.7925 459.617 38.4641 459.358 38.2155C459.102 37.9634 458.767 37.8373 458.351 37.8373C458 37.8373 457.692 37.9332 457.43 38.1249C457.17 38.3131 456.968 38.5884 456.822 38.9506C456.677 39.3128 456.604 39.7514 456.604 40.2663C456.604 40.7883 456.675 41.2322 456.817 41.5979C456.963 41.9637 457.167 42.2425 457.43 42.4342C457.692 42.626 458 42.7219 458.351 42.7219C458.61 42.7219 458.843 42.6686 459.049 42.5621C459.259 42.4555 459.431 42.3011 459.566 42.0987C459.704 41.8927 459.795 41.6459 459.837 41.3582H461.979C461.943 41.9832 461.773 42.5337 461.467 43.0095C461.165 43.4818 460.748 43.8511 460.216 44.1175C459.683 44.3838 459.053 44.517 458.325 44.517ZM463.432 44.3572V36.1754H465.701V44.3572H463.432ZM464.571 35.1207C464.234 35.1207 463.945 35.0088 463.703 34.7851C463.465 34.5578 463.346 34.2862 463.346 33.9701C463.346 33.6576 463.465 33.3895 463.703 33.1658C463.945 32.9385 464.234 32.8249 464.571 32.8249C464.909 32.8249 465.196 32.9385 465.434 33.1658C465.676 33.3895 465.797 33.6576 465.797 33.9701C465.797 34.2862 465.676 34.5578 465.434 34.7851C465.196 35.0088 464.909 35.1207 464.571 35.1207ZM469.852 44.5117C469.33 44.5117 468.864 44.4211 468.456 44.24C468.048 44.0553 467.724 43.7837 467.487 43.425C467.252 43.0628 467.135 42.6118 467.135 42.072C467.135 41.6175 467.218 41.2357 467.385 40.9268C467.552 40.6178 467.779 40.3693 468.067 40.181C468.355 39.9928 468.681 39.8508 469.047 39.7549C469.417 39.659 469.804 39.5916 470.208 39.5525C470.684 39.5028 471.068 39.4566 471.359 39.414C471.65 39.3678 471.862 39.3004 471.993 39.2116C472.124 39.1228 472.19 38.9914 472.19 38.8174V38.7854C472.19 38.4481 472.083 38.1871 471.87 38.0024C471.661 37.8178 471.363 37.7254 470.976 37.7254C470.567 37.7254 470.242 37.816 470.001 37.9971C469.759 38.1746 469.599 38.3984 469.521 38.6683L467.423 38.4978C467.529 38.0006 467.739 37.571 468.051 37.2087C468.364 36.843 468.767 36.5624 469.26 36.3671C469.757 36.1683 470.333 36.0688 470.986 36.0688C471.441 36.0688 471.876 36.1221 472.291 36.2286C472.71 36.3352 473.081 36.5003 473.404 36.724C473.731 36.9477 473.989 37.2354 474.177 37.5869C474.365 37.9349 474.459 38.3522 474.459 38.8387V44.3572H472.307V43.2226H472.243C472.112 43.4783 471.936 43.7038 471.716 43.8991C471.496 44.0908 471.231 44.2418 470.922 44.3519C470.613 44.4584 470.256 44.5117 469.852 44.5117ZM470.501 42.9456C470.835 42.9456 471.13 42.8799 471.386 42.7485C471.641 42.6136 471.842 42.4325 471.988 42.2052C472.133 41.9779 472.206 41.7205 472.206 41.4328V40.5646C472.135 40.6107 472.037 40.6533 471.913 40.6924C471.792 40.7279 471.656 40.7617 471.503 40.7936C471.35 40.822 471.197 40.8487 471.045 40.8735C470.892 40.8948 470.754 40.9144 470.629 40.9321C470.363 40.9712 470.13 41.0333 469.931 41.1185C469.733 41.2038 469.578 41.3192 469.468 41.4648C469.358 41.6068 469.303 41.7844 469.303 41.9974C469.303 42.3064 469.415 42.5425 469.638 42.7059C469.866 42.8657 470.153 42.9456 470.501 42.9456ZM476.22 44.3572V36.1754H478.42V37.6029H478.505C478.654 37.0951 478.904 36.7116 479.256 36.4523C479.607 36.1896 480.012 36.0582 480.47 36.0582C480.584 36.0582 480.707 36.0653 480.838 36.0795C480.969 36.0937 481.085 36.1132 481.184 36.1381V38.1516C481.078 38.1196 480.93 38.0912 480.742 38.0663C480.554 38.0415 480.382 38.0291 480.225 38.0291C479.892 38.0291 479.593 38.1019 479.33 38.2474C479.071 38.3895 478.865 38.5884 478.713 38.844C478.563 39.0997 478.489 39.3945 478.489 39.7283V44.3572H476.22ZM485.829 47.4254V36.1754H488.066V37.5496H488.167C488.267 37.3295 488.411 37.1058 488.599 36.8785C488.791 36.6477 489.039 36.4559 489.345 36.3032C489.654 36.147 490.037 36.0688 490.495 36.0688C491.092 36.0688 491.642 36.2251 492.146 36.5376C492.651 36.8465 493.054 37.3135 493.356 37.9385C493.657 38.5599 493.808 39.3394 493.808 40.2769C493.808 41.1896 493.661 41.9602 493.366 42.5887C493.075 43.2137 492.677 43.6878 492.173 44.0109C491.672 44.3305 491.111 44.4903 490.49 44.4903C490.05 44.4903 489.675 44.4175 489.366 44.272C489.061 44.1264 488.81 43.9435 488.615 43.7233C488.42 43.4996 488.27 43.2741 488.167 43.0468H488.098V47.4254H485.829ZM488.05 40.2663C488.05 40.7528 488.118 41.1771 488.253 41.5394C488.388 41.9016 488.583 42.1839 488.839 42.3863C489.094 42.5852 489.405 42.6846 489.771 42.6846C490.14 42.6846 490.453 42.5834 490.708 42.381C490.964 42.175 491.157 41.8909 491.289 41.5287C491.424 41.1629 491.491 40.7421 491.491 40.2663C491.491 39.794 491.426 39.3785 491.294 39.0198C491.163 38.6612 490.969 38.3806 490.714 38.1782C490.458 37.9758 490.144 37.8746 489.771 37.8746C489.401 37.8746 489.089 37.9722 488.833 38.1675C488.581 38.3629 488.388 38.6398 488.253 38.9985C488.118 39.3572 488.05 39.7798 488.05 40.2663ZM497.654 44.5117C497.132 44.5117 496.667 44.4211 496.259 44.24C495.85 44.0553 495.527 43.7837 495.289 43.425C495.055 43.0628 494.938 42.6118 494.938 42.072C494.938 41.6175 495.021 41.2357 495.188 40.9268C495.355 40.6178 495.582 40.3693 495.87 40.181C496.157 39.9928 496.484 39.8508 496.85 39.7549C497.219 39.659 497.606 39.5916 498.011 39.5525C498.487 39.5028 498.871 39.4566 499.162 39.414C499.453 39.3678 499.664 39.3004 499.796 39.2116C499.927 39.1228 499.993 38.9914 499.993 38.8174V38.7854C499.993 38.4481 499.886 38.1871 499.673 38.0024C499.464 37.8178 499.165 37.7254 498.778 37.7254C498.37 37.7254 498.045 37.816 497.803 37.9971C497.562 38.1746 497.402 38.3984 497.324 38.6683L495.225 38.4978C495.332 38.0006 495.541 37.571 495.854 37.2087C496.166 36.843 496.569 36.5624 497.063 36.3671C497.56 36.1683 498.135 36.0688 498.789 36.0688C499.243 36.0688 499.678 36.1221 500.094 36.2286C500.513 36.3352 500.884 36.5003 501.207 36.724C501.534 36.9477 501.791 37.2354 501.98 37.5869C502.168 37.9349 502.262 38.3522 502.262 38.8387V44.3572H500.11V43.2226H500.046C499.915 43.4783 499.739 43.7038 499.519 43.8991C499.298 44.0908 499.034 44.2418 498.725 44.3519C498.416 44.4584 498.059 44.5117 497.654 44.5117ZM498.304 42.9456C498.638 42.9456 498.933 42.8799 499.188 42.7485C499.444 42.6136 499.645 42.4325 499.79 42.2052C499.936 41.9779 500.009 41.7205 500.009 41.4328V40.5646C499.938 40.6107 499.84 40.6533 499.716 40.6924C499.595 40.7279 499.458 40.7617 499.306 40.7936C499.153 40.822 499 40.8487 498.847 40.8735C498.695 40.8948 498.556 40.9144 498.432 40.9321C498.166 40.9712 497.933 41.0333 497.734 41.1185C497.535 41.2038 497.381 41.3192 497.271 41.4648C497.161 41.6068 497.106 41.7844 497.106 41.9974C497.106 42.3064 497.218 42.5425 497.441 42.7059C497.669 42.8657 497.956 42.9456 498.304 42.9456ZM507.719 44.517C506.881 44.517 506.16 44.3394 505.556 43.9843C504.956 43.6256 504.495 43.1285 504.172 42.4928C503.852 41.8572 503.692 41.1256 503.692 40.2982C503.692 39.4602 503.854 38.7251 504.177 38.093C504.504 37.4573 504.967 36.9619 505.567 36.6068C506.167 36.2482 506.881 36.0688 507.708 36.0688C508.422 36.0688 509.047 36.1984 509.583 36.4577C510.12 36.7169 510.544 37.0809 510.857 37.5496C511.169 38.0184 511.341 38.5688 511.373 39.2009H509.232C509.172 38.7925 509.012 38.4641 508.752 38.2155C508.497 37.9634 508.161 37.8373 507.746 37.8373C507.394 37.8373 507.087 37.9332 506.824 38.1249C506.565 38.3131 506.363 38.5884 506.217 38.9506C506.071 39.3128 505.999 39.7514 505.999 40.2663C505.999 40.7883 506.07 41.2322 506.212 41.5979C506.357 41.9637 506.561 42.2425 506.824 42.4342C507.087 42.626 507.394 42.7219 507.746 42.7219C508.005 42.7219 508.238 42.6686 508.444 42.5621C508.653 42.4555 508.825 42.3011 508.96 42.0987C509.099 41.8927 509.189 41.6459 509.232 41.3582H511.373C511.338 41.9832 511.167 42.5337 510.862 43.0095C510.56 43.4818 510.143 43.8511 509.61 44.1175C509.077 44.3838 508.447 44.517 507.719 44.517ZM512.826 44.3572V36.1754H515.095V44.3572H512.826ZM513.966 35.1207C513.629 35.1207 513.339 35.0088 513.098 34.7851C512.86 34.5578 512.741 34.2862 512.741 33.9701C512.741 33.6576 512.86 33.3895 513.098 33.1658C513.339 32.9385 513.629 32.8249 513.966 32.8249C514.303 32.8249 514.591 32.9385 514.829 33.1658C515.07 33.3895 515.191 33.6576 515.191 33.9701C515.191 34.2862 515.07 34.5578 514.829 34.7851C514.591 35.0088 514.303 35.1207 513.966 35.1207ZM520.642 44.517C519.8 44.517 519.076 44.3465 518.468 44.0056C517.865 43.6612 517.4 43.1746 517.073 42.5461C516.746 41.914 516.583 41.1665 516.583 40.3036C516.583 39.4619 516.746 38.7233 517.073 38.0876C517.4 37.452 517.859 36.9566 518.452 36.6015C519.049 36.2464 519.749 36.0688 520.551 36.0688C521.091 36.0688 521.593 36.1558 522.059 36.3298C522.527 36.5003 522.936 36.7577 523.284 37.1022C523.635 37.4467 523.909 37.8799 524.104 38.4019C524.299 38.9204 524.397 39.5276 524.397 40.2237V40.8469H517.488V39.4406H522.261C522.261 39.1139 522.19 38.8245 522.048 38.5724C521.906 38.3202 521.709 38.1232 521.457 37.9811C521.208 37.8355 520.919 37.7627 520.588 37.7627C520.244 37.7627 519.939 37.8426 519.672 38.0024C519.409 38.1587 519.203 38.37 519.054 38.6363C518.905 38.8991 518.829 39.192 518.825 39.5152V40.8522C518.825 41.257 518.9 41.6068 519.049 41.9016C519.202 42.1963 519.417 42.4236 519.694 42.5834C519.971 42.7432 520.299 42.8231 520.679 42.8231C520.931 42.8231 521.162 42.7876 521.371 42.7166C521.581 42.6455 521.76 42.539 521.909 42.397C522.059 42.2549 522.172 42.0809 522.25 41.8749L524.349 42.0134C524.243 42.5177 524.024 42.958 523.694 43.3345C523.367 43.7073 522.945 43.9985 522.426 44.208C521.911 44.414 521.316 44.517 520.642 44.517ZM528.147 39.6271V44.3572H525.878V36.1754H528.04V37.6189H528.136C528.317 37.143 528.621 36.7666 529.047 36.4896C529.473 36.2091 529.99 36.0688 530.597 36.0688C531.165 36.0688 531.661 36.1931 532.083 36.4417C532.506 36.6903 532.835 37.0454 533.069 37.507C533.303 37.9651 533.42 38.512 533.42 39.1477V44.3572H531.151V39.5525C531.155 39.0518 531.027 38.6612 530.768 38.3806C530.509 38.0965 530.152 37.9545 529.697 37.9545C529.392 37.9545 529.122 38.0202 528.887 38.1516C528.657 38.283 528.476 38.4747 528.344 38.7269C528.216 38.9754 528.151 39.2755 528.147 39.6271ZM539.561 36.1754V37.8799H534.634V36.1754H539.561ZM535.752 34.2151H538.021V41.843C538.021 42.0525 538.053 42.2158 538.117 42.333C538.181 42.4467 538.27 42.5266 538.384 42.5727C538.501 42.6189 538.636 42.642 538.788 42.642C538.895 42.642 539.002 42.6331 539.108 42.6153C539.215 42.594 539.296 42.5781 539.353 42.5674L539.71 44.256C539.596 44.2915 539.437 44.3323 539.231 44.3785C539.025 44.4282 538.774 44.4584 538.479 44.469C537.933 44.4903 537.453 44.4175 537.041 44.2506C536.633 44.0837 536.315 43.8245 536.088 43.4729C535.861 43.1214 535.749 42.6775 535.752 42.1413V34.2151ZM544.68 44.517C543.838 44.517 543.114 44.3465 542.506 44.0056C541.903 43.6612 541.438 43.1746 541.111 42.5461C540.784 41.914 540.621 41.1665 540.621 40.3036C540.621 39.4619 540.784 38.7233 541.111 38.0876C541.438 37.452 541.897 36.9566 542.491 36.6015C543.087 36.2464 543.787 36.0688 544.589 36.0688C545.129 36.0688 545.631 36.1558 546.097 36.3298C546.565 36.5003 546.974 36.7577 547.322 37.1022C547.673 37.4467 547.947 37.8799 548.142 38.4019C548.337 38.9204 548.435 39.5276 548.435 40.2237V40.8469H541.526V39.4406H546.299C546.299 39.1139 546.228 38.8245 546.086 38.5724C545.944 38.3202 545.747 38.1232 545.495 37.9811C545.246 37.8355 544.957 37.7627 544.627 37.7627C544.282 37.7627 543.977 37.8426 543.71 38.0024C543.448 38.1587 543.242 38.37 543.092 38.6363C542.943 38.8991 542.867 39.192 542.863 39.5152V40.8522C542.863 41.257 542.938 41.6068 543.087 41.9016C543.24 42.1963 543.455 42.4236 543.732 42.5834C544.009 42.7432 544.337 42.8231 544.717 42.8231C544.969 42.8231 545.2 42.7876 545.41 42.7166C545.619 42.6455 545.798 42.539 545.948 42.397C546.097 42.2549 546.21 42.0809 546.288 41.8749L548.387 42.0134C548.281 42.5177 548.062 42.958 547.732 43.3345C547.405 43.7073 546.983 43.9985 546.464 44.208C545.949 44.414 545.354 44.517 544.68 44.517ZM556.723 38.5085L554.646 38.6363C554.611 38.4587 554.534 38.2989 554.417 38.1569C554.3 38.0113 554.145 37.8959 553.954 37.8107C553.765 37.7219 553.54 37.6775 553.277 37.6775C552.926 37.6775 552.629 37.7521 552.388 37.9012C552.146 38.0468 552.025 38.2421 552.025 38.4871C552.025 38.6825 552.103 38.8476 552.26 38.9825C552.416 39.1175 552.684 39.2258 553.064 39.3075L554.545 39.6058C555.34 39.7691 555.933 40.0319 556.324 40.3941C556.715 40.7563 556.91 41.2322 556.91 41.8217C556.91 42.3579 556.752 42.8284 556.436 43.2332C556.123 43.6381 555.694 43.9541 555.147 44.1814C554.603 44.4051 553.977 44.517 553.266 44.517C552.183 44.517 551.32 44.2915 550.678 43.8405C550.038 43.3859 549.664 42.768 549.554 41.9868L551.786 41.8696C551.853 42.1999 552.016 42.452 552.276 42.626C552.535 42.7965 552.867 42.8817 553.272 42.8817C553.669 42.8817 553.989 42.8053 554.231 42.6526C554.476 42.4964 554.6 42.2957 554.603 42.0507C554.6 41.8447 554.513 41.6761 554.342 41.5447C554.172 41.4097 553.909 41.3068 553.554 41.2357L552.137 40.9534C551.338 40.7936 550.743 40.5166 550.353 40.1224C549.966 39.7283 549.772 39.2258 549.772 38.615C549.772 38.0894 549.914 37.6367 550.198 37.2567C550.486 36.8767 550.889 36.5837 551.407 36.3778C551.929 36.1718 552.54 36.0688 553.24 36.0688C554.273 36.0688 555.086 36.2872 555.679 36.724C556.276 37.1608 556.624 37.7556 556.723 38.5085Z" fill="black" fill-opacity="0.5"/>
<path d="M26 30C26 27.2386 28.2386 25 31 25H211.5V55H26V30Z" fill="white"/>
<path d="M26 25H211.5H26ZM211.5 56.5H26V53.5H211.5V56.5ZM26 55V25V55ZM211.5 25V55V25Z" fill="black"/>
<path d="M69.5784 33.4176L72.2151 41.7059H72.3163L74.9583 33.4176H77.5152L73.7545 44.3267H70.7822L67.0162 33.4176H69.5784ZM81.5914 44.4865C80.7498 44.4865 80.0254 44.316 79.4181 43.9751C78.8144 43.6306 78.3492 43.1441 78.0225 42.5156C77.6958 41.8835 77.5325 41.136 77.5325 40.273C77.5325 39.4314 77.6958 38.6928 78.0225 38.0571C78.3492 37.4215 78.8091 36.9261 79.4021 36.571C79.9987 36.2159 80.6983 36.0383 81.5009 36.0383C82.0406 36.0383 82.5431 36.1253 83.0083 36.2993C83.4771 36.4698 83.8855 36.7272 84.2335 37.0717C84.585 37.4161 84.8585 37.8494 85.0538 38.3714C85.2491 38.8899 85.3467 39.4971 85.3467 40.1931V40.8164H78.438V39.4101H83.2107C83.2107 39.0834 83.1397 38.794 82.9977 38.5419C82.8556 38.2897 82.6585 38.0926 82.4064 37.9506C82.1578 37.805 81.8684 37.7322 81.5382 37.7322C81.1937 37.7322 80.8883 37.8121 80.622 37.9719C80.3592 38.1282 80.1532 38.3394 80.0041 38.6058C79.8549 38.8686 79.7786 39.1615 79.775 39.4847V40.8217C79.775 41.2265 79.8496 41.5763 79.9987 41.871C80.1514 42.1658 80.3663 42.3931 80.6433 42.5529C80.9203 42.7127 81.2487 42.7926 81.6287 42.7926C81.8808 42.7926 82.1117 42.7571 82.3212 42.686C82.5307 42.615 82.71 42.5085 82.8592 42.3664C83.0083 42.2244 83.122 42.0504 83.2001 41.8444L85.2988 41.9829C85.1923 42.4872 84.9739 42.9275 84.6436 43.3039C84.3169 43.6768 83.8943 43.968 83.3759 44.1775C82.8609 44.3835 82.2661 44.4865 81.5914 44.4865ZM86.8276 44.3267V36.1448H89.0275V37.5724H89.1127C89.2619 37.0646 89.5122 36.6811 89.8638 36.4218C90.2154 36.159 90.6202 36.0277 91.0783 36.0277C91.1919 36.0277 91.3144 36.0348 91.4458 36.049C91.5772 36.0632 91.6926 36.0827 91.7921 36.1076V38.121C91.6855 38.0891 91.5382 38.0607 91.3499 38.0358C91.1617 38.011 90.9895 37.9985 90.8332 37.9985C90.4994 37.9985 90.2011 38.0713 89.9384 38.2169C89.6791 38.359 89.4732 38.5578 89.3205 38.8135C89.1713 39.0692 89.0967 39.3639 89.0967 39.6978V44.3267H86.8276ZM96.4369 47.3948V36.1448H98.6742V37.5191H98.7754C98.8748 37.299 99.0186 37.0752 99.2068 36.848C99.3986 36.6171 99.6472 36.4254 99.9526 36.2727C100.262 36.1164 100.645 36.0383 101.103 36.0383C101.7 36.0383 102.25 36.1946 102.754 36.5071C103.259 36.816 103.662 37.283 103.964 37.908C104.265 38.5294 104.416 39.3089 104.416 40.2464C104.416 41.159 104.269 41.9296 103.974 42.5582C103.683 43.1832 103.285 43.6573 102.781 43.9804C102.28 44.3 101.719 44.4598 101.098 44.4598C100.657 44.4598 100.283 44.387 99.9739 44.2414C99.6685 44.0958 99.4181 43.913 99.2228 43.6928C99.0275 43.4691 98.8783 43.2436 98.7754 43.0163H98.7061V47.3948H96.4369ZM98.6582 40.2358C98.6582 40.7223 98.7256 41.1466 98.8606 41.5088C98.9955 41.871 99.1908 42.1534 99.4465 42.3558C99.7022 42.5546 100.013 42.6541 100.379 42.6541C100.748 42.6541 101.061 42.5529 101.316 42.3505C101.572 42.1445 101.765 41.8604 101.897 41.4982C102.032 41.1324 102.099 40.7116 102.099 40.2358C102.099 39.7634 102.034 39.348 101.902 38.9893C101.771 38.6306 101.577 38.3501 101.322 38.1477C101.066 37.9453 100.752 37.8441 100.379 37.8441C100.009 37.8441 99.6969 37.9417 99.4412 38.137C99.1891 38.3323 98.9955 38.6093 98.8606 38.968C98.7256 39.3267 98.6582 39.7492 98.6582 40.2358ZM108.262 44.4811C107.74 44.4811 107.275 44.3906 106.867 44.2095C106.458 44.0248 106.135 43.7532 105.897 43.3945C105.663 43.0323 105.546 42.5813 105.546 42.0415C105.546 41.587 105.629 41.2052 105.796 40.8963C105.963 40.5873 106.19 40.3387 106.478 40.1505C106.765 39.9623 107.092 39.8203 107.458 39.7244C107.827 39.6285 108.214 39.561 108.619 39.522C109.095 39.4723 109.478 39.4261 109.77 39.3835C110.061 39.3373 110.272 39.2698 110.404 39.1811C110.535 39.0923 110.601 38.9609 110.601 38.7869V38.7549C110.601 38.4176 110.494 38.1566 110.281 37.9719C110.072 37.7872 109.773 37.6949 109.386 37.6949C108.978 37.6949 108.653 37.7855 108.411 37.9666C108.17 38.1441 108.01 38.3679 107.932 38.6377L105.833 38.4673C105.94 37.9701 106.149 37.5404 106.462 37.1782C106.774 36.8125 107.177 36.5319 107.671 36.3366C108.168 36.1377 108.743 36.0383 109.397 36.0383C109.851 36.0383 110.286 36.0916 110.702 36.1981C111.121 36.3046 111.492 36.4698 111.815 36.6935C112.142 36.9172 112.399 37.2049 112.588 37.5564C112.776 37.9044 112.87 38.3217 112.87 38.8082V44.3267H110.718V43.1921H110.654C110.523 43.4478 110.347 43.6733 110.127 43.8686C109.906 44.0603 109.642 44.2112 109.333 44.3213C109.024 44.4279 108.667 44.4811 108.262 44.4811ZM108.912 42.9151C109.246 42.9151 109.541 42.8494 109.796 42.718C110.052 42.5831 110.253 42.4019 110.398 42.1747C110.544 41.9474 110.617 41.6899 110.617 41.4023V40.534C110.546 40.5802 110.448 40.6228 110.324 40.6619C110.203 40.6974 110.066 40.7311 109.914 40.7631C109.761 40.7915 109.608 40.8181 109.455 40.843C109.303 40.8643 109.164 40.8838 109.04 40.9016C108.774 40.9407 108.541 41.0028 108.342 41.088C108.143 41.1733 107.989 41.2887 107.879 41.4343C107.769 41.5763 107.714 41.7539 107.714 41.9669C107.714 42.2759 107.825 42.512 108.049 42.6754C108.276 42.8352 108.564 42.9151 108.912 42.9151ZM118.327 44.4865C117.489 44.4865 116.768 44.3089 116.164 43.9538C115.564 43.5951 115.103 43.098 114.779 42.4623C114.46 41.8267 114.3 41.0951 114.3 40.2677C114.3 39.4296 114.462 38.6946 114.785 38.0625C115.111 37.4268 115.575 36.9314 116.175 36.5763C116.775 36.2176 117.489 36.0383 118.316 36.0383C119.03 36.0383 119.655 36.1679 120.191 36.4272C120.728 36.6864 121.152 37.0504 121.464 37.5191C121.777 37.9879 121.949 38.5383 121.981 39.1704H119.84C119.779 38.762 119.62 38.4335 119.36 38.185C119.105 37.9328 118.769 37.8068 118.354 37.8068C118.002 37.8068 117.695 37.9027 117.432 38.0944C117.173 38.2826 116.971 38.5578 116.825 38.9201C116.679 39.2823 116.607 39.7208 116.607 40.2358C116.607 40.7578 116.678 41.2017 116.82 41.5674C116.965 41.9332 117.169 42.212 117.432 42.4037C117.695 42.5955 118.002 42.6914 118.354 42.6914C118.613 42.6914 118.846 42.6381 119.051 42.5316C119.261 42.425 119.433 42.2706 119.568 42.0681C119.707 41.8622 119.797 41.6154 119.84 41.3277H121.981C121.946 41.9527 121.775 42.5032 121.47 42.979C121.168 43.4513 120.751 43.8206 120.218 44.087C119.685 44.3533 119.055 44.4865 118.327 44.4865ZM123.434 44.3267V36.1448H125.703V44.3267H123.434ZM124.574 35.0902C124.237 35.0902 123.947 34.9783 123.706 34.7546C123.468 34.5273 123.349 34.2556 123.349 33.9396C123.349 33.6271 123.468 33.359 123.706 33.1353C123.947 32.908 124.237 32.7943 124.574 32.7943C124.911 32.7943 125.199 32.908 125.437 33.1353C125.678 33.359 125.799 33.6271 125.799 33.9396C125.799 34.2556 125.678 34.5273 125.437 34.7546C125.199 34.9783 124.911 35.0902 124.574 35.0902ZM131.25 44.4865C130.408 44.4865 129.684 44.316 129.076 43.9751C128.473 43.6306 128.007 43.1441 127.681 42.5156C127.354 41.8835 127.191 41.136 127.191 40.273C127.191 39.4314 127.354 38.6928 127.681 38.0571C128.007 37.4215 128.467 36.9261 129.06 36.571C129.657 36.2159 130.357 36.0383 131.159 36.0383C131.699 36.0383 132.201 36.1253 132.667 36.2993C133.135 36.4698 133.544 36.7272 133.892 37.0717C134.243 37.4161 134.517 37.8494 134.712 38.3714C134.907 38.8899 135.005 39.4971 135.005 40.1931V40.8164H128.096V39.4101H132.869C132.869 39.0834 132.798 38.794 132.656 38.5419C132.514 38.2897 132.317 38.0926 132.065 37.9506C131.816 37.805 131.527 37.7322 131.196 37.7322C130.852 37.7322 130.546 37.8121 130.28 37.9719C130.017 38.1282 129.811 38.3394 129.662 38.6058C129.513 38.8686 129.437 39.1615 129.433 39.4847V40.8217C129.433 41.2265 129.508 41.5763 129.657 41.871C129.81 42.1658 130.024 42.3931 130.301 42.5529C130.578 42.7127 130.907 42.7926 131.287 42.7926C131.539 42.7926 131.77 42.7571 131.979 42.686C132.189 42.615 132.368 42.5085 132.517 42.3664C132.667 42.2244 132.78 42.0504 132.858 41.8444L134.957 41.9829C134.85 42.4872 134.632 42.9275 134.302 43.3039C133.975 43.6768 133.553 43.968 133.034 44.1775C132.519 44.3835 131.924 44.4865 131.25 44.4865ZM138.755 39.5965V44.3267H136.486V36.1448H138.648V37.5884H138.744C138.925 37.1125 139.229 36.7361 139.655 36.4591C140.081 36.1786 140.598 36.0383 141.205 36.0383C141.773 36.0383 142.269 36.1626 142.691 36.4112C143.114 36.6598 143.442 37.0149 143.677 37.4765C143.911 37.9346 144.028 38.4815 144.028 39.1171V44.3267H141.759V39.522C141.763 39.0213 141.635 38.6306 141.376 38.3501C141.116 38.066 140.76 37.924 140.305 37.924C140 37.924 139.73 37.9897 139.495 38.121C139.265 38.2524 139.083 38.4442 138.952 38.6963C138.824 38.9449 138.758 39.245 138.755 39.5965ZM150.169 36.1448V37.8494H145.242V36.1448H150.169ZM146.36 34.1846H148.629V41.8125C148.629 42.022 148.661 42.1853 148.725 42.3025C148.789 42.4161 148.878 42.496 148.992 42.5422C149.109 42.5884 149.244 42.6115 149.396 42.6115C149.503 42.6115 149.609 42.6026 149.716 42.5848C149.823 42.5635 149.904 42.5475 149.961 42.5369L150.318 44.2255C150.204 44.261 150.044 44.3018 149.838 44.348C149.633 44.3977 149.382 44.4279 149.087 44.4385C148.541 44.4598 148.061 44.387 147.649 44.2201C147.241 44.0532 146.923 43.794 146.696 43.4424C146.468 43.0909 146.357 42.647 146.36 42.1108V34.1846ZM155.288 44.4865C154.446 44.4865 153.722 44.316 153.114 43.9751C152.511 43.6306 152.046 43.1441 151.719 42.5156C151.392 41.8835 151.229 41.136 151.229 40.273C151.229 39.4314 151.392 38.6928 151.719 38.0571C152.046 37.4215 152.505 36.9261 153.098 36.571C153.695 36.2159 154.395 36.0383 155.197 36.0383C155.737 36.0383 156.239 36.1253 156.705 36.2993C157.173 36.4698 157.582 36.7272 157.93 37.0717C158.281 37.4161 158.555 37.8494 158.75 38.3714C158.945 38.8899 159.043 39.4971 159.043 40.1931V40.8164H152.134V39.4101H156.907C156.907 39.0834 156.836 38.794 156.694 38.5419C156.552 38.2897 156.355 38.0926 156.103 37.9506C155.854 37.805 155.565 37.7322 155.234 37.7322C154.89 37.7322 154.585 37.8121 154.318 37.9719C154.055 38.1282 153.849 38.3394 153.7 38.6058C153.551 38.8686 153.475 39.1615 153.471 39.4847V40.8217C153.471 41.2265 153.546 41.5763 153.695 41.871C153.848 42.1658 154.063 42.3931 154.34 42.5529C154.617 42.7127 154.945 42.7926 155.325 42.7926C155.577 42.7926 155.808 42.7571 156.017 42.686C156.227 42.615 156.406 42.5085 156.555 42.3664C156.705 42.2244 156.818 42.0504 156.896 41.8444L158.995 41.9829C158.889 42.4872 158.67 42.9275 158.34 43.3039C158.013 43.6768 157.591 43.968 157.072 44.1775C156.557 44.3835 155.962 44.4865 155.288 44.4865ZM167.331 38.4779L165.254 38.6058C165.218 38.4282 165.142 38.2684 165.025 38.1264C164.908 37.9808 164.753 37.8654 164.561 37.7801C164.373 37.6914 164.148 37.647 163.885 37.647C163.533 37.647 163.237 37.7215 162.995 37.8707C162.754 38.0163 162.633 38.2116 162.633 38.4566C162.633 38.6519 162.711 38.8171 162.868 38.952C163.024 39.087 163.292 39.1953 163.672 39.2769L165.153 39.5752C165.948 39.7386 166.541 40.0014 166.932 40.3636C167.323 40.7258 167.518 41.2017 167.518 41.7911C167.518 42.3274 167.36 42.7979 167.044 43.2027C166.731 43.6076 166.302 43.9236 165.755 44.1509C165.211 44.3746 164.585 44.4865 163.874 44.4865C162.791 44.4865 161.928 44.261 161.286 43.81C160.646 43.3554 160.272 42.7375 160.162 41.9563L162.394 41.8391C162.461 42.1693 162.624 42.4215 162.884 42.5955C163.143 42.7659 163.475 42.8512 163.88 42.8512C164.277 42.8512 164.597 42.7748 164.838 42.6221C165.084 42.4659 165.208 42.2652 165.211 42.0202C165.208 41.8142 165.121 41.6456 164.95 41.5142C164.78 41.3792 164.517 41.2762 164.162 41.2052L162.745 40.9229C161.946 40.7631 161.351 40.4861 160.961 40.0919C160.574 39.6978 160.38 39.1953 160.38 38.5845C160.38 38.0589 160.522 37.6061 160.806 37.2262C161.094 36.8462 161.497 36.5532 162.015 36.3473C162.537 36.1413 163.148 36.0383 163.848 36.0383C164.881 36.0383 165.694 36.2567 166.287 36.6935C166.884 37.1303 167.232 37.7251 167.331 38.4779Z" fill="black" fill-opacity="0.5"/>
<path d="M210 25H392.7V55H210V25Z" fill="white"/>
<path d="M210 25V23.5L208.5 25H210ZM392.7 25H394.2L392.7 23.5V25ZM210 26.5H392.7V23.5H210V26.5ZM391.2 25V55H394.2V25H391.2ZM211.5 55V25H208.5V55H211.5Z" fill="black"/>
<path d="M252.518 44.3572V33.4481H259.868V35.3497H254.824V37.9492H259.49V39.8508H254.824V42.4555H259.89V44.3572H252.518ZM261.66 44.3572V36.1754H263.822V37.6189H263.918C264.089 37.1395 264.373 36.7613 264.77 36.4843C265.168 36.2073 265.644 36.0688 266.198 36.0688C266.759 36.0688 267.237 36.2091 267.631 36.4896C268.025 36.7666 268.288 37.143 268.419 37.6189H268.504C268.671 37.1501 268.973 36.7755 269.41 36.495C269.85 36.2109 270.371 36.0688 270.971 36.0688C271.734 36.0688 272.354 36.3121 272.83 36.7986C273.309 37.2815 273.549 37.9669 273.549 38.8547V44.3572H271.285V39.3021C271.285 38.8476 271.164 38.5067 270.923 38.2794C270.681 38.0521 270.379 37.9385 270.017 37.9385C269.605 37.9385 269.284 38.0699 269.053 38.3327C268.822 38.5919 268.707 38.9346 268.707 39.3607V44.3572H266.507V39.2542C266.507 38.8529 266.391 38.5333 266.161 38.2954C265.933 38.0575 265.633 37.9385 265.26 37.9385C265.008 37.9385 264.781 38.0024 264.579 38.1303C264.38 38.2545 264.222 38.4303 264.105 38.6576C263.987 38.8813 263.929 39.1441 263.929 39.446V44.3572H261.66ZM275.341 44.3572V36.1754H277.61V44.3572H275.341ZM276.481 35.1207C276.144 35.1207 275.854 35.0088 275.613 34.7851C275.375 34.5578 275.256 34.2862 275.256 33.9701C275.256 33.6576 275.375 33.3895 275.613 33.1658C275.854 32.9385 276.144 32.8249 276.481 32.8249C276.818 32.8249 277.106 32.9385 277.344 33.1658C277.586 33.3895 277.706 33.6576 277.706 33.9701C277.706 34.2862 277.586 34.5578 277.344 34.7851C277.106 35.0088 276.818 35.1207 276.481 35.1207ZM283.78 36.1754V37.8799H278.853V36.1754H283.78ZM279.971 34.2151H282.241V41.843C282.241 42.0525 282.273 42.2158 282.337 42.333C282.4 42.4467 282.489 42.5266 282.603 42.5727C282.72 42.6189 282.855 42.642 283.008 42.642C283.114 42.642 283.221 42.6331 283.327 42.6153C283.434 42.594 283.515 42.5781 283.572 42.5674L283.929 44.256C283.816 44.2915 283.656 44.3323 283.45 44.3785C283.244 44.4282 282.993 44.4584 282.699 44.469C282.152 44.4903 281.672 44.4175 281.261 44.2506C280.852 44.0837 280.534 43.8245 280.307 43.4729C280.08 43.1214 279.968 42.6775 279.971 42.1413V34.2151ZM285.258 44.3572V36.1754H287.527V44.3572H285.258ZM286.398 35.1207C286.061 35.1207 285.771 35.0088 285.53 34.7851C285.292 34.5578 285.173 34.2862 285.173 33.9701C285.173 33.6576 285.292 33.3895 285.53 33.1658C285.771 32.9385 286.061 32.8249 286.398 32.8249C286.735 32.8249 287.023 32.9385 287.261 33.1658C287.503 33.3895 287.623 33.6576 287.623 33.9701C287.623 34.2862 287.503 34.5578 287.261 34.7851C287.023 35.0088 286.735 35.1207 286.398 35.1207ZM289.345 44.3572V36.1754H291.545V37.6029H291.63C291.779 37.0951 292.03 36.7116 292.381 36.4523C292.733 36.1896 293.138 36.0582 293.596 36.0582C293.709 36.0582 293.832 36.0653 293.963 36.0795C294.095 36.0937 294.21 36.1132 294.31 36.1381V38.1516C294.203 38.1196 294.056 38.0912 293.868 38.0663C293.679 38.0415 293.507 38.0291 293.351 38.0291C293.017 38.0291 292.719 38.1019 292.456 38.2474C292.197 38.3895 291.991 38.5884 291.838 38.844C291.689 39.0997 291.614 39.3945 291.614 39.7283V44.3572H289.345ZM298.955 44.3572V36.1754H301.154V37.6029H301.24C301.389 37.0951 301.639 36.7116 301.991 36.4523C302.342 36.1896 302.747 36.0582 303.205 36.0582C303.319 36.0582 303.441 36.0653 303.573 36.0795C303.704 36.0937 303.82 36.1132 303.919 36.1381V38.1516C303.812 38.1196 303.665 38.0912 303.477 38.0663C303.289 38.0415 303.116 38.0291 302.96 38.0291C302.626 38.0291 302.328 38.1019 302.065 38.2474C301.806 38.3895 301.6 38.5884 301.447 38.844C301.298 39.0997 301.224 39.3945 301.224 39.7283V44.3572H298.955ZM308.44 44.517C307.598 44.517 306.874 44.3465 306.267 44.0056C305.663 43.6612 305.198 43.1746 304.871 42.5461C304.544 41.914 304.381 41.1665 304.381 40.3036C304.381 39.4619 304.544 38.7233 304.871 38.0876C305.198 37.452 305.658 36.9566 306.251 36.6015C306.847 36.2464 307.547 36.0688 308.349 36.0688C308.889 36.0688 309.392 36.1558 309.857 36.3298C310.326 36.5003 310.734 36.7577 311.082 37.1022C311.434 37.4467 311.707 37.8799 311.902 38.4019C312.098 38.9204 312.195 39.5276 312.195 40.2237V40.8469H305.287V39.4406H310.059C310.059 39.1139 309.988 38.8245 309.846 38.5724C309.704 38.3202 309.507 38.1232 309.255 37.9811C309.006 37.8355 308.717 37.7627 308.387 37.7627C308.042 37.7627 307.737 37.8426 307.471 38.0024C307.208 38.1587 307.002 38.37 306.853 38.6363C306.704 38.8991 306.627 39.192 306.624 39.5152V40.8522C306.624 41.257 306.698 41.6068 306.847 41.9016C307 42.1963 307.215 42.4236 307.492 42.5834C307.769 42.7432 308.097 42.8231 308.477 42.8231C308.729 42.8231 308.96 42.7876 309.17 42.7166C309.379 42.6455 309.559 42.539 309.708 42.397C309.857 42.2549 309.971 42.0809 310.049 41.8749L312.147 42.0134C312.041 42.5177 311.822 42.958 311.492 43.3345C311.166 43.7073 310.743 43.9985 310.224 44.208C309.71 44.414 309.115 44.517 308.44 44.517ZM317.373 44.517C316.535 44.517 315.814 44.3394 315.21 43.9843C314.61 43.6256 314.148 43.1285 313.825 42.4928C313.506 41.8572 313.346 41.1256 313.346 40.2982C313.346 39.4602 313.508 38.7251 313.831 38.093C314.157 37.4573 314.621 36.9619 315.221 36.6068C315.821 36.2482 316.535 36.0688 317.362 36.0688C318.076 36.0688 318.701 36.1984 319.237 36.4577C319.773 36.7169 320.198 37.0809 320.51 37.5496C320.823 38.0184 320.995 38.5688 321.027 39.2009H318.886C318.825 38.7925 318.666 38.4641 318.406 38.2155C318.151 37.9634 317.815 37.8373 317.4 37.8373C317.048 37.8373 316.741 37.9332 316.478 38.1249C316.219 38.3131 316.016 38.5884 315.871 38.9506C315.725 39.3128 315.652 39.7514 315.652 40.2663C315.652 40.7883 315.723 41.2322 315.865 41.5979C316.011 41.9637 316.215 42.2425 316.478 42.4342C316.741 42.626 317.048 42.7219 317.4 42.7219C317.659 42.7219 317.891 42.6686 318.097 42.5621C318.307 42.4555 318.479 42.3011 318.614 42.0987C318.753 41.8927 318.843 41.6459 318.886 41.3582H321.027C320.992 41.9832 320.821 42.5337 320.516 43.0095C320.214 43.4818 319.797 43.8511 319.264 44.1175C318.731 44.3838 318.101 44.517 317.373 44.517ZM326.209 44.517C325.367 44.517 324.643 44.3465 324.035 44.0056C323.432 43.6612 322.966 43.1746 322.64 42.5461C322.313 41.914 322.15 41.1665 322.15 40.3036C322.15 39.4619 322.313 38.7233 322.64 38.0876C322.966 37.452 323.426 36.9566 324.019 36.6015C324.616 36.2464 325.315 36.0688 326.118 36.0688C326.658 36.0688 327.16 36.1558 327.625 36.3298C328.094 36.5003 328.503 36.7577 328.851 37.1022C329.202 37.4467 329.476 37.8799 329.671 38.4019C329.866 38.9204 329.964 39.5276 329.964 40.2237V40.8469H323.055V39.4406H327.828C327.828 39.1139 327.757 38.8245 327.615 38.5724C327.473 38.3202 327.276 38.1232 327.024 37.9811C326.775 37.8355 326.486 37.7627 326.155 37.7627C325.811 37.7627 325.505 37.8426 325.239 38.0024C324.976 38.1587 324.77 38.37 324.621 38.6363C324.472 38.8991 324.396 39.192 324.392 39.5152V40.8522C324.392 41.257 324.467 41.6068 324.616 41.9016C324.769 42.1963 324.983 42.4236 325.26 42.5834C325.537 42.7432 325.866 42.8231 326.246 42.8231C326.498 42.8231 326.729 42.7876 326.938 42.7166C327.148 42.6455 327.327 42.539 327.476 42.397C327.625 42.2549 327.739 42.0809 327.817 41.8749L329.916 42.0134C329.809 42.5177 329.591 42.958 329.261 43.3345C328.934 43.7073 328.512 43.9985 327.993 44.208C327.478 44.414 326.883 44.517 326.209 44.517ZM331.445 44.3572V36.1754H333.714V44.3572H331.445ZM332.585 35.1207C332.247 35.1207 331.958 35.0088 331.716 34.7851C331.478 34.5578 331.36 34.2862 331.36 33.9701C331.36 33.6576 331.478 33.3895 331.716 33.1658C331.958 32.9385 332.247 32.8249 332.585 32.8249C332.922 32.8249 333.21 32.9385 333.448 33.1658C333.689 33.3895 333.81 33.6576 333.81 33.9701C333.81 34.2862 333.689 34.5578 333.448 34.7851C333.21 35.0088 332.922 35.1207 332.585 35.1207ZM339.884 36.1754V37.8799H334.956V36.1754H339.884ZM336.075 34.2151H338.344V41.843C338.344 42.0525 338.376 42.2158 338.44 42.333C338.504 42.4467 338.593 42.5266 338.706 42.5727C338.824 42.6189 338.959 42.642 339.111 42.642C339.218 42.642 339.324 42.6331 339.431 42.6153C339.537 42.594 339.619 42.5781 339.676 42.5674L340.033 44.256C339.919 44.2915 339.759 44.3323 339.553 44.3785C339.347 44.4282 339.097 44.4584 338.802 44.469C338.255 44.4903 337.776 44.4175 337.364 44.2506C336.956 44.0837 336.638 43.8245 336.411 43.4729C336.183 43.1214 336.071 42.6775 336.075 42.1413V34.2151ZM343.695 44.5117C343.173 44.5117 342.708 44.4211 342.299 44.24C341.891 44.0553 341.568 43.7837 341.33 43.425C341.095 43.0628 340.978 42.6118 340.978 42.072C340.978 41.6175 341.062 41.2357 341.229 40.9268C341.395 40.6178 341.623 40.3693 341.91 40.181C342.198 39.9928 342.525 39.8508 342.89 39.7549C343.26 39.659 343.647 39.5916 344.052 39.5525C344.528 39.5028 344.911 39.4566 345.202 39.414C345.493 39.3678 345.705 39.3004 345.836 39.2116C345.968 39.1228 346.033 38.9914 346.033 38.8174V38.7854C346.033 38.4481 345.927 38.1871 345.714 38.0024C345.504 37.8178 345.206 37.7254 344.819 37.7254C344.41 37.7254 344.085 37.816 343.844 37.9971C343.602 38.1746 343.443 38.3984 343.365 38.6683L341.266 38.4978C341.372 38.0006 341.582 37.571 341.894 37.2087C342.207 36.843 342.61 36.5624 343.104 36.3671C343.601 36.1683 344.176 36.0688 344.829 36.0688C345.284 36.0688 345.719 36.1221 346.134 36.2286C346.553 36.3352 346.925 36.5003 347.248 36.724C347.574 36.9477 347.832 37.2354 348.02 37.5869C348.208 37.9349 348.302 38.3522 348.302 38.8387V44.3572H346.15V43.2226H346.087C345.955 43.4783 345.779 43.7038 345.559 43.8991C345.339 44.0908 345.074 44.2418 344.765 44.3519C344.457 44.4584 344.1 44.5117 343.695 44.5117ZM344.345 42.9456C344.678 42.9456 344.973 42.8799 345.229 42.7485C345.485 42.6136 345.685 42.4325 345.831 42.2052C345.976 41.9779 346.049 41.7205 346.049 41.4328V40.5646C345.978 40.6107 345.881 40.6533 345.756 40.6924C345.636 40.7279 345.499 40.7617 345.346 40.7936C345.193 40.822 345.041 40.8487 344.888 40.8735C344.735 40.8948 344.597 40.9144 344.473 40.9321C344.206 40.9712 343.974 41.0333 343.775 41.1185C343.576 41.2038 343.421 41.3192 343.311 41.4648C343.201 41.6068 343.146 41.7844 343.146 41.9974C343.146 42.3064 343.258 42.5425 343.482 42.7059C343.709 42.8657 343.997 42.9456 344.345 42.9456Z" fill="black"/>
<defs>
<filter id="filter0_d_167_62" x="220" y="324" width="160" height="50" filterUnits="userSpaceOnUse" color-interpolation-filters="sRGB">
<feFlood flood-opacity="0" result="BackgroundImageFix"/>
<feColorMatrix in="SourceAlpha" type="matrix" values="0 0 0 0 0 0 0 0 0 0 0 0 0 0 0 0 0 0 127 0" result="hardAlpha"/>
<feOffset dy="4"/>
<feGaussianBlur stdDeviation="2"/>
<feComposite in2="hardAlpha" operator="out"/>
<feColorMatrix type="matrix" values="0 0 0 0 0 0 0 0 0 0 0 0 0 0 0 0 0 0 0.25 0"/>
<feBlend mode="normal" in2="BackgroundImageFix" result="effect1_dropShadow_167_62"/>
<feBlend mode="normal" in="SourceGraphic" in2="effect1_dropShadow_167_62" result="shape"/>
</filter>
<linearGradient id="paint0_linear_167_62" x1="300" y1="0" x2="300" y2="400" gradientUnits="userSpaceOnUse">
<stop stop-color="#00356E"/>
<stop offset="1" stop-color="#00356E"/>
</linearGradient>
</defs>
</svg>
