<svg width="600" height="400" viewBox="0 0 600 400" fill="none" xmlns="http://www.w3.org/2000/svg">
<rect width="600" height="400" fill="url(#paint0_linear_167_53)"/>
<rect x="160" y="25" width="280" height="350" rx="5" fill="white"/>
<path d="M160 55H440V370C440 372.761 437.761 375 435 375H165C162.239 375 160 372.761 160 370V55Z" fill="white"/>
<path d="M160 55H440H160ZM441.5 370C441.5 373.59 438.59 376.5 435 376.5H165C161.41 376.5 158.5 373.59 158.5 370H161.5C161.5 371.933 163.067 373.5 165 373.5H435C436.933 373.5 438.5 371.933 438.5 370H441.5ZM165 376.5C161.41 376.5 158.5 373.59 158.5 370V55H161.5V370C161.5 371.933 163.067 373.5 165 373.5V376.5ZM441.5 55V370C441.5 373.59 438.59 376.5 435 376.5V373.5C436.933 373.5 438.5 371.933 438.5 370V55H441.5Z" fill="black"/>
<path d="M242.251 214V203.091H245.937C246.79 203.091 247.489 203.237 248.036 203.528C248.583 203.815 248.988 204.211 249.25 204.716C249.513 205.22 249.645 205.793 249.645 206.436C249.645 207.079 249.513 207.649 249.25 208.146C248.988 208.643 248.585 209.034 248.041 209.318C247.498 209.598 246.804 209.739 245.959 209.739H242.976V208.545H245.916C246.498 208.545 246.967 208.46 247.322 208.29C247.681 208.119 247.94 207.878 248.1 207.565C248.263 207.249 248.345 206.873 248.345 206.436C248.345 205.999 248.263 205.618 248.1 205.291C247.937 204.964 247.676 204.712 247.317 204.534C246.958 204.353 246.484 204.263 245.895 204.263H243.572V214H242.251ZM247.386 209.099L250.071 214H248.537L245.895 209.099H247.386ZM255.018 214.17C254.23 214.17 253.55 213.996 252.978 213.648C252.41 213.297 251.971 212.807 251.662 212.178C251.357 211.546 251.204 210.811 251.204 209.973C251.204 209.135 251.357 208.396 251.662 207.757C251.971 207.114 252.401 206.614 252.951 206.255C253.505 205.893 254.152 205.712 254.89 205.712C255.316 205.712 255.737 205.783 256.153 205.925C256.568 206.067 256.946 206.298 257.287 206.617C257.628 206.933 257.9 207.352 258.102 207.874C258.305 208.396 258.406 209.039 258.406 209.803V210.335H252.099V209.249H257.127C257.127 208.787 257.035 208.375 256.85 208.013C256.669 207.651 256.41 207.365 256.073 207.155C255.739 206.946 255.345 206.841 254.89 206.841C254.389 206.841 253.956 206.965 253.59 207.214C253.228 207.459 252.949 207.778 252.754 208.173C252.559 208.567 252.461 208.989 252.461 209.44V210.165C252.461 210.783 252.568 211.306 252.781 211.736C252.997 212.162 253.297 212.487 253.681 212.711C254.064 212.931 254.51 213.041 255.018 213.041C255.348 213.041 255.647 212.995 255.913 212.903C256.183 212.807 256.415 212.665 256.611 212.477C256.806 212.285 256.957 212.047 257.063 211.763L258.278 212.104C258.15 212.516 257.935 212.878 257.633 213.19C257.332 213.499 256.959 213.741 256.515 213.915C256.071 214.085 255.572 214.17 255.018 214.17ZM263.642 214.17C262.875 214.17 262.214 213.989 261.66 213.627C261.106 213.265 260.68 212.766 260.382 212.13C260.084 211.495 259.935 210.768 259.935 209.952C259.935 209.121 260.087 208.387 260.393 207.752C260.702 207.113 261.131 206.614 261.682 206.255C262.236 205.893 262.882 205.712 263.621 205.712C264.196 205.712 264.714 205.818 265.176 206.031C265.638 206.244 266.016 206.543 266.311 206.926C266.605 207.31 266.788 207.757 266.859 208.268H265.602C265.506 207.896 265.293 207.565 264.963 207.278C264.636 206.987 264.196 206.841 263.642 206.841C263.152 206.841 262.722 206.969 262.353 207.224C261.987 207.477 261.701 207.833 261.495 208.295C261.293 208.753 261.192 209.291 261.192 209.909C261.192 210.541 261.291 211.092 261.49 211.56C261.692 212.029 261.976 212.393 262.342 212.652C262.712 212.912 263.145 213.041 263.642 213.041C263.969 213.041 264.265 212.984 264.531 212.871C264.798 212.757 265.023 212.594 265.208 212.381C265.393 212.168 265.524 211.912 265.602 211.614H266.859C266.788 212.097 266.612 212.532 266.332 212.919C266.055 213.302 265.687 213.608 265.229 213.835C264.775 214.059 264.246 214.17 263.642 214.17ZM272.127 214.17C271.339 214.17 270.659 213.996 270.087 213.648C269.519 213.297 269.08 212.807 268.772 212.178C268.466 211.546 268.313 210.811 268.313 209.973C268.313 209.135 268.466 208.396 268.772 207.757C269.08 207.114 269.51 206.614 270.061 206.255C270.615 205.893 271.261 205.712 272 205.712C272.426 205.712 272.846 205.783 273.262 205.925C273.677 206.067 274.056 206.298 274.397 206.617C274.737 206.933 275.009 207.352 275.212 207.874C275.414 208.396 275.515 209.039 275.515 209.803V210.335H269.208V209.249H274.237C274.237 208.787 274.144 208.375 273.96 208.013C273.779 207.651 273.519 207.365 273.182 207.155C272.848 206.946 272.454 206.841 272 206.841C271.499 206.841 271.066 206.965 270.7 207.214C270.338 207.459 270.059 207.778 269.864 208.173C269.668 208.567 269.571 208.989 269.571 209.44V210.165C269.571 210.783 269.677 211.306 269.89 211.736C270.107 212.162 270.407 212.487 270.79 212.711C271.174 212.931 271.62 213.041 272.127 213.041C272.458 213.041 272.756 212.995 273.022 212.903C273.292 212.807 273.525 212.665 273.72 212.477C273.915 212.285 274.066 212.047 274.173 211.763L275.387 212.104C275.259 212.516 275.045 212.878 274.743 213.19C274.441 213.499 274.068 213.741 273.624 213.915C273.18 214.085 272.681 214.17 272.127 214.17ZM277.427 214V205.818H278.685V214H277.427ZM278.067 204.455C277.822 204.455 277.61 204.371 277.433 204.204C277.259 204.037 277.172 203.837 277.172 203.602C277.172 203.368 277.259 203.167 277.433 203C277.61 202.833 277.822 202.75 278.067 202.75C278.312 202.75 278.521 202.833 278.695 203C278.873 203.167 278.962 203.368 278.962 203.602C278.962 203.837 278.873 204.037 278.695 204.204C278.521 204.371 278.312 204.455 278.067 204.455ZM284.545 205.818V206.884H280.305V205.818H284.545ZM281.541 203.858H282.798V211.656C282.798 212.011 282.85 212.278 282.953 212.455C283.059 212.629 283.194 212.746 283.357 212.807C283.524 212.864 283.7 212.892 283.885 212.892C284.023 212.892 284.137 212.885 284.226 212.871C284.314 212.853 284.385 212.839 284.439 212.828L284.694 213.957C284.609 213.989 284.49 214.021 284.337 214.053C284.185 214.089 283.991 214.107 283.757 214.107C283.402 214.107 283.054 214.03 282.713 213.877C282.375 213.725 282.095 213.492 281.871 213.18C281.651 212.867 281.541 212.473 281.541 211.997V203.858ZM288.844 214.192C288.325 214.192 287.855 214.094 287.432 213.899C287.01 213.7 286.674 213.414 286.426 213.041C286.177 212.665 286.053 212.21 286.053 211.678C286.053 211.209 286.145 210.829 286.33 210.538C286.514 210.243 286.761 210.012 287.07 209.845C287.379 209.678 287.72 209.554 288.093 209.472C288.469 209.387 288.847 209.32 289.227 209.27C289.725 209.206 290.128 209.158 290.437 209.126C290.749 209.091 290.976 209.032 291.118 208.95C291.264 208.869 291.337 208.727 291.337 208.524V208.482C291.337 207.956 291.193 207.548 290.905 207.256C290.621 206.965 290.19 206.82 289.611 206.82C289.011 206.82 288.54 206.951 288.199 207.214C287.858 207.477 287.619 207.757 287.48 208.055L286.287 207.629C286.5 207.132 286.784 206.745 287.139 206.468C287.498 206.187 287.889 205.992 288.311 205.882C288.737 205.768 289.156 205.712 289.568 205.712C289.831 205.712 290.133 205.744 290.474 205.808C290.818 205.868 291.15 205.994 291.47 206.186C291.793 206.377 292.061 206.667 292.274 207.054C292.487 207.441 292.594 207.96 292.594 208.609V214H291.337V212.892H291.273C291.188 213.07 291.046 213.26 290.847 213.462C290.648 213.664 290.383 213.837 290.053 213.979C289.723 214.121 289.32 214.192 288.844 214.192ZM289.036 213.062C289.533 213.062 289.952 212.965 290.293 212.77C290.637 212.574 290.896 212.322 291.07 212.013C291.248 211.704 291.337 211.379 291.337 211.038V209.888C291.284 209.952 291.166 210.01 290.985 210.064C290.808 210.113 290.602 210.158 290.367 210.197C290.136 210.232 289.911 210.264 289.691 210.293C289.474 210.317 289.298 210.339 289.163 210.357C288.837 210.399 288.531 210.468 288.247 210.564C287.967 210.657 287.739 210.797 287.565 210.985C287.395 211.17 287.31 211.422 287.31 211.741C287.31 212.178 287.471 212.509 287.795 212.732C288.121 212.952 288.535 213.062 289.036 213.062ZM302.538 214.17C301.749 214.17 301.069 213.996 300.497 213.648C299.929 213.297 299.491 212.807 299.182 212.178C298.876 211.546 298.724 210.811 298.724 209.973C298.724 209.135 298.876 208.396 299.182 207.757C299.491 207.114 299.92 206.614 300.471 206.255C301.025 205.893 301.671 205.712 302.41 205.712C302.836 205.712 303.257 205.783 303.672 205.925C304.088 206.067 304.466 206.298 304.807 206.617C305.148 206.933 305.419 207.352 305.622 207.874C305.824 208.396 305.925 209.039 305.925 209.803V210.335H299.618V209.249H304.647C304.647 208.787 304.555 208.375 304.37 208.013C304.189 207.651 303.93 207.365 303.592 207.155C303.258 206.946 302.864 206.841 302.41 206.841C301.909 206.841 301.476 206.965 301.11 207.214C300.748 207.459 300.469 207.778 300.274 208.173C300.078 208.567 299.981 208.989 299.981 209.44V210.165C299.981 210.783 300.087 211.306 300.3 211.736C300.517 212.162 300.817 212.487 301.201 212.711C301.584 212.931 302.03 213.041 302.538 213.041C302.868 213.041 303.166 212.995 303.432 212.903C303.702 212.807 303.935 212.665 304.13 212.477C304.326 212.285 304.476 212.047 304.583 211.763L305.797 212.104C305.67 212.516 305.455 212.878 305.153 213.19C304.851 213.499 304.478 213.741 304.034 213.915C303.59 214.085 303.091 214.17 302.538 214.17ZM308.555 205.818L310.516 209.163L312.476 205.818H313.925L311.283 209.909L313.925 214H312.476L310.516 210.825L308.555 214H307.106L309.706 209.909L307.106 205.818H308.555ZM315.718 217.068V205.818H316.933V207.118H317.082C317.174 206.976 317.302 206.795 317.466 206.575C317.633 206.351 317.87 206.152 318.179 205.978C318.492 205.8 318.914 205.712 319.447 205.712C320.136 205.712 320.743 205.884 321.269 206.228C321.794 206.573 322.205 207.061 322.499 207.693C322.794 208.325 322.941 209.071 322.941 209.93C322.941 210.797 322.794 211.548 322.499 212.184C322.205 212.816 321.796 213.306 321.274 213.654C320.752 213.998 320.15 214.17 319.468 214.17C318.943 214.17 318.522 214.083 318.206 213.909C317.89 213.732 317.647 213.531 317.476 213.308C317.306 213.08 317.174 212.892 317.082 212.743H316.976V217.068H315.718ZM316.954 209.909C316.954 210.527 317.045 211.072 317.226 211.544C317.407 212.013 317.672 212.381 318.02 212.647C318.368 212.91 318.794 213.041 319.298 213.041C319.824 213.041 320.262 212.903 320.614 212.626C320.969 212.345 321.235 211.969 321.413 211.496C321.594 211.021 321.684 210.491 321.684 209.909C321.684 209.334 321.596 208.815 321.418 208.354C321.244 207.888 320.979 207.521 320.624 207.251C320.273 206.978 319.831 206.841 319.298 206.841C318.787 206.841 318.357 206.971 318.009 207.23C317.661 207.485 317.398 207.844 317.221 208.306C317.043 208.764 316.954 209.298 316.954 209.909ZM324.859 214V205.818H326.116V214H324.859ZM325.498 204.455C325.253 204.455 325.042 204.371 324.864 204.204C324.69 204.037 324.603 203.837 324.603 203.602C324.603 203.368 324.69 203.167 324.864 203C325.042 202.833 325.253 202.75 325.498 202.75C325.743 202.75 325.953 202.833 326.127 203C326.304 203.167 326.393 203.368 326.393 203.602C326.393 203.837 326.304 204.037 326.127 204.204C325.953 204.371 325.743 204.455 325.498 204.455ZM328.419 214V205.818H329.633V207.054H329.718C329.867 206.649 330.137 206.321 330.528 206.069C330.919 205.816 331.359 205.69 331.849 205.69C331.941 205.69 332.057 205.692 332.195 205.696C332.334 205.699 332.439 205.705 332.51 205.712V206.99C332.467 206.979 332.369 206.963 332.217 206.942C332.067 206.917 331.909 206.905 331.742 206.905C331.345 206.905 330.99 206.988 330.677 207.155C330.368 207.319 330.123 207.546 329.942 207.837C329.765 208.125 329.676 208.453 329.676 208.822V214H328.419ZM336.407 214.192C335.889 214.192 335.418 214.094 334.996 213.899C334.573 213.7 334.238 213.414 333.989 213.041C333.74 212.665 333.616 212.21 333.616 211.678C333.616 211.209 333.708 210.829 333.893 210.538C334.078 210.243 334.325 210.012 334.634 209.845C334.943 209.678 335.283 209.554 335.656 209.472C336.033 209.387 336.411 209.32 336.791 209.27C337.288 209.206 337.691 209.158 338 209.126C338.313 209.091 338.54 209.032 338.682 208.95C338.827 208.869 338.9 208.727 338.9 208.524V208.482C338.9 207.956 338.756 207.548 338.469 207.256C338.185 206.965 337.753 206.82 337.174 206.82C336.574 206.82 336.104 206.951 335.763 207.214C335.422 207.477 335.182 207.757 335.044 208.055L333.851 207.629C334.064 207.132 334.348 206.745 334.703 206.468C335.061 206.187 335.452 205.992 335.875 205.882C336.301 205.768 336.72 205.712 337.132 205.712C337.395 205.712 337.696 205.744 338.037 205.808C338.382 205.868 338.714 205.994 339.033 206.186C339.357 206.377 339.625 206.667 339.838 207.054C340.051 207.441 340.157 207.96 340.157 208.609V214H338.9V212.892H338.836C338.751 213.07 338.609 213.26 338.41 213.462C338.211 213.664 337.947 213.837 337.617 213.979C337.286 214.121 336.883 214.192 336.407 214.192ZM336.599 213.062C337.096 213.062 337.515 212.965 337.856 212.77C338.201 212.574 338.46 212.322 338.634 212.013C338.811 211.704 338.9 211.379 338.9 211.038V209.888C338.847 209.952 338.73 210.01 338.549 210.064C338.371 210.113 338.165 210.158 337.931 210.197C337.7 210.232 337.474 210.264 337.254 210.293C337.038 210.317 336.862 210.339 336.727 210.357C336.4 210.399 336.095 210.468 335.811 210.564C335.53 210.657 335.303 210.797 335.129 210.985C334.958 211.17 334.873 211.422 334.873 211.741C334.873 212.178 335.035 212.509 335.358 212.732C335.685 212.952 336.098 213.062 336.599 213.062ZM345.541 214.17C344.86 214.17 344.258 213.998 343.736 213.654C343.214 213.306 342.805 212.816 342.51 212.184C342.216 211.548 342.068 210.797 342.068 209.93C342.068 209.071 342.216 208.325 342.51 207.693C342.805 207.061 343.215 206.573 343.741 206.228C344.266 205.884 344.874 205.712 345.563 205.712C346.095 205.712 346.516 205.8 346.825 205.978C347.138 206.152 347.375 206.351 347.539 206.575C347.706 206.795 347.835 206.976 347.928 207.118H348.034V203.091H349.291V214H348.077V212.743H347.928C347.835 212.892 347.704 213.08 347.534 213.308C347.363 213.531 347.12 213.732 346.804 213.909C346.488 214.083 346.067 214.17 345.541 214.17ZM345.712 213.041C346.216 213.041 346.642 212.91 346.99 212.647C347.338 212.381 347.603 212.013 347.784 211.544C347.965 211.072 348.056 210.527 348.056 209.909C348.056 209.298 347.967 208.764 347.789 208.306C347.612 207.844 347.349 207.485 347.001 207.23C346.653 206.971 346.223 206.841 345.712 206.841C345.179 206.841 344.735 206.978 344.38 207.251C344.029 207.521 343.764 207.888 343.586 208.354C343.412 208.815 343.325 209.334 343.325 209.909C343.325 210.491 343.414 211.021 343.592 211.496C343.773 211.969 344.039 212.345 344.391 212.626C344.746 212.903 345.186 213.041 345.712 213.041ZM354.176 214.192C353.657 214.192 353.187 214.094 352.764 213.899C352.342 213.7 352.006 213.414 351.758 213.041C351.509 212.665 351.385 212.21 351.385 211.678C351.385 211.209 351.477 210.829 351.662 210.538C351.846 210.243 352.093 210.012 352.402 209.845C352.711 209.678 353.052 209.554 353.425 209.472C353.801 209.387 354.179 209.32 354.559 209.27C355.057 209.206 355.46 209.158 355.769 209.126C356.081 209.091 356.308 209.032 356.45 208.95C356.596 208.869 356.669 208.727 356.669 208.524V208.482C356.669 207.956 356.525 207.548 356.237 207.256C355.953 206.965 355.522 206.82 354.943 206.82C354.343 206.82 353.872 206.951 353.531 207.214C353.19 207.477 352.951 207.757 352.812 208.055L351.619 207.629C351.832 207.132 352.116 206.745 352.471 206.468C352.83 206.187 353.221 205.992 353.643 205.882C354.069 205.768 354.488 205.712 354.9 205.712C355.163 205.712 355.465 205.744 355.806 205.808C356.15 205.868 356.482 205.994 356.802 206.186C357.125 206.377 357.393 206.667 357.606 207.054C357.819 207.441 357.926 207.96 357.926 208.609V214H356.669V212.892H356.605C356.52 213.07 356.378 213.26 356.179 213.462C355.98 213.664 355.715 213.837 355.385 213.979C355.055 214.121 354.652 214.192 354.176 214.192ZM354.368 213.062C354.865 213.062 355.284 212.965 355.625 212.77C355.969 212.574 356.228 212.322 356.402 212.013C356.58 211.704 356.669 211.379 356.669 211.038V209.888C356.616 209.952 356.498 210.01 356.317 210.064C356.14 210.113 355.934 210.158 355.699 210.197C355.469 210.232 355.243 210.264 355.023 210.293C354.806 210.317 354.63 210.339 354.496 210.357C354.169 210.399 353.863 210.468 353.579 210.564C353.299 210.657 353.072 210.797 352.898 210.985C352.727 211.17 352.642 211.422 352.642 211.741C352.642 212.178 352.803 212.509 353.127 212.732C353.453 212.952 353.867 213.062 354.368 213.062Z" fill="black"/>
<path d="M243.219 196V185.091H247.523C248.347 185.091 249.05 185.238 249.632 185.533C250.218 185.824 250.664 186.238 250.969 186.774C251.278 187.307 251.432 187.934 251.432 188.654C251.432 189.379 251.276 190.002 250.964 190.524C250.651 191.043 250.198 191.44 249.605 191.717C249.016 191.994 248.302 192.133 247.464 192.133H244.582V190.279H247.091C247.532 190.279 247.897 190.219 248.188 190.098C248.48 189.977 248.696 189.796 248.838 189.555C248.984 189.313 249.057 189.013 249.057 188.654C249.057 188.292 248.984 187.987 248.838 187.738C248.696 187.49 248.478 187.301 248.183 187.174C247.892 187.042 247.524 186.977 247.081 186.977H245.525V196H243.219ZM249.11 191.036L251.821 196H249.275L246.622 191.036H249.11ZM256.617 196.16C255.775 196.16 255.051 195.989 254.443 195.648C253.84 195.304 253.374 194.817 253.048 194.189C252.721 193.557 252.558 192.809 252.558 191.946C252.558 191.105 252.721 190.366 253.048 189.73C253.374 189.095 253.834 188.599 254.427 188.244C255.024 187.889 255.724 187.712 256.526 187.712C257.066 187.712 257.568 187.799 258.034 187.973C258.502 188.143 258.911 188.401 259.259 188.745C259.61 189.089 259.884 189.523 260.079 190.045C260.274 190.563 260.372 191.17 260.372 191.866V192.49H253.463V191.083H258.236C258.236 190.757 258.165 190.467 258.023 190.215C257.881 189.963 257.684 189.766 257.432 189.624C257.183 189.478 256.894 189.406 256.563 189.406C256.219 189.406 255.914 189.485 255.647 189.645C255.384 189.801 255.178 190.013 255.029 190.279C254.88 190.542 254.804 190.835 254.8 191.158V192.495C254.8 192.9 254.875 193.25 255.024 193.544C255.177 193.839 255.392 194.066 255.669 194.226C255.945 194.386 256.274 194.466 256.654 194.466C256.906 194.466 257.137 194.43 257.346 194.359C257.556 194.288 257.735 194.182 257.884 194.04C258.034 193.898 258.147 193.724 258.225 193.518L260.324 193.656C260.218 194.161 259.999 194.601 259.669 194.977C259.342 195.35 258.92 195.641 258.401 195.851C257.886 196.057 257.291 196.16 256.617 196.16ZM265.55 196.16C264.711 196.16 263.991 195.982 263.387 195.627C262.787 195.268 262.325 194.771 262.002 194.136C261.682 193.5 261.523 192.768 261.523 191.941C261.523 191.103 261.684 190.368 262.007 189.736C262.334 189.1 262.797 188.605 263.398 188.25C263.998 187.891 264.711 187.712 265.539 187.712C266.253 187.712 266.878 187.841 267.414 188.1C267.95 188.36 268.374 188.724 268.687 189.192C268.999 189.661 269.172 190.212 269.204 190.844H267.062C267.002 190.435 266.842 190.107 266.583 189.858C266.327 189.606 265.992 189.48 265.576 189.48C265.225 189.48 264.917 189.576 264.655 189.768C264.395 189.956 264.193 190.231 264.047 190.593C263.902 190.956 263.829 191.394 263.829 191.909C263.829 192.431 263.9 192.875 264.042 193.241C264.188 193.607 264.392 193.885 264.655 194.077C264.917 194.269 265.225 194.365 265.576 194.365C265.835 194.365 266.068 194.311 266.274 194.205C266.483 194.098 266.656 193.944 266.791 193.741C266.929 193.536 267.02 193.289 267.062 193.001H269.204C269.168 193.626 268.998 194.176 268.692 194.652C268.39 195.125 267.973 195.494 267.441 195.76C266.908 196.027 266.278 196.16 265.55 196.16ZM274.385 196.16C273.544 196.16 272.819 195.989 272.212 195.648C271.608 195.304 271.143 194.817 270.816 194.189C270.49 193.557 270.326 192.809 270.326 191.946C270.326 191.105 270.49 190.366 270.816 189.73C271.143 189.095 271.603 188.599 272.196 188.244C272.793 187.889 273.492 187.712 274.295 187.712C274.834 187.712 275.337 187.799 275.802 187.973C276.271 188.143 276.679 188.401 277.027 188.745C277.379 189.089 277.652 189.523 277.848 190.045C278.043 190.563 278.141 191.17 278.141 191.866V192.49H271.232V191.083H276.005C276.005 190.757 275.934 190.467 275.791 190.215C275.649 189.963 275.452 189.766 275.2 189.624C274.952 189.478 274.662 189.406 274.332 189.406C273.987 189.406 273.682 189.485 273.416 189.645C273.153 189.801 272.947 190.013 272.798 190.279C272.649 190.542 272.572 190.835 272.569 191.158V192.495C272.569 192.9 272.643 193.25 272.793 193.544C272.945 193.839 273.16 194.066 273.437 194.226C273.714 194.386 274.043 194.466 274.422 194.466C274.675 194.466 274.905 194.43 275.115 194.359C275.324 194.288 275.504 194.182 275.653 194.04C275.802 193.898 275.916 193.724 275.994 193.518L278.093 193.656C277.986 194.161 277.768 194.601 277.437 194.977C277.111 195.35 276.688 195.641 276.17 195.851C275.655 196.057 275.06 196.16 274.385 196.16ZM279.621 196V187.818H281.891V196H279.621ZM280.761 186.763C280.424 186.763 280.134 186.652 279.893 186.428C279.655 186.201 279.536 185.929 279.536 185.613C279.536 185.3 279.655 185.032 279.893 184.809C280.134 184.581 280.424 184.468 280.761 184.468C281.099 184.468 281.386 184.581 281.624 184.809C281.866 185.032 281.986 185.3 281.986 185.613C281.986 185.929 281.866 186.201 281.624 186.428C281.386 186.652 281.099 186.763 280.761 186.763ZM288.06 187.818V189.523H283.133V187.818H288.06ZM284.252 185.858H286.521V193.486C286.521 193.695 286.553 193.859 286.617 193.976C286.681 194.089 286.769 194.169 286.883 194.216C287 194.262 287.135 194.285 287.288 194.285C287.394 194.285 287.501 194.276 287.607 194.258C287.714 194.237 287.796 194.221 287.852 194.21L288.209 195.899C288.096 195.934 287.936 195.975 287.73 196.021C287.524 196.071 287.274 196.101 286.979 196.112C286.432 196.133 285.953 196.06 285.541 195.893C285.132 195.727 284.814 195.467 284.587 195.116C284.36 194.764 284.248 194.32 284.252 193.784V185.858ZM291.871 196.154C291.349 196.154 290.884 196.064 290.476 195.883C290.067 195.698 289.744 195.426 289.506 195.068C289.272 194.706 289.155 194.255 289.155 193.715C289.155 193.26 289.238 192.879 289.405 192.57C289.572 192.261 289.799 192.012 290.087 191.824C290.375 191.636 290.701 191.494 291.067 191.398C291.436 191.302 291.824 191.234 292.228 191.195C292.704 191.146 293.088 191.099 293.379 191.057C293.67 191.011 293.881 190.943 294.013 190.854C294.144 190.766 294.21 190.634 294.21 190.46V190.428C294.21 190.091 294.103 189.83 293.89 189.645C293.681 189.461 293.382 189.368 292.995 189.368C292.587 189.368 292.262 189.459 292.021 189.64C291.779 189.817 291.619 190.041 291.541 190.311L289.442 190.141C289.549 189.643 289.759 189.214 290.071 188.852C290.384 188.486 290.787 188.205 291.28 188.01C291.777 187.811 292.353 187.712 293.006 187.712C293.461 187.712 293.896 187.765 294.311 187.871C294.73 187.978 295.101 188.143 295.424 188.367C295.751 188.591 296.009 188.878 296.197 189.23C296.385 189.578 296.479 189.995 296.479 190.482V196H294.327V194.865H294.263C294.132 195.121 293.956 195.347 293.736 195.542C293.516 195.734 293.251 195.885 292.942 195.995C292.633 196.101 292.276 196.154 291.871 196.154ZM292.521 194.588C292.855 194.588 293.15 194.523 293.406 194.391C293.661 194.256 293.862 194.075 294.007 193.848C294.153 193.621 294.226 193.363 294.226 193.076V192.207C294.155 192.254 294.057 192.296 293.933 192.335C293.812 192.371 293.675 192.404 293.523 192.436C293.37 192.465 293.217 192.491 293.065 192.516C292.912 192.538 292.773 192.557 292.649 192.575C292.383 192.614 292.15 192.676 291.951 192.761C291.752 192.847 291.598 192.962 291.488 193.108C291.378 193.25 291.323 193.427 291.323 193.64C291.323 193.949 291.435 194.185 291.658 194.349C291.886 194.509 292.173 194.588 292.521 194.588ZM304.06 185.091V196H301.754V185.091H304.06ZM308.184 191.27V196H305.915V187.818H308.078V189.262H308.174C308.355 188.786 308.659 188.409 309.085 188.132C309.511 187.852 310.028 187.712 310.635 187.712C311.203 187.712 311.698 187.836 312.121 188.085C312.544 188.333 312.872 188.688 313.106 189.15C313.341 189.608 313.458 190.155 313.458 190.79V196H311.189V191.195C311.192 190.695 311.064 190.304 310.805 190.023C310.546 189.739 310.189 189.597 309.735 189.597C309.429 189.597 309.159 189.663 308.925 189.794C308.694 189.926 308.513 190.118 308.382 190.37C308.254 190.618 308.188 190.918 308.184 191.27ZM322.581 187.818L319.721 196H317.164L314.304 187.818H316.701L318.4 193.672H318.485L320.179 187.818H322.581ZM325.856 196.154C325.334 196.154 324.869 196.064 324.46 195.883C324.052 195.698 323.729 195.426 323.491 195.068C323.256 194.706 323.139 194.255 323.139 193.715C323.139 193.26 323.223 192.879 323.39 192.57C323.556 192.261 323.784 192.012 324.071 191.824C324.359 191.636 324.686 191.494 325.051 191.398C325.421 191.302 325.808 191.234 326.213 191.195C326.689 191.146 327.072 191.099 327.363 191.057C327.654 191.011 327.866 190.943 327.997 190.854C328.129 190.766 328.194 190.634 328.194 190.46V190.428C328.194 190.091 328.088 189.83 327.875 189.645C327.665 189.461 327.367 189.368 326.98 189.368C326.571 189.368 326.246 189.459 326.005 189.64C325.763 189.817 325.604 190.041 325.526 190.311L323.427 190.141C323.533 189.643 323.743 189.214 324.055 188.852C324.368 188.486 324.771 188.205 325.265 188.01C325.762 187.811 326.337 187.712 326.99 187.712C327.445 187.712 327.88 187.765 328.295 187.871C328.714 187.978 329.086 188.143 329.409 188.367C329.735 188.591 329.993 188.878 330.181 189.23C330.369 189.578 330.463 189.995 330.463 190.482V196H328.311V194.865H328.248C328.116 195.121 327.94 195.347 327.72 195.542C327.5 195.734 327.235 195.885 326.926 195.995C326.618 196.101 326.261 196.154 325.856 196.154ZM326.506 194.588C326.839 194.588 327.134 194.523 327.39 194.391C327.646 194.256 327.846 194.075 327.992 193.848C328.137 193.621 328.21 193.363 328.21 193.076V192.207C328.139 192.254 328.042 192.296 327.917 192.335C327.797 192.371 327.66 192.404 327.507 192.436C327.354 192.465 327.202 192.491 327.049 192.516C326.896 192.538 326.758 192.557 326.634 192.575C326.367 192.614 326.135 192.676 325.936 192.761C325.737 192.847 325.582 192.962 325.472 193.108C325.362 193.25 325.307 193.427 325.307 193.64C325.307 193.949 325.419 194.185 325.643 194.349C325.87 194.509 326.158 194.588 326.506 194.588ZM326.261 186.763L327.39 184.34H329.489L327.864 186.763H326.261ZM334.493 185.091V196H332.224V185.091H334.493ZM336.311 196V187.818H338.58V196H336.311ZM337.451 186.763C337.113 186.763 336.824 186.652 336.582 186.428C336.345 186.201 336.226 185.929 336.226 185.613C336.226 185.3 336.345 185.032 336.582 184.809C336.824 184.581 337.113 184.468 337.451 184.468C337.788 184.468 338.076 184.581 338.314 184.809C338.555 185.032 338.676 185.3 338.676 185.613C338.676 185.929 338.555 186.201 338.314 186.428C338.076 186.652 337.788 186.763 337.451 186.763ZM343.413 196.133C342.791 196.133 342.228 195.973 341.724 195.654C341.223 195.331 340.826 194.857 340.531 194.232C340.24 193.603 340.094 192.832 340.094 191.92C340.094 190.982 340.245 190.203 340.547 189.581C340.849 188.956 341.25 188.489 341.751 188.18C342.255 187.868 342.807 187.712 343.407 187.712C343.865 187.712 344.247 187.79 344.553 187.946C344.862 188.099 345.11 188.29 345.298 188.521C345.49 188.749 345.636 188.972 345.735 189.192H345.804V185.091H348.068V196H345.831V194.69H345.735C345.629 194.917 345.478 195.142 345.282 195.366C345.091 195.586 344.84 195.769 344.531 195.915C344.226 196.06 343.853 196.133 343.413 196.133ZM344.132 194.327C344.498 194.327 344.806 194.228 345.059 194.029C345.314 193.827 345.51 193.544 345.645 193.182C345.783 192.82 345.852 192.396 345.852 191.909C345.852 191.423 345.785 191 345.65 190.641C345.515 190.283 345.32 190.006 345.064 189.81C344.808 189.615 344.498 189.517 344.132 189.517C343.759 189.517 343.445 189.619 343.189 189.821C342.933 190.023 342.74 190.304 342.608 190.663C342.477 191.021 342.411 191.437 342.411 191.909C342.411 192.385 342.477 192.806 342.608 193.172C342.743 193.534 342.937 193.818 343.189 194.024C343.445 194.226 343.759 194.327 344.132 194.327ZM352.267 196.154C351.745 196.154 351.28 196.064 350.871 195.883C350.463 195.698 350.14 195.426 349.902 195.068C349.668 194.706 349.55 194.255 349.55 193.715C349.55 193.26 349.634 192.879 349.801 192.57C349.968 192.261 350.195 192.012 350.483 191.824C350.77 191.636 351.097 191.494 351.463 191.398C351.832 191.302 352.219 191.234 352.624 191.195C353.1 191.146 353.483 191.099 353.774 191.057C354.066 191.011 354.277 190.943 354.408 190.854C354.54 190.766 354.605 190.634 354.605 190.46V190.428C354.605 190.091 354.499 189.83 354.286 189.645C354.076 189.461 353.778 189.368 353.391 189.368C352.983 189.368 352.658 189.459 352.416 189.64C352.175 189.817 352.015 190.041 351.937 190.311L349.838 190.141C349.945 189.643 350.154 189.214 350.467 188.852C350.779 188.486 351.182 188.205 351.676 188.01C352.173 187.811 352.748 187.712 353.402 187.712C353.856 187.712 354.291 187.765 354.707 187.871C355.126 187.978 355.497 188.143 355.82 188.367C356.147 188.591 356.404 188.878 356.592 189.23C356.78 189.578 356.875 189.995 356.875 190.482V196H354.723V194.865H354.659C354.527 195.121 354.351 195.347 354.131 195.542C353.911 195.734 353.647 195.885 353.338 195.995C353.029 196.101 352.672 196.154 352.267 196.154ZM352.917 194.588C353.251 194.588 353.545 194.523 353.801 194.391C354.057 194.256 354.257 194.075 354.403 193.848C354.549 193.621 354.621 193.363 354.621 193.076V192.207C354.55 192.254 354.453 192.296 354.328 192.335C354.208 192.371 354.071 192.404 353.918 192.436C353.766 192.465 353.613 192.491 353.46 192.516C353.307 192.538 353.169 192.557 353.045 192.575C352.778 192.614 352.546 192.676 352.347 192.761C352.148 192.847 351.994 192.962 351.883 193.108C351.773 193.25 351.718 193.427 351.718 193.64C351.718 193.949 351.83 194.185 352.054 194.349C352.281 194.509 352.569 194.588 352.917 194.588Z" fill="black"/>
<g filter="url(#filter0_d_167_53)">
<rect x="240" y="333" width="120" height="30" rx="10" fill="white"/>
<rect x="239.5" y="332.5" width="121" height="31" rx="10.5" stroke="black"/>
</g>
<path d="M253.73 353V342.091H257.619C258.464 342.091 259.165 342.237 259.723 342.528C260.284 342.819 260.703 343.222 260.98 343.737C261.257 344.248 261.395 344.839 261.395 345.511C261.395 346.178 261.255 346.766 260.975 347.274C260.698 347.778 260.279 348.17 259.717 348.451C259.16 348.732 258.459 348.872 257.613 348.872H254.668V347.455H257.464C257.997 347.455 258.43 347.379 258.764 347.226C259.101 347.073 259.348 346.851 259.504 346.56C259.661 346.269 259.739 345.919 259.739 345.511C259.739 345.099 259.659 344.742 259.499 344.44C259.343 344.138 259.096 343.907 258.759 343.748C258.425 343.584 257.986 343.502 257.443 343.502H255.376V353H253.73ZM259.116 348.078L261.811 353H259.936L257.294 348.078H259.116ZM266.694 353.165C265.888 353.165 265.194 352.993 264.611 352.648C264.033 352.3 263.585 351.812 263.269 351.184C262.957 350.551 262.8 349.811 262.8 348.962C262.8 348.124 262.957 347.386 263.269 346.746C263.585 346.107 264.025 345.608 264.59 345.25C265.158 344.891 265.822 344.712 266.582 344.712C267.044 344.712 267.491 344.788 267.925 344.941C268.358 345.093 268.747 345.333 269.091 345.66C269.436 345.987 269.707 346.411 269.906 346.933C270.105 347.451 270.204 348.082 270.204 348.824V349.388H263.701V348.195H268.644C268.644 347.776 268.558 347.405 268.388 347.082C268.218 346.755 267.978 346.498 267.669 346.31C267.364 346.121 267.005 346.027 266.593 346.027C266.145 346.027 265.755 346.137 265.421 346.358C265.091 346.574 264.835 346.858 264.654 347.21C264.476 347.558 264.388 347.936 264.388 348.344V349.277C264.388 349.824 264.484 350.289 264.675 350.672C264.871 351.056 265.142 351.349 265.49 351.551C265.838 351.75 266.245 351.849 266.71 351.849C267.012 351.849 267.287 351.807 267.536 351.722C267.784 351.633 267.999 351.501 268.18 351.327C268.361 351.153 268.5 350.939 268.596 350.683L270.103 350.955C269.982 351.398 269.766 351.787 269.453 352.121C269.144 352.451 268.756 352.709 268.287 352.893C267.822 353.075 267.291 353.165 266.694 353.165ZM275.402 356.239C274.752 356.239 274.193 356.153 273.724 355.983C273.259 355.813 272.879 355.587 272.584 355.306C272.289 355.026 272.069 354.719 271.924 354.385L273.293 353.82C273.388 353.977 273.516 354.142 273.676 354.316C273.839 354.493 274.06 354.644 274.337 354.768C274.617 354.893 274.978 354.955 275.418 354.955C276.022 354.955 276.521 354.808 276.915 354.513C277.309 354.222 277.506 353.756 277.506 353.117V351.509H277.405C277.309 351.683 277.17 351.876 276.989 352.089C276.812 352.302 276.567 352.487 276.254 352.643C275.942 352.799 275.535 352.877 275.034 352.877C274.388 352.877 273.806 352.727 273.287 352.425C272.772 352.119 272.364 351.67 272.062 351.077C271.764 350.48 271.615 349.747 271.615 348.877C271.615 348.007 271.762 347.261 272.057 346.64C272.355 346.018 272.763 345.543 273.282 345.212C273.8 344.879 274.388 344.712 275.045 344.712C275.553 344.712 275.963 344.797 276.276 344.967C276.588 345.134 276.831 345.33 277.005 345.553C277.183 345.777 277.32 345.974 277.415 346.145H277.533V344.818H279.093V353.181C279.093 353.884 278.93 354.461 278.603 354.912C278.277 355.363 277.834 355.697 277.277 355.914C276.723 356.13 276.098 356.239 275.402 356.239ZM275.386 351.556C275.844 351.556 276.231 351.45 276.547 351.237C276.867 351.02 277.108 350.711 277.272 350.31C277.439 349.905 277.522 349.42 277.522 348.856C277.522 348.305 277.44 347.821 277.277 347.402C277.114 346.983 276.874 346.656 276.558 346.422C276.242 346.184 275.851 346.065 275.386 346.065C274.907 346.065 274.507 346.189 274.187 346.438C273.868 346.683 273.626 347.016 273.463 347.439C273.303 347.862 273.223 348.334 273.223 348.856C273.223 349.392 273.305 349.863 273.468 350.267C273.632 350.672 273.873 350.988 274.193 351.216C274.516 351.443 274.914 351.556 275.386 351.556ZM281.229 353V344.818H282.822V353H281.229ZM282.034 343.556C281.757 343.556 281.519 343.463 281.32 343.279C281.125 343.091 281.027 342.867 281.027 342.608C281.027 342.345 281.125 342.121 281.32 341.936C281.519 341.748 281.757 341.654 282.034 341.654C282.311 341.654 282.547 341.748 282.742 341.936C282.941 342.121 283.04 342.345 283.04 342.608C283.04 342.867 282.941 343.091 282.742 343.279C282.547 343.463 282.311 343.556 282.034 343.556ZM291.096 346.816L289.652 347.071C289.592 346.887 289.496 346.711 289.365 346.544C289.237 346.377 289.063 346.24 288.843 346.134C288.622 346.027 288.347 345.974 288.017 345.974C287.566 345.974 287.189 346.075 286.888 346.278C286.586 346.477 286.435 346.734 286.435 347.05C286.435 347.324 286.536 347.544 286.739 347.711C286.941 347.877 287.268 348.014 287.719 348.121L289.018 348.419C289.771 348.593 290.332 348.861 290.702 349.223C291.071 349.586 291.256 350.056 291.256 350.635C291.256 351.125 291.114 351.562 290.829 351.945C290.549 352.325 290.156 352.624 289.652 352.84C289.152 353.057 288.571 353.165 287.91 353.165C286.994 353.165 286.247 352.97 285.668 352.579C285.089 352.185 284.734 351.626 284.602 350.901L286.142 350.667C286.238 351.068 286.435 351.372 286.733 351.578C287.031 351.78 287.42 351.881 287.9 351.881C288.422 351.881 288.839 351.773 289.152 351.556C289.464 351.336 289.62 351.068 289.62 350.752C289.62 350.496 289.524 350.282 289.333 350.108C289.144 349.934 288.855 349.802 288.464 349.713L287.079 349.41C286.316 349.236 285.751 348.959 285.386 348.579C285.023 348.199 284.842 347.718 284.842 347.135C284.842 346.652 284.977 346.23 285.247 345.868C285.517 345.505 285.89 345.223 286.366 345.021C286.841 344.815 287.387 344.712 288.001 344.712C288.885 344.712 289.581 344.903 290.089 345.287C290.597 345.667 290.932 346.176 291.096 346.816ZM296.826 344.818V346.097H292.357V344.818H296.826ZM293.555 342.858H295.148V350.598C295.148 350.907 295.194 351.139 295.287 351.295C295.379 351.448 295.498 351.553 295.643 351.61C295.793 351.663 295.954 351.69 296.128 351.69C296.256 351.69 296.368 351.681 296.464 351.663C296.56 351.645 296.634 351.631 296.687 351.62L296.975 352.936C296.883 352.972 296.751 353.007 296.581 353.043C296.41 353.082 296.197 353.103 295.942 353.107C295.523 353.114 295.132 353.039 294.77 352.883C294.408 352.727 294.115 352.485 293.891 352.158C293.667 351.832 293.555 351.422 293.555 350.928V342.858ZM298.588 353V344.818H300.127V346.118H300.212C300.362 345.678 300.624 345.331 301.001 345.079C301.381 344.824 301.81 344.696 302.29 344.696C302.389 344.696 302.506 344.699 302.641 344.706C302.78 344.713 302.888 344.722 302.966 344.733V346.256C302.902 346.239 302.789 346.219 302.625 346.198C302.462 346.173 302.299 346.161 302.135 346.161C301.759 346.161 301.423 346.24 301.129 346.4C300.837 346.556 300.607 346.775 300.436 347.055C300.266 347.332 300.18 347.648 300.18 348.004V353H298.588ZM306.652 353.181C306.134 353.181 305.665 353.085 305.246 352.893C304.827 352.698 304.495 352.416 304.25 352.047C304.009 351.677 303.888 351.224 303.888 350.688C303.888 350.227 303.977 349.847 304.154 349.548C304.332 349.25 304.571 349.014 304.873 348.84C305.175 348.666 305.512 348.534 305.885 348.446C306.258 348.357 306.638 348.289 307.025 348.243C307.515 348.186 307.913 348.14 308.218 348.105C308.524 348.066 308.746 348.004 308.884 347.918C309.023 347.833 309.092 347.695 309.092 347.503V347.466C309.092 347 308.961 346.64 308.698 346.384C308.439 346.129 308.052 346.001 307.537 346.001C307 346.001 306.578 346.12 306.269 346.358C305.963 346.592 305.752 346.853 305.635 347.141L304.138 346.8C304.316 346.303 304.575 345.901 304.916 345.596C305.26 345.287 305.656 345.063 306.104 344.925C306.551 344.783 307.022 344.712 307.515 344.712C307.842 344.712 308.188 344.751 308.554 344.829C308.923 344.903 309.268 345.042 309.587 345.244C309.911 345.447 310.175 345.736 310.381 346.113C310.587 346.485 310.69 346.97 310.69 347.567V353H309.135V351.881H309.071C308.968 352.087 308.813 352.29 308.607 352.489C308.401 352.687 308.137 352.853 307.814 352.984C307.49 353.115 307.103 353.181 306.652 353.181ZM306.999 351.903C307.439 351.903 307.815 351.816 308.128 351.642C308.444 351.468 308.684 351.24 308.847 350.96C309.014 350.676 309.097 350.372 309.097 350.049V348.994C309.041 349.051 308.93 349.104 308.767 349.154C308.607 349.2 308.424 349.241 308.218 349.277C308.012 349.309 307.812 349.339 307.617 349.367C307.421 349.392 307.258 349.413 307.126 349.431C306.818 349.47 306.535 349.536 306.28 349.628C306.027 349.721 305.825 349.854 305.672 350.028C305.523 350.198 305.449 350.425 305.449 350.71C305.449 351.104 305.594 351.402 305.885 351.604C306.177 351.803 306.548 351.903 306.999 351.903ZM312.811 353V344.818H314.351V346.118H314.436C314.585 345.678 314.848 345.331 315.224 345.079C315.604 344.824 316.034 344.696 316.513 344.696C316.613 344.696 316.73 344.699 316.865 344.706C317.004 344.713 317.112 344.722 317.19 344.733V346.256C317.126 346.239 317.012 346.219 316.849 346.198C316.686 346.173 316.522 346.161 316.359 346.161C315.983 346.161 315.647 346.24 315.352 346.4C315.061 346.556 314.83 346.775 314.66 347.055C314.489 347.332 314.404 347.648 314.404 348.004V353H312.811ZM327.721 349.607V344.818H329.319V353H327.753V351.583H327.668C327.479 352.02 327.178 352.384 326.762 352.675C326.35 352.963 325.837 353.107 325.223 353.107C324.697 353.107 324.232 352.991 323.827 352.76C323.426 352.526 323.11 352.18 322.879 351.722C322.652 351.263 322.538 350.697 322.538 350.022V344.818H324.131V349.831C324.131 350.388 324.285 350.832 324.594 351.162C324.903 351.493 325.304 351.658 325.798 351.658C326.096 351.658 326.393 351.583 326.687 351.434C326.986 351.285 327.233 351.059 327.428 350.757C327.627 350.456 327.724 350.072 327.721 349.607ZM337.59 346.816L336.146 347.071C336.086 346.887 335.99 346.711 335.859 346.544C335.731 346.377 335.557 346.24 335.337 346.134C335.117 346.027 334.841 345.974 334.511 345.974C334.06 345.974 333.684 346.075 333.382 346.278C333.08 346.477 332.929 346.734 332.929 347.05C332.929 347.324 333.03 347.544 333.233 347.711C333.435 347.877 333.762 348.014 334.213 348.121L335.512 348.419C336.265 348.593 336.826 348.861 337.196 349.223C337.565 349.586 337.75 350.056 337.75 350.635C337.75 351.125 337.608 351.562 337.324 351.945C337.043 352.325 336.651 352.624 336.146 352.84C335.646 353.057 335.065 353.165 334.405 353.165C333.488 353.165 332.741 352.97 332.162 352.579C331.583 352.185 331.228 351.626 331.097 350.901L332.636 350.667C332.732 351.068 332.929 351.372 333.227 351.578C333.526 351.78 333.914 351.881 334.394 351.881C334.916 351.881 335.333 351.773 335.646 351.556C335.958 351.336 336.114 351.068 336.114 350.752C336.114 350.496 336.019 350.282 335.827 350.108C335.639 349.934 335.349 349.802 334.958 349.713L333.574 349.41C332.81 349.236 332.245 348.959 331.88 348.579C331.517 348.199 331.336 347.718 331.336 347.135C331.336 346.652 331.471 346.23 331.741 345.868C332.011 345.505 332.384 345.223 332.86 345.021C333.336 344.815 333.881 344.712 334.495 344.712C335.379 344.712 336.075 344.903 336.583 345.287C337.091 345.667 337.427 346.176 337.59 346.816ZM342.947 353.165C342.18 353.165 341.511 352.989 340.939 352.638C340.367 352.286 339.923 351.794 339.607 351.162C339.291 350.53 339.133 349.792 339.133 348.946C339.133 348.098 339.291 347.355 339.607 346.72C339.923 346.084 340.367 345.591 340.939 345.239C341.511 344.887 342.18 344.712 342.947 344.712C343.714 344.712 344.384 344.887 344.955 345.239C345.527 345.591 345.971 346.084 346.287 346.72C346.603 347.355 346.761 348.098 346.761 348.946C346.761 349.792 346.603 350.53 346.287 351.162C345.971 351.794 345.527 352.286 344.955 352.638C344.384 352.989 343.714 353.165 342.947 353.165ZM342.953 351.828C343.45 351.828 343.862 351.697 344.188 351.434C344.515 351.171 344.757 350.821 344.913 350.385C345.073 349.948 345.152 349.467 345.152 348.941C345.152 348.419 345.073 347.94 344.913 347.503C344.757 347.062 344.515 346.709 344.188 346.443C343.862 346.176 343.45 346.043 342.953 346.043C342.452 346.043 342.036 346.176 341.706 346.443C341.379 346.709 341.136 347.062 340.976 347.503C340.82 347.94 340.742 348.419 340.742 348.941C340.742 349.467 340.82 349.948 340.976 350.385C341.136 350.821 341.379 351.171 341.706 351.434C342.036 351.697 342.452 351.828 342.953 351.828Z" fill="black"/>
<line x1="180" y1="108.5" x2="420" y2="108.5" stroke="black"/>
<path d="M180.874 102.763V101.676L185.668 94.0909H186.456V95.7741H185.923L182.301 101.506V101.591H188.757V102.763H180.874ZM186.009 105V102.433V101.926V94.0909H187.266V105H186.009ZM194.162 105.149C193.537 105.149 192.975 105.025 192.474 104.776C191.973 104.528 191.572 104.187 191.27 103.754C190.968 103.32 190.803 102.827 190.775 102.273H192.053C192.103 102.766 192.326 103.175 192.724 103.498C193.125 103.817 193.605 103.977 194.162 103.977C194.61 103.977 195.008 103.873 195.356 103.663C195.707 103.453 195.982 103.166 196.181 102.8C196.384 102.431 196.485 102.013 196.485 101.548C196.485 101.072 196.38 100.648 196.171 100.275C195.965 99.8988 195.68 99.6023 195.318 99.3857C194.956 99.169 194.542 99.0589 194.077 99.0554C193.743 99.0518 193.401 99.1033 193.049 99.2099C192.698 99.3129 192.408 99.446 192.181 99.6094L190.945 99.4602L191.606 94.0909H197.273V95.2628H192.714L192.33 98.4801H192.394C192.618 98.3026 192.898 98.1552 193.236 98.038C193.573 97.9208 193.924 97.8622 194.29 97.8622C194.958 97.8622 195.553 98.022 196.075 98.3416C196.6 98.6577 197.012 99.0909 197.31 99.6413C197.612 100.192 197.763 100.82 197.763 101.527C197.763 102.223 197.607 102.844 197.294 103.391C196.986 103.935 196.559 104.364 196.016 104.68C195.473 104.993 194.855 105.149 194.162 105.149ZM203.714 94.0909V105H202.393V95.4759H202.33L199.666 97.2443V95.902L202.393 94.0909H203.714ZM210.687 94.0909V105H209.366V95.4759H209.302L206.639 97.2443V95.902L209.366 94.0909H210.687ZM217.298 93.9418C217.745 93.9453 218.192 94.0305 218.64 94.1974C219.087 94.3643 219.496 94.6413 219.865 95.0284C220.234 95.4119 220.531 95.9357 220.755 96.5998C220.978 97.2638 221.09 98.0966 221.09 99.098C221.09 100.067 220.998 100.929 220.813 101.681C220.632 102.431 220.369 103.063 220.025 103.578C219.684 104.093 219.268 104.483 218.778 104.75C218.292 105.016 217.741 105.149 217.127 105.149C216.516 105.149 215.971 105.028 215.492 104.787C215.016 104.542 214.625 104.203 214.32 103.77C214.018 103.333 213.825 102.827 213.739 102.251H215.039C215.156 102.752 215.389 103.166 215.737 103.493C216.088 103.816 216.552 103.977 217.127 103.977C217.969 103.977 218.633 103.61 219.119 102.875C219.609 102.14 219.854 101.101 219.854 99.7585H219.769C219.57 100.057 219.334 100.314 219.061 100.531C218.787 100.748 218.484 100.914 218.15 101.032C217.816 101.149 217.461 101.207 217.085 101.207C216.46 101.207 215.886 101.053 215.364 100.744C214.846 100.431 214.43 100.004 214.118 99.4602C213.809 98.9134 213.654 98.2884 213.654 97.5852C213.654 96.9176 213.803 96.3068 214.102 95.7528C214.403 95.1953 214.826 94.7514 215.369 94.4212C215.916 94.0909 216.559 93.9311 217.298 93.9418ZM217.298 95.1136C216.85 95.1136 216.447 95.2255 216.088 95.4492C215.733 95.6694 215.451 95.9677 215.241 96.3441C215.036 96.717 214.933 97.1307 214.933 97.5852C214.933 98.0398 215.032 98.4535 215.231 98.8263C215.433 99.1957 215.708 99.4904 216.056 99.7106C216.408 99.9272 216.808 100.036 217.255 100.036C217.592 100.036 217.907 99.9698 218.198 99.8384C218.489 99.7035 218.743 99.5206 218.96 99.2898C219.18 99.0554 219.352 98.7908 219.476 98.4961C219.6 98.1978 219.663 97.8871 219.663 97.5639C219.663 97.1378 219.56 96.7383 219.354 96.3654C219.151 95.9925 218.871 95.6907 218.512 95.4599C218.157 95.229 217.752 95.1136 217.298 95.1136ZM226.807 105.149C226.36 105.142 225.912 105.057 225.465 104.893C225.017 104.73 224.609 104.455 224.24 104.068C223.87 103.677 223.574 103.15 223.35 102.486C223.126 101.818 223.014 100.98 223.014 99.9716C223.014 99.0057 223.105 98.1499 223.286 97.4041C223.467 96.6548 223.73 96.0245 224.074 95.5131C224.419 94.9982 224.834 94.6076 225.321 94.3413C225.811 94.0749 226.363 93.9418 226.978 93.9418C227.588 93.9418 228.132 94.0643 228.608 94.3093C229.087 94.5508 229.478 94.8881 229.779 95.3214C230.081 95.7546 230.277 96.2536 230.365 96.8182H229.066C228.945 96.3281 228.71 95.9215 228.362 95.5984C228.014 95.2752 227.553 95.1136 226.978 95.1136C226.132 95.1136 225.467 95.4812 224.98 96.2163C224.497 96.9513 224.254 97.983 224.25 99.3111H224.335C224.534 99.0092 224.771 98.7518 225.044 98.5387C225.321 98.3221 225.626 98.1552 225.96 98.038C226.294 97.9208 226.647 97.8622 227.02 97.8622C227.645 97.8622 228.217 98.0185 228.735 98.331C229.254 98.6399 229.669 99.0678 229.982 99.6147C230.294 100.158 230.451 100.781 230.451 101.484C230.451 102.159 230.3 102.777 229.998 103.338C229.696 103.896 229.272 104.339 228.725 104.67C228.181 104.996 227.542 105.156 226.807 105.149ZM226.807 103.977C227.255 103.977 227.656 103.865 228.011 103.642C228.37 103.418 228.652 103.118 228.858 102.741C229.067 102.365 229.172 101.946 229.172 101.484C229.172 101.033 229.071 100.623 228.869 100.254C228.67 99.881 228.394 99.5845 228.043 99.3643C227.695 99.1442 227.297 99.0341 226.85 99.0341C226.512 99.0341 226.198 99.1016 225.907 99.2365C225.616 99.3679 225.36 99.549 225.14 99.7798C224.923 100.011 224.753 100.275 224.628 100.574C224.504 100.868 224.442 101.179 224.442 101.506C224.442 101.939 224.543 102.344 224.746 102.72C224.952 103.097 225.232 103.4 225.587 103.631C225.946 103.862 226.353 103.977 226.807 103.977ZM236.018 93.9418C236.466 93.9453 236.913 94.0305 237.361 94.1974C237.808 94.3643 238.216 94.6413 238.586 95.0284C238.955 95.4119 239.252 95.9357 239.475 96.5998C239.699 97.2638 239.811 98.0966 239.811 99.098C239.811 100.067 239.719 100.929 239.534 101.681C239.353 102.431 239.09 103.063 238.746 103.578C238.405 104.093 237.989 104.483 237.499 104.75C237.013 105.016 236.462 105.149 235.848 105.149C235.237 105.149 234.692 105.028 234.213 104.787C233.737 104.542 233.346 104.203 233.041 103.77C232.739 103.333 232.545 102.827 232.46 102.251H233.76C233.877 102.752 234.11 103.166 234.458 103.493C234.809 103.816 235.273 103.977 235.848 103.977C236.689 103.977 237.354 103.61 237.84 102.875C238.33 102.14 238.575 101.101 238.575 99.7585H238.49C238.291 100.057 238.055 100.314 237.781 100.531C237.508 100.748 237.204 100.914 236.871 101.032C236.537 101.149 236.182 101.207 235.805 101.207C235.18 101.207 234.607 101.053 234.085 100.744C233.566 100.431 233.151 100.004 232.838 99.4602C232.529 98.9134 232.375 98.2884 232.375 97.5852C232.375 96.9176 232.524 96.3068 232.822 95.7528C233.124 95.1953 233.547 94.7514 234.09 94.4212C234.637 94.0909 235.28 93.9311 236.018 93.9418ZM236.018 95.1136C235.571 95.1136 235.168 95.2255 234.809 95.4492C234.454 95.6694 234.172 95.9677 233.962 96.3441C233.756 96.717 233.653 97.1307 233.653 97.5852C233.653 98.0398 233.753 98.4535 233.952 98.8263C234.154 99.1957 234.429 99.4904 234.777 99.7106C235.129 99.9272 235.528 100.036 235.976 100.036C236.313 100.036 236.627 99.9698 236.919 99.8384C237.21 99.7035 237.464 99.5206 237.68 99.2898C237.9 99.0554 238.073 98.7908 238.197 98.4961C238.321 98.1978 238.383 97.8871 238.383 97.5639C238.383 97.1378 238.28 96.7383 238.074 96.3654C237.872 95.9925 237.591 95.6907 237.233 95.4599C236.878 95.229 236.473 95.1136 236.018 95.1136ZM241.65 102.763V101.676L246.444 94.0909H247.232V95.7741H246.7L243.078 101.506V101.591H249.533V102.763H241.65ZM246.785 105V102.433V101.926V94.0909H248.042V105H246.785ZM255.088 105.149C254.285 105.149 253.602 104.931 253.037 104.494C252.472 104.054 252.041 103.416 251.743 102.582C251.444 101.744 251.295 100.732 251.295 99.5455C251.295 98.3665 251.444 97.3597 251.743 96.5252C252.045 95.6871 252.478 95.0479 253.042 94.6076C253.611 94.1637 254.292 93.9418 255.088 93.9418C255.883 93.9418 256.563 94.1637 257.128 94.6076C257.696 95.0479 258.129 95.6871 258.428 96.5252C258.73 97.3597 258.881 98.3665 258.881 99.5455C258.881 100.732 258.731 101.744 258.433 102.582C258.135 103.416 257.703 104.054 257.139 104.494C256.574 104.931 255.89 105.149 255.088 105.149ZM255.088 103.977C255.883 103.977 256.501 103.594 256.942 102.827C257.382 102.06 257.602 100.966 257.602 99.5455C257.602 98.6009 257.501 97.7965 257.298 97.1325C257.1 96.4684 256.812 95.9624 256.436 95.6143C256.063 95.2663 255.613 95.0923 255.088 95.0923C254.3 95.0923 253.683 95.4812 253.24 96.2589C252.796 97.033 252.574 98.1286 252.574 99.5455C252.574 100.49 252.673 101.293 252.872 101.953C253.071 102.614 253.357 103.116 253.73 103.461C254.106 103.805 254.559 103.977 255.088 103.977ZM264.527 105.149C264.079 105.142 263.632 105.057 263.184 104.893C262.737 104.73 262.329 104.455 261.959 104.068C261.59 103.677 261.294 103.15 261.07 102.486C260.846 101.818 260.734 100.98 260.734 99.9716C260.734 99.0057 260.825 98.1499 261.006 97.4041C261.187 96.6548 261.45 96.0245 261.794 95.5131C262.139 94.9982 262.554 94.6076 263.041 94.3413C263.531 94.0749 264.083 93.9418 264.697 93.9418C265.308 93.9418 265.851 94.0643 266.327 94.3093C266.807 94.5508 267.197 94.8881 267.499 95.3214C267.801 95.7546 267.996 96.2536 268.085 96.8182H266.785C266.665 96.3281 266.43 95.9215 266.082 95.5984C265.734 95.2752 265.273 95.1136 264.697 95.1136C263.852 95.1136 263.186 95.4812 262.7 96.2163C262.217 96.9513 261.974 97.983 261.97 99.3111H262.055C262.254 99.0092 262.49 98.7518 262.764 98.5387C263.041 98.3221 263.346 98.1552 263.68 98.038C264.014 97.9208 264.367 97.8622 264.74 97.8622C265.365 97.8622 265.937 98.0185 266.455 98.331C266.974 98.6399 267.389 99.0678 267.702 99.6147C268.014 100.158 268.17 100.781 268.17 101.484C268.17 102.159 268.019 102.777 267.718 103.338C267.416 103.896 266.991 104.339 266.444 104.67C265.901 104.996 265.262 105.156 264.527 105.149ZM264.527 103.977C264.974 103.977 265.376 103.865 265.731 103.642C266.089 103.418 266.372 103.118 266.578 102.741C266.787 102.365 266.892 101.946 266.892 101.484C266.892 101.033 266.791 100.623 266.588 100.254C266.389 99.881 266.114 99.5845 265.763 99.3643C265.415 99.1442 265.017 99.0341 264.569 99.0341C264.232 99.0341 263.918 99.1016 263.627 99.2365C263.335 99.3679 263.08 99.549 262.86 99.7798C262.643 100.011 262.472 100.275 262.348 100.574C262.224 100.868 262.162 101.179 262.162 101.506C262.162 101.939 262.263 102.344 262.465 102.72C262.671 103.097 262.952 103.4 263.307 103.631C263.666 103.862 264.072 103.977 264.527 103.977ZM270.606 105L275.485 95.348V95.2628H269.86V94.0909H276.849V95.3267L271.991 105H270.606ZM282.109 105.149C281.377 105.149 280.731 105.02 280.17 104.76C279.612 104.498 279.177 104.137 278.865 103.679C278.552 103.217 278.398 102.692 278.402 102.102C278.398 101.641 278.489 101.214 278.673 100.824C278.858 100.43 279.11 100.101 279.43 99.8384C279.753 99.5721 280.113 99.4034 280.511 99.3324V99.2685C279.989 99.1335 279.573 98.8406 279.264 98.3896C278.956 97.935 278.803 97.4183 278.806 96.8395C278.803 96.2855 278.943 95.7901 279.227 95.3533C279.511 94.9165 279.902 94.5721 280.399 94.32C280.9 94.0678 281.47 93.9418 282.109 93.9418C282.741 93.9418 283.306 94.0678 283.803 94.32C284.3 94.5721 284.691 94.9165 284.975 95.3533C285.262 95.7901 285.408 96.2855 285.411 96.8395C285.408 97.4183 285.25 97.935 284.937 98.3896C284.628 98.8406 284.218 99.1335 283.707 99.2685V99.3324C284.101 99.4034 284.456 99.5721 284.772 99.8384C285.088 100.101 285.34 100.43 285.529 100.824C285.717 101.214 285.813 101.641 285.816 102.102C285.813 102.692 285.653 103.217 285.337 103.679C285.024 104.137 284.589 104.498 284.032 104.76C283.478 105.02 282.837 105.149 282.109 105.149ZM282.109 103.977C282.603 103.977 283.029 103.897 283.387 103.738C283.746 103.578 284.023 103.352 284.218 103.061C284.414 102.77 284.513 102.429 284.517 102.038C284.513 101.626 284.407 101.262 284.197 100.946C283.987 100.63 283.702 100.382 283.339 100.201C282.981 100.02 282.571 99.929 282.109 99.929C281.644 99.929 281.228 100.02 280.862 100.201C280.5 100.382 280.214 100.63 280.005 100.946C279.799 101.262 279.698 101.626 279.701 102.038C279.698 102.429 279.792 102.77 279.984 103.061C280.179 103.352 280.458 103.578 280.82 103.738C281.182 103.897 281.612 103.977 282.109 103.977ZM282.109 98.7997C282.5 98.7997 282.846 98.7216 283.148 98.5653C283.453 98.4091 283.693 98.1907 283.867 97.9102C284.041 97.6296 284.13 97.3011 284.133 96.9247C284.13 96.5554 284.043 96.234 283.872 95.9606C283.702 95.6836 283.465 95.4705 283.164 95.3214C282.862 95.1687 282.51 95.0923 282.109 95.0923C281.701 95.0923 281.344 95.1687 281.038 95.3214C280.733 95.4705 280.497 95.6836 280.33 95.9606C280.163 96.234 280.081 96.5554 280.085 96.9247C280.081 97.3011 280.165 97.6296 280.335 97.9102C280.509 98.1907 280.749 98.4091 281.054 98.5653C281.36 98.7216 281.711 98.7997 282.109 98.7997Z" fill="black"/>
<path d="M183.255 73.0909V84H180.948V73.0909H183.255ZM189.019 84H185.152V73.0909H189.051C190.149 73.0909 191.093 73.3093 191.885 73.7461C192.677 74.1793 193.286 74.8026 193.712 75.6158C194.142 76.429 194.357 77.402 194.357 78.5348C194.357 79.6712 194.142 80.6477 193.712 81.4645C193.286 82.2812 192.674 82.908 191.875 83.3448C191.079 83.7816 190.127 84 189.019 84ZM187.459 82.0238H188.924C189.605 82.0238 190.179 81.9031 190.644 81.6616C191.113 81.4165 191.464 81.0384 191.699 80.527C191.937 80.0121 192.056 79.348 192.056 78.5348C192.056 77.7287 191.937 77.07 191.699 76.5586C191.464 76.0472 191.115 75.6708 190.649 75.4293C190.184 75.1879 189.611 75.0671 188.929 75.0671H187.459V82.0238ZM199.537 84V73.0909H203.841C204.665 73.0909 205.368 73.2383 205.95 73.533C206.536 73.8242 206.982 74.2379 207.287 74.7741C207.596 75.3068 207.751 75.9336 207.751 76.6545C207.751 77.3789 207.595 78.0021 207.282 78.5241C206.97 79.0426 206.517 79.4403 205.924 79.7173C205.334 79.9943 204.62 80.1328 203.782 80.1328H200.901V78.2791H203.41C203.85 78.2791 204.216 78.2187 204.507 78.098C204.798 77.9773 205.015 77.7962 205.157 77.5547C205.302 77.3132 205.375 77.0131 205.375 76.6545C205.375 76.2923 205.302 75.9869 205.157 75.7383C205.015 75.4897 204.796 75.3015 204.502 75.1737C204.21 75.0423 203.843 74.9766 203.399 74.9766H201.843V84H199.537ZM205.428 79.0355L208.14 84H205.593L202.941 79.0355H205.428ZM212.935 84.1598C212.093 84.1598 211.369 83.9893 210.762 83.6484C210.158 83.304 209.693 82.8175 209.366 82.1889C209.039 81.5568 208.876 80.8093 208.876 79.9464C208.876 79.1048 209.039 78.3661 209.366 77.7305C209.693 77.0948 210.153 76.5994 210.746 76.2443C211.342 75.8892 212.042 75.7116 212.844 75.7116C213.384 75.7116 213.887 75.7987 214.352 75.9727C214.821 76.1431 215.229 76.4006 215.577 76.745C215.929 77.0895 216.202 77.5227 216.397 78.0447C216.593 78.5632 216.69 79.1705 216.69 79.8665V80.4897H209.782V79.0835H214.554C214.554 78.7567 214.483 78.4673 214.341 78.2152C214.199 77.9631 214.002 77.766 213.75 77.6239C213.501 77.4783 213.212 77.4055 212.882 77.4055C212.537 77.4055 212.232 77.4854 211.966 77.6452C211.703 77.8015 211.497 78.0128 211.348 78.2791C211.199 78.5419 211.122 78.8349 211.119 79.158V80.495C211.119 80.8999 211.193 81.2496 211.342 81.5444C211.495 81.8391 211.71 82.0664 211.987 82.2262C212.264 82.386 212.592 82.4659 212.972 82.4659C213.224 82.4659 213.455 82.4304 213.665 82.3594C213.874 82.2884 214.054 82.1818 214.203 82.0398C214.352 81.8977 214.466 81.7237 214.544 81.5178L216.642 81.6562C216.536 82.1605 216.317 82.6009 215.987 82.9773C215.661 83.3501 215.238 83.6413 214.719 83.8509C214.205 84.0568 213.61 84.1598 212.935 84.1598ZM221.868 84.1598C221.03 84.1598 220.309 83.9822 219.705 83.6271C219.105 83.2685 218.643 82.7713 218.32 82.1357C218.001 81.5 217.841 80.7685 217.841 79.9411C217.841 79.103 218.002 78.3679 218.326 77.7358C218.652 77.1001 219.116 76.6048 219.716 76.2496C220.316 75.891 221.03 75.7116 221.857 75.7116C222.571 75.7116 223.196 75.8413 223.732 76.1005C224.268 76.3597 224.693 76.7237 225.005 77.1925C225.318 77.6612 225.49 78.2116 225.522 78.8438H223.381C223.32 78.4354 223.161 78.1069 222.901 77.8583C222.646 77.6062 222.31 77.4801 221.895 77.4801C221.543 77.4801 221.236 77.576 220.973 77.7678C220.714 77.956 220.511 78.2312 220.366 78.5934C220.22 78.9556 220.147 79.3942 220.147 79.9091C220.147 80.4311 220.218 80.875 220.36 81.2408C220.506 81.6065 220.71 81.8853 220.973 82.0771C221.236 82.2688 221.543 82.3647 221.895 82.3647C222.154 82.3647 222.386 82.3114 222.592 82.2049C222.802 82.0984 222.974 81.9439 223.109 81.7415C223.248 81.5355 223.338 81.2887 223.381 81.0011H225.522C225.487 81.6261 225.316 82.1765 225.011 82.6523C224.709 83.1246 224.292 83.494 223.759 83.7603C223.226 84.0266 222.596 84.1598 221.868 84.1598ZM230.704 84.1598C229.862 84.1598 229.138 83.9893 228.53 83.6484C227.927 83.304 227.461 82.8175 227.135 82.1889C226.808 81.5568 226.645 80.8093 226.645 79.9464C226.645 79.1048 226.808 78.3661 227.135 77.7305C227.461 77.0948 227.921 76.5994 228.514 76.2443C229.111 75.8892 229.81 75.7116 230.613 75.7116C231.153 75.7116 231.655 75.7987 232.12 75.9727C232.589 76.1431 232.998 76.4006 233.346 76.745C233.697 77.0895 233.971 77.5227 234.166 78.0447C234.361 78.5632 234.459 79.1705 234.459 79.8665V80.4897H227.55V79.0835H232.323C232.323 78.7567 232.252 78.4673 232.11 78.2152C231.968 77.9631 231.771 77.766 231.519 77.6239C231.27 77.4783 230.981 77.4055 230.65 77.4055C230.306 77.4055 230 77.4854 229.734 77.6452C229.471 77.8015 229.265 78.0128 229.116 78.2791C228.967 78.5419 228.891 78.8349 228.887 79.158V80.495C228.887 80.8999 228.962 81.2496 229.111 81.5444C229.264 81.8391 229.478 82.0664 229.755 82.2262C230.032 82.386 230.361 82.4659 230.741 82.4659C230.993 82.4659 231.224 82.4304 231.433 82.3594C231.643 82.2884 231.822 82.1818 231.971 82.0398C232.12 81.8977 232.234 81.7237 232.312 81.5178L234.411 81.6562C234.304 82.1605 234.086 82.6009 233.756 82.9773C233.429 83.3501 233.006 83.6413 232.488 83.8509C231.973 84.0568 231.378 84.1598 230.704 84.1598ZM235.94 84V75.8182H238.209V84H235.94ZM237.08 74.7635C236.742 74.7635 236.453 74.6516 236.211 74.4279C235.973 74.2006 235.854 73.929 235.854 73.6129C235.854 73.3004 235.973 73.0323 236.211 72.8086C236.453 72.5813 236.742 72.4677 237.08 72.4677C237.417 72.4677 237.705 72.5813 237.943 72.8086C238.184 73.0323 238.305 73.3004 238.305 73.6129C238.305 73.929 238.184 74.2006 237.943 74.4279C237.705 74.6516 237.417 74.7635 237.08 74.7635ZM244.379 75.8182V77.5227H239.451V75.8182H244.379ZM240.57 73.858H242.839V81.4858C242.839 81.6953 242.871 81.8587 242.935 81.9759C242.999 82.0895 243.088 82.1694 243.201 82.2156C243.319 82.2617 243.453 82.2848 243.606 82.2848C243.713 82.2848 243.819 82.2759 243.926 82.2582C244.032 82.2369 244.114 82.2209 244.171 82.2102L244.528 83.8988C244.414 83.9343 244.254 83.9751 244.048 84.0213C243.842 84.071 243.592 84.1012 243.297 84.1119C242.75 84.1332 242.271 84.0604 241.859 83.8935C241.451 83.7266 241.133 83.4673 240.906 83.1158C240.678 82.7642 240.566 82.3203 240.57 81.7841V73.858ZM248.19 84.1545C247.668 84.1545 247.203 84.0639 246.794 83.8828C246.386 83.6982 246.063 83.4265 245.825 83.0678C245.59 82.7056 245.473 82.2546 245.473 81.7148C245.473 81.2603 245.557 80.8786 245.724 80.5696C245.89 80.2607 246.118 80.0121 246.405 79.8239C246.693 79.6357 247.02 79.4936 247.385 79.3977C247.755 79.3018 248.142 79.2344 248.547 79.1953C249.023 79.1456 249.406 79.0994 249.697 79.0568C249.988 79.0107 250.2 78.9432 250.331 78.8544C250.463 78.7656 250.528 78.6342 250.528 78.4602V78.4283C250.528 78.0909 250.422 77.8299 250.209 77.6452C249.999 77.4606 249.701 77.3683 249.314 77.3683C248.905 77.3683 248.58 77.4588 248.339 77.6399C248.097 77.8175 247.938 78.0412 247.86 78.3111L245.761 78.1406C245.867 77.6435 246.077 77.2138 246.389 76.8516C246.702 76.4858 247.105 76.2053 247.599 76.0099C248.096 75.8111 248.671 75.7116 249.324 75.7116C249.779 75.7116 250.214 75.7649 250.629 75.8714C251.048 75.978 251.42 76.1431 251.743 76.3668C252.069 76.5906 252.327 76.8782 252.515 77.2298C252.703 77.5778 252.797 77.995 252.797 78.4815V84H250.645V82.8654H250.581C250.45 83.1211 250.274 83.3466 250.054 83.5419C249.834 83.7337 249.569 83.8846 249.26 83.9947C248.952 84.1012 248.595 84.1545 248.19 84.1545ZM248.84 82.5884C249.173 82.5884 249.468 82.5227 249.724 82.3913C249.98 82.2564 250.18 82.0753 250.326 81.848C250.471 81.6207 250.544 81.3633 250.544 81.0756V80.2074C250.473 80.2536 250.376 80.2962 250.251 80.3352C250.131 80.3707 249.994 80.4045 249.841 80.4364C249.688 80.4648 249.536 80.4915 249.383 80.5163C249.23 80.5376 249.092 80.5572 248.968 80.5749C248.701 80.614 248.469 80.6761 248.27 80.7614C248.071 80.8466 247.916 80.962 247.806 81.1076C247.696 81.2496 247.641 81.4272 247.641 81.6403C247.641 81.9492 247.753 82.1854 247.977 82.3487C248.204 82.5085 248.492 82.5884 248.84 82.5884Z" fill="black"/>
<path d="M160 30C160 27.2386 162.239 25 165 25H435C437.761 25 440 27.2386 440 30V55H160V30Z" fill="white" stroke="black" stroke-width="3" stroke-linejoin="bevel"/>
<path d="M242.15 34.0909L244.787 42.3793H244.888L247.53 34.0909H250.087L246.326 45H243.354L239.588 34.0909H242.15ZM254.163 45.1598C253.321 45.1598 252.597 44.9893 251.99 44.6484C251.386 44.304 250.921 43.8175 250.594 43.1889C250.267 42.5568 250.104 41.8093 250.104 40.9464C250.104 40.1048 250.267 39.3661 250.594 38.7305C250.921 38.0948 251.381 37.5994 251.974 37.2443C252.57 36.8892 253.27 36.7116 254.072 36.7116C254.612 36.7116 255.115 36.7987 255.58 36.9727C256.049 37.1431 256.457 37.4006 256.805 37.745C257.157 38.0895 257.43 38.5227 257.625 39.0447C257.821 39.5632 257.918 40.1705 257.918 40.8665V41.4897H251.01V40.0835H255.782C255.782 39.7567 255.711 39.4673 255.569 39.2152C255.427 38.9631 255.23 38.766 254.978 38.6239C254.729 38.4783 254.44 38.4055 254.11 38.4055C253.765 38.4055 253.46 38.4854 253.194 38.6452C252.931 38.8015 252.725 39.0128 252.576 39.2791C252.427 39.5419 252.35 39.8349 252.347 40.158V41.495C252.347 41.8999 252.421 42.2496 252.57 42.5444C252.723 42.8391 252.938 43.0664 253.215 43.2262C253.492 43.386 253.82 43.4659 254.2 43.4659C254.452 43.4659 254.683 43.4304 254.893 43.3594C255.102 43.2884 255.282 43.1818 255.431 43.0398C255.58 42.8977 255.694 42.7237 255.772 42.5178L257.87 42.6562C257.764 43.1605 257.545 43.6009 257.215 43.9773C256.889 44.3501 256.466 44.6413 255.947 44.8509C255.433 45.0568 254.838 45.1598 254.163 45.1598ZM259.399 45V36.8182H261.599V38.2457H261.684C261.833 37.7379 262.084 37.3544 262.435 37.0952C262.787 36.8324 263.192 36.701 263.65 36.701C263.764 36.701 263.886 36.7081 264.017 36.7223C264.149 36.7365 264.264 36.756 264.364 36.7809V38.7944C264.257 38.7624 264.11 38.734 263.922 38.7092C263.733 38.6843 263.561 38.6719 263.405 38.6719C263.071 38.6719 262.773 38.7447 262.51 38.8903C262.251 39.0323 262.045 39.2312 261.892 39.4869C261.743 39.7425 261.668 40.0373 261.668 40.3711V45H259.399ZM265.537 45V36.8182H267.806V45H265.537ZM266.677 35.7635C266.339 35.7635 266.05 35.6516 265.809 35.4279C265.571 35.2006 265.452 34.929 265.452 34.6129C265.452 34.3004 265.571 34.0323 265.809 33.8086C266.05 33.5813 266.339 33.4677 266.677 33.4677C267.014 33.4677 267.302 33.5813 267.54 33.8086C267.781 34.0323 267.902 34.3004 267.902 34.6129C267.902 34.929 267.781 35.2006 267.54 35.4279C267.302 35.6516 267.014 35.7635 266.677 35.7635ZM274.024 36.8182V38.5227H268.974V36.8182H274.024ZM270.13 45V36.2269C270.13 35.6339 270.245 35.142 270.476 34.7514C270.71 34.3608 271.03 34.0678 271.435 33.8725C271.84 33.6772 272.3 33.5795 272.814 33.5795C273.163 33.5795 273.48 33.6062 273.768 33.6594C274.059 33.7127 274.276 33.7607 274.418 33.8033L274.013 35.5078C273.924 35.4794 273.814 35.4528 273.683 35.4279C273.555 35.4031 273.424 35.3906 273.289 35.3906C272.955 35.3906 272.722 35.4688 272.591 35.625C272.459 35.7777 272.394 35.9925 272.394 36.2695V45H270.13ZM275.41 45V36.8182H277.679V45H275.41ZM276.55 35.7635C276.212 35.7635 275.923 35.6516 275.682 35.4279C275.444 35.2006 275.325 34.929 275.325 34.6129C275.325 34.3004 275.444 34.0323 275.682 33.8086C275.923 33.5813 276.212 33.4677 276.55 33.4677C276.887 33.4677 277.175 33.5813 277.413 33.8086C277.654 34.0323 277.775 34.3004 277.775 34.6129C277.775 34.929 277.654 35.2006 277.413 35.4279C277.175 35.6516 276.887 35.7635 276.55 35.7635ZM283.194 45.1598C282.356 45.1598 281.635 44.9822 281.031 44.6271C280.431 44.2685 279.969 43.7713 279.646 43.1357C279.326 42.5 279.167 41.7685 279.167 40.9411C279.167 40.103 279.328 39.3679 279.651 38.7358C279.978 38.1001 280.441 37.6048 281.042 37.2496C281.642 36.891 282.356 36.7116 283.183 36.7116C283.897 36.7116 284.522 36.8413 285.058 37.1005C285.594 37.3597 286.019 37.7237 286.331 38.1925C286.644 38.6612 286.816 39.2116 286.848 39.8438H284.706C284.646 39.4354 284.486 39.1069 284.227 38.8583C283.971 38.6062 283.636 38.4801 283.22 38.4801C282.869 38.4801 282.561 38.576 282.299 38.7678C282.039 38.956 281.837 39.2312 281.691 39.5934C281.546 39.9556 281.473 40.3942 281.473 40.9091C281.473 41.4311 281.544 41.875 281.686 42.2408C281.832 42.6065 282.036 42.8853 282.299 43.0771C282.561 43.2688 282.869 43.3647 283.22 43.3647C283.479 43.3647 283.712 43.3114 283.918 43.2049C284.128 43.0984 284.3 42.9439 284.435 42.7415C284.573 42.5355 284.664 42.2887 284.706 42.0011H286.848C286.812 42.6261 286.642 43.1765 286.336 43.6523C286.034 44.1246 285.617 44.494 285.085 44.7603C284.552 45.0266 283.922 45.1598 283.194 45.1598ZM290.634 45.1545C290.112 45.1545 289.646 45.0639 289.238 44.8828C288.83 44.6982 288.507 44.4265 288.269 44.0678C288.034 43.7056 287.917 43.2546 287.917 42.7148C287.917 42.2603 288 41.8786 288.167 41.5696C288.334 41.2607 288.562 41.0121 288.849 40.8239C289.137 40.6357 289.464 40.4936 289.829 40.3977C290.199 40.3018 290.586 40.2344 290.991 40.1953C291.466 40.1456 291.85 40.0994 292.141 40.0568C292.432 40.0107 292.644 39.9432 292.775 39.8544C292.906 39.7656 292.972 39.6342 292.972 39.4602V39.4283C292.972 39.0909 292.866 38.8299 292.652 38.6452C292.443 38.4606 292.145 38.3683 291.758 38.3683C291.349 38.3683 291.024 38.4588 290.783 38.6399C290.541 38.8175 290.382 39.0412 290.303 39.3111L288.205 39.1406C288.311 38.6435 288.521 38.2138 288.833 37.8516C289.146 37.4858 289.549 37.2053 290.042 37.0099C290.54 36.8111 291.115 36.7116 291.768 36.7116C292.223 36.7116 292.658 36.7649 293.073 36.8714C293.492 36.978 293.863 37.1431 294.187 37.3668C294.513 37.5906 294.771 37.8782 294.959 38.2298C295.147 38.5778 295.241 38.995 295.241 39.4815V45H293.089V43.8654H293.025C292.894 44.1211 292.718 44.3466 292.498 44.5419C292.278 44.7337 292.013 44.8846 291.704 44.9947C291.395 45.1012 291.038 45.1545 290.634 45.1545ZM291.284 43.5884C291.617 43.5884 291.912 43.5227 292.168 43.3913C292.423 43.2564 292.624 43.0753 292.77 42.848C292.915 42.6207 292.988 42.3633 292.988 42.0756V41.2074C292.917 41.2536 292.819 41.2962 292.695 41.3352C292.574 41.3707 292.438 41.4045 292.285 41.4364C292.132 41.4648 291.98 41.4915 291.827 41.5163C291.674 41.5376 291.536 41.5572 291.411 41.5749C291.145 41.614 290.912 41.6761 290.714 41.7614C290.515 41.8466 290.36 41.962 290.25 42.1076C290.14 42.2496 290.085 42.4272 290.085 42.6403C290.085 42.9492 290.197 43.1854 290.421 43.3487C290.648 43.5085 290.936 43.5884 291.284 43.5884ZM297.002 45V36.8182H299.202V38.2457H299.287C299.436 37.7379 299.686 37.3544 300.038 37.0952C300.39 36.8324 300.794 36.701 301.252 36.701C301.366 36.701 301.489 36.7081 301.62 36.7223C301.751 36.7365 301.867 36.756 301.966 36.7809V38.7944C301.86 38.7624 301.712 38.734 301.524 38.7092C301.336 38.6843 301.164 38.6719 301.007 38.6719C300.674 38.6719 300.375 38.7447 300.113 38.8903C299.853 39.0323 299.647 39.2312 299.495 39.4869C299.345 39.7425 299.271 40.0373 299.271 40.3711V45H297.002ZM306.654 45V34.0909H310.958C311.782 34.0909 312.485 34.2383 313.067 34.533C313.653 34.8242 314.099 35.2379 314.404 35.7741C314.713 36.3068 314.867 36.9336 314.867 37.6545C314.867 38.3789 314.711 39.0021 314.399 39.5241C314.086 40.0426 313.633 40.4403 313.04 40.7173C312.451 40.9943 311.737 41.1328 310.899 41.1328H308.017V39.2791H310.526C310.967 39.2791 311.332 39.2187 311.624 39.098C311.915 38.9773 312.131 38.7962 312.273 38.5547C312.419 38.3132 312.492 38.0131 312.492 37.6545C312.492 37.2923 312.419 36.9869 312.273 36.7383C312.131 36.4897 311.913 36.3015 311.618 36.1737C311.327 36.0423 310.959 35.9766 310.516 35.9766H308.96V45H306.654ZM312.545 40.0355L315.256 45H312.71L310.057 40.0355H312.545ZM320.052 45.1598C319.21 45.1598 318.486 44.9893 317.878 44.6484C317.275 44.304 316.81 43.8175 316.483 43.1889C316.156 42.5568 315.993 41.8093 315.993 40.9464C315.993 40.1048 316.156 39.3661 316.483 38.7305C316.81 38.0948 317.269 37.5994 317.862 37.2443C318.459 36.8892 319.159 36.7116 319.961 36.7116C320.501 36.7116 321.003 36.7987 321.469 36.9727C321.937 37.1431 322.346 37.4006 322.694 37.745C323.045 38.0895 323.319 38.5227 323.514 39.0447C323.709 39.5632 323.807 40.1705 323.807 40.8665V41.4897H316.898V40.0835H321.671C321.671 39.7567 321.6 39.4673 321.458 39.2152C321.316 38.9631 321.119 38.766 320.867 38.6239C320.618 38.4783 320.329 38.4055 319.998 38.4055C319.654 38.4055 319.349 38.4854 319.082 38.6452C318.819 38.8015 318.614 39.0128 318.464 39.2791C318.315 39.5419 318.239 39.8349 318.235 40.158V41.495C318.235 41.8999 318.31 42.2496 318.459 42.5444C318.612 42.8391 318.827 43.0664 319.104 43.2262C319.381 43.386 319.709 43.4659 320.089 43.4659C320.341 43.4659 320.572 43.4304 320.781 43.3594C320.991 43.2884 321.17 43.1818 321.319 43.0398C321.469 42.8977 321.582 42.7237 321.66 42.5178L323.759 42.6562C323.653 43.1605 323.434 43.6009 323.104 43.9773C322.777 44.3501 322.355 44.6413 321.836 44.8509C321.321 45.0568 320.726 45.1598 320.052 45.1598ZM328.985 45.1598C328.147 45.1598 327.426 44.9822 326.822 44.6271C326.222 44.2685 325.76 43.7713 325.437 43.1357C325.117 42.5 324.958 41.7685 324.958 40.9411C324.958 40.103 325.119 39.3679 325.442 38.7358C325.769 38.1001 326.232 37.6048 326.833 37.2496C327.433 36.891 328.147 36.7116 328.974 36.7116C329.688 36.7116 330.313 36.8413 330.849 37.1005C331.385 37.3597 331.81 37.7237 332.122 38.1925C332.435 38.6612 332.607 39.2116 332.639 39.8438H330.497C330.437 39.4354 330.277 39.1069 330.018 38.8583C329.762 38.6062 329.427 38.4801 329.011 38.4801C328.66 38.4801 328.352 38.576 328.09 38.7678C327.83 38.956 327.628 39.2312 327.482 39.5934C327.337 39.9556 327.264 40.3942 327.264 40.9091C327.264 41.4311 327.335 41.875 327.477 42.2408C327.623 42.6065 327.827 42.8853 328.09 43.0771C328.352 43.2688 328.66 43.3647 329.011 43.3647C329.27 43.3647 329.503 43.3114 329.709 43.2049C329.919 43.0984 330.091 42.9439 330.226 42.7415C330.364 42.5355 330.455 42.2887 330.497 42.0011H332.639C332.603 42.6261 332.433 43.1765 332.127 43.6523C331.826 44.1246 331.408 44.494 330.876 44.7603C330.343 45.0266 329.713 45.1598 328.985 45.1598ZM337.82 45.1598C336.979 45.1598 336.254 44.9893 335.647 44.6484C335.043 44.304 334.578 43.8175 334.251 43.1889C333.925 42.5568 333.761 41.8093 333.761 40.9464C333.761 40.1048 333.925 39.3661 334.251 38.7305C334.578 38.0948 335.038 37.5994 335.631 37.2443C336.228 36.8892 336.927 36.7116 337.73 36.7116C338.269 36.7116 338.772 36.7987 339.237 36.9727C339.706 37.1431 340.114 37.4006 340.462 37.745C340.814 38.0895 341.087 38.5227 341.283 39.0447C341.478 39.5632 341.576 40.1705 341.576 40.8665V41.4897H334.667V40.0835H339.44C339.44 39.7567 339.369 39.4673 339.227 39.2152C339.084 38.9631 338.887 38.766 338.635 38.6239C338.387 38.4783 338.097 38.4055 337.767 38.4055C337.423 38.4055 337.117 38.4854 336.851 38.6452C336.588 38.8015 336.382 39.0128 336.233 39.2791C336.084 39.5419 336.007 39.8349 336.004 40.158V41.495C336.004 41.8999 336.078 42.2496 336.228 42.5444C336.38 42.8391 336.595 43.0664 336.872 43.2262C337.149 43.386 337.478 43.4659 337.858 43.4659C338.11 43.4659 338.341 43.4304 338.55 43.3594C338.76 43.2884 338.939 43.1818 339.088 43.0398C339.237 42.8977 339.351 42.7237 339.429 42.5178L341.528 42.6562C341.421 43.1605 341.203 43.6009 340.872 43.9773C340.546 44.3501 340.123 44.6413 339.605 44.8509C339.09 45.0568 338.495 45.1598 337.82 45.1598ZM343.056 45V36.8182H345.326V45H343.056ZM344.196 35.7635C343.859 35.7635 343.57 35.6516 343.328 35.4279C343.09 35.2006 342.971 34.929 342.971 34.6129C342.971 34.3004 343.09 34.0323 343.328 33.8086C343.57 33.5813 343.859 33.4677 344.196 33.4677C344.534 33.4677 344.821 33.5813 345.059 33.8086C345.301 34.0323 345.421 34.3004 345.421 34.6129C345.421 34.929 345.301 35.2006 345.059 35.4279C344.821 35.6516 344.534 35.7635 344.196 35.7635ZM351.495 36.8182V38.5227H346.568V36.8182H351.495ZM347.687 34.858H349.956V42.4858C349.956 42.6953 349.988 42.8587 350.052 42.9759C350.116 43.0895 350.204 43.1694 350.318 43.2156C350.435 43.2617 350.57 43.2848 350.723 43.2848C350.829 43.2848 350.936 43.2759 351.042 43.2582C351.149 43.2369 351.231 43.2209 351.288 43.2102L351.644 44.8988C351.531 44.9343 351.371 44.9751 351.165 45.0213C350.959 45.071 350.709 45.1012 350.414 45.1119C349.867 45.1332 349.388 45.0604 348.976 44.8935C348.567 44.7266 348.25 44.4673 348.022 44.1158C347.795 43.7642 347.683 43.3203 347.687 42.7841V34.858ZM355.307 45.1545C354.784 45.1545 354.319 45.0639 353.911 44.8828C353.503 44.6982 353.179 44.4265 352.941 44.0678C352.707 43.7056 352.59 43.2546 352.59 42.7148C352.59 42.2603 352.673 41.8786 352.84 41.5696C353.007 41.2607 353.234 41.0121 353.522 40.8239C353.81 40.6357 354.136 40.4936 354.502 40.3977C354.871 40.3018 355.259 40.2344 355.663 40.1953C356.139 40.1456 356.523 40.0994 356.814 40.0568C357.105 40.0107 357.316 39.9432 357.448 39.8544C357.579 39.7656 357.645 39.6342 357.645 39.4602V39.4283C357.645 39.0909 357.538 38.8299 357.325 38.6452C357.116 38.4606 356.818 38.3683 356.43 38.3683C356.022 38.3683 355.697 38.4588 355.456 38.6399C355.214 38.8175 355.054 39.0412 354.976 39.3111L352.878 39.1406C352.984 38.6435 353.194 38.2138 353.506 37.8516C353.819 37.4858 354.222 37.2053 354.715 37.0099C355.212 36.8111 355.788 36.7116 356.441 36.7116C356.896 36.7116 357.331 36.7649 357.746 36.8714C358.165 36.978 358.536 37.1431 358.859 37.3668C359.186 37.5906 359.444 37.8782 359.632 38.2298C359.82 38.5778 359.914 38.995 359.914 39.4815V45H357.762V43.8654H357.698C357.567 44.1211 357.391 44.3466 357.171 44.5419C356.951 44.7337 356.686 44.8846 356.377 44.9947C356.068 45.1012 355.711 45.1545 355.307 45.1545ZM355.956 43.5884C356.29 43.5884 356.585 43.5227 356.841 43.3913C357.096 43.2564 357.297 43.0753 357.443 42.848C357.588 42.6207 357.661 42.3633 357.661 42.0756V41.2074C357.59 41.2536 357.492 41.2962 357.368 41.3352C357.247 41.3707 357.11 41.4045 356.958 41.4364C356.805 41.4648 356.652 41.4915 356.5 41.5163C356.347 41.5376 356.208 41.5572 356.084 41.5749C355.818 41.614 355.585 41.6761 355.386 41.7614C355.188 41.8466 355.033 41.962 354.923 42.1076C354.813 42.2496 354.758 42.4272 354.758 42.6403C354.758 42.9492 354.87 43.1854 355.093 43.3487C355.321 43.5085 355.608 43.5884 355.956 43.5884Z" fill="black"/>
<defs>
<filter id="filter0_d_167_53" x="235" y="332" width="130" height="40" filterUnits="userSpaceOnUse" color-interpolation-filters="sRGB">
<feFlood flood-opacity="0" result="BackgroundImageFix"/>
<feColorMatrix in="SourceAlpha" type="matrix" values="0 0 0 0 0 0 0 0 0 0 0 0 0 0 0 0 0 0 127 0" result="hardAlpha"/>
<feOffset dy="4"/>
<feGaussianBlur stdDeviation="2"/>
<feComposite in2="hardAlpha" operator="out"/>
<feColorMatrix type="matrix" values="0 0 0 0 0 0 0 0 0 0 0 0 0 0 0 0 0 0 0.25 0"/>
<feBlend mode="normal" in2="BackgroundImageFix" result="effect1_dropShadow_167_53"/>
<feBlend mode="normal" in="SourceGraphic" in2="effect1_dropShadow_167_53" result="shape"/>
</filter>
<linearGradient id="paint0_linear_167_53" x1="300" y1="0" x2="300" y2="400" gradientUnits="userSpaceOnUse">
<stop stop-color="#00356E"/>
<stop offset="1" stop-color="#00356E"/>
</linearGradient>
</defs>
</svg>
