<svg width="600" height="400" viewBox="0 0 600 400" fill="none" xmlns="http://www.w3.org/2000/svg">
<rect width="600" height="400" fill="url(#paint0_linear_167_58)"/>
<rect x="25" y="25" width="550" height="350" rx="5" fill="white"/>
<path d="M26 55H574V370C574 372.761 571.761 375 569 375H31C28.2386 375 26 372.761 26 370V55Z" fill="white"/>
<path d="M26 55H574H26ZM575.5 370C575.5 373.59 572.59 376.5 569 376.5H31C27.4101 376.5 24.5 373.59 24.5 370H27.5C27.5 371.933 29.067 373.5 31 373.5H569C570.933 373.5 572.5 371.933 572.5 370H575.5ZM31 376.5C27.4101 376.5 24.5 373.59 24.5 370V55H27.5V370C27.5 371.933 29.067 373.5 31 373.5V376.5ZM575.5 55V370C575.5 373.59 572.59 376.5 569 376.5V373.5C570.933 373.5 572.5 371.933 572.5 370V55H575.5Z" fill="black"/>
<rect x="60" y="65" width="480" height="300" rx="5" fill="white"/>
<g filter="url(#filter0_d_167_58)">
<rect x="225" y="308" width="150" height="40" rx="10" fill="white"/>
<rect x="224.5" y="307.5" width="151" height="41" rx="10.5" stroke="black"/>
</g>
<path d="M265.777 327.185H263.561C263.475 326.711 263.317 326.295 263.085 325.935C262.853 325.575 262.569 325.269 262.233 325.018C261.896 324.768 261.52 324.578 261.103 324.45C260.691 324.322 260.253 324.259 259.789 324.259C258.951 324.259 258.201 324.469 257.538 324.891C256.88 325.312 256.359 325.93 255.975 326.744C255.597 327.559 255.407 328.553 255.407 329.727C255.407 330.911 255.597 331.91 255.975 332.724C256.359 333.539 256.882 334.154 257.545 334.571C258.208 334.988 258.954 335.196 259.782 335.196C260.242 335.196 260.677 335.134 261.089 335.011C261.506 334.884 261.882 334.696 262.218 334.45C262.555 334.204 262.839 333.903 263.071 333.548C263.307 333.188 263.471 332.777 263.561 332.312L265.777 332.32C265.658 333.035 265.429 333.693 265.088 334.294C264.752 334.891 264.318 335.407 263.788 335.842C263.262 336.273 262.661 336.607 261.984 336.844C261.307 337.08 260.568 337.199 259.768 337.199C258.509 337.199 257.386 336.901 256.402 336.304C255.417 335.703 254.64 334.843 254.072 333.726C253.509 332.608 253.227 331.276 253.227 329.727C253.227 328.174 253.511 326.841 254.079 325.729C254.647 324.611 255.424 323.754 256.409 323.158C257.394 322.556 258.513 322.256 259.768 322.256C260.54 322.256 261.26 322.367 261.927 322.589C262.6 322.807 263.203 323.129 263.738 323.555C264.273 323.977 264.716 324.493 265.066 325.104C265.417 325.71 265.654 326.403 265.777 327.185ZM271.407 337.241C270.716 337.241 270.091 337.114 269.532 336.858C268.973 336.598 268.531 336.221 268.204 335.729C267.882 335.236 267.721 334.633 267.721 333.918C267.721 333.302 267.839 332.795 268.076 332.398C268.313 332 268.632 331.685 269.035 331.453C269.437 331.221 269.887 331.046 270.384 330.928C270.881 330.809 271.388 330.719 271.904 330.658C272.558 330.582 273.088 330.52 273.495 330.473C273.902 330.421 274.198 330.338 274.383 330.224C274.567 330.111 274.66 329.926 274.66 329.67V329.621C274.66 329 274.485 328.52 274.134 328.179C273.789 327.838 273.272 327.668 272.586 327.668C271.871 327.668 271.308 327.826 270.896 328.143C270.488 328.456 270.207 328.804 270.05 329.188L268.055 328.733C268.291 328.07 268.637 327.535 269.092 327.128C269.551 326.716 270.079 326.418 270.675 326.233C271.272 326.044 271.899 325.949 272.558 325.949C272.993 325.949 273.455 326.001 273.942 326.105C274.435 326.205 274.894 326.389 275.32 326.659C275.751 326.929 276.104 327.315 276.379 327.817C276.653 328.314 276.79 328.96 276.79 329.756V337H274.717V335.509H274.631C274.494 335.783 274.288 336.053 274.013 336.318C273.739 336.583 273.386 336.804 272.955 336.979C272.524 337.154 272.008 337.241 271.407 337.241ZM271.869 335.537C272.456 335.537 272.958 335.421 273.374 335.189C273.796 334.957 274.115 334.654 274.333 334.28C274.556 333.901 274.667 333.496 274.667 333.065V331.659C274.591 331.735 274.444 331.806 274.227 331.872C274.013 331.934 273.77 331.988 273.495 332.036C273.22 332.078 272.953 332.118 272.692 332.156C272.432 332.189 272.214 332.218 272.039 332.241C271.627 332.294 271.251 332.381 270.91 332.504C270.574 332.627 270.304 332.805 270.1 333.037C269.901 333.264 269.802 333.567 269.802 333.946C269.802 334.472 269.996 334.869 270.384 335.139C270.772 335.404 271.267 335.537 271.869 335.537ZM283.703 337.213C282.822 337.213 282.036 336.988 281.345 336.538C280.658 336.084 280.118 335.437 279.725 334.599C279.337 333.757 279.143 332.746 279.143 331.567C279.143 330.388 279.34 329.379 279.733 328.541C280.13 327.703 280.675 327.062 281.366 326.616C282.057 326.171 282.841 325.949 283.717 325.949C284.394 325.949 284.939 326.062 285.35 326.29C285.767 326.512 286.089 326.773 286.316 327.071C286.548 327.369 286.728 327.632 286.856 327.859H286.984V322.455H289.108V337H287.034V335.303H286.856C286.728 335.535 286.544 335.8 286.302 336.098C286.065 336.396 285.739 336.657 285.322 336.879C284.905 337.102 284.366 337.213 283.703 337.213ZM284.172 335.402C284.782 335.402 285.298 335.241 285.72 334.919C286.146 334.592 286.468 334.14 286.686 333.562C286.908 332.985 287.02 332.312 287.02 331.545C287.02 330.788 286.911 330.125 286.693 329.557C286.475 328.989 286.155 328.546 285.734 328.229C285.313 327.911 284.792 327.753 284.172 327.753C283.532 327.753 283 327.919 282.574 328.25C282.147 328.581 281.825 329.034 281.608 329.607C281.395 330.179 281.288 330.826 281.288 331.545C281.288 332.275 281.397 332.93 281.615 333.513C281.833 334.095 282.154 334.557 282.581 334.898C283.011 335.234 283.542 335.402 284.172 335.402ZM295.313 337.241C294.622 337.241 293.997 337.114 293.438 336.858C292.879 336.598 292.437 336.221 292.11 335.729C291.788 335.236 291.627 334.633 291.627 333.918C291.627 333.302 291.746 332.795 291.982 332.398C292.219 332 292.539 331.685 292.941 331.453C293.344 331.221 293.793 331.046 294.29 330.928C294.788 330.809 295.294 330.719 295.81 330.658C296.464 330.582 296.994 330.52 297.401 330.473C297.808 330.421 298.104 330.338 298.289 330.224C298.474 330.111 298.566 329.926 298.566 329.67V329.621C298.566 329 298.391 328.52 298.04 328.179C297.695 327.838 297.179 327.668 296.492 327.668C295.777 327.668 295.214 327.826 294.802 328.143C294.395 328.456 294.113 328.804 293.957 329.188L291.961 328.733C292.198 328.07 292.543 327.535 292.998 327.128C293.457 326.716 293.985 326.418 294.582 326.233C295.178 326.044 295.806 325.949 296.464 325.949C296.899 325.949 297.361 326.001 297.849 326.105C298.341 326.205 298.8 326.389 299.227 326.659C299.657 326.929 300.01 327.315 300.285 327.817C300.559 328.314 300.697 328.96 300.697 329.756V337H298.623V335.509H298.538C298.4 335.783 298.194 336.053 297.92 336.318C297.645 336.583 297.292 336.804 296.862 336.979C296.431 337.154 295.915 337.241 295.313 337.241ZM295.775 335.537C296.362 335.537 296.864 335.421 297.281 335.189C297.702 334.957 298.022 334.654 298.239 334.28C298.462 333.901 298.573 333.496 298.573 333.065V331.659C298.497 331.735 298.351 331.806 298.133 331.872C297.92 331.934 297.676 331.988 297.401 332.036C297.127 332.078 296.859 332.118 296.599 332.156C296.338 332.189 296.121 332.218 295.945 332.241C295.533 332.294 295.157 332.381 294.816 332.504C294.48 332.627 294.21 332.805 294.006 333.037C293.808 333.264 293.708 333.567 293.708 333.946C293.708 334.472 293.902 334.869 294.29 335.139C294.679 335.404 295.174 335.537 295.775 335.537ZM311.7 328.754L309.775 329.095C309.695 328.849 309.567 328.615 309.392 328.392C309.221 328.17 308.989 327.987 308.696 327.845C308.402 327.703 308.035 327.632 307.595 327.632C306.993 327.632 306.492 327.767 306.089 328.037C305.687 328.302 305.485 328.645 305.485 329.067C305.485 329.431 305.62 329.725 305.89 329.947C306.16 330.17 306.596 330.352 307.197 330.494L308.93 330.892C309.934 331.124 310.682 331.482 311.174 331.964C311.667 332.447 311.913 333.075 311.913 333.847C311.913 334.5 311.724 335.082 311.345 335.594C310.971 336.1 310.448 336.498 309.775 336.787C309.108 337.076 308.333 337.22 307.453 337.22C306.231 337.22 305.234 336.96 304.463 336.439C303.691 335.913 303.217 335.168 303.042 334.202L305.095 333.889C305.223 334.424 305.485 334.829 305.883 335.104C306.281 335.374 306.799 335.509 307.439 335.509C308.135 335.509 308.691 335.364 309.108 335.075C309.524 334.782 309.733 334.424 309.733 334.003C309.733 333.662 309.605 333.375 309.349 333.143C309.098 332.911 308.712 332.736 308.191 332.618L306.345 332.213C305.327 331.981 304.574 331.612 304.086 331.105C303.603 330.598 303.362 329.957 303.362 329.18C303.362 328.536 303.542 327.973 303.902 327.49C304.261 327.007 304.759 326.631 305.393 326.361C306.028 326.086 306.754 325.949 307.574 325.949C308.752 325.949 309.681 326.205 310.358 326.716C311.035 327.223 311.482 327.902 311.7 328.754ZM319.34 326.091V327.795H313.381V326.091H319.34ZM314.979 323.477H317.103V333.797C317.103 334.209 317.165 334.519 317.288 334.727C317.411 334.931 317.569 335.071 317.763 335.146C317.962 335.217 318.178 335.253 318.41 335.253C318.58 335.253 318.729 335.241 318.857 335.217C318.985 335.194 319.085 335.175 319.156 335.161L319.539 336.915C319.416 336.962 319.241 337.009 319.013 337.057C318.786 337.109 318.502 337.137 318.161 337.142C317.603 337.152 317.082 337.052 316.599 336.844C316.116 336.635 315.725 336.313 315.427 335.878C315.129 335.442 314.979 334.895 314.979 334.237V323.477ZM321.689 337V326.091H323.742V327.824H323.855C324.054 327.237 324.405 326.775 324.907 326.439C325.413 326.098 325.986 325.928 326.625 325.928C326.758 325.928 326.914 325.932 327.094 325.942C327.279 325.951 327.423 325.963 327.527 325.977V328.009C327.442 327.985 327.291 327.959 327.073 327.93C326.855 327.897 326.637 327.881 326.419 327.881C325.917 327.881 325.47 327.987 325.077 328.2C324.689 328.409 324.381 328.7 324.154 329.074C323.926 329.443 323.813 329.865 323.813 330.338V337H321.689ZM332.442 337.241C331.751 337.241 331.126 337.114 330.567 336.858C330.008 336.598 329.566 336.221 329.239 335.729C328.917 335.236 328.756 334.633 328.756 333.918C328.756 333.302 328.874 332.795 329.111 332.398C329.348 332 329.667 331.685 330.07 331.453C330.472 331.221 330.922 331.046 331.419 330.928C331.917 330.809 332.423 330.719 332.939 330.658C333.593 330.582 334.123 330.52 334.53 330.473C334.937 330.421 335.233 330.338 335.418 330.224C335.603 330.111 335.695 329.926 335.695 329.67V329.621C335.695 329 335.52 328.52 335.169 328.179C334.824 327.838 334.308 327.668 333.621 327.668C332.906 327.668 332.343 327.826 331.931 328.143C331.524 328.456 331.242 328.804 331.086 329.188L329.09 328.733C329.327 328.07 329.672 327.535 330.127 327.128C330.586 326.716 331.114 326.418 331.711 326.233C332.307 326.044 332.935 325.949 333.593 325.949C334.028 325.949 334.49 326.001 334.978 326.105C335.47 326.205 335.929 326.389 336.355 326.659C336.786 326.929 337.139 327.315 337.414 327.817C337.688 328.314 337.826 328.96 337.826 329.756V337H335.752V335.509H335.667C335.529 335.783 335.323 336.053 335.049 336.318C334.774 336.583 334.421 336.804 333.99 336.979C333.56 337.154 333.043 337.241 332.442 337.241ZM332.904 335.537C333.491 335.537 333.993 335.421 334.409 335.189C334.831 334.957 335.15 334.654 335.368 334.28C335.591 333.901 335.702 333.496 335.702 333.065V331.659C335.626 331.735 335.48 331.806 335.262 331.872C335.049 331.934 334.805 331.988 334.53 332.036C334.256 332.078 333.988 332.118 333.728 332.156C333.467 332.189 333.249 332.218 333.074 332.241C332.662 332.294 332.286 332.381 331.945 332.504C331.609 332.627 331.339 332.805 331.135 333.037C330.936 333.264 330.837 333.567 330.837 333.946C330.837 334.472 331.031 334.869 331.419 335.139C331.808 335.404 332.302 335.537 332.904 335.537ZM340.654 337V326.091H342.707V327.824H342.82C343.019 327.237 343.37 326.775 343.871 326.439C344.378 326.098 344.951 325.928 345.59 325.928C345.723 325.928 345.879 325.932 346.059 325.942C346.244 325.951 346.388 325.963 346.492 325.977V328.009C346.407 327.985 346.255 327.959 346.038 327.93C345.82 327.897 345.602 327.881 345.384 327.881C344.882 327.881 344.435 327.987 344.042 328.2C343.654 328.409 343.346 328.7 343.119 329.074C342.891 329.443 342.778 329.865 342.778 330.338V337H340.654Z" fill="black"/>
<rect x="310" y="239" width="220" height="55" fill="white"/>
<line x1="322.222" y1="287.522" x2="517.778" y2="287.522" stroke="black"/>
<path d="M329.088 248.815C329.046 248.386 328.863 248.052 328.54 247.814C328.216 247.576 327.778 247.457 327.224 247.457C326.848 247.457 326.53 247.51 326.27 247.617C326.011 247.72 325.812 247.864 325.674 248.048C325.539 248.233 325.471 248.442 325.471 248.677C325.464 248.872 325.505 249.043 325.594 249.188C325.686 249.334 325.812 249.46 325.972 249.566C326.132 249.669 326.317 249.76 326.526 249.838C326.736 249.913 326.959 249.976 327.197 250.03L328.177 250.264C328.653 250.371 329.09 250.513 329.488 250.69C329.886 250.868 330.23 251.086 330.521 251.345C330.812 251.605 331.038 251.91 331.198 252.262C331.361 252.613 331.444 253.016 331.448 253.471C331.444 254.138 331.274 254.717 330.937 255.207C330.603 255.694 330.12 256.072 329.488 256.342C328.859 256.608 328.101 256.741 327.213 256.741C326.333 256.741 325.566 256.606 324.912 256.337C324.262 256.067 323.754 255.667 323.389 255.138C323.027 254.605 322.837 253.947 322.819 253.162H325.051C325.076 253.528 325.18 253.833 325.365 254.078C325.553 254.32 325.803 254.502 326.116 254.627C326.432 254.747 326.789 254.808 327.187 254.808C327.577 254.808 327.916 254.751 328.204 254.637C328.495 254.524 328.721 254.366 328.881 254.163C329.04 253.961 329.12 253.728 329.12 253.465C329.12 253.22 329.047 253.014 328.902 252.848C328.76 252.681 328.55 252.539 328.273 252.421C328 252.304 327.664 252.198 327.267 252.102L326.079 251.804C325.159 251.58 324.433 251.23 323.9 250.754C323.367 250.278 323.103 249.637 323.106 248.831C323.103 248.171 323.279 247.594 323.634 247.1C323.992 246.606 324.484 246.221 325.109 245.944C325.734 245.667 326.444 245.529 327.24 245.529C328.05 245.529 328.756 245.667 329.36 245.944C329.967 246.221 330.439 246.606 330.777 247.1C331.114 247.594 331.288 248.165 331.299 248.815H329.088ZM336.686 256.747C335.844 256.747 335.119 256.576 334.512 256.235C333.909 255.891 333.443 255.404 333.117 254.776C332.79 254.144 332.627 253.396 332.627 252.533C332.627 251.692 332.79 250.953 333.117 250.317C333.443 249.682 333.903 249.186 334.496 248.831C335.093 248.476 335.792 248.299 336.595 248.299C337.135 248.299 337.637 248.386 338.102 248.56C338.571 248.73 338.98 248.987 339.328 249.332C339.679 249.676 339.953 250.11 340.148 250.632C340.343 251.15 340.441 251.757 340.441 252.453V253.077H333.532V251.67H338.305C338.305 251.344 338.234 251.054 338.092 250.802C337.95 250.55 337.753 250.353 337.5 250.211C337.252 250.065 336.962 249.992 336.632 249.992C336.288 249.992 335.982 250.072 335.716 250.232C335.453 250.388 335.247 250.6 335.098 250.866C334.949 251.129 334.873 251.422 334.869 251.745V253.082C334.869 253.487 334.944 253.837 335.093 254.131C335.246 254.426 335.46 254.653 335.737 254.813C336.014 254.973 336.343 255.053 336.723 255.053C336.975 255.053 337.206 255.017 337.415 254.946C337.625 254.875 337.804 254.769 337.953 254.627C338.102 254.485 338.216 254.311 338.294 254.105L340.393 254.243C340.286 254.747 340.068 255.188 339.738 255.564C339.411 255.937 338.988 256.228 338.47 256.438C337.955 256.644 337.36 256.747 336.686 256.747ZM344.191 251.857V256.587H341.922V248.405H344.084V249.849H344.18C344.361 249.373 344.665 248.996 345.091 248.719C345.517 248.439 346.034 248.299 346.641 248.299C347.209 248.299 347.705 248.423 348.127 248.671C348.55 248.92 348.878 249.275 349.113 249.737C349.347 250.195 349.464 250.742 349.464 251.377V256.587H347.195V251.782C347.199 251.282 347.071 250.891 346.812 250.61C346.552 250.326 346.195 250.184 345.741 250.184C345.436 250.184 345.166 250.25 344.931 250.381C344.7 250.513 344.519 250.704 344.388 250.957C344.26 251.205 344.194 251.505 344.191 251.857ZM353.522 251.857V256.587H351.253V245.678H353.458V249.849H353.554C353.739 249.366 354.037 248.987 354.449 248.714C354.861 248.437 355.377 248.299 355.999 248.299C356.567 248.299 357.062 248.423 357.485 248.671C357.911 248.916 358.241 249.27 358.476 249.731C358.714 250.19 358.831 250.738 358.827 251.377V256.587H356.558V251.782C356.562 251.278 356.434 250.886 356.175 250.605C355.919 250.324 355.56 250.184 355.099 250.184C354.79 250.184 354.516 250.25 354.278 250.381C354.044 250.513 353.859 250.704 353.724 250.957C353.593 251.205 353.525 251.505 353.522 251.857ZM362.946 256.741C362.424 256.741 361.959 256.651 361.551 256.47C361.142 256.285 360.819 256.013 360.581 255.655C360.347 255.293 360.23 254.842 360.23 254.302C360.23 253.847 360.313 253.465 360.48 253.157C360.647 252.848 360.874 252.599 361.162 252.411C361.449 252.223 361.776 252.081 362.142 251.985C362.511 251.889 362.898 251.821 363.303 251.782C363.779 251.733 364.162 251.686 364.454 251.644C364.745 251.598 364.956 251.53 365.087 251.441C365.219 251.353 365.285 251.221 365.285 251.047V251.015C365.285 250.678 365.178 250.417 364.965 250.232C364.755 250.047 364.457 249.955 364.07 249.955C363.662 249.955 363.337 250.046 363.095 250.227C362.854 250.404 362.694 250.628 362.616 250.898L360.517 250.728C360.624 250.23 360.833 249.801 361.146 249.438C361.458 249.073 361.861 248.792 362.355 248.597C362.852 248.398 363.427 248.299 364.081 248.299C364.535 248.299 364.97 248.352 365.386 248.458C365.805 248.565 366.176 248.73 366.499 248.954C366.826 249.177 367.083 249.465 367.271 249.817C367.46 250.165 367.554 250.582 367.554 251.068V256.587H365.402V255.452H365.338C365.206 255.708 365.031 255.934 364.811 256.129C364.59 256.321 364.326 256.472 364.017 256.582C363.708 256.688 363.351 256.741 362.946 256.741ZM363.596 255.175C363.93 255.175 364.225 255.11 364.48 254.978C364.736 254.843 364.937 254.662 365.082 254.435C365.228 254.208 365.301 253.95 365.301 253.663V252.794C365.23 252.84 365.132 252.883 365.008 252.922C364.887 252.958 364.75 252.991 364.597 253.023C364.445 253.052 364.292 253.078 364.139 253.103C363.987 253.125 363.848 253.144 363.724 253.162C363.458 253.201 363.225 253.263 363.026 253.348C362.827 253.434 362.673 253.549 362.563 253.695C362.453 253.837 362.398 254.014 362.398 254.227C362.398 254.536 362.509 254.772 362.733 254.936C362.96 255.095 363.248 255.175 363.596 255.175Z" fill="black"/>
<rect x="80" y="239" width="220" height="55" fill="white"/>
<line x1="91" y1="286.5" x2="286" y2="286.5" stroke="black"/>
<path d="M91.9482 257V246.091H99.299V247.993H94.2546V250.592H98.9208V252.494H94.2546V255.098H99.3203V257H91.9482ZM101.09 257V248.818H103.253V250.262H103.349C103.519 249.782 103.803 249.404 104.201 249.127C104.599 248.85 105.074 248.712 105.628 248.712C106.19 248.712 106.667 248.852 107.061 249.132C107.456 249.409 107.718 249.786 107.85 250.262H107.935C108.102 249.793 108.404 249.418 108.84 249.138C109.281 248.854 109.801 248.712 110.401 248.712C111.165 248.712 111.784 248.955 112.26 249.441C112.74 249.924 112.979 250.61 112.979 251.498V257H110.715V251.945C110.715 251.49 110.595 251.15 110.353 250.922C110.112 250.695 109.81 250.581 109.448 250.581C109.036 250.581 108.714 250.713 108.484 250.975C108.253 251.235 108.137 251.577 108.137 252.004V257H105.937V251.897C105.937 251.496 105.822 251.176 105.591 250.938C105.364 250.7 105.064 250.581 104.691 250.581C104.439 250.581 104.212 250.645 104.009 250.773C103.81 250.897 103.652 251.073 103.535 251.3C103.418 251.524 103.359 251.787 103.359 252.089V257H101.09ZM117.105 257.154C116.583 257.154 116.118 257.064 115.709 256.883C115.301 256.698 114.978 256.426 114.74 256.068C114.505 255.706 114.388 255.255 114.388 254.715C114.388 254.26 114.472 253.879 114.639 253.57C114.805 253.261 115.033 253.012 115.32 252.824C115.608 252.636 115.935 252.494 116.301 252.398C116.67 252.302 117.057 252.234 117.462 252.195C117.938 252.146 118.321 252.099 118.612 252.057C118.903 252.011 119.115 251.943 119.246 251.854C119.378 251.766 119.443 251.634 119.443 251.46V251.428C119.443 251.091 119.337 250.83 119.124 250.645C118.914 250.461 118.616 250.368 118.229 250.368C117.82 250.368 117.495 250.459 117.254 250.64C117.013 250.817 116.853 251.041 116.775 251.311L114.676 251.141C114.782 250.643 114.992 250.214 115.304 249.852C115.617 249.486 116.02 249.205 116.514 249.01C117.011 248.811 117.586 248.712 118.239 248.712C118.694 248.712 119.129 248.765 119.544 248.871C119.964 248.978 120.335 249.143 120.658 249.367C120.984 249.591 121.242 249.878 121.43 250.23C121.618 250.578 121.712 250.995 121.712 251.482V257H119.56V255.865H119.497C119.365 256.121 119.189 256.347 118.969 256.542C118.749 256.734 118.484 256.885 118.176 256.995C117.867 257.101 117.51 257.154 117.105 257.154ZM117.755 255.588C118.089 255.588 118.383 255.523 118.639 255.391C118.895 255.256 119.095 255.075 119.241 254.848C119.386 254.621 119.459 254.363 119.459 254.076V253.207C119.388 253.254 119.291 253.296 119.166 253.335C119.046 253.371 118.909 253.404 118.756 253.436C118.603 253.465 118.451 253.491 118.298 253.516C118.145 253.538 118.007 253.557 117.883 253.575C117.616 253.614 117.384 253.676 117.185 253.761C116.986 253.847 116.831 253.962 116.721 254.108C116.611 254.25 116.556 254.427 116.556 254.64C116.556 254.949 116.668 255.185 116.892 255.349C117.119 255.509 117.407 255.588 117.755 255.588ZM123.473 257V248.818H125.742V257H123.473ZM124.613 247.763C124.275 247.763 123.986 247.652 123.745 247.428C123.507 247.201 123.388 246.929 123.388 246.613C123.388 246.3 123.507 246.032 123.745 245.809C123.986 245.581 124.275 245.468 124.613 245.468C124.95 245.468 125.238 245.581 125.476 245.809C125.717 246.032 125.838 246.3 125.838 246.613C125.838 246.929 125.717 247.201 125.476 247.428C125.238 247.652 124.95 247.763 124.613 247.763ZM129.829 246.091V257H127.56V246.091H129.829Z" fill="black"/>
<rect x="310" y="161" width="220" height="55" fill="white"/>
<path d="M322.222 209.522H517.778" stroke="black"/>
<path d="M332.796 171.497H330.463C330.42 171.195 330.333 170.927 330.202 170.693C330.07 170.455 329.902 170.252 329.696 170.085C329.49 169.919 329.252 169.791 328.982 169.702C328.715 169.613 328.426 169.569 328.114 169.569C327.549 169.569 327.057 169.709 326.638 169.99C326.219 170.267 325.894 170.671 325.663 171.204C325.432 171.733 325.317 172.376 325.317 173.132C325.317 173.91 325.432 174.563 325.663 175.093C325.898 175.622 326.224 176.021 326.643 176.291C327.062 176.561 327.547 176.696 328.098 176.696C328.406 176.696 328.692 176.655 328.955 176.573C329.221 176.492 329.458 176.373 329.664 176.217C329.87 176.057 330.04 175.863 330.175 175.636C330.313 175.409 330.409 175.149 330.463 174.858L332.796 174.869C332.735 175.37 332.584 175.853 332.343 176.318C332.105 176.779 331.784 177.193 331.379 177.559C330.977 177.921 330.498 178.209 329.941 178.422C329.387 178.631 328.76 178.736 328.06 178.736C327.087 178.736 326.217 178.516 325.45 178.076C324.687 177.635 324.083 176.998 323.639 176.163C323.199 175.329 322.979 174.318 322.979 173.132C322.979 171.943 323.202 170.931 323.65 170.096C324.097 169.262 324.704 168.626 325.471 168.189C326.239 167.749 327.101 167.529 328.06 167.529C328.692 167.529 329.278 167.617 329.818 167.795C330.361 167.973 330.843 168.232 331.262 168.573C331.681 168.91 332.022 169.324 332.284 169.814C332.551 170.304 332.721 170.865 332.796 171.497ZM334.45 178.587V167.678H338.754C339.577 167.678 340.281 167.825 340.863 168.12C341.449 168.411 341.895 168.825 342.2 169.361C342.509 169.894 342.663 170.521 342.663 171.241C342.663 171.966 342.507 172.589 342.195 173.111C341.882 173.63 341.429 174.027 340.836 174.304C340.247 174.581 339.533 174.72 338.695 174.72H335.813V172.866H338.322C338.762 172.866 339.128 172.806 339.419 172.685C339.711 172.564 339.927 172.383 340.069 172.142C340.215 171.9 340.288 171.6 340.288 171.241C340.288 170.879 340.215 170.574 340.069 170.325C339.927 170.077 339.709 169.888 339.414 169.761C339.123 169.629 338.755 169.563 338.311 169.563H336.756V178.587H334.45ZM340.341 173.622L343.052 178.587H340.506L337.853 173.622H340.341ZM344.293 167.678H347.138L350.142 175.007H350.27L353.274 167.678H356.119V178.587H353.881V171.486H353.791L350.968 178.534H349.444L346.621 171.46H346.531V178.587H344.293V167.678Z" fill="black"/>
<rect x="79" y="161" width="220" height="55" fill="white"/>
<path d="M91 210H286" stroke="black"/>
<path d="M101.796 171.497H99.4626C99.42 171.195 99.333 170.927 99.2016 170.693C99.0702 170.455 98.9015 170.252 98.6955 170.085C98.4896 169.919 98.2516 169.791 97.9818 169.702C97.7154 169.613 97.426 169.569 97.1135 169.569C96.5489 169.569 96.057 169.709 95.638 169.99C95.219 170.267 94.894 170.671 94.6632 171.204C94.4324 171.733 94.317 172.376 94.317 173.132C94.317 173.91 94.4324 174.563 94.6632 175.093C94.8976 175.622 95.2243 176.021 95.6433 176.291C96.0624 176.561 96.5471 176.696 97.0975 176.696C97.4065 176.696 97.6923 176.655 97.9551 176.573C98.2215 176.492 98.4576 176.373 98.6636 176.217C98.8695 176.057 99.04 175.863 99.1749 175.636C99.3134 175.409 99.4093 175.149 99.4626 174.858L101.796 174.869C101.735 175.37 101.584 175.853 101.343 176.318C101.105 176.779 100.784 177.193 100.379 177.559C99.9775 177.921 99.4981 178.209 98.9406 178.422C98.3866 178.631 97.7598 178.736 97.0602 178.736C96.0872 178.736 95.2172 178.516 94.4502 178.076C93.6867 177.635 93.083 176.998 92.6391 176.163C92.1987 175.329 91.9786 174.318 91.9786 173.132C91.9786 171.943 92.2023 170.931 92.6497 170.096C93.0972 169.262 93.7044 168.626 94.4715 168.189C95.2385 167.749 96.1014 167.529 97.0602 167.529C97.6923 167.529 98.2783 167.617 98.818 167.795C99.3614 167.973 99.8426 168.232 100.262 168.573C100.681 168.91 101.022 169.324 101.284 169.814C101.551 170.304 101.721 170.865 101.796 171.497ZM103.45 178.587V167.678H107.754C108.581 167.678 109.286 167.836 109.868 168.152C110.451 168.464 110.895 168.899 111.2 169.457C111.509 170.011 111.663 170.65 111.663 171.375C111.663 172.099 111.507 172.738 111.195 173.292C110.882 173.846 110.429 174.278 109.836 174.587C109.247 174.896 108.533 175.05 107.695 175.05H104.952V173.202H107.322C107.766 173.202 108.132 173.125 108.419 172.973C108.711 172.816 108.927 172.601 109.069 172.328C109.215 172.051 109.288 171.733 109.288 171.375C109.288 171.012 109.215 170.696 109.069 170.426C108.927 170.153 108.711 169.942 108.419 169.793C108.128 169.64 107.759 169.563 107.311 169.563H105.756V178.587H103.45ZM113.162 178.587V167.678H120.385V169.579H115.468V172.179H119.905V174.081H115.468V178.587H113.162Z" fill="black"/>
<rect x="76" y="83" width="451" height="55" fill="white"/>
<line x1="87" y1="130.5" x2="517" y2="130.5" stroke="black"/>
<path d="M98.0728 89.0909V100H96.0806L91.3345 93.1339H91.2546V100H88.9482V89.0909H90.9723L95.6811 95.9517H95.777V89.0909H98.0728ZM103.633 100.16C102.805 100.16 102.09 99.984 101.486 99.6325C100.886 99.2773 100.422 98.7837 100.096 98.1516C99.7689 97.516 99.6056 96.7791 99.6056 95.9411C99.6056 95.0959 99.7689 94.3572 100.096 93.7251C100.422 93.0895 100.886 92.5959 101.486 92.2443C102.09 91.8892 102.805 91.7116 103.633 91.7116C104.46 91.7116 105.174 91.8892 105.774 92.2443C106.378 92.5959 106.843 93.0895 107.169 93.7251C107.496 94.3572 107.66 95.0959 107.66 95.9411C107.66 96.7791 107.496 97.516 107.169 98.1516C106.843 98.7837 106.378 99.2773 105.774 99.6325C105.174 99.984 104.46 100.16 103.633 100.16ZM103.643 98.402C104.02 98.402 104.334 98.2955 104.586 98.0824C104.838 97.8658 105.028 97.571 105.156 97.1982C105.287 96.8253 105.353 96.4009 105.353 95.9251C105.353 95.4492 105.287 95.0249 105.156 94.652C105.028 94.2791 104.838 93.9844 104.586 93.7678C104.334 93.5511 104.02 93.4428 103.643 93.4428C103.263 93.4428 102.944 93.5511 102.684 93.7678C102.429 93.9844 102.235 94.2791 102.104 94.652C101.976 95.0249 101.912 95.4492 101.912 95.9251C101.912 96.4009 101.976 96.8253 102.104 97.1982C102.235 97.571 102.429 97.8658 102.684 98.0824C102.944 98.2955 103.263 98.402 103.643 98.402ZM109.135 100V91.8182H111.298V93.2617H111.394C111.564 92.7823 111.848 92.4041 112.246 92.1271C112.644 91.8501 113.119 91.7116 113.673 91.7116C114.234 91.7116 114.712 91.8519 115.106 92.1325C115.5 92.4094 115.763 92.7859 115.895 93.2617H115.98C116.147 92.793 116.449 92.4183 116.885 92.1378C117.326 91.8537 117.846 91.7116 118.446 91.7116C119.21 91.7116 119.829 91.9549 120.305 92.4414C120.785 92.9244 121.024 93.6097 121.024 94.4975V100H118.76V94.945C118.76 94.4904 118.64 94.1495 118.398 93.9222C118.157 93.695 117.855 93.5813 117.493 93.5813C117.081 93.5813 116.759 93.7127 116.528 93.9755C116.298 94.2347 116.182 94.5774 116.182 95.0036V100H113.982V94.897C113.982 94.4957 113.867 94.1761 113.636 93.9382C113.409 93.7003 113.109 93.5813 112.736 93.5813C112.484 93.5813 112.256 93.6452 112.054 93.7731C111.855 93.8974 111.697 94.0732 111.58 94.3004C111.463 94.5241 111.404 94.7869 111.404 95.0888V100H109.135ZM126.545 100.16C125.704 100.16 124.979 99.9893 124.372 99.6484C123.768 99.304 123.303 98.8175 122.976 98.1889C122.65 97.5568 122.486 96.8093 122.486 95.9464C122.486 95.1048 122.65 94.3661 122.976 93.7305C123.303 93.0948 123.763 92.5994 124.356 92.2443C124.953 91.8892 125.652 91.7116 126.455 91.7116C126.995 91.7116 127.497 91.7987 127.962 91.9727C128.431 92.1431 128.839 92.4006 129.187 92.745C129.539 93.0895 129.812 93.5227 130.008 94.0447C130.203 94.5632 130.301 95.1705 130.301 95.8665V96.4897H123.392V95.0835H128.165C128.165 94.7567 128.094 94.4673 127.952 94.2152C127.81 93.9631 127.612 93.766 127.36 93.6239C127.112 93.4783 126.822 93.4055 126.492 93.4055C126.148 93.4055 125.842 93.4854 125.576 93.6452C125.313 93.8015 125.107 94.0128 124.958 94.2791C124.809 94.5419 124.733 94.8349 124.729 95.158V96.495C124.729 96.8999 124.804 97.2496 124.953 97.5444C125.105 97.8391 125.32 98.0664 125.597 98.2262C125.874 98.386 126.203 98.4659 126.583 98.4659C126.835 98.4659 127.066 98.4304 127.275 98.3594C127.485 98.2884 127.664 98.1818 127.813 98.0398C127.962 97.8977 128.076 97.7237 128.154 97.5178L130.253 97.6562C130.146 98.1605 129.928 98.6009 129.598 98.9773C129.271 99.3501 128.848 99.6413 128.33 99.8509C127.815 100.057 127.22 100.16 126.545 100.16Z" fill="black"/>
<path d="M26 30C26 27.2386 28.2386 25 31 25H569C571.761 25 574 27.2386 574 30V55H26V30Z" fill="white" stroke="black" stroke-width="2" stroke-linejoin="bevel"/>
<path d="M391.67 25H569.67C572.431 25 574.67 27.2386 574.67 30V55H391.67V25Z" fill="white"/>
<path d="M391.67 25H574.67H391.67ZM574.67 56.5H391.17L392.17 53.5H574.67V56.5ZM391.17 56.5V25H392.17V53.5L391.17 56.5ZM574.67 25V55V25Z" fill="black"/>
<path d="M411.733 36.9744C411.659 36.7151 411.554 36.4861 411.419 36.2872C411.284 36.0848 411.119 35.9144 410.924 35.7759C410.732 35.6338 410.512 35.5255 410.263 35.4509C410.018 35.3764 409.746 35.3391 409.448 35.3391C408.891 35.3391 408.4 35.4776 407.978 35.7545C407.559 36.0315 407.232 36.4346 406.998 36.9637C406.763 37.4893 406.646 38.132 406.646 38.892C406.646 39.6519 406.762 40.2982 406.992 40.8309C407.223 41.3636 407.55 41.7702 407.973 42.0507C408.395 42.3277 408.894 42.4662 409.469 42.4662C409.991 42.4662 410.437 42.3739 410.806 42.1892C411.179 42.001 411.463 41.7364 411.659 41.3955C411.858 41.0546 411.957 40.6516 411.957 40.1864L412.426 40.2556H409.613V38.5191H414.178V39.8934C414.178 40.8522 413.976 41.6761 413.571 42.365C413.166 43.0504 412.609 43.5795 411.898 43.9523C411.188 44.3217 410.375 44.5063 409.459 44.5063C408.436 44.5063 407.538 44.2808 406.763 43.8298C405.989 43.3753 405.386 42.7308 404.952 41.8962C404.523 41.0582 404.308 40.0639 404.308 38.9133C404.308 38.0291 404.436 37.2407 404.691 36.5482C404.951 35.8522 405.313 35.2627 405.778 34.7798C406.243 34.2968 406.785 33.9293 407.403 33.6771C408.021 33.425 408.69 33.2989 409.411 33.2989C410.029 33.2989 410.604 33.3895 411.137 33.5706C411.669 33.7482 412.142 34.0003 412.554 34.327C412.969 34.6537 413.308 35.0425 413.571 35.4935C413.834 35.941 414.002 36.4346 414.077 36.9744H411.733ZM419.597 44.517C418.755 44.517 418.031 44.3465 417.423 44.0056C416.82 43.6612 416.355 43.1746 416.028 42.5461C415.701 41.914 415.538 41.1665 415.538 40.3036C415.538 39.4619 415.701 38.7233 416.028 38.0876C416.355 37.452 416.814 36.9566 417.407 36.6015C418.004 36.2464 418.704 36.0688 419.506 36.0688C420.046 36.0688 420.548 36.1558 421.014 36.3298C421.482 36.5003 421.891 36.7577 422.239 37.1022C422.59 37.4467 422.864 37.8799 423.059 38.4019C423.254 38.9204 423.352 39.5276 423.352 40.2237V40.8469H416.443V39.4406H421.216C421.216 39.1139 421.145 38.8245 421.003 38.5724C420.861 38.3202 420.664 38.1232 420.412 37.9811C420.163 37.8355 419.874 37.7627 419.544 37.7627C419.199 37.7627 418.894 37.8426 418.627 38.0024C418.365 38.1587 418.159 38.37 418.009 38.6363C417.86 38.8991 417.784 39.192 417.78 39.5152V40.8522C417.78 41.257 417.855 41.6068 418.004 41.9016C418.157 42.1963 418.372 42.4236 418.649 42.5834C418.926 42.7432 419.254 42.8231 419.634 42.8231C419.886 42.8231 420.117 42.7876 420.327 42.7166C420.536 42.6455 420.715 42.539 420.865 42.397C421.014 42.2549 421.127 42.0809 421.205 41.8749L423.304 42.0134C423.198 42.5177 422.979 42.958 422.649 43.3345C422.322 43.7073 421.9 43.9985 421.381 44.208C420.866 44.414 420.271 44.517 419.597 44.517ZM424.833 44.3572V36.1754H427.033V37.6029H427.118C427.267 37.0951 427.518 36.7116 427.869 36.4523C428.221 36.1896 428.626 36.0582 429.084 36.0582C429.197 36.0582 429.32 36.0653 429.451 36.0795C429.583 36.0937 429.698 36.1132 429.797 36.1381V38.1516C429.691 38.1196 429.544 38.0912 429.355 38.0663C429.167 38.0415 428.995 38.0291 428.839 38.0291C428.505 38.0291 428.207 38.1019 427.944 38.2474C427.684 38.3895 427.479 38.5884 427.326 38.844C427.177 39.0997 427.102 39.3945 427.102 39.7283V44.3572H424.833ZM434.318 44.517C433.477 44.517 432.752 44.3465 432.145 44.0056C431.541 43.6612 431.076 43.1746 430.75 42.5461C430.423 41.914 430.26 41.1665 430.26 40.3036C430.26 39.4619 430.423 38.7233 430.75 38.0876C431.076 37.452 431.536 36.9566 432.129 36.6015C432.726 36.2464 433.425 36.0688 434.228 36.0688C434.768 36.0688 435.27 36.1558 435.735 36.3298C436.204 36.5003 436.612 36.7577 436.96 37.1022C437.312 37.4467 437.585 37.8799 437.781 38.4019C437.976 38.9204 438.074 39.5276 438.074 40.2237V40.8469H431.165V39.4406H435.938C435.938 39.1139 435.867 38.8245 435.725 38.5724C435.583 38.3202 435.386 38.1232 435.133 37.9811C434.885 37.8355 434.595 37.7627 434.265 37.7627C433.921 37.7627 433.615 37.8426 433.349 38.0024C433.086 38.1587 432.88 38.37 432.731 38.6363C432.582 38.8991 432.506 39.192 432.502 39.5152V40.8522C432.502 41.257 432.577 41.6068 432.726 41.9016C432.878 42.1963 433.093 42.4236 433.37 42.5834C433.647 42.7432 433.976 42.8231 434.356 42.8231C434.608 42.8231 434.839 42.7876 435.048 42.7166C435.258 42.6455 435.437 42.539 435.586 42.397C435.735 42.2549 435.849 42.0809 435.927 41.8749L438.026 42.0134C437.919 42.5177 437.701 42.958 437.371 43.3345C437.044 43.7073 436.621 43.9985 436.103 44.208C435.588 44.414 434.993 44.517 434.318 44.517ZM441.824 39.6271V44.3572H439.555V36.1754H441.717V37.6189H441.813C441.994 37.143 442.298 36.7666 442.724 36.4896C443.15 36.2091 443.667 36.0688 444.274 36.0688C444.842 36.0688 445.338 36.1931 445.76 36.4417C446.183 36.6903 446.511 37.0454 446.746 37.507C446.98 37.9651 447.097 38.512 447.097 39.1477V44.3572H444.828V39.5525C444.832 39.0518 444.704 38.6612 444.445 38.3806C444.185 38.0965 443.828 37.9545 443.374 37.9545C443.068 37.9545 442.799 38.0202 442.564 38.1516C442.333 38.283 442.152 38.4747 442.021 38.7269C441.893 38.9754 441.827 39.2755 441.824 39.6271ZM452.582 44.517C451.744 44.517 451.023 44.3394 450.42 43.9843C449.82 43.6256 449.358 43.1285 449.035 42.4928C448.715 41.8572 448.555 41.1256 448.555 40.2982C448.555 39.4602 448.717 38.7251 449.04 38.093C449.367 37.4573 449.83 36.9619 450.43 36.6068C451.031 36.2482 451.744 36.0688 452.572 36.0688C453.286 36.0688 453.911 36.1984 454.447 36.4577C454.983 36.7169 455.407 37.0809 455.72 37.5496C456.032 38.0184 456.205 38.5688 456.237 39.2009H454.095C454.035 38.7925 453.875 38.4641 453.616 38.2155C453.36 37.9634 453.025 37.8373 452.609 37.8373C452.257 37.8373 451.95 37.9332 451.688 38.1249C451.428 38.3131 451.226 38.5884 451.08 38.9506C450.935 39.3128 450.862 39.7514 450.862 40.2663C450.862 40.7883 450.933 41.2322 451.075 41.5979C451.221 41.9637 451.425 42.2425 451.688 42.4342C451.95 42.626 452.257 42.7219 452.609 42.7219C452.868 42.7219 453.101 42.6686 453.307 42.5621C453.516 42.4555 453.689 42.3011 453.824 42.0987C453.962 41.8927 454.053 41.6459 454.095 41.3582H456.237C456.201 41.9832 456.031 42.5337 455.725 43.0095C455.423 43.4818 455.006 43.8511 454.473 44.1175C453.941 44.3838 453.31 44.517 452.582 44.517ZM457.689 44.3572V36.1754H459.959V44.3572H457.689ZM458.829 35.1207C458.492 35.1207 458.203 35.0088 457.961 34.7851C457.723 34.5578 457.604 34.2862 457.604 33.9701C457.604 33.6576 457.723 33.3895 457.961 33.1658C458.203 32.9385 458.492 32.8249 458.829 32.8249C459.167 32.8249 459.454 32.9385 459.692 33.1658C459.934 33.3895 460.054 33.6576 460.054 33.9701C460.054 34.2862 459.934 34.5578 459.692 34.7851C459.454 35.0088 459.167 35.1207 458.829 35.1207ZM464.109 44.5117C463.587 44.5117 463.122 44.4211 462.714 44.24C462.305 44.0553 461.982 43.7837 461.744 43.425C461.51 43.0628 461.393 42.6118 461.393 42.072C461.393 41.6175 461.476 41.2357 461.643 40.9268C461.81 40.6178 462.037 40.3693 462.325 40.181C462.613 39.9928 462.939 39.8508 463.305 39.7549C463.674 39.659 464.061 39.5916 464.466 39.5525C464.942 39.5028 465.326 39.4566 465.617 39.414C465.908 39.3678 466.119 39.3004 466.251 39.2116C466.382 39.1228 466.448 38.9914 466.448 38.8174V38.7854C466.448 38.4481 466.341 38.1871 466.128 38.0024C465.919 37.8178 465.62 37.7254 465.233 37.7254C464.825 37.7254 464.5 37.816 464.259 37.9971C464.017 38.1746 463.857 38.3984 463.779 38.6683L461.68 38.4978C461.787 38.0006 461.996 37.571 462.309 37.2087C462.621 36.843 463.025 36.5624 463.518 36.3671C464.015 36.1683 464.591 36.0688 465.244 36.0688C465.699 36.0688 466.134 36.1221 466.549 36.2286C466.968 36.3352 467.339 36.5003 467.662 36.724C467.989 36.9477 468.246 37.2354 468.435 37.5869C468.623 37.9349 468.717 38.3522 468.717 38.8387V44.3572H466.565V43.2226H466.501C466.37 43.4783 466.194 43.7038 465.974 43.8991C465.754 44.0908 465.489 44.2418 465.18 44.3519C464.871 44.4584 464.514 44.5117 464.109 44.5117ZM464.759 42.9456C465.093 42.9456 465.388 42.8799 465.643 42.7485C465.899 42.6136 466.1 42.4325 466.245 42.2052C466.391 41.9779 466.464 41.7205 466.464 41.4328V40.5646C466.393 40.6107 466.295 40.6533 466.171 40.6924C466.05 40.7279 465.913 40.7617 465.761 40.7936C465.608 40.822 465.455 40.8487 465.303 40.8735C465.15 40.8948 465.011 40.9144 464.887 40.9321C464.621 40.9712 464.388 41.0333 464.189 41.1185C463.99 41.2038 463.836 41.3192 463.726 41.4648C463.616 41.6068 463.561 41.7844 463.561 41.9974C463.561 42.3064 463.673 42.5425 463.896 42.7059C464.124 42.8657 464.411 42.9456 464.759 42.9456ZM470.477 44.3572V36.1754H472.677V37.6029H472.763C472.912 37.0951 473.162 36.7116 473.514 36.4523C473.865 36.1896 474.27 36.0582 474.728 36.0582C474.842 36.0582 474.964 36.0653 475.096 36.0795C475.227 36.0937 475.343 36.1132 475.442 36.1381V38.1516C475.335 38.1196 475.188 38.0912 475 38.0663C474.812 38.0415 474.639 38.0291 474.483 38.0291C474.149 38.0291 473.851 38.1019 473.588 38.2474C473.329 38.3895 473.123 38.5884 472.97 38.844C472.821 39.0997 472.747 39.3945 472.747 39.7283V44.3572H470.477ZM484.487 36.1754V37.8799H479.437V36.1754H484.487ZM480.593 44.3572V35.5841C480.593 34.9911 480.708 34.4992 480.939 34.1086C481.173 33.718 481.493 33.425 481.898 33.2297C482.303 33.0344 482.763 32.9367 483.278 32.9367C483.626 32.9367 483.943 32.9634 484.231 33.0166C484.522 33.0699 484.739 33.1178 484.881 33.1604L484.476 34.865C484.387 34.8366 484.277 34.8099 484.146 34.7851C484.018 34.7602 483.887 34.7478 483.752 34.7478C483.418 34.7478 483.185 34.8259 483.054 34.9822C482.922 35.1349 482.857 35.3497 482.857 35.6267V44.3572H480.593ZM491.12 40.8735V36.1754H493.389V44.3572H491.21V42.871H491.125C490.94 43.3504 490.633 43.7357 490.204 44.0269C489.777 44.3181 489.257 44.4637 488.643 44.4637C488.096 44.4637 487.615 44.3394 487.199 44.0908C486.784 43.8423 486.459 43.4889 486.225 43.0308C485.994 42.5727 485.877 42.0241 485.873 41.3849V36.1754H488.142V40.98C488.146 41.463 488.275 41.8447 488.531 42.1253C488.787 42.4058 489.129 42.5461 489.559 42.5461C489.832 42.5461 490.088 42.484 490.326 42.3597C490.564 42.2318 490.756 42.0436 490.901 41.795C491.051 41.5465 491.123 41.2393 491.12 40.8735ZM497.473 39.6271V44.3572H495.204V36.1754H497.367V37.6189H497.463C497.644 37.143 497.947 36.7666 498.373 36.4896C498.8 36.2091 499.316 36.0688 499.923 36.0688C500.492 36.0688 500.987 36.1931 501.41 36.4417C501.832 36.6903 502.161 37.0454 502.395 37.507C502.629 37.9651 502.747 38.512 502.747 39.1477V44.3572H500.477V39.5525C500.481 39.0518 500.353 38.6612 500.094 38.3806C499.835 38.0965 499.478 37.9545 499.023 37.9545C498.718 37.9545 498.448 38.0202 498.214 38.1516C497.983 38.283 497.802 38.4747 497.67 38.7269C497.542 38.9754 497.477 39.2755 497.473 39.6271ZM508.232 44.517C507.394 44.517 506.673 44.3394 506.069 43.9843C505.469 43.6256 505.007 43.1285 504.684 42.4928C504.365 41.8572 504.205 41.1256 504.205 40.2982C504.205 39.4602 504.366 38.7251 504.69 38.093C505.016 37.4573 505.48 36.9619 506.08 36.6068C506.68 36.2482 507.394 36.0688 508.221 36.0688C508.935 36.0688 509.56 36.1984 510.096 36.4577C510.632 36.7169 511.057 37.0809 511.369 37.5496C511.682 38.0184 511.854 38.5688 511.886 39.2009H509.745C509.684 38.7925 509.524 38.4641 509.265 38.2155C509.01 37.9634 508.674 37.8373 508.258 37.8373C507.907 37.8373 507.6 37.9332 507.337 38.1249C507.078 38.3131 506.875 38.5884 506.73 38.9506C506.584 39.3128 506.511 39.7514 506.511 40.2663C506.511 40.7883 506.582 41.2322 506.724 41.5979C506.87 41.9637 507.074 42.2425 507.337 42.4342C507.6 42.626 507.907 42.7219 508.258 42.7219C508.518 42.7219 508.75 42.6686 508.956 42.5621C509.166 42.4555 509.338 42.3011 509.473 42.0987C509.611 41.8927 509.702 41.6459 509.745 41.3582H511.886C511.85 41.9832 511.68 42.5337 511.375 43.0095C511.073 43.4818 510.655 43.8511 510.123 44.1175C509.59 44.3838 508.96 44.517 508.232 44.517ZM513.339 44.3572V36.1754H515.608V44.3572H513.339ZM514.479 35.1207C514.141 35.1207 513.852 35.0088 513.61 34.7851C513.373 34.5578 513.254 34.2862 513.254 33.9701C513.254 33.6576 513.373 33.3895 513.61 33.1658C513.852 32.9385 514.141 32.8249 514.479 32.8249C514.816 32.8249 515.104 32.9385 515.342 33.1658C515.583 33.3895 515.704 33.6576 515.704 33.9701C515.704 34.2862 515.583 34.5578 515.342 34.7851C515.104 35.0088 514.816 35.1207 514.479 35.1207ZM521.122 44.517C520.295 44.517 519.579 44.3412 518.976 43.9896C518.376 43.6345 517.912 43.1409 517.585 42.5088C517.259 41.8732 517.095 41.1363 517.095 40.2982C517.095 39.4531 517.259 38.7144 517.585 38.0823C517.912 37.4467 518.376 36.9531 518.976 36.6015C519.579 36.2464 520.295 36.0688 521.122 36.0688C521.95 36.0688 522.664 36.2464 523.264 36.6015C523.867 36.9531 524.333 37.4467 524.659 38.0823C524.986 38.7144 525.149 39.4531 525.149 40.2982C525.149 41.1363 524.986 41.8732 524.659 42.5088C524.333 43.1409 523.867 43.6345 523.264 43.9896C522.664 44.3412 521.95 44.517 521.122 44.517ZM521.133 42.7592C521.51 42.7592 521.824 42.6526 522.076 42.4396C522.328 42.2229 522.518 41.9282 522.646 41.5553C522.777 41.1825 522.843 40.7581 522.843 40.2822C522.843 39.8064 522.777 39.382 522.646 39.0092C522.518 38.6363 522.328 38.3416 522.076 38.1249C521.824 37.9083 521.51 37.8 521.133 37.8C520.753 37.8 520.434 37.9083 520.174 38.1249C519.919 38.3416 519.725 38.6363 519.594 39.0092C519.466 39.382 519.402 39.8064 519.402 40.2822C519.402 40.7581 519.466 41.1825 519.594 41.5553C519.725 41.9282 519.919 42.2229 520.174 42.4396C520.434 42.6526 520.753 42.7592 521.133 42.7592ZM528.894 39.6271V44.3572H526.625V36.1754H528.788V37.6189H528.883C529.065 37.143 529.368 36.7666 529.794 36.4896C530.22 36.2091 530.737 36.0688 531.344 36.0688C531.913 36.0688 532.408 36.1931 532.831 36.4417C533.253 36.6903 533.582 37.0454 533.816 37.507C534.05 37.9651 534.168 38.512 534.168 39.1477V44.3572H531.898V39.5525C531.902 39.0518 531.774 38.6612 531.515 38.3806C531.256 38.0965 530.899 37.9545 530.444 37.9545C530.139 37.9545 529.869 38.0202 529.635 38.1516C529.404 38.283 529.223 38.4747 529.091 38.7269C528.963 38.9754 528.898 39.2755 528.894 39.6271ZM538.289 44.5117C537.767 44.5117 537.302 44.4211 536.893 44.24C536.485 44.0553 536.162 43.7837 535.924 43.425C535.69 43.0628 535.572 42.6118 535.572 42.072C535.572 41.6175 535.656 41.2357 535.823 40.9268C535.99 40.6178 536.217 40.3693 536.505 40.181C536.792 39.9928 537.119 39.8508 537.485 39.7549C537.854 39.659 538.241 39.5916 538.646 39.5525C539.122 39.5028 539.505 39.4566 539.797 39.414C540.088 39.3678 540.299 39.3004 540.43 39.2116C540.562 39.1228 540.627 38.9914 540.627 38.8174V38.7854C540.627 38.4481 540.521 38.1871 540.308 38.0024C540.098 37.8178 539.8 37.7254 539.413 37.7254C539.005 37.7254 538.68 37.816 538.438 37.9971C538.197 38.1746 538.037 38.3984 537.959 38.6683L535.86 38.4978C535.967 38.0006 536.176 37.571 536.489 37.2087C536.801 36.843 537.204 36.5624 537.698 36.3671C538.195 36.1683 538.77 36.0688 539.424 36.0688C539.878 36.0688 540.313 36.1221 540.729 36.2286C541.148 36.3352 541.519 36.5003 541.842 36.724C542.169 36.9477 542.426 37.2354 542.614 37.5869C542.803 37.9349 542.897 38.3522 542.897 38.8387V44.3572H540.745V43.2226H540.681C540.549 43.4783 540.374 43.7038 540.153 43.8991C539.933 44.0908 539.669 44.2418 539.36 44.3519C539.051 44.4584 538.694 44.5117 538.289 44.5117ZM538.939 42.9456C539.273 42.9456 539.567 42.8799 539.823 42.7485C540.079 42.6136 540.279 42.4325 540.425 42.2052C540.571 41.9779 540.643 41.7205 540.643 41.4328V40.5646C540.572 40.6107 540.475 40.6533 540.351 40.6924C540.23 40.7279 540.093 40.7617 539.94 40.7936C539.788 40.822 539.635 40.8487 539.482 40.8735C539.33 40.8948 539.191 40.9144 539.067 40.9321C538.8 40.9712 538.568 41.0333 538.369 41.1185C538.17 41.2038 538.016 41.3192 537.906 41.4648C537.795 41.6068 537.74 41.7844 537.74 41.9974C537.74 42.3064 537.852 42.5425 538.076 42.7059C538.303 42.8657 538.591 42.9456 538.939 42.9456ZM538.694 35.1207L539.823 32.697H541.922L540.297 35.1207H538.694ZM544.657 44.3572V36.1754H546.857V37.6029H546.942C547.091 37.0951 547.342 36.7116 547.693 36.4523C548.045 36.1896 548.45 36.0582 548.908 36.0582C549.021 36.0582 549.144 36.0653 549.275 36.0795C549.407 36.0937 549.522 36.1132 549.622 36.1381V38.1516C549.515 38.1196 549.368 38.0912 549.18 38.0663C548.991 38.0415 548.819 38.0291 548.663 38.0291C548.329 38.0291 548.031 38.1019 547.768 38.2474C547.509 38.3895 547.303 38.5884 547.15 38.844C547.001 39.0997 546.926 39.3945 546.926 39.7283V44.3572H544.657ZM550.795 44.3572V36.1754H553.064V44.3572H550.795ZM551.935 35.1207C551.597 35.1207 551.308 35.0088 551.066 34.7851C550.829 34.5578 550.71 34.2862 550.71 33.9701C550.71 33.6576 550.829 33.3895 551.066 33.1658C551.308 32.9385 551.597 32.8249 551.935 32.8249C552.272 32.8249 552.56 32.9385 552.798 33.1658C553.039 33.3895 553.16 33.6576 553.16 33.9701C553.16 34.2862 553.039 34.5578 552.798 34.7851C552.56 35.0088 552.272 35.1207 551.935 35.1207ZM558.578 44.517C557.751 44.517 557.036 44.3412 556.432 43.9896C555.832 43.6345 555.368 43.1409 555.042 42.5088C554.715 41.8732 554.551 41.1363 554.551 40.2982C554.551 39.4531 554.715 38.7144 555.042 38.0823C555.368 37.4467 555.832 36.9531 556.432 36.6015C557.036 36.2464 557.751 36.0688 558.578 36.0688C559.406 36.0688 560.12 36.2464 560.72 36.6015C561.324 36.9531 561.789 37.4467 562.115 38.0823C562.442 38.7144 562.605 39.4531 562.605 40.2982C562.605 41.1363 562.442 41.8732 562.115 42.5088C561.789 43.1409 561.324 43.6345 560.72 43.9896C560.12 44.3412 559.406 44.517 558.578 44.517ZM558.589 42.7592C558.966 42.7592 559.28 42.6526 559.532 42.4396C559.784 42.2229 559.974 41.9282 560.102 41.5553C560.233 41.1825 560.299 40.7581 560.299 40.2822C560.299 39.8064 560.233 39.382 560.102 39.0092C559.974 38.6363 559.784 38.3416 559.532 38.1249C559.28 37.9083 558.966 37.8 558.589 37.8C558.209 37.8 557.89 37.9083 557.63 38.1249C557.375 38.3416 557.181 38.6363 557.05 39.0092C556.922 39.382 556.858 39.8064 556.858 40.2822C556.858 40.7581 556.922 41.1825 557.05 41.5553C557.181 41.9282 557.375 42.2229 557.63 42.4396C557.89 42.6526 558.209 42.7592 558.589 42.7592Z" fill="black" fill-opacity="0.5"/>
<path d="M26 30C26 27.2386 28.2386 25 31 25H211.5V55H26V30Z" fill="white"/>
<path d="M26 25H211.5H26ZM211.5 56.5H26V53.5H211.5V56.5ZM26 55V25V55ZM211.5 25V55V25Z" fill="black"/>
<path d="M59.6245 33.4176L62.2612 41.7059H62.3624L65.0045 33.4176H67.5613L63.8006 44.3267H60.8283L57.0624 33.4176H59.6245ZM71.6376 44.4865C70.7959 44.4865 70.0715 44.316 69.4643 43.9751C68.8606 43.6306 68.3954 43.1441 68.0687 42.5156C67.742 41.8835 67.5786 41.136 67.5786 40.273C67.5786 39.4314 67.742 38.6928 68.0687 38.0571C68.3954 37.4215 68.8552 36.9261 69.4483 36.571C70.0449 36.2159 70.7444 36.0383 71.547 36.0383C72.0868 36.0383 72.5893 36.1253 73.0545 36.2993C73.5232 36.4698 73.9316 36.7272 74.2796 37.0717C74.6312 37.4161 74.9046 37.8494 75.0999 38.3714C75.2952 38.8899 75.3929 39.4971 75.3929 40.1931V40.8164H68.4842V39.4101H73.2569C73.2569 39.0834 73.1859 38.794 73.0438 38.5419C72.9018 38.2897 72.7047 38.0926 72.4525 37.9506C72.204 37.805 71.9145 37.7322 71.5843 37.7322C71.2398 37.7322 70.9344 37.8121 70.6681 37.9719C70.4053 38.1282 70.1993 38.3394 70.0502 38.6058C69.9011 38.8686 69.8247 39.1615 69.8212 39.4847V40.8217C69.8212 41.2265 69.8957 41.5763 70.0449 41.871C70.1976 42.1658 70.4124 42.3931 70.6894 42.5529C70.9664 42.7127 71.2949 42.7926 71.6748 42.7926C71.927 42.7926 72.1578 42.7571 72.3673 42.686C72.5768 42.615 72.7562 42.5085 72.9053 42.3664C73.0545 42.2244 73.1681 42.0504 73.2462 41.8444L75.3449 41.9829C75.2384 42.4872 75.02 42.9275 74.6898 43.3039C74.3631 43.6768 73.9405 43.968 73.422 44.1775C72.9071 44.3835 72.3123 44.4865 71.6376 44.4865ZM76.8737 44.3267V36.1448H79.0736V37.5724H79.1589C79.308 37.0646 79.5584 36.6811 79.9099 36.4218C80.2615 36.159 80.6663 36.0277 81.1244 36.0277C81.2381 36.0277 81.3606 36.0348 81.492 36.049C81.6234 36.0632 81.7388 36.0827 81.8382 36.1076V38.121C81.7317 38.0891 81.5843 38.0607 81.3961 38.0358C81.2079 38.011 81.0356 37.9985 80.8794 37.9985C80.5456 37.9985 80.2473 38.0713 79.9845 38.2169C79.7253 38.359 79.5193 38.5578 79.3666 38.8135C79.2175 39.0692 79.1429 39.3639 79.1429 39.6978V44.3267H76.8737ZM90.8829 36.1448V37.8494H85.8332V36.1448H90.8829ZM86.9891 44.3267V35.5536C86.9891 34.9605 87.1045 34.4687 87.3354 34.0781C87.5697 33.6875 87.8893 33.3945 88.2942 33.1992C88.699 33.0039 89.1589 32.9062 89.6738 32.9062C90.0218 32.9062 90.3396 32.9328 90.6273 32.9861C90.9185 33.0394 91.1351 33.0873 91.2771 33.1299L90.8723 34.8345C90.7835 34.8061 90.6734 34.7794 90.542 34.7546C90.4142 34.7297 90.2828 34.7173 90.1479 34.7173C89.8141 34.7173 89.5815 34.7954 89.4501 34.9517C89.3187 35.1044 89.253 35.3192 89.253 35.5962V44.3267H86.9891ZM97.516 40.843V36.1448H99.7852V44.3267H97.6066V42.8405H97.5213C97.3367 43.3199 97.0295 43.7052 96.5998 43.9964C96.1737 44.2876 95.6535 44.4332 95.0391 44.4332C94.4922 44.4332 94.0111 44.3089 93.5956 44.0603C93.1801 43.8117 92.8552 43.4584 92.6208 43.0003C92.39 42.5422 92.2728 41.9936 92.2692 41.3544V36.1448H94.5384V40.9495C94.5419 41.4325 94.6716 41.8142 94.9272 42.0948C95.1829 42.3753 95.5256 42.5156 95.9553 42.5156C96.2287 42.5156 96.4844 42.4534 96.7223 42.3291C96.9603 42.2013 97.152 42.0131 97.2976 41.7645C97.4468 41.5159 97.5196 41.2088 97.516 40.843ZM103.869 39.5965V44.3267H101.6V36.1448H103.763V37.5884H103.859C104.04 37.1125 104.344 36.7361 104.77 36.4591C105.196 36.1786 105.712 36.0383 106.32 36.0383C106.888 36.0383 107.383 36.1626 107.806 36.4112C108.228 36.6598 108.557 37.0149 108.791 37.4765C109.026 37.9346 109.143 38.4815 109.143 39.1171V44.3267H106.874V39.522C106.877 39.0213 106.749 38.6306 106.49 38.3501C106.231 38.066 105.874 37.924 105.42 37.924C105.114 37.924 104.844 37.9897 104.61 38.121C104.379 38.2524 104.198 38.4442 104.067 38.6963C103.939 38.9449 103.873 39.245 103.869 39.5965ZM114.628 44.4865C113.79 44.4865 113.069 44.3089 112.465 43.9538C111.865 43.5951 111.404 43.098 111.08 42.4623C110.761 41.8267 110.601 41.0951 110.601 40.2677C110.601 39.4296 110.763 38.6946 111.086 38.0625C111.413 37.4268 111.876 36.9314 112.476 36.5763C113.076 36.2176 113.79 36.0383 114.617 36.0383C115.331 36.0383 115.956 36.1679 116.492 36.4272C117.029 36.6864 117.453 37.0504 117.765 37.5191C118.078 37.9879 118.25 38.5383 118.282 39.1704H116.141C116.08 38.762 115.921 38.4335 115.661 38.185C115.406 37.9328 115.07 37.8068 114.655 37.8068C114.303 37.8068 113.996 37.9027 113.733 38.0944C113.474 38.2826 113.272 38.5578 113.126 38.9201C112.98 39.2823 112.908 39.7208 112.908 40.2358C112.908 40.7578 112.979 41.2017 113.121 41.5674C113.266 41.9332 113.47 42.212 113.733 42.4037C113.996 42.5955 114.303 42.6914 114.655 42.6914C114.914 42.6914 115.147 42.6381 115.352 42.5316C115.562 42.425 115.734 42.2706 115.869 42.0681C116.008 41.8622 116.098 41.6154 116.141 41.3277H118.282C118.247 41.9527 118.076 42.5032 117.771 42.979C117.469 43.4513 117.052 43.8206 116.519 44.087C115.986 44.3533 115.356 44.4865 114.628 44.4865ZM119.735 44.3267V36.1448H122.004V44.3267H119.735ZM120.875 35.0902C120.538 35.0902 120.248 34.9783 120.007 34.7546C119.769 34.5273 119.65 34.2556 119.65 33.9396C119.65 33.6271 119.769 33.359 120.007 33.1353C120.248 32.908 120.538 32.7943 120.875 32.7943C121.212 32.7943 121.5 32.908 121.738 33.1353C121.979 33.359 122.1 33.6271 122.1 33.9396C122.1 34.2556 121.979 34.5273 121.738 34.7546C121.5 34.9783 121.212 35.0902 120.875 35.0902ZM127.519 44.4865C126.691 44.4865 125.976 44.3107 125.372 43.9591C124.772 43.604 124.308 43.1104 123.982 42.4783C123.655 41.8426 123.492 41.1058 123.492 40.2677C123.492 39.4225 123.655 38.6839 123.982 38.0518C124.308 37.4161 124.772 36.9225 125.372 36.571C125.976 36.2159 126.691 36.0383 127.519 36.0383C128.346 36.0383 129.06 36.2159 129.66 36.571C130.264 36.9225 130.729 37.4161 131.056 38.0518C131.382 38.6839 131.546 39.4225 131.546 40.2677C131.546 41.1058 131.382 41.8426 131.056 42.4783C130.729 43.1104 130.264 43.604 129.66 43.9591C129.06 44.3107 128.346 44.4865 127.519 44.4865ZM127.529 42.7286C127.906 42.7286 128.22 42.6221 128.472 42.409C128.724 42.1924 128.914 41.8977 129.042 41.5248C129.174 41.1519 129.239 40.7276 129.239 40.2517C129.239 39.7759 129.174 39.3515 129.042 38.9786C128.914 38.6058 128.724 38.311 128.472 38.0944C128.22 37.8778 127.906 37.7695 127.529 37.7695C127.149 37.7695 126.83 37.8778 126.571 38.0944C126.315 38.311 126.121 38.6058 125.99 38.9786C125.862 39.3515 125.798 39.7759 125.798 40.2517C125.798 40.7276 125.862 41.1519 125.99 41.5248C126.121 41.8977 126.315 42.1924 126.571 42.409C126.83 42.6221 127.149 42.7286 127.529 42.7286ZM135.29 39.5965V44.3267H133.021V36.1448H135.184V37.5884H135.28C135.461 37.1125 135.764 36.7361 136.191 36.4591C136.617 36.1786 137.133 36.0383 137.741 36.0383C138.309 36.0383 138.804 36.1626 139.227 36.4112C139.649 36.6598 139.978 37.0149 140.212 37.4765C140.447 37.9346 140.564 38.4815 140.564 39.1171V44.3267H138.295V39.522C138.298 39.0213 138.17 38.6306 137.911 38.3501C137.652 38.066 137.295 37.924 136.84 37.924C136.535 37.924 136.265 37.9897 136.031 38.121C135.8 38.2524 135.619 38.4442 135.487 38.6963C135.36 38.9449 135.294 39.245 135.29 39.5965ZM144.685 44.4811C144.163 44.4811 143.698 44.3906 143.29 44.2095C142.881 44.0248 142.558 43.7532 142.32 43.3945C142.086 43.0323 141.969 42.5813 141.969 42.0415C141.969 41.587 142.052 41.2052 142.219 40.8963C142.386 40.5873 142.613 40.3387 142.901 40.1505C143.189 39.9623 143.515 39.8203 143.881 39.7244C144.25 39.6285 144.637 39.561 145.042 39.522C145.518 39.4723 145.902 39.4261 146.193 39.3835C146.484 39.3373 146.695 39.2698 146.827 39.1811C146.958 39.0923 147.024 38.9609 147.024 38.7869V38.7549C147.024 38.4176 146.917 38.1566 146.704 37.9719C146.495 37.7872 146.196 37.6949 145.809 37.6949C145.401 37.6949 145.076 37.7855 144.834 37.9666C144.593 38.1441 144.433 38.3679 144.355 38.6377L142.256 38.4673C142.363 37.9701 142.572 37.5404 142.885 37.1782C143.197 36.8125 143.6 36.5319 144.094 36.3366C144.591 36.1377 145.167 36.0383 145.82 36.0383C146.274 36.0383 146.709 36.0916 147.125 36.1981C147.544 36.3046 147.915 36.4698 148.238 36.6935C148.565 36.9172 148.822 37.2049 149.011 37.5564C149.199 37.9044 149.293 38.3217 149.293 38.8082V44.3267H147.141V43.1921H147.077C146.946 43.4478 146.77 43.6733 146.55 43.8686C146.329 44.0603 146.065 44.2112 145.756 44.3213C145.447 44.4279 145.09 44.4811 144.685 44.4811ZM145.335 42.9151C145.669 42.9151 145.964 42.8494 146.219 42.718C146.475 42.5831 146.676 42.4019 146.821 42.1747C146.967 41.9474 147.04 41.6899 147.04 41.4023V40.534C146.969 40.5802 146.871 40.6228 146.747 40.6619C146.626 40.6974 146.489 40.7311 146.337 40.7631C146.184 40.7915 146.031 40.8181 145.879 40.843C145.726 40.8643 145.587 40.8838 145.463 40.9016C145.197 40.9407 144.964 41.0028 144.765 41.088C144.566 41.1733 144.412 41.2887 144.302 41.4343C144.192 41.5763 144.137 41.7539 144.137 41.9669C144.137 42.2759 144.249 42.512 144.472 42.6754C144.7 42.8352 144.987 42.9151 145.335 42.9151ZM145.09 35.0902L146.219 32.6665H148.318L146.693 35.0902H145.09ZM151.053 44.3267V36.1448H153.253V37.5724H153.339C153.488 37.0646 153.738 36.6811 154.09 36.4218C154.441 36.159 154.846 36.0277 155.304 36.0277C155.418 36.0277 155.54 36.0348 155.672 36.049C155.803 36.0632 155.918 36.0827 156.018 36.1076V38.121C155.911 38.0891 155.764 38.0607 155.576 38.0358C155.388 38.011 155.215 37.9985 155.059 37.9985C154.725 37.9985 154.427 38.0713 154.164 38.2169C153.905 38.359 153.699 38.5578 153.546 38.8135C153.397 39.0692 153.323 39.3639 153.323 39.6978V44.3267H151.053ZM157.191 44.3267V36.1448H159.46V44.3267H157.191ZM158.331 35.0902C157.994 35.0902 157.704 34.9783 157.463 34.7546C157.225 34.5273 157.106 34.2556 157.106 33.9396C157.106 33.6271 157.225 33.359 157.463 33.1353C157.704 32.908 157.994 32.7943 158.331 32.7943C158.668 32.7943 158.956 32.908 159.194 33.1353C159.435 33.359 159.556 33.6271 159.556 33.9396C159.556 34.2556 159.435 34.5273 159.194 34.7546C158.956 34.9783 158.668 35.0902 158.331 35.0902ZM164.975 44.4865C164.147 44.4865 163.432 44.3107 162.828 43.9591C162.228 43.604 161.765 43.1104 161.438 42.4783C161.111 41.8426 160.948 41.1058 160.948 40.2677C160.948 39.4225 161.111 38.6839 161.438 38.0518C161.765 37.4161 162.228 36.9225 162.828 36.571C163.432 36.2159 164.147 36.0383 164.975 36.0383C165.802 36.0383 166.516 36.2159 167.116 36.571C167.72 36.9225 168.185 37.4161 168.512 38.0518C168.838 38.6839 169.002 39.4225 169.002 40.2677C169.002 41.1058 168.838 41.8426 168.512 42.4783C168.185 43.1104 167.72 43.604 167.116 43.9591C166.516 44.3107 165.802 44.4865 164.975 44.4865ZM164.985 42.7286C165.362 42.7286 165.676 42.6221 165.928 42.409C166.18 42.1924 166.37 41.8977 166.498 41.5248C166.63 41.1519 166.695 40.7276 166.695 40.2517C166.695 39.7759 166.63 39.3515 166.498 38.9786C166.37 38.6058 166.18 38.311 165.928 38.0944C165.676 37.8778 165.362 37.7695 164.985 37.7695C164.605 37.7695 164.286 37.8778 164.027 38.0944C163.771 38.311 163.577 38.6058 163.446 38.9786C163.318 39.3515 163.254 39.7759 163.254 40.2517C163.254 40.7276 163.318 41.1519 163.446 41.5248C163.577 41.8977 163.771 42.1924 164.027 42.409C164.286 42.6221 164.605 42.7286 164.985 42.7286ZM177.285 38.4779L175.207 38.6058C175.172 38.4282 175.095 38.2684 174.978 38.1264C174.861 37.9808 174.707 37.8654 174.515 37.7801C174.327 37.6914 174.101 37.647 173.838 37.647C173.487 37.647 173.19 37.7215 172.949 37.8707C172.707 38.0163 172.587 38.2116 172.587 38.4566C172.587 38.6519 172.665 38.8171 172.821 38.952C172.977 39.087 173.245 39.1953 173.625 39.2769L175.106 39.5752C175.902 39.7386 176.495 40.0014 176.885 40.3636C177.276 40.7258 177.471 41.2017 177.471 41.7911C177.471 42.3274 177.313 42.7979 176.997 43.2027C176.685 43.6076 176.255 43.9236 175.708 44.1509C175.165 44.3746 174.538 44.4865 173.828 44.4865C172.745 44.4865 171.882 44.261 171.239 43.81C170.6 43.3554 170.225 42.7375 170.115 41.9563L172.347 41.8391C172.414 42.1693 172.578 42.4215 172.837 42.5955C173.096 42.7659 173.428 42.8512 173.833 42.8512C174.231 42.8512 174.55 42.7748 174.792 42.6221C175.037 42.4659 175.161 42.2652 175.165 42.0202C175.161 41.8142 175.074 41.6456 174.904 41.5142C174.733 41.3792 174.47 41.2762 174.115 41.2052L172.698 40.9229C171.899 40.7631 171.305 40.4861 170.914 40.0919C170.527 39.6978 170.333 39.1953 170.333 38.5845C170.333 38.0589 170.475 37.6061 170.76 37.2262C171.047 36.8462 171.45 36.5532 171.969 36.3473C172.491 36.1413 173.102 36.0383 173.801 36.0383C174.834 36.0383 175.648 36.2567 176.241 36.6935C176.837 37.1303 177.185 37.7251 177.285 38.4779Z" fill="black" fill-opacity="0.5"/>
<path d="M210 25H392.7V55H210V25Z" fill="white"/>
<path d="M210 25V23.5L208.5 25H210ZM392.7 25H394.2L392.7 23.5V25ZM210 26.5H392.7V23.5H210V26.5ZM391.2 25V55H394.2V25H391.2ZM211.5 55V25H208.5V55H211.5Z" fill="black"/>
<path d="M230.598 37.2673H228.265C228.222 36.9655 228.135 36.6974 228.004 36.463C227.872 36.2251 227.704 36.0227 227.498 35.8558C227.292 35.6889 227.054 35.561 226.784 35.4722C226.518 35.3835 226.228 35.3391 225.916 35.3391C225.351 35.3391 224.859 35.4793 224.44 35.7599C224.021 36.0369 223.696 36.4417 223.465 36.9744C223.235 37.5035 223.119 38.1462 223.119 38.9026C223.119 39.6803 223.235 40.3337 223.465 40.8629C223.7 41.392 224.026 41.7915 224.445 42.0614C224.865 42.3313 225.349 42.4662 225.9 42.4662C226.209 42.4662 226.494 42.4254 226.757 42.3437C227.024 42.262 227.26 42.143 227.466 41.9868C227.672 41.827 227.842 41.6335 227.977 41.4062C228.116 41.1789 228.211 40.9197 228.265 40.6285L230.598 40.6391C230.537 41.1398 230.387 41.6228 230.145 42.088C229.907 42.5496 229.586 42.9634 229.181 43.3291C228.78 43.6913 228.3 43.979 227.743 44.192C227.189 44.4016 226.562 44.5063 225.862 44.5063C224.889 44.5063 224.019 44.2862 223.252 43.8458C222.489 43.4055 221.885 42.768 221.441 41.9335C221.001 41.099 220.781 40.0887 220.781 38.9026C220.781 37.713 221.004 36.7009 221.452 35.8664C221.899 35.0319 222.507 34.3962 223.274 33.9595C224.041 33.5191 224.904 33.2989 225.862 33.2989C226.494 33.2989 227.08 33.3877 227.62 33.5653C228.164 33.7428 228.645 34.0021 229.064 34.343C229.483 34.6803 229.824 35.094 230.086 35.5841C230.353 36.0742 230.523 36.6352 230.598 37.2673ZM234.542 44.5117C234.02 44.5117 233.555 44.4211 233.147 44.24C232.738 44.0553 232.415 43.7837 232.177 43.425C231.943 43.0628 231.826 42.6118 231.826 42.072C231.826 41.6175 231.909 41.2357 232.076 40.9268C232.243 40.6178 232.47 40.3693 232.758 40.181C233.045 39.9928 233.372 39.8508 233.738 39.7549C234.107 39.659 234.494 39.5916 234.899 39.5525C235.375 39.5028 235.759 39.4566 236.05 39.414C236.341 39.3678 236.552 39.3004 236.684 39.2116C236.815 39.1228 236.881 38.9914 236.881 38.8174V38.7854C236.881 38.4481 236.774 38.1871 236.561 38.0024C236.352 37.8178 236.053 37.7254 235.666 37.7254C235.258 37.7254 234.933 37.816 234.691 37.9971C234.45 38.1746 234.29 38.3984 234.212 38.6683L232.113 38.4978C232.22 38.0006 232.429 37.571 232.742 37.2087C233.054 36.843 233.457 36.5624 233.951 36.3671C234.448 36.1683 235.023 36.0688 235.677 36.0688C236.131 36.0688 236.566 36.1221 236.982 36.2286C237.401 36.3352 237.772 36.5003 238.095 36.724C238.422 36.9477 238.679 37.2354 238.868 37.5869C239.056 37.9349 239.15 38.3522 239.15 38.8387V44.3572H236.998V43.2226H236.934C236.803 43.4783 236.627 43.7038 236.407 43.8991C236.186 44.0908 235.922 44.2418 235.613 44.3519C235.304 44.4584 234.947 44.5117 234.542 44.5117ZM235.192 42.9456C235.526 42.9456 235.821 42.8799 236.076 42.7485C236.332 42.6136 236.533 42.4325 236.678 42.2052C236.824 41.9779 236.897 41.7205 236.897 41.4328V40.5646C236.826 40.6107 236.728 40.6533 236.604 40.6924C236.483 40.7279 236.346 40.7617 236.194 40.7936C236.041 40.822 235.888 40.8487 235.735 40.8735C235.583 40.8948 235.444 40.9144 235.32 40.9321C235.054 40.9712 234.821 41.0333 234.622 41.1185C234.423 41.2038 234.269 41.3192 234.159 41.4648C234.049 41.6068 233.994 41.7844 233.994 41.9974C233.994 42.3064 234.105 42.5425 234.329 42.7059C234.556 42.8657 234.844 42.9456 235.192 42.9456ZM243.925 44.4903C243.304 44.4903 242.741 44.3305 242.237 44.0109C241.736 43.6878 241.338 43.2137 241.043 42.5887C240.752 41.9602 240.607 41.1896 240.607 40.2769C240.607 39.3394 240.758 38.5599 241.059 37.9385C241.361 37.3135 241.763 36.8465 242.263 36.5376C242.768 36.2251 243.32 36.0688 243.92 36.0688C244.378 36.0688 244.76 36.147 245.065 36.3032C245.374 36.4559 245.623 36.6477 245.811 36.8785C246.003 37.1058 246.148 37.3295 246.248 37.5496H246.317V33.4481H248.581V44.3572H246.344V43.0468H246.248C246.141 43.2741 245.99 43.4996 245.795 43.7233C245.603 43.9435 245.353 44.1264 245.044 44.272C244.738 44.4175 244.366 44.4903 243.925 44.4903ZM244.644 42.6846C245.01 42.6846 245.319 42.5852 245.571 42.3863C245.827 42.1839 246.022 41.9016 246.157 41.5394C246.296 41.1771 246.365 40.7528 246.365 40.2663C246.365 39.7798 246.297 39.3572 246.162 38.9985C246.028 38.6398 245.832 38.3629 245.577 38.1675C245.321 37.9722 245.01 37.8746 244.644 37.8746C244.271 37.8746 243.957 37.9758 243.702 38.1782C243.446 38.3806 243.252 38.6612 243.121 39.0198C242.99 39.3785 242.924 39.794 242.924 40.2663C242.924 40.7421 242.99 41.1629 243.121 41.5287C243.256 41.8909 243.449 42.175 243.702 42.381C243.957 42.5834 244.271 42.6846 244.644 42.6846ZM252.78 44.5117C252.258 44.5117 251.792 44.4211 251.384 44.24C250.976 44.0553 250.652 43.7837 250.414 43.425C250.18 43.0628 250.063 42.6118 250.063 42.072C250.063 41.6175 250.146 41.2357 250.313 40.9268C250.48 40.6178 250.707 40.3693 250.995 40.181C251.283 39.9928 251.609 39.8508 251.975 39.7549C252.345 39.659 252.732 39.5916 253.136 39.5525C253.612 39.5028 253.996 39.4566 254.287 39.414C254.578 39.3678 254.789 39.3004 254.921 39.2116C255.052 39.1228 255.118 38.9914 255.118 38.8174V38.7854C255.118 38.4481 255.011 38.1871 254.798 38.0024C254.589 37.8178 254.291 37.7254 253.903 37.7254C253.495 37.7254 253.17 37.816 252.929 37.9971C252.687 38.1746 252.527 38.3984 252.449 38.6683L250.351 38.4978C250.457 38.0006 250.667 37.571 250.979 37.2087C251.292 36.843 251.695 36.5624 252.188 36.3671C252.685 36.1683 253.261 36.0688 253.914 36.0688C254.369 36.0688 254.804 36.1221 255.219 36.2286C255.638 36.3352 256.009 36.5003 256.332 36.724C256.659 36.9477 256.917 37.2354 257.105 37.5869C257.293 37.9349 257.387 38.3522 257.387 38.8387V44.3572H255.235V43.2226H255.171C255.04 43.4783 254.864 43.7038 254.644 43.8991C254.424 44.0908 254.159 44.2418 253.85 44.3519C253.541 44.4584 253.184 44.5117 252.78 44.5117ZM253.429 42.9456C253.763 42.9456 254.058 42.8799 254.314 42.7485C254.569 42.6136 254.77 42.4325 254.916 42.2052C255.061 41.9779 255.134 41.7205 255.134 41.4328V40.5646C255.063 40.6107 254.965 40.6533 254.841 40.6924C254.72 40.7279 254.584 40.7617 254.431 40.7936C254.278 40.822 254.125 40.8487 253.973 40.8735C253.82 40.8948 253.682 40.9144 253.557 40.9321C253.291 40.9712 253.058 41.0333 252.859 41.1185C252.661 41.2038 252.506 41.3192 252.396 41.4648C252.286 41.6068 252.231 41.7844 252.231 41.9974C252.231 42.3064 252.343 42.5425 252.566 42.7059C252.794 42.8657 253.081 42.9456 253.429 42.9456ZM265.955 38.5085L263.878 38.6363C263.842 38.4587 263.766 38.2989 263.649 38.1569C263.531 38.0113 263.377 37.8959 263.185 37.8107C262.997 37.7219 262.772 37.6775 262.509 37.6775C262.157 37.6775 261.861 37.7521 261.619 37.9012C261.378 38.0468 261.257 38.2421 261.257 38.4871C261.257 38.6825 261.335 38.8476 261.491 38.9825C261.648 39.1175 261.916 39.2258 262.296 39.3075L263.777 39.6058C264.572 39.7691 265.165 40.0319 265.556 40.3941C265.946 40.7563 266.142 41.2322 266.142 41.8217C266.142 42.3579 265.984 42.8284 265.668 43.2332C265.355 43.6381 264.925 43.9541 264.378 44.1814C263.835 44.4051 263.208 44.517 262.498 44.517C261.415 44.517 260.552 44.2915 259.909 43.8405C259.27 43.3859 258.895 42.768 258.785 41.9868L261.017 41.8696C261.085 42.1999 261.248 42.452 261.507 42.626C261.767 42.7965 262.099 42.8817 262.503 42.8817C262.901 42.8817 263.221 42.8053 263.462 42.6526C263.707 42.4964 263.832 42.2957 263.835 42.0507C263.832 41.8447 263.745 41.6761 263.574 41.5447C263.404 41.4097 263.141 41.3068 262.786 41.2357L261.369 40.9534C260.57 40.7936 259.975 40.5166 259.584 40.1224C259.197 39.7283 259.004 39.2258 259.004 38.615C259.004 38.0894 259.146 37.6367 259.43 37.2567C259.718 36.8767 260.121 36.5837 260.639 36.3778C261.161 36.1718 261.772 36.0688 262.471 36.0688C263.505 36.0688 264.318 36.2872 264.911 36.724C265.508 37.1608 265.856 37.7556 265.955 38.5085ZM271.922 36.1754V37.8799H266.995V36.1754H271.922ZM268.114 34.2151H270.383V41.843C270.383 42.0525 270.415 42.2158 270.479 42.333C270.543 42.4467 270.632 42.5266 270.745 42.5727C270.862 42.6189 270.997 42.642 271.15 42.642C271.257 42.642 271.363 42.6331 271.47 42.6153C271.576 42.594 271.658 42.5781 271.715 42.5674L272.072 44.256C271.958 44.2915 271.798 44.3323 271.592 44.3785C271.386 44.4282 271.136 44.4584 270.841 44.469C270.294 44.4903 269.815 44.4175 269.403 44.2506C268.994 44.0837 268.677 43.8245 268.449 43.4729C268.222 43.1214 268.11 42.6775 268.114 42.1413V34.2151ZM273.401 44.3572V36.1754H275.6V37.6029H275.686C275.835 37.0951 276.085 36.7116 276.437 36.4523C276.788 36.1896 277.193 36.0582 277.651 36.0582C277.765 36.0582 277.887 36.0653 278.019 36.0795C278.15 36.0937 278.266 36.1132 278.365 36.1381V38.1516C278.259 38.1196 278.111 38.0912 277.923 38.0663C277.735 38.0415 277.562 38.0291 277.406 38.0291C277.072 38.0291 276.774 38.1019 276.511 38.2474C276.252 38.3895 276.046 38.5884 275.893 38.844C275.744 39.0997 275.67 39.3945 275.67 39.7283V44.3572H273.401ZM281.637 44.5117C281.115 44.5117 280.65 44.4211 280.241 44.24C279.833 44.0553 279.51 43.7837 279.272 43.425C279.038 43.0628 278.92 42.6118 278.92 42.072C278.92 41.6175 279.004 41.2357 279.171 40.9268C279.338 40.6178 279.565 40.3693 279.853 40.181C280.14 39.9928 280.467 39.8508 280.833 39.7549C281.202 39.659 281.589 39.5916 281.994 39.5525C282.47 39.5028 282.853 39.4566 283.144 39.414C283.436 39.3678 283.647 39.3004 283.778 39.2116C283.91 39.1228 283.975 38.9914 283.975 38.8174V38.7854C283.975 38.4481 283.869 38.1871 283.656 38.0024C283.446 37.8178 283.148 37.7254 282.761 37.7254C282.353 37.7254 282.028 37.816 281.786 37.9971C281.545 38.1746 281.385 38.3984 281.307 38.6683L279.208 38.4978C279.315 38.0006 279.524 37.571 279.837 37.2087C280.149 36.843 280.552 36.5624 281.046 36.3671C281.543 36.1683 282.118 36.0688 282.772 36.0688C283.226 36.0688 283.661 36.1221 284.077 36.2286C284.496 36.3352 284.867 36.5003 285.19 36.724C285.517 36.9477 285.774 37.2354 285.962 37.5869C286.15 37.9349 286.245 38.3522 286.245 38.8387V44.3572H284.093V43.2226H284.029C283.897 43.4783 283.721 43.7038 283.501 43.8991C283.281 44.0908 283.017 44.2418 282.708 44.3519C282.399 44.4584 282.042 44.5117 281.637 44.5117ZM282.287 42.9456C282.621 42.9456 282.915 42.8799 283.171 42.7485C283.427 42.6136 283.627 42.4325 283.773 42.2052C283.919 41.9779 283.991 41.7205 283.991 41.4328V40.5646C283.92 40.6107 283.823 40.6533 283.698 40.6924C283.578 40.7279 283.441 40.7617 283.288 40.7936C283.136 40.822 282.983 40.8487 282.83 40.8735C282.677 40.8948 282.539 40.9144 282.415 40.9321C282.148 40.9712 281.916 41.0333 281.717 41.1185C281.518 41.2038 281.364 41.3192 281.253 41.4648C281.143 41.6068 281.088 41.7844 281.088 41.9974C281.088 42.3064 281.2 42.5425 281.424 42.7059C281.651 42.8657 281.939 42.9456 282.287 42.9456ZM288.005 44.3572V36.1754H290.205V37.6029H290.29C290.439 37.0951 290.69 36.7116 291.041 36.4523C291.393 36.1896 291.798 36.0582 292.256 36.0582C292.369 36.0582 292.492 36.0653 292.623 36.0795C292.755 36.0937 292.87 36.1132 292.97 36.1381V38.1516C292.863 38.1196 292.716 38.0912 292.527 38.0663C292.339 38.0415 292.167 38.0291 292.011 38.0291C291.677 38.0291 291.379 38.1019 291.116 38.2474C290.857 38.3895 290.651 38.5884 290.498 38.844C290.349 39.0997 290.274 39.3945 290.274 39.7283V44.3572H288.005ZM302.014 36.1754V37.8799H296.965V36.1754H302.014ZM298.12 44.3572V35.5841C298.12 34.9911 298.236 34.4992 298.467 34.1086C298.701 33.718 299.021 33.425 299.425 33.2297C299.83 33.0344 300.29 32.9367 300.805 32.9367C301.153 32.9367 301.471 32.9634 301.759 33.0166C302.05 33.0699 302.266 33.1178 302.408 33.1604L302.004 34.865C301.915 34.8366 301.805 34.8099 301.673 34.7851C301.546 34.7602 301.414 34.7478 301.279 34.7478C300.945 34.7478 300.713 34.8259 300.581 34.9822C300.45 35.1349 300.384 35.3497 300.384 35.6267V44.3572H298.12ZM308.647 40.8735V36.1754H310.917V44.3572H308.738V42.871H308.653C308.468 43.3504 308.161 43.7357 307.731 44.0269C307.305 44.3181 306.785 44.4637 306.17 44.4637C305.624 44.4637 305.142 44.3394 304.727 44.0908C304.311 43.8423 303.986 43.4889 303.752 43.0308C303.521 42.5727 303.404 42.0241 303.401 41.3849V36.1754H305.67V40.98C305.673 41.463 305.803 41.8447 306.059 42.1253C306.314 42.4058 306.657 42.5461 307.087 42.5461C307.36 42.5461 307.616 42.484 307.854 42.3597C308.092 42.2318 308.283 42.0436 308.429 41.795C308.578 41.5465 308.651 41.2393 308.647 40.8735ZM315.001 39.6271V44.3572H312.732V36.1754H314.894V37.6189H314.99C315.171 37.143 315.475 36.7666 315.901 36.4896C316.327 36.2091 316.844 36.0688 317.451 36.0688C318.019 36.0688 318.515 36.1931 318.937 36.4417C319.36 36.6903 319.688 37.0454 319.923 37.507C320.157 37.9651 320.274 38.512 320.274 39.1477V44.3572H318.005V39.5525C318.009 39.0518 317.881 38.6612 317.622 38.3806C317.362 38.0965 317.005 37.9545 316.551 37.9545C316.245 37.9545 315.976 38.0202 315.741 38.1516C315.51 38.283 315.329 38.4747 315.198 38.7269C315.07 38.9754 315.004 39.2755 315.001 39.6271ZM325.759 44.517C324.921 44.517 324.2 44.3394 323.597 43.9843C322.997 43.6256 322.535 43.1285 322.212 42.4928C321.892 41.8572 321.732 41.1256 321.732 40.2982C321.732 39.4602 321.894 38.7251 322.217 38.093C322.544 37.4573 323.007 36.9619 323.607 36.6068C324.208 36.2482 324.921 36.0688 325.749 36.0688C326.463 36.0688 327.088 36.1984 327.624 36.4577C328.16 36.7169 328.584 37.0809 328.897 37.5496C329.209 38.0184 329.382 38.5688 329.414 39.2009H327.272C327.212 38.7925 327.052 38.4641 326.793 38.2155C326.537 37.9634 326.202 37.8373 325.786 37.8373C325.434 37.8373 325.127 37.9332 324.865 38.1249C324.605 38.3131 324.403 38.5884 324.257 38.9506C324.112 39.3128 324.039 39.7514 324.039 40.2663C324.039 40.7883 324.11 41.2322 324.252 41.5979C324.398 41.9637 324.602 42.2425 324.865 42.4342C325.127 42.626 325.434 42.7219 325.786 42.7219C326.045 42.7219 326.278 42.6686 326.484 42.5621C326.693 42.4555 326.866 42.3011 327.001 42.0987C327.139 41.8927 327.23 41.6459 327.272 41.3582H329.414C329.378 41.9832 329.208 42.5337 328.902 43.0095C328.6 43.4818 328.183 43.8511 327.65 44.1175C327.118 44.3838 326.487 44.517 325.759 44.517ZM330.866 44.3572V36.1754H333.136V44.3572H330.866ZM332.006 35.1207C331.669 35.1207 331.38 35.0088 331.138 34.7851C330.9 34.5578 330.781 34.2862 330.781 33.9701C330.781 33.6576 330.9 33.3895 331.138 33.1658C331.38 32.9385 331.669 32.8249 332.006 32.8249C332.344 32.8249 332.631 32.9385 332.869 33.1658C333.111 33.3895 333.231 33.6576 333.231 33.9701C333.231 34.2862 333.111 34.5578 332.869 34.7851C332.631 35.0088 332.344 35.1207 332.006 35.1207ZM338.65 44.517C337.823 44.517 337.107 44.3412 336.503 43.9896C335.903 43.6345 335.44 43.1409 335.113 42.5088C334.786 41.8732 334.623 41.1363 334.623 40.2982C334.623 39.4531 334.786 38.7144 335.113 38.0823C335.44 37.4467 335.903 36.9531 336.503 36.6015C337.107 36.2464 337.823 36.0688 338.65 36.0688C339.477 36.0688 340.191 36.2464 340.791 36.6015C341.395 36.9531 341.86 37.4467 342.187 38.0823C342.514 38.7144 342.677 39.4531 342.677 40.2982C342.677 41.1363 342.514 41.8732 342.187 42.5088C341.86 43.1409 341.395 43.6345 340.791 43.9896C340.191 44.3412 339.477 44.517 338.65 44.517ZM338.661 42.7592C339.037 42.7592 339.351 42.6526 339.603 42.4396C339.856 42.2229 340.046 41.9282 340.173 41.5553C340.305 41.1825 340.371 40.7581 340.371 40.2822C340.371 39.8064 340.305 39.382 340.173 39.0092C340.046 38.6363 339.856 38.3416 339.603 38.1249C339.351 37.9083 339.037 37.8 338.661 37.8C338.281 37.8 337.961 37.9083 337.702 38.1249C337.446 38.3416 337.253 38.6363 337.121 39.0092C336.993 39.382 336.929 39.8064 336.929 40.2822C336.929 40.7581 336.993 41.1825 337.121 41.5553C337.253 41.9282 337.446 42.2229 337.702 42.4396C337.961 42.6526 338.281 42.7592 338.661 42.7592ZM346.422 39.6271V44.3572H344.153V36.1754H346.315V37.6189H346.411C346.592 37.143 346.896 36.7666 347.322 36.4896C347.748 36.2091 348.265 36.0688 348.872 36.0688C349.44 36.0688 349.936 36.1931 350.358 36.4417C350.781 36.6903 351.109 37.0454 351.344 37.507C351.578 37.9651 351.695 38.512 351.695 39.1477V44.3572H349.426V39.5525C349.429 39.0518 349.302 38.6612 349.042 38.3806C348.783 38.0965 348.426 37.9545 347.972 37.9545C347.666 37.9545 347.396 38.0202 347.162 38.1516C346.931 38.283 346.75 38.4747 346.619 38.7269C346.491 38.9754 346.425 39.2755 346.422 39.6271ZM355.817 44.5117C355.295 44.5117 354.829 44.4211 354.421 44.24C354.013 44.0553 353.69 43.7837 353.452 43.425C353.217 43.0628 353.1 42.6118 353.1 42.072C353.1 41.6175 353.183 41.2357 353.35 40.9268C353.517 40.6178 353.745 40.3693 354.032 40.181C354.32 39.9928 354.647 39.8508 355.012 39.7549C355.382 39.659 355.769 39.5916 356.174 39.5525C356.649 39.5028 357.033 39.4566 357.324 39.414C357.615 39.3678 357.827 39.3004 357.958 39.2116C358.089 39.1228 358.155 38.9914 358.155 38.8174V38.7854C358.155 38.4481 358.049 38.1871 357.835 38.0024C357.626 37.8178 357.328 37.7254 356.941 37.7254C356.532 37.7254 356.207 37.816 355.966 37.9971C355.724 38.1746 355.565 38.3984 355.486 38.6683L353.388 38.4978C353.494 38.0006 353.704 37.571 354.016 37.2087C354.329 36.843 354.732 36.5624 355.225 36.3671C355.723 36.1683 356.298 36.0688 356.951 36.0688C357.406 36.0688 357.841 36.1221 358.256 36.2286C358.675 36.3352 359.046 36.5003 359.37 36.724C359.696 36.9477 359.954 37.2354 360.142 37.5869C360.33 37.9349 360.424 38.3522 360.424 38.8387V44.3572H358.272V43.2226H358.208C358.077 43.4783 357.901 43.7038 357.681 43.8991C357.461 44.0908 357.196 44.2418 356.887 44.3519C356.578 44.4584 356.221 44.5117 355.817 44.5117ZM356.467 42.9456C356.8 42.9456 357.095 42.8799 357.351 42.7485C357.606 42.6136 357.807 42.4325 357.953 42.2052C358.098 41.9779 358.171 41.7205 358.171 41.4328V40.5646C358.1 40.6107 358.002 40.6533 357.878 40.6924C357.757 40.7279 357.621 40.7617 357.468 40.7936C357.315 40.822 357.163 40.8487 357.01 40.8735C356.857 40.8948 356.719 40.9144 356.594 40.9321C356.328 40.9712 356.095 41.0333 355.897 41.1185C355.698 41.2038 355.543 41.3192 355.433 41.4648C355.323 41.6068 355.268 41.7844 355.268 41.9974C355.268 42.3064 355.38 42.5425 355.604 42.7059C355.831 42.8657 356.119 42.9456 356.467 42.9456ZM356.221 35.1207L357.351 32.697H359.449L357.825 35.1207H356.221ZM362.185 44.3572V36.1754H364.385V37.6029H364.47C364.619 37.0951 364.869 36.7116 365.221 36.4523C365.573 36.1896 365.977 36.0582 366.435 36.0582C366.549 36.0582 366.672 36.0653 366.803 36.0795C366.934 36.0937 367.05 36.1132 367.149 36.1381V38.1516C367.043 38.1196 366.895 38.0912 366.707 38.0663C366.519 38.0415 366.347 38.0291 366.19 38.0291C365.857 38.0291 365.558 38.1019 365.296 38.2474C365.036 38.3895 364.83 38.5884 364.678 38.844C364.528 39.0997 364.454 39.3945 364.454 39.7283V44.3572H362.185ZM368.322 44.3572V36.1754H370.592V44.3572H368.322ZM369.462 35.1207C369.125 35.1207 368.836 35.0088 368.594 34.7851C368.356 34.5578 368.237 34.2862 368.237 33.9701C368.237 33.6576 368.356 33.3895 368.594 33.1658C368.836 32.9385 369.125 32.8249 369.462 32.8249C369.8 32.8249 370.087 32.9385 370.325 33.1658C370.567 33.3895 370.687 33.6576 370.687 33.9701C370.687 34.2862 370.567 34.5578 370.325 34.7851C370.087 35.0088 369.8 35.1207 369.462 35.1207ZM376.106 44.517C375.279 44.517 374.563 44.3412 373.959 43.9896C373.359 43.6345 372.896 43.1409 372.569 42.5088C372.242 41.8732 372.079 41.1363 372.079 40.2982C372.079 39.4531 372.242 38.7144 372.569 38.0823C372.896 37.4467 373.359 36.9531 373.959 36.6015C374.563 36.2464 375.279 36.0688 376.106 36.0688C376.933 36.0688 377.647 36.2464 378.247 36.6015C378.851 36.9531 379.316 37.4467 379.643 38.0823C379.97 38.7144 380.133 39.4531 380.133 40.2982C380.133 41.1363 379.97 41.8732 379.643 42.5088C379.316 43.1409 378.851 43.6345 378.247 43.9896C377.647 44.3412 376.933 44.517 376.106 44.517ZM376.117 42.7592C376.493 42.7592 376.807 42.6526 377.06 42.4396C377.312 42.2229 377.502 41.9282 377.63 41.5553C377.761 41.1825 377.827 40.7581 377.827 40.2822C377.827 39.8064 377.761 39.382 377.63 39.0092C377.502 38.6363 377.312 38.3416 377.06 38.1249C376.807 37.9083 376.493 37.8 376.117 37.8C375.737 37.8 375.417 37.9083 375.158 38.1249C374.902 38.3416 374.709 38.6363 374.577 39.0092C374.449 39.382 374.386 39.8064 374.386 40.2822C374.386 40.7581 374.449 41.1825 374.577 41.5553C374.709 41.9282 374.902 42.2229 375.158 42.4396C375.417 42.6526 375.737 42.7592 376.117 42.7592Z" fill="black"/>
<defs>
<filter id="filter0_d_167_58" x="220" y="307" width="160" height="50" filterUnits="userSpaceOnUse" color-interpolation-filters="sRGB">
<feFlood flood-opacity="0" result="BackgroundImageFix"/>
<feColorMatrix in="SourceAlpha" type="matrix" values="0 0 0 0 0 0 0 0 0 0 0 0 0 0 0 0 0 0 127 0" result="hardAlpha"/>
<feOffset dy="4"/>
<feGaussianBlur stdDeviation="2"/>
<feComposite in2="hardAlpha" operator="out"/>
<feColorMatrix type="matrix" values="0 0 0 0 0 0 0 0 0 0 0 0 0 0 0 0 0 0 0.25 0"/>
<feBlend mode="normal" in2="BackgroundImageFix" result="effect1_dropShadow_167_58"/>
<feBlend mode="normal" in="SourceGraphic" in2="effect1_dropShadow_167_58" result="shape"/>
</filter>
<linearGradient id="paint0_linear_167_58" x1="300" y1="0" x2="300" y2="400" gradientUnits="userSpaceOnUse">
<stop stop-color="#00356E"/>
<stop offset="1" stop-color="#00356E"/>
</linearGradient>
</defs>
</svg>
