<svg width="600" height="400" viewBox="0 0 600 400" fill="none" xmlns="http://www.w3.org/2000/svg">
<rect width="600" height="400" fill="url(#paint0_linear_167_55)"/>
<rect x="160" y="25" width="280" height="350" rx="5" fill="white"/>
<path d="M160 55H440V370C440 372.761 437.761 375 435 375H165C162.239 375 160 372.761 160 370V55Z" fill="white"/>
<path d="M160 55H440H160ZM441.5 370C441.5 373.59 438.59 376.5 435 376.5H165C161.41 376.5 158.5 373.59 158.5 370H161.5C161.5 371.933 163.067 373.5 165 373.5H435C436.933 373.5 438.5 371.933 438.5 370H441.5ZM165 376.5C161.41 376.5 158.5 373.59 158.5 370V55H161.5V370C161.5 371.933 163.067 373.5 165 373.5V376.5ZM441.5 55V370C441.5 373.59 438.59 376.5 435 376.5V373.5C436.933 373.5 438.5 371.933 438.5 370V55H441.5Z" fill="black"/>
<path d="M217.18 214V203.091H220.866C221.719 203.091 222.418 203.237 222.965 203.528C223.512 203.815 223.917 204.211 224.18 204.716C224.442 205.22 224.574 205.793 224.574 206.436C224.574 207.079 224.442 207.649 224.18 208.146C223.917 208.643 223.514 209.034 222.971 209.318C222.427 209.598 221.733 209.739 220.888 209.739H217.905V208.545H220.845C221.428 208.545 221.896 208.46 222.251 208.29C222.61 208.119 222.869 207.878 223.029 207.565C223.192 207.249 223.274 206.873 223.274 206.436C223.274 205.999 223.192 205.618 223.029 205.291C222.866 204.964 222.605 204.712 222.246 204.534C221.887 204.353 221.413 204.263 220.824 204.263H218.501V214H217.18ZM222.315 209.099L225 214H223.466L220.824 209.099H222.315ZM229.947 214.17C229.159 214.17 228.479 213.996 227.907 213.648C227.339 213.297 226.9 212.807 226.591 212.178C226.286 211.546 226.133 210.811 226.133 209.973C226.133 209.135 226.286 208.396 226.591 207.757C226.9 207.114 227.33 206.614 227.88 206.255C228.434 205.893 229.081 205.712 229.819 205.712C230.245 205.712 230.666 205.783 231.082 205.925C231.497 206.067 231.875 206.298 232.216 206.617C232.557 206.933 232.829 207.352 233.031 207.874C233.234 208.396 233.335 209.039 233.335 209.803V210.335H227.028V209.249H232.057C232.057 208.787 231.964 208.375 231.78 208.013C231.598 207.651 231.339 207.365 231.002 207.155C230.668 206.946 230.274 206.841 229.819 206.841C229.319 206.841 228.885 206.965 228.52 207.214C228.157 207.459 227.879 207.778 227.683 208.173C227.488 208.567 227.39 208.989 227.39 209.44V210.165C227.39 210.783 227.497 211.306 227.71 211.736C227.927 212.162 228.227 212.487 228.61 212.711C228.994 212.931 229.439 213.041 229.947 213.041C230.277 213.041 230.576 212.995 230.842 212.903C231.112 212.807 231.345 212.665 231.54 212.477C231.735 212.285 231.886 212.047 231.993 211.763L233.207 212.104C233.079 212.516 232.864 212.878 232.563 213.19C232.261 213.499 231.888 213.741 231.444 213.915C231 214.085 230.501 214.17 229.947 214.17ZM238.571 214.17C237.804 214.17 237.144 213.989 236.59 213.627C236.036 213.265 235.609 212.766 235.311 212.13C235.013 211.495 234.864 210.768 234.864 209.952C234.864 209.121 235.016 208.387 235.322 207.752C235.631 207.113 236.06 206.614 236.611 206.255C237.165 205.893 237.811 205.712 238.55 205.712C239.125 205.712 239.644 205.818 240.105 206.031C240.567 206.244 240.945 206.543 241.24 206.926C241.535 207.31 241.717 207.757 241.788 208.268H240.531C240.435 207.896 240.222 207.565 239.892 207.278C239.565 206.987 239.125 206.841 238.571 206.841C238.081 206.841 237.651 206.969 237.282 207.224C236.916 207.477 236.63 207.833 236.424 208.295C236.222 208.753 236.121 209.291 236.121 209.909C236.121 210.541 236.22 211.092 236.419 211.56C236.622 212.029 236.906 212.393 237.271 212.652C237.641 212.912 238.074 213.041 238.571 213.041C238.898 213.041 239.194 212.984 239.461 212.871C239.727 212.757 239.953 212.594 240.137 212.381C240.322 212.168 240.453 211.912 240.531 211.614H241.788C241.717 212.097 241.542 212.532 241.261 212.919C240.984 213.302 240.617 213.608 240.158 213.835C239.704 214.059 239.175 214.17 238.571 214.17ZM247.057 214.17C246.268 214.17 245.588 213.996 245.016 213.648C244.448 213.297 244.01 212.807 243.701 212.178C243.395 211.546 243.243 210.811 243.243 209.973C243.243 209.135 243.395 208.396 243.701 207.757C244.01 207.114 244.439 206.614 244.99 206.255C245.544 205.893 246.19 205.712 246.929 205.712C247.355 205.712 247.776 205.783 248.191 205.925C248.607 206.067 248.985 206.298 249.326 206.617C249.667 206.933 249.938 207.352 250.141 207.874C250.343 208.396 250.444 209.039 250.444 209.803V210.335H244.138V209.249H249.166C249.166 208.787 249.074 208.375 248.889 208.013C248.708 207.651 248.449 207.365 248.111 207.155C247.777 206.946 247.383 206.841 246.929 206.841C246.428 206.841 245.995 206.965 245.629 207.214C245.267 207.459 244.988 207.778 244.793 208.173C244.597 208.567 244.5 208.989 244.5 209.44V210.165C244.5 210.783 244.606 211.306 244.819 211.736C245.036 212.162 245.336 212.487 245.72 212.711C246.103 212.931 246.549 213.041 247.057 213.041C247.387 213.041 247.685 212.995 247.951 212.903C248.221 212.807 248.454 212.665 248.649 212.477C248.845 212.285 248.995 212.047 249.102 211.763L250.316 212.104C250.189 212.516 249.974 212.878 249.672 213.19C249.37 213.499 248.997 213.741 248.553 213.915C248.109 214.085 247.611 214.17 247.057 214.17ZM252.357 214V205.818H253.614V214H252.357ZM252.996 204.455C252.751 204.455 252.54 204.371 252.362 204.204C252.188 204.037 252.101 203.837 252.101 203.602C252.101 203.368 252.188 203.167 252.362 203C252.54 202.833 252.751 202.75 252.996 202.75C253.241 202.75 253.45 202.833 253.624 203C253.802 203.167 253.891 203.368 253.891 203.602C253.891 203.837 253.802 204.037 253.624 204.204C253.45 204.371 253.241 204.455 252.996 204.455ZM259.474 205.818V206.884H255.234V205.818H259.474ZM256.47 203.858H257.727V211.656C257.727 212.011 257.779 212.278 257.882 212.455C257.988 212.629 258.123 212.746 258.287 212.807C258.453 212.864 258.629 212.892 258.814 212.892C258.952 212.892 259.066 212.885 259.155 212.871C259.244 212.853 259.315 212.839 259.368 212.828L259.624 213.957C259.538 213.989 259.419 214.021 259.267 214.053C259.114 214.089 258.92 214.107 258.686 214.107C258.331 214.107 257.983 214.03 257.642 213.877C257.305 213.725 257.024 213.492 256.8 213.18C256.58 212.867 256.47 212.473 256.47 211.997V203.858ZM263.773 214.192C263.255 214.192 262.784 214.094 262.362 213.899C261.939 213.7 261.603 213.414 261.355 213.041C261.106 212.665 260.982 212.21 260.982 211.678C260.982 211.209 261.074 210.829 261.259 210.538C261.444 210.243 261.69 210.012 261.999 209.845C262.308 209.678 262.649 209.554 263.022 209.472C263.398 209.387 263.777 209.32 264.157 209.27C264.654 209.206 265.057 209.158 265.366 209.126C265.678 209.091 265.906 209.032 266.048 208.95C266.193 208.869 266.266 208.727 266.266 208.524V208.482C266.266 207.956 266.122 207.548 265.835 207.256C265.55 206.965 265.119 206.82 264.54 206.82C263.94 206.82 263.469 206.951 263.129 207.214C262.788 207.477 262.548 207.757 262.409 208.055L261.216 207.629C261.429 207.132 261.713 206.745 262.069 206.468C262.427 206.187 262.818 205.992 263.24 205.882C263.667 205.768 264.086 205.712 264.498 205.712C264.76 205.712 265.062 205.744 265.403 205.808C265.748 205.868 266.08 205.994 266.399 206.186C266.722 206.377 266.99 206.667 267.203 207.054C267.417 207.441 267.523 207.96 267.523 208.609V214H266.266V212.892H266.202C266.117 213.07 265.975 213.26 265.776 213.462C265.577 213.664 265.313 213.837 264.982 213.979C264.652 214.121 264.249 214.192 263.773 214.192ZM263.965 213.062C264.462 213.062 264.881 212.965 265.222 212.77C265.566 212.574 265.826 212.322 266 212.013C266.177 211.704 266.266 211.379 266.266 211.038V209.888C266.213 209.952 266.096 210.01 265.914 210.064C265.737 210.113 265.531 210.158 265.297 210.197C265.066 210.232 264.84 210.264 264.62 210.293C264.403 210.317 264.228 210.339 264.093 210.357C263.766 210.399 263.461 210.468 263.176 210.564C262.896 210.657 262.669 210.797 262.495 210.985C262.324 211.17 262.239 211.422 262.239 211.741C262.239 212.178 262.401 212.509 262.724 212.732C263.05 212.952 263.464 213.062 263.965 213.062ZM275.293 209.078V214H274.036V205.818H275.251V207.097H275.357C275.549 206.681 275.84 206.347 276.231 206.095C276.622 205.839 277.126 205.712 277.744 205.712C278.298 205.712 278.782 205.825 279.198 206.053C279.613 206.276 279.937 206.617 280.167 207.075C280.398 207.53 280.514 208.105 280.514 208.801V214H279.256V208.886C279.256 208.244 279.09 207.743 278.756 207.384C278.422 207.022 277.964 206.841 277.381 206.841C276.98 206.841 276.622 206.928 276.305 207.102C275.993 207.276 275.746 207.53 275.565 207.864C275.384 208.197 275.293 208.602 275.293 209.078ZM285.218 214.192C284.7 214.192 284.229 214.094 283.807 213.899C283.384 213.7 283.049 213.414 282.8 213.041C282.551 212.665 282.427 212.21 282.427 211.678C282.427 211.209 282.52 210.829 282.704 210.538C282.889 210.243 283.136 210.012 283.445 209.845C283.754 209.678 284.094 209.554 284.467 209.472C284.844 209.387 285.222 209.32 285.602 209.27C286.099 209.206 286.502 209.158 286.811 209.126C287.124 209.091 287.351 209.032 287.493 208.95C287.638 208.869 287.711 208.727 287.711 208.524V208.482C287.711 207.956 287.567 207.548 287.28 207.256C286.996 206.965 286.564 206.82 285.985 206.82C285.385 206.82 284.915 206.951 284.574 207.214C284.233 207.477 283.993 207.757 283.855 208.055L282.662 207.629C282.875 207.132 283.159 206.745 283.514 206.468C283.873 206.187 284.263 205.992 284.686 205.882C285.112 205.768 285.531 205.712 285.943 205.712C286.206 205.712 286.507 205.744 286.848 205.808C287.193 205.868 287.525 205.994 287.844 206.186C288.168 206.377 288.436 206.667 288.649 207.054C288.862 207.441 288.968 207.96 288.968 208.609V214H287.711V212.892H287.647C287.562 213.07 287.42 213.26 287.221 213.462C287.022 213.664 286.758 213.837 286.428 213.979C286.097 214.121 285.694 214.192 285.218 214.192ZM285.41 213.062C285.907 213.062 286.326 212.965 286.667 212.77C287.012 212.574 287.271 212.322 287.445 212.013C287.623 211.704 287.711 211.379 287.711 211.038V209.888C287.658 209.952 287.541 210.01 287.36 210.064C287.182 210.113 286.976 210.158 286.742 210.197C286.511 210.232 286.286 210.264 286.065 210.293C285.849 210.317 285.673 210.339 285.538 210.357C285.211 210.399 284.906 210.468 284.622 210.564C284.341 210.657 284.114 210.797 283.94 210.985C283.77 211.17 283.684 211.422 283.684 211.741C283.684 212.178 283.846 212.509 284.169 212.732C284.496 212.952 284.909 213.062 285.41 213.062ZM284.387 204.838L283.407 204.795C283.407 204.252 283.562 203.808 283.871 203.464C284.183 203.116 284.569 202.942 285.027 202.942C285.229 202.942 285.408 202.977 285.565 203.048C285.721 203.116 285.87 203.194 286.012 203.283C286.154 203.371 286.3 203.451 286.449 203.522C286.602 203.59 286.774 203.624 286.966 203.624C287.168 203.624 287.338 203.545 287.477 203.389C287.619 203.229 287.69 203.038 287.69 202.814L288.649 202.899C288.649 203.453 288.493 203.893 288.18 204.22C287.871 204.547 287.488 204.71 287.029 204.71C286.784 204.71 286.582 204.676 286.422 204.609C286.262 204.538 286.12 204.458 285.996 204.369C285.872 204.281 285.74 204.202 285.602 204.135C285.463 204.064 285.293 204.028 285.091 204.028C284.888 204.028 284.719 204.108 284.585 204.268C284.453 204.424 284.387 204.614 284.387 204.838ZM294.587 214.17C293.848 214.17 293.2 213.995 292.642 213.643C292.089 213.292 291.655 212.8 291.343 212.168C291.034 211.536 290.879 210.797 290.879 209.952C290.879 209.099 291.034 208.355 291.343 207.72C291.655 207.084 292.089 206.591 292.642 206.239C293.2 205.887 293.848 205.712 294.587 205.712C295.325 205.712 295.972 205.887 296.526 206.239C297.083 206.591 297.516 207.084 297.825 207.72C298.138 208.355 298.294 209.099 298.294 209.952C298.294 210.797 298.138 211.536 297.825 212.168C297.516 212.8 297.083 213.292 296.526 213.643C295.972 213.995 295.325 214.17 294.587 214.17ZM294.587 213.041C295.148 213.041 295.609 212.897 295.972 212.61C296.334 212.322 296.602 211.944 296.776 211.475C296.95 211.006 297.037 210.499 297.037 209.952C297.037 209.405 296.95 208.895 296.776 208.423C296.602 207.951 296.334 207.569 295.972 207.278C295.609 206.987 295.148 206.841 294.587 206.841C294.026 206.841 293.564 206.987 293.202 207.278C292.84 207.569 292.571 207.951 292.397 208.423C292.223 208.895 292.136 209.405 292.136 209.952C292.136 210.499 292.223 211.006 292.397 211.475C292.571 211.944 292.84 212.322 293.202 212.61C293.564 212.897 294.026 213.041 294.587 213.041ZM307.862 214.17C307.074 214.17 306.394 213.996 305.822 213.648C305.254 213.297 304.815 212.807 304.506 212.178C304.201 211.546 304.048 210.811 304.048 209.973C304.048 209.135 304.201 208.396 304.506 207.757C304.815 207.114 305.245 206.614 305.795 206.255C306.349 205.893 306.996 205.712 307.734 205.712C308.161 205.712 308.581 205.783 308.997 205.925C309.412 206.067 309.79 206.298 310.131 206.617C310.472 206.933 310.744 207.352 310.946 207.874C311.149 208.396 311.25 209.039 311.25 209.803V210.335H304.943V209.249H309.972C309.972 208.787 309.879 208.375 309.695 208.013C309.513 207.651 309.254 207.365 308.917 207.155C308.583 206.946 308.189 206.841 307.734 206.841C307.234 206.841 306.8 206.965 306.435 207.214C306.072 207.459 305.794 207.778 305.598 208.173C305.403 208.567 305.305 208.989 305.305 209.44V210.165C305.305 210.783 305.412 211.306 305.625 211.736C305.842 212.162 306.142 212.487 306.525 212.711C306.909 212.931 307.354 213.041 307.862 213.041C308.192 213.041 308.491 212.995 308.757 212.903C309.027 212.807 309.26 212.665 309.455 212.477C309.65 212.285 309.801 212.047 309.908 211.763L311.122 212.104C310.994 212.516 310.779 212.878 310.478 213.19C310.176 213.499 309.803 213.741 309.359 213.915C308.915 214.085 308.416 214.17 307.862 214.17ZM314.419 209.078V214H313.162V205.818H314.377V207.097H314.483C314.675 206.681 314.966 206.347 315.357 206.095C315.748 205.839 316.252 205.712 316.87 205.712C317.424 205.712 317.908 205.825 318.324 206.053C318.739 206.276 319.063 206.617 319.293 207.075C319.524 207.53 319.64 208.105 319.64 208.801V214H318.382V208.886C318.382 208.244 318.216 207.743 317.882 207.384C317.548 207.022 317.09 206.841 316.507 206.841C316.106 206.841 315.748 206.928 315.431 207.102C315.119 207.276 314.872 207.53 314.691 207.864C314.51 208.197 314.419 208.602 314.419 209.078ZM325.261 214.17C324.494 214.17 323.833 213.989 323.279 213.627C322.725 213.265 322.299 212.766 322.001 212.13C321.702 211.495 321.553 210.768 321.553 209.952C321.553 209.121 321.706 208.387 322.011 207.752C322.32 207.113 322.75 206.614 323.3 206.255C323.854 205.893 324.501 205.712 325.239 205.712C325.815 205.712 326.333 205.818 326.795 206.031C327.256 206.244 327.634 206.543 327.929 206.926C328.224 207.31 328.407 207.757 328.478 208.268H327.221C327.125 207.896 326.912 207.565 326.582 207.278C326.255 206.987 325.815 206.841 325.261 206.841C324.771 206.841 324.341 206.969 323.972 207.224C323.606 207.477 323.32 207.833 323.114 208.295C322.911 208.753 322.81 209.291 322.81 209.909C322.81 210.541 322.91 211.092 323.109 211.56C323.311 212.029 323.595 212.393 323.961 212.652C324.33 212.912 324.763 213.041 325.261 213.041C325.587 213.041 325.884 212.984 326.15 212.871C326.416 212.757 326.642 212.594 326.827 212.381C327.011 212.168 327.143 211.912 327.221 211.614H328.478C328.407 212.097 328.231 212.532 327.951 212.919C327.674 213.302 327.306 213.608 326.848 213.835C326.393 214.059 325.864 214.17 325.261 214.17ZM333.639 214.17C332.901 214.17 332.253 213.995 331.695 213.643C331.141 213.292 330.708 212.8 330.396 212.168C330.087 211.536 329.932 210.797 329.932 209.952C329.932 209.099 330.087 208.355 330.396 207.72C330.708 207.084 331.141 206.591 331.695 206.239C332.253 205.887 332.901 205.712 333.639 205.712C334.378 205.712 335.024 205.887 335.578 206.239C336.136 206.591 336.569 207.084 336.878 207.72C337.191 208.355 337.347 209.099 337.347 209.952C337.347 210.797 337.191 211.536 336.878 212.168C336.569 212.8 336.136 213.292 335.578 213.643C335.024 213.995 334.378 214.17 333.639 214.17ZM333.639 213.041C334.201 213.041 334.662 212.897 335.024 212.61C335.387 212.322 335.655 211.944 335.829 211.475C336.003 211.006 336.09 210.499 336.09 209.952C336.09 209.405 336.003 208.895 335.829 208.423C335.655 207.951 335.387 207.569 335.024 207.278C334.662 206.987 334.201 206.841 333.639 206.841C333.078 206.841 332.617 206.987 332.255 207.278C331.892 207.569 331.624 207.951 331.45 208.423C331.276 208.895 331.189 209.405 331.189 209.952C331.189 210.499 331.276 211.006 331.45 211.475C331.624 211.944 331.892 212.322 332.255 212.61C332.617 212.897 333.078 213.041 333.639 213.041ZM340.523 209.078V214H339.266V205.818H340.48V207.097H340.587C340.779 206.681 341.07 206.347 341.46 206.095C341.851 205.839 342.355 205.712 342.973 205.712C343.527 205.712 344.012 205.825 344.427 206.053C344.843 206.276 345.166 206.617 345.397 207.075C345.628 207.53 345.743 208.105 345.743 208.801V214H344.486V208.886C344.486 208.244 344.319 207.743 343.985 207.384C343.651 207.022 343.193 206.841 342.611 206.841C342.21 206.841 341.851 206.928 341.535 207.102C341.222 207.276 340.976 207.53 340.795 207.864C340.613 208.197 340.523 208.602 340.523 209.078ZM351.598 205.818V206.884H347.358V205.818H351.598ZM348.594 203.858H349.851V211.656C349.851 212.011 349.903 212.278 350.006 212.455C350.112 212.629 350.247 212.746 350.411 212.807C350.578 212.864 350.753 212.892 350.938 212.892C351.076 212.892 351.19 212.885 351.279 212.871C351.368 212.853 351.439 212.839 351.492 212.828L351.748 213.957C351.662 213.989 351.543 214.021 351.391 214.053C351.238 214.089 351.044 214.107 350.81 214.107C350.455 214.107 350.107 214.03 349.766 213.877C349.429 213.725 349.148 213.492 348.924 213.18C348.704 212.867 348.594 212.473 348.594 211.997V203.858ZM353.489 214V205.818H354.704V207.054H354.789C354.938 206.649 355.208 206.321 355.599 206.069C355.989 205.816 356.43 205.69 356.92 205.69C357.012 205.69 357.128 205.692 357.266 205.696C357.405 205.699 357.509 205.705 357.58 205.712V206.99C357.538 206.979 357.44 206.963 357.287 206.942C357.138 206.917 356.98 206.905 356.813 206.905C356.416 206.905 356.06 206.988 355.748 207.155C355.439 207.319 355.194 207.546 355.013 207.837C354.835 208.125 354.747 208.453 354.747 208.822V214H353.489ZM361.478 214.192C360.96 214.192 360.489 214.094 360.067 213.899C359.644 213.7 359.308 213.414 359.06 213.041C358.811 212.665 358.687 212.21 358.687 211.678C358.687 211.209 358.779 210.829 358.964 210.538C359.149 210.243 359.395 210.012 359.704 209.845C360.013 209.678 360.354 209.554 360.727 209.472C361.104 209.387 361.482 209.32 361.862 209.27C362.359 209.206 362.762 209.158 363.071 209.126C363.383 209.091 363.611 209.032 363.753 208.95C363.898 208.869 363.971 208.727 363.971 208.524V208.482C363.971 207.956 363.827 207.548 363.54 207.256C363.256 206.965 362.824 206.82 362.245 206.82C361.645 206.82 361.175 206.951 360.834 207.214C360.493 207.477 360.253 207.757 360.115 208.055L358.921 207.629C359.134 207.132 359.419 206.745 359.774 206.468C360.132 206.187 360.523 205.992 360.945 205.882C361.372 205.768 361.791 205.712 362.203 205.712C362.465 205.712 362.767 205.744 363.108 205.808C363.453 205.868 363.785 205.994 364.104 206.186C364.427 206.377 364.695 206.667 364.909 207.054C365.122 207.441 365.228 207.96 365.228 208.609V214H363.971V212.892H363.907C363.822 213.07 363.68 213.26 363.481 213.462C363.282 213.664 363.018 213.837 362.687 213.979C362.357 214.121 361.954 214.192 361.478 214.192ZM361.67 213.062C362.167 213.062 362.586 212.965 362.927 212.77C363.271 212.574 363.531 212.322 363.705 212.013C363.882 211.704 363.971 211.379 363.971 211.038V209.888C363.918 209.952 363.801 210.01 363.619 210.064C363.442 210.113 363.236 210.158 363.002 210.197C362.771 210.232 362.545 210.264 362.325 210.293C362.108 210.317 361.933 210.339 361.798 210.357C361.471 210.399 361.166 210.468 360.882 210.564C360.601 210.657 360.374 210.797 360.2 210.985C360.029 211.17 359.944 211.422 359.944 211.741C359.944 212.178 360.106 212.509 360.429 212.732C360.756 212.952 361.169 213.062 361.67 213.062ZM370.612 214.17C369.93 214.17 369.328 213.998 368.806 213.654C368.284 213.306 367.876 212.816 367.581 212.184C367.286 211.548 367.139 210.797 367.139 209.93C367.139 209.071 367.286 208.325 367.581 207.693C367.876 207.061 368.286 206.573 368.812 206.228C369.337 205.884 369.945 205.712 370.633 205.712C371.166 205.712 371.587 205.8 371.896 205.978C372.208 206.152 372.446 206.351 372.61 206.575C372.777 206.795 372.906 206.976 372.998 207.118H373.105V203.091H374.362V214H373.148V212.743H372.998C372.906 212.892 372.775 213.08 372.604 213.308C372.434 213.531 372.191 213.732 371.875 213.909C371.559 214.083 371.138 214.17 370.612 214.17ZM370.783 213.041C371.287 213.041 371.713 212.91 372.061 212.647C372.409 212.381 372.674 212.013 372.855 211.544C373.036 211.072 373.126 210.527 373.126 209.909C373.126 209.298 373.038 208.764 372.86 208.306C372.682 207.844 372.42 207.485 372.072 207.23C371.724 206.971 371.294 206.841 370.783 206.841C370.25 206.841 369.806 206.978 369.451 207.251C369.099 207.521 368.835 207.888 368.657 208.354C368.483 208.815 368.396 209.334 368.396 209.909C368.396 210.491 368.485 211.021 368.663 211.496C368.844 211.969 369.11 212.345 369.462 212.626C369.817 212.903 370.257 213.041 370.783 213.041ZM379.247 214.192C378.728 214.192 378.258 214.094 377.835 213.899C377.413 213.7 377.077 213.414 376.828 213.041C376.58 212.665 376.456 212.21 376.456 211.678C376.456 211.209 376.548 210.829 376.733 210.538C376.917 210.243 377.164 210.012 377.473 209.845C377.782 209.678 378.123 209.554 378.496 209.472C378.872 209.387 379.25 209.32 379.63 209.27C380.127 209.206 380.53 209.158 380.839 209.126C381.152 209.091 381.379 209.032 381.521 208.95C381.667 208.869 381.74 208.727 381.74 208.524V208.482C381.74 207.956 381.596 207.548 381.308 207.256C381.024 206.965 380.593 206.82 380.014 206.82C379.414 206.82 378.943 206.951 378.602 207.214C378.261 207.477 378.022 207.757 377.883 208.055L376.69 207.629C376.903 207.132 377.187 206.745 377.542 206.468C377.901 206.187 378.291 205.992 378.714 205.882C379.14 205.768 379.559 205.712 379.971 205.712C380.234 205.712 380.536 205.744 380.877 205.808C381.221 205.868 381.553 205.994 381.873 206.186C382.196 206.377 382.464 206.667 382.677 207.054C382.89 207.441 382.997 207.96 382.997 208.609V214H381.74V212.892H381.676C381.59 213.07 381.448 213.26 381.25 213.462C381.051 213.664 380.786 213.837 380.456 213.979C380.126 214.121 379.723 214.192 379.247 214.192ZM379.438 213.062C379.936 213.062 380.355 212.965 380.696 212.77C381.04 212.574 381.299 212.322 381.473 212.013C381.651 211.704 381.74 211.379 381.74 211.038V209.888C381.686 209.952 381.569 210.01 381.388 210.064C381.21 210.113 381.005 210.158 380.77 210.197C380.539 210.232 380.314 210.264 380.094 210.293C379.877 210.317 379.701 210.339 379.566 210.357C379.24 210.399 378.934 210.468 378.65 210.564C378.37 210.657 378.142 210.797 377.968 210.985C377.798 211.17 377.713 211.422 377.713 211.741C377.713 212.178 377.874 212.509 378.197 212.732C378.524 212.952 378.938 213.062 379.438 213.062Z" fill="black"/>
<path d="M243.219 196V185.091H247.523C248.347 185.091 249.05 185.238 249.632 185.533C250.218 185.824 250.664 186.238 250.969 186.774C251.278 187.307 251.432 187.934 251.432 188.654C251.432 189.379 251.276 190.002 250.964 190.524C250.651 191.043 250.198 191.44 249.605 191.717C249.016 191.994 248.302 192.133 247.464 192.133H244.582V190.279H247.091C247.532 190.279 247.897 190.219 248.188 190.098C248.48 189.977 248.696 189.796 248.838 189.555C248.984 189.313 249.057 189.013 249.057 188.654C249.057 188.292 248.984 187.987 248.838 187.738C248.696 187.49 248.478 187.301 248.183 187.174C247.892 187.042 247.524 186.977 247.081 186.977H245.525V196H243.219ZM249.11 191.036L251.821 196H249.275L246.622 191.036H249.11ZM256.617 196.16C255.775 196.16 255.051 195.989 254.443 195.648C253.84 195.304 253.374 194.817 253.048 194.189C252.721 193.557 252.558 192.809 252.558 191.946C252.558 191.105 252.721 190.366 253.048 189.73C253.374 189.095 253.834 188.599 254.427 188.244C255.024 187.889 255.724 187.712 256.526 187.712C257.066 187.712 257.568 187.799 258.034 187.973C258.502 188.143 258.911 188.401 259.259 188.745C259.61 189.089 259.884 189.523 260.079 190.045C260.274 190.563 260.372 191.17 260.372 191.866V192.49H253.463V191.083H258.236C258.236 190.757 258.165 190.467 258.023 190.215C257.881 189.963 257.684 189.766 257.432 189.624C257.183 189.478 256.894 189.406 256.563 189.406C256.219 189.406 255.914 189.485 255.647 189.645C255.384 189.801 255.178 190.013 255.029 190.279C254.88 190.542 254.804 190.835 254.8 191.158V192.495C254.8 192.9 254.875 193.25 255.024 193.544C255.177 193.839 255.392 194.066 255.669 194.226C255.945 194.386 256.274 194.466 256.654 194.466C256.906 194.466 257.137 194.43 257.346 194.359C257.556 194.288 257.735 194.182 257.884 194.04C258.034 193.898 258.147 193.724 258.225 193.518L260.324 193.656C260.218 194.161 259.999 194.601 259.669 194.977C259.342 195.35 258.92 195.641 258.401 195.851C257.886 196.057 257.291 196.16 256.617 196.16ZM265.55 196.16C264.711 196.16 263.991 195.982 263.387 195.627C262.787 195.268 262.325 194.771 262.002 194.136C261.682 193.5 261.523 192.768 261.523 191.941C261.523 191.103 261.684 190.368 262.007 189.736C262.334 189.1 262.797 188.605 263.398 188.25C263.998 187.891 264.711 187.712 265.539 187.712C266.253 187.712 266.878 187.841 267.414 188.1C267.95 188.36 268.374 188.724 268.687 189.192C268.999 189.661 269.172 190.212 269.204 190.844H267.062C267.002 190.435 266.842 190.107 266.583 189.858C266.327 189.606 265.992 189.48 265.576 189.48C265.225 189.48 264.917 189.576 264.655 189.768C264.395 189.956 264.193 190.231 264.047 190.593C263.902 190.956 263.829 191.394 263.829 191.909C263.829 192.431 263.9 192.875 264.042 193.241C264.188 193.607 264.392 193.885 264.655 194.077C264.917 194.269 265.225 194.365 265.576 194.365C265.835 194.365 266.068 194.311 266.274 194.205C266.483 194.098 266.656 193.944 266.791 193.741C266.929 193.536 267.02 193.289 267.062 193.001H269.204C269.168 193.626 268.998 194.176 268.692 194.652C268.39 195.125 267.973 195.494 267.441 195.76C266.908 196.027 266.278 196.16 265.55 196.16ZM274.385 196.16C273.544 196.16 272.819 195.989 272.212 195.648C271.608 195.304 271.143 194.817 270.816 194.189C270.49 193.557 270.326 192.809 270.326 191.946C270.326 191.105 270.49 190.366 270.816 189.73C271.143 189.095 271.603 188.599 272.196 188.244C272.793 187.889 273.492 187.712 274.295 187.712C274.834 187.712 275.337 187.799 275.802 187.973C276.271 188.143 276.679 188.401 277.027 188.745C277.379 189.089 277.652 189.523 277.848 190.045C278.043 190.563 278.141 191.17 278.141 191.866V192.49H271.232V191.083H276.005C276.005 190.757 275.934 190.467 275.791 190.215C275.649 189.963 275.452 189.766 275.2 189.624C274.952 189.478 274.662 189.406 274.332 189.406C273.987 189.406 273.682 189.485 273.416 189.645C273.153 189.801 272.947 190.013 272.798 190.279C272.649 190.542 272.572 190.835 272.569 191.158V192.495C272.569 192.9 272.643 193.25 272.793 193.544C272.945 193.839 273.16 194.066 273.437 194.226C273.714 194.386 274.043 194.466 274.422 194.466C274.675 194.466 274.905 194.43 275.115 194.359C275.324 194.288 275.504 194.182 275.653 194.04C275.802 193.898 275.916 193.724 275.994 193.518L278.093 193.656C277.986 194.161 277.768 194.601 277.437 194.977C277.111 195.35 276.688 195.641 276.17 195.851C275.655 196.057 275.06 196.16 274.385 196.16ZM279.621 196V187.818H281.891V196H279.621ZM280.761 186.763C280.424 186.763 280.134 186.652 279.893 186.428C279.655 186.201 279.536 185.929 279.536 185.613C279.536 185.3 279.655 185.032 279.893 184.809C280.134 184.581 280.424 184.468 280.761 184.468C281.099 184.468 281.386 184.581 281.624 184.809C281.866 185.032 281.986 185.3 281.986 185.613C281.986 185.929 281.866 186.201 281.624 186.428C281.386 186.652 281.099 186.763 280.761 186.763ZM288.06 187.818V189.523H283.133V187.818H288.06ZM284.252 185.858H286.521V193.486C286.521 193.695 286.553 193.859 286.617 193.976C286.681 194.089 286.769 194.169 286.883 194.216C287 194.262 287.135 194.285 287.288 194.285C287.394 194.285 287.501 194.276 287.607 194.258C287.714 194.237 287.796 194.221 287.852 194.21L288.209 195.899C288.096 195.934 287.936 195.975 287.73 196.021C287.524 196.071 287.274 196.101 286.979 196.112C286.432 196.133 285.953 196.06 285.541 195.893C285.132 195.727 284.814 195.467 284.587 195.116C284.36 194.764 284.248 194.32 284.252 193.784V185.858ZM291.871 196.154C291.349 196.154 290.884 196.064 290.476 195.883C290.067 195.698 289.744 195.426 289.506 195.068C289.272 194.706 289.155 194.255 289.155 193.715C289.155 193.26 289.238 192.879 289.405 192.57C289.572 192.261 289.799 192.012 290.087 191.824C290.375 191.636 290.701 191.494 291.067 191.398C291.436 191.302 291.824 191.234 292.228 191.195C292.704 191.146 293.088 191.099 293.379 191.057C293.67 191.011 293.881 190.943 294.013 190.854C294.144 190.766 294.21 190.634 294.21 190.46V190.428C294.21 190.091 294.103 189.83 293.89 189.645C293.681 189.461 293.382 189.368 292.995 189.368C292.587 189.368 292.262 189.459 292.021 189.64C291.779 189.817 291.619 190.041 291.541 190.311L289.442 190.141C289.549 189.643 289.759 189.214 290.071 188.852C290.384 188.486 290.787 188.205 291.28 188.01C291.777 187.811 292.353 187.712 293.006 187.712C293.461 187.712 293.896 187.765 294.311 187.871C294.73 187.978 295.101 188.143 295.424 188.367C295.751 188.591 296.009 188.878 296.197 189.23C296.385 189.578 296.479 189.995 296.479 190.482V196H294.327V194.865H294.263C294.132 195.121 293.956 195.347 293.736 195.542C293.516 195.734 293.251 195.885 292.942 195.995C292.633 196.101 292.276 196.154 291.871 196.154ZM292.521 194.588C292.855 194.588 293.15 194.523 293.406 194.391C293.661 194.256 293.862 194.075 294.007 193.848C294.153 193.621 294.226 193.363 294.226 193.076V192.207C294.155 192.254 294.057 192.296 293.933 192.335C293.812 192.371 293.675 192.404 293.523 192.436C293.37 192.465 293.217 192.491 293.065 192.516C292.912 192.538 292.773 192.557 292.649 192.575C292.383 192.614 292.15 192.676 291.951 192.761C291.752 192.847 291.598 192.962 291.488 193.108C291.378 193.25 291.323 193.427 291.323 193.64C291.323 193.949 291.435 194.185 291.658 194.349C291.886 194.509 292.173 194.588 292.521 194.588ZM304.06 185.091V196H301.754V185.091H304.06ZM308.184 191.27V196H305.915V187.818H308.078V189.262H308.174C308.355 188.786 308.659 188.409 309.085 188.132C309.511 187.852 310.028 187.712 310.635 187.712C311.203 187.712 311.698 187.836 312.121 188.085C312.544 188.333 312.872 188.688 313.106 189.15C313.341 189.608 313.458 190.155 313.458 190.79V196H311.189V191.195C311.192 190.695 311.064 190.304 310.805 190.023C310.546 189.739 310.189 189.597 309.735 189.597C309.429 189.597 309.159 189.663 308.925 189.794C308.694 189.926 308.513 190.118 308.382 190.37C308.254 190.618 308.188 190.918 308.184 191.27ZM322.581 187.818L319.721 196H317.164L314.304 187.818H316.701L318.4 193.672H318.485L320.179 187.818H322.581ZM325.856 196.154C325.334 196.154 324.869 196.064 324.46 195.883C324.052 195.698 323.729 195.426 323.491 195.068C323.256 194.706 323.139 194.255 323.139 193.715C323.139 193.26 323.223 192.879 323.39 192.57C323.556 192.261 323.784 192.012 324.071 191.824C324.359 191.636 324.686 191.494 325.051 191.398C325.421 191.302 325.808 191.234 326.213 191.195C326.689 191.146 327.072 191.099 327.363 191.057C327.654 191.011 327.866 190.943 327.997 190.854C328.129 190.766 328.194 190.634 328.194 190.46V190.428C328.194 190.091 328.088 189.83 327.875 189.645C327.665 189.461 327.367 189.368 326.98 189.368C326.571 189.368 326.246 189.459 326.005 189.64C325.763 189.817 325.604 190.041 325.526 190.311L323.427 190.141C323.533 189.643 323.743 189.214 324.055 188.852C324.368 188.486 324.771 188.205 325.265 188.01C325.762 187.811 326.337 187.712 326.99 187.712C327.445 187.712 327.88 187.765 328.295 187.871C328.714 187.978 329.086 188.143 329.409 188.367C329.735 188.591 329.993 188.878 330.181 189.23C330.369 189.578 330.463 189.995 330.463 190.482V196H328.311V194.865H328.248C328.116 195.121 327.94 195.347 327.72 195.542C327.5 195.734 327.235 195.885 326.926 195.995C326.618 196.101 326.261 196.154 325.856 196.154ZM326.506 194.588C326.839 194.588 327.134 194.523 327.39 194.391C327.646 194.256 327.846 194.075 327.992 193.848C328.137 193.621 328.21 193.363 328.21 193.076V192.207C328.139 192.254 328.042 192.296 327.917 192.335C327.797 192.371 327.66 192.404 327.507 192.436C327.354 192.465 327.202 192.491 327.049 192.516C326.896 192.538 326.758 192.557 326.634 192.575C326.367 192.614 326.135 192.676 325.936 192.761C325.737 192.847 325.582 192.962 325.472 193.108C325.362 193.25 325.307 193.427 325.307 193.64C325.307 193.949 325.419 194.185 325.643 194.349C325.87 194.509 326.158 194.588 326.506 194.588ZM326.261 186.763L327.39 184.34H329.489L327.864 186.763H326.261ZM334.493 185.091V196H332.224V185.091H334.493ZM336.311 196V187.818H338.58V196H336.311ZM337.451 186.763C337.113 186.763 336.824 186.652 336.582 186.428C336.345 186.201 336.226 185.929 336.226 185.613C336.226 185.3 336.345 185.032 336.582 184.809C336.824 184.581 337.113 184.468 337.451 184.468C337.788 184.468 338.076 184.581 338.314 184.809C338.555 185.032 338.676 185.3 338.676 185.613C338.676 185.929 338.555 186.201 338.314 186.428C338.076 186.652 337.788 186.763 337.451 186.763ZM343.413 196.133C342.791 196.133 342.228 195.973 341.724 195.654C341.223 195.331 340.826 194.857 340.531 194.232C340.24 193.603 340.094 192.832 340.094 191.92C340.094 190.982 340.245 190.203 340.547 189.581C340.849 188.956 341.25 188.489 341.751 188.18C342.255 187.868 342.807 187.712 343.407 187.712C343.865 187.712 344.247 187.79 344.553 187.946C344.862 188.099 345.11 188.29 345.298 188.521C345.49 188.749 345.636 188.972 345.735 189.192H345.804V185.091H348.068V196H345.831V194.69H345.735C345.629 194.917 345.478 195.142 345.282 195.366C345.091 195.586 344.84 195.769 344.531 195.915C344.226 196.06 343.853 196.133 343.413 196.133ZM344.132 194.327C344.498 194.327 344.806 194.228 345.059 194.029C345.314 193.827 345.51 193.544 345.645 193.182C345.783 192.82 345.852 192.396 345.852 191.909C345.852 191.423 345.785 191 345.65 190.641C345.515 190.283 345.32 190.006 345.064 189.81C344.808 189.615 344.498 189.517 344.132 189.517C343.759 189.517 343.445 189.619 343.189 189.821C342.933 190.023 342.74 190.304 342.608 190.663C342.477 191.021 342.411 191.437 342.411 191.909C342.411 192.385 342.477 192.806 342.608 193.172C342.743 193.534 342.937 193.818 343.189 194.024C343.445 194.226 343.759 194.327 344.132 194.327ZM352.267 196.154C351.745 196.154 351.28 196.064 350.871 195.883C350.463 195.698 350.14 195.426 349.902 195.068C349.668 194.706 349.55 194.255 349.55 193.715C349.55 193.26 349.634 192.879 349.801 192.57C349.968 192.261 350.195 192.012 350.483 191.824C350.77 191.636 351.097 191.494 351.463 191.398C351.832 191.302 352.219 191.234 352.624 191.195C353.1 191.146 353.483 191.099 353.774 191.057C354.066 191.011 354.277 190.943 354.408 190.854C354.54 190.766 354.605 190.634 354.605 190.46V190.428C354.605 190.091 354.499 189.83 354.286 189.645C354.076 189.461 353.778 189.368 353.391 189.368C352.983 189.368 352.658 189.459 352.416 189.64C352.175 189.817 352.015 190.041 351.937 190.311L349.838 190.141C349.945 189.643 350.154 189.214 350.467 188.852C350.779 188.486 351.182 188.205 351.676 188.01C352.173 187.811 352.748 187.712 353.402 187.712C353.856 187.712 354.291 187.765 354.707 187.871C355.126 187.978 355.497 188.143 355.82 188.367C356.147 188.591 356.404 188.878 356.592 189.23C356.78 189.578 356.875 189.995 356.875 190.482V196H354.723V194.865H354.659C354.527 195.121 354.351 195.347 354.131 195.542C353.911 195.734 353.647 195.885 353.338 195.995C353.029 196.101 352.672 196.154 352.267 196.154ZM352.917 194.588C353.251 194.588 353.545 194.523 353.801 194.391C354.057 194.256 354.257 194.075 354.403 193.848C354.549 193.621 354.621 193.363 354.621 193.076V192.207C354.55 192.254 354.453 192.296 354.328 192.335C354.208 192.371 354.071 192.404 353.918 192.436C353.766 192.465 353.613 192.491 353.46 192.516C353.307 192.538 353.169 192.557 353.045 192.575C352.778 192.614 352.546 192.676 352.347 192.761C352.148 192.847 351.994 192.962 351.883 193.108C351.773 193.25 351.718 193.427 351.718 193.64C351.718 193.949 351.83 194.185 352.054 194.349C352.281 194.509 352.569 194.588 352.917 194.588Z" fill="black"/>
<g filter="url(#filter0_d_167_55)">
<rect x="240" y="334" width="120" height="30" rx="10" fill="white"/>
<rect x="239.5" y="333.5" width="121" height="31" rx="10.5" stroke="black"/>
</g>
<path d="M253.73 354V343.091H257.619C258.464 343.091 259.165 343.237 259.723 343.528C260.284 343.819 260.703 344.222 260.98 344.737C261.257 345.248 261.395 345.839 261.395 346.511C261.395 347.178 261.255 347.766 260.975 348.274C260.698 348.778 260.279 349.17 259.717 349.451C259.16 349.732 258.459 349.872 257.613 349.872H254.668V348.455H257.464C257.997 348.455 258.43 348.379 258.764 348.226C259.101 348.073 259.348 347.851 259.504 347.56C259.661 347.269 259.739 346.919 259.739 346.511C259.739 346.099 259.659 345.742 259.499 345.44C259.343 345.138 259.096 344.907 258.759 344.748C258.425 344.584 257.986 344.502 257.443 344.502H255.376V354H253.73ZM259.116 349.078L261.811 354H259.936L257.294 349.078H259.116ZM266.694 354.165C265.888 354.165 265.194 353.993 264.611 353.648C264.033 353.3 263.585 352.812 263.269 352.184C262.957 351.551 262.8 350.811 262.8 349.962C262.8 349.124 262.957 348.386 263.269 347.746C263.585 347.107 264.025 346.608 264.59 346.25C265.158 345.891 265.822 345.712 266.582 345.712C267.044 345.712 267.491 345.788 267.925 345.941C268.358 346.093 268.747 346.333 269.091 346.66C269.436 346.987 269.707 347.411 269.906 347.933C270.105 348.451 270.204 349.082 270.204 349.824V350.388H263.7V349.195H268.644C268.644 348.776 268.558 348.405 268.388 348.082C268.218 347.755 267.978 347.498 267.669 347.31C267.363 347.121 267.005 347.027 266.593 347.027C266.145 347.027 265.755 347.137 265.421 347.358C265.091 347.574 264.835 347.858 264.654 348.21C264.476 348.558 264.388 348.936 264.388 349.344V350.277C264.388 350.824 264.484 351.289 264.675 351.672C264.871 352.056 265.142 352.349 265.49 352.551C265.838 352.75 266.245 352.849 266.71 352.849C267.012 352.849 267.287 352.807 267.536 352.722C267.784 352.633 267.999 352.501 268.18 352.327C268.361 352.153 268.5 351.939 268.596 351.683L270.103 351.955C269.982 352.398 269.766 352.787 269.453 353.121C269.144 353.451 268.756 353.709 268.287 353.893C267.822 354.075 267.291 354.165 266.694 354.165ZM275.402 357.239C274.752 357.239 274.193 357.153 273.724 356.983C273.259 356.813 272.879 356.587 272.584 356.306C272.289 356.026 272.069 355.719 271.924 355.385L273.293 354.82C273.388 354.977 273.516 355.142 273.676 355.316C273.839 355.493 274.06 355.644 274.337 355.768C274.617 355.893 274.978 355.955 275.418 355.955C276.022 355.955 276.521 355.808 276.915 355.513C277.309 355.222 277.506 354.756 277.506 354.117V352.509H277.405C277.309 352.683 277.17 352.876 276.989 353.089C276.812 353.302 276.567 353.487 276.254 353.643C275.942 353.799 275.535 353.877 275.034 353.877C274.388 353.877 273.806 353.727 273.287 353.425C272.772 353.119 272.364 352.67 272.062 352.077C271.764 351.48 271.615 350.747 271.615 349.877C271.615 349.007 271.762 348.261 272.057 347.64C272.355 347.018 272.763 346.543 273.282 346.212C273.8 345.879 274.388 345.712 275.045 345.712C275.553 345.712 275.963 345.797 276.275 345.967C276.588 346.134 276.831 346.33 277.005 346.553C277.183 346.777 277.32 346.974 277.415 347.145H277.533V345.818H279.093V354.181C279.093 354.884 278.93 355.461 278.603 355.912C278.277 356.363 277.834 356.697 277.277 356.914C276.723 357.13 276.098 357.239 275.402 357.239ZM275.386 352.556C275.844 352.556 276.231 352.45 276.547 352.237C276.867 352.02 277.108 351.711 277.272 351.31C277.438 350.905 277.522 350.42 277.522 349.856C277.522 349.305 277.44 348.821 277.277 348.402C277.114 347.983 276.874 347.656 276.558 347.422C276.242 347.184 275.851 347.065 275.386 347.065C274.907 347.065 274.507 347.189 274.187 347.438C273.868 347.683 273.626 348.016 273.463 348.439C273.303 348.862 273.223 349.334 273.223 349.856C273.223 350.392 273.305 350.863 273.468 351.267C273.632 351.672 273.873 351.988 274.193 352.216C274.516 352.443 274.914 352.556 275.386 352.556ZM281.229 354V345.818H282.822V354H281.229ZM282.034 344.556C281.757 344.556 281.519 344.463 281.32 344.279C281.125 344.091 281.027 343.867 281.027 343.608C281.027 343.345 281.125 343.121 281.32 342.936C281.519 342.748 281.757 342.654 282.034 342.654C282.311 342.654 282.547 342.748 282.742 342.936C282.941 343.121 283.04 343.345 283.04 343.608C283.04 343.867 282.941 344.091 282.742 344.279C282.547 344.463 282.311 344.556 282.034 344.556ZM291.096 347.816L289.652 348.071C289.592 347.887 289.496 347.711 289.365 347.544C289.237 347.377 289.063 347.24 288.843 347.134C288.622 347.027 288.347 346.974 288.017 346.974C287.566 346.974 287.189 347.075 286.888 347.278C286.586 347.477 286.435 347.734 286.435 348.05C286.435 348.324 286.536 348.544 286.738 348.711C286.941 348.877 287.268 349.014 287.719 349.121L289.018 349.419C289.771 349.593 290.332 349.861 290.702 350.223C291.071 350.586 291.256 351.056 291.256 351.635C291.256 352.125 291.113 352.562 290.829 352.945C290.549 353.325 290.156 353.624 289.652 353.84C289.151 354.057 288.571 354.165 287.91 354.165C286.994 354.165 286.247 353.97 285.668 353.579C285.089 353.185 284.734 352.626 284.602 351.901L286.142 351.667C286.238 352.068 286.435 352.372 286.733 352.578C287.031 352.78 287.42 352.881 287.9 352.881C288.422 352.881 288.839 352.773 289.151 352.556C289.464 352.336 289.62 352.068 289.62 351.752C289.62 351.496 289.524 351.282 289.333 351.108C289.144 350.934 288.855 350.802 288.464 350.713L287.079 350.41C286.316 350.236 285.751 349.959 285.385 349.579C285.023 349.199 284.842 348.718 284.842 348.135C284.842 347.652 284.977 347.23 285.247 346.868C285.517 346.505 285.89 346.223 286.366 346.021C286.841 345.815 287.387 345.712 288.001 345.712C288.885 345.712 289.581 345.903 290.089 346.287C290.597 346.667 290.932 347.176 291.096 347.816ZM296.826 345.818V347.097H292.357V345.818H296.826ZM293.555 343.858H295.148V351.598C295.148 351.907 295.194 352.139 295.287 352.295C295.379 352.448 295.498 352.553 295.643 352.61C295.793 352.663 295.954 352.69 296.128 352.69C296.256 352.69 296.368 352.681 296.464 352.663C296.56 352.645 296.634 352.631 296.687 352.62L296.975 353.936C296.883 353.972 296.751 354.007 296.581 354.043C296.41 354.082 296.197 354.103 295.942 354.107C295.523 354.114 295.132 354.039 294.77 353.883C294.408 353.727 294.115 353.485 293.891 353.158C293.667 352.832 293.555 352.422 293.555 351.928V343.858ZM298.588 354V345.818H300.127V347.118H300.212C300.362 346.678 300.624 346.331 301.001 346.079C301.381 345.824 301.81 345.696 302.29 345.696C302.389 345.696 302.506 345.699 302.641 345.706C302.78 345.713 302.888 345.722 302.966 345.733V347.256C302.902 347.239 302.789 347.219 302.625 347.198C302.462 347.173 302.299 347.161 302.135 347.161C301.759 347.161 301.423 347.24 301.129 347.4C300.837 347.556 300.607 347.775 300.436 348.055C300.266 348.332 300.18 348.648 300.18 349.004V354H298.588ZM306.652 354.181C306.134 354.181 305.665 354.085 305.246 353.893C304.827 353.698 304.495 353.416 304.25 353.047C304.009 352.677 303.888 352.224 303.888 351.688C303.888 351.227 303.977 350.847 304.154 350.548C304.332 350.25 304.571 350.014 304.873 349.84C305.175 349.666 305.512 349.534 305.885 349.446C306.258 349.357 306.638 349.289 307.025 349.243C307.515 349.186 307.913 349.14 308.218 349.105C308.524 349.066 308.746 349.004 308.884 348.918C309.023 348.833 309.092 348.695 309.092 348.503V348.466C309.092 348 308.961 347.64 308.698 347.384C308.439 347.129 308.052 347.001 307.537 347.001C307 347.001 306.578 347.12 306.269 347.358C305.963 347.592 305.752 347.853 305.635 348.141L304.138 347.8C304.316 347.303 304.575 346.901 304.916 346.596C305.26 346.287 305.656 346.063 306.104 345.925C306.551 345.783 307.022 345.712 307.515 345.712C307.842 345.712 308.188 345.751 308.554 345.829C308.923 345.903 309.268 346.042 309.587 346.244C309.911 346.447 310.175 346.736 310.381 347.113C310.587 347.485 310.69 347.97 310.69 348.567V354H309.135V352.881H309.071C308.968 353.087 308.813 353.29 308.607 353.489C308.401 353.687 308.137 353.853 307.814 353.984C307.49 354.115 307.103 354.181 306.652 354.181ZM306.999 352.903C307.439 352.903 307.815 352.816 308.128 352.642C308.444 352.468 308.684 352.24 308.847 351.96C309.014 351.676 309.097 351.372 309.097 351.049V349.994C309.04 350.051 308.93 350.104 308.767 350.154C308.607 350.2 308.424 350.241 308.218 350.277C308.012 350.309 307.812 350.339 307.616 350.367C307.421 350.392 307.258 350.413 307.126 350.431C306.817 350.47 306.535 350.536 306.279 350.628C306.027 350.721 305.825 350.854 305.672 351.028C305.523 351.198 305.449 351.425 305.449 351.71C305.449 352.104 305.594 352.402 305.885 352.604C306.177 352.803 306.548 352.903 306.999 352.903ZM312.811 354V345.818H314.351V347.118H314.436C314.585 346.678 314.848 346.331 315.224 346.079C315.604 345.824 316.034 345.696 316.513 345.696C316.613 345.696 316.73 345.699 316.865 345.706C317.003 345.713 317.112 345.722 317.19 345.733V347.256C317.126 347.239 317.012 347.219 316.849 347.198C316.686 347.173 316.522 347.161 316.359 347.161C315.983 347.161 315.647 347.24 315.352 347.4C315.061 347.556 314.83 347.775 314.66 348.055C314.489 348.332 314.404 348.648 314.404 349.004V354H312.811ZM327.721 350.607V345.818H329.319V354H327.753V352.583H327.668C327.479 353.02 327.177 353.384 326.762 353.675C326.35 353.963 325.837 354.107 325.223 354.107C324.697 354.107 324.232 353.991 323.827 353.76C323.426 353.526 323.11 353.18 322.879 352.722C322.652 352.263 322.538 351.697 322.538 351.022V345.818H324.131V350.831C324.131 351.388 324.285 351.832 324.594 352.162C324.903 352.493 325.304 352.658 325.798 352.658C326.096 352.658 326.393 352.583 326.687 352.434C326.986 352.285 327.233 352.059 327.428 351.757C327.627 351.456 327.724 351.072 327.721 350.607ZM337.59 347.816L336.146 348.071C336.086 347.887 335.99 347.711 335.859 347.544C335.731 347.377 335.557 347.24 335.337 347.134C335.116 347.027 334.841 346.974 334.511 346.974C334.06 346.974 333.684 347.075 333.382 347.278C333.08 347.477 332.929 347.734 332.929 348.05C332.929 348.324 333.03 348.544 333.233 348.711C333.435 348.877 333.762 349.014 334.213 349.121L335.512 349.419C336.265 349.593 336.826 349.861 337.196 350.223C337.565 350.586 337.75 351.056 337.75 351.635C337.75 352.125 337.608 352.562 337.324 352.945C337.043 353.325 336.651 353.624 336.146 353.84C335.646 354.057 335.065 354.165 334.404 354.165C333.488 354.165 332.741 353.97 332.162 353.579C331.583 353.185 331.228 352.626 331.097 351.901L332.636 351.667C332.732 352.068 332.929 352.372 333.227 352.578C333.526 352.78 333.914 352.881 334.394 352.881C334.916 352.881 335.333 352.773 335.646 352.556C335.958 352.336 336.114 352.068 336.114 351.752C336.114 351.496 336.018 351.282 335.827 351.108C335.639 350.934 335.349 350.802 334.958 350.713L333.574 350.41C332.81 350.236 332.245 349.959 331.88 349.579C331.517 349.199 331.336 348.718 331.336 348.135C331.336 347.652 331.471 347.23 331.741 346.868C332.011 346.505 332.384 346.223 332.86 346.021C333.336 345.815 333.881 345.712 334.495 345.712C335.379 345.712 336.075 345.903 336.583 346.287C337.091 346.667 337.427 347.176 337.59 347.816ZM342.947 354.165C342.18 354.165 341.511 353.989 340.939 353.638C340.367 353.286 339.923 352.794 339.607 352.162C339.291 351.53 339.133 350.792 339.133 349.946C339.133 349.098 339.291 348.355 339.607 347.72C339.923 347.084 340.367 346.591 340.939 346.239C341.511 345.887 342.18 345.712 342.947 345.712C343.714 345.712 344.384 345.887 344.955 346.239C345.527 346.591 345.971 347.084 346.287 347.72C346.603 348.355 346.761 349.098 346.761 349.946C346.761 350.792 346.603 351.53 346.287 352.162C345.971 352.794 345.527 353.286 344.955 353.638C344.384 353.989 343.714 354.165 342.947 354.165ZM342.953 352.828C343.45 352.828 343.862 352.697 344.188 352.434C344.515 352.171 344.756 351.821 344.913 351.385C345.073 350.948 345.152 350.467 345.152 349.941C345.152 349.419 345.073 348.94 344.913 348.503C344.756 348.062 344.515 347.709 344.188 347.443C343.862 347.176 343.45 347.043 342.953 347.043C342.452 347.043 342.036 347.176 341.706 347.443C341.379 347.709 341.136 348.062 340.976 348.503C340.82 348.94 340.742 349.419 340.742 349.941C340.742 350.467 340.82 350.948 340.976 351.385C341.136 351.821 341.379 352.171 341.706 352.434C342.036 352.697 342.452 352.828 342.953 352.828Z" fill="black"/>
<line x1="180" y1="108.5" x2="420" y2="108.5" stroke="black"/>
<path d="M180.874 102.763V101.676L185.668 94.0909H186.456V95.7741H185.923L182.301 101.506V101.591H188.757V102.763H180.874ZM186.008 105V102.433V101.926V94.0909H187.266V105H186.008ZM194.162 105.149C193.537 105.149 192.974 105.025 192.474 104.776C191.973 104.528 191.572 104.187 191.27 103.754C190.968 103.32 190.803 102.827 190.775 102.273H192.053C192.103 102.766 192.326 103.175 192.724 103.498C193.125 103.817 193.605 103.977 194.162 103.977C194.61 103.977 195.008 103.873 195.356 103.663C195.707 103.453 195.982 103.166 196.181 102.8C196.384 102.431 196.485 102.013 196.485 101.548C196.485 101.072 196.38 100.648 196.171 100.275C195.965 99.8988 195.68 99.6023 195.318 99.3857C194.956 99.169 194.542 99.0589 194.077 99.0554C193.743 99.0518 193.401 99.1033 193.049 99.2099C192.698 99.3129 192.408 99.446 192.181 99.6094L190.945 99.4602L191.606 94.0909H197.273V95.2628H192.713L192.33 98.4801H192.394C192.618 98.3026 192.898 98.1552 193.235 98.038C193.573 97.9208 193.924 97.8622 194.29 97.8622C194.958 97.8622 195.553 98.022 196.075 98.3416C196.6 98.6577 197.012 99.0909 197.31 99.6413C197.612 100.192 197.763 100.82 197.763 101.527C197.763 102.223 197.607 102.844 197.294 103.391C196.985 103.935 196.559 104.364 196.016 104.68C195.473 104.993 194.855 105.149 194.162 105.149ZM203.714 94.0909V105H202.393V95.4759H202.33L199.666 97.2443V95.902L202.393 94.0909H203.714ZM210.687 94.0909V105H209.366V95.4759H209.302L206.639 97.2443V95.902L209.366 94.0909H210.687ZM217.298 93.9418C217.745 93.9453 218.192 94.0305 218.64 94.1974C219.087 94.3643 219.496 94.6413 219.865 95.0284C220.234 95.4119 220.531 95.9357 220.755 96.5998C220.978 97.2638 221.09 98.0966 221.09 99.098C221.09 100.067 220.998 100.929 220.813 101.681C220.632 102.431 220.369 103.063 220.025 103.578C219.684 104.093 219.268 104.483 218.778 104.75C218.292 105.016 217.741 105.149 217.127 105.149C216.516 105.149 215.971 105.028 215.492 104.787C215.016 104.542 214.625 104.203 214.32 103.77C214.018 103.333 213.825 102.827 213.739 102.251H215.039C215.156 102.752 215.389 103.166 215.737 103.493C216.088 103.816 216.552 103.977 217.127 103.977C217.969 103.977 218.633 103.61 219.119 102.875C219.609 102.14 219.854 101.101 219.854 99.7585H219.769C219.57 100.057 219.334 100.314 219.061 100.531C218.787 100.748 218.484 100.914 218.15 101.032C217.816 101.149 217.461 101.207 217.084 101.207C216.459 101.207 215.886 101.053 215.364 100.744C214.845 100.431 214.43 100.004 214.118 99.4602C213.809 98.9134 213.654 98.2884 213.654 97.5852C213.654 96.9176 213.803 96.3068 214.102 95.7528C214.403 95.1953 214.826 94.7514 215.369 94.4212C215.916 94.0909 216.559 93.9311 217.298 93.9418ZM217.298 95.1136C216.85 95.1136 216.447 95.2255 216.088 95.4492C215.733 95.6694 215.451 95.9677 215.241 96.3441C215.035 96.717 214.932 97.1307 214.932 97.5852C214.932 98.0398 215.032 98.4535 215.231 98.8263C215.433 99.1957 215.708 99.4904 216.056 99.7106C216.408 99.9272 216.807 100.036 217.255 100.036C217.592 100.036 217.907 99.9698 218.198 99.8384C218.489 99.7035 218.743 99.5206 218.959 99.2898C219.18 99.0554 219.352 98.7908 219.476 98.4961C219.6 98.1978 219.663 97.8871 219.663 97.5639C219.663 97.1378 219.56 96.7383 219.354 96.3654C219.151 95.9925 218.871 95.6907 218.512 95.4599C218.157 95.229 217.752 95.1136 217.298 95.1136ZM226.807 105.149C226.36 105.142 225.912 105.057 225.465 104.893C225.017 104.73 224.609 104.455 224.24 104.068C223.87 103.677 223.574 103.15 223.35 102.486C223.126 101.818 223.014 100.98 223.014 99.9716C223.014 99.0057 223.105 98.1499 223.286 97.4041C223.467 96.6548 223.73 96.0245 224.074 95.5131C224.419 94.9982 224.834 94.6076 225.321 94.3413C225.811 94.0749 226.363 93.9418 226.978 93.9418C227.588 93.9418 228.132 94.0643 228.607 94.3093C229.087 94.5508 229.478 94.8881 229.779 95.3214C230.081 95.7546 230.277 96.2536 230.365 96.8182H229.066C228.945 96.3281 228.71 95.9215 228.362 95.5984C228.014 95.2752 227.553 95.1136 226.978 95.1136C226.132 95.1136 225.467 95.4812 224.98 96.2163C224.497 96.9513 224.254 97.983 224.25 99.3111H224.335C224.534 99.0092 224.77 98.7518 225.044 98.5387C225.321 98.3221 225.626 98.1552 225.96 98.038C226.294 97.9208 226.647 97.8622 227.02 97.8622C227.645 97.8622 228.217 98.0185 228.735 98.331C229.254 98.6399 229.669 99.0678 229.982 99.6147C230.294 100.158 230.451 100.781 230.451 101.484C230.451 102.159 230.3 102.777 229.998 103.338C229.696 103.896 229.272 104.339 228.725 104.67C228.181 104.996 227.542 105.156 226.807 105.149ZM226.807 103.977C227.254 103.977 227.656 103.865 228.011 103.642C228.37 103.418 228.652 103.118 228.858 102.741C229.067 102.365 229.172 101.946 229.172 101.484C229.172 101.033 229.071 100.623 228.868 100.254C228.67 99.881 228.394 99.5845 228.043 99.3643C227.695 99.1442 227.297 99.0341 226.85 99.0341C226.512 99.0341 226.198 99.1016 225.907 99.2365C225.616 99.3679 225.36 99.549 225.14 99.7798C224.923 100.011 224.753 100.275 224.628 100.574C224.504 100.868 224.442 101.179 224.442 101.506C224.442 101.939 224.543 102.344 224.746 102.72C224.952 103.097 225.232 103.4 225.587 103.631C225.946 103.862 226.353 103.977 226.807 103.977ZM236.018 93.9418C236.466 93.9453 236.913 94.0305 237.361 94.1974C237.808 94.3643 238.216 94.6413 238.586 95.0284C238.955 95.4119 239.252 95.9357 239.475 96.5998C239.699 97.2638 239.811 98.0966 239.811 99.098C239.811 100.067 239.719 100.929 239.534 101.681C239.353 102.431 239.09 103.063 238.746 103.578C238.405 104.093 237.989 104.483 237.499 104.75C237.013 105.016 236.462 105.149 235.848 105.149C235.237 105.149 234.692 105.028 234.213 104.787C233.737 104.542 233.346 104.203 233.041 103.77C232.739 103.333 232.545 102.827 232.46 102.251H233.76C233.877 102.752 234.11 103.166 234.458 103.493C234.809 103.816 235.273 103.977 235.848 103.977C236.689 103.977 237.353 103.61 237.84 102.875C238.33 102.14 238.575 101.101 238.575 99.7585H238.49C238.291 100.057 238.055 100.314 237.781 100.531C237.508 100.748 237.204 100.914 236.871 101.032C236.537 101.149 236.182 101.207 235.805 101.207C235.18 101.207 234.607 101.053 234.085 100.744C233.566 100.431 233.151 100.004 232.838 99.4602C232.529 98.9134 232.375 98.2884 232.375 97.5852C232.375 96.9176 232.524 96.3068 232.822 95.7528C233.124 95.1953 233.547 94.7514 234.09 94.4212C234.637 94.0909 235.28 93.9311 236.018 93.9418ZM236.018 95.1136C235.571 95.1136 235.168 95.2255 234.809 95.4492C234.454 95.6694 234.172 95.9677 233.962 96.3441C233.756 96.717 233.653 97.1307 233.653 97.5852C233.653 98.0398 233.753 98.4535 233.951 98.8263C234.154 99.1957 234.429 99.4904 234.777 99.7106C235.129 99.9272 235.528 100.036 235.976 100.036C236.313 100.036 236.627 99.9698 236.918 99.8384C237.21 99.7035 237.464 99.5206 237.68 99.2898C237.9 99.0554 238.073 98.7908 238.197 98.4961C238.321 98.1978 238.383 97.8871 238.383 97.5639C238.383 97.1378 238.28 96.7383 238.074 96.3654C237.872 95.9925 237.591 95.6907 237.233 95.4599C236.878 95.229 236.473 95.1136 236.018 95.1136ZM241.65 102.763V101.676L246.444 94.0909H247.232V95.7741H246.7L243.077 101.506V101.591H249.533V102.763H241.65ZM246.785 105V102.433V101.926V94.0909H248.042V105H246.785ZM255.088 105.149C254.285 105.149 253.602 104.931 253.037 104.494C252.472 104.054 252.041 103.416 251.743 102.582C251.444 101.744 251.295 100.732 251.295 99.5455C251.295 98.3665 251.444 97.3597 251.743 96.5252C252.045 95.6871 252.478 95.0479 253.042 94.6076C253.611 94.1637 254.292 93.9418 255.088 93.9418C255.883 93.9418 256.563 94.1637 257.128 94.6076C257.696 95.0479 258.129 95.6871 258.428 96.5252C258.73 97.3597 258.88 98.3665 258.88 99.5455C258.88 100.732 258.731 101.744 258.433 102.582C258.135 103.416 257.703 104.054 257.139 104.494C256.574 104.931 255.89 105.149 255.088 105.149ZM255.088 103.977C255.883 103.977 256.501 103.594 256.942 102.827C257.382 102.06 257.602 100.966 257.602 99.5455C257.602 98.6009 257.501 97.7965 257.298 97.1325C257.1 96.4684 256.812 95.9624 256.436 95.6143C256.063 95.2663 255.613 95.0923 255.088 95.0923C254.3 95.0923 253.683 95.4812 253.239 96.2589C252.796 97.033 252.574 98.1286 252.574 99.5455C252.574 100.49 252.673 101.293 252.872 101.953C253.071 102.614 253.357 103.116 253.73 103.461C254.106 103.805 254.559 103.977 255.088 103.977ZM264.527 105.149C264.079 105.142 263.632 105.057 263.184 104.893C262.737 104.73 262.329 104.455 261.959 104.068C261.59 103.677 261.293 103.15 261.07 102.486C260.846 101.818 260.734 100.98 260.734 99.9716C260.734 99.0057 260.825 98.1499 261.006 97.4041C261.187 96.6548 261.45 96.0245 261.794 95.5131C262.139 94.9982 262.554 94.6076 263.041 94.3413C263.531 94.0749 264.083 93.9418 264.697 93.9418C265.308 93.9418 265.851 94.0643 266.327 94.3093C266.807 94.5508 267.197 94.8881 267.499 95.3214C267.801 95.7546 267.996 96.2536 268.085 96.8182H266.785C266.665 96.3281 266.43 95.9215 266.082 95.5984C265.734 95.2752 265.273 95.1136 264.697 95.1136C263.852 95.1136 263.186 95.4812 262.7 96.2163C262.217 96.9513 261.974 97.983 261.97 99.3111H262.055C262.254 99.0092 262.49 98.7518 262.764 98.5387C263.041 98.3221 263.346 98.1552 263.68 98.038C264.014 97.9208 264.367 97.8622 264.74 97.8622C265.365 97.8622 265.937 98.0185 266.455 98.331C266.974 98.6399 267.389 99.0678 267.701 99.6147C268.014 100.158 268.17 100.781 268.17 101.484C268.17 102.159 268.019 102.777 267.717 103.338C267.416 103.896 266.991 104.339 266.444 104.67C265.901 104.996 265.262 105.156 264.527 105.149ZM264.527 103.977C264.974 103.977 265.376 103.865 265.731 103.642C266.089 103.418 266.372 103.118 266.578 102.741C266.787 102.365 266.892 101.946 266.892 101.484C266.892 101.033 266.791 100.623 266.588 100.254C266.389 99.881 266.114 99.5845 265.763 99.3643C265.415 99.1442 265.017 99.0341 264.569 99.0341C264.232 99.0341 263.918 99.1016 263.627 99.2365C263.335 99.3679 263.08 99.549 262.86 99.7798C262.643 100.011 262.472 100.275 262.348 100.574C262.224 100.868 262.162 101.179 262.162 101.506C262.162 101.939 262.263 102.344 262.465 102.72C262.671 103.097 262.952 103.4 263.307 103.631C263.666 103.862 264.072 103.977 264.527 103.977ZM270.606 105L275.485 95.348V95.2628H269.86V94.0909H276.849V95.3267L271.991 105H270.606ZM282.109 105.149C281.377 105.149 280.731 105.02 280.17 104.76C279.612 104.498 279.177 104.137 278.865 103.679C278.552 103.217 278.398 102.692 278.402 102.102C278.398 101.641 278.489 101.214 278.673 100.824C278.858 100.43 279.11 100.101 279.43 99.8384C279.753 99.5721 280.113 99.4034 280.511 99.3324V99.2685C279.989 99.1335 279.573 98.8406 279.264 98.3896C278.955 97.935 278.803 97.4183 278.806 96.8395C278.803 96.2855 278.943 95.7901 279.227 95.3533C279.511 94.9165 279.902 94.5721 280.399 94.32C280.9 94.0678 281.47 93.9418 282.109 93.9418C282.741 93.9418 283.306 94.0678 283.803 94.32C284.3 94.5721 284.691 94.9165 284.975 95.3533C285.262 95.7901 285.408 96.2855 285.411 96.8395C285.408 97.4183 285.25 97.935 284.937 98.3896C284.628 98.8406 284.218 99.1335 283.707 99.2685V99.3324C284.101 99.4034 284.456 99.5721 284.772 99.8384C285.088 100.101 285.34 100.43 285.529 100.824C285.717 101.214 285.813 101.641 285.816 102.102C285.813 102.692 285.653 103.217 285.337 103.679C285.024 104.137 284.589 104.498 284.032 104.76C283.478 105.02 282.837 105.149 282.109 105.149ZM282.109 103.977C282.603 103.977 283.029 103.897 283.387 103.738C283.746 103.578 284.023 103.352 284.218 103.061C284.414 102.77 284.513 102.429 284.517 102.038C284.513 101.626 284.406 101.262 284.197 100.946C283.987 100.63 283.702 100.382 283.339 100.201C282.981 100.02 282.571 99.929 282.109 99.929C281.644 99.929 281.228 100.02 280.862 100.201C280.5 100.382 280.214 100.63 280.005 100.946C279.799 101.262 279.698 101.626 279.701 102.038C279.698 102.429 279.792 102.77 279.984 103.061C280.179 103.352 280.458 103.578 280.82 103.738C281.182 103.897 281.612 103.977 282.109 103.977ZM282.109 98.7997C282.5 98.7997 282.846 98.7216 283.148 98.5653C283.453 98.4091 283.693 98.1907 283.867 97.9102C284.041 97.6296 284.129 97.3011 284.133 96.9247C284.129 96.5554 284.042 96.234 283.872 95.9606C283.702 95.6836 283.465 95.4705 283.164 95.3214C282.862 95.1687 282.51 95.0923 282.109 95.0923C281.701 95.0923 281.344 95.1687 281.038 95.3214C280.733 95.4705 280.497 95.6836 280.33 95.9606C280.163 96.234 280.081 96.5554 280.085 96.9247C280.081 97.3011 280.165 97.6296 280.335 97.9102C280.509 98.1907 280.749 98.4091 281.054 98.5653C281.36 98.7216 281.711 98.7997 282.109 98.7997Z" fill="black"/>
<path d="M183.255 73.0909V84H180.948V73.0909H183.255ZM189.019 84H185.152V73.0909H189.051C190.149 73.0909 191.093 73.3093 191.885 73.7461C192.677 74.1793 193.286 74.8026 193.712 75.6158C194.142 76.429 194.357 77.402 194.357 78.5348C194.357 79.6712 194.142 80.6477 193.712 81.4645C193.286 82.2812 192.674 82.908 191.875 83.3448C191.079 83.7816 190.127 84 189.019 84ZM187.459 82.0238H188.924C189.605 82.0238 190.179 81.9031 190.644 81.6616C191.113 81.4165 191.464 81.0384 191.699 80.527C191.937 80.0121 192.056 79.348 192.056 78.5348C192.056 77.7287 191.937 77.07 191.699 76.5586C191.464 76.0472 191.115 75.6708 190.649 75.4293C190.184 75.1879 189.611 75.0671 188.929 75.0671H187.459V82.0238ZM199.537 84V73.0909H203.841C204.665 73.0909 205.368 73.2383 205.95 73.533C206.536 73.8242 206.982 74.2379 207.287 74.7741C207.596 75.3068 207.751 75.9336 207.751 76.6545C207.751 77.3789 207.595 78.0021 207.282 78.5241C206.97 79.0426 206.517 79.4403 205.924 79.7173C205.334 79.9943 204.62 80.1328 203.782 80.1328H200.901V78.2791H203.41C203.85 78.2791 204.216 78.2187 204.507 78.098C204.798 77.9773 205.015 77.7962 205.157 77.5547C205.302 77.3132 205.375 77.0131 205.375 76.6545C205.375 76.2923 205.302 75.9869 205.157 75.7383C205.015 75.4897 204.796 75.3015 204.501 75.1737C204.21 75.0423 203.843 74.9766 203.399 74.9766H201.843V84H199.537ZM205.428 79.0355L208.14 84H205.593L202.941 79.0355H205.428ZM212.935 84.1598C212.093 84.1598 211.369 83.9893 210.762 83.6484C210.158 83.304 209.693 82.8175 209.366 82.1889C209.039 81.5568 208.876 80.8093 208.876 79.9464C208.876 79.1048 209.039 78.3661 209.366 77.7305C209.693 77.0948 210.153 76.5994 210.746 76.2443C211.342 75.8892 212.042 75.7116 212.844 75.7116C213.384 75.7116 213.887 75.7987 214.352 75.9727C214.821 76.1431 215.229 76.4006 215.577 76.745C215.929 77.0895 216.202 77.5227 216.397 78.0447C216.593 78.5632 216.69 79.1705 216.69 79.8665V80.4897H209.782V79.0835H214.554C214.554 78.7567 214.483 78.4673 214.341 78.2152C214.199 77.9631 214.002 77.766 213.75 77.6239C213.501 77.4783 213.212 77.4055 212.882 77.4055C212.537 77.4055 212.232 77.4854 211.966 77.6452C211.703 77.8015 211.497 78.0128 211.348 78.2791C211.198 78.5419 211.122 78.8349 211.119 79.158V80.495C211.119 80.8999 211.193 81.2496 211.342 81.5444C211.495 81.8391 211.71 82.0664 211.987 82.2262C212.264 82.386 212.592 82.4659 212.972 82.4659C213.224 82.4659 213.455 82.4304 213.665 82.3594C213.874 82.2884 214.054 82.1818 214.203 82.0398C214.352 81.8977 214.466 81.7237 214.544 81.5178L216.642 81.6562C216.536 82.1605 216.317 82.6009 215.987 82.9773C215.66 83.3501 215.238 83.6413 214.719 83.8509C214.205 84.0568 213.61 84.1598 212.935 84.1598ZM221.868 84.1598C221.03 84.1598 220.309 83.9822 219.705 83.6271C219.105 83.2685 218.643 82.7713 218.32 82.1357C218.001 81.5 217.841 80.7685 217.841 79.9411C217.841 79.103 218.002 78.3679 218.326 77.7358C218.652 77.1001 219.116 76.6048 219.716 76.2496C220.316 75.891 221.03 75.7116 221.857 75.7116C222.571 75.7116 223.196 75.8413 223.732 76.1005C224.268 76.3597 224.693 76.7237 225.005 77.1925C225.318 77.6612 225.49 78.2116 225.522 78.8438H223.381C223.32 78.4354 223.16 78.1069 222.901 77.8583C222.646 77.6062 222.31 77.4801 221.895 77.4801C221.543 77.4801 221.236 77.576 220.973 77.7678C220.714 77.956 220.511 78.2312 220.366 78.5934C220.22 78.9556 220.147 79.3942 220.147 79.9091C220.147 80.4311 220.218 80.875 220.36 81.2408C220.506 81.6065 220.71 81.8853 220.973 82.0771C221.236 82.2688 221.543 82.3647 221.895 82.3647C222.154 82.3647 222.386 82.3114 222.592 82.2049C222.802 82.0984 222.974 81.9439 223.109 81.7415C223.247 81.5355 223.338 81.2887 223.381 81.0011H225.522C225.486 81.6261 225.316 82.1765 225.011 82.6523C224.709 83.1246 224.292 83.494 223.759 83.7603C223.226 84.0266 222.596 84.1598 221.868 84.1598ZM230.704 84.1598C229.862 84.1598 229.137 83.9893 228.53 83.6484C227.927 83.304 227.461 82.8175 227.135 82.1889C226.808 81.5568 226.645 80.8093 226.645 79.9464C226.645 79.1048 226.808 78.3661 227.135 77.7305C227.461 77.0948 227.921 76.5994 228.514 76.2443C229.111 75.8892 229.81 75.7116 230.613 75.7116C231.153 75.7116 231.655 75.7987 232.12 75.9727C232.589 76.1431 232.998 76.4006 233.346 76.745C233.697 77.0895 233.971 77.5227 234.166 78.0447C234.361 78.5632 234.459 79.1705 234.459 79.8665V80.4897H227.55V79.0835H232.323C232.323 78.7567 232.252 78.4673 232.11 78.2152C231.968 77.9631 231.771 77.766 231.519 77.6239C231.27 77.4783 230.981 77.4055 230.65 77.4055C230.306 77.4055 230 77.4854 229.734 77.6452C229.471 77.8015 229.265 78.0128 229.116 78.2791C228.967 78.5419 228.891 78.8349 228.887 79.158V80.495C228.887 80.8999 228.962 81.2496 229.111 81.5444C229.264 81.8391 229.478 82.0664 229.755 82.2262C230.032 82.386 230.361 82.4659 230.741 82.4659C230.993 82.4659 231.224 82.4304 231.433 82.3594C231.643 82.2884 231.822 82.1818 231.971 82.0398C232.12 81.8977 232.234 81.7237 232.312 81.5178L234.411 81.6562C234.304 82.1605 234.086 82.6009 233.756 82.9773C233.429 83.3501 233.006 83.6413 232.488 83.8509C231.973 84.0568 231.378 84.1598 230.704 84.1598ZM235.94 84V75.8182H238.209V84H235.94ZM237.08 74.7635C236.742 74.7635 236.453 74.6516 236.211 74.4279C235.973 74.2006 235.854 73.929 235.854 73.6129C235.854 73.3004 235.973 73.0323 236.211 72.8086C236.453 72.5813 236.742 72.4677 237.08 72.4677C237.417 72.4677 237.705 72.5813 237.943 72.8086C238.184 73.0323 238.305 73.3004 238.305 73.6129C238.305 73.929 238.184 74.2006 237.943 74.4279C237.705 74.6516 237.417 74.7635 237.08 74.7635ZM244.379 75.8182V77.5227H239.451V75.8182H244.379ZM240.57 73.858H242.839V81.4858C242.839 81.6953 242.871 81.8587 242.935 81.9759C242.999 82.0895 243.088 82.1694 243.201 82.2156C243.319 82.2617 243.453 82.2848 243.606 82.2848C243.713 82.2848 243.819 82.2759 243.926 82.2582C244.032 82.2369 244.114 82.2209 244.171 82.2102L244.528 83.8988C244.414 83.9343 244.254 83.9751 244.048 84.0213C243.842 84.071 243.592 84.1012 243.297 84.1119C242.75 84.1332 242.271 84.0604 241.859 83.8935C241.451 83.7266 241.133 83.4673 240.906 83.1158C240.678 82.7642 240.566 82.3203 240.57 81.7841V73.858ZM248.19 84.1545C247.668 84.1545 247.203 84.0639 246.794 83.8828C246.386 83.6982 246.063 83.4265 245.825 83.0678C245.59 82.7056 245.473 82.2546 245.473 81.7148C245.473 81.2603 245.557 80.8786 245.724 80.5696C245.89 80.2607 246.118 80.0121 246.405 79.8239C246.693 79.6357 247.02 79.4936 247.385 79.3977C247.755 79.3018 248.142 79.2344 248.547 79.1953C249.023 79.1456 249.406 79.0994 249.697 79.0568C249.988 79.0107 250.2 78.9432 250.331 78.8544C250.463 78.7656 250.528 78.6342 250.528 78.4602V78.4283C250.528 78.0909 250.422 77.8299 250.209 77.6452C249.999 77.4606 249.701 77.3683 249.314 77.3683C248.905 77.3683 248.58 77.4588 248.339 77.6399C248.097 77.8175 247.938 78.0412 247.86 78.3111L245.761 78.1406C245.867 77.6435 246.077 77.2138 246.389 76.8516C246.702 76.4858 247.105 76.2053 247.599 76.0099C248.096 75.8111 248.671 75.7116 249.324 75.7116C249.779 75.7116 250.214 75.7649 250.629 75.8714C251.048 75.978 251.42 76.1431 251.743 76.3668C252.069 76.5906 252.327 76.8782 252.515 77.2298C252.703 77.5778 252.797 77.995 252.797 78.4815V84H250.645V82.8654H250.581C250.45 83.1211 250.274 83.3466 250.054 83.5419C249.834 83.7337 249.569 83.8846 249.26 83.9947C248.951 84.1012 248.595 84.1545 248.19 84.1545ZM248.84 82.5884C249.173 82.5884 249.468 82.5227 249.724 82.3913C249.98 82.2564 250.18 82.0753 250.326 81.848C250.471 81.6207 250.544 81.3633 250.544 81.0756V80.2074C250.473 80.2536 250.376 80.2962 250.251 80.3352C250.13 80.3707 249.994 80.4045 249.841 80.4364C249.688 80.4648 249.536 80.4915 249.383 80.5163C249.23 80.5376 249.092 80.5572 248.967 80.5749C248.701 80.614 248.469 80.6761 248.27 80.7614C248.071 80.8466 247.916 80.962 247.806 81.1076C247.696 81.2496 247.641 81.4272 247.641 81.6403C247.641 81.9492 247.753 82.1854 247.977 82.3487C248.204 82.5085 248.492 82.5884 248.84 82.5884Z" fill="black"/>
<path d="M160 30C160 27.2386 162.239 25 165 25H435C437.761 25 440 27.2386 440 30V55H160V30Z" fill="white" stroke="black" stroke-width="3" stroke-linejoin="bevel"/>
<path d="M242.15 34.0909L244.787 42.3793H244.888L247.53 34.0909H250.087L246.326 45H243.354L239.588 34.0909H242.15ZM254.163 45.1598C253.321 45.1598 252.597 44.9893 251.99 44.6484C251.386 44.304 250.921 43.8175 250.594 43.1889C250.267 42.5568 250.104 41.8093 250.104 40.9464C250.104 40.1048 250.267 39.3661 250.594 38.7305C250.921 38.0948 251.381 37.5994 251.974 37.2443C252.57 36.8892 253.27 36.7116 254.072 36.7116C254.612 36.7116 255.115 36.7987 255.58 36.9727C256.049 37.1431 256.457 37.4006 256.805 37.745C257.157 38.0895 257.43 38.5227 257.625 39.0447C257.821 39.5632 257.918 40.1705 257.918 40.8665V41.4897H251.01V40.0835H255.782C255.782 39.7567 255.711 39.4673 255.569 39.2152C255.427 38.9631 255.23 38.766 254.978 38.6239C254.729 38.4783 254.44 38.4055 254.11 38.4055C253.765 38.4055 253.46 38.4854 253.194 38.6452C252.931 38.8015 252.725 39.0128 252.576 39.2791C252.427 39.5419 252.35 39.8349 252.347 40.158V41.495C252.347 41.8999 252.421 42.2496 252.57 42.5444C252.723 42.8391 252.938 43.0664 253.215 43.2262C253.492 43.386 253.82 43.4659 254.2 43.4659C254.452 43.4659 254.683 43.4304 254.893 43.3594C255.102 43.2884 255.282 43.1818 255.431 43.0398C255.58 42.8977 255.694 42.7237 255.772 42.5178L257.87 42.6562C257.764 43.1605 257.545 43.6009 257.215 43.9773C256.889 44.3501 256.466 44.6413 255.947 44.8509C255.433 45.0568 254.838 45.1598 254.163 45.1598ZM259.399 45V36.8182H261.599V38.2457H261.684C261.833 37.7379 262.084 37.3544 262.435 37.0952C262.787 36.8324 263.192 36.701 263.65 36.701C263.764 36.701 263.886 36.7081 264.017 36.7223C264.149 36.7365 264.264 36.756 264.364 36.7809V38.7944C264.257 38.7624 264.11 38.734 263.922 38.7092C263.733 38.6843 263.561 38.6719 263.405 38.6719C263.071 38.6719 262.773 38.7447 262.51 38.8903C262.251 39.0323 262.045 39.2312 261.892 39.4869C261.743 39.7425 261.668 40.0373 261.668 40.3711V45H259.399ZM265.537 45V36.8182H267.806V45H265.537ZM266.677 35.7635C266.339 35.7635 266.05 35.6516 265.809 35.4279C265.571 35.2006 265.452 34.929 265.452 34.6129C265.452 34.3004 265.571 34.0323 265.809 33.8086C266.05 33.5813 266.339 33.4677 266.677 33.4677C267.014 33.4677 267.302 33.5813 267.54 33.8086C267.781 34.0323 267.902 34.3004 267.902 34.6129C267.902 34.929 267.781 35.2006 267.54 35.4279C267.302 35.6516 267.014 35.7635 266.677 35.7635ZM274.024 36.8182V38.5227H268.974V36.8182H274.024ZM270.13 45V36.2269C270.13 35.6339 270.245 35.142 270.476 34.7514C270.71 34.3608 271.03 34.0678 271.435 33.8725C271.84 33.6772 272.3 33.5795 272.814 33.5795C273.163 33.5795 273.48 33.6062 273.768 33.6594C274.059 33.7127 274.276 33.7607 274.418 33.8033L274.013 35.5078C273.924 35.4794 273.814 35.4528 273.683 35.4279C273.555 35.4031 273.424 35.3906 273.289 35.3906C272.955 35.3906 272.722 35.4688 272.591 35.625C272.459 35.7777 272.394 35.9925 272.394 36.2695V45H270.13ZM275.41 45V36.8182H277.679V45H275.41ZM276.55 35.7635C276.212 35.7635 275.923 35.6516 275.682 35.4279C275.444 35.2006 275.325 34.929 275.325 34.6129C275.325 34.3004 275.444 34.0323 275.682 33.8086C275.923 33.5813 276.212 33.4677 276.55 33.4677C276.887 33.4677 277.175 33.5813 277.413 33.8086C277.654 34.0323 277.775 34.3004 277.775 34.6129C277.775 34.929 277.654 35.2006 277.413 35.4279C277.175 35.6516 276.887 35.7635 276.55 35.7635ZM283.194 45.1598C282.356 45.1598 281.635 44.9822 281.031 44.6271C280.431 44.2685 279.969 43.7713 279.646 43.1357C279.326 42.5 279.167 41.7685 279.167 40.9411C279.167 40.103 279.328 39.3679 279.651 38.7358C279.978 38.1001 280.441 37.6048 281.042 37.2496C281.642 36.891 282.356 36.7116 283.183 36.7116C283.897 36.7116 284.522 36.8413 285.058 37.1005C285.594 37.3597 286.019 37.7237 286.331 38.1925C286.644 38.6612 286.816 39.2116 286.848 39.8438H284.706C284.646 39.4354 284.486 39.1069 284.227 38.8583C283.971 38.6062 283.636 38.4801 283.22 38.4801C282.869 38.4801 282.561 38.576 282.299 38.7678C282.039 38.956 281.837 39.2312 281.691 39.5934C281.546 39.9556 281.473 40.3942 281.473 40.9091C281.473 41.4311 281.544 41.875 281.686 42.2408C281.832 42.6065 282.036 42.8853 282.299 43.0771C282.561 43.2688 282.869 43.3647 283.22 43.3647C283.479 43.3647 283.712 43.3114 283.918 43.2049C284.128 43.0984 284.3 42.9439 284.435 42.7415C284.573 42.5355 284.664 42.2887 284.706 42.0011H286.848C286.812 42.6261 286.642 43.1765 286.336 43.6523C286.034 44.1246 285.617 44.494 285.085 44.7603C284.552 45.0266 283.922 45.1598 283.194 45.1598ZM290.634 45.1545C290.112 45.1545 289.646 45.0639 289.238 44.8828C288.83 44.6982 288.507 44.4265 288.269 44.0678C288.034 43.7056 287.917 43.2546 287.917 42.7148C287.917 42.2603 288 41.8786 288.167 41.5696C288.334 41.2607 288.562 41.0121 288.849 40.8239C289.137 40.6357 289.464 40.4936 289.829 40.3977C290.199 40.3018 290.586 40.2344 290.991 40.1953C291.466 40.1456 291.85 40.0994 292.141 40.0568C292.432 40.0107 292.644 39.9432 292.775 39.8544C292.906 39.7656 292.972 39.6342 292.972 39.4602V39.4283C292.972 39.0909 292.866 38.8299 292.652 38.6452C292.443 38.4606 292.145 38.3683 291.758 38.3683C291.349 38.3683 291.024 38.4588 290.783 38.6399C290.541 38.8175 290.382 39.0412 290.303 39.3111L288.205 39.1406C288.311 38.6435 288.521 38.2138 288.833 37.8516C289.146 37.4858 289.549 37.2053 290.042 37.0099C290.54 36.8111 291.115 36.7116 291.768 36.7116C292.223 36.7116 292.658 36.7649 293.073 36.8714C293.492 36.978 293.863 37.1431 294.187 37.3668C294.513 37.5906 294.771 37.8782 294.959 38.2298C295.147 38.5778 295.241 38.995 295.241 39.4815V45H293.089V43.8654H293.025C292.894 44.1211 292.718 44.3466 292.498 44.5419C292.278 44.7337 292.013 44.8846 291.704 44.9947C291.395 45.1012 291.038 45.1545 290.634 45.1545ZM291.284 43.5884C291.617 43.5884 291.912 43.5227 292.168 43.3913C292.423 43.2564 292.624 43.0753 292.77 42.848C292.915 42.6207 292.988 42.3633 292.988 42.0756V41.2074C292.917 41.2536 292.819 41.2962 292.695 41.3352C292.574 41.3707 292.438 41.4045 292.285 41.4364C292.132 41.4648 291.98 41.4915 291.827 41.5163C291.674 41.5376 291.536 41.5572 291.411 41.5749C291.145 41.614 290.912 41.6761 290.714 41.7614C290.515 41.8466 290.36 41.962 290.25 42.1076C290.14 42.2496 290.085 42.4272 290.085 42.6403C290.085 42.9492 290.197 43.1854 290.421 43.3487C290.648 43.5085 290.936 43.5884 291.284 43.5884ZM297.002 45V36.8182H299.202V38.2457H299.287C299.436 37.7379 299.686 37.3544 300.038 37.0952C300.39 36.8324 300.794 36.701 301.252 36.701C301.366 36.701 301.489 36.7081 301.62 36.7223C301.751 36.7365 301.867 36.756 301.966 36.7809V38.7944C301.86 38.7624 301.712 38.734 301.524 38.7092C301.336 38.6843 301.164 38.6719 301.007 38.6719C300.674 38.6719 300.375 38.7447 300.113 38.8903C299.853 39.0323 299.647 39.2312 299.495 39.4869C299.345 39.7425 299.271 40.0373 299.271 40.3711V45H297.002ZM306.654 45V34.0909H310.958C311.782 34.0909 312.485 34.2383 313.067 34.533C313.653 34.8242 314.099 35.2379 314.404 35.7741C314.713 36.3068 314.867 36.9336 314.867 37.6545C314.867 38.3789 314.711 39.0021 314.399 39.5241C314.086 40.0426 313.633 40.4403 313.04 40.7173C312.451 40.9943 311.737 41.1328 310.899 41.1328H308.017V39.2791H310.526C310.967 39.2791 311.332 39.2187 311.624 39.098C311.915 38.9773 312.131 38.7962 312.273 38.5547C312.419 38.3132 312.492 38.0131 312.492 37.6545C312.492 37.2923 312.419 36.9869 312.273 36.7383C312.131 36.4897 311.913 36.3015 311.618 36.1737C311.327 36.0423 310.959 35.9766 310.516 35.9766H308.96V45H306.654ZM312.545 40.0355L315.256 45H312.71L310.057 40.0355H312.545ZM320.052 45.1598C319.21 45.1598 318.486 44.9893 317.878 44.6484C317.275 44.304 316.81 43.8175 316.483 43.1889C316.156 42.5568 315.993 41.8093 315.993 40.9464C315.993 40.1048 316.156 39.3661 316.483 38.7305C316.81 38.0948 317.269 37.5994 317.862 37.2443C318.459 36.8892 319.159 36.7116 319.961 36.7116C320.501 36.7116 321.003 36.7987 321.469 36.9727C321.937 37.1431 322.346 37.4006 322.694 37.745C323.045 38.0895 323.319 38.5227 323.514 39.0447C323.709 39.5632 323.807 40.1705 323.807 40.8665V41.4897H316.898V40.0835H321.671C321.671 39.7567 321.6 39.4673 321.458 39.2152C321.316 38.9631 321.119 38.766 320.867 38.6239C320.618 38.4783 320.329 38.4055 319.998 38.4055C319.654 38.4055 319.349 38.4854 319.082 38.6452C318.819 38.8015 318.614 39.0128 318.464 39.2791C318.315 39.5419 318.239 39.8349 318.235 40.158V41.495C318.235 41.8999 318.31 42.2496 318.459 42.5444C318.612 42.8391 318.827 43.0664 319.104 43.2262C319.381 43.386 319.709 43.4659 320.089 43.4659C320.341 43.4659 320.572 43.4304 320.781 43.3594C320.991 43.2884 321.17 43.1818 321.319 43.0398C321.469 42.8977 321.582 42.7237 321.66 42.5178L323.759 42.6562C323.653 43.1605 323.434 43.6009 323.104 43.9773C322.777 44.3501 322.355 44.6413 321.836 44.8509C321.321 45.0568 320.726 45.1598 320.052 45.1598ZM328.985 45.1598C328.147 45.1598 327.426 44.9822 326.822 44.6271C326.222 44.2685 325.76 43.7713 325.437 43.1357C325.117 42.5 324.958 41.7685 324.958 40.9411C324.958 40.103 325.119 39.3679 325.442 38.7358C325.769 38.1001 326.232 37.6048 326.833 37.2496C327.433 36.891 328.147 36.7116 328.974 36.7116C329.688 36.7116 330.313 36.8413 330.849 37.1005C331.385 37.3597 331.81 37.7237 332.122 38.1925C332.435 38.6612 332.607 39.2116 332.639 39.8438H330.497C330.437 39.4354 330.277 39.1069 330.018 38.8583C329.762 38.6062 329.427 38.4801 329.011 38.4801C328.66 38.4801 328.352 38.576 328.09 38.7678C327.83 38.956 327.628 39.2312 327.482 39.5934C327.337 39.9556 327.264 40.3942 327.264 40.9091C327.264 41.4311 327.335 41.875 327.477 42.2408C327.623 42.6065 327.827 42.8853 328.09 43.0771C328.352 43.2688 328.66 43.3647 329.011 43.3647C329.27 43.3647 329.503 43.3114 329.709 43.2049C329.919 43.0984 330.091 42.9439 330.226 42.7415C330.364 42.5355 330.455 42.2887 330.497 42.0011H332.639C332.603 42.6261 332.433 43.1765 332.127 43.6523C331.826 44.1246 331.408 44.494 330.876 44.7603C330.343 45.0266 329.713 45.1598 328.985 45.1598ZM337.82 45.1598C336.979 45.1598 336.254 44.9893 335.647 44.6484C335.043 44.304 334.578 43.8175 334.251 43.1889C333.925 42.5568 333.761 41.8093 333.761 40.9464C333.761 40.1048 333.925 39.3661 334.251 38.7305C334.578 38.0948 335.038 37.5994 335.631 37.2443C336.228 36.8892 336.927 36.7116 337.73 36.7116C338.269 36.7116 338.772 36.7987 339.237 36.9727C339.706 37.1431 340.114 37.4006 340.462 37.745C340.814 38.0895 341.087 38.5227 341.283 39.0447C341.478 39.5632 341.576 40.1705 341.576 40.8665V41.4897H334.667V40.0835H339.44C339.44 39.7567 339.369 39.4673 339.227 39.2152C339.084 38.9631 338.887 38.766 338.635 38.6239C338.387 38.4783 338.097 38.4055 337.767 38.4055C337.423 38.4055 337.117 38.4854 336.851 38.6452C336.588 38.8015 336.382 39.0128 336.233 39.2791C336.084 39.5419 336.007 39.8349 336.004 40.158V41.495C336.004 41.8999 336.078 42.2496 336.228 42.5444C336.38 42.8391 336.595 43.0664 336.872 43.2262C337.149 43.386 337.478 43.4659 337.858 43.4659C338.11 43.4659 338.341 43.4304 338.55 43.3594C338.76 43.2884 338.939 43.1818 339.088 43.0398C339.237 42.8977 339.351 42.7237 339.429 42.5178L341.528 42.6562C341.421 43.1605 341.203 43.6009 340.872 43.9773C340.546 44.3501 340.123 44.6413 339.605 44.8509C339.09 45.0568 338.495 45.1598 337.82 45.1598ZM343.056 45V36.8182H345.326V45H343.056ZM344.196 35.7635C343.859 35.7635 343.57 35.6516 343.328 35.4279C343.09 35.2006 342.971 34.929 342.971 34.6129C342.971 34.3004 343.09 34.0323 343.328 33.8086C343.57 33.5813 343.859 33.4677 344.196 33.4677C344.534 33.4677 344.821 33.5813 345.059 33.8086C345.301 34.0323 345.421 34.3004 345.421 34.6129C345.421 34.929 345.301 35.2006 345.059 35.4279C344.821 35.6516 344.534 35.7635 344.196 35.7635ZM351.495 36.8182V38.5227H346.568V36.8182H351.495ZM347.687 34.858H349.956V42.4858C349.956 42.6953 349.988 42.8587 350.052 42.9759C350.116 43.0895 350.204 43.1694 350.318 43.2156C350.435 43.2617 350.57 43.2848 350.723 43.2848C350.829 43.2848 350.936 43.2759 351.042 43.2582C351.149 43.2369 351.231 43.2209 351.288 43.2102L351.644 44.8988C351.531 44.9343 351.371 44.9751 351.165 45.0213C350.959 45.071 350.709 45.1012 350.414 45.1119C349.867 45.1332 349.388 45.0604 348.976 44.8935C348.567 44.7266 348.25 44.4673 348.022 44.1158C347.795 43.7642 347.683 43.3203 347.687 42.7841V34.858ZM355.307 45.1545C354.784 45.1545 354.319 45.0639 353.911 44.8828C353.503 44.6982 353.179 44.4265 352.941 44.0678C352.707 43.7056 352.59 43.2546 352.59 42.7148C352.59 42.2603 352.673 41.8786 352.84 41.5696C353.007 41.2607 353.234 41.0121 353.522 40.8239C353.81 40.6357 354.136 40.4936 354.502 40.3977C354.871 40.3018 355.259 40.2344 355.663 40.1953C356.139 40.1456 356.523 40.0994 356.814 40.0568C357.105 40.0107 357.316 39.9432 357.448 39.8544C357.579 39.7656 357.645 39.6342 357.645 39.4602V39.4283C357.645 39.0909 357.538 38.8299 357.325 38.6452C357.116 38.4606 356.818 38.3683 356.43 38.3683C356.022 38.3683 355.697 38.4588 355.456 38.6399C355.214 38.8175 355.054 39.0412 354.976 39.3111L352.878 39.1406C352.984 38.6435 353.194 38.2138 353.506 37.8516C353.819 37.4858 354.222 37.2053 354.715 37.0099C355.212 36.8111 355.788 36.7116 356.441 36.7116C356.896 36.7116 357.331 36.7649 357.746 36.8714C358.165 36.978 358.536 37.1431 358.859 37.3668C359.186 37.5906 359.444 37.8782 359.632 38.2298C359.82 38.5778 359.914 38.995 359.914 39.4815V45H357.762V43.8654H357.698C357.567 44.1211 357.391 44.3466 357.171 44.5419C356.951 44.7337 356.686 44.8846 356.377 44.9947C356.068 45.1012 355.711 45.1545 355.307 45.1545ZM355.956 43.5884C356.29 43.5884 356.585 43.5227 356.841 43.3913C357.096 43.2564 357.297 43.0753 357.443 42.848C357.588 42.6207 357.661 42.3633 357.661 42.0756V41.2074C357.59 41.2536 357.492 41.2962 357.368 41.3352C357.247 41.3707 357.11 41.4045 356.958 41.4364C356.805 41.4648 356.652 41.4915 356.5 41.5163C356.347 41.5376 356.208 41.5572 356.084 41.5749C355.818 41.614 355.585 41.6761 355.386 41.7614C355.188 41.8466 355.033 41.962 354.923 42.1076C354.813 42.2496 354.758 42.4272 354.758 42.6403C354.758 42.9492 354.87 43.1854 355.093 43.3487C355.321 43.5085 355.608 43.5884 355.956 43.5884Z" fill="black"/>
<defs>
<filter id="filter0_d_167_55" x="235" y="333" width="130" height="40" filterUnits="userSpaceOnUse" color-interpolation-filters="sRGB">
<feFlood flood-opacity="0" result="BackgroundImageFix"/>
<feColorMatrix in="SourceAlpha" type="matrix" values="0 0 0 0 0 0 0 0 0 0 0 0 0 0 0 0 0 0 127 0" result="hardAlpha"/>
<feOffset dy="4"/>
<feGaussianBlur stdDeviation="2"/>
<feComposite in2="hardAlpha" operator="out"/>
<feColorMatrix type="matrix" values="0 0 0 0 0 0 0 0 0 0 0 0 0 0 0 0 0 0 0.25 0"/>
<feBlend mode="normal" in2="BackgroundImageFix" result="effect1_dropShadow_167_55"/>
<feBlend mode="normal" in="SourceGraphic" in2="effect1_dropShadow_167_55" result="shape"/>
</filter>
<linearGradient id="paint0_linear_167_55" x1="300" y1="0" x2="300" y2="400" gradientUnits="userSpaceOnUse">
<stop stop-color="#00356E"/>
<stop offset="1" stop-color="#00356E"/>
</linearGradient>
</defs>
</svg>
